<svg xmlns="http://www.w3.org/2000/svg" viewBox="0 0 471 308"><defs><style>.cls-1{fill:#bdc3c7;}.cls-2{fill:#fff;}</style></defs><title>Asset 12</title><g id="Layer_2" data-name="Layer 2"><g id="Layer_1-2" data-name="Layer 1"><rect class="cls-1" width="471" height="308"/><g id="uhlJhl.tif"><path class="cls-2" d="M236.93,204.19h-2.66c-2.4-.27-4.81-.42-7.18-.83-12.29-2.16-22.63-8-30.29-17.78-12.71-16.29-15.14-34.32-6.36-53,8.41-17.9,23.25-27.35,43-28.67a46.19,46.19,0,0,1,25.39,5.63c14.32,7.75,23.07,19.65,26.15,35.66.36,1.86.54,3.76.81,5.64V157c-.16,1.31-.29,2.62-.48,3.93A49.57,49.57,0,0,1,265.82,194a48.17,48.17,0,0,1-23.21,9.62C240.72,203.86,238.82,204,236.93,204.19Zm33.57-50.26a8.71,8.71,0,1,0-8.63,8.77A8.65,8.65,0,0,0,270.5,153.93Zm-52.33.14a8.71,8.71,0,1,0-8.76,8.63A8.65,8.65,0,0,0,218.16,154.07Zm17.57-8.79a8.71,8.71,0,1,0,8.6,8.78A8.69,8.69,0,0,0,235.74,145.28Z"/></g></g></g></svg>