<svg width="245" height="245" viewBox="0 0 245 245" fill="none" xmlns="http://www.w3.org/2000/svg">
<rect width="245" height="245" rx="8" fill="white"/>
<path d="M79.2157 35.1641V23.2682H81.7307V33.0904H86.8306V35.1641H79.2157ZM92.4809 35.3383C91.5786 35.3383 90.7983 35.1466 90.14 34.7633C89.4856 34.376 88.9803 33.8378 88.624 33.1485C88.2677 32.4554 88.0896 31.6518 88.0896 30.738C88.0896 29.8164 88.2677 29.0109 88.624 28.3216C88.9803 27.6285 89.4856 27.0902 90.14 26.7069C90.7983 26.3196 91.5786 26.126 92.4809 26.126C93.3831 26.126 94.1615 26.3196 94.8159 26.7069C95.4742 27.0902 95.9815 27.6285 96.3377 28.3216C96.694 29.0109 96.8721 29.8164 96.8721 30.738C96.8721 31.6518 96.694 32.4554 96.3377 33.1485C95.9815 33.8378 95.4742 34.376 94.8159 34.7633C94.1615 35.1466 93.3831 35.3383 92.4809 35.3383ZM92.4925 33.4215C92.9029 33.4215 93.2456 33.3053 93.5206 33.073C93.7955 32.8368 94.0027 32.5154 94.1421 32.1088C94.2854 31.7022 94.357 31.2394 94.357 30.7205C94.357 30.2017 94.2854 29.7389 94.1421 29.3323C94.0027 28.9257 93.7955 28.6043 93.5206 28.3681C93.2456 28.1319 92.9029 28.0138 92.4925 28.0138C92.0781 28.0138 91.7296 28.1319 91.4469 28.3681C91.1681 28.6043 90.9571 28.9257 90.8138 29.3323C90.6744 29.7389 90.6047 30.2017 90.6047 30.7205C90.6047 31.2394 90.6744 31.7022 90.8138 32.1088C90.9571 32.5154 91.1681 32.8368 91.4469 33.073C91.7296 33.3053 92.0781 33.4215 92.4925 33.4215ZM102.501 38.6956C101.699 38.6956 101.012 38.5853 100.439 38.3646C99.8693 38.1477 99.4162 37.8515 99.0793 37.4759C98.7424 37.1002 98.5237 36.6781 98.423 36.2096L100.712 35.9017C100.781 36.0799 100.892 36.2464 101.043 36.4013C101.194 36.5562 101.393 36.6801 101.641 36.773C101.893 36.8698 102.199 36.9182 102.559 36.9182C103.097 36.9182 103.54 36.7866 103.889 36.5233C104.241 36.2638 104.417 35.8282 104.417 35.2163V33.5841H104.313C104.204 33.832 104.042 34.0663 103.825 34.287C103.608 34.5077 103.329 34.6878 102.988 34.8272C102.648 34.9666 102.241 35.0363 101.769 35.0363C101.099 35.0363 100.489 34.8814 99.939 34.5716C99.393 34.2579 98.9574 33.7797 98.6321 33.1369C98.3107 32.4902 98.15 31.6731 98.15 30.6857C98.15 29.675 98.3145 28.8308 98.6437 28.1532C98.9728 27.4755 99.4104 26.9682 99.9564 26.6314C100.506 26.2945 101.108 26.126 101.763 26.126C102.262 26.126 102.681 26.2112 103.018 26.3816C103.354 26.5481 103.625 26.7572 103.831 27.0089C104.04 27.2567 104.201 27.5007 104.313 27.7408H104.406V26.2422H106.863V35.2512C106.863 36.0102 106.677 36.6452 106.305 37.1564C105.933 37.6675 105.418 38.0509 104.76 38.3065C104.106 38.5659 103.352 38.6956 102.501 38.6956ZM102.553 33.1775C102.952 33.1775 103.289 33.0788 103.564 32.8813C103.842 32.68 104.055 32.3934 104.202 32.0217C104.353 31.646 104.429 31.1968 104.429 30.6741C104.429 30.1513 104.355 29.6982 104.208 29.3149C104.061 28.9277 103.848 28.6275 103.569 28.4146C103.291 28.2016 102.952 28.0951 102.553 28.0951C102.146 28.0951 101.804 28.2055 101.525 28.4262C101.246 28.643 101.035 28.9451 100.892 29.3323C100.748 29.7195 100.677 30.1668 100.677 30.6741C100.677 31.1891 100.748 31.6344 100.892 32.01C101.039 32.3818 101.25 32.6703 101.525 32.8755C101.804 33.0769 102.146 33.1775 102.553 33.1775ZM108.832 35.1641V26.2422H111.306V35.1641H108.832ZM110.075 25.0921C109.707 25.0921 109.391 24.9701 109.128 24.7262C108.869 24.4783 108.739 24.1821 108.739 23.8375C108.739 23.4967 108.869 23.2043 109.128 22.9604C109.391 22.7125 109.707 22.5886 110.075 22.5886C110.443 22.5886 110.756 22.7125 111.016 22.9604C111.279 23.2043 111.411 23.4967 111.411 23.8375C111.411 24.1821 111.279 24.4783 111.016 24.7262C110.756 24.9701 110.443 25.0921 110.075 25.0921ZM115.763 30.0061V35.1641H113.288V26.2422H115.647V27.8163H115.751C115.949 27.2974 116.28 26.8869 116.744 26.5849C117.209 26.279 117.773 26.126 118.435 26.126C119.054 26.126 119.595 26.2615 120.055 26.5326C120.516 26.8037 120.874 27.1909 121.13 27.6943C121.385 28.1938 121.513 28.7902 121.513 29.4833V35.1641H119.039V29.9248C119.043 29.3788 118.903 28.9528 118.621 28.6469C118.338 28.3371 117.949 28.1822 117.453 28.1822C117.12 28.1822 116.826 28.2539 116.57 28.3971C116.319 28.5404 116.121 28.7495 115.978 29.0245C115.838 29.2955 115.767 29.6227 115.763 30.0061ZM127.296 35.1641V23.2682H135.172V25.3419H129.811V28.1764H134.649V30.2501H129.811V35.1641H127.296ZM140.193 35.3383C139.291 35.3383 138.511 35.1466 137.853 34.7633C137.198 34.376 136.693 33.8378 136.337 33.1485C135.98 32.4554 135.802 31.6518 135.802 30.738C135.802 29.8164 135.98 29.0109 136.337 28.3216C136.693 27.6285 137.198 27.0902 137.853 26.7069C138.511 26.3196 139.291 26.126 140.193 26.126C141.096 26.126 141.874 26.3196 142.528 26.7069C143.187 27.0902 143.694 27.6285 144.05 28.3216C144.407 29.0109 144.585 29.8164 144.585 30.738C144.585 31.6518 144.407 32.4554 144.05 33.1485C143.694 33.8378 143.187 34.376 142.528 34.7633C141.874 35.1466 141.096 35.3383 140.193 35.3383ZM140.205 33.4215C140.616 33.4215 140.958 33.3053 141.233 33.073C141.508 32.8368 141.715 32.5154 141.855 32.1088C141.998 31.7022 142.07 31.2394 142.07 30.7205C142.07 30.2017 141.998 29.7389 141.855 29.3323C141.715 28.9257 141.508 28.6043 141.233 28.3681C140.958 28.1319 140.616 28.0138 140.205 28.0138C139.791 28.0138 139.442 28.1319 139.16 28.3681C138.881 28.6043 138.67 28.9257 138.526 29.3323C138.387 29.7389 138.317 30.2017 138.317 30.7205C138.317 31.2394 138.387 31.7022 138.526 32.1088C138.67 32.5154 138.881 32.8368 139.16 33.073C139.442 33.3053 139.791 33.4215 140.205 33.4215ZM146.194 35.1641V26.2422H148.593V27.7989H148.686C148.848 27.2451 149.121 26.8269 149.505 26.5442C149.888 26.2577 150.329 26.1144 150.829 26.1144C150.953 26.1144 151.086 26.1221 151.23 26.1376C151.373 26.1531 151.499 26.1744 151.607 26.2015V28.3971C151.491 28.3623 151.33 28.3313 151.125 28.3042C150.92 28.2771 150.732 28.2635 150.562 28.2635C150.198 28.2635 149.872 28.3429 149.586 28.5017C149.303 28.6566 149.079 28.8734 148.912 29.1522C148.749 29.4311 148.668 29.7525 148.668 30.1165V35.1641H146.194ZM152.887 35.1641V26.2422H155.245V27.8163H155.349C155.535 27.2935 155.845 26.8811 156.279 26.5791C156.712 26.277 157.231 26.126 157.835 26.126C158.447 26.126 158.968 26.279 159.398 26.5849C159.828 26.8869 160.114 27.2974 160.258 27.8163H160.35C160.532 27.3051 160.862 26.8966 161.338 26.5907C161.818 26.2809 162.385 26.126 163.04 26.126C163.872 26.126 164.548 26.3913 165.067 26.9218C165.59 27.4484 165.851 28.1958 165.851 29.1639V35.1641H163.383V29.6518C163.383 29.1561 163.251 28.7844 162.988 28.5365C162.724 28.2887 162.395 28.1648 162 28.1648C161.551 28.1648 161.2 28.3081 160.949 28.5946C160.697 28.8773 160.571 29.251 160.571 29.7157V35.1641H158.172V29.5995C158.172 29.1619 158.046 28.8134 157.795 28.554C157.547 28.2945 157.22 28.1648 156.813 28.1648C156.538 28.1648 156.29 28.2345 156.07 28.3739C155.853 28.5094 155.68 28.7011 155.553 28.9489C155.425 29.1929 155.361 29.4795 155.361 29.8086V35.1641H152.887Z" fill="#000824"/>
<path d="M35.7613 58.4297V51.2922H38.173C38.7329 51.2922 39.1906 51.3933 39.5461 51.5954C39.9039 51.7952 40.1688 52.0659 40.3407 52.4074C40.5126 52.749 40.5986 53.13 40.5986 53.5505C40.5986 53.9711 40.5126 54.3533 40.3407 54.6971C40.1711 55.041 39.9086 55.3152 39.5531 55.5196C39.1976 55.7218 38.7422 55.8228 38.1869 55.8228H36.4583V55.0561H38.159C38.5424 55.0561 38.8502 54.9899 39.0826 54.8574C39.3149 54.725 39.4834 54.5461 39.5879 54.3207C39.6948 54.093 39.7482 53.8363 39.7482 53.5505C39.7482 53.2648 39.6948 53.0092 39.5879 52.7838C39.4834 52.5584 39.3138 52.3819 39.0791 52.2541C38.8444 52.124 38.5331 52.0589 38.1451 52.0589H36.6256V58.4297H35.7613ZM42.7019 51.2922V58.4297H41.8794V51.2922H42.7019ZM46.4527 58.5412C45.9369 58.5412 45.492 58.4274 45.1179 58.1997C44.7462 57.9697 44.4592 57.649 44.2571 57.2378C44.0573 56.8242 43.9574 56.3433 43.9574 55.7949C43.9574 55.2466 44.0573 54.7634 44.2571 54.3451C44.4592 53.9246 44.7404 53.597 45.1005 53.3623C45.4629 53.1254 45.8858 53.0069 46.3691 53.0069C46.6479 53.0069 46.9232 53.0533 47.195 53.1463C47.4669 53.2392 47.7143 53.3902 47.9374 53.5993C48.1604 53.8061 48.3382 54.0803 48.4706 54.4218C48.603 54.7634 48.6692 55.1839 48.6692 55.6834V56.0319H44.5429V55.321H47.8328C47.8328 55.0189 47.7724 54.7494 47.6516 54.5124C47.5331 54.2754 47.3635 54.0884 47.1428 53.9513C46.9244 53.8142 46.6665 53.7457 46.3691 53.7457C46.0415 53.7457 45.758 53.827 45.5187 53.9897C45.2817 54.15 45.0993 54.3591 44.9715 54.617C44.8438 54.8749 44.7799 55.1514 44.7799 55.4464V55.9204C44.7799 56.3247 44.8496 56.6674 44.989 56.9485C45.1307 57.2273 45.327 57.4399 45.578 57.5863C45.8289 57.7303 46.1205 57.8024 46.4527 57.8024C46.6688 57.8024 46.864 57.7722 47.0382 57.7118C47.2148 57.649 47.367 57.5561 47.4948 57.4329C47.6226 57.3075 47.7213 57.1518 47.791 56.9659L48.5856 57.189C48.502 57.4585 48.3614 57.6955 48.1639 57.9C47.9664 58.1021 47.7225 58.2601 47.432 58.3739C47.1416 58.4854 46.8152 58.5412 46.4527 58.5412ZM51.4957 58.5552C51.1565 58.5552 50.8486 58.4913 50.5721 58.3635C50.2956 58.2334 50.0761 58.0463 49.9134 57.8024C49.7508 57.5561 49.6695 57.2587 49.6695 56.9102C49.6695 56.6035 49.7299 56.3549 49.8507 56.1644C49.9715 55.9715 50.133 55.8205 50.3351 55.7113C50.5373 55.6021 50.7603 55.5208 51.0043 55.4673C51.2506 55.4116 51.498 55.3674 51.7466 55.3349C52.0719 55.2931 52.3356 55.2617 52.5377 55.2408C52.7422 55.2176 52.8909 55.1792 52.9838 55.1258C53.0791 55.0724 53.1267 54.9794 53.1267 54.847V54.8191C53.1267 54.4752 53.0326 54.2081 52.8444 54.0175C52.6585 53.827 52.3762 53.7318 51.9975 53.7318C51.6049 53.7318 51.297 53.8177 51.074 53.9897C50.8509 54.1616 50.6941 54.3451 50.6035 54.5403L49.8228 54.2615C49.9622 53.9362 50.1481 53.683 50.3804 53.5017C50.6151 53.3182 50.8707 53.1904 51.1472 53.1184C51.426 53.044 51.7001 53.0069 51.9696 53.0069C52.1416 53.0069 52.3391 53.0278 52.5621 53.0696C52.7875 53.1091 53.0047 53.1916 53.2138 53.317C53.4253 53.4425 53.6007 53.6319 53.7401 53.8851C53.8795 54.1384 53.9492 54.4776 53.9492 54.9028V58.4297H53.1267V57.7048H53.0849C53.0291 57.821 52.9362 57.9453 52.8061 58.0777C52.676 58.2101 52.5029 58.3228 52.2868 58.4157C52.0707 58.5087 51.807 58.5552 51.4957 58.5552ZM51.6211 57.8163C51.9464 57.8163 52.2206 57.7524 52.4436 57.6246C52.669 57.4968 52.8386 57.3319 52.9524 57.1297C53.0686 56.9276 53.1267 56.715 53.1267 56.492V55.7392C53.0919 55.781 53.0152 55.8193 52.8967 55.8542C52.7805 55.8867 52.6458 55.9158 52.4924 55.9413C52.3414 55.9646 52.1939 55.9855 52.0498 56.0041C51.9081 56.0203 51.7931 56.0343 51.7048 56.0459C51.491 56.0738 51.2912 56.1191 51.1053 56.1818C50.9218 56.2422 50.7731 56.334 50.6592 56.4571C50.5477 56.5779 50.492 56.7429 50.492 56.952C50.492 57.2378 50.5977 57.4539 50.8091 57.6002C51.0229 57.7443 51.2935 57.8163 51.6211 57.8163ZM59.2422 54.2754L58.5034 54.4845C58.4569 54.3614 58.3883 54.2417 58.2977 54.1256C58.2094 54.0071 58.0886 53.9095 57.9353 53.8328C57.7819 53.7562 57.5856 53.7178 57.3463 53.7178C57.0187 53.7178 56.7457 53.7933 56.5273 53.9444C56.3112 54.093 56.2032 54.2824 56.2032 54.5124C56.2032 54.7169 56.2775 54.8784 56.4262 54.9969C56.5749 55.1153 56.8073 55.2141 57.1233 55.2931L57.9179 55.4883C58.3965 55.6044 58.7531 55.7822 58.9878 56.0215C59.2225 56.2585 59.3398 56.564 59.3398 56.9381C59.3398 57.2448 59.2515 57.5189 59.0749 57.7605C58.9007 58.0022 58.6567 58.1927 58.343 58.3321C58.0294 58.4715 57.6646 58.5412 57.2487 58.5412C56.7027 58.5412 56.2508 58.4227 55.893 58.1857C55.5352 57.9487 55.3087 57.6026 55.2134 57.1472L55.9941 56.952C56.0684 57.2401 56.209 57.4562 56.4158 57.6002C56.6249 57.7443 56.8979 57.8163 57.2348 57.8163C57.6181 57.8163 57.9225 57.735 58.1479 57.5724C58.3756 57.4074 58.4894 57.2099 58.4894 56.9799C58.4894 56.794 58.4244 56.6383 58.2943 56.5129C58.1641 56.3851 57.9643 56.2898 57.6948 56.2271L56.8026 56.018C56.3124 55.9018 55.9523 55.7218 55.7222 55.4778C55.4945 55.2315 55.3807 54.9237 55.3807 54.5542C55.3807 54.2522 55.4655 53.985 55.6351 53.7527C55.807 53.5203 56.0405 53.3379 56.3356 53.2055C56.633 53.0731 56.9699 53.0069 57.3463 53.0069C57.876 53.0069 58.2919 53.123 58.594 53.3554C58.8983 53.5877 59.1144 53.8944 59.2422 54.2754ZM62.8223 58.5412C62.3065 58.5412 61.8616 58.4274 61.4875 58.1997C61.1157 57.9697 60.8288 57.649 60.6267 57.2378C60.4268 56.8242 60.3269 56.3433 60.3269 55.7949C60.3269 55.2466 60.4268 54.7634 60.6267 54.3451C60.8288 53.9246 61.1099 53.597 61.4701 53.3623C61.8325 53.1254 62.2554 53.0069 62.7386 53.0069C63.0174 53.0069 63.2928 53.0533 63.5646 53.1463C63.8364 53.2392 64.0839 53.3902 64.3069 53.5993C64.53 53.8061 64.7077 54.0803 64.8402 54.4218C64.9726 54.7634 65.0388 55.1839 65.0388 55.6834V56.0319H60.9124V55.321H64.2024C64.2024 55.0189 64.142 54.7494 64.0212 54.5124C63.9027 54.2754 63.7331 54.0884 63.5123 53.9513C63.2939 53.8142 63.036 53.7457 62.7386 53.7457C62.411 53.7457 62.1276 53.827 61.8883 53.9897C61.6513 54.15 61.4689 54.3591 61.3411 54.617C61.2133 54.8749 61.1494 55.1514 61.1494 55.4464V55.9204C61.1494 56.3247 61.2191 56.6674 61.3585 56.9485C61.5003 57.2273 61.6966 57.4399 61.9475 57.5863C62.1984 57.7303 62.49 57.8024 62.8223 57.8024C63.0384 57.8024 63.2335 57.7722 63.4078 57.7118C63.5844 57.649 63.7365 57.5561 63.8643 57.4329C63.9921 57.3075 64.0909 57.1518 64.1606 56.9659L64.9552 57.189C64.8715 57.4585 64.731 57.6955 64.5335 57.9C64.336 58.1021 64.092 58.2601 63.8016 58.3739C63.5112 58.4854 63.1847 58.5412 62.8223 58.5412ZM71.2249 58.5412C70.723 58.5412 70.2909 58.4227 69.9284 58.1857C69.566 57.9487 69.2872 57.6223 69.092 57.2064C68.8968 56.7905 68.7992 56.3154 68.7992 55.781C68.7992 55.2373 68.8991 54.7575 69.099 54.3417C69.3011 53.9234 69.5822 53.597 69.9424 53.3623C70.3048 53.1254 70.7277 53.0069 71.2109 53.0069C71.5873 53.0069 71.9265 53.0766 72.2286 53.216C72.5306 53.3554 72.7781 53.5505 72.9709 53.8015C73.1638 54.0524 73.2834 54.3451 73.3299 54.6797H72.5074C72.4447 54.4358 72.3053 54.2197 72.0892 54.0315C71.8754 53.841 71.5873 53.7457 71.2249 53.7457C70.9042 53.7457 70.6231 53.8293 70.3815 53.9966C70.1422 54.1616 69.9551 54.3951 69.8204 54.6971C69.6879 54.9969 69.6217 55.3489 69.6217 55.7531C69.6217 56.1667 69.6868 56.5268 69.8169 56.8335C69.9493 57.1402 70.1352 57.3783 70.3745 57.548C70.6161 57.7176 70.8996 57.8024 71.2249 57.8024C71.4386 57.8024 71.6326 57.7652 71.8069 57.6908C71.9811 57.6165 72.1287 57.5096 72.2495 57.3702C72.3703 57.2308 72.4563 57.0635 72.5074 56.8684H73.3299C73.2834 57.1843 73.1684 57.469 72.9849 57.7222C72.8036 57.9731 72.5632 58.173 72.2634 58.3216C71.966 58.468 71.6199 58.5412 71.2249 58.5412ZM76.707 58.5412C76.2237 58.5412 75.7997 58.4262 75.4349 58.1962C75.0724 57.9662 74.789 57.6444 74.5845 57.2308C74.3824 56.8172 74.2813 56.334 74.2813 55.781C74.2813 55.2234 74.3824 54.7366 74.5845 54.3207C74.789 53.9049 75.0724 53.5819 75.4349 53.3519C75.7997 53.1219 76.2237 53.0069 76.707 53.0069C77.1902 53.0069 77.6131 53.1219 77.9755 53.3519C78.3403 53.5819 78.6238 53.9049 78.8259 54.3207C79.0304 54.7366 79.1326 55.2234 79.1326 55.781C79.1326 56.334 79.0304 56.8172 78.8259 57.2308C78.6238 57.6444 78.3403 57.9662 77.9755 58.1962C77.6131 58.4262 77.1902 58.5412 76.707 58.5412ZM76.707 57.8024C77.0741 57.8024 77.3761 57.7083 77.6131 57.5201C77.8501 57.3319 78.0255 57.0844 78.1393 56.7777C78.2532 56.4711 78.3101 56.1388 78.3101 55.781C78.3101 55.4232 78.2532 55.0898 78.1393 54.7808C78.0255 54.4718 77.8501 54.222 77.6131 54.0315C77.3761 53.841 77.0741 53.7457 76.707 53.7457C76.3399 53.7457 76.0378 53.841 75.8008 54.0315C75.5638 54.222 75.3884 54.4718 75.2746 54.7808C75.1607 55.0898 75.1038 55.4232 75.1038 55.781C75.1038 56.1388 75.1607 56.4711 75.2746 56.7777C75.3884 57.0844 75.5638 57.3319 75.8008 57.5201C76.0378 57.7083 76.3399 57.8024 76.707 57.8024ZM80.3881 58.4297V53.0766H81.1827V53.913H81.2524C81.3639 53.6272 81.544 53.4053 81.7926 53.2473C82.0412 53.087 82.3398 53.0069 82.6883 53.0069C83.0414 53.0069 83.3353 53.087 83.57 53.2473C83.807 53.4053 83.9917 53.6272 84.1241 53.913H84.1799C84.317 53.6365 84.5226 53.4169 84.7968 53.2543C85.0709 53.0893 85.3997 53.0069 85.7831 53.0069C86.2617 53.0069 86.6532 53.1567 86.9575 53.4564C87.2619 53.7538 87.4141 54.2174 87.4141 54.847V58.4297H86.5916V54.847C86.5916 54.452 86.4836 54.1697 86.2675 54.0001C86.0514 53.8305 85.797 53.7457 85.5042 53.7457C85.1279 53.7457 84.8363 53.8595 84.6295 54.0872C84.4227 54.3126 84.3193 54.5984 84.3193 54.9446V58.4297H83.4829V54.7634C83.4829 54.459 83.3841 54.2139 83.1866 54.028C82.9892 53.8398 82.7347 53.7457 82.4234 53.7457C82.2097 53.7457 82.0098 53.8026 81.824 53.9165C81.6404 54.0303 81.4917 54.1883 81.3779 54.3904C81.2664 54.5903 81.2106 54.8214 81.2106 55.084V58.4297H80.3881ZM88.9179 60.4371V53.0766H89.7125V53.9269H89.8101C89.8705 53.834 89.9542 53.7155 90.061 53.5714C90.1702 53.4251 90.3259 53.295 90.528 53.1811C90.7325 53.0649 91.009 53.0069 91.3575 53.0069C91.8082 53.0069 92.2055 53.1195 92.5494 53.3449C92.8933 53.5703 93.1616 53.8898 93.3545 54.3033C93.5473 54.7169 93.6437 55.2048 93.6437 55.7671C93.6437 56.334 93.5473 56.8254 93.3545 57.2413C93.1616 57.6548 92.8944 57.9755 92.5529 58.2032C92.2113 58.4285 91.8175 58.5412 91.3714 58.5412C91.0276 58.5412 90.7522 58.4843 90.5455 58.3704C90.3387 58.2543 90.1795 58.123 90.068 57.9766C89.9565 57.8279 89.8705 57.7048 89.8101 57.6072H89.7404V60.4371H88.9179ZM89.7265 55.7531C89.7265 56.1574 89.7857 56.514 89.9042 56.8231C90.0227 57.1297 90.1958 57.3702 90.4235 57.5445C90.6512 57.7164 90.93 57.8024 91.2599 57.8024C91.6038 57.8024 91.8907 57.7118 92.1207 57.5305C92.3531 57.347 92.5273 57.1007 92.6435 56.7917C92.762 56.4803 92.8212 56.1342 92.8212 55.7531C92.8212 55.3767 92.7632 55.0375 92.647 54.7355C92.5331 54.4311 92.36 54.1906 92.1277 54.0141C91.8977 53.8352 91.6084 53.7457 91.2599 53.7457C90.9253 53.7457 90.6442 53.8305 90.4165 54.0001C90.1888 54.1674 90.0169 54.4021 89.9007 54.7041C89.7845 55.0038 89.7265 55.3535 89.7265 55.7531ZM95.7208 51.2922V58.4297H94.8984V51.2922H95.7208ZM99.4717 58.5412C98.9559 58.5412 98.511 58.4274 98.1369 58.1997C97.7652 57.9697 97.4782 57.649 97.2761 57.2378C97.0763 56.8242 96.9764 56.3433 96.9764 55.7949C96.9764 55.2466 97.0763 54.7634 97.2761 54.3451C97.4782 53.9246 97.7593 53.597 98.1195 53.3623C98.4819 53.1254 98.9048 53.0069 99.3881 53.0069C99.6669 53.0069 99.9422 53.0533 100.214 53.1463C100.486 53.2392 100.733 53.3902 100.956 53.5993C101.179 53.8061 101.357 54.0803 101.49 54.4218C101.622 54.7634 101.688 55.1839 101.688 55.6834V56.0319H97.5619V55.321H100.852C100.852 55.0189 100.791 54.7494 100.671 54.5124C100.552 54.2754 100.382 54.0884 100.162 53.9513C99.9433 53.8142 99.6855 53.7457 99.3881 53.7457C99.0605 53.7457 98.777 53.827 98.5377 53.9897C98.3007 54.15 98.1183 54.3591 97.9905 54.617C97.8627 54.8749 97.7988 55.1514 97.7988 55.4464V55.9204C97.7988 56.3247 97.8685 56.6674 98.008 56.9485C98.1497 57.2273 98.346 57.4399 98.5969 57.5863C98.8479 57.7303 99.1395 57.8024 99.4717 57.8024C99.6878 57.8024 99.8829 57.7722 100.057 57.7118C100.234 57.649 100.386 57.5561 100.514 57.4329C100.642 57.3075 100.74 57.1518 100.81 56.9659L101.605 57.189C101.521 57.4585 101.38 57.6955 101.183 57.9C100.985 58.1021 100.741 58.2601 100.451 58.3739C100.161 58.4854 99.8341 58.5412 99.4717 58.5412ZM105.267 53.0766V53.7736H102.493V53.0766H105.267ZM103.302 51.794H104.124V56.8962C104.124 57.1286 104.158 57.3028 104.225 57.419C104.295 57.5329 104.383 57.6095 104.49 57.649C104.599 57.6862 104.714 57.7048 104.835 57.7048C104.926 57.7048 105 57.7001 105.058 57.6908C105.116 57.6792 105.163 57.6699 105.198 57.663L105.365 58.4018C105.309 58.4227 105.231 58.4436 105.132 58.4645C105.032 58.4878 104.905 58.4994 104.752 58.4994C104.519 58.4994 104.292 58.4494 104.069 58.3495C103.848 58.2496 103.664 58.0974 103.518 57.893C103.374 57.6885 103.302 57.4306 103.302 57.1193V51.794ZM108.692 58.5412C108.176 58.5412 107.731 58.4274 107.357 58.1997C106.985 57.9697 106.698 57.649 106.496 57.2378C106.296 56.8242 106.196 56.3433 106.196 55.7949C106.196 55.2466 106.296 54.7634 106.496 54.3451C106.698 53.9246 106.979 53.597 107.339 53.3623C107.702 53.1254 108.125 53.0069 108.608 53.0069C108.887 53.0069 109.162 53.0533 109.434 53.1463C109.706 53.2392 109.953 53.3902 110.176 53.5993C110.399 53.8061 110.577 54.0803 110.709 54.4218C110.842 54.7634 110.908 55.1839 110.908 55.6834V56.0319H106.782V55.321H110.072C110.072 55.0189 110.011 54.7494 109.89 54.5124C109.772 54.2754 109.602 54.0884 109.382 53.9513C109.163 53.8142 108.905 53.7457 108.608 53.7457C108.28 53.7457 107.997 53.827 107.758 53.9897C107.521 54.15 107.338 54.3591 107.21 54.617C107.083 54.8749 107.019 55.1514 107.019 55.4464V55.9204C107.019 56.3247 107.088 56.6674 107.228 56.9485C107.37 57.2273 107.566 57.4399 107.817 57.5863C108.068 57.7303 108.359 57.8024 108.692 57.8024C108.908 57.8024 109.103 57.7722 109.277 57.7118C109.454 57.649 109.606 57.5561 109.734 57.4329C109.861 57.3075 109.96 57.1518 110.03 56.9659L110.824 57.189C110.741 57.4585 110.6 57.6955 110.403 57.9C110.205 58.1021 109.961 58.2601 109.671 58.3739C109.38 58.4854 109.054 58.5412 108.692 58.5412ZM116.495 58.5552C116.156 58.5552 115.848 58.4913 115.571 58.3635C115.295 58.2334 115.075 58.0463 114.912 57.8024C114.75 57.5561 114.669 57.2587 114.669 56.9102C114.669 56.6035 114.729 56.3549 114.85 56.1644C114.971 55.9715 115.132 55.8205 115.334 55.7113C115.536 55.6021 115.759 55.5208 116.003 55.4673C116.25 55.4116 116.497 55.3674 116.746 55.3349C117.071 55.2931 117.335 55.2617 117.537 55.2408C117.741 55.2176 117.89 55.1792 117.983 55.1258C118.078 55.0724 118.126 54.9794 118.126 54.847V54.8191C118.126 54.4752 118.032 54.2081 117.843 54.0175C117.658 53.827 117.375 53.7318 116.997 53.7318C116.604 53.7318 116.296 53.8177 116.073 53.9897C115.85 54.1616 115.693 54.3451 115.603 54.5403L114.822 54.2615C114.961 53.9362 115.147 53.683 115.379 53.5017C115.614 53.3182 115.87 53.1904 116.146 53.1184C116.425 53.044 116.699 53.0069 116.969 53.0069C117.141 53.0069 117.338 53.0278 117.561 53.0696C117.787 53.1091 118.004 53.1916 118.213 53.317C118.424 53.4425 118.6 53.6319 118.739 53.8851C118.879 54.1384 118.948 54.4776 118.948 54.9028V58.4297H118.126V57.7048H118.084C118.028 57.821 117.935 57.9453 117.805 58.0777C117.675 58.2101 117.502 58.3228 117.286 58.4157C117.07 58.5087 116.806 58.5552 116.495 58.5552ZM116.62 57.8163C116.945 57.8163 117.22 57.7524 117.443 57.6246C117.668 57.4968 117.838 57.3319 117.951 57.1297C118.068 56.9276 118.126 56.715 118.126 56.492V55.7392C118.091 55.781 118.014 55.8193 117.896 55.8542C117.78 55.8867 117.645 55.9158 117.491 55.9413C117.34 55.9646 117.193 55.9855 117.049 56.0041C116.907 56.0203 116.792 56.0343 116.704 56.0459C116.49 56.0738 116.29 56.1191 116.104 56.1818C115.921 56.2422 115.772 56.334 115.658 56.4571C115.547 56.5779 115.491 56.7429 115.491 56.952C115.491 57.2378 115.597 57.4539 115.808 57.6002C116.022 57.7443 116.293 57.8163 116.62 57.8163ZM121.272 51.2922V58.4297H120.449V51.2922H121.272ZM123.601 51.2922V58.4297H122.778V51.2922H123.601ZM127.867 58.4297V53.0766H128.69V58.4297H127.867ZM128.286 52.1844C128.125 52.1844 127.987 52.1298 127.871 52.0206C127.757 51.9114 127.7 51.7801 127.7 51.6268C127.7 51.4734 127.757 51.3421 127.871 51.2329C127.987 51.1237 128.125 51.0691 128.286 51.0691C128.446 51.0691 128.583 51.1237 128.697 51.2329C128.813 51.3421 128.871 51.4734 128.871 51.6268C128.871 51.7801 128.813 51.9114 128.697 52.0206C128.583 52.1298 128.446 52.1844 128.286 52.1844ZM131.019 55.2094V58.4297H130.196V53.0766H130.991V53.913H131.061C131.186 53.6411 131.377 53.4227 131.632 53.2578C131.888 53.0905 132.218 53.0069 132.622 53.0069C132.985 53.0069 133.302 53.0812 133.573 53.2299C133.845 53.3763 134.057 53.5993 134.208 53.899C134.359 54.1964 134.434 54.5728 134.434 55.0282V58.4297H133.612V55.084C133.612 54.6634 133.503 54.3358 133.284 54.1012C133.066 53.8642 132.766 53.7457 132.385 53.7457C132.123 53.7457 131.888 53.8026 131.681 53.9165C131.477 54.0303 131.315 54.1964 131.197 54.4148C131.078 54.6332 131.019 54.8981 131.019 55.2094ZM138.321 53.0766V53.7736H135.435V53.0766H138.321ZM136.3 58.4297V52.3377C136.3 52.031 136.372 51.7755 136.516 51.571C136.66 51.3665 136.847 51.2132 137.077 51.111C137.307 51.0087 137.55 50.9576 137.805 50.9576C138.007 50.9576 138.172 50.9739 138.3 51.0064C138.428 51.0389 138.523 51.0691 138.586 51.097L138.349 51.808C138.307 51.794 138.249 51.7766 138.175 51.7557C138.103 51.7348 138.007 51.7243 137.889 51.7243C137.617 51.7243 137.421 51.7929 137.3 51.93C137.181 52.067 137.122 52.268 137.122 52.5329V58.4297H136.3ZM141.428 58.5412C140.945 58.5412 140.521 58.4262 140.156 58.1962C139.794 57.9662 139.51 57.6444 139.306 57.2308C139.103 56.8172 139.002 56.334 139.002 55.781C139.002 55.2234 139.103 54.7366 139.306 54.3207C139.51 53.9049 139.794 53.5819 140.156 53.3519C140.521 53.1219 140.945 53.0069 141.428 53.0069C141.911 53.0069 142.334 53.1219 142.697 53.3519C143.061 53.5819 143.345 53.9049 143.547 54.3207C143.751 54.7366 143.854 55.2234 143.854 55.781C143.854 56.334 143.751 56.8172 143.547 57.2308C143.345 57.6444 143.061 57.9662 142.697 58.1962C142.334 58.4262 141.911 58.5412 141.428 58.5412ZM141.428 57.8024C141.795 57.8024 142.097 57.7083 142.334 57.5201C142.571 57.3319 142.747 57.0844 142.86 56.7777C142.974 56.4711 143.031 56.1388 143.031 55.781C143.031 55.4232 142.974 55.0898 142.86 54.7808C142.747 54.4718 142.571 54.222 142.334 54.0315C142.097 53.841 141.795 53.7457 141.428 53.7457C141.061 53.7457 140.759 53.841 140.522 54.0315C140.285 54.222 140.11 54.4718 139.996 54.7808C139.882 55.0898 139.825 55.4232 139.825 55.781C139.825 56.1388 139.882 56.4711 139.996 56.7777C140.11 57.0844 140.285 57.3319 140.522 57.5201C140.759 57.7083 141.061 57.8024 141.428 57.8024ZM145.109 58.4297V53.0766H145.904V53.8851H145.96C146.057 53.6202 146.234 53.4053 146.489 53.2404C146.745 53.0754 147.033 52.9929 147.354 52.9929C147.414 52.9929 147.49 52.9941 147.58 52.9964C147.671 52.9987 147.739 53.0022 147.786 53.0069V53.8433C147.758 53.8363 147.694 53.8259 147.594 53.8119C147.497 53.7957 147.393 53.7875 147.284 53.7875C147.024 53.7875 146.791 53.8421 146.587 53.9513C146.385 54.0582 146.224 54.2069 146.106 54.3974C145.99 54.5856 145.932 54.8005 145.932 55.0422V58.4297H145.109ZM148.761 58.4297V53.0766H149.555V53.913H149.625C149.737 53.6272 149.917 53.4053 150.165 53.2473C150.414 53.087 150.712 53.0069 151.061 53.0069C151.414 53.0069 151.708 53.087 151.943 53.2473C152.18 53.4053 152.364 53.6272 152.497 53.913H152.553C152.69 53.6365 152.895 53.4169 153.169 53.2543C153.444 53.0893 153.772 53.0069 154.156 53.0069C154.634 53.0069 155.026 53.1567 155.33 53.4564C155.635 53.7538 155.787 54.2174 155.787 54.847V58.4297H154.964V54.847C154.964 54.452 154.856 54.1697 154.64 54.0001C154.424 53.8305 154.17 53.7457 153.877 53.7457C153.5 53.7457 153.209 53.8595 153.002 54.0872C152.795 54.3126 152.692 54.5984 152.692 54.9446V58.4297H151.856V54.7634C151.856 54.459 151.757 54.2139 151.559 54.028C151.362 53.8398 151.107 53.7457 150.796 53.7457C150.582 53.7457 150.382 53.8026 150.197 53.9165C150.013 54.0303 149.864 54.1883 149.751 54.3904C149.639 54.5903 149.583 54.8214 149.583 55.084V58.4297H148.761ZM158.866 58.5552C158.527 58.5552 158.219 58.4913 157.942 58.3635C157.666 58.2334 157.446 58.0463 157.284 57.8024C157.121 57.5561 157.04 57.2587 157.04 56.9102C157.04 56.6035 157.1 56.3549 157.221 56.1644C157.342 55.9715 157.503 55.8205 157.705 55.7113C157.907 55.6021 158.13 55.5208 158.374 55.4673C158.621 55.4116 158.868 55.3674 159.117 55.3349C159.442 55.2931 159.706 55.2617 159.908 55.2408C160.112 55.2176 160.261 55.1792 160.354 55.1258C160.449 55.0724 160.497 54.9794 160.497 54.847V54.8191C160.497 54.4752 160.403 54.2081 160.215 54.0175C160.029 53.827 159.746 53.7318 159.368 53.7318C158.975 53.7318 158.667 53.8177 158.444 53.9897C158.221 54.1616 158.064 54.3451 157.974 54.5403L157.193 54.2615C157.332 53.9362 157.518 53.683 157.751 53.5017C157.985 53.3182 158.241 53.1904 158.517 53.1184C158.796 53.044 159.07 53.0069 159.34 53.0069C159.512 53.0069 159.709 53.0278 159.932 53.0696C160.158 53.1091 160.375 53.1916 160.584 53.317C160.795 53.4425 160.971 53.6319 161.11 53.8851C161.25 54.1384 161.319 54.4776 161.319 54.9028V58.4297H160.497V57.7048H160.455C160.399 57.821 160.306 57.9453 160.176 58.0777C160.046 58.2101 159.873 58.3228 159.657 58.4157C159.441 58.5087 159.177 58.5552 158.866 58.5552ZM158.991 57.8163C159.317 57.8163 159.591 57.7524 159.814 57.6246C160.039 57.4968 160.209 57.3319 160.323 57.1297C160.439 56.9276 160.497 56.715 160.497 56.492V55.7392C160.462 55.781 160.385 55.8193 160.267 55.8542C160.151 55.8867 160.016 55.9158 159.863 55.9413C159.712 55.9646 159.564 55.9855 159.42 56.0041C159.278 56.0203 159.163 56.0343 159.075 56.0459C158.861 56.0738 158.661 56.1191 158.475 56.1818C158.292 56.2422 158.143 56.334 158.029 56.4571C157.918 56.5779 157.862 56.7429 157.862 56.952C157.862 57.2378 157.968 57.4539 158.179 57.6002C158.393 57.7443 158.664 57.8163 158.991 57.8163ZM165.149 53.0766V53.7736H162.374V53.0766H165.149ZM163.183 51.794H164.005V56.8962C164.005 57.1286 164.039 57.3028 164.107 57.419C164.176 57.5329 164.265 57.6095 164.371 57.649C164.481 57.6862 164.596 57.7048 164.716 57.7048C164.807 57.7048 164.881 57.7001 164.939 57.6908C164.998 57.6792 165.044 57.6699 165.079 57.663L165.246 58.4018C165.19 58.4227 165.113 58.4436 165.013 58.4645C164.913 58.4878 164.786 58.4994 164.633 58.4994C164.4 58.4994 164.173 58.4494 163.95 58.3495C163.729 58.2496 163.545 58.0974 163.399 57.893C163.255 57.6885 163.183 57.4306 163.183 57.1193V51.794ZM166.386 58.4297V53.0766H167.208V58.4297H166.386ZM166.804 52.1844C166.644 52.1844 166.505 52.1298 166.389 52.0206C166.275 51.9114 166.219 51.7801 166.219 51.6268C166.219 51.4734 166.275 51.3421 166.389 51.2329C166.505 51.1237 166.644 51.0691 166.804 51.0691C166.964 51.0691 167.101 51.1237 167.215 51.2329C167.331 51.3421 167.39 51.4734 167.39 51.6268C167.39 51.7801 167.331 51.9114 167.215 52.0206C167.101 52.1298 166.964 52.1844 166.804 52.1844ZM170.889 58.5412C170.406 58.5412 169.982 58.4262 169.617 58.1962C169.255 57.9662 168.971 57.6444 168.767 57.2308C168.565 56.8172 168.464 56.334 168.464 55.781C168.464 55.2234 168.565 54.7366 168.767 54.3207C168.971 53.9049 169.255 53.5819 169.617 53.3519C169.982 53.1219 170.406 53.0069 170.889 53.0069C171.373 53.0069 171.796 53.1219 172.158 53.3519C172.523 53.5819 172.806 53.9049 173.008 54.3207C173.213 54.7366 173.315 55.2234 173.315 55.781C173.315 56.334 173.213 56.8172 173.008 57.2308C172.806 57.6444 172.523 57.9662 172.158 58.1962C171.796 58.4262 171.373 58.5412 170.889 58.5412ZM170.889 57.8024C171.257 57.8024 171.559 57.7083 171.796 57.5201C172.033 57.3319 172.208 57.0844 172.322 56.7777C172.436 56.4711 172.493 56.1388 172.493 55.781C172.493 55.4232 172.436 55.0898 172.322 54.7808C172.208 54.4718 172.033 54.222 171.796 54.0315C171.559 53.841 171.257 53.7457 170.889 53.7457C170.522 53.7457 170.22 53.841 169.983 54.0315C169.746 54.222 169.571 54.4718 169.457 54.7808C169.343 55.0898 169.286 55.4232 169.286 55.781C169.286 56.1388 169.343 56.4711 169.457 56.7777C169.571 57.0844 169.746 57.3319 169.983 57.5201C170.22 57.7083 170.522 57.8024 170.889 57.8024ZM175.393 55.2094V58.4297H174.571V53.0766H175.365V53.913H175.435C175.56 53.6411 175.751 53.4227 176.006 53.2578C176.262 53.0905 176.592 53.0069 176.996 53.0069C177.359 53.0069 177.676 53.0812 177.948 53.2299C178.22 53.3763 178.431 53.5993 178.582 53.899C178.733 54.1964 178.808 54.5728 178.808 55.0282V58.4297H177.986V55.084C177.986 54.6634 177.877 54.3358 177.658 54.1012C177.44 53.8642 177.14 53.7457 176.759 53.7457C176.497 53.7457 176.262 53.8026 176.055 53.9165C175.851 54.0303 175.689 54.1964 175.571 54.4148C175.452 54.6332 175.393 54.8981 175.393 55.2094ZM183.183 58.4297V51.2922H184.006V53.9269H184.075C184.136 53.834 184.219 53.7155 184.326 53.5714C184.435 53.4251 184.591 53.295 184.793 53.1811C184.998 53.0649 185.274 53.0069 185.623 53.0069C186.073 53.0069 186.471 53.1195 186.815 53.3449C187.159 53.5703 187.427 53.8898 187.62 54.3033C187.813 54.7169 187.909 55.2048 187.909 55.7671C187.909 56.334 187.813 56.8254 187.62 57.2413C187.427 57.6548 187.16 57.9755 186.818 58.2032C186.477 58.4285 186.083 58.5412 185.637 58.5412C185.293 58.5412 185.017 58.4843 184.811 58.3704C184.604 58.2543 184.445 58.123 184.333 57.9766C184.222 57.8279 184.136 57.7048 184.075 57.6072H183.978V58.4297H183.183ZM183.992 55.7531C183.992 56.1574 184.051 56.514 184.169 56.8231C184.288 57.1297 184.461 57.3702 184.689 57.5445C184.916 57.7164 185.195 57.8024 185.525 57.8024C185.869 57.8024 186.156 57.7118 186.386 57.5305C186.618 57.347 186.793 57.1007 186.909 56.7917C187.027 56.4803 187.086 56.1342 187.086 55.7531C187.086 55.3767 187.028 55.0375 186.912 54.7355C186.798 54.4311 186.625 54.1906 186.393 54.0141C186.163 53.8352 185.874 53.7457 185.525 53.7457C185.191 53.7457 184.909 53.8305 184.682 54.0001C184.454 54.1674 184.282 54.4021 184.166 54.7041C184.05 55.0038 183.992 55.3535 183.992 55.7531ZM191.412 58.5412C190.896 58.5412 190.451 58.4274 190.077 58.1997C189.705 57.9697 189.418 57.649 189.216 57.2378C189.016 56.8242 188.916 56.3433 188.916 55.7949C188.916 55.2466 189.016 54.7634 189.216 54.3451C189.418 53.9246 189.699 53.597 190.059 53.3623C190.422 53.1254 190.845 53.0069 191.328 53.0069C191.607 53.0069 191.882 53.0533 192.154 53.1463C192.426 53.2392 192.673 53.3902 192.896 53.5993C193.119 53.8061 193.297 54.0803 193.429 54.4218C193.562 54.7634 193.628 55.1839 193.628 55.6834V56.0319H189.502V55.321H192.792C192.792 55.0189 192.731 54.7494 192.61 54.5124C192.492 54.2754 192.322 54.0884 192.102 53.9513C191.883 53.8142 191.625 53.7457 191.328 53.7457C191 53.7457 190.717 53.827 190.477 53.9897C190.241 54.15 190.058 54.3591 189.93 54.617C189.803 54.8749 189.739 55.1514 189.739 55.4464V55.9204C189.739 56.3247 189.808 56.6674 189.948 56.9485C190.089 57.2273 190.286 57.4399 190.537 57.5863C190.788 57.7303 191.079 57.8024 191.412 57.8024C191.628 57.8024 191.823 57.7722 191.997 57.7118C192.174 57.649 192.326 57.5561 192.454 57.4329C192.581 57.3075 192.68 57.1518 192.75 56.9659L193.544 57.189C193.461 57.4585 193.32 57.6955 193.123 57.9C192.925 58.1021 192.681 58.2601 192.391 58.3739C192.1 58.4854 191.774 58.5412 191.412 58.5412ZM195.702 51.2922V58.4297H194.879V51.2922H195.702ZM199.383 58.5412C198.9 58.5412 198.476 58.4262 198.111 58.1962C197.748 57.9662 197.465 57.6444 197.26 57.2308C197.058 56.8172 196.957 56.334 196.957 55.781C196.957 55.2234 197.058 54.7366 197.26 54.3207C197.465 53.9049 197.748 53.5819 198.111 53.3519C198.476 53.1219 198.9 53.0069 199.383 53.0069C199.866 53.0069 200.289 53.1219 200.651 53.3519C201.016 53.5819 201.3 53.9049 201.502 54.3207C201.706 54.7366 201.808 55.2234 201.808 55.781C201.808 56.334 201.706 56.8172 201.502 57.2308C201.3 57.6444 201.016 57.9662 200.651 58.1962C200.289 58.4262 199.866 58.5412 199.383 58.5412ZM199.383 57.8024C199.75 57.8024 200.052 57.7083 200.289 57.5201C200.526 57.3319 200.701 57.0844 200.815 56.7777C200.929 56.4711 200.986 56.1388 200.986 55.781C200.986 55.4232 200.929 55.0898 200.815 54.7808C200.701 54.4718 200.526 54.222 200.289 54.0315C200.052 53.841 199.75 53.7457 199.383 53.7457C199.016 53.7457 198.714 53.841 198.477 54.0315C198.24 54.222 198.064 54.4718 197.95 54.7808C197.837 55.0898 197.78 55.4232 197.78 55.781C197.78 56.1388 197.837 56.4711 197.95 56.7777C198.064 57.0844 198.24 57.3319 198.477 57.5201C198.714 57.7083 199.016 57.8024 199.383 57.8024ZM204.095 58.4297L202.464 53.0766H203.328L204.485 57.175H204.541L205.684 53.0766H206.562L207.691 57.1611H207.747L208.904 53.0766H209.768L208.137 58.4297H207.329L206.158 54.3173H206.074L204.903 58.4297H204.095Z" fill="#000824"/>
<path d="M18.9318 88.0852H19.7001V92.286C19.7001 92.7197 19.5979 93.1069 19.3934 93.4477C19.191 93.7864 18.905 94.0538 18.5353 94.25C18.1656 94.4441 17.7319 94.5412 17.2342 94.5412C16.7365 94.5412 16.3028 94.4441 15.9331 94.25C15.5634 94.0538 15.2763 93.7864 15.0719 93.4477C14.8695 93.1069 14.7683 92.7197 14.7683 92.286V88.0852H15.5365V92.224C15.5365 92.5338 15.6047 92.8095 15.741 93.0511C15.8773 93.2907 16.0714 93.4797 16.3234 93.618C16.5774 93.7544 16.881 93.8225 17.2342 93.8225C17.5873 93.8225 17.8909 93.7544 18.145 93.618C18.399 93.4797 18.5931 93.2907 18.7274 93.0511C18.8637 92.8095 18.9318 92.5338 18.9318 92.224V88.0852ZM24.5057 90.737L23.8489 90.9229C23.8076 90.8134 23.7467 90.7071 23.6661 90.6038C23.5877 90.4985 23.4803 90.4117 23.344 90.3436C23.2077 90.2754 23.0331 90.2414 22.8204 90.2414C22.5292 90.2414 22.2866 90.3085 22.0924 90.4427C21.9004 90.5749 21.8043 90.7432 21.8043 90.9477C21.8043 91.1294 21.8704 91.273 22.0026 91.3783C22.1348 91.4836 22.3413 91.5714 22.6222 91.6416L23.3285 91.8151C23.7539 91.9183 24.0709 92.0763 24.2795 92.2891C24.4881 92.4997 24.5924 92.7713 24.5924 93.1038C24.5924 93.3764 24.5139 93.6201 24.357 93.8349C24.2021 94.0497 23.9852 94.219 23.7064 94.3429C23.4276 94.4669 23.1034 94.5288 22.7337 94.5288C22.2484 94.5288 21.8467 94.4235 21.5286 94.2128C21.2106 94.0022 21.0092 93.6945 20.9245 93.2897L21.6185 93.1162C21.6845 93.3723 21.8095 93.5643 21.9933 93.6924C22.1792 93.8204 22.4218 93.8845 22.7213 93.8845C23.0621 93.8845 23.3326 93.8122 23.5329 93.6676C23.7353 93.521 23.8365 93.3454 23.8365 93.141C23.8365 92.9758 23.7787 92.8374 23.663 92.7259C23.5474 92.6123 23.3698 92.5276 23.1302 92.4718L22.3372 92.286C21.9014 92.1827 21.5813 92.0226 21.3768 91.8058C21.1744 91.5869 21.0732 91.3132 21.0732 90.9848C21.0732 90.7164 21.1486 90.4789 21.2994 90.2723C21.4522 90.0658 21.6598 89.9037 21.922 89.786C22.1864 89.6683 22.4859 89.6094 22.8204 89.6094C23.2913 89.6094 23.661 89.7127 23.9295 89.9192C24.2 90.1257 24.3921 90.3983 24.5057 90.737ZM27.688 94.5288C27.2295 94.5288 26.834 94.4276 26.5015 94.2252C26.171 94.0208 25.916 93.7358 25.7363 93.3702C25.5587 93.0026 25.4699 92.5751 25.4699 92.0877C25.4699 91.6003 25.5587 91.1707 25.7363 90.799C25.916 90.4252 26.1659 90.134 26.486 89.9254C26.8082 89.7147 27.184 89.6094 27.6136 89.6094C27.8614 89.6094 28.1062 89.6507 28.3478 89.7333C28.5894 89.8159 28.8094 89.9502 29.0077 90.136C29.2059 90.3198 29.3639 90.5635 29.4816 90.8671C29.5994 91.1707 29.6582 91.5445 29.6582 91.9886V92.2983H25.9903V91.6664H28.9147C28.9147 91.3979 28.861 91.1583 28.7536 90.9477C28.6483 90.737 28.4975 90.5708 28.3013 90.4489C28.1072 90.3271 27.878 90.2661 27.6136 90.2661C27.3224 90.2661 27.0705 90.3384 26.8577 90.483C26.6471 90.6255 26.485 90.8114 26.3714 91.0406C26.2578 91.2699 26.201 91.5156 26.201 91.7779V92.1992C26.201 92.5586 26.2629 92.8632 26.3869 93.1131C26.5128 93.3609 26.6873 93.5499 26.9104 93.68C27.1334 93.808 27.3926 93.8721 27.688 93.8721C27.88 93.8721 28.0535 93.8452 28.2084 93.7915C28.3654 93.7358 28.5006 93.6532 28.6142 93.5437C28.7278 93.4322 28.8156 93.2938 28.8775 93.1286L29.5839 93.3268C29.5095 93.5664 29.3846 93.7771 29.209 93.9588C29.0335 94.1385 28.8166 94.2789 28.5585 94.3801C28.3003 94.4793 28.0101 94.5288 27.688 94.5288ZM30.7703 94.4297V89.6714H31.4767V90.3901H31.5262C31.613 90.1546 31.7699 89.9636 31.9971 89.817C32.2243 89.6703 32.4804 89.597 32.7654 89.597C32.8191 89.597 32.8862 89.598 32.9667 89.6001C33.0473 89.6022 33.1082 89.6053 33.1495 89.6094V90.3529C33.1247 90.3467 33.0679 90.3374 32.9791 90.325C32.8924 90.3105 32.8005 90.3033 32.7034 90.3033C32.4721 90.3033 32.2656 90.3519 32.0838 90.4489C31.9042 90.5439 31.7617 90.6761 31.6563 90.8454C31.5531 91.0127 31.5014 91.2038 31.5014 91.4186V94.4297H30.7703ZM34.7472 91.5673V94.4297H34.0161V89.6714H34.7225V90.4148H34.7844C34.8959 90.1732 35.0653 89.9791 35.2925 89.8324C35.5197 89.6837 35.8129 89.6094 36.1723 89.6094C36.4944 89.6094 36.7764 89.6755 37.018 89.8077C37.2596 89.9378 37.4476 90.136 37.5818 90.4024C37.716 90.6668 37.7832 91.0014 37.7832 91.4062V94.4297H37.0521V91.4557C37.0521 91.0819 36.955 90.7907 36.7609 90.5821C36.5667 90.3715 36.3003 90.2661 35.9616 90.2661C35.7282 90.2661 35.5197 90.3167 35.3358 90.4179C35.1541 90.5191 35.0106 90.6668 34.9052 90.8609C34.7999 91.0551 34.7472 91.2905 34.7472 91.5673ZM40.5194 94.5412C40.2178 94.5412 39.9442 94.4844 39.6984 94.3708C39.4527 94.2552 39.2575 94.0889 39.1129 93.8721C38.9684 93.6532 38.8961 93.3888 38.8961 93.079C38.8961 92.8064 38.9498 92.5854 39.0572 92.4161C39.1646 92.2447 39.3081 92.1104 39.4878 92.0133C39.6674 91.9163 39.8657 91.844 40.0826 91.7965C40.3015 91.7469 40.5214 91.7077 40.7424 91.6788C41.0315 91.6416 41.266 91.6137 41.4456 91.5951C41.6274 91.5745 41.7595 91.5404 41.8422 91.4929C41.9268 91.4454 41.9692 91.3628 41.9692 91.2451V91.2203C41.9692 90.9146 41.8855 90.6771 41.7182 90.5078C41.553 90.3384 41.3021 90.2538 40.9655 90.2538C40.6164 90.2538 40.3428 90.3302 40.1445 90.483C39.9463 90.6358 39.8069 90.799 39.7263 90.9725L39.0324 90.7246C39.1563 90.4355 39.3215 90.2104 39.528 90.0493C39.7366 89.8861 39.9638 89.7725 40.2096 89.7085C40.4574 89.6424 40.7011 89.6094 40.9407 89.6094C41.0935 89.6094 41.269 89.628 41.4673 89.6652C41.6676 89.7003 41.8607 89.7736 42.0466 89.8851C42.2346 89.9966 42.3905 90.1649 42.5144 90.3901C42.6383 90.6152 42.7003 90.9167 42.7003 91.2946V94.4297H41.9692V93.7853H41.932C41.8824 93.8886 41.7998 93.9991 41.6842 94.1168C41.5685 94.2345 41.4146 94.3347 41.2226 94.4173C41.0305 94.4999 40.7961 94.5412 40.5194 94.5412ZM40.6309 93.8845C40.92 93.8845 41.1637 93.8277 41.362 93.7141C41.5623 93.6005 41.7131 93.4539 41.8143 93.2742C41.9175 93.0945 41.9692 92.9055 41.9692 92.7073V92.0381C41.9382 92.0753 41.87 92.1094 41.7647 92.1404C41.6614 92.1693 41.5417 92.1951 41.4054 92.2178C41.2711 92.2385 41.14 92.257 41.0119 92.2736C40.8859 92.288 40.7837 92.3004 40.7052 92.3107C40.5152 92.3355 40.3376 92.3758 40.1724 92.4316C40.0092 92.4853 39.8771 92.5668 39.7759 92.6763C39.6767 92.7837 39.6272 92.9303 39.6272 93.1162C39.6272 93.3702 39.7211 93.5623 39.9091 93.6924C40.0991 93.8204 40.3397 93.8845 40.6309 93.8845ZM44.0347 94.4297V89.6714H44.741V90.4148H44.803C44.9021 90.1608 45.0621 89.9636 45.2831 89.8231C45.5041 89.6806 45.7695 89.6094 46.0793 89.6094C46.3932 89.6094 46.6544 89.6806 46.863 89.8231C47.0737 89.9636 47.2379 90.1608 47.3556 90.4148H47.4052C47.527 90.1691 47.7098 89.9739 47.9535 89.8293C48.1972 89.6827 48.4894 89.6094 48.8302 89.6094C49.2556 89.6094 49.6036 89.7426 49.8742 90.009C50.1447 90.2734 50.28 90.6854 50.28 91.2451V94.4297H49.5489V91.2451C49.5489 90.894 49.4529 90.6431 49.2608 90.4923C49.0687 90.3415 48.8426 90.2661 48.5824 90.2661C48.2478 90.2661 47.9886 90.3673 47.8048 90.5697C47.621 90.7701 47.5291 91.0241 47.5291 91.3318V94.4297H46.7856V91.1707C46.7856 90.9002 46.6978 90.6823 46.5223 90.5171C46.3467 90.3498 46.1206 90.2661 45.8438 90.2661C45.6538 90.2661 45.4762 90.3167 45.311 90.4179C45.1478 90.5191 45.0157 90.6596 44.9145 90.8392C44.8153 91.0169 44.7658 91.2224 44.7658 91.4557V94.4297H44.0347ZM53.6118 94.5288C53.1533 94.5288 52.7578 94.4276 52.4253 94.2252C52.0948 94.0208 51.8398 93.7358 51.6601 93.3702C51.4825 93.0026 51.3937 92.5751 51.3937 92.0877C51.3937 91.6003 51.4825 91.1707 51.6601 90.799C51.8398 90.4252 52.0897 90.134 52.4098 89.9254C52.732 89.7147 53.1078 89.6094 53.5374 89.6094C53.7852 89.6094 54.03 89.6507 54.2716 89.7333C54.5132 89.8159 54.7332 89.9502 54.9315 90.136C55.1297 90.3198 55.2877 90.5635 55.4054 90.8671C55.5231 91.1707 55.582 91.5445 55.582 91.9886V92.2983H51.9141V91.6664H54.8385C54.8385 91.3979 54.7848 91.1583 54.6774 90.9477C54.5721 90.737 54.4213 90.5708 54.2251 90.4489C54.031 90.3271 53.8018 90.2661 53.5374 90.2661C53.2462 90.2661 52.9942 90.3384 52.7815 90.483C52.5709 90.6255 52.4088 90.8114 52.2952 91.0406C52.1816 91.2699 52.1248 91.5156 52.1248 91.7779V92.1992C52.1248 92.5586 52.1867 92.8632 52.3107 93.1131C52.4366 93.3609 52.6111 93.5499 52.8342 93.68C53.0572 93.808 53.3164 93.8721 53.6118 93.8721C53.8038 93.8721 53.9773 93.8452 54.1322 93.7915C54.2892 93.7358 54.4244 93.6532 54.538 93.5437C54.6516 93.4322 54.7394 93.2938 54.8013 93.1286L55.5077 93.3268C55.4333 93.5664 55.3084 93.7771 55.1328 93.9588C54.9573 94.1385 54.7404 94.2789 54.4823 94.3801C54.2241 94.4793 53.9339 94.5288 53.6118 94.5288ZM61.0807 94.5288C60.6512 94.5288 60.2743 94.4266 59.95 94.2221C59.6278 94.0177 59.3759 93.7316 59.1941 93.364C59.0145 92.9964 58.9246 92.5668 58.9246 92.0753C58.9246 91.5796 59.0145 91.147 59.1941 90.7773C59.3759 90.4076 59.6278 90.1205 59.95 89.9161C60.2743 89.7116 60.6512 89.6094 61.0807 89.6094C61.5103 89.6094 61.8862 89.7116 62.2084 89.9161C62.5326 90.1205 62.7846 90.4076 62.9642 90.7773C63.146 91.147 63.2369 91.5796 63.2369 92.0753C63.2369 92.5668 63.146 92.9964 62.9642 93.364C62.7846 93.7316 62.5326 94.0177 62.2084 94.2221C61.8862 94.4266 61.5103 94.5288 61.0807 94.5288ZM61.0807 93.8721C61.407 93.8721 61.6755 93.7884 61.8862 93.6211C62.0968 93.4539 62.2528 93.2339 62.354 92.9613C62.4552 92.6887 62.5058 92.3934 62.5058 92.0753C62.5058 91.7573 62.4552 91.4609 62.354 91.1862C62.2528 90.9115 62.0968 90.6895 61.8862 90.5202C61.6755 90.3508 61.407 90.2661 61.0807 90.2661C60.7544 90.2661 60.4859 90.3508 60.2753 90.5202C60.0646 90.6895 59.9087 90.9115 59.8075 91.1862C59.7063 91.4609 59.6557 91.7573 59.6557 92.0753C59.6557 92.3934 59.7063 92.6887 59.8075 92.9613C59.9087 93.2339 60.0646 93.4539 60.2753 93.6211C60.4859 93.7884 60.7544 93.8721 61.0807 93.8721ZM64.3529 94.4297V89.6714H65.0592V90.3901H65.1088C65.1955 90.1546 65.3524 89.9636 65.5796 89.817C65.8068 89.6703 66.0629 89.597 66.3479 89.597C66.4016 89.597 66.4687 89.598 66.5493 89.6001C66.6298 89.6022 66.6907 89.6053 66.732 89.6094V90.3529C66.7073 90.3467 66.6505 90.3374 66.5617 90.325C66.4749 90.3105 66.383 90.3033 66.2859 90.3033C66.0546 90.3033 65.8481 90.3519 65.6664 90.4489C65.4867 90.5439 65.3442 90.6761 65.2389 90.8454C65.1356 91.0127 65.084 91.2038 65.084 91.4186V94.4297H64.3529ZM70.1513 94.4297V88.0852H73.9803V88.7668H70.9196V90.9105H73.782V91.592H70.9196V93.7482H74.0299V94.4297H70.1513ZM75.2659 94.4297V89.6714H75.9722V90.4148H76.0342C76.1333 90.1608 76.2934 89.9636 76.5144 89.8231C76.7353 89.6806 77.0007 89.6094 77.3105 89.6094C77.6244 89.6094 77.8857 89.6806 78.0943 89.8231C78.3049 89.9636 78.4691 90.1608 78.5868 90.4148H78.6364C78.7582 90.1691 78.941 89.9739 79.1847 89.8293C79.4284 89.6827 79.7207 89.6094 80.0614 89.6094C80.4869 89.6094 80.8349 89.7426 81.1054 90.009C81.376 90.2734 81.5112 90.6854 81.5112 91.2451V94.4297H80.7801V91.2451C80.7801 90.894 80.6841 90.6431 80.492 90.4923C80.3 90.3415 80.0738 90.2661 79.8136 90.2661C79.479 90.2661 79.2198 90.3673 79.036 90.5697C78.8522 90.7701 78.7603 91.0241 78.7603 91.3318V94.4297H78.0168V91.1707C78.0168 90.9002 77.929 90.6823 77.7535 90.5171C77.578 90.3498 77.3518 90.2661 77.0751 90.2661C76.8851 90.2661 76.7075 90.3167 76.5422 90.4179C76.3791 90.5191 76.2469 90.6596 76.1457 90.8392C76.0466 91.0169 75.997 91.2224 75.997 91.4557V94.4297H75.2659ZM84.2482 94.5412C83.9467 94.5412 83.673 94.4844 83.4273 94.3708C83.1815 94.2552 82.9863 94.0889 82.8418 93.8721C82.6972 93.6532 82.6249 93.3888 82.6249 93.079C82.6249 92.8064 82.6786 92.5854 82.786 92.4161C82.8934 92.2447 83.0369 92.1104 83.2166 92.0133C83.3963 91.9163 83.5945 91.844 83.8114 91.7965C84.0303 91.7469 84.2503 91.7077 84.4712 91.6788C84.7604 91.6416 84.9948 91.6137 85.1745 91.5951C85.3562 91.5745 85.4884 91.5404 85.571 91.4929C85.6557 91.4454 85.698 91.3628 85.698 91.2451V91.2203C85.698 90.9146 85.6144 90.6771 85.4471 90.5078C85.2819 90.3384 85.0309 90.2538 84.6943 90.2538C84.3453 90.2538 84.0716 90.3302 83.8734 90.483C83.6751 90.6358 83.5357 90.799 83.4551 90.9725L82.7612 90.7246C82.8851 90.4355 83.0504 90.2104 83.2569 90.0493C83.4655 89.8861 83.6926 89.7725 83.9384 89.7085C84.1862 89.6424 84.4299 89.6094 84.6695 89.6094C84.8223 89.6094 84.9979 89.628 85.1961 89.6652C85.3965 89.7003 85.5896 89.7736 85.7755 89.8851C85.9634 89.9966 86.1193 90.1649 86.2432 90.3901C86.3671 90.6152 86.4291 90.9167 86.4291 91.2946V94.4297H85.698V93.7853H85.6608C85.6113 93.8886 85.5287 93.9991 85.413 94.1168C85.2973 94.2345 85.1435 94.3347 84.9514 94.4173C84.7593 94.4999 84.5249 94.5412 84.2482 94.5412ZM84.3597 93.8845C84.6489 93.8845 84.8926 93.8277 85.0908 93.7141C85.2912 93.6005 85.4419 93.4539 85.5431 93.2742C85.6464 93.0945 85.698 92.9055 85.698 92.7073V92.0381C85.667 92.0753 85.5989 92.1094 85.4935 92.1404C85.3903 92.1693 85.2705 92.1951 85.1342 92.2178C84.9999 92.2385 84.8688 92.257 84.7408 92.2736C84.6148 92.288 84.5126 92.3004 84.4341 92.3107C84.2441 92.3355 84.0665 92.3758 83.9012 92.4316C83.7381 92.4853 83.6059 92.5668 83.5047 92.6763C83.4056 92.7837 83.356 92.9303 83.356 93.1162C83.356 93.3702 83.45 93.5623 83.6379 93.6924C83.8279 93.8204 84.0685 93.8845 84.3597 93.8845ZM87.7635 94.4297V89.6714H88.4946V94.4297H87.7635ZM88.1353 88.8783C87.9928 88.8783 87.8699 88.8298 87.7666 88.7327C87.6654 88.6356 87.6148 88.5189 87.6148 88.3826C87.6148 88.2463 87.6654 88.1296 87.7666 88.0326C87.8699 87.9355 87.9928 87.887 88.1353 87.887C88.2778 87.887 88.3996 87.9355 88.5008 88.0326C88.6041 88.1296 88.6557 88.2463 88.6557 88.3826C88.6557 88.5189 88.6041 88.6356 88.5008 88.7327C88.3996 88.8298 88.2778 88.8783 88.1353 88.8783ZM90.5648 88.0852V94.4297H89.8337V88.0852H90.5648Z" fill="#4B5563"/>
<path d="M14.7683 112.789V106.445H18.5972V107.126H15.5365V109.27H18.399V109.951H15.5365V112.108H18.6468V112.789H14.7683ZM20.614 109.927V112.789H19.8829V108.031H20.5892V108.774H20.6511C20.7627 108.533 20.932 108.338 21.1592 108.192C21.3864 108.043 21.6796 107.969 22.039 107.969C22.3612 107.969 22.6431 108.035 22.8847 108.167C23.1263 108.297 23.3143 108.495 23.4485 108.762C23.5828 109.026 23.6499 109.361 23.6499 109.766V112.789H22.9188V109.815C22.9188 109.441 22.8217 109.15 22.6276 108.942C22.4335 108.731 22.167 108.626 21.8283 108.626C21.595 108.626 21.3864 108.676 21.2026 108.777C21.0208 108.879 20.8773 109.026 20.772 109.22C20.6666 109.414 20.614 109.65 20.614 109.927ZM27.0552 108.031V108.65H24.5893V108.031H27.0552ZM25.308 106.891H26.0391V111.426C26.0391 111.633 26.0691 111.787 26.129 111.891C26.1909 111.992 26.2694 112.06 26.3644 112.095C26.4615 112.128 26.5637 112.145 26.6711 112.145C26.7516 112.145 26.8177 112.141 26.8693 112.132C26.921 112.122 26.9623 112.114 26.9933 112.108L27.142 112.764C27.0924 112.783 27.0232 112.801 26.9344 112.82C26.8456 112.841 26.733 112.851 26.5967 112.851C26.3902 112.851 26.1878 112.807 25.9896 112.718C25.7934 112.629 25.6302 112.494 25.5001 112.312C25.372 112.13 25.308 111.901 25.308 111.624V106.891ZM30.0989 112.888C29.6404 112.888 29.2449 112.787 28.9124 112.585C28.582 112.38 28.3269 112.095 28.1472 111.73C27.9696 111.362 27.8808 110.934 27.8808 110.447C27.8808 109.96 27.9696 109.53 28.1472 109.158C28.3269 108.785 28.5768 108.493 28.8969 108.285C29.2191 108.074 29.595 107.969 30.0245 107.969C30.2724 107.969 30.5171 108.01 30.7587 108.093C31.0004 108.175 31.2203 108.31 31.4186 108.495C31.6168 108.679 31.7748 108.923 31.8926 109.227C32.0103 109.53 32.0691 109.904 32.0691 110.348V110.658H28.4012V110.026H31.3256C31.3256 109.757 31.2719 109.518 31.1646 109.307C31.0592 109.096 30.9085 108.93 30.7123 108.808C30.5181 108.686 30.2889 108.626 30.0245 108.626C29.7333 108.626 29.4814 108.698 29.2687 108.842C29.058 108.985 28.8959 109.171 28.7823 109.4C28.6687 109.629 28.6119 109.875 28.6119 110.137V110.559C28.6119 110.918 28.6739 111.223 28.7978 111.472C28.9238 111.72 29.0983 111.909 29.3213 112.039C29.5444 112.167 29.8036 112.231 30.0989 112.231C30.291 112.231 30.4644 112.205 30.6193 112.151C30.7763 112.095 30.9116 112.013 31.0251 111.903C31.1387 111.792 31.2265 111.653 31.2885 111.488L31.9948 111.686C31.9204 111.926 31.7955 112.136 31.6199 112.318C31.4444 112.498 31.2275 112.638 30.9694 112.739C30.7112 112.839 30.4211 112.888 30.0989 112.888ZM33.1813 112.789V108.031H33.8876V108.749H33.9372C34.0239 108.514 34.1809 108.323 34.408 108.176C34.6352 108.03 34.8913 107.956 35.1763 107.956C35.23 107.956 35.2971 107.957 35.3777 107.959C35.4582 107.962 35.5191 107.965 35.5604 107.969V108.712C35.5357 108.706 35.4789 108.697 35.3901 108.684C35.3033 108.67 35.2114 108.663 35.1143 108.663C34.883 108.663 34.6765 108.711 34.4948 108.808C34.3151 108.903 34.1726 109.035 34.0673 109.205C33.964 109.372 33.9124 109.563 33.9124 109.778V112.789H33.1813ZM41.8793 110.844V108.031H42.6104V112.789H41.8793V111.984H41.8298C41.7182 112.225 41.5448 112.431 41.3093 112.6C41.0739 112.767 40.7765 112.851 40.4171 112.851C40.1197 112.851 39.8554 112.786 39.6241 112.656C39.3928 112.524 39.211 112.325 39.0789 112.061C38.9467 111.795 38.8806 111.459 38.8806 111.054V108.031H39.6117V111.005C39.6117 111.352 39.7088 111.628 39.9029 111.835C40.0991 112.041 40.349 112.145 40.6526 112.145C40.8343 112.145 41.0192 112.098 41.2071 112.005C41.3971 111.912 41.5561 111.77 41.6842 111.578C41.8143 111.386 41.8793 111.141 41.8793 110.844ZM47.32 109.096L46.6632 109.282C46.6219 109.173 46.561 109.066 46.4804 108.963C46.402 108.858 46.2946 108.771 46.1583 108.703C46.022 108.635 45.8475 108.601 45.6347 108.601C45.3435 108.601 45.1009 108.668 44.9067 108.802C44.7147 108.934 44.6186 109.103 44.6186 109.307C44.6186 109.489 44.6847 109.632 44.8169 109.738C44.9491 109.843 45.1556 109.931 45.4365 110.001L46.1428 110.174C46.5682 110.278 46.8852 110.436 47.0938 110.648C47.3024 110.859 47.4067 111.131 47.4067 111.463C47.4067 111.736 47.3282 111.979 47.1713 112.194C47.0164 112.409 46.7995 112.578 46.5207 112.702C46.2419 112.826 45.9177 112.888 45.548 112.888C45.0627 112.888 44.661 112.783 44.3429 112.572C44.0249 112.362 43.8235 112.054 43.7388 111.649L44.4328 111.476C44.4988 111.732 44.6238 111.924 44.8076 112.052C44.9935 112.18 45.2361 112.244 45.5356 112.244C45.8764 112.244 46.1469 112.172 46.3472 112.027C46.5496 111.88 46.6508 111.705 46.6508 111.5C46.6508 111.335 46.593 111.197 46.4774 111.085C46.3617 110.972 46.1841 110.887 45.9445 110.831L45.1515 110.645C44.7157 110.542 44.3956 110.382 44.1911 110.165C43.9887 109.946 43.8875 109.673 43.8875 109.344C43.8875 109.076 43.9629 108.838 44.1137 108.632C44.2665 108.425 44.4741 108.263 44.7363 108.145C45.0007 108.028 45.3002 107.969 45.6347 107.969C46.1056 107.969 46.4753 108.072 46.7438 108.279C47.0143 108.485 47.2064 108.758 47.32 109.096ZM50.5023 112.888C50.0438 112.888 49.6483 112.787 49.3158 112.585C48.9853 112.38 48.7303 112.095 48.5506 111.73C48.373 111.362 48.2842 110.934 48.2842 110.447C48.2842 109.96 48.373 109.53 48.5506 109.158C48.7303 108.785 48.9802 108.493 49.3003 108.285C49.6225 108.074 49.9983 107.969 50.4279 107.969C50.6757 107.969 50.9205 108.01 51.1621 108.093C51.4037 108.175 51.6237 108.31 51.822 108.495C52.0202 108.679 52.1782 108.923 52.2959 109.227C52.4137 109.53 52.4725 109.904 52.4725 110.348V110.658H48.8046V110.026H51.729C51.729 109.757 51.6753 109.518 51.5679 109.307C51.4626 109.096 51.3118 108.93 51.1156 108.808C50.9215 108.686 50.6923 108.626 50.4279 108.626C50.1367 108.626 49.8848 108.698 49.672 108.842C49.4614 108.985 49.2993 109.171 49.1857 109.4C49.0721 109.629 49.0153 109.875 49.0153 110.137V110.559C49.0153 110.918 49.0772 111.223 49.2012 111.472C49.3271 111.72 49.5017 111.909 49.7247 112.039C49.9477 112.167 50.2069 112.231 50.5023 112.231C50.6943 112.231 50.8678 112.205 51.0227 112.151C51.1797 112.095 51.3149 112.013 51.4285 111.903C51.5421 111.792 51.6299 111.653 51.6919 111.488L52.3982 111.686C52.3238 111.926 52.1989 112.136 52.0233 112.318C51.8478 112.498 51.6309 112.638 51.3728 112.739C51.1146 112.839 50.8244 112.888 50.5023 112.888ZM53.5847 112.789V108.031H54.291V108.749H54.3405C54.4273 108.514 54.5842 108.323 54.8114 108.176C55.0386 108.03 55.2947 107.956 55.5797 107.956C55.6334 107.956 55.7005 107.957 55.781 107.959C55.8616 107.962 55.9225 107.965 55.9638 107.969V108.712C55.939 108.706 55.8822 108.697 55.7934 108.684C55.7067 108.67 55.6148 108.663 55.5177 108.663C55.2864 108.663 55.0799 108.711 54.8982 108.808C54.7185 108.903 54.576 109.035 54.4706 109.205C54.3674 109.372 54.3158 109.563 54.3158 109.778V112.789H53.5847ZM57.5616 109.927V112.789H56.8305V108.031H57.5368V108.774H57.5987C57.7102 108.533 57.8796 108.338 58.1068 108.192C58.334 108.043 58.6272 107.969 58.9866 107.969C59.3088 107.969 59.5907 108.035 59.8323 108.167C60.0739 108.297 60.2619 108.495 60.3961 108.762C60.5303 109.026 60.5975 109.361 60.5975 109.766V112.789H59.8664V109.815C59.8664 109.441 59.7693 109.15 59.5752 108.942C59.381 108.731 59.1146 108.626 58.7759 108.626C58.5425 108.626 58.334 108.676 58.1501 108.777C57.9684 108.879 57.8249 109.026 57.7195 109.22C57.6142 109.414 57.5616 109.65 57.5616 109.927ZM63.3337 112.901C63.0321 112.901 62.7585 112.844 62.5127 112.73C62.267 112.615 62.0718 112.448 61.9272 112.231C61.7827 112.013 61.7104 111.748 61.7104 111.438C61.7104 111.166 61.7641 110.945 61.8715 110.775C61.9789 110.604 62.1224 110.47 62.3021 110.373C62.4818 110.276 62.68 110.203 62.8969 110.156C63.1158 110.106 63.3357 110.067 63.5567 110.038C63.8458 110.001 64.0803 109.973 64.2599 109.955C64.4417 109.934 64.5738 109.9 64.6565 109.852C64.7411 109.805 64.7835 109.722 64.7835 109.604V109.58C64.7835 109.274 64.6998 109.037 64.5325 108.867C64.3673 108.698 64.1164 108.613 63.7798 108.613C63.4307 108.613 63.1571 108.69 62.9588 108.842C62.7606 108.995 62.6212 109.158 62.5406 109.332L61.8467 109.084C61.9706 108.795 62.1358 108.57 62.3423 108.409C62.5509 108.246 62.7781 108.132 63.0239 108.068C63.2717 108.002 63.5154 107.969 63.755 107.969C63.9078 107.969 64.0834 107.987 64.2816 108.025C64.4819 108.06 64.675 108.133 64.8609 108.244C65.0489 108.356 65.2048 108.524 65.3287 108.749C65.4526 108.975 65.5146 109.276 65.5146 109.654V112.789H64.7835V112.145H64.7463C64.6967 112.248 64.6141 112.358 64.4985 112.476C64.3828 112.594 64.229 112.694 64.0369 112.777C63.8448 112.859 63.6104 112.901 63.3337 112.901ZM63.4452 112.244C63.7343 112.244 63.978 112.187 64.1763 112.073C64.3766 111.96 64.5274 111.813 64.6286 111.634C64.7318 111.454 64.7835 111.265 64.7835 111.067V110.398C64.7525 110.435 64.6843 110.469 64.579 110.5C64.4758 110.529 64.356 110.554 64.2197 110.577C64.0854 110.598 63.9543 110.616 63.8262 110.633C63.7002 110.647 63.598 110.66 63.5195 110.67C63.3295 110.695 63.1519 110.735 62.9867 110.791C62.8236 110.845 62.6914 110.926 62.5902 111.036C62.491 111.143 62.4415 111.29 62.4415 111.476C62.4415 111.73 62.5354 111.922 62.7234 112.052C62.9134 112.18 63.154 112.244 63.4452 112.244ZM66.849 112.789V108.031H67.5553V108.774H67.6173C67.7164 108.52 67.8764 108.323 68.0974 108.183C68.3184 108.04 68.5838 107.969 68.8936 107.969C69.2075 107.969 69.4688 108.04 69.6773 108.183C69.888 108.323 70.0522 108.52 70.1699 108.774H70.2195C70.3413 108.528 70.5241 108.333 70.7678 108.189C71.0115 108.042 71.3037 107.969 71.6445 107.969C72.0699 107.969 72.4179 108.102 72.6885 108.368C72.959 108.633 73.0943 109.045 73.0943 109.604V112.789H72.3632V109.604C72.3632 109.253 72.2672 109.002 72.0751 108.852C71.883 108.701 71.6569 108.626 71.3967 108.626C71.0621 108.626 70.8029 108.727 70.6191 108.929C70.4353 109.129 70.3434 109.383 70.3434 109.691V112.789H69.5999V109.53C69.5999 109.26 69.5121 109.042 69.3366 108.876C69.161 108.709 68.9349 108.626 68.6581 108.626C68.4681 108.626 68.2905 108.676 68.1253 108.777C67.9622 108.879 67.83 109.019 67.7288 109.199C67.6296 109.376 67.5801 109.582 67.5801 109.815V112.789H66.849ZM76.4261 112.888C75.9676 112.888 75.5721 112.787 75.2396 112.585C74.9091 112.38 74.6541 112.095 74.4744 111.73C74.2968 111.362 74.208 110.934 74.208 110.447C74.208 109.96 74.2968 109.53 74.4744 109.158C74.6541 108.785 74.904 108.493 75.2241 108.285C75.5463 108.074 75.9221 107.969 76.3517 107.969C76.5995 107.969 76.8443 108.01 77.0859 108.093C77.3275 108.175 77.5475 108.31 77.7458 108.495C77.944 108.679 78.102 108.923 78.2197 109.227C78.3375 109.53 78.3963 109.904 78.3963 110.348V110.658H74.7284V110.026H77.6528C77.6528 109.757 77.5991 109.518 77.4917 109.307C77.3864 109.096 77.2356 108.93 77.0394 108.808C76.8453 108.686 76.6161 108.626 76.3517 108.626C76.0605 108.626 75.8086 108.698 75.5958 108.842C75.3852 108.985 75.2231 109.171 75.1095 109.4C74.9959 109.629 74.9391 109.875 74.9391 110.137V110.559C74.9391 110.918 75.001 111.223 75.125 111.472C75.2509 111.72 75.4254 111.909 75.6485 112.039C75.8715 112.167 76.1307 112.231 76.4261 112.231C76.6181 112.231 76.7916 112.205 76.9465 112.151C77.1035 112.095 77.2387 112.013 77.3523 111.903C77.4659 111.792 77.5537 111.653 77.6156 111.488L78.322 111.686C78.2476 111.926 78.1227 112.136 77.9471 112.318C77.7716 112.498 77.5547 112.638 77.2966 112.739C77.0384 112.839 76.7482 112.888 76.4261 112.888ZM83.895 112.888C83.4655 112.888 83.0886 112.786 82.7643 112.582C82.4421 112.377 82.1902 112.091 82.0084 111.723C81.8288 111.356 81.7389 110.926 81.7389 110.435C81.7389 109.939 81.8288 109.506 82.0084 109.137C82.1902 108.767 82.4421 108.48 82.7643 108.275C83.0886 108.071 83.4655 107.969 83.895 107.969C84.3246 107.969 84.7005 108.071 85.0227 108.275C85.3469 108.48 85.5989 108.767 85.7785 109.137C85.9603 109.506 86.0512 109.939 86.0512 110.435C86.0512 110.926 85.9603 111.356 85.7785 111.723C85.5989 112.091 85.3469 112.377 85.0227 112.582C84.7005 112.786 84.3246 112.888 83.895 112.888ZM83.895 112.231C84.2213 112.231 84.4898 112.148 84.7005 111.981C84.9111 111.813 85.0671 111.593 85.1683 111.321C85.2695 111.048 85.3201 110.753 85.3201 110.435C85.3201 110.117 85.2695 109.82 85.1683 109.546C85.0671 109.271 84.9111 109.049 84.7005 108.88C84.4898 108.71 84.2213 108.626 83.895 108.626C83.5687 108.626 83.3002 108.71 83.0896 108.88C82.8789 109.049 82.723 109.271 82.6218 109.546C82.5206 109.82 82.47 110.117 82.47 110.435C82.47 110.753 82.5206 111.048 82.6218 111.321C82.723 111.593 82.8789 111.813 83.0896 111.981C83.3002 112.148 83.5687 112.231 83.895 112.231ZM87.1672 112.789V108.031H87.8735V108.749H87.9231C88.0098 108.514 88.1668 108.323 88.3939 108.176C88.6211 108.03 88.8772 107.956 89.1622 107.956C89.2159 107.956 89.283 107.957 89.3636 107.959C89.4441 107.962 89.505 107.965 89.5463 107.969V108.712C89.5216 108.706 89.4648 108.697 89.376 108.684C89.2892 108.67 89.1973 108.663 89.1002 108.663C88.8689 108.663 88.6624 108.711 88.4807 108.808C88.301 108.903 88.1585 109.035 88.0532 109.205C87.9499 109.372 87.8983 109.563 87.8983 109.778V112.789H87.1672ZM94.8615 112.888C94.403 112.888 94.0075 112.787 93.675 112.585C93.3446 112.38 93.0895 112.095 92.9099 111.73C92.7322 111.362 92.6434 110.934 92.6434 110.447C92.6434 109.96 92.7322 109.53 92.9099 109.158C93.0895 108.785 93.3394 108.493 93.6595 108.285C93.9817 108.074 94.3576 107.969 94.7872 107.969C95.035 107.969 95.2797 108.01 95.5214 108.093C95.763 108.175 95.983 108.31 96.1812 108.495C96.3795 108.679 96.5375 108.923 96.6552 109.227C96.7729 109.53 96.8318 109.904 96.8318 110.348V110.658H93.1639V110.026H96.0883C96.0883 109.757 96.0346 109.518 95.9272 109.307C95.8219 109.096 95.6711 108.93 95.4749 108.808C95.2808 108.686 95.0515 108.626 94.7872 108.626C94.496 108.626 94.244 108.698 94.0313 108.842C93.8206 108.985 93.6585 109.171 93.5449 109.4C93.4313 109.629 93.3745 109.875 93.3745 110.137V110.559C93.3745 110.918 93.4365 111.223 93.5604 111.472C93.6864 111.72 93.8609 111.909 94.084 112.039C94.307 112.167 94.5662 112.231 94.8615 112.231C95.0536 112.231 95.2271 112.205 95.382 112.151C95.5389 112.095 95.6742 112.013 95.7878 111.903C95.9014 111.792 95.9891 111.653 96.0511 111.488L96.7574 111.686C96.6831 111.926 96.5581 112.136 96.3826 112.318C96.207 112.498 95.9902 112.638 95.732 112.739C95.4739 112.839 95.1837 112.888 94.8615 112.888ZM97.9439 112.789V108.031H98.6502V108.774H98.7122C98.8113 108.52 98.9714 108.323 99.1924 108.183C99.4133 108.04 99.6787 107.969 99.9885 107.969C100.302 107.969 100.564 108.04 100.772 108.183C100.983 108.323 101.147 108.52 101.265 108.774H101.314C101.436 108.528 101.619 108.333 101.863 108.189C102.106 108.042 102.399 107.969 102.739 107.969C103.165 107.969 103.513 108.102 103.783 108.368C104.054 108.633 104.189 109.045 104.189 109.604V112.789H103.458V109.604C103.458 109.253 103.362 109.002 103.17 108.852C102.978 108.701 102.752 108.626 102.492 108.626C102.157 108.626 101.898 108.727 101.714 108.929C101.53 109.129 101.438 109.383 101.438 109.691V112.789H100.695V109.53C100.695 109.26 100.607 109.042 100.432 108.876C100.256 108.709 100.03 108.626 99.7531 108.626C99.5631 108.626 99.3855 108.676 99.2202 108.777C99.0571 108.879 98.9249 109.019 98.8237 109.199C98.7246 109.376 98.675 109.582 98.675 109.815V112.789H97.9439ZM106.926 112.901C106.625 112.901 106.351 112.844 106.105 112.73C105.859 112.615 105.664 112.448 105.52 112.231C105.375 112.013 105.303 111.748 105.303 111.438C105.303 111.166 105.357 110.945 105.464 110.775C105.571 110.604 105.715 110.47 105.895 110.373C106.074 110.276 106.273 110.203 106.489 110.156C106.708 110.106 106.928 110.067 107.149 110.038C107.438 110.001 107.673 109.973 107.852 109.955C108.034 109.934 108.166 109.9 108.249 109.852C108.334 109.805 108.376 109.722 108.376 109.604V109.58C108.376 109.274 108.292 109.037 108.125 108.867C107.96 108.698 107.709 108.613 107.372 108.613C107.023 108.613 106.75 108.69 106.551 108.842C106.353 108.995 106.214 109.158 106.133 109.332L105.439 109.084C105.563 108.795 105.728 108.57 105.935 108.409C106.143 108.246 106.371 108.132 106.616 108.068C106.864 108.002 107.108 107.969 107.348 107.969C107.5 107.969 107.676 107.987 107.874 108.025C108.074 108.06 108.268 108.133 108.453 108.244C108.641 108.356 108.797 108.524 108.921 108.749C109.045 108.975 109.107 109.276 109.107 109.654V112.789H108.376V112.145H108.339C108.289 112.248 108.207 112.358 108.091 112.476C107.975 112.594 107.821 112.694 107.629 112.777C107.437 112.859 107.203 112.901 106.926 112.901ZM107.038 112.244C107.327 112.244 107.571 112.187 107.769 112.073C107.969 111.96 108.12 111.813 108.221 111.634C108.324 111.454 108.376 111.265 108.376 111.067V110.398C108.345 110.435 108.277 110.469 108.172 110.5C108.068 110.529 107.948 110.554 107.812 110.577C107.678 110.598 107.547 110.616 107.419 110.633C107.293 110.647 107.191 110.66 107.112 110.67C106.922 110.695 106.744 110.735 106.579 110.791C106.416 110.845 106.284 110.926 106.183 111.036C106.084 111.143 106.034 111.29 106.034 111.476C106.034 111.73 106.128 111.922 106.316 112.052C106.506 112.18 106.747 112.244 107.038 112.244ZM110.442 112.789V108.031H111.173V112.789H110.442ZM110.813 107.238C110.671 107.238 110.548 107.189 110.445 107.092C110.343 106.995 110.293 106.878 110.293 106.742C110.293 106.606 110.343 106.489 110.445 106.392C110.548 106.295 110.671 106.246 110.813 106.246C110.956 106.246 111.078 106.295 111.179 106.392C111.282 106.489 111.334 106.606 111.334 106.742C111.334 106.878 111.282 106.995 111.179 107.092C111.078 107.189 110.956 107.238 110.813 107.238ZM113.243 106.445V112.789H112.512V106.445H113.243Z" fill="#9CA3AF"/>
<path d="M14 121.156H231" stroke="#D1D5DB" stroke-width="0.545226"/>
<path d="M14.7683 153.156V146.812H16.912C17.4097 146.812 17.8166 146.902 18.1326 147.081C18.4506 147.259 18.6861 147.5 18.8389 147.803C18.9917 148.107 19.0681 148.445 19.0681 148.819C19.0681 149.193 18.9917 149.533 18.8389 149.838C18.6881 150.144 18.4547 150.388 18.1388 150.57C17.8228 150.749 17.418 150.839 16.9244 150.839H15.3878V150.158H16.8996C17.2404 150.158 17.514 150.099 17.7205 149.981C17.9271 149.863 18.0768 149.704 18.1697 149.504C18.2647 149.301 18.3122 149.073 18.3122 148.819C18.3122 148.565 18.2647 148.338 18.1697 148.138C18.0768 147.937 17.926 147.78 17.7175 147.667C17.5089 147.551 17.2321 147.493 16.8872 147.493H15.5365V153.156H14.7683ZM21.6068 153.268C21.3053 153.268 21.0317 153.211 20.7859 153.097C20.5401 152.982 20.345 152.815 20.2004 152.599C20.0558 152.38 19.9835 152.115 19.9835 151.806C19.9835 151.533 20.0372 151.312 20.1446 151.143C20.252 150.971 20.3956 150.837 20.5752 150.74C20.7549 150.643 20.9532 150.571 21.17 150.523C21.3889 150.473 21.6089 150.434 21.8299 150.405C22.119 150.368 22.3534 150.34 22.5331 150.322C22.7148 150.301 22.847 150.267 22.9296 150.219C23.0143 150.172 23.0566 150.089 23.0566 149.972V149.947C23.0566 149.641 22.973 149.404 22.8057 149.234C22.6405 149.065 22.3896 148.98 22.0529 148.98C21.7039 148.98 21.4303 149.057 21.232 149.21C21.0337 149.362 20.8943 149.526 20.8138 149.699L20.1199 149.451C20.2438 149.162 20.409 148.937 20.6155 148.776C20.8241 148.613 21.0513 148.499 21.297 148.435C21.5449 148.369 21.7886 148.336 22.0281 148.336C22.181 148.336 22.3565 148.355 22.5548 148.392C22.7551 148.427 22.9482 148.5 23.1341 148.612C23.322 148.723 23.478 148.892 23.6019 149.117C23.7258 149.342 23.7877 149.643 23.7877 150.021V153.156H23.0566V152.512H23.0195C22.9699 152.615 22.8873 152.726 22.7716 152.843C22.656 152.961 22.5021 153.061 22.3101 153.144C22.118 153.226 21.8836 153.268 21.6068 153.268ZM21.7184 152.611C22.0075 152.611 22.2512 152.554 22.4495 152.441C22.6498 152.327 22.8005 152.18 22.9017 152.001C23.005 151.821 23.0566 151.632 23.0566 151.434V150.765C23.0257 150.802 22.9575 150.836 22.8522 150.867C22.7489 150.896 22.6291 150.922 22.4928 150.944C22.3586 150.965 22.2274 150.984 22.0994 151C21.9734 151.015 21.8712 151.027 21.7927 151.037C21.6027 151.062 21.4251 151.102 21.2599 151.158C21.0967 151.212 20.9645 151.293 20.8633 151.403C20.7642 151.51 20.7146 151.657 20.7146 151.843C20.7146 152.097 20.8086 152.289 20.9966 152.419C21.1866 152.547 21.4272 152.611 21.7184 152.611ZM28.4926 149.464L27.8359 149.649C27.7946 149.54 27.7337 149.434 27.6531 149.33C27.5746 149.225 27.4672 149.138 27.3309 149.07C27.1946 149.002 27.0201 148.968 26.8074 148.968C26.5162 148.968 26.2735 149.035 26.0794 149.169C25.8873 149.301 25.7913 149.47 25.7913 149.674C25.7913 149.856 25.8574 150 25.9896 150.105C26.1217 150.21 26.3283 150.298 26.6091 150.368L27.3154 150.542C27.7409 150.645 28.0579 150.803 28.2665 151.016C28.4751 151.226 28.5794 151.498 28.5794 151.83C28.5794 152.103 28.5009 152.347 28.3439 152.561C28.189 152.776 27.9722 152.946 27.6934 153.07C27.4146 153.193 27.0903 153.255 26.7207 153.255C26.2353 153.255 25.8336 153.15 25.5156 152.939C25.1975 152.729 24.9962 152.421 24.9115 152.016L25.6054 151.843C25.6715 152.099 25.7965 152.291 25.9803 152.419C26.1661 152.547 26.4088 152.611 26.7083 152.611C27.049 152.611 27.3196 152.539 27.5199 152.394C27.7223 152.248 27.8235 152.072 27.8235 151.868C27.8235 151.702 27.7657 151.564 27.65 151.452C27.5344 151.339 27.3567 151.254 27.1172 151.198L26.3241 151.013C25.8884 150.909 25.5682 150.749 25.3638 150.532C25.1614 150.313 25.0602 150.04 25.0602 149.711C25.0602 149.443 25.1356 149.205 25.2863 148.999C25.4392 148.792 25.6467 148.63 25.909 148.513C26.1734 148.395 26.4728 148.336 26.8074 148.336C27.2783 148.336 27.6479 148.439 27.9164 148.646C28.187 148.852 28.379 149.125 28.4926 149.464ZM33.0504 149.464L32.3936 149.649C32.3523 149.54 32.2914 149.434 32.2109 149.33C32.1324 149.225 32.025 149.138 31.8887 149.07C31.7524 149.002 31.5779 148.968 31.3651 148.968C31.0739 148.968 30.8313 149.035 30.6371 149.169C30.4451 149.301 30.349 149.47 30.349 149.674C30.349 149.856 30.4151 150 30.5473 150.105C30.6795 150.21 30.886 150.298 31.1669 150.368L31.8732 150.542C32.2986 150.645 32.6157 150.803 32.8242 151.016C33.0328 151.226 33.1371 151.498 33.1371 151.83C33.1371 152.103 33.0586 152.347 32.9017 152.561C32.7468 152.776 32.5299 152.946 32.2511 153.07C31.9723 153.193 31.6481 153.255 31.2784 153.255C30.7931 153.255 30.3914 153.15 30.0733 152.939C29.7553 152.729 29.5539 152.421 29.4692 152.016L30.1632 151.843C30.2293 152.099 30.3542 152.291 30.538 152.419C30.7239 152.547 30.9665 152.611 31.266 152.611C31.6068 152.611 31.8773 152.539 32.0777 152.394C32.28 152.248 32.3812 152.072 32.3812 151.868C32.3812 151.702 32.3234 151.564 32.2078 151.452C32.0921 151.339 31.9145 151.254 31.6749 151.198L30.8819 151.013C30.4461 150.909 30.126 150.749 29.9215 150.532C29.7191 150.313 29.6179 150.04 29.6179 149.711C29.6179 149.443 29.6933 149.205 29.8441 148.999C29.9969 148.792 30.2045 148.63 30.4668 148.513C30.7311 148.395 31.0306 148.336 31.3651 148.336C31.836 148.336 32.2057 148.439 32.4742 148.646C32.7447 148.852 32.9368 149.125 33.0504 149.464ZM35.3157 153.156L33.8659 148.398H34.6342L35.6627 152.041H35.7122L36.7283 148.398H37.509L38.5127 152.029H38.5623L39.5908 148.398H40.359L38.9092 153.156H38.1905L37.1496 149.501H37.0753L36.0344 153.156H35.3157ZM43.0968 153.255C42.6672 153.255 42.2903 153.153 41.9661 152.949C41.6439 152.744 41.3919 152.458 41.2102 152.091C41.0305 151.723 40.9407 151.293 40.9407 150.802C40.9407 150.306 41.0305 149.874 41.2102 149.504C41.3919 149.134 41.6439 148.847 41.9661 148.643C42.2903 148.438 42.6672 148.336 43.0968 148.336C43.5264 148.336 43.9022 148.438 44.2244 148.643C44.5487 148.847 44.8006 149.134 44.9803 149.504C45.162 149.874 45.2529 150.306 45.2529 150.802C45.2529 151.293 45.162 151.723 44.9803 152.091C44.8006 152.458 44.5487 152.744 44.2244 152.949C43.9022 153.153 43.5264 153.255 43.0968 153.255ZM43.0968 152.599C43.4231 152.599 43.6916 152.515 43.9022 152.348C44.1129 152.18 44.2688 151.96 44.37 151.688C44.4712 151.415 44.5218 151.12 44.5218 150.802C44.5218 150.484 44.4712 150.187 44.37 149.913C44.2688 149.638 44.1129 149.416 43.9022 149.247C43.6916 149.077 43.4231 148.993 43.0968 148.993C42.7705 148.993 42.502 149.077 42.2913 149.247C42.0807 149.416 41.9248 149.638 41.8236 149.913C41.7224 150.187 41.6718 150.484 41.6718 150.802C41.6718 151.12 41.7224 151.415 41.8236 151.688C41.9248 151.96 42.0807 152.18 42.2913 152.348C42.502 152.515 42.7705 152.599 43.0968 152.599ZM46.3689 153.156V148.398H47.0752V149.117H47.1248C47.2116 148.881 47.3685 148.69 47.5957 148.544C47.8229 148.397 48.079 148.324 48.364 148.324C48.4177 148.324 48.4848 148.325 48.5653 148.327C48.6459 148.329 48.7068 148.332 48.7481 148.336V149.079C48.7233 149.073 48.6665 149.064 48.5777 149.052C48.491 149.037 48.3991 149.03 48.302 149.03C48.0707 149.03 47.8642 149.078 47.6824 149.175C47.5028 149.27 47.3602 149.403 47.2549 149.572C47.1517 149.739 47.1 149.93 47.1 150.145V153.156H46.3689ZM51.2667 153.255C50.8701 153.255 50.5201 153.155 50.2165 152.955C49.9129 152.752 49.6754 152.467 49.504 152.1C49.3326 151.73 49.2469 151.293 49.2469 150.789C49.2469 150.29 49.3326 149.856 49.504 149.488C49.6754 149.121 49.9139 148.837 50.2196 148.636C50.5252 148.436 50.8784 148.336 51.2791 148.336C51.5888 148.336 51.8336 148.388 52.0133 148.491C52.195 148.592 52.3334 148.708 52.4284 148.838C52.5254 148.966 52.6008 149.071 52.6545 149.154H52.7165V146.812H53.4476V153.156H52.7413V152.425H52.6545C52.6008 152.512 52.5244 152.621 52.4253 152.754C52.3261 152.884 52.1847 153 52.0009 153.104C51.8171 153.205 51.5723 153.255 51.2667 153.255ZM51.3658 152.599C51.6591 152.599 51.9069 152.522 52.1093 152.369C52.3117 152.214 52.4655 152.001 52.5709 151.728C52.6762 151.453 52.7289 151.136 52.7289 150.777C52.7289 150.422 52.6772 150.111 52.574 149.845C52.4707 149.576 52.3179 149.368 52.1155 149.219C51.9131 149.068 51.6632 148.993 51.3658 148.993C51.056 148.993 50.7979 149.072 50.5913 149.231C50.3869 149.388 50.233 149.602 50.1297 149.873C50.0285 150.141 49.978 150.443 49.978 150.777C49.978 151.116 50.0296 151.424 50.1328 151.7C50.2382 151.975 50.3931 152.194 50.5975 152.357C50.8041 152.518 51.0601 152.599 51.3658 152.599Z" fill="#4B5563"/>
<path d="M14.7683 171.516V165.171H18.5972V165.853H15.5365V167.996H18.399V168.678H15.5365V170.834H18.6468V171.516H14.7683ZM20.614 168.653V171.516H19.8829V166.757H20.5892V167.501H20.6511C20.7627 167.259 20.932 167.065 21.1592 166.918C21.3864 166.77 21.6796 166.695 22.039 166.695C22.3612 166.695 22.6431 166.761 22.8847 166.894C23.1263 167.024 23.3143 167.222 23.4485 167.488C23.5828 167.753 23.6499 168.087 23.6499 168.492V171.516H22.9188V168.542C22.9188 168.168 22.8217 167.877 22.6276 167.668C22.4335 167.457 22.167 167.352 21.8283 167.352C21.595 167.352 21.3864 167.403 21.2026 167.504C21.0208 167.605 20.8773 167.753 20.772 167.947C20.6666 168.141 20.614 168.376 20.614 168.653ZM27.0552 166.757V167.377H24.5893V166.757H27.0552ZM25.308 165.617H26.0391V170.153C26.0391 170.359 26.0691 170.514 26.129 170.617C26.1909 170.718 26.2694 170.787 26.3644 170.822C26.4615 170.855 26.5637 170.871 26.6711 170.871C26.7516 170.871 26.8177 170.867 26.8693 170.859C26.921 170.849 26.9623 170.84 26.9933 170.834L27.142 171.491C27.0924 171.509 27.0232 171.528 26.9344 171.547C26.8456 171.567 26.733 171.578 26.5967 171.578C26.3902 171.578 26.1878 171.533 25.9896 171.444C25.7934 171.356 25.6302 171.22 25.5001 171.039C25.372 170.857 25.308 170.628 25.308 170.351V165.617ZM30.0989 171.615C29.6404 171.615 29.2449 171.514 28.9124 171.311C28.582 171.107 28.3269 170.822 28.1472 170.456C27.9696 170.089 27.8808 169.661 27.8808 169.174C27.8808 168.686 27.9696 168.257 28.1472 167.885C28.3269 167.511 28.5768 167.22 28.8969 167.011C29.2191 166.801 29.595 166.695 30.0245 166.695C30.2724 166.695 30.5171 166.737 30.7587 166.819C31.0004 166.902 31.2203 167.036 31.4186 167.222C31.6168 167.406 31.7748 167.649 31.8926 167.953C32.0103 168.257 32.0691 168.63 32.0691 169.074V169.384H28.4012V168.752H31.3256C31.3256 168.484 31.2719 168.244 31.1646 168.034C31.0592 167.823 30.9085 167.657 30.7123 167.535C30.5181 167.413 30.2889 167.352 30.0245 167.352C29.7333 167.352 29.4814 167.424 29.2687 167.569C29.058 167.711 28.8959 167.897 28.7823 168.127C28.6687 168.356 28.6119 168.602 28.6119 168.864V169.285C28.6119 169.645 28.6739 169.949 28.7978 170.199C28.9238 170.447 29.0983 170.636 29.3213 170.766C29.5444 170.894 29.8036 170.958 30.0989 170.958C30.291 170.958 30.4644 170.931 30.6193 170.877C30.7763 170.822 30.9116 170.739 31.0251 170.63C31.1387 170.518 31.2265 170.38 31.2885 170.215L31.9948 170.413C31.9204 170.652 31.7955 170.863 31.6199 171.045C31.4444 171.224 31.2275 171.365 30.9694 171.466C30.7112 171.565 30.4211 171.615 30.0989 171.615ZM33.1813 171.516V166.757H33.8876V167.476H33.9372C34.0239 167.241 34.1809 167.05 34.408 166.903C34.6352 166.756 34.8913 166.683 35.1763 166.683C35.23 166.683 35.2971 166.684 35.3777 166.686C35.4582 166.688 35.5191 166.691 35.5604 166.695V167.439C35.5357 167.433 35.4789 167.423 35.3901 167.411C35.3033 167.396 35.2114 167.389 35.1143 167.389C34.883 167.389 34.6765 167.438 34.4948 167.535C34.3151 167.63 34.1726 167.762 34.0673 167.931C33.964 168.099 33.9124 168.29 33.9124 168.504V171.516H33.1813ZM38.8806 173.3V166.757H39.5869V167.513H39.6736C39.7273 167.431 39.8017 167.325 39.8967 167.197C39.9938 167.067 40.1321 166.951 40.3118 166.85C40.4935 166.747 40.7393 166.695 41.0491 166.695C41.4498 166.695 41.8029 166.795 42.1086 166.996C42.4142 167.196 42.6528 167.48 42.8242 167.848C42.9956 168.215 43.0813 168.649 43.0813 169.149C43.0813 169.653 42.9956 170.09 42.8242 170.459C42.6528 170.827 42.4153 171.112 42.1117 171.314C41.8081 171.515 41.458 171.615 41.0615 171.615C40.7558 171.615 40.5111 171.564 40.3273 171.463C40.1435 171.36 40.002 171.243 39.9029 171.113C39.8038 170.981 39.7273 170.871 39.6736 170.785H39.6117V173.3H38.8806ZM39.5993 169.136C39.5993 169.496 39.652 169.813 39.7573 170.088C39.8626 170.36 40.0165 170.574 40.2189 170.729C40.4213 170.882 40.6691 170.958 40.9624 170.958C41.268 170.958 41.5231 170.877 41.7275 170.716C41.9341 170.553 42.089 170.334 42.1922 170.06C42.2975 169.783 42.3502 169.475 42.3502 169.136C42.3502 168.802 42.2986 168.5 42.1953 168.232C42.0941 167.961 41.9403 167.748 41.7337 167.591C41.5293 167.432 41.2721 167.352 40.9624 167.352C40.665 167.352 40.4151 167.427 40.2127 167.578C40.0103 167.727 39.8575 167.936 39.7542 168.204C39.6509 168.47 39.5993 168.781 39.5993 169.136ZM45.5968 171.627C45.2953 171.627 45.0216 171.57 44.7758 171.457C44.5301 171.341 44.3349 171.175 44.1903 170.958C44.0458 170.739 43.9735 170.475 43.9735 170.165C43.9735 169.892 44.0272 169.671 44.1346 169.502C44.242 169.331 44.3855 169.196 44.5652 169.099C44.7449 169.002 44.9431 168.93 45.16 168.882C45.3789 168.833 45.5988 168.794 45.8198 168.765C46.109 168.728 46.3434 168.7 46.523 168.681C46.7048 168.66 46.837 168.626 46.9196 168.579C47.0042 168.531 47.0466 168.449 47.0466 168.331V168.306C47.0466 168.001 46.9629 167.763 46.7957 167.594C46.6304 167.424 46.3795 167.34 46.0429 167.34C45.6938 167.34 45.4202 167.416 45.2219 167.569C45.0237 167.722 44.8843 167.885 44.8037 168.058L44.1098 167.811C44.2337 167.521 44.3989 167.296 44.6055 167.135C44.8141 166.972 45.0412 166.858 45.287 166.794C45.5348 166.728 45.7785 166.695 46.0181 166.695C46.1709 166.695 46.3465 166.714 46.5447 166.751C46.7451 166.786 46.9382 166.86 47.124 166.971C47.312 167.083 47.4679 167.251 47.5918 167.476C47.7157 167.701 47.7777 168.003 47.7777 168.381V171.516H47.0466V170.871H47.0094C46.9598 170.975 46.8772 171.085 46.7616 171.203C46.6459 171.32 46.4921 171.421 46.3 171.503C46.1079 171.586 45.8735 171.627 45.5968 171.627ZM45.7083 170.97C45.9974 170.97 46.2411 170.914 46.4394 170.8C46.6397 170.686 46.7905 170.54 46.8917 170.36C46.995 170.18 47.0466 169.991 47.0466 169.793V169.124C47.0156 169.161 46.9475 169.195 46.8421 169.226C46.7389 169.255 46.6191 169.281 46.4828 169.304C46.3485 169.324 46.2174 169.343 46.0893 169.36C45.9634 169.374 45.8611 169.386 45.7827 169.397C45.5927 169.421 45.415 169.462 45.2498 169.517C45.0867 169.571 44.9545 169.653 44.8533 169.762C44.7542 169.87 44.7046 170.016 44.7046 170.202C44.7046 170.456 44.7986 170.648 44.9865 170.778C45.1765 170.906 45.4171 170.97 45.7083 170.97ZM52.4826 167.823L51.8258 168.009C51.7845 167.899 51.7236 167.793 51.6431 167.69C51.5646 167.584 51.4572 167.498 51.3209 167.43C51.1846 167.361 51.0101 167.327 50.7973 167.327C50.5061 167.327 50.2635 167.394 50.0693 167.529C49.8773 167.661 49.7812 167.829 49.7812 168.034C49.7812 168.215 49.8473 168.359 49.9795 168.464C50.1117 168.57 50.3182 168.657 50.5991 168.728L51.3054 168.901C51.7308 169.004 52.0478 169.162 52.2564 169.375C52.465 169.586 52.5693 169.857 52.5693 170.19C52.5693 170.462 52.4908 170.706 52.3339 170.921C52.179 171.136 51.9621 171.305 51.6833 171.429C51.4045 171.553 51.0803 171.615 50.7106 171.615C50.2253 171.615 49.8236 171.509 49.5055 171.299C49.1875 171.088 48.9861 170.78 48.9014 170.376L49.5954 170.202C49.6615 170.458 49.7864 170.65 49.9702 170.778C50.1561 170.906 50.3987 170.97 50.6982 170.97C51.039 170.97 51.3095 170.898 51.5099 170.754C51.7122 170.607 51.8134 170.431 51.8134 170.227C51.8134 170.062 51.7556 169.923 51.64 169.812C51.5243 169.698 51.3467 169.614 51.1071 169.558L50.3141 169.372C49.8783 169.269 49.5582 169.109 49.3537 168.892C49.1513 168.673 49.0501 168.399 49.0501 168.071C49.0501 167.802 49.1255 167.565 49.2763 167.358C49.4291 167.152 49.6367 166.99 49.899 166.872C50.1633 166.754 50.4628 166.695 50.7973 166.695C51.2682 166.695 51.6379 166.799 51.9064 167.005C52.1769 167.212 52.369 167.484 52.4826 167.823ZM57.0403 167.823L56.3836 168.009C56.3423 167.899 56.2814 167.793 56.2008 167.69C56.1223 167.584 56.0149 167.498 55.8786 167.43C55.7423 167.361 55.5678 167.327 55.3551 167.327C55.0639 167.327 54.8212 167.394 54.6271 167.529C54.435 167.661 54.339 167.829 54.339 168.034C54.339 168.215 54.4051 168.359 54.5372 168.464C54.6694 168.57 54.8759 168.657 55.1568 168.728L55.8631 168.901C56.2886 169.004 56.6056 169.162 56.8142 169.375C57.0228 169.586 57.1271 169.857 57.1271 170.19C57.1271 170.462 57.0486 170.706 56.8916 170.921C56.7367 171.136 56.5199 171.305 56.2411 171.429C55.9623 171.553 55.638 171.615 55.2683 171.615C54.783 171.615 54.3813 171.509 54.0633 171.299C53.7452 171.088 53.5439 170.78 53.4592 170.376L54.1531 170.202C54.2192 170.458 54.3441 170.65 54.528 170.778C54.7138 170.906 54.9565 170.97 55.256 170.97C55.5967 170.97 55.8673 170.898 56.0676 170.754C56.27 170.607 56.3712 170.431 56.3712 170.227C56.3712 170.062 56.3134 169.923 56.1977 169.812C56.0821 169.698 55.9044 169.614 55.6649 169.558L54.8718 169.372C54.4361 169.269 54.1159 169.109 53.9115 168.892C53.7091 168.673 53.6079 168.399 53.6079 168.071C53.6079 167.802 53.6833 167.565 53.834 167.358C53.9869 167.152 54.1944 166.99 54.4567 166.872C54.7211 166.754 55.0205 166.695 55.3551 166.695C55.826 166.695 56.1956 166.799 56.4641 167.005C56.7347 167.212 56.9267 167.484 57.0403 167.823ZM59.3057 171.516L57.8558 166.757H58.6241L59.6526 170.4H59.7022L60.7183 166.757H61.499L62.5027 170.388H62.5522L63.5807 166.757H64.349L62.8992 171.516H62.1805L61.1396 167.86H61.0652L60.0244 171.516H59.3057ZM67.0867 171.615C66.6572 171.615 66.2803 171.513 65.956 171.308C65.6338 171.104 65.3819 170.818 65.2001 170.45C65.0205 170.082 64.9306 169.653 64.9306 169.161C64.9306 168.666 65.0205 168.233 65.2001 167.863C65.3819 167.494 65.6338 167.206 65.956 167.002C66.2803 166.798 66.6572 166.695 67.0867 166.695C67.5163 166.695 67.8922 166.798 68.2144 167.002C68.5386 167.206 68.7906 167.494 68.9703 167.863C69.152 168.233 69.2429 168.666 69.2429 169.161C69.2429 169.653 69.152 170.082 68.9703 170.45C68.7906 170.818 68.5386 171.104 68.2144 171.308C67.8922 171.513 67.5163 171.615 67.0867 171.615ZM67.0867 170.958C67.4131 170.958 67.6815 170.874 67.8922 170.707C68.1028 170.54 68.2588 170.32 68.36 170.047C68.4612 169.775 68.5118 169.479 68.5118 169.161C68.5118 168.843 68.4612 168.547 68.36 168.272C68.2588 167.997 68.1028 167.775 67.8922 167.606C67.6815 167.437 67.4131 167.352 67.0867 167.352C66.7604 167.352 66.492 167.437 66.2813 167.606C66.0706 167.775 65.9147 167.997 65.8135 168.272C65.7123 168.547 65.6617 168.843 65.6617 169.161C65.6617 169.479 65.7123 169.775 65.8135 170.047C65.9147 170.32 66.0706 170.54 66.2813 170.707C66.492 170.874 66.7604 170.958 67.0867 170.958ZM70.3589 171.516V166.757H71.0652V167.476H71.1148C71.2015 167.241 71.3585 167.05 71.5856 166.903C71.8128 166.756 72.0689 166.683 72.3539 166.683C72.4076 166.683 72.4747 166.684 72.5553 166.686C72.6358 166.688 72.6967 166.691 72.738 166.695V167.439C72.7133 167.433 72.6565 167.423 72.5677 167.411C72.4809 167.396 72.389 167.389 72.292 167.389C72.0606 167.389 71.8541 167.438 71.6724 167.535C71.4927 167.63 71.3502 167.762 71.2449 167.931C71.1416 168.099 71.09 168.29 71.09 168.504V171.516H70.3589ZM75.2566 171.615C74.8601 171.615 74.51 171.515 74.2064 171.314C73.9028 171.112 73.6653 170.827 73.4939 170.459C73.3225 170.09 73.2368 169.653 73.2368 169.149C73.2368 168.649 73.3225 168.215 73.4939 167.848C73.6653 167.48 73.9039 167.196 74.2095 166.996C74.5152 166.795 74.8683 166.695 75.269 166.695C75.5788 166.695 75.8235 166.747 76.0032 166.85C76.1849 166.951 76.3233 167.067 76.4183 167.197C76.5154 167.325 76.5908 167.431 76.6445 167.513H76.7064V165.171H77.4375V171.516H76.7312V170.785H76.6445C76.5908 170.871 76.5144 170.981 76.4152 171.113C76.3161 171.243 76.1746 171.36 75.9908 171.463C75.807 171.564 75.5623 171.615 75.2566 171.615ZM75.3557 170.958C75.649 170.958 75.8968 170.882 76.0992 170.729C76.3016 170.574 76.4555 170.36 76.5608 170.088C76.6661 169.813 76.7188 169.496 76.7188 169.136C76.7188 168.781 76.6672 168.47 76.5639 168.204C76.4607 167.936 76.3078 167.727 76.1054 167.578C75.903 167.427 75.6531 167.352 75.3557 167.352C75.046 167.352 74.7878 167.432 74.5813 167.591C74.3768 167.748 74.223 167.961 74.1197 168.232C74.0185 168.5 73.9679 168.802 73.9679 169.136C73.9679 169.475 74.0195 169.783 74.1228 170.06C74.2281 170.334 74.383 170.553 74.5875 170.716C74.794 170.877 75.0501 170.958 75.3557 170.958Z" fill="#9CA3AF"/>
<path d="M14 179.883H231" stroke="#D1D5DB" stroke-width="0.545226"/>
<g filter="url(#filter0_d_5555_73494)">
<rect x="93.5547" y="201.883" width="57.8945" height="24.9045" rx="12.4523" fill="#3B82F6"/>
<path d="M111.697 217.336V210.991H112.654V216.512H115.529V217.336H111.697ZM118.551 217.432C118.105 217.432 117.716 217.33 117.383 217.125C117.051 216.921 116.793 216.635 116.609 216.267C116.425 215.9 116.333 215.47 116.333 214.978C116.333 214.485 116.425 214.053 116.609 213.684C116.793 213.314 117.051 213.027 117.383 212.822C117.716 212.618 118.105 212.516 118.551 212.516C118.997 212.516 119.386 212.618 119.719 212.822C120.051 213.027 120.31 213.314 120.493 213.684C120.677 214.053 120.769 214.485 120.769 214.978C120.769 215.47 120.677 215.9 120.493 216.267C120.31 216.635 120.051 216.921 119.719 217.125C119.386 217.33 118.997 217.432 118.551 217.432ZM118.554 216.654C118.843 216.654 119.083 216.578 119.273 216.425C119.463 216.272 119.603 216.069 119.694 215.815C119.787 215.561 119.834 215.281 119.834 214.975C119.834 214.672 119.787 214.393 119.694 214.139C119.603 213.883 119.463 213.677 119.273 213.522C119.083 213.368 118.843 213.29 118.554 213.29C118.263 213.29 118.021 213.368 117.829 213.522C117.639 213.677 117.498 213.883 117.405 214.139C117.314 214.393 117.269 214.672 117.269 214.975C117.269 215.281 117.314 215.561 117.405 215.815C117.498 216.069 117.639 216.272 117.829 216.425C118.021 216.578 118.263 216.654 118.554 216.654ZM123.798 219.219C123.42 219.219 123.095 219.17 122.822 219.071C122.552 218.972 122.331 218.84 122.159 218.677C121.988 218.514 121.86 218.336 121.775 218.141L122.571 217.813C122.627 217.904 122.701 218 122.794 218.101C122.889 218.204 123.017 218.292 123.179 218.364C123.342 218.437 123.551 218.473 123.807 218.473C124.158 218.473 124.449 218.387 124.678 218.216C124.907 218.046 125.022 217.776 125.022 217.404V216.469H124.963C124.907 216.57 124.827 216.682 124.721 216.806C124.618 216.93 124.476 217.038 124.294 217.128C124.112 217.219 123.876 217.265 123.584 217.265C123.208 217.265 122.87 217.177 122.568 217.001C122.269 216.824 122.031 216.563 121.856 216.218C121.682 215.871 121.596 215.444 121.596 214.938C121.596 214.432 121.681 213.998 121.853 213.637C122.026 213.276 122.264 212.999 122.565 212.807C122.867 212.613 123.208 212.516 123.591 212.516C123.886 212.516 124.124 212.565 124.306 212.664C124.488 212.761 124.629 212.875 124.731 213.005C124.834 213.135 124.913 213.25 124.969 213.349H125.037V212.578H125.945V217.441C125.945 217.85 125.85 218.186 125.66 218.448C125.47 218.71 125.213 218.904 124.889 219.03C124.566 219.156 124.203 219.219 123.798 219.219ZM123.789 216.496C124.055 216.496 124.28 216.434 124.464 216.311C124.65 216.185 124.79 216.005 124.885 215.772C124.983 215.536 125.031 215.254 125.031 214.926C125.031 214.606 124.984 214.324 124.889 214.08C124.794 213.836 124.654 213.646 124.47 213.51C124.287 213.372 124.059 213.303 123.789 213.303C123.51 213.303 123.278 213.375 123.092 213.519C122.906 213.662 122.765 213.856 122.67 214.102C122.578 214.348 122.531 214.622 122.531 214.926C122.531 215.238 122.579 215.511 122.674 215.747C122.769 215.982 122.909 216.166 123.095 216.298C123.283 216.43 123.514 216.496 123.789 216.496ZM127.187 217.336V212.578H128.113V217.336H127.187ZM127.655 211.843C127.494 211.843 127.355 211.79 127.24 211.682C127.126 211.573 127.069 211.443 127.069 211.292C127.069 211.139 127.126 211.009 127.24 210.902C127.355 210.792 127.494 210.737 127.655 210.737C127.816 210.737 127.953 210.792 128.067 210.902C128.183 211.009 128.24 211.139 128.24 211.292C128.24 211.443 128.183 211.573 128.067 211.682C127.953 211.79 127.816 211.843 127.655 211.843ZM130.286 214.511V217.336H129.36V212.578H130.249V213.352H130.308C130.417 213.1 130.588 212.898 130.822 212.745C131.057 212.592 131.354 212.516 131.711 212.516C132.035 212.516 132.319 212.584 132.563 212.72C132.806 212.854 132.995 213.055 133.13 213.321C133.264 213.588 133.331 213.917 133.331 214.309V217.336H132.405V214.421C132.405 214.076 132.315 213.806 132.135 213.612C131.956 213.416 131.709 213.318 131.395 213.318C131.18 213.318 130.989 213.364 130.822 213.457C130.657 213.55 130.525 213.687 130.428 213.866C130.333 214.044 130.286 214.259 130.286 214.511Z" fill="white"/>
</g>
<defs>
<filter id="filter0_d_5555_73494" x="91.5547" y="200.883" width="61.8945" height="28.9062" filterUnits="userSpaceOnUse" color-interpolation-filters="sRGB">
<feFlood flood-opacity="0" result="BackgroundImageFix"/>
<feColorMatrix in="SourceAlpha" type="matrix" values="0 0 0 0 0 0 0 0 0 0 0 0 0 0 0 0 0 0 127 0" result="hardAlpha"/>
<feOffset dy="1"/>
<feGaussianBlur stdDeviation="1"/>
<feColorMatrix type="matrix" values="0 0 0 0 0 0 0 0 0 0 0 0 0 0 0 0 0 0 0.05 0"/>
<feBlend mode="normal" in2="BackgroundImageFix" result="effect1_dropShadow_5555_73494"/>
<feBlend mode="normal" in="SourceGraphic" in2="effect1_dropShadow_5555_73494" result="shape"/>
</filter>
</defs>
</svg>
