<svg width="245" height="245" viewBox="0 0 245 245" fill="none" xmlns="http://www.w3.org/2000/svg">
<rect width="245" height="245" rx="8" fill="white"/>
<path d="M79.2157 29.6016V17.7057H81.7308V27.5279H86.8306V29.6016H79.2157ZM92.4809 29.7758C91.5786 29.7758 90.7983 29.5841 90.14 29.2008C89.4856 28.8135 88.9803 28.2753 88.624 27.586C88.2678 26.8929 88.0896 26.0893 88.0896 25.1755C88.0896 24.2539 88.2678 23.4484 88.624 22.7591C88.9803 22.066 89.4856 21.5277 90.14 21.1444C90.7983 20.7571 91.5786 20.5635 92.4809 20.5635C93.3831 20.5635 94.1615 20.7571 94.8159 21.1444C95.4742 21.5277 95.9815 22.066 96.3377 22.7591C96.694 23.4484 96.8721 24.2539 96.8721 25.1755C96.8721 26.0893 96.694 26.8929 96.3377 27.586C95.9815 28.2753 95.4742 28.8135 94.8159 29.2008C94.1615 29.5841 93.3831 29.7758 92.4809 29.7758ZM92.4925 27.859C92.9029 27.859 93.2456 27.7428 93.5206 27.5105C93.7955 27.2743 94.0027 26.9529 94.1421 26.5463C94.2854 26.1397 94.357 25.6769 94.357 25.158C94.357 24.6392 94.2854 24.1764 94.1421 23.7698C94.0027 23.3632 93.7955 23.0418 93.5206 22.8056C93.2456 22.5694 92.9029 22.4513 92.4925 22.4513C92.0781 22.4513 91.7296 22.5694 91.4469 22.8056C91.1681 23.0418 90.9571 23.3632 90.8138 23.7698C90.6744 24.1764 90.6047 24.6392 90.6047 25.158C90.6047 25.6769 90.6744 26.1397 90.8138 26.5463C90.9571 26.9529 91.1681 27.2743 91.4469 27.5105C91.7296 27.7428 92.0781 27.859 92.4925 27.859ZM102.501 33.1331C101.699 33.1331 101.012 33.0228 100.439 32.8021C99.8693 32.5852 99.4162 32.289 99.0793 31.9134C98.7424 31.5377 98.5237 31.1156 98.423 30.6471L100.712 30.3392C100.781 30.5174 100.892 30.6839 101.043 30.8388C101.194 30.9937 101.393 31.1176 101.641 31.2105C101.893 31.3073 102.199 31.3557 102.559 31.3557C103.097 31.3557 103.54 31.2241 103.889 30.9608C104.241 30.7013 104.417 30.2657 104.417 29.6538V28.0216H104.313C104.204 28.2695 104.042 28.5038 103.825 28.7245C103.608 28.9452 103.329 29.1253 102.988 29.2647C102.648 29.4041 102.241 29.4738 101.769 29.4738C101.099 29.4738 100.489 29.3189 99.939 29.0091C99.393 28.6954 98.9574 28.2172 98.6321 27.5744C98.3107 26.9277 98.15 26.1106 98.15 25.1232C98.15 24.1125 98.3146 23.2683 98.6437 22.5907C98.9728 21.913 99.4104 21.4057 99.9564 21.0689C100.506 20.732 101.108 20.5635 101.763 20.5635C102.262 20.5635 102.681 20.6487 103.018 20.8191C103.354 20.9856 103.625 21.1947 103.831 21.4464C104.04 21.6942 104.201 21.9382 104.313 22.1783H104.406V20.6797H106.863V29.6887C106.863 30.4477 106.677 31.0827 106.305 31.5939C105.933 32.105 105.418 32.4884 104.76 32.744C104.106 33.0034 103.352 33.1331 102.501 33.1331ZM102.553 27.615C102.952 27.615 103.289 27.5163 103.564 27.3188C103.842 27.1175 104.055 26.8309 104.202 26.4592C104.353 26.0835 104.429 25.6343 104.429 25.1116C104.429 24.5888 104.355 24.1357 104.208 23.7524C104.061 23.3652 103.848 23.065 103.569 22.8521C103.291 22.6391 102.952 22.5326 102.553 22.5326C102.146 22.5326 101.804 22.643 101.525 22.8637C101.246 23.0805 101.035 23.3826 100.892 23.7698C100.748 24.157 100.677 24.6043 100.677 25.1116C100.677 25.6266 100.748 26.0719 100.892 26.4475C101.039 26.8193 101.25 27.1078 101.525 27.313C101.804 27.5144 102.146 27.615 102.553 27.615ZM108.832 29.6016V20.6797H111.306V29.6016H108.832ZM110.075 19.5296C109.707 19.5296 109.391 19.4076 109.128 19.1637C108.869 18.9158 108.739 18.6196 108.739 18.275C108.739 17.9342 108.869 17.6418 109.128 17.3979C109.391 17.15 109.707 17.0261 110.075 17.0261C110.443 17.0261 110.756 17.15 111.016 17.3979C111.279 17.6418 111.411 17.9342 111.411 18.275C111.411 18.6196 111.279 18.9158 111.016 19.1637C110.756 19.4076 110.443 19.5296 110.075 19.5296ZM115.763 24.4436V29.6016H113.288V20.6797H115.647V22.2538H115.751C115.949 21.7349 116.28 21.3244 116.744 21.0224C117.209 20.7165 117.773 20.5635 118.435 20.5635C119.054 20.5635 119.595 20.699 120.055 20.9701C120.516 21.2412 120.874 21.6284 121.13 22.1318C121.386 22.6313 121.513 23.2277 121.513 23.9208V29.6016H119.039V24.3623C119.043 23.8163 118.903 23.3903 118.621 23.0844C118.338 22.7746 117.949 22.6197 117.453 22.6197C117.12 22.6197 116.826 22.6914 116.57 22.8346C116.319 22.9779 116.121 23.187 115.978 23.462C115.838 23.733 115.767 24.0602 115.763 24.4436ZM127.296 29.6016V17.7057H135.172V19.7794H129.811V22.6139H134.649V24.6876H129.811V29.6016H127.296ZM140.193 29.7758C139.291 29.7758 138.511 29.5841 137.853 29.2008C137.198 28.8135 136.693 28.2753 136.337 27.586C135.98 26.8929 135.802 26.0893 135.802 25.1755C135.802 24.2539 135.98 23.4484 136.337 22.7591C136.693 22.066 137.198 21.5277 137.853 21.1444C138.511 20.7571 139.291 20.5635 140.193 20.5635C141.096 20.5635 141.874 20.7571 142.528 21.1444C143.187 21.5277 143.694 22.066 144.05 22.7591C144.407 23.4484 144.585 24.2539 144.585 25.1755C144.585 26.0893 144.407 26.8929 144.05 27.586C143.694 28.2753 143.187 28.8135 142.528 29.2008C141.874 29.5841 141.096 29.7758 140.193 29.7758ZM140.205 27.859C140.616 27.859 140.958 27.7428 141.233 27.5105C141.508 27.2743 141.715 26.9529 141.855 26.5463C141.998 26.1397 142.07 25.6769 142.07 25.158C142.07 24.6392 141.998 24.1764 141.855 23.7698C141.715 23.3632 141.508 23.0418 141.233 22.8056C140.958 22.5694 140.616 22.4513 140.205 22.4513C139.791 22.4513 139.442 22.5694 139.16 22.8056C138.881 23.0418 138.67 23.3632 138.526 23.7698C138.387 24.1764 138.317 24.6392 138.317 25.158C138.317 25.6769 138.387 26.1397 138.526 26.5463C138.67 26.9529 138.881 27.2743 139.16 27.5105C139.442 27.7428 139.791 27.859 140.205 27.859ZM146.194 29.6016V20.6797H148.593V22.2364H148.686C148.848 21.6826 149.121 21.2644 149.505 20.9817C149.888 20.6952 150.329 20.5519 150.829 20.5519C150.953 20.5519 151.086 20.5596 151.23 20.5751C151.373 20.5906 151.499 20.6119 151.607 20.639V22.8346C151.491 22.7998 151.33 22.7688 151.125 22.7417C150.92 22.7146 150.732 22.701 150.562 22.701C150.198 22.701 149.872 22.7804 149.586 22.9392C149.303 23.0941 149.079 23.3109 148.912 23.5897C148.749 23.8686 148.668 24.19 148.668 24.554V29.6016H146.194ZM152.887 29.6016V20.6797H155.245V22.2538H155.349C155.535 21.731 155.845 21.3186 156.279 21.0166C156.712 20.7145 157.231 20.5635 157.835 20.5635C158.447 20.5635 158.968 20.7165 159.398 21.0224C159.828 21.3244 160.114 21.7349 160.258 22.2538H160.35C160.532 21.7426 160.862 21.3341 161.338 21.0282C161.818 20.7184 162.385 20.5635 163.04 20.5635C163.872 20.5635 164.548 20.8288 165.067 21.3593C165.59 21.8859 165.851 22.6333 165.851 23.6014V29.6016H163.383V24.0893C163.383 23.5936 163.251 23.2219 162.988 22.974C162.724 22.7262 162.395 22.6023 162 22.6023C161.551 22.6023 161.2 22.7456 160.949 23.0321C160.697 23.3148 160.571 23.6885 160.571 24.1532V29.6016H158.172V24.037C158.172 23.5994 158.046 23.2509 157.795 22.9915C157.547 22.732 157.22 22.6023 156.813 22.6023C156.538 22.6023 156.29 22.672 156.07 22.8114C155.853 22.9469 155.68 23.1386 155.553 23.3864C155.425 23.6304 155.361 23.917 155.361 24.2461V29.6016H152.887Z" fill="#000824"/>
<path d="M35.7613 49.6016V42.4641H38.173C38.7329 42.4641 39.1906 42.5651 39.5461 42.7673C39.9039 42.9671 40.1688 43.2378 40.3407 43.5793C40.5126 43.9208 40.5986 44.3019 40.5986 44.7224C40.5986 45.1429 40.5126 45.5251 40.3407 45.869C40.1711 46.2129 39.9086 46.487 39.5531 46.6915C39.1976 46.8936 38.7422 46.9947 38.1869 46.9947H36.4583V46.228H38.159C38.5424 46.228 38.8502 46.1618 39.0826 46.0293C39.3149 45.8969 39.4834 45.718 39.5879 45.4926C39.6948 45.2649 39.7482 45.0082 39.7482 44.7224C39.7482 44.4366 39.6948 44.1811 39.5879 43.9557C39.4834 43.7303 39.3138 43.5537 39.0791 43.4259C38.8444 43.2958 38.5331 43.2308 38.1451 43.2308H36.6256V49.6016H35.7613ZM42.7019 42.4641V49.6016H41.8794V42.4641H42.7019ZM46.4527 49.7131C45.9369 49.7131 45.492 49.5992 45.1179 49.3715C44.7462 49.1415 44.4592 48.8209 44.2571 48.4097C44.0573 47.9961 43.9574 47.5151 43.9574 46.9668C43.9574 46.4185 44.0573 45.9352 44.2571 45.517C44.4592 45.0965 44.7404 44.7689 45.1005 44.5342C45.4629 44.2972 45.8858 44.1787 46.3691 44.1787C46.6479 44.1787 46.9232 44.2252 47.195 44.3181C47.4669 44.4111 47.7143 44.5621 47.9374 44.7712C48.1604 44.978 48.3382 45.2521 48.4706 45.5937C48.603 45.9352 48.6692 46.3558 48.6692 46.8553V47.2038H44.5429V46.4928H47.8328C47.8328 46.1908 47.7724 45.9213 47.6516 45.6843C47.5331 45.4473 47.3635 45.2603 47.1428 45.1232C46.9244 44.9861 46.6665 44.9176 46.3691 44.9176C46.0415 44.9176 45.758 44.9989 45.5187 45.1615C45.2817 45.3218 45.0993 45.531 44.9715 45.7889C44.8438 46.0468 44.7799 46.3232 44.7799 46.6183V47.0923C44.7799 47.4966 44.8496 47.8393 44.989 48.1204C45.1307 48.3992 45.327 48.6118 45.578 48.7582C45.8289 48.9022 46.1205 48.9742 46.4527 48.9742C46.6688 48.9742 46.864 48.944 47.0382 48.8836C47.2148 48.8209 47.367 48.728 47.4948 48.6048C47.6226 48.4794 47.7213 48.3237 47.791 48.1378L48.5856 48.3609C48.502 48.6304 48.3614 48.8674 48.1639 49.0718C47.9664 49.274 47.7225 49.432 47.432 49.5458C47.1416 49.6573 46.8152 49.7131 46.4527 49.7131ZM51.4957 49.727C51.1565 49.727 50.8486 49.6631 50.5721 49.5353C50.2956 49.4052 50.0761 49.2182 49.9134 48.9742C49.7508 48.728 49.6695 48.4306 49.6695 48.0821C49.6695 47.7754 49.7299 47.5268 49.8507 47.3362C49.9715 47.1434 50.133 46.9924 50.3351 46.8832C50.5373 46.774 50.7603 46.6927 51.0043 46.6392C51.2506 46.5835 51.498 46.5393 51.7466 46.5068C52.0719 46.465 52.3356 46.4336 52.5377 46.4127C52.7422 46.3895 52.8909 46.3511 52.9838 46.2977C53.0791 46.2442 53.1267 46.1513 53.1267 46.0189V45.991C53.1267 45.6471 53.0326 45.3799 52.8444 45.1894C52.6585 44.9989 52.3762 44.9036 51.9975 44.9036C51.6049 44.9036 51.297 44.9896 51.074 45.1615C50.8509 45.3335 50.6941 45.517 50.6035 45.7122L49.8228 45.4334C49.9622 45.1081 50.1481 44.8548 50.3804 44.6736C50.6151 44.4901 50.8707 44.3623 51.1472 44.2903C51.426 44.2159 51.7001 44.1787 51.9696 44.1787C52.1416 44.1787 52.3391 44.1996 52.5621 44.2415C52.7875 44.281 53.0047 44.3634 53.2138 44.4889C53.4253 44.6144 53.6007 44.8037 53.7401 45.057C53.8795 45.3102 53.9492 45.6494 53.9492 46.0746V49.6016H53.1267V48.8767H53.0849C53.0291 48.9928 52.9362 49.1171 52.8061 49.2496C52.676 49.382 52.5029 49.4947 52.2868 49.5876C52.0707 49.6806 51.807 49.727 51.4957 49.727ZM51.6211 48.9882C51.9464 48.9882 52.2206 48.9243 52.4436 48.7965C52.669 48.6687 52.8386 48.5038 52.9524 48.3016C53.0686 48.0995 53.1267 47.8869 53.1267 47.6638V46.9111C53.0919 46.9529 53.0152 46.9912 52.8967 47.0261C52.7805 47.0586 52.6458 47.0876 52.4924 47.1132C52.3414 47.1364 52.1939 47.1573 52.0498 47.1759C51.9081 47.1922 51.7931 47.2061 51.7048 47.2177C51.491 47.2456 51.2912 47.2909 51.1053 47.3537C50.9218 47.4141 50.7731 47.5058 50.6592 47.629C50.5477 47.7498 50.492 47.9148 50.492 48.1239C50.492 48.4097 50.5977 48.6257 50.8091 48.7721C51.0229 48.9162 51.2935 48.9882 51.6211 48.9882ZM59.2422 45.4473L58.5034 45.6564C58.4569 45.5333 58.3883 45.4136 58.2977 45.2975C58.2094 45.179 58.0886 45.0814 57.9353 45.0047C57.7819 44.928 57.5856 44.8897 57.3463 44.8897C57.0187 44.8897 56.7457 44.9652 56.5273 45.1162C56.3112 45.2649 56.2032 45.4543 56.2032 45.6843C56.2032 45.8888 56.2775 46.0502 56.4262 46.1687C56.5749 46.2872 56.8073 46.386 57.1233 46.465L57.9179 46.6601C58.3965 46.7763 58.7531 46.954 58.9878 47.1934C59.2225 47.4303 59.3398 47.7359 59.3398 48.1099C59.3398 48.4166 59.2515 48.6908 59.0749 48.9324C58.9007 49.1741 58.6567 49.3646 58.343 49.504C58.0294 49.6434 57.6646 49.7131 57.2487 49.7131C56.7027 49.7131 56.2508 49.5946 55.893 49.3576C55.5352 49.1206 55.3087 48.7744 55.2134 48.319L55.9941 48.1239C56.0684 48.412 56.209 48.6281 56.4158 48.7721C56.6249 48.9162 56.8979 48.9882 57.2348 48.9882C57.6181 48.9882 57.9225 48.9069 58.1479 48.7442C58.3756 48.5793 58.4894 48.3818 58.4894 48.1518C58.4894 47.9659 58.4244 47.8102 58.2943 47.6848C58.1641 47.557 57.9643 47.4617 57.6948 47.399L56.8026 47.1899C56.3124 47.0737 55.9523 46.8936 55.7222 46.6497C55.4945 46.4034 55.3807 46.0955 55.3807 45.7261C55.3807 45.4241 55.4655 45.1569 55.6351 44.9245C55.807 44.6922 56.0405 44.5098 56.3356 44.3774C56.633 44.2449 56.9699 44.1787 57.3463 44.1787C57.876 44.1787 58.2919 44.2949 58.594 44.5272C58.8983 44.7596 59.1144 45.0663 59.2422 45.4473ZM62.8223 49.7131C62.3065 49.7131 61.8616 49.5992 61.4875 49.3715C61.1157 49.1415 60.8288 48.8209 60.6267 48.4097C60.4268 47.9961 60.3269 47.5151 60.3269 46.9668C60.3269 46.4185 60.4268 45.9352 60.6267 45.517C60.8288 45.0965 61.1099 44.7689 61.4701 44.5342C61.8325 44.2972 62.2554 44.1787 62.7386 44.1787C63.0174 44.1787 63.2928 44.2252 63.5646 44.3181C63.8364 44.4111 64.0839 44.5621 64.3069 44.7712C64.53 44.978 64.7077 45.2521 64.8402 45.5937C64.9726 45.9352 65.0388 46.3558 65.0388 46.8553V47.2038H60.9124V46.4928H64.2024C64.2024 46.1908 64.142 45.9213 64.0212 45.6843C63.9027 45.4473 63.7331 45.2603 63.5123 45.1232C63.2939 44.9861 63.036 44.9176 62.7386 44.9176C62.411 44.9176 62.1276 44.9989 61.8883 45.1615C61.6513 45.3218 61.4689 45.531 61.3411 45.7889C61.2133 46.0468 61.1494 46.3232 61.1494 46.6183V47.0923C61.1494 47.4966 61.2191 47.8393 61.3585 48.1204C61.5003 48.3992 61.6966 48.6118 61.9475 48.7582C62.1984 48.9022 62.49 48.9742 62.8223 48.9742C63.0384 48.9742 63.2335 48.944 63.4078 48.8836C63.5844 48.8209 63.7365 48.728 63.8643 48.6048C63.9921 48.4794 64.0909 48.3237 64.1606 48.1378L64.9552 48.3609C64.8715 48.6304 64.731 48.8674 64.5335 49.0718C64.336 49.274 64.092 49.432 63.8016 49.5458C63.5112 49.6573 63.1847 49.7131 62.8223 49.7131ZM71.2249 49.7131C70.723 49.7131 70.2909 49.5946 69.9284 49.3576C69.566 49.1206 69.2872 48.7942 69.092 48.3783C68.8968 47.9624 68.7992 47.4873 68.7992 46.9529C68.7992 46.4092 68.8991 45.9294 69.099 45.5135C69.3011 45.0953 69.5822 44.7689 69.9424 44.5342C70.3048 44.2972 70.7277 44.1787 71.2109 44.1787C71.5873 44.1787 71.9265 44.2484 72.2286 44.3878C72.5306 44.5272 72.7781 44.7224 72.9709 44.9733C73.1638 45.2243 73.2834 45.517 73.3299 45.8516H72.5074C72.4447 45.6076 72.3053 45.3915 72.0892 45.2034C71.8754 45.0128 71.5873 44.9176 71.2249 44.9176C70.9042 44.9176 70.6231 45.0012 70.3815 45.1685C70.1422 45.3335 69.9551 45.567 69.8204 45.869C69.6879 46.1687 69.6217 46.5207 69.6217 46.925C69.6217 47.3386 69.6868 47.6987 69.8169 48.0054C69.9493 48.3121 70.1352 48.5502 70.3745 48.7198C70.6161 48.8894 70.8996 48.9742 71.2249 48.9742C71.4386 48.9742 71.6326 48.9371 71.8069 48.8627C71.9811 48.7884 72.1287 48.6815 72.2495 48.5421C72.3703 48.4027 72.4563 48.2354 72.5074 48.0402H73.3299C73.2834 48.3562 73.1684 48.6408 72.9849 48.8941C72.8036 49.145 72.5632 49.3448 72.2634 49.4935C71.966 49.6399 71.6199 49.7131 71.2249 49.7131ZM76.707 49.7131C76.2237 49.7131 75.7997 49.5981 75.4349 49.3681C75.0724 49.138 74.789 48.8163 74.5845 48.4027C74.3824 47.9891 74.2813 47.5058 74.2813 46.9529C74.2813 46.3953 74.3824 45.9085 74.5845 45.4926C74.789 45.0767 75.0724 44.7538 75.4349 44.5238C75.7997 44.2937 76.2237 44.1787 76.707 44.1787C77.1902 44.1787 77.6131 44.2937 77.9755 44.5238C78.3403 44.7538 78.6238 45.0767 78.8259 45.4926C79.0304 45.9085 79.1326 46.3953 79.1326 46.9529C79.1326 47.5058 79.0304 47.9891 78.8259 48.4027C78.6238 48.8163 78.3403 49.138 77.9755 49.3681C77.6131 49.5981 77.1902 49.7131 76.707 49.7131ZM76.707 48.9742C77.0741 48.9742 77.3761 48.8801 77.6131 48.6919C77.8501 48.5038 78.0255 48.2563 78.1393 47.9496C78.2532 47.6429 78.3101 47.3107 78.3101 46.9529C78.3101 46.5951 78.2532 46.2617 78.1393 45.9527C78.0255 45.6436 77.8501 45.3939 77.6131 45.2034C77.3761 45.0128 77.0741 44.9176 76.707 44.9176C76.3399 44.9176 76.0378 45.0128 75.8008 45.2034C75.5638 45.3939 75.3884 45.6436 75.2746 45.9527C75.1607 46.2617 75.1038 46.5951 75.1038 46.9529C75.1038 47.3107 75.1607 47.6429 75.2746 47.9496C75.3884 48.2563 75.5638 48.5038 75.8008 48.6919C76.0378 48.8801 76.3399 48.9742 76.707 48.9742ZM80.3881 49.6016V44.2484H81.1827V45.0849H81.2524C81.3639 44.7991 81.544 44.5772 81.7926 44.4192C82.0412 44.2589 82.3398 44.1787 82.6883 44.1787C83.0414 44.1787 83.3353 44.2589 83.57 44.4192C83.807 44.5772 83.9917 44.7991 84.1241 45.0849H84.1799C84.317 44.8084 84.5226 44.5888 84.7968 44.4262C85.0709 44.2612 85.3997 44.1787 85.7831 44.1787C86.2617 44.1787 86.6532 44.3286 86.9575 44.6283C87.2619 44.9257 87.4141 45.3892 87.4141 46.0189V49.6016H86.5916V46.0189C86.5916 45.6239 86.4836 45.3416 86.2675 45.172C86.0514 45.0024 85.797 44.9176 85.5042 44.9176C85.1279 44.9176 84.8363 45.0314 84.6295 45.2591C84.4227 45.4845 84.3193 45.7703 84.3193 46.1165V49.6016H83.4829V45.9352C83.4829 45.6309 83.3841 45.3857 83.1866 45.1999C82.9892 45.0117 82.7347 44.9176 82.4234 44.9176C82.2097 44.9176 82.0098 44.9745 81.824 45.0883C81.6404 45.2022 81.4917 45.3602 81.3779 45.5623C81.2664 45.7621 81.2106 45.9933 81.2106 46.2559V49.6016H80.3881ZM88.9179 51.609V44.2484H89.7125V45.0988H89.8101C89.8705 45.0059 89.9542 44.8874 90.061 44.7433C90.1702 44.5969 90.3259 44.4668 90.528 44.353C90.7325 44.2368 91.009 44.1787 91.3575 44.1787C91.8082 44.1787 92.2055 44.2914 92.5494 44.5168C92.8933 44.7422 93.1616 45.0616 93.3545 45.4752C93.5473 45.8888 93.6437 46.3767 93.6437 46.9389C93.6437 47.5058 93.5473 47.9973 93.3545 48.4131C93.1616 48.8267 92.8944 49.1473 92.5529 49.375C92.2113 49.6004 91.8175 49.7131 91.3714 49.7131C91.0276 49.7131 90.7522 49.6562 90.5455 49.5423C90.3387 49.4261 90.1795 49.2949 90.068 49.1485C89.9565 48.9998 89.8705 48.8767 89.8101 48.7791H89.7404V51.609H88.9179ZM89.7265 46.925C89.7265 47.3293 89.7857 47.6859 89.9042 47.9949C90.0227 48.3016 90.1958 48.5421 90.4235 48.7163C90.6512 48.8883 90.93 48.9742 91.2599 48.9742C91.6038 48.9742 91.8907 48.8836 92.1207 48.7024C92.3531 48.5189 92.5273 48.2726 92.6435 47.9636C92.762 47.6522 92.8212 47.306 92.8212 46.925C92.8212 46.5486 92.7632 46.2094 92.647 45.9073C92.5331 45.603 92.36 45.3625 92.1277 45.1859C91.8977 45.007 91.6084 44.9176 91.2599 44.9176C90.9253 44.9176 90.6442 45.0024 90.4165 45.172C90.1888 45.3393 90.0169 45.5739 89.9007 45.876C89.7845 46.1757 89.7265 46.5254 89.7265 46.925ZM95.7208 42.4641V49.6016H94.8984V42.4641H95.7208ZM99.4717 49.7131C98.9559 49.7131 98.511 49.5992 98.1369 49.3715C97.7652 49.1415 97.4782 48.8209 97.2761 48.4097C97.0763 47.9961 96.9764 47.5151 96.9764 46.9668C96.9764 46.4185 97.0763 45.9352 97.2761 45.517C97.4782 45.0965 97.7593 44.7689 98.1195 44.5342C98.4819 44.2972 98.9048 44.1787 99.3881 44.1787C99.6669 44.1787 99.9422 44.2252 100.214 44.3181C100.486 44.4111 100.733 44.5621 100.956 44.7712C101.179 44.978 101.357 45.2521 101.49 45.5937C101.622 45.9352 101.688 46.3558 101.688 46.8553V47.2038H97.5619V46.4928H100.852C100.852 46.1908 100.791 45.9213 100.671 45.6843C100.552 45.4473 100.382 45.2603 100.162 45.1232C99.9433 44.9861 99.6855 44.9176 99.3881 44.9176C99.0605 44.9176 98.777 44.9989 98.5377 45.1615C98.3007 45.3218 98.1183 45.531 97.9905 45.7889C97.8627 46.0468 97.7988 46.3232 97.7988 46.6183V47.0923C97.7988 47.4966 97.8685 47.8393 98.008 48.1204C98.1497 48.3992 98.346 48.6118 98.5969 48.7582C98.8479 48.9022 99.1395 48.9742 99.4717 48.9742C99.6878 48.9742 99.8829 48.944 100.057 48.8836C100.234 48.8209 100.386 48.728 100.514 48.6048C100.642 48.4794 100.74 48.3237 100.81 48.1378L101.605 48.3609C101.521 48.6304 101.38 48.8674 101.183 49.0718C100.985 49.274 100.741 49.432 100.451 49.5458C100.161 49.6573 99.8341 49.7131 99.4717 49.7131ZM105.267 44.2484V44.9455H102.493V44.2484H105.267ZM103.302 42.9659H104.124V48.0681C104.124 48.3005 104.158 48.4747 104.225 48.5909C104.295 48.7047 104.383 48.7814 104.49 48.8209C104.599 48.8581 104.714 48.8767 104.835 48.8767C104.926 48.8767 105 48.872 105.058 48.8627C105.116 48.8511 105.163 48.8418 105.198 48.8348L105.365 49.5737C105.309 49.5946 105.231 49.6155 105.132 49.6364C105.032 49.6596 104.905 49.6713 104.752 49.6713C104.519 49.6713 104.292 49.6213 104.069 49.5214C103.848 49.4215 103.664 49.2693 103.518 49.0649C103.374 48.8604 103.302 48.6025 103.302 48.2912V42.9659ZM108.692 49.7131C108.176 49.7131 107.731 49.5992 107.357 49.3715C106.985 49.1415 106.698 48.8209 106.496 48.4097C106.296 47.9961 106.196 47.5151 106.196 46.9668C106.196 46.4185 106.296 45.9352 106.496 45.517C106.698 45.0965 106.979 44.7689 107.339 44.5342C107.702 44.2972 108.125 44.1787 108.608 44.1787C108.887 44.1787 109.162 44.2252 109.434 44.3181C109.706 44.4111 109.953 44.5621 110.176 44.7712C110.399 44.978 110.577 45.2521 110.709 45.5937C110.842 45.9352 110.908 46.3558 110.908 46.8553V47.2038H106.782V46.4928H110.072C110.072 46.1908 110.011 45.9213 109.89 45.6843C109.772 45.4473 109.602 45.2603 109.382 45.1232C109.163 44.9861 108.905 44.9176 108.608 44.9176C108.28 44.9176 107.997 44.9989 107.758 45.1615C107.521 45.3218 107.338 45.531 107.21 45.7889C107.083 46.0468 107.019 46.3232 107.019 46.6183V47.0923C107.019 47.4966 107.088 47.8393 107.228 48.1204C107.37 48.3992 107.566 48.6118 107.817 48.7582C108.068 48.9022 108.359 48.9742 108.692 48.9742C108.908 48.9742 109.103 48.944 109.277 48.8836C109.454 48.8209 109.606 48.728 109.734 48.6048C109.861 48.4794 109.96 48.3237 110.03 48.1378L110.824 48.3609C110.741 48.6304 110.6 48.8674 110.403 49.0718C110.205 49.274 109.961 49.432 109.671 49.5458C109.38 49.6573 109.054 49.7131 108.692 49.7131ZM116.495 49.727C116.156 49.727 115.848 49.6631 115.571 49.5353C115.295 49.4052 115.075 49.2182 114.912 48.9742C114.75 48.728 114.669 48.4306 114.669 48.0821C114.669 47.7754 114.729 47.5268 114.85 47.3362C114.971 47.1434 115.132 46.9924 115.334 46.8832C115.536 46.774 115.759 46.6927 116.003 46.6392C116.25 46.5835 116.497 46.5393 116.746 46.5068C117.071 46.465 117.335 46.4336 117.537 46.4127C117.741 46.3895 117.89 46.3511 117.983 46.2977C118.078 46.2442 118.126 46.1513 118.126 46.0189V45.991C118.126 45.6471 118.032 45.3799 117.843 45.1894C117.658 44.9989 117.375 44.9036 116.997 44.9036C116.604 44.9036 116.296 44.9896 116.073 45.1615C115.85 45.3335 115.693 45.517 115.603 45.7122L114.822 45.4334C114.961 45.1081 115.147 44.8548 115.379 44.6736C115.614 44.4901 115.87 44.3623 116.146 44.2903C116.425 44.2159 116.699 44.1787 116.969 44.1787C117.141 44.1787 117.338 44.1996 117.561 44.2415C117.787 44.281 118.004 44.3634 118.213 44.4889C118.424 44.6144 118.6 44.8037 118.739 45.057C118.879 45.3102 118.948 45.6494 118.948 46.0746V49.6016H118.126V48.8767H118.084C118.028 48.9928 117.935 49.1171 117.805 49.2496C117.675 49.382 117.502 49.4947 117.286 49.5876C117.07 49.6806 116.806 49.727 116.495 49.727ZM116.62 48.9882C116.945 48.9882 117.22 48.9243 117.443 48.7965C117.668 48.6687 117.838 48.5038 117.951 48.3016C118.068 48.0995 118.126 47.8869 118.126 47.6638V46.9111C118.091 46.9529 118.014 46.9912 117.896 47.0261C117.78 47.0586 117.645 47.0876 117.491 47.1132C117.34 47.1364 117.193 47.1573 117.049 47.1759C116.907 47.1922 116.792 47.2061 116.704 47.2177C116.49 47.2456 116.29 47.2909 116.104 47.3537C115.921 47.4141 115.772 47.5058 115.658 47.629C115.547 47.7498 115.491 47.9148 115.491 48.1239C115.491 48.4097 115.597 48.6257 115.808 48.7721C116.022 48.9162 116.293 48.9882 116.62 48.9882ZM121.272 42.4641V49.6016H120.449V42.4641H121.272ZM123.601 42.4641V49.6016H122.778V42.4641H123.601ZM127.867 49.6016V44.2484H128.69V49.6016H127.867ZM128.286 43.3562C128.125 43.3562 127.987 43.3016 127.871 43.1924C127.757 43.0832 127.7 42.952 127.7 42.7986C127.7 42.6453 127.757 42.514 127.871 42.4048C127.987 42.2956 128.125 42.241 128.286 42.241C128.446 42.241 128.583 42.2956 128.697 42.4048C128.813 42.514 128.871 42.6453 128.871 42.7986C128.871 42.952 128.813 43.0832 128.697 43.1924C128.583 43.3016 128.446 43.3562 128.286 43.3562ZM131.019 46.3813V49.6016H130.196V44.2484H130.991V45.0849H131.061C131.186 44.813 131.377 44.5946 131.632 44.4297C131.888 44.2624 132.218 44.1787 132.622 44.1787C132.985 44.1787 133.302 44.2531 133.573 44.4018C133.845 44.5482 134.057 44.7712 134.208 45.0709C134.359 45.3683 134.434 45.7447 134.434 46.2001V49.6016H133.612V46.2559C133.612 45.8353 133.503 45.5077 133.284 45.2731C133.066 45.0361 132.766 44.9176 132.385 44.9176C132.123 44.9176 131.888 44.9745 131.681 45.0883C131.477 45.2022 131.315 45.3683 131.197 45.5867C131.078 45.8051 131.019 46.07 131.019 46.3813ZM138.321 44.2484V44.9455H135.435V44.2484H138.321ZM136.3 49.6016V43.5096C136.3 43.2029 136.372 42.9473 136.516 42.7429C136.66 42.5384 136.847 42.3851 137.077 42.2828C137.307 42.1806 137.55 42.1295 137.805 42.1295C138.007 42.1295 138.172 42.1458 138.3 42.1783C138.428 42.2108 138.523 42.241 138.586 42.2689L138.349 42.9799C138.307 42.9659 138.249 42.9485 138.175 42.9276C138.103 42.9067 138.007 42.8962 137.889 42.8962C137.617 42.8962 137.421 42.9648 137.3 43.1018C137.181 43.2389 137.122 43.4399 137.122 43.7048V49.6016H136.3ZM141.428 49.7131C140.945 49.7131 140.521 49.5981 140.156 49.3681C139.794 49.138 139.51 48.8163 139.306 48.4027C139.103 47.9891 139.002 47.5058 139.002 46.9529C139.002 46.3953 139.103 45.9085 139.306 45.4926C139.51 45.0767 139.794 44.7538 140.156 44.5238C140.521 44.2937 140.945 44.1787 141.428 44.1787C141.911 44.1787 142.334 44.2937 142.697 44.5238C143.061 44.7538 143.345 45.0767 143.547 45.4926C143.751 45.9085 143.854 46.3953 143.854 46.9529C143.854 47.5058 143.751 47.9891 143.547 48.4027C143.345 48.8163 143.061 49.138 142.697 49.3681C142.334 49.5981 141.911 49.7131 141.428 49.7131ZM141.428 48.9742C141.795 48.9742 142.097 48.8801 142.334 48.6919C142.571 48.5038 142.747 48.2563 142.86 47.9496C142.974 47.6429 143.031 47.3107 143.031 46.9529C143.031 46.5951 142.974 46.2617 142.86 45.9527C142.747 45.6436 142.571 45.3939 142.334 45.2034C142.097 45.0128 141.795 44.9176 141.428 44.9176C141.061 44.9176 140.759 45.0128 140.522 45.2034C140.285 45.3939 140.11 45.6436 139.996 45.9527C139.882 46.2617 139.825 46.5951 139.825 46.9529C139.825 47.3107 139.882 47.6429 139.996 47.9496C140.11 48.2563 140.285 48.5038 140.522 48.6919C140.759 48.8801 141.061 48.9742 141.428 48.9742ZM145.109 49.6016V44.2484H145.904V45.057H145.96C146.057 44.7921 146.234 44.5772 146.489 44.4122C146.745 44.2473 147.033 44.1648 147.354 44.1648C147.414 44.1648 147.49 44.166 147.58 44.1683C147.671 44.1706 147.739 44.1741 147.786 44.1787V45.0152C147.758 45.0082 147.694 44.9977 147.594 44.9838C147.497 44.9675 147.393 44.9594 147.284 44.9594C147.024 44.9594 146.791 45.014 146.587 45.1232C146.385 45.2301 146.224 45.3788 146.106 45.5693C145.99 45.7575 145.932 45.9724 145.932 46.214V49.6016H145.109ZM148.761 49.6016V44.2484H149.555V45.0849H149.625C149.737 44.7991 149.917 44.5772 150.165 44.4192C150.414 44.2589 150.712 44.1787 151.061 44.1787C151.414 44.1787 151.708 44.2589 151.943 44.4192C152.18 44.5772 152.364 44.7991 152.497 45.0849H152.553C152.69 44.8084 152.895 44.5888 153.169 44.4262C153.444 44.2612 153.772 44.1787 154.156 44.1787C154.634 44.1787 155.026 44.3286 155.33 44.6283C155.635 44.9257 155.787 45.3892 155.787 46.0189V49.6016H154.964V46.0189C154.964 45.6239 154.856 45.3416 154.64 45.172C154.424 45.0024 154.17 44.9176 153.877 44.9176C153.5 44.9176 153.209 45.0314 153.002 45.2591C152.795 45.4845 152.692 45.7703 152.692 46.1165V49.6016H151.856V45.9352C151.856 45.6309 151.757 45.3857 151.559 45.1999C151.362 45.0117 151.107 44.9176 150.796 44.9176C150.582 44.9176 150.382 44.9745 150.197 45.0883C150.013 45.2022 149.864 45.3602 149.751 45.5623C149.639 45.7621 149.583 45.9933 149.583 46.2559V49.6016H148.761ZM158.866 49.727C158.527 49.727 158.219 49.6631 157.942 49.5353C157.666 49.4052 157.446 49.2182 157.284 48.9742C157.121 48.728 157.04 48.4306 157.04 48.0821C157.04 47.7754 157.1 47.5268 157.221 47.3362C157.342 47.1434 157.503 46.9924 157.705 46.8832C157.907 46.774 158.13 46.6927 158.374 46.6392C158.621 46.5835 158.868 46.5393 159.117 46.5068C159.442 46.465 159.706 46.4336 159.908 46.4127C160.112 46.3895 160.261 46.3511 160.354 46.2977C160.449 46.2442 160.497 46.1513 160.497 46.0189V45.991C160.497 45.6471 160.403 45.3799 160.215 45.1894C160.029 44.9989 159.746 44.9036 159.368 44.9036C158.975 44.9036 158.667 44.9896 158.444 45.1615C158.221 45.3335 158.064 45.517 157.974 45.7122L157.193 45.4334C157.332 45.1081 157.518 44.8548 157.751 44.6736C157.985 44.4901 158.241 44.3623 158.517 44.2903C158.796 44.2159 159.07 44.1787 159.34 44.1787C159.512 44.1787 159.709 44.1996 159.932 44.2415C160.158 44.281 160.375 44.3634 160.584 44.4889C160.795 44.6144 160.971 44.8037 161.11 45.057C161.25 45.3102 161.319 45.6494 161.319 46.0746V49.6016H160.497V48.8767H160.455C160.399 48.9928 160.306 49.1171 160.176 49.2496C160.046 49.382 159.873 49.4947 159.657 49.5876C159.441 49.6806 159.177 49.727 158.866 49.727ZM158.991 48.9882C159.317 48.9882 159.591 48.9243 159.814 48.7965C160.039 48.6687 160.209 48.5038 160.323 48.3016C160.439 48.0995 160.497 47.8869 160.497 47.6638V46.9111C160.462 46.9529 160.385 46.9912 160.267 47.0261C160.151 47.0586 160.016 47.0876 159.863 47.1132C159.712 47.1364 159.564 47.1573 159.42 47.1759C159.278 47.1922 159.163 47.2061 159.075 47.2177C158.861 47.2456 158.661 47.2909 158.475 47.3537C158.292 47.4141 158.143 47.5058 158.029 47.629C157.918 47.7498 157.862 47.9148 157.862 48.1239C157.862 48.4097 157.968 48.6257 158.179 48.7721C158.393 48.9162 158.664 48.9882 158.991 48.9882ZM165.149 44.2484V44.9455H162.374V44.2484H165.149ZM163.183 42.9659H164.005V48.0681C164.005 48.3005 164.039 48.4747 164.107 48.5909C164.176 48.7047 164.265 48.7814 164.371 48.8209C164.481 48.8581 164.596 48.8767 164.716 48.8767C164.807 48.8767 164.881 48.872 164.939 48.8627C164.998 48.8511 165.044 48.8418 165.079 48.8348L165.246 49.5737C165.19 49.5946 165.113 49.6155 165.013 49.6364C164.913 49.6596 164.786 49.6713 164.633 49.6713C164.4 49.6713 164.173 49.6213 163.95 49.5214C163.729 49.4215 163.545 49.2693 163.399 49.0649C163.255 48.8604 163.183 48.6025 163.183 48.2912V42.9659ZM166.386 49.6016V44.2484H167.208V49.6016H166.386ZM166.804 43.3562C166.644 43.3562 166.505 43.3016 166.389 43.1924C166.275 43.0832 166.219 42.952 166.219 42.7986C166.219 42.6453 166.275 42.514 166.389 42.4048C166.505 42.2956 166.644 42.241 166.804 42.241C166.964 42.241 167.101 42.2956 167.215 42.4048C167.331 42.514 167.39 42.6453 167.39 42.7986C167.39 42.952 167.331 43.0832 167.215 43.1924C167.101 43.3016 166.964 43.3562 166.804 43.3562ZM170.889 49.7131C170.406 49.7131 169.982 49.5981 169.617 49.3681C169.255 49.138 168.971 48.8163 168.767 48.4027C168.565 47.9891 168.464 47.5058 168.464 46.9529C168.464 46.3953 168.565 45.9085 168.767 45.4926C168.971 45.0767 169.255 44.7538 169.617 44.5238C169.982 44.2937 170.406 44.1787 170.889 44.1787C171.373 44.1787 171.796 44.2937 172.158 44.5238C172.523 44.7538 172.806 45.0767 173.008 45.4926C173.213 45.9085 173.315 46.3953 173.315 46.9529C173.315 47.5058 173.213 47.9891 173.008 48.4027C172.806 48.8163 172.523 49.138 172.158 49.3681C171.796 49.5981 171.373 49.7131 170.889 49.7131ZM170.889 48.9742C171.257 48.9742 171.559 48.8801 171.796 48.6919C172.033 48.5038 172.208 48.2563 172.322 47.9496C172.436 47.6429 172.493 47.3107 172.493 46.9529C172.493 46.5951 172.436 46.2617 172.322 45.9527C172.208 45.6436 172.033 45.3939 171.796 45.2034C171.559 45.0128 171.257 44.9176 170.889 44.9176C170.522 44.9176 170.22 45.0128 169.983 45.2034C169.746 45.3939 169.571 45.6436 169.457 45.9527C169.343 46.2617 169.286 46.5951 169.286 46.9529C169.286 47.3107 169.343 47.6429 169.457 47.9496C169.571 48.2563 169.746 48.5038 169.983 48.6919C170.22 48.8801 170.522 48.9742 170.889 48.9742ZM175.393 46.3813V49.6016H174.571V44.2484H175.365V45.0849H175.435C175.56 44.813 175.751 44.5946 176.006 44.4297C176.262 44.2624 176.592 44.1787 176.996 44.1787C177.359 44.1787 177.676 44.2531 177.948 44.4018C178.22 44.5482 178.431 44.7712 178.582 45.0709C178.733 45.3683 178.808 45.7447 178.808 46.2001V49.6016H177.986V46.2559C177.986 45.8353 177.877 45.5077 177.658 45.2731C177.44 45.0361 177.14 44.9176 176.759 44.9176C176.497 44.9176 176.262 44.9745 176.055 45.0883C175.851 45.2022 175.689 45.3683 175.571 45.5867C175.452 45.8051 175.393 46.07 175.393 46.3813ZM183.183 49.6016V42.4641H184.006V45.0988H184.075C184.136 45.0059 184.219 44.8874 184.326 44.7433C184.435 44.5969 184.591 44.4668 184.793 44.353C184.998 44.2368 185.274 44.1787 185.623 44.1787C186.073 44.1787 186.471 44.2914 186.815 44.5168C187.159 44.7422 187.427 45.0616 187.62 45.4752C187.813 45.8888 187.909 46.3767 187.909 46.9389C187.909 47.5058 187.813 47.9973 187.62 48.4131C187.427 48.8267 187.16 49.1473 186.818 49.375C186.477 49.6004 186.083 49.7131 185.637 49.7131C185.293 49.7131 185.017 49.6562 184.811 49.5423C184.604 49.4261 184.445 49.2949 184.333 49.1485C184.222 48.9998 184.136 48.8767 184.075 48.7791H183.978V49.6016H183.183ZM183.992 46.925C183.992 47.3293 184.051 47.6859 184.169 47.9949C184.288 48.3016 184.461 48.5421 184.689 48.7163C184.916 48.8883 185.195 48.9742 185.525 48.9742C185.869 48.9742 186.156 48.8836 186.386 48.7024C186.618 48.5189 186.793 48.2726 186.909 47.9636C187.027 47.6522 187.086 47.306 187.086 46.925C187.086 46.5486 187.028 46.2094 186.912 45.9073C186.798 45.603 186.625 45.3625 186.393 45.1859C186.163 45.007 185.874 44.9176 185.525 44.9176C185.191 44.9176 184.909 45.0024 184.682 45.172C184.454 45.3393 184.282 45.5739 184.166 45.876C184.05 46.1757 183.992 46.5254 183.992 46.925ZM191.412 49.7131C190.896 49.7131 190.451 49.5992 190.077 49.3715C189.705 49.1415 189.418 48.8209 189.216 48.4097C189.016 47.9961 188.916 47.5151 188.916 46.9668C188.916 46.4185 189.016 45.9352 189.216 45.517C189.418 45.0965 189.699 44.7689 190.059 44.5342C190.422 44.2972 190.845 44.1787 191.328 44.1787C191.607 44.1787 191.882 44.2252 192.154 44.3181C192.426 44.4111 192.673 44.5621 192.896 44.7712C193.119 44.978 193.297 45.2521 193.429 45.5937C193.562 45.9352 193.628 46.3558 193.628 46.8553V47.2038H189.502V46.4928H192.792C192.792 46.1908 192.731 45.9213 192.61 45.6843C192.492 45.4473 192.322 45.2603 192.102 45.1232C191.883 44.9861 191.625 44.9176 191.328 44.9176C191 44.9176 190.717 44.9989 190.477 45.1615C190.241 45.3218 190.058 45.531 189.93 45.7889C189.803 46.0468 189.739 46.3232 189.739 46.6183V47.0923C189.739 47.4966 189.808 47.8393 189.948 48.1204C190.089 48.3992 190.286 48.6118 190.537 48.7582C190.788 48.9022 191.079 48.9742 191.412 48.9742C191.628 48.9742 191.823 48.944 191.997 48.8836C192.174 48.8209 192.326 48.728 192.454 48.6048C192.581 48.4794 192.68 48.3237 192.75 48.1378L193.544 48.3609C193.461 48.6304 193.32 48.8674 193.123 49.0718C192.925 49.274 192.681 49.432 192.391 49.5458C192.1 49.6573 191.774 49.7131 191.412 49.7131ZM195.702 42.4641V49.6016H194.879V42.4641H195.702ZM199.383 49.7131C198.9 49.7131 198.476 49.5981 198.111 49.3681C197.748 49.138 197.465 48.8163 197.26 48.4027C197.058 47.9891 196.957 47.5058 196.957 46.9529C196.957 46.3953 197.058 45.9085 197.26 45.4926C197.465 45.0767 197.748 44.7538 198.111 44.5238C198.476 44.2937 198.9 44.1787 199.383 44.1787C199.866 44.1787 200.289 44.2937 200.651 44.5238C201.016 44.7538 201.3 45.0767 201.502 45.4926C201.706 45.9085 201.808 46.3953 201.808 46.9529C201.808 47.5058 201.706 47.9891 201.502 48.4027C201.3 48.8163 201.016 49.138 200.651 49.3681C200.289 49.5981 199.866 49.7131 199.383 49.7131ZM199.383 48.9742C199.75 48.9742 200.052 48.8801 200.289 48.6919C200.526 48.5038 200.701 48.2563 200.815 47.9496C200.929 47.6429 200.986 47.3107 200.986 46.9529C200.986 46.5951 200.929 46.2617 200.815 45.9527C200.701 45.6436 200.526 45.3939 200.289 45.2034C200.052 45.0128 199.75 44.9176 199.383 44.9176C199.016 44.9176 198.714 45.0128 198.477 45.2034C198.24 45.3939 198.064 45.6436 197.95 45.9527C197.837 46.2617 197.78 46.5951 197.78 46.9529C197.78 47.3107 197.837 47.6429 197.95 47.9496C198.064 48.2563 198.24 48.5038 198.477 48.6919C198.714 48.8801 199.016 48.9742 199.383 48.9742ZM204.095 49.6016L202.464 44.2484H203.328L204.485 48.3469H204.541L205.684 44.2484H206.562L207.691 48.333H207.747L208.904 44.2484H209.768L208.137 49.6016H207.329L206.158 45.4891H206.074L204.903 49.6016H204.095Z" fill="#000824"/>
<path d="M24.9043 67.874H220.096C225.967 67.8741 230.727 72.6342 230.728 78.5059V182.145C230.727 188.016 225.967 192.776 220.096 192.776H24.9043C19.0326 192.776 14.2726 188.016 14.2725 182.145V78.5059C14.2726 72.6342 19.0326 67.8741 24.9043 67.874Z" fill="white"/>
<path d="M24.9043 67.874H220.096C225.967 67.8741 230.727 72.6342 230.728 78.5059V182.145C230.727 188.016 225.967 192.776 220.096 192.776H24.9043C19.0326 192.776 14.2726 188.016 14.2725 182.145V78.5059C14.2726 72.6342 19.0326 67.8741 24.9043 67.874Z" stroke="#D8DFEB" stroke-width="0.545226"/>
<path d="M40.7404 87.2571H41.5087V91.4578C41.5087 91.8915 41.4065 92.2788 41.202 92.6195C40.9996 92.9582 40.7136 93.2257 40.3439 93.4219C39.9742 93.616 39.5405 93.7131 39.0428 93.7131C38.5451 93.7131 38.1113 93.616 37.7417 93.4219C37.372 93.2257 37.0849 92.9582 36.8805 92.6195C36.6781 92.2788 36.5769 91.8915 36.5769 91.4578V87.2571H37.3451V91.3959C37.3451 91.7057 37.4133 91.9814 37.5496 92.223C37.6859 92.4626 37.88 92.6515 38.132 92.7899C38.386 92.9262 38.6896 92.9944 39.0428 92.9944C39.3959 92.9944 39.6995 92.9262 39.9536 92.7899C40.2076 92.6515 40.4017 92.4626 40.536 92.223C40.6723 91.9814 40.7404 91.7057 40.7404 91.3959V87.2571ZM46.3143 89.9089L45.6575 90.0948C45.6162 89.9853 45.5553 89.8789 45.4747 89.7757C45.3963 89.6704 45.2889 89.5836 45.1526 89.5155C45.0163 89.4473 44.8417 89.4132 44.629 89.4132C44.3378 89.4132 44.0952 89.4804 43.901 89.6146C43.709 89.7468 43.6129 89.9151 43.6129 90.1196C43.6129 90.3013 43.679 90.4448 43.8112 90.5502C43.9434 90.6555 44.1499 90.7433 44.4308 90.8135L45.1371 90.987C45.5625 91.0902 45.8795 91.2482 46.0881 91.4609C46.2967 91.6716 46.401 91.9432 46.401 92.2757C46.401 92.5483 46.3225 92.792 46.1656 93.0068C46.0107 93.2216 45.7938 93.3909 45.515 93.5148C45.2362 93.6387 44.912 93.7007 44.5423 93.7007C44.0569 93.7007 43.6553 93.5954 43.3372 93.3847C43.0192 93.1741 42.8178 92.8663 42.7331 92.4615L43.427 92.2881C43.4931 92.5442 43.6181 92.7362 43.8019 92.8643C43.9878 92.9923 44.2304 93.0563 44.5299 93.0563C44.8707 93.0563 45.1412 92.9841 45.3415 92.8395C45.5439 92.6929 45.6451 92.5173 45.6451 92.3128C45.6451 92.1476 45.5873 92.0093 45.4716 91.8977C45.356 91.7841 45.1784 91.6995 44.9388 91.6437L44.1458 91.4578C43.71 91.3546 43.3899 91.1945 43.1854 90.9777C42.983 90.7587 42.8818 90.4851 42.8818 90.1567C42.8818 89.8882 42.9572 89.6507 43.108 89.4442C43.2608 89.2377 43.4683 89.0756 43.7306 88.9578C43.995 88.8401 44.2944 88.7813 44.629 88.7813C45.0999 88.7813 45.4696 88.8845 45.7381 89.0911C46.0086 89.2976 46.2007 89.5702 46.3143 89.9089ZM49.4966 93.7007C49.0381 93.7007 48.6426 93.5995 48.3101 93.3971C47.9796 93.1926 47.7246 92.9076 47.5449 92.5421C47.3673 92.1745 47.2785 91.747 47.2785 91.2596C47.2785 90.7722 47.3673 90.3426 47.5449 89.9709C47.7246 89.597 47.9745 89.3058 48.2946 89.0973C48.6168 88.8866 48.9926 88.7813 49.4222 88.7813C49.67 88.7813 49.9148 88.8226 50.1564 88.9052C50.398 88.9878 50.618 89.122 50.8163 89.3079C51.0145 89.4917 51.1725 89.7354 51.2902 90.039C51.4079 90.3426 51.4668 90.7164 51.4668 91.1604V91.4702H47.7989V90.8383H50.7233C50.7233 90.5698 50.6696 90.3302 50.5622 90.1196C50.4569 89.9089 50.3061 89.7426 50.1099 89.6208C49.9158 89.4989 49.6866 89.438 49.4222 89.438C49.131 89.438 48.879 89.5103 48.6663 89.6549C48.4557 89.7974 48.2935 89.9832 48.18 90.2125C48.0664 90.4417 48.0096 90.6875 48.0096 90.9498V91.3711C48.0096 91.7304 48.0715 92.0351 48.1954 92.285C48.3214 92.5328 48.4959 92.7218 48.719 92.8519C48.942 92.9799 49.2012 93.0439 49.4966 93.0439C49.6886 93.0439 49.8621 93.0171 50.017 92.9634C50.174 92.9076 50.3092 92.825 50.4228 92.7156C50.5364 92.604 50.6242 92.4657 50.6861 92.3005L51.3925 92.4987C51.3181 92.7383 51.1932 92.9489 51.0176 93.1307C50.8421 93.3104 50.6252 93.4508 50.3671 93.552C50.1089 93.6511 49.8187 93.7007 49.4966 93.7007ZM52.5789 93.6016V88.8432H53.2853V89.5619H53.3348C53.4216 89.3265 53.5785 89.1355 53.8057 88.9888C54.0329 88.8422 54.289 88.7689 54.574 88.7689C54.6277 88.7689 54.6948 88.7699 54.7753 88.772C54.8559 88.774 54.9168 88.7771 54.9581 88.7813V89.5248C54.9333 89.5186 54.8765 89.5093 54.7877 89.4969C54.701 89.4824 54.6091 89.4752 54.512 89.4752C54.2807 89.4752 54.0742 89.5237 53.8924 89.6208C53.7128 89.7158 53.5703 89.848 53.4649 90.0173C53.3617 90.1846 53.31 90.3756 53.31 90.5904V93.6016H52.5789ZM56.5558 90.7391V93.6016H55.8247V88.8432H56.5311V89.5867H56.593C56.7045 89.3451 56.8739 89.1509 57.1011 89.0043C57.3282 88.8556 57.6215 88.7813 57.9809 88.7813C58.303 88.7813 58.5849 88.8474 58.8266 88.9795C59.0682 89.1096 59.2562 89.3079 59.3904 89.5743C59.5246 89.8387 59.5918 90.1732 59.5918 90.578V93.6016H58.8607V90.6276C58.8607 90.2538 58.7636 89.9626 58.5695 89.754C58.3753 89.5433 58.1089 89.438 57.7702 89.438C57.5368 89.438 57.3282 89.4886 57.1444 89.5898C56.9627 89.691 56.8192 89.8387 56.7138 90.0328C56.6085 90.2269 56.5558 90.4624 56.5558 90.7391ZM62.328 93.7131C62.0264 93.7131 61.7528 93.6563 61.507 93.5427C61.2613 93.427 61.0661 93.2608 60.9215 93.0439C60.777 92.825 60.7047 92.5607 60.7047 92.2509C60.7047 91.9783 60.7584 91.7573 60.8658 91.5879C60.9732 91.4165 61.1167 91.2823 61.2964 91.1852C61.476 91.0882 61.6743 91.0159 61.8912 90.9684C62.1101 90.9188 62.33 90.8796 62.551 90.8506C62.8401 90.8135 63.0745 90.7856 63.2542 90.767C63.436 90.7464 63.5681 90.7123 63.6507 90.6648C63.7354 90.6173 63.7778 90.5347 63.7778 90.4169V90.3922C63.7778 90.0865 63.6941 89.849 63.5268 89.6797C63.3616 89.5103 63.1107 89.4256 62.7741 89.4256C62.425 89.4256 62.1514 89.502 61.9531 89.6549C61.7548 89.8077 61.6154 89.9709 61.5349 90.1443L60.841 89.8965C60.9649 89.6074 61.1301 89.3823 61.3366 89.2212C61.5452 89.058 61.7724 88.9444 62.0182 88.8804C62.266 88.8143 62.5097 88.7813 62.7493 88.7813C62.9021 88.7813 63.0776 88.7999 63.2759 88.837C63.4762 88.8721 63.6693 88.9455 63.8552 89.057C64.0431 89.1685 64.1991 89.3368 64.323 89.5619C64.4469 89.787 64.5089 90.0886 64.5089 90.4665V93.6016H63.7778V92.9572H63.7406C63.691 93.0605 63.6084 93.171 63.4928 93.2887C63.3771 93.4064 63.2232 93.5066 63.0312 93.5892C62.8391 93.6718 62.6047 93.7131 62.328 93.7131ZM62.4395 93.0563C62.7286 93.0563 62.9723 92.9995 63.1706 92.886C63.3709 92.7724 63.5217 92.6257 63.6229 92.4461C63.7261 92.2664 63.7778 92.0774 63.7778 91.8791V91.21C63.7468 91.2472 63.6786 91.2813 63.5733 91.3122C63.47 91.3411 63.3503 91.367 63.2139 91.3897C63.0797 91.4103 62.9486 91.4289 62.8205 91.4454C62.6945 91.4599 62.5923 91.4723 62.5138 91.4826C62.3238 91.5074 62.1462 91.5477 61.981 91.6034C61.8178 91.6571 61.6857 91.7387 61.5845 91.8482C61.4853 91.9556 61.4358 92.1022 61.4358 92.2881C61.4358 92.5421 61.5297 92.7342 61.7177 92.8643C61.9077 92.9923 62.1483 93.0563 62.4395 93.0563ZM65.8433 93.6016V88.8432H66.5496V89.5867H66.6115C66.7107 89.3327 66.8707 89.1355 67.0917 88.995C67.3127 88.8525 67.5781 88.7813 67.8879 88.7813C68.2018 88.7813 68.463 88.8525 68.6716 88.995C68.8823 89.1355 69.0465 89.3327 69.1642 89.5867H69.2138C69.3356 89.341 69.5184 89.1458 69.7621 89.0012C70.0058 88.8546 70.298 88.7813 70.6388 88.7813C71.0642 88.7813 71.4122 88.9145 71.6828 89.1809C71.9533 89.4452 72.0886 89.8573 72.0886 90.4169V93.6016H71.3575V90.4169C71.3575 90.0659 71.2615 89.8149 71.0694 89.6642C70.8773 89.5134 70.6512 89.438 70.391 89.438C70.0564 89.438 69.7972 89.5392 69.6134 89.7416C69.4296 89.9419 69.3377 90.196 69.3377 90.5037V93.6016H68.5942V90.3426C68.5942 90.072 68.5064 89.8542 68.3309 89.6889C68.1553 89.5217 67.9292 89.438 67.6524 89.438C67.4624 89.438 67.2848 89.4886 67.1196 89.5898C66.9564 89.691 66.8243 89.8314 66.7231 90.0111C66.6239 90.1887 66.5744 90.3942 66.5744 90.6276V93.6016H65.8433ZM75.4204 93.7007C74.9619 93.7007 74.5664 93.5995 74.2339 93.3971C73.9034 93.1926 73.6484 92.9076 73.4687 92.5421C73.2911 92.1745 73.2023 91.747 73.2023 91.2596C73.2023 90.7722 73.2911 90.3426 73.4687 89.9709C73.6484 89.597 73.8983 89.3058 74.2184 89.0973C74.5406 88.8866 74.9164 88.7813 75.346 88.7813C75.5938 88.7813 75.8386 88.8226 76.0802 88.9052C76.3218 88.9878 76.5418 89.122 76.74 89.3079C76.9383 89.4917 77.0963 89.7354 77.214 90.039C77.3317 90.3426 77.3906 90.7164 77.3906 91.1604V91.4702H73.7227V90.8383H76.6471C76.6471 90.5698 76.5934 90.3302 76.486 90.1196C76.3807 89.9089 76.2299 89.7426 76.0337 89.6208C75.8396 89.4989 75.6104 89.438 75.346 89.438C75.0548 89.438 74.8028 89.5103 74.5901 89.6549C74.3795 89.7974 74.2173 89.9832 74.1038 90.2125C73.9902 90.4417 73.9334 90.6875 73.9334 90.9498V91.3711C73.9334 91.7304 73.9953 92.0351 74.1192 92.285C74.2452 92.5328 74.4197 92.7218 74.6428 92.8519C74.8658 92.9799 75.125 93.0439 75.4204 93.0439C75.6124 93.0439 75.7859 93.0171 75.9408 92.9634C76.0978 92.9076 76.233 92.825 76.3466 92.7156C76.4602 92.604 76.548 92.4657 76.6099 92.3005L77.3163 92.4987C77.2419 92.7383 77.117 92.9489 76.9414 93.1307C76.7659 93.3104 76.549 93.4508 76.2909 93.552C76.0327 93.6511 75.7425 93.7007 75.4204 93.7007ZM82.8893 93.7007C82.4598 93.7007 82.0829 93.5985 81.7586 93.394C81.4364 93.1895 81.1845 92.9035 81.0027 92.5359C80.823 92.1683 80.7332 91.7387 80.7332 91.2472C80.7332 90.7515 80.823 90.3188 81.0027 89.9492C81.1845 89.5795 81.4364 89.2924 81.7586 89.088C82.0829 88.8835 82.4598 88.7813 82.8893 88.7813C83.3189 88.7813 83.6948 88.8835 84.017 89.088C84.3412 89.2924 84.5932 89.5795 84.7728 89.9492C84.9546 90.3188 85.0455 90.7515 85.0455 91.2472C85.0455 91.7387 84.9546 92.1683 84.7728 92.5359C84.5932 92.9035 84.3412 93.1895 84.017 93.394C83.6948 93.5985 83.3189 93.7007 82.8893 93.7007ZM82.8893 93.0439C83.2156 93.0439 83.4841 92.9603 83.6948 92.793C83.9054 92.6257 84.0614 92.4058 84.1626 92.1332C84.2638 91.8606 84.3144 91.5652 84.3144 91.2472C84.3144 90.9291 84.2638 90.6328 84.1626 90.3581C84.0614 90.0834 83.9054 89.8614 83.6948 89.692C83.4841 89.5227 83.2156 89.438 82.8893 89.438C82.563 89.438 82.2945 89.5227 82.0839 89.692C81.8732 89.8614 81.7173 90.0834 81.6161 90.3581C81.5149 90.6328 81.4643 90.9291 81.4643 91.2472C81.4643 91.5652 81.5149 91.8606 81.6161 92.1332C81.7173 92.4058 81.8732 92.6257 82.0839 92.793C82.2945 92.9603 82.563 93.0439 82.8893 93.0439ZM86.1615 93.6016V88.8432H86.8678V89.5619H86.9173C87.0041 89.3265 87.161 89.1355 87.3882 88.9888C87.6154 88.8422 87.8715 88.7689 88.1565 88.7689C88.2102 88.7689 88.2773 88.7699 88.3579 88.772C88.4384 88.774 88.4993 88.7771 88.5406 88.7813V89.5248C88.5158 89.5186 88.4591 89.5093 88.3702 89.4969C88.2835 89.4824 88.1916 89.4752 88.0945 89.4752C87.8632 89.4752 87.6567 89.5237 87.475 89.6208C87.2953 89.7158 87.1528 89.848 87.0475 90.0173C86.9442 90.1846 86.8926 90.3756 86.8926 90.5904V93.6016H86.1615ZM91.9599 93.6016V87.2571H95.7889V87.9386H92.7282V90.0824H95.5906V90.7639H92.7282V92.92H95.8385V93.6016H91.9599ZM97.0745 93.6016V88.8432H97.7808V89.5867H97.8428C97.9419 89.3327 98.102 89.1355 98.3229 88.995C98.5439 88.8525 98.8093 88.7813 99.1191 88.7813C99.433 88.7813 99.6943 88.8525 99.9029 88.995C100.114 89.1355 100.278 89.3327 100.395 89.5867H100.445C100.567 89.341 100.75 89.1458 100.993 89.0012C101.237 88.8546 101.529 88.7813 101.87 88.7813C102.295 88.7813 102.643 88.9145 102.914 89.1809C103.185 89.4452 103.32 89.8573 103.32 90.4169V93.6016H102.589V90.4169C102.589 90.0659 102.493 89.8149 102.301 89.6642C102.109 89.5134 101.882 89.438 101.622 89.438C101.288 89.438 101.028 89.5392 100.845 89.7416C100.661 89.9419 100.569 90.196 100.569 90.5037V93.6016H99.8254V90.3426C99.8254 90.072 99.7376 89.8542 99.5621 89.6889C99.3866 89.5217 99.1604 89.438 98.8837 89.438C98.6937 89.438 98.516 89.4886 98.3508 89.5898C98.1877 89.691 98.0555 89.8314 97.9543 90.0111C97.8552 90.1887 97.8056 90.3942 97.8056 90.6276V93.6016H97.0745ZM106.057 93.7131C105.755 93.7131 105.482 93.6563 105.236 93.5427C104.99 93.427 104.795 93.2608 104.65 93.0439C104.506 92.825 104.434 92.5607 104.434 92.2509C104.434 91.9783 104.487 91.7573 104.595 91.5879C104.702 91.4165 104.846 91.2823 105.025 91.1852C105.205 91.0882 105.403 91.0159 105.62 90.9684C105.839 90.9188 106.059 90.8796 106.28 90.8506C106.569 90.8135 106.803 90.7856 106.983 90.767C107.165 90.7464 107.297 90.7123 107.38 90.6648C107.464 90.6173 107.507 90.5347 107.507 90.4169V90.3922C107.507 90.0865 107.423 89.849 107.256 89.6797C107.09 89.5103 106.84 89.4256 106.503 89.4256C106.154 89.4256 105.88 89.502 105.682 89.6549C105.484 89.8077 105.344 89.9709 105.264 90.1443L104.57 89.8965C104.694 89.6074 104.859 89.3823 105.065 89.2212C105.274 89.058 105.501 88.9444 105.747 88.8804C105.995 88.8143 106.239 88.7813 106.478 88.7813C106.631 88.7813 106.806 88.7999 107.005 88.837C107.205 88.8721 107.398 88.9455 107.584 89.057C107.772 89.1685 107.928 89.3368 108.052 89.5619C108.176 89.787 108.238 90.0886 108.238 90.4665V93.6016H107.507V92.9572H107.469C107.42 93.0605 107.337 93.171 107.222 93.2887C107.106 93.4064 106.952 93.5066 106.76 93.5892C106.568 93.6718 106.334 93.7131 106.057 93.7131ZM106.168 93.0563C106.457 93.0563 106.701 92.9995 106.899 92.886C107.1 92.7724 107.251 92.6257 107.352 92.4461C107.455 92.2664 107.507 92.0774 107.507 91.8791V91.21C107.476 91.2472 107.407 91.2813 107.302 91.3122C107.199 91.3411 107.079 91.367 106.943 91.3897C106.809 91.4103 106.677 91.4289 106.549 91.4454C106.423 91.4599 106.321 91.4723 106.243 91.4826C106.053 91.5074 105.875 91.5477 105.71 91.6034C105.547 91.6571 105.414 91.7387 105.313 91.8482C105.214 91.9556 105.165 92.1022 105.165 92.2881C105.165 92.5421 105.259 92.7342 105.447 92.8643C105.637 92.9923 105.877 93.0563 106.168 93.0563ZM109.572 93.6016V88.8432H110.303V93.6016H109.572ZM109.944 88.0502C109.801 88.0502 109.678 88.0016 109.575 87.9046C109.474 87.8075 109.423 87.6908 109.423 87.5545C109.423 87.4182 109.474 87.3015 109.575 87.2044C109.678 87.1074 109.801 87.0588 109.944 87.0588C110.086 87.0588 110.208 87.1074 110.309 87.2044C110.413 87.3015 110.464 87.4182 110.464 87.5545C110.464 87.6908 110.413 87.8075 110.309 87.9046C110.208 88.0016 110.086 88.0502 109.944 88.0502ZM112.373 87.2571V93.6016H111.642V87.2571H112.373Z" fill="#4B5563"/>
<path d="M36.5769 111.961V105.616H40.4058V106.298H37.3451V108.442H40.2076V109.123H37.3451V111.279H40.4554V111.961H36.5769ZM42.4226 109.099V111.961H41.6915V107.203H42.3978V107.946H42.4597C42.5713 107.704 42.7406 107.51 42.9678 107.364C43.195 107.215 43.4882 107.141 43.8476 107.141C44.1698 107.141 44.4517 107.207 44.6933 107.339C44.9349 107.469 45.1229 107.667 45.2571 107.934C45.3914 108.198 45.4585 108.533 45.4585 108.937V111.961H44.7274V108.987C44.7274 108.613 44.6303 108.322 44.4362 108.113C44.242 107.903 43.9756 107.797 43.6369 107.797C43.4036 107.797 43.195 107.848 43.0112 107.949C42.8294 108.05 42.6859 108.198 42.5805 108.392C42.4752 108.586 42.4226 108.822 42.4226 109.099ZM48.8638 107.203V107.822H46.3979V107.203H48.8638ZM47.1166 106.063H47.8477V110.598C47.8477 110.804 47.8777 110.959 47.9376 111.063C47.9995 111.164 48.078 111.232 48.173 111.267C48.2701 111.3 48.3723 111.317 48.4797 111.317C48.5602 111.317 48.6263 111.312 48.6779 111.304C48.7296 111.294 48.7709 111.286 48.8019 111.279L48.9506 111.936C48.901 111.955 48.8318 111.973 48.743 111.992C48.6542 112.013 48.5416 112.023 48.4053 112.023C48.1988 112.023 47.9964 111.978 47.7981 111.89C47.6019 111.801 47.4388 111.666 47.3087 111.484C47.1806 111.302 47.1166 111.073 47.1166 110.796V106.063ZM51.9075 112.06C51.449 112.06 51.0535 111.959 50.721 111.756C50.3906 111.552 50.1355 111.267 49.9558 110.901C49.7782 110.534 49.6894 110.106 49.6894 109.619C49.6894 109.132 49.7782 108.702 49.9558 108.33C50.1355 107.956 50.3854 107.665 50.7055 107.457C51.0277 107.246 51.4036 107.141 51.8331 107.141C52.081 107.141 52.3257 107.182 52.5673 107.265C52.809 107.347 53.0289 107.481 53.2272 107.667C53.4254 107.851 53.5834 108.095 53.7011 108.398C53.8189 108.702 53.8777 109.076 53.8777 109.52V109.83H50.2098V109.198H53.1342C53.1342 108.929 53.0805 108.69 52.9731 108.479C52.8678 108.268 52.7171 108.102 52.5209 107.98C52.3267 107.858 52.0975 107.797 51.8331 107.797C51.5419 107.797 51.29 107.87 51.0772 108.014C50.8666 108.157 50.7045 108.343 50.5909 108.572C50.4773 108.801 50.4205 109.047 50.4205 109.309V109.73C50.4205 110.09 50.4825 110.394 50.6064 110.644C50.7324 110.892 50.9069 111.081 51.1299 111.211C51.353 111.339 51.6121 111.403 51.9075 111.403C52.0995 111.403 52.273 111.376 52.4279 111.323C52.5849 111.267 52.7202 111.184 52.8337 111.075C52.9473 110.963 53.0351 110.825 53.0971 110.66L53.8034 110.858C53.729 111.098 53.6041 111.308 53.4285 111.49C53.253 111.67 53.0361 111.81 52.778 111.911C52.5198 112.011 52.2297 112.06 51.9075 112.06ZM54.9899 111.961V107.203H55.6962V107.921H55.7457C55.8325 107.686 55.9894 107.495 56.2166 107.348C56.4438 107.202 56.6999 107.128 56.9849 107.128C57.0386 107.128 57.1057 107.129 57.1863 107.131C57.2668 107.133 57.3277 107.137 57.369 107.141V107.884C57.3442 107.878 57.2875 107.869 57.1986 107.856C57.1119 107.842 57.02 107.835 56.9229 107.835C56.6916 107.835 56.4851 107.883 56.3034 107.98C56.1237 108.075 55.9812 108.207 55.8759 108.377C55.7726 108.544 55.721 108.735 55.721 108.95V111.961H54.9899ZM63.6879 110.015V107.203H64.419V111.961H63.6879V111.155H63.6384C63.5268 111.397 63.3534 111.603 63.1179 111.772C62.8825 111.939 62.5851 112.023 62.2257 112.023C61.9283 112.023 61.664 111.958 61.4327 111.828C61.2014 111.696 61.0196 111.497 60.8874 111.233C60.7553 110.967 60.6892 110.631 60.6892 110.226V107.203H61.4203V110.177C61.4203 110.524 61.5173 110.8 61.7115 111.007C61.9077 111.213 62.1576 111.317 62.4612 111.317C62.6429 111.317 62.8277 111.27 63.0157 111.177C63.2057 111.084 63.3647 110.942 63.4928 110.75C63.6229 110.558 63.6879 110.313 63.6879 110.015ZM69.1286 108.268L68.4718 108.454C68.4305 108.345 68.3696 108.238 68.289 108.135C68.2106 108.03 68.1032 107.943 67.9669 107.875C67.8306 107.807 67.656 107.773 67.4433 107.773C67.1521 107.773 66.9095 107.84 66.7153 107.974C66.5233 108.106 66.4272 108.274 66.4272 108.479C66.4272 108.661 66.4933 108.804 66.6255 108.91C66.7577 109.015 66.9642 109.103 67.2451 109.173L67.9514 109.346C68.3768 109.45 68.6938 109.608 68.9024 109.82C69.111 110.031 69.2153 110.303 69.2153 110.635C69.2153 110.908 69.1368 111.151 68.9799 111.366C68.825 111.581 68.6081 111.75 68.3293 111.874C68.0505 111.998 67.7263 112.06 67.3566 112.06C66.8712 112.06 66.4696 111.955 66.1515 111.744C65.8335 111.533 65.6321 111.226 65.5474 110.821L66.2413 110.647C66.3074 110.904 66.4324 111.096 66.6162 111.224C66.8021 111.352 67.0447 111.416 67.3442 111.416C67.685 111.416 67.9555 111.343 68.1558 111.199C68.3582 111.052 68.4594 110.877 68.4594 110.672C68.4594 110.507 68.4016 110.369 68.2859 110.257C68.1703 110.144 67.9927 110.059 67.7531 110.003L66.9601 109.817C66.5243 109.714 66.2042 109.554 65.9997 109.337C65.7973 109.118 65.6961 108.844 65.6961 108.516C65.6961 108.248 65.7715 108.01 65.9223 107.804C66.0751 107.597 66.2827 107.435 66.5449 107.317C66.8093 107.2 67.1088 107.141 67.4433 107.141C67.9142 107.141 68.2839 107.244 68.5524 107.45C68.8229 107.657 69.015 107.93 69.1286 108.268ZM72.3109 112.06C71.8524 112.06 71.4569 111.959 71.1244 111.756C70.7939 111.552 70.5389 111.267 70.3592 110.901C70.1816 110.534 70.0928 110.106 70.0928 109.619C70.0928 109.132 70.1816 108.702 70.3592 108.33C70.5389 107.956 70.7888 107.665 71.1089 107.457C71.4311 107.246 71.8069 107.141 72.2365 107.141C72.4843 107.141 72.7291 107.182 72.9707 107.265C73.2123 107.347 73.4323 107.481 73.6306 107.667C73.8288 107.851 73.9868 108.095 74.1045 108.398C74.2222 108.702 74.2811 109.076 74.2811 109.52V109.83H70.6132V109.198H73.5376C73.5376 108.929 73.4839 108.69 73.3765 108.479C73.2712 108.268 73.1204 108.102 72.9242 107.98C72.7301 107.858 72.5009 107.797 72.2365 107.797C71.9453 107.797 71.6933 107.87 71.4806 108.014C71.27 108.157 71.1079 108.343 70.9943 108.572C70.8807 108.801 70.8239 109.047 70.8239 109.309V109.73C70.8239 110.09 70.8858 110.394 71.0098 110.644C71.1357 110.892 71.3102 111.081 71.5333 111.211C71.7563 111.339 72.0155 111.403 72.3109 111.403C72.5029 111.403 72.6764 111.376 72.8313 111.323C72.9883 111.267 73.1235 111.184 73.2371 111.075C73.3507 110.963 73.4385 110.825 73.5004 110.66L74.2068 110.858C74.1324 111.098 74.0075 111.308 73.8319 111.49C73.6564 111.67 73.4395 111.81 73.1814 111.911C72.9232 112.011 72.633 112.06 72.3109 112.06ZM75.3932 111.961V107.203H76.0996V107.921H76.1491C76.2359 107.686 76.3928 107.495 76.62 107.348C76.8472 107.202 77.1033 107.128 77.3883 107.128C77.442 107.128 77.5091 107.129 77.5896 107.131C77.6702 107.133 77.7311 107.137 77.7724 107.141V107.884C77.7476 107.878 77.6908 107.869 77.602 107.856C77.5153 107.842 77.4234 107.835 77.3263 107.835C77.095 107.835 76.8885 107.883 76.7067 107.98C76.5271 108.075 76.3846 108.207 76.2792 108.377C76.176 108.544 76.1243 108.735 76.1243 108.95V111.961H75.3932ZM79.3701 109.099V111.961H78.639V107.203H79.3454V107.946H79.4073C79.5188 107.704 79.6882 107.51 79.9154 107.364C80.1425 107.215 80.4358 107.141 80.7952 107.141C81.1173 107.141 81.3993 107.207 81.6409 107.339C81.8825 107.469 82.0705 107.667 82.2047 107.934C82.3389 108.198 82.4061 108.533 82.4061 108.937V111.961H81.675V108.987C81.675 108.613 81.5779 108.322 81.3838 108.113C81.1896 107.903 80.9232 107.797 80.5845 107.797C80.3511 107.797 80.1425 107.848 79.9587 107.949C79.777 108.05 79.6335 108.198 79.5281 108.392C79.4228 108.586 79.3701 108.822 79.3701 109.099ZM85.1423 112.072C84.8407 112.072 84.5671 112.016 84.3213 111.902C84.0756 111.786 83.8804 111.62 83.7358 111.403C83.5913 111.184 83.519 110.92 83.519 110.61C83.519 110.338 83.5727 110.117 83.6801 109.947C83.7875 109.776 83.931 109.642 84.1107 109.545C84.2903 109.448 84.4886 109.375 84.7055 109.328C84.9244 109.278 85.1443 109.239 85.3653 109.21C85.6544 109.173 85.8888 109.145 86.0685 109.126C86.2503 109.106 86.3824 109.072 86.4651 109.024C86.5497 108.977 86.5921 108.894 86.5921 108.776V108.752C86.5921 108.446 86.5084 108.208 86.3411 108.039C86.1759 107.87 85.925 107.785 85.5884 107.785C85.2393 107.785 84.9657 107.861 84.7674 108.014C84.5692 108.167 84.4297 108.33 84.3492 108.504L83.6553 108.256C83.7792 107.967 83.9444 107.742 84.1509 107.581C84.3595 107.417 84.5867 107.304 84.8325 107.24C85.0803 107.174 85.324 107.141 85.5636 107.141C85.7164 107.141 85.8919 107.159 86.0902 107.196C86.2905 107.232 86.4836 107.305 86.6695 107.416C86.8575 107.528 87.0134 107.696 87.1373 107.921C87.2612 108.146 87.3232 108.448 87.3232 108.826V111.961H86.5921V111.317H86.5549C86.5053 111.42 86.4227 111.53 86.3071 111.648C86.1914 111.766 86.0375 111.866 85.8455 111.949C85.6534 112.031 85.419 112.072 85.1423 112.072ZM85.2538 111.416C85.5429 111.416 85.7866 111.359 85.9849 111.245C86.1852 111.132 86.336 110.985 86.4372 110.805C86.5404 110.626 86.5921 110.437 86.5921 110.239V109.569C86.5611 109.607 86.4929 109.641 86.3876 109.672C86.2843 109.701 86.1646 109.726 86.0283 109.749C85.894 109.77 85.7629 109.788 85.6348 109.805C85.5088 109.819 85.4066 109.832 85.3281 109.842C85.1381 109.867 84.9605 109.907 84.7953 109.963C84.6321 110.017 84.5 110.098 84.3988 110.208C84.2996 110.315 84.2501 110.462 84.2501 110.647C84.2501 110.901 84.344 111.094 84.532 111.224C84.722 111.352 84.9626 111.416 85.2538 111.416ZM88.6576 111.961V107.203H89.3639V107.946H89.4258C89.525 107.692 89.685 107.495 89.906 107.354C90.127 107.212 90.3924 107.141 90.7022 107.141C91.0161 107.141 91.2773 107.212 91.4859 107.354C91.6966 107.495 91.8608 107.692 91.9785 107.946H92.0281C92.1499 107.7 92.3327 107.505 92.5764 107.361C92.8201 107.214 93.1123 107.141 93.4531 107.141C93.8785 107.141 94.2265 107.274 94.4971 107.54C94.7676 107.805 94.9029 108.217 94.9029 108.776V111.961H94.1718V108.776C94.1718 108.425 94.0758 108.174 93.8837 108.024C93.6916 107.873 93.4655 107.797 93.2053 107.797C92.8707 107.797 92.6115 107.899 92.4277 108.101C92.2439 108.301 92.152 108.555 92.152 108.863V111.961H91.4085V108.702C91.4085 108.431 91.3207 108.214 91.1452 108.048C90.9696 107.881 90.7435 107.797 90.4667 107.797C90.2767 107.797 90.0991 107.848 89.9339 107.949C89.7707 108.05 89.6386 108.191 89.5374 108.37C89.4382 108.548 89.3887 108.754 89.3887 108.987V111.961H88.6576ZM98.2347 112.06C97.7762 112.06 97.3807 111.959 97.0482 111.756C96.7177 111.552 96.4627 111.267 96.283 110.901C96.1054 110.534 96.0166 110.106 96.0166 109.619C96.0166 109.132 96.1054 108.702 96.283 108.33C96.4627 107.956 96.7126 107.665 97.0327 107.457C97.3549 107.246 97.7307 107.141 98.1603 107.141C98.4081 107.141 98.6529 107.182 98.8945 107.265C99.1361 107.347 99.3561 107.481 99.5544 107.667C99.7526 107.851 99.9106 108.095 100.028 108.398C100.146 108.702 100.205 109.076 100.205 109.52V109.83H96.537V109.198H99.4614C99.4614 108.929 99.4077 108.69 99.3003 108.479C99.195 108.268 99.0442 108.102 98.848 107.98C98.6539 107.858 98.4247 107.797 98.1603 107.797C97.8691 107.797 97.6171 107.87 97.4044 108.014C97.1938 108.157 97.0316 108.343 96.9181 108.572C96.8045 108.801 96.7477 109.047 96.7477 109.309V109.73C96.7477 110.09 96.8096 110.394 96.9335 110.644C97.0595 110.892 97.234 111.081 97.4571 111.211C97.6801 111.339 97.9393 111.403 98.2347 111.403C98.4267 111.403 98.6002 111.376 98.7551 111.323C98.9121 111.267 99.0473 111.184 99.1609 111.075C99.2745 110.963 99.3623 110.825 99.4242 110.66L100.131 110.858C100.056 111.098 99.9313 111.308 99.7557 111.49C99.5802 111.67 99.3633 111.81 99.1052 111.911C98.847 112.011 98.5568 112.06 98.2347 112.06ZM105.704 112.06C105.274 112.06 104.897 111.958 104.573 111.753C104.251 111.549 103.999 111.263 103.817 110.895C103.637 110.528 103.548 110.098 103.548 109.607C103.548 109.111 103.637 108.678 103.817 108.309C103.999 107.939 104.251 107.652 104.573 107.447C104.897 107.243 105.274 107.141 105.704 107.141C106.133 107.141 106.509 107.243 106.831 107.447C107.156 107.652 107.407 107.939 107.587 108.309C107.769 108.678 107.86 109.111 107.86 109.607C107.86 110.098 107.769 110.528 107.587 110.895C107.407 111.263 107.156 111.549 106.831 111.753C106.509 111.958 106.133 112.06 105.704 112.06ZM105.704 111.403C106.03 111.403 106.298 111.32 106.509 111.152C106.72 110.985 106.876 110.765 106.977 110.493C107.078 110.22 107.129 109.925 107.129 109.607C107.129 109.289 107.078 108.992 106.977 108.717C106.876 108.443 106.72 108.221 106.509 108.051C106.298 107.882 106.03 107.797 105.704 107.797C105.377 107.797 105.109 107.882 104.898 108.051C104.688 108.221 104.532 108.443 104.43 108.717C104.329 108.992 104.279 109.289 104.279 109.607C104.279 109.925 104.329 110.22 104.43 110.493C104.532 110.765 104.688 110.985 104.898 111.152C105.109 111.32 105.377 111.403 105.704 111.403ZM108.976 111.961V107.203H109.682V107.921H109.732C109.818 107.686 109.975 107.495 110.203 107.348C110.43 107.202 110.686 107.128 110.971 107.128C111.024 107.128 111.092 107.129 111.172 107.131C111.253 107.133 111.314 107.137 111.355 107.141V107.884C111.33 107.878 111.273 107.869 111.185 107.856C111.098 107.842 111.006 107.835 110.909 107.835C110.678 107.835 110.471 107.883 110.289 107.98C110.11 108.075 109.967 108.207 109.862 108.377C109.758 108.544 109.707 108.735 109.707 108.95V111.961H108.976ZM116.67 112.06C116.212 112.06 115.816 111.959 115.484 111.756C115.153 111.552 114.898 111.267 114.718 110.901C114.541 110.534 114.452 110.106 114.452 109.619C114.452 109.132 114.541 108.702 114.718 108.33C114.898 107.956 115.148 107.665 115.468 107.457C115.79 107.246 116.166 107.141 116.596 107.141C116.844 107.141 117.088 107.182 117.33 107.265C117.572 107.347 117.792 107.481 117.99 107.667C118.188 107.851 118.346 108.095 118.464 108.398C118.582 108.702 118.64 109.076 118.64 109.52V109.83H114.972V109.198H117.897C117.897 108.929 117.843 108.69 117.736 108.479C117.63 108.268 117.48 108.102 117.283 107.98C117.089 107.858 116.86 107.797 116.596 107.797C116.305 107.797 116.053 107.87 115.84 108.014C115.629 108.157 115.467 108.343 115.354 108.572C115.24 108.801 115.183 109.047 115.183 109.309V109.73C115.183 110.09 115.245 110.394 115.369 110.644C115.495 110.892 115.67 111.081 115.893 111.211C116.116 111.339 116.375 111.403 116.67 111.403C116.862 111.403 117.036 111.376 117.191 111.323C117.348 111.267 117.483 111.184 117.596 111.075C117.71 110.963 117.798 110.825 117.86 110.66L118.566 110.858C118.492 111.098 118.367 111.308 118.191 111.49C118.016 111.67 117.799 111.81 117.541 111.911C117.282 112.011 116.992 112.06 116.67 112.06ZM119.752 111.961V107.203H120.459V107.946H120.521C120.62 107.692 120.78 107.495 121.001 107.354C121.222 107.212 121.487 107.141 121.797 107.141C122.111 107.141 122.372 107.212 122.581 107.354C122.792 107.495 122.956 107.692 123.073 107.946H123.123C123.245 107.7 123.428 107.505 123.671 107.361C123.915 107.214 124.207 107.141 124.548 107.141C124.973 107.141 125.321 107.274 125.592 107.54C125.863 107.805 125.998 108.217 125.998 108.776V111.961H125.267V108.776C125.267 108.425 125.171 108.174 124.979 108.024C124.787 107.873 124.56 107.797 124.3 107.797C123.966 107.797 123.706 107.899 123.523 108.101C123.339 108.301 123.247 108.555 123.247 108.863V111.961H122.503V108.702C122.503 108.431 122.416 108.214 122.24 108.048C122.065 107.881 121.838 107.797 121.562 107.797C121.372 107.797 121.194 107.848 121.029 107.949C120.866 108.05 120.733 108.191 120.632 108.37C120.533 108.548 120.484 108.754 120.484 108.987V111.961H119.752ZM128.735 112.072C128.433 112.072 128.16 112.016 127.914 111.902C127.668 111.786 127.473 111.62 127.328 111.403C127.184 111.184 127.112 110.92 127.112 110.61C127.112 110.338 127.165 110.117 127.273 109.947C127.38 109.776 127.524 109.642 127.703 109.545C127.883 109.448 128.081 109.375 128.298 109.328C128.517 109.278 128.737 109.239 128.958 109.21C129.247 109.173 129.481 109.145 129.661 109.126C129.843 109.106 129.975 109.072 130.058 109.024C130.142 108.977 130.185 108.894 130.185 108.776V108.752C130.185 108.446 130.101 108.208 129.934 108.039C129.768 107.87 129.518 107.785 129.181 107.785C128.832 107.785 128.558 107.861 128.36 108.014C128.162 108.167 128.022 108.33 127.942 108.504L127.248 108.256C127.372 107.967 127.537 107.742 127.743 107.581C127.952 107.417 128.179 107.304 128.425 107.24C128.673 107.174 128.917 107.141 129.156 107.141C129.309 107.141 129.484 107.159 129.683 107.196C129.883 107.232 130.076 107.305 130.262 107.416C130.45 107.528 130.606 107.696 130.73 107.921C130.854 108.146 130.916 108.448 130.916 108.826V111.961H130.185V111.317H130.147C130.098 111.42 130.015 111.53 129.9 111.648C129.784 111.766 129.63 111.866 129.438 111.949C129.246 112.031 129.012 112.072 128.735 112.072ZM128.846 111.416C129.135 111.416 129.379 111.359 129.577 111.245C129.778 111.132 129.929 110.985 130.03 110.805C130.133 110.626 130.185 110.437 130.185 110.239V109.569C130.154 109.607 130.085 109.641 129.98 109.672C129.877 109.701 129.757 109.726 129.621 109.749C129.487 109.77 129.355 109.788 129.227 109.805C129.101 109.819 128.999 109.832 128.921 109.842C128.731 109.867 128.553 109.907 128.388 109.963C128.225 110.017 128.093 110.098 127.991 110.208C127.892 110.315 127.843 110.462 127.843 110.647C127.843 110.901 127.937 111.094 128.125 111.224C128.315 111.352 128.555 111.416 128.846 111.416ZM132.25 111.961V107.203H132.981V111.961H132.25ZM132.622 106.41C132.479 106.41 132.356 106.361 132.253 106.264C132.152 106.167 132.101 106.05 132.101 105.914C132.101 105.778 132.152 105.661 132.253 105.564C132.356 105.467 132.479 105.418 132.622 105.418C132.764 105.418 132.886 105.467 132.987 105.564C133.091 105.661 133.142 105.778 133.142 105.914C133.142 106.05 133.091 106.167 132.987 106.264C132.886 106.361 132.764 106.41 132.622 106.41ZM135.051 105.616V111.961H134.32V105.616H135.051Z" fill="#9CA3AF"/>
<path d="M35.8086 120.328H209.191" stroke="#D1D5DB" stroke-width="0.545226"/>
<path d="M36.5769 150.328V143.984H38.7206C39.2183 143.984 39.6252 144.074 39.9412 144.253C40.2592 144.431 40.4946 144.671 40.6475 144.975C40.8003 145.279 40.8767 145.617 40.8767 145.991C40.8767 146.365 40.8003 146.705 40.6475 147.01C40.4967 147.316 40.2633 147.56 39.9474 147.741C39.6314 147.921 39.2266 148.011 38.733 148.011H37.1964V147.329H38.7082C39.049 147.329 39.3226 147.271 39.5291 147.153C39.7357 147.035 39.8854 146.876 39.9783 146.676C40.0733 146.473 40.1208 146.245 40.1208 145.991C40.1208 145.737 40.0733 145.51 39.9783 145.31C39.8854 145.109 39.7346 144.952 39.526 144.839C39.3175 144.723 39.0407 144.665 38.6958 144.665H37.3451V150.328H36.5769ZM43.4154 150.44C43.1139 150.44 42.8403 150.383 42.5945 150.269C42.3487 150.154 42.1536 149.987 42.009 149.771C41.8644 149.552 41.7921 149.287 41.7921 148.977C41.7921 148.705 41.8458 148.484 41.9532 148.315C42.0606 148.143 42.2042 148.009 42.3838 147.912C42.5635 147.815 42.7618 147.742 42.9786 147.695C43.1975 147.645 43.4175 147.606 43.6385 147.577C43.9276 147.54 44.162 147.512 44.3417 147.494C44.5234 147.473 44.6556 147.439 44.7382 147.391C44.8229 147.344 44.8652 147.261 44.8652 147.144V147.119C44.8652 146.813 44.7816 146.576 44.6143 146.406C44.4491 146.237 44.1982 146.152 43.8615 146.152C43.5125 146.152 43.2388 146.229 43.0406 146.381C42.8423 146.534 42.7029 146.697 42.6224 146.871L41.9284 146.623C42.0524 146.334 42.2176 146.109 42.4241 145.948C42.6327 145.785 42.8599 145.671 43.1056 145.607C43.3535 145.541 43.5972 145.508 43.8367 145.508C43.9896 145.508 44.1651 145.526 44.3634 145.564C44.5637 145.599 44.7568 145.672 44.9427 145.784C45.1306 145.895 45.2865 146.063 45.4105 146.288C45.5344 146.514 45.5963 146.815 45.5963 147.193V150.328H44.8652V149.684H44.8281C44.7785 149.787 44.6959 149.898 44.5802 150.015C44.4646 150.133 44.3107 150.233 44.1186 150.316C43.9266 150.398 43.6922 150.44 43.4154 150.44ZM43.527 149.783C43.8161 149.783 44.0598 149.726 44.258 149.613C44.4584 149.499 44.6091 149.352 44.7103 149.173C44.8136 148.993 44.8652 148.804 44.8652 148.606V147.937C44.8343 147.974 44.7661 148.008 44.6608 148.039C44.5575 148.068 44.4377 148.094 44.3014 148.116C44.1672 148.137 44.036 148.155 43.908 148.172C43.782 148.186 43.6798 148.199 43.6013 148.209C43.4113 148.234 43.2337 148.274 43.0685 148.33C42.9053 148.384 42.7731 148.465 42.6719 148.575C42.5728 148.682 42.5232 148.829 42.5232 149.015C42.5232 149.269 42.6172 149.461 42.8051 149.591C42.9951 149.719 43.2358 149.783 43.527 149.783ZM50.3012 146.635L49.6445 146.821C49.6032 146.712 49.5423 146.606 49.4617 146.502C49.3832 146.397 49.2758 146.31 49.1395 146.242C49.0032 146.174 48.8287 146.14 48.616 146.14C48.3248 146.14 48.0821 146.207 47.888 146.341C47.6959 146.473 47.5999 146.642 47.5999 146.846C47.5999 147.028 47.666 147.171 47.7981 147.277C47.9303 147.382 48.1368 147.47 48.4177 147.54L49.124 147.714C49.5495 147.817 49.8665 147.975 50.0751 148.187C50.2837 148.398 50.388 148.67 50.388 149.002C50.388 149.275 50.3095 149.519 50.1525 149.733C49.9976 149.948 49.7808 150.117 49.502 150.241C49.2232 150.365 48.8989 150.427 48.5292 150.427C48.0439 150.427 47.6422 150.322 47.3242 150.111C47.0061 149.901 46.8048 149.593 46.7201 149.188L47.414 149.015C47.4801 149.271 47.605 149.463 47.7889 149.591C47.9747 149.719 48.2174 149.783 48.5169 149.783C48.8576 149.783 49.1282 149.711 49.3285 149.566C49.5309 149.419 49.6321 149.244 49.6321 149.039C49.6321 148.874 49.5743 148.736 49.4586 148.624C49.343 148.511 49.1653 148.426 48.9258 148.37L48.1327 148.184C47.6969 148.081 47.3768 147.921 47.1724 147.704C46.97 147.485 46.8688 147.212 46.8688 146.883C46.8688 146.615 46.9442 146.377 47.0949 146.171C47.2478 145.964 47.4553 145.802 47.7176 145.684C47.982 145.567 48.2814 145.508 48.616 145.508C49.0869 145.508 49.4565 145.611 49.725 145.818C49.9956 146.024 50.1876 146.297 50.3012 146.635ZM54.859 146.635L54.2022 146.821C54.1609 146.712 54.1 146.606 54.0195 146.502C53.941 146.397 53.8336 146.31 53.6973 146.242C53.561 146.174 53.3865 146.14 53.1737 146.14C52.8825 146.14 52.6399 146.207 52.4457 146.341C52.2537 146.473 52.1576 146.642 52.1576 146.846C52.1576 147.028 52.2237 147.171 52.3559 147.277C52.4881 147.382 52.6946 147.47 52.9755 147.54L53.6818 147.714C54.1072 147.817 54.4242 147.975 54.6328 148.187C54.8414 148.398 54.9457 148.67 54.9457 149.002C54.9457 149.275 54.8672 149.519 54.7103 149.733C54.5554 149.948 54.3385 150.117 54.0597 150.241C53.7809 150.365 53.4567 150.427 53.087 150.427C52.6017 150.427 52.2 150.322 51.8819 150.111C51.5639 149.901 51.3625 149.593 51.2778 149.188L51.9718 149.015C52.0378 149.271 52.1628 149.463 52.3466 149.591C52.5325 149.719 52.7751 149.783 53.0746 149.783C53.4154 149.783 53.6859 149.711 53.8862 149.566C54.0886 149.419 54.1898 149.244 54.1898 149.039C54.1898 148.874 54.132 148.736 54.0164 148.624C53.9007 148.511 53.7231 148.426 53.4835 148.37L52.6905 148.184C52.2547 148.081 51.9346 147.921 51.7301 147.704C51.5277 147.485 51.4265 147.212 51.4265 146.883C51.4265 146.615 51.5019 146.377 51.6527 146.171C51.8055 145.964 52.0131 145.802 52.2754 145.684C52.5397 145.567 52.8392 145.508 53.1737 145.508C53.6446 145.508 54.0143 145.611 54.2828 145.818C54.5533 146.024 54.7454 146.297 54.859 146.635ZM57.1243 150.328L55.6745 145.57H56.4428L57.4713 149.213H57.5208L58.5369 145.57H59.3176L60.3213 149.2H60.3709L61.3994 145.57H62.1676L60.7178 150.328H59.9991L58.9582 146.673H58.8839L57.843 150.328H57.1243ZM64.9054 150.427C64.4758 150.427 64.0989 150.325 63.7747 150.121C63.4525 149.916 63.2005 149.63 63.0188 149.262C62.8391 148.895 62.7493 148.465 62.7493 147.974C62.7493 147.478 62.8391 147.045 63.0188 146.676C63.2005 146.306 63.4525 146.019 63.7747 145.815C64.0989 145.61 64.4758 145.508 64.9054 145.508C65.335 145.508 65.7108 145.61 66.033 145.815C66.3573 146.019 66.6092 146.306 66.7889 146.676C66.9706 147.045 67.0615 147.478 67.0615 147.974C67.0615 148.465 66.9706 148.895 66.7889 149.262C66.6092 149.63 66.3573 149.916 66.033 150.121C65.7108 150.325 65.335 150.427 64.9054 150.427ZM64.9054 149.771C65.2317 149.771 65.5002 149.687 65.7108 149.52C65.9215 149.352 66.0774 149.132 66.1786 148.86C66.2798 148.587 66.3304 148.292 66.3304 147.974C66.3304 147.656 66.2798 147.359 66.1786 147.085C66.0774 146.81 65.9215 146.588 65.7108 146.419C65.5002 146.249 65.2317 146.165 64.9054 146.165C64.5791 146.165 64.3106 146.249 64.0999 146.419C63.8893 146.588 63.7334 146.81 63.6322 147.085C63.531 147.359 63.4804 147.656 63.4804 147.974C63.4804 148.292 63.531 148.587 63.6322 148.86C63.7334 149.132 63.8893 149.352 64.0999 149.52C64.3106 149.687 64.5791 149.771 64.9054 149.771ZM68.1775 150.328V145.57H68.8838V146.288H68.9334C69.0201 146.053 69.1771 145.862 69.4043 145.715C69.6315 145.569 69.8875 145.495 70.1726 145.495C70.2263 145.495 70.2934 145.496 70.3739 145.499C70.4545 145.501 70.5154 145.504 70.5567 145.508V146.251C70.5319 146.245 70.4751 146.236 70.3863 146.223C70.2996 146.209 70.2077 146.202 70.1106 146.202C69.8793 146.202 69.6728 146.25 69.491 146.347C69.3113 146.442 69.1688 146.575 69.0635 146.744C68.9603 146.911 68.9086 147.102 68.9086 147.317V150.328H68.1775ZM73.0753 150.427C72.6787 150.427 72.3287 150.327 72.0251 150.127C71.7215 149.924 71.484 149.639 71.3126 149.272C71.1412 148.902 71.0554 148.465 71.0554 147.961C71.0554 147.462 71.1412 147.028 71.3126 146.66C71.484 146.293 71.7225 146.009 72.0282 145.808C72.3338 145.608 72.687 145.508 73.0877 145.508C73.3974 145.508 73.6422 145.559 73.8218 145.663C74.0036 145.764 74.142 145.88 74.237 146.01C74.334 146.138 74.4094 146.243 74.4631 146.326H74.5251V143.984H75.2562V150.328H74.5498V149.597H74.4631C74.4094 149.684 74.333 149.793 74.2339 149.925C74.1347 150.056 73.9933 150.172 73.8095 150.275C73.6257 150.377 73.3809 150.427 73.0753 150.427ZM73.1744 149.771C73.4677 149.771 73.7155 149.694 73.9179 149.541C74.1203 149.386 74.2741 149.173 74.3795 148.9C74.4848 148.625 74.5375 148.308 74.5375 147.949C74.5375 147.594 74.4858 147.283 74.3826 147.016C74.2793 146.748 74.1265 146.539 73.9241 146.391C73.7217 146.24 73.4718 146.165 73.1744 146.165C72.8646 146.165 72.6064 146.244 72.3999 146.403C72.1955 146.56 72.0416 146.774 71.9383 147.044C71.8371 147.313 71.7865 147.614 71.7865 147.949C71.7865 148.288 71.8382 148.595 71.9414 148.872C72.0468 149.147 72.2017 149.366 72.4061 149.529C72.6126 149.69 72.8687 149.771 73.1744 149.771Z" fill="#4B5563"/>
<path d="M36.5769 168.688V162.343H40.4058V163.025H37.3451V165.168H40.2076V165.85H37.3451V168.006H40.4554V168.688H36.5769ZM42.4226 165.825V168.688H41.6915V163.929H42.3978V164.673H42.4597C42.5713 164.431 42.7406 164.237 42.9678 164.09C43.195 163.942 43.4882 163.867 43.8476 163.867C44.1698 163.867 44.4517 163.933 44.6933 164.065C44.9349 164.196 45.1229 164.394 45.2571 164.66C45.3914 164.925 45.4585 165.259 45.4585 165.664V168.688H44.7274V165.714C44.7274 165.34 44.6303 165.049 44.4362 164.84C44.242 164.629 43.9756 164.524 43.6369 164.524C43.4036 164.524 43.195 164.575 43.0112 164.676C42.8294 164.777 42.6859 164.925 42.5805 165.119C42.4752 165.313 42.4226 165.548 42.4226 165.825ZM48.8638 163.929V164.549H46.3979V163.929H48.8638ZM47.1166 162.789H47.8477V167.324C47.8477 167.531 47.8777 167.686 47.9376 167.789C47.9995 167.89 48.078 167.958 48.173 167.994C48.2701 168.027 48.3723 168.043 48.4797 168.043C48.5602 168.043 48.6263 168.039 48.6779 168.031C48.7296 168.02 48.7709 168.012 48.8019 168.006L48.9506 168.663C48.901 168.681 48.8318 168.7 48.743 168.718C48.6542 168.739 48.5416 168.749 48.4053 168.749C48.1988 168.749 47.9964 168.705 47.7981 168.616C47.6019 168.527 47.4388 168.392 47.3087 168.21C47.1806 168.029 47.1166 167.799 47.1166 167.523V162.789ZM51.9075 168.787C51.449 168.787 51.0535 168.685 50.721 168.483C50.3906 168.279 50.1355 167.994 49.9558 167.628C49.7782 167.26 49.6894 166.833 49.6894 166.346C49.6894 165.858 49.7782 165.429 49.9558 165.057C50.1355 164.683 50.3854 164.392 50.7055 164.183C51.0277 163.973 51.4036 163.867 51.8331 163.867C52.081 163.867 52.3257 163.909 52.5673 163.991C52.809 164.074 53.0289 164.208 53.2272 164.394C53.4254 164.578 53.5834 164.821 53.7011 165.125C53.8189 165.429 53.8777 165.802 53.8777 166.246V166.556H50.2098V165.924H53.1342C53.1342 165.656 53.0805 165.416 52.9731 165.205C52.8678 164.995 52.7171 164.829 52.5209 164.707C52.3267 164.585 52.0975 164.524 51.8331 164.524C51.5419 164.524 51.29 164.596 51.0772 164.741C50.8666 164.883 50.7045 165.069 50.5909 165.298C50.4773 165.528 50.4205 165.773 50.4205 166.036V166.457C50.4205 166.816 50.4825 167.121 50.6064 167.371C50.7324 167.619 50.9069 167.808 51.1299 167.938C51.353 168.066 51.6121 168.13 51.9075 168.13C52.0995 168.13 52.273 168.103 52.4279 168.049C52.5849 167.994 52.7202 167.911 52.8337 167.802C52.9473 167.69 53.0351 167.552 53.0971 167.386L53.8034 167.585C53.729 167.824 53.6041 168.035 53.4285 168.217C53.253 168.396 53.0361 168.537 52.778 168.638C52.5198 168.737 52.2297 168.787 51.9075 168.787ZM54.9899 168.688V163.929H55.6962V164.648H55.7457C55.8325 164.412 55.9894 164.221 56.2166 164.075C56.4438 163.928 56.6999 163.855 56.9849 163.855C57.0386 163.855 57.1057 163.856 57.1863 163.858C57.2668 163.86 57.3277 163.863 57.369 163.867V164.611C57.3442 164.604 57.2875 164.595 57.1986 164.583C57.1119 164.568 57.02 164.561 56.9229 164.561C56.6916 164.561 56.4851 164.61 56.3034 164.707C56.1237 164.802 55.9812 164.934 55.8759 165.103C55.7726 165.271 55.721 165.462 55.721 165.676V168.688H54.9899ZM60.6892 170.472V163.929H61.3955V164.685H61.4822C61.5359 164.602 61.6103 164.497 61.7053 164.369C61.8024 164.239 61.9407 164.123 62.1204 164.022C62.3021 163.919 62.5479 163.867 62.8577 163.867C63.2584 163.867 63.6115 163.967 63.9172 164.168C64.2228 164.368 64.4614 164.652 64.6328 165.02C64.8042 165.387 64.8899 165.821 64.8899 166.321C64.8899 166.825 64.8042 167.261 64.6328 167.631C64.4614 167.999 64.2239 168.284 63.9203 168.486C63.6167 168.686 63.2666 168.787 62.8701 168.787C62.5644 168.787 62.3197 168.736 62.1359 168.635C61.9521 168.532 61.8106 168.415 61.7115 168.285C61.6123 168.153 61.5359 168.043 61.4822 167.956H61.4203V170.472H60.6892ZM61.4079 166.308C61.4079 166.668 61.4606 166.985 61.5659 167.259C61.6712 167.532 61.8251 167.746 62.0275 167.901C62.2299 168.053 62.4777 168.13 62.771 168.13C63.0766 168.13 63.3317 168.049 63.5361 167.888C63.7427 167.725 63.8975 167.506 64.0008 167.231C64.1061 166.955 64.1588 166.647 64.1588 166.308C64.1588 165.974 64.1072 165.672 64.0039 165.404C63.9027 165.133 63.7489 164.919 63.5423 164.762C63.3379 164.603 63.0807 164.524 62.771 164.524C62.4736 164.524 62.2237 164.599 62.0213 164.75C61.8189 164.899 61.666 165.107 61.5628 165.376C61.4595 165.642 61.4079 165.953 61.4079 166.308ZM67.4054 168.799C67.1038 168.799 66.8302 168.742 66.5844 168.629C66.3387 168.513 66.1435 168.347 65.9989 168.13C65.8544 167.911 65.7821 167.647 65.7821 167.337C65.7821 167.064 65.8358 166.843 65.9432 166.674C66.0506 166.502 66.1941 166.368 66.3738 166.271C66.5535 166.174 66.7517 166.102 66.9686 166.054C67.1875 166.005 67.4074 165.966 67.6284 165.937C67.9176 165.899 68.152 165.872 68.3316 165.853C68.5134 165.832 68.6456 165.798 68.7282 165.751C68.8128 165.703 68.8552 165.621 68.8552 165.503V165.478C68.8552 165.172 68.7715 164.935 68.6043 164.766C68.439 164.596 68.1881 164.512 67.8515 164.512C67.5024 164.512 67.2288 164.588 67.0305 164.741C66.8323 164.894 66.6929 165.057 66.6123 165.23L65.9184 164.982C66.0423 164.693 66.2075 164.468 66.4141 164.307C66.6226 164.144 66.8498 164.03 67.0956 163.966C67.3434 163.9 67.5871 163.867 67.8267 163.867C67.9795 163.867 68.1551 163.886 68.3533 163.923C68.5537 163.958 68.7468 164.031 68.9326 164.143C69.1206 164.254 69.2765 164.423 69.4004 164.648C69.5243 164.873 69.5863 165.175 69.5863 165.552V168.688H68.8552V168.043H68.818C68.7684 168.146 68.6858 168.257 68.5702 168.375C68.4545 168.492 68.3007 168.592 68.1086 168.675C67.9165 168.758 67.6821 168.799 67.4054 168.799ZM67.5169 168.142C67.806 168.142 68.0497 168.085 68.248 167.972C68.4483 167.858 68.5991 167.712 68.7003 167.532C68.8036 167.352 68.8552 167.163 68.8552 166.965V166.296C68.8242 166.333 68.756 166.367 68.6507 166.398C68.5475 166.427 68.4277 166.453 68.2914 166.476C68.1571 166.496 68.026 166.515 67.8979 166.531C67.772 166.546 67.6697 166.558 67.5912 166.569C67.4012 166.593 67.2236 166.634 67.0584 166.689C66.8953 166.743 66.7631 166.825 66.6619 166.934C66.5628 167.041 66.5132 167.188 66.5132 167.374C66.5132 167.628 66.6072 167.82 66.7951 167.95C66.9851 168.078 67.2257 168.142 67.5169 168.142ZM74.2912 164.995L73.6344 165.181C73.5931 165.071 73.5322 164.965 73.4517 164.862C73.3732 164.756 73.2658 164.67 73.1295 164.601C72.9932 164.533 72.8187 164.499 72.6059 164.499C72.3147 164.499 72.0721 164.566 71.8779 164.701C71.6859 164.833 71.5898 165.001 71.5898 165.205C71.5898 165.387 71.6559 165.531 71.7881 165.636C71.9203 165.741 72.1268 165.829 72.4077 165.899L73.114 166.073C73.5394 166.176 73.8564 166.334 74.065 166.547C74.2736 166.758 74.3779 167.029 74.3779 167.362C74.3779 167.634 74.2994 167.878 74.1425 168.093C73.9876 168.307 73.7707 168.477 73.4919 168.601C73.2131 168.725 72.8889 168.787 72.5192 168.787C72.0339 168.787 71.6322 168.681 71.3141 168.471C70.9961 168.26 70.7947 167.952 70.71 167.547L71.404 167.374C71.47 167.63 71.595 167.822 71.7788 167.95C71.9647 168.078 72.2073 168.142 72.5068 168.142C72.8476 168.142 73.1181 168.07 73.3184 167.925C73.5208 167.779 73.622 167.603 73.622 167.399C73.622 167.234 73.5642 167.095 73.4486 166.984C73.3329 166.87 73.1553 166.785 72.9157 166.73L72.1227 166.544C71.6869 166.441 71.3668 166.28 71.1623 166.064C70.9599 165.845 70.8587 165.571 70.8587 165.243C70.8587 164.974 70.9341 164.737 71.0849 164.53C71.2377 164.324 71.4453 164.162 71.7076 164.044C71.9719 163.926 72.2714 163.867 72.6059 163.867C73.0768 163.867 73.4465 163.97 73.715 164.177C73.9855 164.384 74.1776 164.656 74.2912 164.995ZM78.8489 164.995L78.1922 165.181C78.1509 165.071 78.0899 164.965 78.0094 164.862C77.9309 164.756 77.8235 164.67 77.6872 164.601C77.5509 164.533 77.3764 164.499 77.1637 164.499C76.8725 164.499 76.6298 164.566 76.4357 164.701C76.2436 164.833 76.1476 165.001 76.1476 165.205C76.1476 165.387 76.2137 165.531 76.3458 165.636C76.478 165.741 76.6845 165.829 76.9654 165.899L77.6717 166.073C78.0972 166.176 78.4142 166.334 78.6228 166.547C78.8314 166.758 78.9357 167.029 78.9357 167.362C78.9357 167.634 78.8572 167.878 78.7002 168.093C78.5453 168.307 78.3285 168.477 78.0497 168.601C77.7709 168.725 77.4466 168.787 77.0769 168.787C76.5916 168.787 76.1899 168.681 75.8719 168.471C75.5538 168.26 75.3525 167.952 75.2678 167.547L75.9617 167.374C76.0278 167.63 76.1527 167.822 76.3365 167.95C76.5224 168.078 76.7651 168.142 77.0645 168.142C77.4053 168.142 77.6759 168.07 77.8762 167.925C78.0786 167.779 78.1798 167.603 78.1798 167.399C78.1798 167.234 78.122 167.095 78.0063 166.984C77.8906 166.87 77.713 166.785 77.4735 166.73L76.6804 166.544C76.2446 166.441 75.9245 166.28 75.7201 166.064C75.5177 165.845 75.4165 165.571 75.4165 165.243C75.4165 164.974 75.4919 164.737 75.6426 164.53C75.7955 164.324 76.003 164.162 76.2653 164.044C76.5296 163.926 76.8291 163.867 77.1637 163.867C77.6346 163.867 78.0042 163.97 78.2727 164.177C78.5433 164.384 78.7353 164.656 78.8489 164.995ZM81.1142 168.688L79.6644 163.929H80.4327L81.4612 167.572H81.5108L82.5269 163.929H83.3075L84.3113 167.56H84.3608L85.3893 163.929H86.1576L84.7078 168.688H83.9891L82.9482 165.032H82.8738L81.833 168.688H81.1142ZM88.8953 168.787C88.4658 168.787 88.0889 168.684 87.7646 168.48C87.4424 168.275 87.1905 167.989 87.0087 167.622C86.8291 167.254 86.7392 166.825 86.7392 166.333C86.7392 165.837 86.8291 165.405 87.0087 165.035C87.1905 164.665 87.4424 164.378 87.7646 164.174C88.0889 163.969 88.4658 163.867 88.8953 163.867C89.3249 163.867 89.7008 163.969 90.023 164.174C90.3472 164.378 90.5992 164.665 90.7788 165.035C90.9606 165.405 91.0515 165.837 91.0515 166.333C91.0515 166.825 90.9606 167.254 90.7788 167.622C90.5992 167.989 90.3472 168.275 90.023 168.48C89.7008 168.684 89.3249 168.787 88.8953 168.787ZM88.8953 168.13C89.2216 168.13 89.4901 168.046 89.7008 167.879C89.9114 167.712 90.0674 167.492 90.1686 167.219C90.2698 166.946 90.3204 166.651 90.3204 166.333C90.3204 166.015 90.2698 165.719 90.1686 165.444C90.0674 165.169 89.9114 164.947 89.7008 164.778C89.4901 164.609 89.2216 164.524 88.8953 164.524C88.569 164.524 88.3005 164.609 88.0899 164.778C87.8792 164.947 87.7233 165.169 87.6221 165.444C87.5209 165.719 87.4703 166.015 87.4703 166.333C87.4703 166.651 87.5209 166.946 87.6221 167.219C87.7233 167.492 87.8792 167.712 88.0899 167.879C88.3005 168.046 88.569 168.13 88.8953 168.13ZM92.1675 168.688V163.929H92.8738V164.648H92.9234C93.0101 164.412 93.1671 164.221 93.3942 164.075C93.6214 163.928 93.8775 163.855 94.1625 163.855C94.2162 163.855 94.2833 163.856 94.3639 163.858C94.4444 163.86 94.5053 163.863 94.5466 163.867V164.611C94.5219 164.604 94.4651 164.595 94.3763 164.583C94.2895 164.568 94.1976 164.561 94.1005 164.561C93.8692 164.561 93.6627 164.61 93.481 164.707C93.3013 164.802 93.1588 164.934 93.0535 165.103C92.9502 165.271 92.8986 165.462 92.8986 165.676V168.688H92.1675ZM97.0652 168.787C96.6687 168.787 96.3186 168.686 96.015 168.486C95.7114 168.284 95.4739 167.999 95.3025 167.631C95.1311 167.261 95.0454 166.825 95.0454 166.321C95.0454 165.821 95.1311 165.387 95.3025 165.02C95.4739 164.652 95.7125 164.368 96.0181 164.168C96.3238 163.967 96.6769 163.867 97.0776 163.867C97.3874 163.867 97.6321 163.919 97.8118 164.022C97.9935 164.123 98.1319 164.239 98.2269 164.369C98.324 164.497 98.3994 164.602 98.4531 164.685H98.515V162.343H99.2461V168.688H98.5398V167.956H98.4531C98.3994 168.043 98.3229 168.153 98.2238 168.285C98.1247 168.415 97.9832 168.532 97.7994 168.635C97.6156 168.736 97.3709 168.787 97.0652 168.787ZM97.1643 168.13C97.4576 168.13 97.7054 168.053 97.9078 167.901C98.1102 167.746 98.2641 167.532 98.3694 167.259C98.4747 166.985 98.5274 166.668 98.5274 166.308C98.5274 165.953 98.4758 165.642 98.3725 165.376C98.2693 165.107 98.1164 164.899 97.914 164.75C97.7116 164.599 97.4617 164.524 97.1643 164.524C96.8546 164.524 96.5964 164.603 96.3899 164.762C96.1854 164.919 96.0316 165.133 95.9283 165.404C95.8271 165.672 95.7765 165.974 95.7765 166.308C95.7765 166.647 95.8281 166.955 95.9314 167.231C96.0367 167.506 96.1916 167.725 96.3961 167.888C96.6026 168.049 96.8587 168.13 97.1643 168.13Z" fill="#9CA3AF"/>
<path d="M35.8086 177.055H209.191" stroke="#D1D5DB" stroke-width="0.545226"/>
<g filter="url(#filter0_d_5555_73525)">
<rect x="93.5547" y="207.047" width="57.8945" height="24.9045" rx="12.4523" fill="#3B82F6"/>
<path d="M111.697 222.5V216.156H112.654V221.676H115.529V222.5H111.697ZM118.551 222.596C118.105 222.596 117.716 222.494 117.383 222.289C117.051 222.085 116.793 221.799 116.609 221.431C116.425 221.064 116.333 220.634 116.333 220.143C116.333 219.649 116.425 219.217 116.609 218.848C116.793 218.478 117.051 218.191 117.383 217.986C117.716 217.782 118.105 217.68 118.551 217.68C118.997 217.68 119.386 217.782 119.719 217.986C120.051 218.191 120.31 218.478 120.493 218.848C120.677 219.217 120.769 219.649 120.769 220.143C120.769 220.634 120.677 221.064 120.493 221.431C120.31 221.799 120.051 222.085 119.719 222.289C119.386 222.494 118.997 222.596 118.551 222.596ZM118.554 221.818C118.843 221.818 119.083 221.742 119.273 221.589C119.463 221.436 119.603 221.233 119.694 220.979C119.787 220.725 119.834 220.445 119.834 220.139C119.834 219.836 119.787 219.557 119.694 219.303C119.603 219.047 119.463 218.841 119.273 218.687C119.083 218.532 118.843 218.454 118.554 218.454C118.263 218.454 118.021 218.532 117.829 218.687C117.639 218.841 117.498 219.047 117.405 219.303C117.314 219.557 117.269 219.836 117.269 220.139C117.269 220.445 117.314 220.725 117.405 220.979C117.498 221.233 117.639 221.436 117.829 221.589C118.021 221.742 118.263 221.818 118.554 221.818ZM123.798 224.384C123.42 224.384 123.095 224.334 122.822 224.235C122.552 224.136 122.331 224.005 122.159 223.841C121.988 223.678 121.86 223.5 121.775 223.305L122.571 222.977C122.627 223.068 122.701 223.164 122.794 223.265C122.889 223.368 123.017 223.456 123.179 223.528C123.342 223.601 123.551 223.637 123.807 223.637C124.158 223.637 124.449 223.551 124.678 223.38C124.907 223.21 125.022 222.94 125.022 222.568V221.633H124.963C124.907 221.734 124.827 221.846 124.721 221.97C124.618 222.094 124.476 222.202 124.294 222.292C124.112 222.383 123.876 222.429 123.584 222.429C123.208 222.429 122.87 222.341 122.568 222.165C122.269 221.988 122.031 221.727 121.856 221.382C121.682 221.035 121.596 220.608 121.596 220.102C121.596 219.596 121.681 219.163 121.853 218.801C122.026 218.44 122.264 218.163 122.565 217.971C122.867 217.777 123.208 217.68 123.591 217.68C123.886 217.68 124.124 217.729 124.306 217.828C124.488 217.925 124.629 218.039 124.731 218.169C124.834 218.299 124.913 218.414 124.969 218.513H125.037V217.742H125.945V222.605C125.945 223.014 125.85 223.35 125.66 223.612C125.47 223.874 125.213 224.069 124.889 224.195C124.566 224.321 124.203 224.384 123.798 224.384ZM123.789 221.66C124.055 221.66 124.28 221.599 124.464 221.475C124.65 221.349 124.79 221.169 124.885 220.936C124.983 220.7 125.031 220.418 125.031 220.09C125.031 219.77 124.984 219.488 124.889 219.244C124.794 219 124.654 218.81 124.47 218.674C124.287 218.536 124.059 218.467 123.789 218.467C123.51 218.467 123.278 218.539 123.092 218.683C122.906 218.826 122.765 219.02 122.67 219.266C122.578 219.512 122.531 219.786 122.531 220.09C122.531 220.402 122.579 220.675 122.674 220.911C122.769 221.146 122.909 221.33 123.095 221.462C123.283 221.594 123.514 221.66 123.789 221.66ZM127.187 222.5V217.742H128.113V222.5H127.187ZM127.655 217.007C127.494 217.007 127.355 216.954 127.24 216.846C127.126 216.737 127.069 216.607 127.069 216.456C127.069 216.303 127.126 216.173 127.24 216.066C127.355 215.956 127.494 215.902 127.655 215.902C127.816 215.902 127.953 215.956 128.067 216.066C128.183 216.173 128.24 216.303 128.24 216.456C128.24 216.607 128.183 216.737 128.067 216.846C127.953 216.954 127.816 217.007 127.655 217.007ZM130.286 219.675V222.5H129.36V217.742H130.249V218.516H130.308C130.417 218.264 130.588 218.062 130.822 217.909C131.057 217.756 131.354 217.68 131.711 217.68C132.035 217.68 132.319 217.748 132.563 217.884C132.806 218.018 132.995 218.219 133.13 218.485C133.264 218.752 133.331 219.081 133.331 219.473V222.5H132.405V219.585C132.405 219.24 132.315 218.97 132.135 218.776C131.956 218.58 131.709 218.482 131.395 218.482C131.18 218.482 130.989 218.529 130.822 218.621C130.657 218.714 130.525 218.851 130.428 219.03C130.333 219.208 130.286 219.423 130.286 219.675Z" fill="white"/>
</g>
<defs>
<filter id="filter0_d_5555_73525" x="91.5547" y="206.047" width="61.8945" height="28.9062" filterUnits="userSpaceOnUse" color-interpolation-filters="sRGB">
<feFlood flood-opacity="0" result="BackgroundImageFix"/>
<feColorMatrix in="SourceAlpha" type="matrix" values="0 0 0 0 0 0 0 0 0 0 0 0 0 0 0 0 0 0 127 0" result="hardAlpha"/>
<feOffset dy="1"/>
<feGaussianBlur stdDeviation="1"/>
<feColorMatrix type="matrix" values="0 0 0 0 0 0 0 0 0 0 0 0 0 0 0 0 0 0 0.05 0"/>
<feBlend mode="normal" in2="BackgroundImageFix" result="effect1_dropShadow_5555_73525"/>
<feBlend mode="normal" in="SourceGraphic" in2="effect1_dropShadow_5555_73525" result="shape"/>
</filter>
</defs>
</svg>
