<svg width="245" height="245" viewBox="0 0 245 245" fill="none" xmlns="http://www.w3.org/2000/svg">
<rect width="245" height="245" rx="8" fill="white"/>
<path d="M52.5321 27.9766V16.0807H57.2253C58.1237 16.0807 58.8905 16.2414 59.5255 16.5628C60.1645 16.8804 60.6504 17.3315 60.9835 17.9162C61.3203 18.4971 61.4888 19.1805 61.4888 19.9666C61.4888 20.7566 61.3184 21.4362 60.9776 22.0054C60.6369 22.5708 60.1432 23.0045 59.4965 23.3065C58.8537 23.6086 58.0753 23.7596 57.1615 23.7596H54.019V21.7382H56.7549C57.235 21.7382 57.6339 21.6724 57.9514 21.5407C58.2689 21.4091 58.5052 21.2116 58.66 20.9483C58.8188 20.6849 58.8982 20.3577 58.8982 19.9666C58.8982 19.5716 58.8188 19.2386 58.66 18.9676C58.5052 18.6965 58.267 18.4913 57.9456 18.3519C57.6281 18.2086 57.2273 18.1369 56.7432 18.1369H55.0471V27.9766H52.5321ZM58.9563 22.563L61.9128 27.9766H59.1363L56.2437 22.563H58.9563ZM67.1419 28.1508C66.2242 28.1508 65.4342 27.9649 64.7721 27.5932C64.1138 27.2176 63.6065 26.6871 63.2502 26.0017C62.894 25.3124 62.7158 24.4973 62.7158 23.5563C62.7158 22.6385 62.894 21.8331 63.2502 21.1399C63.6065 20.4468 64.108 19.9066 64.7546 19.5194C65.4052 19.1321 66.168 18.9385 67.0432 18.9385C67.6318 18.9385 68.1797 19.0334 68.687 19.2231C69.1981 19.409 69.6435 19.6897 70.023 20.0654C70.4063 20.441 70.7045 20.9134 70.9175 21.4826C71.1304 22.048 71.2369 22.7102 71.2369 23.4692V24.1487H63.7033V22.6153H68.9077C68.9077 22.259 68.8303 21.9434 68.6754 21.6685C68.5205 21.3936 68.3056 21.1787 68.0306 21.0238C67.7596 20.865 67.444 20.7856 67.0838 20.7856C66.7082 20.7856 66.3752 20.8727 66.0848 21.047C65.7982 21.2174 65.5736 21.4478 65.411 21.7382C65.2484 22.0248 65.1651 22.3442 65.1612 22.6966V24.1546C65.1612 24.596 65.2425 24.9774 65.4052 25.2988C65.5717 25.6202 65.806 25.8681 66.108 26.0423C66.4101 26.2166 66.7683 26.3037 67.1826 26.3037C67.4575 26.3037 67.7092 26.265 67.9377 26.1875C68.1662 26.1101 68.3617 25.9939 68.5244 25.839C68.687 25.6841 68.8109 25.4944 68.8961 25.2698L71.1847 25.4208C71.0685 25.9707 70.8303 26.4509 70.4702 26.8613C70.114 27.2679 69.6531 27.5855 69.0878 27.8139C68.5263 28.0385 67.8777 28.1508 67.1419 28.1508ZM76.8712 31.5081C76.0696 31.5081 75.3823 31.3978 74.8092 31.1771C74.2399 30.9602 73.7869 30.664 73.45 30.2884C73.1131 29.9127 72.8943 29.4906 72.7936 29.0221L75.0822 28.7142C75.1519 28.8924 75.2622 29.0589 75.4133 29.2138C75.5643 29.3687 75.7637 29.4926 76.0115 29.5855C76.2632 29.6823 76.5692 29.7307 76.9293 29.7307C77.4675 29.7307 77.9109 29.5991 78.2594 29.3358C78.6118 29.0763 78.788 28.6407 78.788 28.0288V26.3966H78.6835C78.575 26.6445 78.4124 26.8788 78.1955 27.0995C77.9787 27.3202 77.6999 27.5003 77.3591 27.6397C77.0183 27.7791 76.6118 27.8488 76.1393 27.8488C75.4694 27.8488 74.8595 27.6939 74.3096 27.3841C73.7636 27.0704 73.328 26.5922 73.0027 25.9494C72.6813 25.3027 72.5206 24.4856 72.5206 23.4982C72.5206 22.4875 72.6852 21.6433 73.0143 20.9657C73.3435 20.288 73.7811 19.7807 74.3271 19.4439C74.8769 19.107 75.4791 18.9385 76.1335 18.9385C76.6331 18.9385 77.0513 19.0237 77.3882 19.1941C77.7251 19.3606 77.9961 19.5697 78.2013 19.8214C78.4105 20.0692 78.5712 20.3132 78.6835 20.5533H78.7764V19.0547H81.2334V28.0637C81.2334 28.8227 81.0475 29.4577 80.6758 29.9689C80.304 30.48 79.789 30.8634 79.1307 31.119C78.4763 31.3784 77.7231 31.5081 76.8712 31.5081ZM76.9235 25.99C77.3223 25.99 77.6592 25.8913 77.9342 25.6938C78.213 25.4925 78.4259 25.2059 78.5731 24.8342C78.7241 24.4585 78.7996 24.0093 78.7996 23.4866C78.7996 22.9638 78.7261 22.5107 78.5789 22.1274C78.4318 21.7402 78.2188 21.44 77.94 21.2271C77.6612 21.0141 77.3223 20.9076 76.9235 20.9076C76.5169 20.9076 76.1742 21.018 75.8954 21.2387C75.6166 21.4555 75.4055 21.7576 75.2622 22.1448C75.119 22.532 75.0473 22.9793 75.0473 23.4866C75.0473 24.0016 75.119 24.4469 75.2622 24.8225C75.4094 25.1943 75.6204 25.4828 75.8954 25.688C76.1742 25.8894 76.5169 25.99 76.9235 25.99ZM83.2025 27.9766V19.0547H85.6769V27.9766H83.2025ZM84.4455 17.9046C84.0776 17.9046 83.762 17.7826 83.4987 17.5387C83.2393 17.2908 83.1095 16.9946 83.1095 16.65C83.1095 16.3092 83.2393 16.0168 83.4987 15.7729C83.762 15.525 84.0776 15.4011 84.4455 15.4011C84.8134 15.4011 85.127 15.525 85.3865 15.7729C85.6498 16.0168 85.7815 16.3092 85.7815 16.65C85.7815 16.9946 85.6498 17.2908 85.3865 17.5387C85.127 17.7826 84.8134 17.9046 84.4455 17.9046ZM95.0823 21.5988L92.817 21.7382C92.7783 21.5446 92.695 21.3703 92.5673 21.2154C92.4395 21.0567 92.271 20.9308 92.0619 20.8379C91.8567 20.7411 91.6108 20.6927 91.3242 20.6927C90.9409 20.6927 90.6175 20.774 90.3542 20.9366C90.0909 21.0954 89.9592 21.3084 89.9592 21.5756C89.9592 21.7886 90.0444 21.9686 90.2148 22.1158C90.3852 22.2629 90.6776 22.381 91.0919 22.4701L92.7067 22.7954C93.5741 22.9735 94.2208 23.26 94.6467 23.655C95.0727 24.05 95.2856 24.5689 95.2856 25.2117C95.2856 25.7964 95.1133 26.3095 94.7687 26.751C94.4279 27.1924 93.9594 27.5371 93.363 27.7849C92.7706 28.0288 92.0871 28.1508 91.3126 28.1508C90.1316 28.1508 89.1906 27.9049 88.4897 27.4131C87.7927 26.9175 87.3841 26.2437 87.2641 25.3918L89.6979 25.264C89.7714 25.6241 89.9496 25.899 90.2322 26.0888C90.5149 26.2747 90.877 26.3676 91.3184 26.3676C91.7521 26.3676 92.1006 26.2843 92.364 26.1178C92.6312 25.9475 92.7667 25.7287 92.7706 25.4615C92.7667 25.2369 92.6718 25.0529 92.4859 24.9097C92.3001 24.7625 92.0135 24.6502 91.6263 24.5728L90.0812 24.2649C89.2099 24.0907 88.5613 23.7886 88.1354 23.3588C87.7133 22.929 87.5022 22.381 87.5022 21.715C87.5022 21.1419 87.6571 20.6482 87.9669 20.2338C88.2806 19.8195 88.7201 19.5 89.2854 19.2754C89.8547 19.0508 90.5207 18.9385 91.2836 18.9385C92.4104 18.9385 93.2972 19.1767 93.9439 19.653C94.5944 20.1293 94.9739 20.7779 95.0823 21.5988ZM101.589 19.0547V20.9134H96.2165V19.0547H101.589ZM97.4363 16.9171H99.9107V25.2349C99.9107 25.4634 99.9455 25.6415 100.015 25.7693C100.085 25.8932 100.182 25.9804 100.306 26.0307C100.433 26.081 100.581 26.1062 100.747 26.1062C100.863 26.1062 100.979 26.0965 101.096 26.0772C101.212 26.0539 101.301 26.0365 101.363 26.0249L101.752 27.8662C101.628 27.9049 101.454 27.9495 101.229 27.9998C101.005 28.054 100.732 28.0869 100.41 28.0985C99.8139 28.1218 99.2911 28.0424 98.8419 27.8604C98.3966 27.6784 98.05 27.3957 97.8022 27.0123C97.5544 26.629 97.4324 26.1449 97.4363 25.5602V16.9171ZM103.201 27.9766V19.0547H105.6V20.6114H105.693C105.856 20.0576 106.129 19.6394 106.512 19.3567C106.895 19.0702 107.337 18.9269 107.836 18.9269C107.96 18.9269 108.094 18.9346 108.237 18.9501C108.38 18.9656 108.506 18.9869 108.615 19.014V21.2096C108.499 21.1748 108.338 21.1438 108.133 21.1167C107.927 21.0896 107.74 21.076 107.569 21.076C107.205 21.076 106.88 21.1554 106.593 21.3142C106.311 21.4691 106.086 21.6859 105.92 21.9647C105.757 22.2436 105.676 22.565 105.676 22.929V27.9766H103.201ZM112.183 28.145C111.613 28.145 111.106 28.0463 110.661 27.8488C110.215 27.6474 109.863 27.3512 109.604 26.9601C109.348 26.5651 109.22 26.0733 109.22 25.4847C109.22 24.989 109.311 24.5728 109.493 24.2359C109.675 23.899 109.923 23.6279 110.237 23.4227C110.55 23.2175 110.907 23.0626 111.306 22.958C111.708 22.8535 112.13 22.7799 112.572 22.7373C113.091 22.6831 113.509 22.6327 113.826 22.5863C114.144 22.5359 114.374 22.4623 114.518 22.3655C114.661 22.2687 114.733 22.1254 114.733 21.9357V21.9009C114.733 21.533 114.616 21.2484 114.384 21.047C114.156 20.8456 113.83 20.745 113.408 20.745C112.963 20.745 112.609 20.8437 112.345 21.0412C112.082 21.2348 111.908 21.4788 111.822 21.7731L109.534 21.5872C109.65 21.0451 109.879 20.5765 110.219 20.1815C110.56 19.7827 111 19.4768 111.538 19.2638C112.08 19.0469 112.707 18.9385 113.42 18.9385C113.915 18.9385 114.39 18.9966 114.843 19.1128C115.3 19.2289 115.705 19.409 116.057 19.653C116.413 19.8969 116.694 20.2106 116.899 20.5939C117.104 20.9734 117.207 21.4284 117.207 21.9589V27.9766H114.86V26.7393H114.791C114.647 27.0182 114.456 27.2641 114.216 27.477C113.976 27.6861 113.687 27.8507 113.35 27.9708C113.013 28.0869 112.624 28.145 112.183 28.145ZM112.891 26.4373C113.255 26.4373 113.577 26.3657 113.855 26.2224C114.134 26.0752 114.353 25.8778 114.512 25.6299C114.671 25.3821 114.75 25.1013 114.75 24.7877V23.8409C114.673 23.8912 114.566 23.9377 114.431 23.9803C114.299 24.019 114.15 24.0558 113.983 24.0907C113.817 24.1216 113.65 24.1507 113.484 24.1778C113.317 24.201 113.166 24.2223 113.031 24.2417C112.74 24.2843 112.487 24.352 112.27 24.445C112.053 24.5379 111.884 24.6638 111.764 24.8225C111.644 24.9774 111.584 25.171 111.584 25.4034C111.584 25.7403 111.706 25.9978 111.95 26.1759C112.198 26.3502 112.512 26.4373 112.891 26.4373ZM123.872 19.0547V20.9134H118.499V19.0547H123.872ZM119.719 16.9171H122.194V25.2349C122.194 25.4634 122.228 25.6415 122.298 25.7693C122.368 25.8932 122.465 25.9804 122.589 26.0307C122.716 26.081 122.864 26.1062 123.03 26.1062C123.146 26.1062 123.262 26.0965 123.379 26.0772C123.495 26.0539 123.584 26.0365 123.646 26.0249L124.035 27.8662C123.911 27.9049 123.737 27.9495 123.512 27.9998C123.288 28.054 123.015 28.0869 122.693 28.0985C122.097 28.1218 121.574 28.0424 121.125 27.8604C120.68 27.6784 120.333 27.3957 120.085 27.0123C119.837 26.629 119.715 26.1449 119.719 25.5602V16.9171ZM125.484 27.9766V19.0547H127.959V27.9766H125.484ZM126.727 17.9046C126.359 17.9046 126.044 17.7826 125.78 17.5387C125.521 17.2908 125.391 16.9946 125.391 16.65C125.391 16.3092 125.521 16.0168 125.78 15.7729C126.044 15.525 126.359 15.4011 126.727 15.4011C127.095 15.4011 127.409 15.525 127.668 15.7729C127.931 16.0168 128.063 16.3092 128.063 16.65C128.063 16.9946 127.931 17.2908 127.668 17.5387C127.409 17.7826 127.095 17.9046 126.727 17.9046ZM133.972 28.1508C133.07 28.1508 132.289 27.9591 131.631 27.5758C130.977 27.1885 130.471 26.6503 130.115 25.961C129.759 25.2679 129.581 24.4643 129.581 23.5505C129.581 22.6289 129.759 21.8234 130.115 21.1341C130.471 20.441 130.977 19.9027 131.631 19.5194C132.289 19.1321 133.07 18.9385 133.972 18.9385C134.874 18.9385 135.652 19.1321 136.307 19.5194C136.965 19.9027 137.472 20.441 137.829 21.1341C138.185 21.8234 138.363 22.6289 138.363 23.5505C138.363 24.4643 138.185 25.2679 137.829 25.961C137.472 26.6503 136.965 27.1885 136.307 27.5758C135.652 27.9591 134.874 28.1508 133.972 28.1508ZM133.983 26.234C134.394 26.234 134.737 26.1178 135.012 25.8855C135.286 25.6493 135.494 25.3279 135.633 24.9213C135.776 24.5147 135.848 24.0519 135.848 23.533C135.848 23.0142 135.776 22.5514 135.633 22.1448C135.494 21.7382 135.286 21.4168 135.012 21.1806C134.737 20.9444 134.394 20.8263 133.983 20.8263C133.569 20.8263 133.221 20.9444 132.938 21.1806C132.659 21.4168 132.448 21.7382 132.305 22.1448C132.165 22.5514 132.096 23.0142 132.096 23.533C132.096 24.0519 132.165 24.5147 132.305 24.9213C132.448 25.3279 132.659 25.6493 132.938 25.8855C133.221 26.1178 133.569 26.234 133.983 26.234ZM142.446 22.8186V27.9766H139.972V19.0547H142.33V20.6288H142.435C142.632 20.1099 142.963 19.6994 143.428 19.3974C143.893 19.0915 144.456 18.9385 145.118 18.9385C145.738 18.9385 146.278 19.074 146.739 19.3451C147.2 19.6162 147.558 20.0034 147.814 20.5068C148.069 21.0063 148.197 21.6027 148.197 22.2958V27.9766H145.722V22.7373C145.726 22.1913 145.587 21.7653 145.304 21.4594C145.022 21.1496 144.632 20.9947 144.137 20.9947C143.804 20.9947 143.509 21.0664 143.254 21.2096C143.002 21.3529 142.805 21.562 142.661 21.837C142.522 22.108 142.45 22.4352 142.446 22.8186ZM153.979 27.9766V16.0807H161.856V18.1544H156.494V20.9889H161.333V23.0626H156.494V27.9766H153.979ZM166.877 28.1508C165.975 28.1508 165.195 27.9591 164.536 27.5758C163.882 27.1885 163.376 26.6503 163.02 25.961C162.664 25.2679 162.486 24.4643 162.486 23.5505C162.486 22.6289 162.664 21.8234 163.02 21.1341C163.376 20.441 163.882 19.9027 164.536 19.5194C165.195 19.1321 165.975 18.9385 166.877 18.9385C167.779 18.9385 168.558 19.1321 169.212 19.5194C169.87 19.9027 170.378 20.441 170.734 21.1341C171.09 21.8234 171.268 22.6289 171.268 23.5505C171.268 24.4643 171.09 25.2679 170.734 25.961C170.378 26.6503 169.87 27.1885 169.212 27.5758C168.558 27.9591 167.779 28.1508 166.877 28.1508ZM166.889 26.234C167.299 26.234 167.642 26.1178 167.917 25.8855C168.192 25.6493 168.399 25.3279 168.538 24.9213C168.682 24.5147 168.753 24.0519 168.753 23.533C168.753 23.0142 168.682 22.5514 168.538 22.1448C168.399 21.7382 168.192 21.4168 167.917 21.1806C167.642 20.9444 167.299 20.8263 166.889 20.8263C166.474 20.8263 166.126 20.9444 165.843 21.1806C165.564 21.4168 165.353 21.7382 165.21 22.1448C165.071 22.5514 165.001 23.0142 165.001 23.533C165.001 24.0519 165.071 24.5147 165.21 24.9213C165.353 25.3279 165.564 25.6493 165.843 25.8855C166.126 26.1178 166.474 26.234 166.889 26.234ZM172.877 27.9766V19.0547H175.276V20.6114H175.369C175.532 20.0576 175.805 19.6394 176.188 19.3567C176.571 19.0702 177.013 18.9269 177.512 18.9269C177.636 18.9269 177.77 18.9346 177.913 18.9501C178.057 18.9656 178.182 18.9869 178.291 19.014V21.2096C178.175 21.1748 178.014 21.1438 177.809 21.1167C177.603 21.0896 177.416 21.076 177.245 21.076C176.881 21.076 176.556 21.1554 176.269 21.3142C175.987 21.4691 175.762 21.6859 175.596 21.9647C175.433 22.2436 175.352 22.565 175.352 22.929V27.9766H172.877ZM179.57 27.9766V19.0547H181.928V20.6288H182.033C182.219 20.106 182.529 19.6936 182.962 19.3916C183.396 19.0895 183.915 18.9385 184.519 18.9385C185.131 18.9385 185.652 19.0915 186.081 19.3974C186.511 19.6994 186.798 20.1099 186.941 20.6288H187.034C187.216 20.1176 187.545 19.7091 188.022 19.4032C188.502 19.0934 189.069 18.9385 189.723 18.9385C190.556 18.9385 191.232 19.2038 191.751 19.7343C192.273 20.2609 192.535 21.0083 192.535 21.9764V27.9766H190.066V22.4643C190.066 21.9686 189.934 21.5969 189.671 21.349C189.408 21.1012 189.079 20.9773 188.684 20.9773C188.234 20.9773 187.884 21.1206 187.632 21.4071C187.381 21.6898 187.255 22.0635 187.255 22.5282V27.9766H184.856V22.412C184.856 21.9744 184.73 21.6259 184.478 21.3665C184.23 21.107 183.903 20.9773 183.497 20.9773C183.222 20.9773 182.974 21.047 182.753 21.1864C182.536 21.3219 182.364 21.5136 182.236 21.7614C182.108 22.0054 182.045 22.292 182.045 22.6211V27.9766H179.57Z" fill="#000824"/>
<path d="M48.2924 47.9766V40.8391H50.7041C51.2641 40.8391 51.7218 40.9401 52.0773 41.1423C52.4351 41.3421 52.6999 41.6128 52.8719 41.9543C53.0438 42.2958 53.1298 42.6769 53.1298 43.0974C53.1298 43.5179 53.0438 43.9001 52.8719 44.244C52.7022 44.5879 52.4397 44.862 52.0842 45.0665C51.7287 45.2686 51.2734 45.3697 50.7181 45.3697H48.9894V44.603H50.6902C51.0735 44.603 51.3814 44.5368 51.6137 44.4043C51.8461 44.2719 52.0145 44.093 52.1191 43.8676C52.226 43.6399 52.2794 43.3832 52.2794 43.0974C52.2794 42.8116 52.226 42.5561 52.1191 42.3307C52.0145 42.1053 51.8449 41.9287 51.6102 41.8009C51.3756 41.6708 51.0642 41.6058 50.6762 41.6058H49.1567V47.9766H48.2924ZM55.233 40.8391V47.9766H54.4105V40.8391H55.233ZM58.9839 48.0881C58.4681 48.0881 58.0231 47.9742 57.6491 47.7465C57.2773 47.5165 56.9904 47.1959 56.7883 46.7847C56.5884 46.3711 56.4885 45.8901 56.4885 45.3418C56.4885 44.7935 56.5884 44.3102 56.7883 43.892C56.9904 43.4715 57.2715 43.1439 57.6316 42.9092C57.9941 42.6722 58.417 42.5537 58.9002 42.5537C59.179 42.5537 59.4544 42.6002 59.7262 42.6931C59.998 42.7861 60.2455 42.9371 60.4685 43.1462C60.6916 43.353 60.8693 43.6271 61.0017 43.9687C61.1342 44.3102 61.2004 44.7308 61.2004 45.2303V45.5788H57.074V44.8678H60.364C60.364 44.5658 60.3036 44.2963 60.1827 44.0593C60.0643 43.8223 59.8946 43.6353 59.6739 43.4982C59.4555 43.3611 59.1976 43.2926 58.9002 43.2926C58.5726 43.2926 58.2892 43.3739 58.0499 43.5365C57.8129 43.6968 57.6305 43.906 57.5027 44.1639C57.3749 44.4218 57.311 44.6982 57.311 44.9933V45.4673C57.311 45.8716 57.3807 46.2143 57.5201 46.4954C57.6619 46.7742 57.8582 46.9868 58.1091 47.1332C58.36 47.2772 58.6516 47.3492 58.9839 47.3492C59.1999 47.3492 59.3951 47.319 59.5694 47.2586C59.7459 47.1959 59.8981 47.103 60.0259 46.9798C60.1537 46.8544 60.2525 46.6987 60.3222 46.5128L61.1168 46.7359C61.0331 47.0054 60.8925 47.2424 60.6951 47.4468C60.4976 47.649 60.2536 47.807 59.9632 47.9208C59.6728 48.0323 59.3463 48.0881 58.9839 48.0881ZM64.0268 48.102C63.6876 48.102 63.3798 48.0381 63.1033 47.9103C62.8268 47.7802 62.6072 47.5932 62.4446 47.3492C62.2819 47.103 62.2006 46.8056 62.2006 46.4571C62.2006 46.1504 62.261 45.9018 62.3819 45.7112C62.5027 45.5184 62.6641 45.3674 62.8663 45.2582C63.0684 45.149 63.2915 45.0677 63.5354 45.0142C63.7817 44.9585 64.0291 44.9143 64.2778 44.8818C64.603 44.84 64.8667 44.8086 65.0689 44.7877C65.2733 44.7645 65.422 44.7261 65.515 44.6727C65.6102 44.6192 65.6579 44.5263 65.6579 44.3939V44.366C65.6579 44.0221 65.5638 43.7549 65.3756 43.5644C65.1897 43.3739 64.9074 43.2786 64.5287 43.2786C64.136 43.2786 63.8282 43.3646 63.6051 43.5365C63.3821 43.7085 63.2252 43.892 63.1346 44.0872L62.354 43.8084C62.4934 43.4831 62.6792 43.2298 62.9116 43.0486C63.1463 42.8651 63.4018 42.7373 63.6783 42.6653C63.9571 42.5909 64.2313 42.5537 64.5008 42.5537C64.6727 42.5537 64.8702 42.5746 65.0933 42.6165C65.3186 42.656 65.5359 42.7384 65.745 42.8639C65.9564 42.9894 66.1318 43.1787 66.2712 43.432C66.4106 43.6852 66.4803 44.0244 66.4803 44.4496V47.9766H65.6579V47.2517H65.616C65.5603 47.3678 65.4673 47.4921 65.3372 47.6246C65.2071 47.757 65.034 47.8697 64.8179 47.9626C64.6019 48.0556 64.3382 48.102 64.0268 48.102ZM64.1523 47.3632C64.4776 47.3632 64.7517 47.2993 64.9748 47.1715C65.2001 47.0437 65.3698 46.8788 65.4836 46.6766C65.5998 46.4745 65.6579 46.2619 65.6579 46.0388V45.2861C65.623 45.3279 65.5463 45.3662 65.4278 45.4011C65.3117 45.4336 65.1769 45.4626 65.0236 45.4882C64.8725 45.5114 64.725 45.5323 64.581 45.5509C64.4392 45.5672 64.3242 45.5811 64.2359 45.5927C64.0222 45.6206 63.8224 45.6659 63.6365 45.7287C63.4529 45.7891 63.3042 45.8808 63.1904 46.004C63.0789 46.1248 63.0231 46.2898 63.0231 46.4989C63.0231 46.7847 63.1288 47.0007 63.3403 47.1471C63.554 47.2912 63.8247 47.3632 64.1523 47.3632ZM71.7734 43.8223L71.0345 44.0314C70.988 43.9083 70.9195 43.7886 70.8289 43.6725C70.7406 43.554 70.6198 43.4564 70.4664 43.3797C70.3131 43.303 70.1168 43.2647 69.8775 43.2647C69.5499 43.2647 69.2769 43.3402 69.0585 43.4912C68.8424 43.6399 68.7343 43.8293 68.7343 44.0593C68.7343 44.2638 68.8087 44.4252 68.9574 44.5437C69.1061 44.6622 69.3384 44.761 69.6544 44.84L70.449 45.0351C70.9276 45.1513 71.2843 45.329 71.5189 45.5684C71.7536 45.8053 71.8709 46.1109 71.8709 46.4849C71.8709 46.7916 71.7826 47.0658 71.6061 47.3074C71.4318 47.5491 71.1879 47.7396 70.8742 47.879C70.5605 48.0184 70.1958 48.0881 69.7799 48.0881C69.2339 48.0881 68.782 47.9696 68.4242 47.7326C68.0664 47.4956 67.8398 47.1494 67.7446 46.694L68.5252 46.4989C68.5996 46.787 68.7401 47.0031 68.9469 47.1471C69.156 47.2912 69.429 47.3632 69.7659 47.3632C70.1493 47.3632 70.4537 47.2819 70.679 47.1192C70.9067 46.9543 71.0206 46.7568 71.0206 46.5268C71.0206 46.3409 70.9555 46.1852 70.8254 46.0598C70.6953 45.932 70.4955 45.8367 70.226 45.774L69.3338 45.5649C68.8435 45.4487 68.4834 45.2686 68.2534 45.0247C68.0257 44.7784 67.9118 44.4705 67.9118 44.1011C67.9118 43.7991 67.9967 43.5319 68.1663 43.2995C68.3382 43.0672 68.5717 42.8848 68.8668 42.7524C69.1642 42.6199 69.5011 42.5537 69.8775 42.5537C70.4072 42.5537 70.8231 42.6699 71.1251 42.9022C71.4295 43.1346 71.6456 43.4413 71.7734 43.8223ZM75.3534 48.0881C74.8376 48.0881 74.3927 47.9742 74.0186 47.7465C73.6469 47.5165 73.3599 47.1959 73.1578 46.7847C72.958 46.3711 72.8581 45.8901 72.8581 45.3418C72.8581 44.7935 72.958 44.3102 73.1578 43.892C73.3599 43.4715 73.6411 43.1439 74.0012 42.9092C74.3637 42.6722 74.7865 42.5537 75.2698 42.5537C75.5486 42.5537 75.8239 42.6002 76.0958 42.6931C76.3676 42.7861 76.615 42.9371 76.8381 43.1462C77.0611 43.353 77.2389 43.6271 77.3713 43.9687C77.5037 44.3102 77.57 44.7308 77.57 45.2303V45.5788H73.4436V44.8678H76.7335C76.7335 44.5658 76.6731 44.2963 76.5523 44.0593C76.4338 43.8223 76.2642 43.6353 76.0435 43.4982C75.8251 43.3611 75.5672 43.2926 75.2698 43.2926C74.9422 43.2926 74.6587 43.3739 74.4194 43.5365C74.1824 43.6968 74 43.906 73.8723 44.1639C73.7445 44.4218 73.6806 44.6982 73.6806 44.9933V45.4673C73.6806 45.8716 73.7503 46.2143 73.8897 46.4954C74.0314 46.7742 74.2277 46.9868 74.4787 47.1332C74.7296 47.2772 75.0212 47.3492 75.3534 47.3492C75.5695 47.3492 75.7647 47.319 75.9389 47.2586C76.1155 47.1959 76.2677 47.103 76.3955 46.9798C76.5233 46.8544 76.622 46.6987 76.6917 46.5128L77.4863 46.7359C77.4027 47.0054 77.2621 47.2424 77.0646 47.4468C76.8671 47.649 76.6232 47.807 76.3327 47.9208C76.0423 48.0323 75.7159 48.0881 75.3534 48.0881ZM81.5813 49.984V42.6234H82.3759V43.4738H82.4735C82.5339 43.3809 82.6176 43.2624 82.7244 43.1183C82.8336 42.9719 82.9893 42.8418 83.1914 42.728C83.3959 42.6118 83.6724 42.5537 84.0209 42.5537C84.4716 42.5537 84.8689 42.6664 85.2128 42.8918C85.5567 43.1172 85.825 43.4366 86.0179 43.8502C86.2107 44.2638 86.3071 44.7517 86.3071 45.3139C86.3071 45.8808 86.2107 46.3723 86.0179 46.7881C85.825 47.2017 85.5578 47.5223 85.2163 47.75C84.8747 47.9754 84.4809 48.0881 84.0348 48.0881C83.691 48.0881 83.4157 48.0312 83.2089 47.9173C83.0021 47.8011 82.8429 47.6699 82.7314 47.5235C82.6199 47.3748 82.5339 47.2517 82.4735 47.1541H82.4038V49.984H81.5813ZM82.3899 45.3C82.3899 45.7043 82.4491 46.0609 82.5676 46.3699C82.6861 46.6766 82.8592 46.9171 83.0869 47.0913C83.3146 47.2633 83.5934 47.3492 83.9233 47.3492C84.2672 47.3492 84.5541 47.2586 84.7841 47.0774C85.0165 46.8939 85.1907 46.6476 85.3069 46.3386C85.4254 46.0272 85.4846 45.681 85.4846 45.3C85.4846 44.9236 85.4266 44.5844 85.3104 44.2823C85.1965 43.978 85.0234 43.7375 84.7911 43.5609C84.5611 43.382 84.2718 43.2926 83.9233 43.2926C83.5887 43.2926 83.3076 43.3774 83.0799 43.547C82.8522 43.7143 82.6803 43.9489 82.5641 44.251C82.448 44.5507 82.3899 44.9004 82.3899 45.3ZM87.5618 47.9766V42.6234H88.3564V43.432H88.4121C88.5097 43.1671 88.6863 42.9522 88.9419 42.7872C89.1975 42.6223 89.4856 42.5398 89.8062 42.5398C89.8666 42.5398 89.9421 42.541 90.0327 42.5433C90.1233 42.5456 90.1919 42.5491 90.2383 42.5537V43.3902C90.2105 43.3832 90.1466 43.3727 90.0467 43.3588C89.9491 43.3425 89.8457 43.3344 89.7365 43.3344C89.4763 43.3344 89.2439 43.389 89.0395 43.4982C88.8373 43.6051 88.677 43.7538 88.5585 43.9443C88.4423 44.1325 88.3843 44.3474 88.3843 44.589V47.9766H87.5618ZM93.2251 48.0881C92.7418 48.0881 92.3178 47.9731 91.953 47.7431C91.5906 47.513 91.3071 47.1913 91.1026 46.7777C90.9005 46.3641 90.7994 45.8808 90.7994 45.3279C90.7994 44.7703 90.9005 44.2835 91.1026 43.8676C91.3071 43.4517 91.5906 43.1288 91.953 42.8988C92.3178 42.6687 92.7418 42.5537 93.2251 42.5537C93.7083 42.5537 94.1312 42.6687 94.4937 42.8988C94.8584 43.1288 95.1419 43.4517 95.344 43.8676C95.5485 44.2835 95.6507 44.7703 95.6507 45.3279C95.6507 45.8808 95.5485 46.3641 95.344 46.7777C95.1419 47.1913 94.8584 47.513 94.4937 47.7431C94.1312 47.9731 93.7083 48.0881 93.2251 48.0881ZM93.2251 47.3492C93.5922 47.3492 93.8942 47.2551 94.1312 47.0669C94.3682 46.8788 94.5436 46.6313 94.6575 46.3246C94.7713 46.0179 94.8282 45.6857 94.8282 45.3279C94.8282 44.9701 94.7713 44.6367 94.6575 44.3277C94.5436 44.0186 94.3682 43.7689 94.1312 43.5784C93.8942 43.3878 93.5922 43.2926 93.2251 43.2926C92.858 43.2926 92.5559 43.3878 92.3189 43.5784C92.082 43.7689 91.9065 44.0186 91.7927 44.3277C91.6788 44.6367 91.6219 44.9701 91.6219 45.3279C91.6219 45.6857 91.6788 46.0179 91.7927 46.3246C91.9065 46.6313 92.082 46.8788 92.3189 47.0669C92.5559 47.2551 92.858 47.3492 93.2251 47.3492ZM101.092 42.6234L99.1123 47.9766H98.2759L96.2963 42.6234H97.1885L98.6662 46.8892H98.722L100.2 42.6234H101.092ZM102.177 47.9766V42.6234H103V47.9766H102.177ZM102.596 41.7312C102.435 41.7312 102.297 41.6766 102.181 41.5674C102.067 41.4582 102.01 41.327 102.01 41.1736C102.01 41.0203 102.067 40.889 102.181 40.7798C102.297 40.6706 102.435 40.616 102.596 40.616C102.756 40.616 102.893 40.6706 103.007 40.7798C103.123 40.889 103.181 41.0203 103.181 41.1736C103.181 41.327 103.123 41.4582 103.007 41.5674C102.893 41.6766 102.756 41.7312 102.596 41.7312ZM106.528 48.0881C106.082 48.0881 105.688 47.9754 105.346 47.75C105.005 47.5223 104.738 47.2017 104.545 46.7881C104.352 46.3723 104.255 45.8808 104.255 45.3139C104.255 44.7517 104.352 44.2638 104.545 43.8502C104.738 43.4366 105.006 43.1172 105.35 42.8918C105.694 42.6664 106.091 42.5537 106.542 42.5537C106.89 42.5537 107.166 42.6118 107.368 42.728C107.572 42.8418 107.728 42.9719 107.835 43.1183C107.944 43.2624 108.029 43.3809 108.089 43.4738H108.159V40.8391H108.981V47.9766H108.187V47.1541H108.089C108.029 47.2517 107.943 47.3748 107.831 47.5235C107.72 47.6699 107.56 47.8011 107.354 47.9173C107.147 48.0312 106.872 48.0881 106.528 48.0881ZM106.639 47.3492C106.969 47.3492 107.248 47.2633 107.476 47.0913C107.703 46.9171 107.876 46.6766 107.995 46.3699C108.113 46.0609 108.173 45.7043 108.173 45.3C108.173 44.9004 108.115 44.5507 107.998 44.251C107.882 43.9489 107.71 43.7143 107.483 43.547C107.255 43.3774 106.974 43.2926 106.639 43.2926C106.291 43.2926 106 43.382 105.768 43.5609C105.538 43.7375 105.365 43.978 105.249 44.2823C105.135 44.5844 105.078 44.9236 105.078 45.3C105.078 45.681 105.136 46.0272 105.252 46.3386C105.371 46.6476 105.545 46.8939 105.775 47.0774C106.007 47.2586 106.295 47.3492 106.639 47.3492ZM112.846 48.0881C112.33 48.0881 111.886 47.9742 111.511 47.7465C111.14 47.5165 110.853 47.1959 110.651 46.7847C110.451 46.3711 110.351 45.8901 110.351 45.3418C110.351 44.7935 110.451 44.3102 110.651 43.892C110.853 43.4715 111.134 43.1439 111.494 42.9092C111.856 42.6722 112.279 42.5537 112.763 42.5537C113.041 42.5537 113.317 42.6002 113.589 42.6931C113.86 42.7861 114.108 42.9371 114.331 43.1462C114.554 43.353 114.732 43.6271 114.864 43.9687C114.997 44.3102 115.063 44.7308 115.063 45.2303V45.5788H110.936V44.8678H114.226C114.226 44.5658 114.166 44.2963 114.045 44.0593C113.927 43.8223 113.757 43.6353 113.536 43.4982C113.318 43.3611 113.06 43.2926 112.763 43.2926C112.435 43.2926 112.152 43.3739 111.912 43.5365C111.675 43.6968 111.493 43.906 111.365 44.1639C111.237 44.4218 111.173 44.6982 111.173 44.9933V45.4673C111.173 45.8716 111.243 46.2143 111.382 46.4954C111.524 46.7742 111.721 46.9868 111.971 47.1332C112.222 47.2772 112.514 47.3492 112.846 47.3492C113.062 47.3492 113.257 47.319 113.432 47.2586C113.608 47.1959 113.761 47.103 113.888 46.9798C114.016 46.8544 114.115 46.6987 114.185 46.5128L114.979 46.7359C114.895 47.0054 114.755 47.2424 114.557 47.4468C114.36 47.649 114.116 47.807 113.826 47.9208C113.535 48.0323 113.209 48.0881 112.846 48.0881ZM119.604 49.984C119.464 49.984 119.34 49.9724 119.231 49.9491C119.122 49.9282 119.046 49.9073 119.004 49.8864L119.214 49.1615C119.413 49.2126 119.59 49.2312 119.743 49.2173C119.897 49.2033 120.033 49.1348 120.151 49.0116C120.272 48.8908 120.382 48.6945 120.482 48.4227L120.635 48.0044L118.656 42.6234H119.548L121.026 46.8892H121.082L122.559 42.6234H123.451L121.179 48.7572C121.077 49.0337 120.95 49.2626 120.799 49.4438C120.648 49.6273 120.473 49.7633 120.273 49.8516C120.076 49.9398 119.852 49.984 119.604 49.984ZM126.52 48.0881C126.037 48.0881 125.613 47.9731 125.248 47.7431C124.886 47.513 124.602 47.1913 124.398 46.7777C124.196 46.3641 124.094 45.8808 124.094 45.3279C124.094 44.7703 124.196 44.2835 124.398 43.8676C124.602 43.4517 124.886 43.1288 125.248 42.8988C125.613 42.6687 126.037 42.5537 126.52 42.5537C127.003 42.5537 127.426 42.6687 127.789 42.8988C128.153 43.1288 128.437 43.4517 128.639 43.8676C128.843 44.2835 128.946 44.7703 128.946 45.3279C128.946 45.8808 128.843 46.3641 128.639 46.7777C128.437 47.1913 128.153 47.513 127.789 47.7431C127.426 47.9731 127.003 48.0881 126.52 48.0881ZM126.52 47.3492C126.887 47.3492 127.189 47.2551 127.426 47.0669C127.663 46.8788 127.839 46.6313 127.952 46.3246C128.066 46.0179 128.123 45.6857 128.123 45.3279C128.123 44.9701 128.066 44.6367 127.952 44.3277C127.839 44.0186 127.663 43.7689 127.426 43.5784C127.189 43.3878 126.887 43.2926 126.52 43.2926C126.153 43.2926 125.851 43.3878 125.614 43.5784C125.377 43.7689 125.202 44.0186 125.088 44.3277C124.974 44.6367 124.917 44.9701 124.917 45.3279C124.917 45.6857 124.974 46.0179 125.088 46.3246C125.202 46.6313 125.377 46.8788 125.614 47.0669C125.851 47.2551 126.153 47.3492 126.52 47.3492ZM133.575 45.7879V42.6234H134.397V47.9766H133.575V47.0704H133.519C133.394 47.3423 133.198 47.5735 132.934 47.764C132.669 47.9522 132.334 48.0463 131.93 48.0463C131.595 48.0463 131.298 47.9731 131.038 47.8267C130.777 47.678 130.573 47.455 130.424 47.1576C130.276 46.8578 130.201 46.4803 130.201 46.0249V42.6234H131.024V45.9691C131.024 46.3595 131.133 46.6708 131.351 46.9031C131.572 47.1355 131.853 47.2517 132.195 47.2517C132.399 47.2517 132.607 47.1994 132.819 47.0948C133.032 46.9903 133.211 46.83 133.355 46.6139C133.502 46.3978 133.575 46.1225 133.575 45.7879ZM135.904 47.9766V42.6234H136.698V43.432H136.754C136.852 43.1671 137.028 42.9522 137.284 42.7872C137.539 42.6223 137.828 42.5398 138.148 42.5398C138.209 42.5398 138.284 42.541 138.375 42.5433C138.465 42.5456 138.534 42.5491 138.58 42.5537V43.3902C138.552 43.3832 138.489 43.3727 138.389 43.3588C138.291 43.3425 138.188 43.3344 138.078 43.3344C137.818 43.3344 137.586 43.389 137.381 43.4982C137.179 43.6051 137.019 43.7538 136.9 43.9443C136.784 44.1325 136.726 44.3474 136.726 44.589V47.9766H135.904ZM144.476 50.0955C144.079 50.0955 143.737 50.0444 143.452 49.9422C143.166 49.8423 142.928 49.7098 142.737 49.5449C142.549 49.3822 142.399 49.208 142.288 49.0221L142.943 48.5621C143.017 48.6596 143.111 48.7712 143.225 48.8966C143.339 49.0244 143.495 49.1348 143.692 49.2277C143.892 49.323 144.153 49.3706 144.476 49.3706C144.908 49.3706 145.265 49.2661 145.546 49.0569C145.827 48.8478 145.968 48.5202 145.968 48.0741V46.9868H145.898C145.838 47.0844 145.752 47.2052 145.64 47.3492C145.531 47.491 145.373 47.6176 145.166 47.7291C144.962 47.8383 144.685 47.8929 144.337 47.8929C143.905 47.8929 143.517 47.7907 143.173 47.5862C142.831 47.3818 142.561 47.0844 142.361 46.694C142.163 46.3037 142.065 45.8297 142.065 45.2721C142.065 44.7238 142.161 44.2463 142.354 43.8397C142.547 43.4308 142.815 43.1148 143.159 42.8918C143.503 42.6664 143.9 42.5537 144.351 42.5537C144.699 42.5537 144.976 42.6118 145.18 42.728C145.387 42.8418 145.545 42.9719 145.654 43.1183C145.766 43.2624 145.852 43.3809 145.912 43.4738H145.996V42.6234H146.79V48.1299C146.79 48.5899 146.686 48.964 146.477 49.2521C146.27 49.5425 145.991 49.7551 145.64 49.8899C145.292 50.027 144.904 50.0955 144.476 50.0955ZM144.448 47.1541C144.778 47.1541 145.057 47.0786 145.285 46.9275C145.512 46.7765 145.686 46.5593 145.804 46.2758C145.923 45.9924 145.982 45.6532 145.982 45.2582C145.982 44.8725 145.924 44.5321 145.808 44.237C145.691 43.942 145.519 43.7108 145.292 43.5435C145.064 43.3762 144.783 43.2926 144.448 43.2926C144.1 43.2926 143.809 43.3809 143.577 43.5574C143.347 43.734 143.174 43.971 143.058 44.2684C142.944 44.5658 142.887 44.8957 142.887 45.2582C142.887 45.6299 142.945 45.9587 143.061 46.2445C143.18 46.5279 143.354 46.751 143.584 46.9136C143.816 47.0739 144.104 47.1541 144.448 47.1541ZM148.296 47.9766V42.6234H149.118V47.9766H148.296ZM148.714 41.7312C148.554 41.7312 148.416 41.6766 148.299 41.5674C148.186 41.4582 148.129 41.327 148.129 41.1736C148.129 41.0203 148.186 40.889 148.299 40.7798C148.416 40.6706 148.554 40.616 148.714 40.616C148.874 40.616 149.012 40.6706 149.125 40.7798C149.242 40.889 149.3 41.0203 149.3 41.1736C149.3 41.327 149.242 41.4582 149.125 41.5674C149.012 41.6766 148.874 41.7312 148.714 41.7312ZM155.002 42.6234L153.023 47.9766H152.186L150.207 42.6234H151.099L152.577 46.8892H152.632L154.11 42.6234H155.002ZM158.14 48.0881C157.625 48.0881 157.18 47.9742 156.806 47.7465C156.434 47.5165 156.147 47.1959 155.945 46.7847C155.745 46.3711 155.645 45.8901 155.645 45.3418C155.645 44.7935 155.745 44.3102 155.945 43.892C156.147 43.4715 156.428 43.1439 156.788 42.9092C157.151 42.6722 157.574 42.5537 158.057 42.5537C158.336 42.5537 158.611 42.6002 158.883 42.6931C159.155 42.7861 159.402 42.9371 159.625 43.1462C159.848 43.353 160.026 43.6271 160.158 43.9687C160.291 44.3102 160.357 44.7308 160.357 45.2303V45.5788H156.231V44.8678H159.521C159.521 44.5658 159.46 44.2963 159.339 44.0593C159.221 43.8223 159.051 43.6353 158.831 43.4982C158.612 43.3611 158.354 43.2926 158.057 43.2926C157.729 43.2926 157.446 43.3739 157.206 43.5365C156.969 43.6968 156.787 43.906 156.659 44.1639C156.532 44.4218 156.468 44.6982 156.468 44.9933V45.4673C156.468 45.8716 156.537 46.2143 156.677 46.4954C156.818 46.7742 157.015 46.9868 157.266 47.1332C157.517 47.2772 157.808 47.3492 158.14 47.3492C158.357 47.3492 158.552 47.319 158.726 47.2586C158.903 47.1959 159.055 47.103 159.183 46.9798C159.31 46.8544 159.409 46.6987 159.479 46.5128L160.273 46.7359C160.19 47.0054 160.049 47.2424 159.852 47.4468C159.654 47.649 159.41 47.807 159.12 47.9208C158.829 48.0323 158.503 48.0881 158.14 48.0881ZM162.431 44.7563V47.9766H161.608V42.6234H162.403V43.4599H162.472C162.598 43.188 162.788 42.9696 163.044 42.8047C163.3 42.6374 163.63 42.5537 164.034 42.5537C164.396 42.5537 164.713 42.6281 164.985 42.7768C165.257 42.9232 165.469 43.1462 165.62 43.4459C165.771 43.7433 165.846 44.1197 165.846 44.5751V47.9766H165.024V44.6309C165.024 44.2103 164.914 43.8827 164.696 43.6481C164.478 43.4111 164.178 43.2926 163.797 43.2926C163.534 43.2926 163.3 43.3495 163.093 43.4633C162.888 43.5772 162.727 43.7433 162.608 43.9617C162.49 44.1801 162.431 44.445 162.431 44.7563ZM170.932 44.7563V47.9766H170.109V42.6234H170.904V43.4599H170.974C171.099 43.188 171.29 42.9696 171.545 42.8047C171.801 42.6374 172.131 42.5537 172.535 42.5537C172.897 42.5537 173.214 42.6281 173.486 42.7768C173.758 42.9232 173.97 43.1462 174.121 43.4459C174.272 43.7433 174.347 44.1197 174.347 44.5751V47.9766H173.525V44.6309C173.525 44.2103 173.415 43.8827 173.197 43.6481C172.979 43.4111 172.679 43.2926 172.298 43.2926C172.035 43.2926 171.801 43.3495 171.594 43.4633C171.389 43.5772 171.228 43.7433 171.109 43.9617C170.991 44.1801 170.932 44.445 170.932 44.7563ZM177.425 48.102C177.086 48.102 176.778 48.0381 176.502 47.9103C176.225 47.7802 176.006 47.5932 175.843 47.3492C175.68 47.103 175.599 46.8056 175.599 46.4571C175.599 46.1504 175.66 45.9018 175.78 45.7112C175.901 45.5184 176.063 45.3674 176.265 45.2582C176.467 45.149 176.69 45.0677 176.934 45.0142C177.18 44.9585 177.428 44.9143 177.676 44.8818C178.002 44.84 178.265 44.8086 178.467 44.7877C178.672 44.7645 178.821 44.7261 178.913 44.6727C179.009 44.6192 179.056 44.5263 179.056 44.3939V44.366C179.056 44.0221 178.962 43.7549 178.774 43.5644C178.588 43.3739 178.306 43.2786 177.927 43.2786C177.535 43.2786 177.227 43.3646 177.004 43.5365C176.781 43.7085 176.624 43.892 176.533 44.0872L175.752 43.8084C175.892 43.4831 176.078 43.2298 176.31 43.0486C176.545 42.8651 176.8 42.7373 177.077 42.6653C177.356 42.5909 177.63 42.5537 177.899 42.5537C178.071 42.5537 178.269 42.5746 178.492 42.6165C178.717 42.656 178.934 42.7384 179.144 42.8639C179.355 42.9894 179.53 43.1787 179.67 43.432C179.809 43.6852 179.879 44.0244 179.879 44.4496V47.9766H179.056V47.2517H179.015C178.959 47.3678 178.866 47.4921 178.736 47.6246C178.606 47.757 178.433 47.8697 178.216 47.9626C178 48.0556 177.737 48.102 177.425 48.102ZM177.551 47.3632C177.876 47.3632 178.15 47.2993 178.373 47.1715C178.599 47.0437 178.768 46.8788 178.882 46.6766C178.998 46.4745 179.056 46.2619 179.056 46.0388V45.2861C179.022 45.3279 178.945 45.3662 178.826 45.4011C178.71 45.4336 178.575 45.4626 178.422 45.4882C178.271 45.5114 178.124 45.5323 177.979 45.5509C177.838 45.5672 177.723 45.5811 177.634 45.5927C177.421 45.6206 177.221 45.6659 177.035 45.7287C176.851 45.7891 176.703 45.8808 176.589 46.004C176.477 46.1248 176.422 46.2898 176.422 46.4989C176.422 46.7847 176.527 47.0007 176.739 47.1471C176.953 47.2912 177.223 47.3632 177.551 47.3632ZM181.38 47.9766V42.6234H182.175V43.4599H182.244C182.356 43.1741 182.536 42.9522 182.785 42.7942C183.033 42.6339 183.332 42.5537 183.68 42.5537C184.033 42.5537 184.327 42.6339 184.562 42.7942C184.799 42.9522 184.984 43.1741 185.116 43.4599H185.172C185.309 43.1834 185.515 42.9638 185.789 42.8012C186.063 42.6362 186.392 42.5537 186.775 42.5537C187.254 42.5537 187.645 42.7036 187.949 43.0033C188.254 43.3007 188.406 43.7642 188.406 44.3939V47.9766H187.584V44.3939C187.584 43.9989 187.476 43.7166 187.259 43.547C187.043 43.3774 186.789 43.2926 186.496 43.2926C186.12 43.2926 185.828 43.4064 185.621 43.6341C185.415 43.8595 185.311 44.1453 185.311 44.4915V47.9766H184.475V44.3102C184.475 44.0059 184.376 43.7607 184.179 43.5749C183.981 43.3867 183.727 43.2926 183.415 43.2926C183.202 43.2926 183.002 43.3495 182.816 43.4633C182.632 43.5772 182.484 43.7352 182.37 43.9373C182.258 44.1371 182.203 44.3683 182.203 44.6309V47.9766H181.38ZM192.154 48.0881C191.638 48.0881 191.194 47.9742 190.819 47.7465C190.448 47.5165 190.161 47.1959 189.959 46.7847C189.759 46.3711 189.659 45.8901 189.659 45.3418C189.659 44.7935 189.759 44.3102 189.959 43.892C190.161 43.4715 190.442 43.1439 190.802 42.9092C191.165 42.6722 191.587 42.5537 192.071 42.5537C192.349 42.5537 192.625 42.6002 192.897 42.6931C193.168 42.7861 193.416 42.9371 193.639 43.1462C193.862 43.353 194.04 43.6271 194.172 43.9687C194.305 44.3102 194.371 44.7308 194.371 45.2303V45.5788H190.244V44.8678H193.534C193.534 44.5658 193.474 44.2963 193.353 44.0593C193.235 43.8223 193.065 43.6353 192.844 43.4982C192.626 43.3611 192.368 43.2926 192.071 43.2926C191.743 43.2926 191.46 43.3739 191.22 43.5365C190.983 43.6968 190.801 43.906 190.673 44.1639C190.545 44.4218 190.481 44.6982 190.481 44.9933V45.4673C190.481 45.8716 190.551 46.2143 190.691 46.4954C190.832 46.7742 191.029 46.9868 191.28 47.1332C191.53 47.2772 191.822 47.3492 192.154 47.3492C192.37 47.3492 192.566 47.319 192.74 47.2586C192.916 47.1959 193.069 47.103 193.196 46.9798C193.324 46.8544 193.423 46.6987 193.493 46.5128L194.287 46.7359C194.204 47.0054 194.063 47.2424 193.865 47.4468C193.668 47.649 193.424 47.807 193.134 47.9208C192.843 48.0323 192.517 48.0881 192.154 48.0881ZM196.221 48.0323C196.049 48.0323 195.902 47.9708 195.779 47.8476C195.656 47.7245 195.594 47.5769 195.594 47.405C195.594 47.2331 195.656 47.0855 195.779 46.9624C195.902 46.8393 196.049 46.7777 196.221 46.7777C196.393 46.7777 196.541 46.8393 196.664 46.9624C196.787 47.0855 196.849 47.2331 196.849 47.405C196.849 47.5189 196.82 47.6234 196.762 47.7187C196.706 47.8139 196.63 47.8906 196.535 47.9487C196.442 48.0044 196.338 48.0323 196.221 48.0323Z" fill="#000824"/>
<path d="M18.9318 77.6321H19.7001V81.8328C19.7001 82.2665 19.5979 82.6538 19.3934 82.9945C19.191 83.3332 18.905 83.6007 18.5353 83.7969C18.1656 83.991 17.7319 84.0881 17.2342 84.0881C16.7365 84.0881 16.3028 83.991 15.9331 83.7969C15.5634 83.6007 15.2763 83.3332 15.0719 82.9945C14.8695 82.6538 14.7683 82.2665 14.7683 81.8328V77.6321H15.5365V81.7709C15.5365 82.0807 15.6047 82.3564 15.741 82.598C15.8773 82.8376 16.0714 83.0265 16.3234 83.1649C16.5774 83.3012 16.881 83.3694 17.2342 83.3694C17.5873 83.3694 17.8909 83.3012 18.145 83.1649C18.399 83.0265 18.5931 82.8376 18.7274 82.598C18.8637 82.3564 18.9318 82.0807 18.9318 81.7709V77.6321ZM24.5057 80.2839L23.8489 80.4698C23.8076 80.3603 23.7467 80.2539 23.6661 80.1507C23.5877 80.0454 23.4803 79.9586 23.344 79.8905C23.2077 79.8223 23.0331 79.7882 22.8204 79.7882C22.5292 79.7882 22.2866 79.8554 22.0924 79.9896C21.9004 80.1218 21.8043 80.2901 21.8043 80.4946C21.8043 80.6763 21.8704 80.8198 22.0026 80.9252C22.1348 81.0305 22.3413 81.1183 22.6222 81.1885L23.3285 81.362C23.7539 81.4652 24.0709 81.6232 24.2795 81.8359C24.4881 82.0466 24.5924 82.3182 24.5924 82.6507C24.5924 82.9233 24.5139 83.167 24.357 83.3818C24.2021 83.5966 23.9852 83.7659 23.7064 83.8898C23.4276 84.0137 23.1034 84.0757 22.7337 84.0757C22.2484 84.0757 21.8467 83.9704 21.5286 83.7597C21.2106 83.5491 21.0092 83.2413 20.9245 82.8365L21.6185 82.6631C21.6845 82.9192 21.8095 83.1112 21.9933 83.2393C22.1792 83.3673 22.4218 83.4313 22.7213 83.4313C23.0621 83.4313 23.3326 83.3591 23.5329 83.2145C23.7353 83.0679 23.8365 82.8923 23.8365 82.6878C23.8365 82.5226 23.7787 82.3843 23.663 82.2727C23.5474 82.1591 23.3698 82.0745 23.1302 82.0187L22.3372 81.8328C21.9014 81.7296 21.5813 81.5695 21.3768 81.3527C21.1744 81.1337 21.0732 80.8601 21.0732 80.5317C21.0732 80.2632 21.1486 80.0257 21.2994 79.8192C21.4522 79.6127 21.6598 79.4506 21.922 79.3328C22.1864 79.2151 22.4859 79.1563 22.8204 79.1563C23.2913 79.1563 23.661 79.2595 23.9295 79.4661C24.2 79.6726 24.3921 79.9452 24.5057 80.2839ZM27.688 84.0757C27.2295 84.0757 26.834 83.9745 26.5015 83.7721C26.171 83.5676 25.916 83.2826 25.7363 82.9171C25.5587 82.5495 25.4699 82.122 25.4699 81.6346C25.4699 81.1472 25.5587 80.7176 25.7363 80.3459C25.916 79.972 26.1659 79.6808 26.486 79.4723C26.8082 79.2616 27.184 79.1563 27.6136 79.1563C27.8614 79.1563 28.1062 79.1976 28.3478 79.2802C28.5894 79.3628 28.8094 79.497 29.0077 79.6829C29.2059 79.8667 29.3639 80.1104 29.4816 80.414C29.5994 80.7176 29.6582 81.0914 29.6582 81.5354V81.8452H25.9903V81.2133H28.9147C28.9147 80.9448 28.861 80.7052 28.7536 80.4946C28.6483 80.2839 28.4975 80.1176 28.3013 79.9958C28.1072 79.8739 27.878 79.813 27.6136 79.813C27.3224 79.813 27.0705 79.8853 26.8577 80.0299C26.6471 80.1724 26.485 80.3582 26.3714 80.5875C26.2578 80.8167 26.201 81.0625 26.201 81.3248V81.7461C26.201 82.1054 26.2629 82.4101 26.3869 82.66C26.5128 82.9078 26.6873 83.0968 26.9104 83.2269C27.1334 83.3549 27.3926 83.4189 27.688 83.4189C27.88 83.4189 28.0535 83.3921 28.2084 83.3384C28.3654 83.2826 28.5006 83.2 28.6142 83.0906C28.7278 82.979 28.8156 82.8407 28.8775 82.6755L29.5839 82.8737C29.5095 83.1133 29.3846 83.3239 29.209 83.5057C29.0335 83.6854 28.8166 83.8258 28.5585 83.927C28.3003 84.0261 28.0101 84.0757 27.688 84.0757ZM30.7703 83.9766V79.2182H31.4767V79.9369H31.5262C31.613 79.7015 31.7699 79.5105 31.9971 79.3638C32.2243 79.2172 32.4804 79.1439 32.7654 79.1439C32.8191 79.1439 32.8862 79.1449 32.9667 79.147C33.0473 79.149 33.1082 79.1521 33.1495 79.1563V79.8998C33.1247 79.8936 33.0679 79.8843 32.9791 79.8719C32.8924 79.8574 32.8005 79.8502 32.7034 79.8502C32.4721 79.8502 32.2656 79.8987 32.0838 79.9958C31.9042 80.0908 31.7617 80.223 31.6563 80.3923C31.5531 80.5596 31.5014 80.7506 31.5014 80.9654V83.9766H30.7703ZM34.7472 81.1141V83.9766H34.0161V79.2182H34.7225V79.9617H34.7844C34.8959 79.7201 35.0653 79.5259 35.2925 79.3793C35.5197 79.2306 35.8129 79.1563 36.1723 79.1563C36.4944 79.1563 36.7764 79.2224 37.018 79.3545C37.2596 79.4846 37.4476 79.6829 37.5818 79.9493C37.716 80.2137 37.7832 80.5482 37.7832 80.953V83.9766H37.0521V81.0026C37.0521 80.6288 36.955 80.3376 36.7609 80.129C36.5667 79.9183 36.3003 79.813 35.9616 79.813C35.7282 79.813 35.5197 79.8636 35.3358 79.9648C35.1541 80.066 35.0106 80.2137 34.9052 80.4078C34.7999 80.6019 34.7472 80.8374 34.7472 81.1141ZM40.5194 84.0881C40.2178 84.0881 39.9442 84.0313 39.6984 83.9177C39.4527 83.802 39.2575 83.6358 39.1129 83.4189C38.9684 83.2 38.8961 82.9357 38.8961 82.6259C38.8961 82.3533 38.9498 82.1323 39.0572 81.9629C39.1646 81.7915 39.3081 81.6573 39.4878 81.5602C39.6674 81.4632 39.8657 81.3909 40.0826 81.3434C40.3015 81.2938 40.5214 81.2546 40.7424 81.2256C41.0315 81.1885 41.266 81.1606 41.4456 81.142C41.6274 81.1214 41.7595 81.0873 41.8422 81.0398C41.9268 80.9923 41.9692 80.9097 41.9692 80.7919V80.7672C41.9692 80.4615 41.8855 80.224 41.7182 80.0547C41.553 79.8853 41.3021 79.8006 40.9655 79.8006C40.6164 79.8006 40.3428 79.877 40.1445 80.0299C39.9463 80.1827 39.8069 80.3459 39.7263 80.5193L39.0324 80.2715C39.1563 79.9824 39.3215 79.7573 39.528 79.5962C39.7366 79.433 39.9638 79.3194 40.2096 79.2554C40.4574 79.1893 40.7011 79.1563 40.9407 79.1563C41.0935 79.1563 41.269 79.1749 41.4673 79.212C41.6676 79.2471 41.8607 79.3205 42.0466 79.432C42.2346 79.5435 42.3905 79.7118 42.5144 79.9369C42.6383 80.162 42.7003 80.4636 42.7003 80.8415V83.9766H41.9692V83.3322H41.932C41.8824 83.4355 41.7998 83.546 41.6842 83.6637C41.5685 83.7814 41.4146 83.8816 41.2226 83.9642C41.0305 84.0468 40.7961 84.0881 40.5194 84.0881ZM40.6309 83.4313C40.92 83.4313 41.1637 83.3745 41.362 83.261C41.5623 83.1474 41.7131 83.0007 41.8143 82.8211C41.9175 82.6414 41.9692 82.4524 41.9692 82.2541V81.585C41.9382 81.6222 41.87 81.6563 41.7647 81.6872C41.6614 81.7161 41.5417 81.742 41.4054 81.7647C41.2711 81.7853 41.14 81.8039 41.0119 81.8204C40.8859 81.8349 40.7837 81.8473 40.7052 81.8576C40.5152 81.8824 40.3376 81.9227 40.1724 81.9784C40.0092 82.0321 39.8771 82.1137 39.7759 82.2232C39.6767 82.3306 39.6272 82.4772 39.6272 82.6631C39.6272 82.9171 39.7211 83.1092 39.9091 83.2393C40.0991 83.3673 40.3397 83.4313 40.6309 83.4313ZM44.0347 83.9766V79.2182H44.741V79.9617H44.803C44.9021 79.7077 45.0621 79.5105 45.2831 79.37C45.5041 79.2275 45.7695 79.1563 46.0793 79.1563C46.3932 79.1563 46.6544 79.2275 46.863 79.37C47.0737 79.5105 47.2379 79.7077 47.3556 79.9617H47.4052C47.527 79.716 47.7098 79.5208 47.9535 79.3762C48.1972 79.2296 48.4894 79.1563 48.8302 79.1563C49.2556 79.1563 49.6036 79.2895 49.8742 79.5559C50.1447 79.8202 50.28 80.2323 50.28 80.7919V83.9766H49.5489V80.7919C49.5489 80.4409 49.4529 80.1899 49.2608 80.0392C49.0687 79.8884 48.8426 79.813 48.5824 79.813C48.2478 79.813 47.9886 79.9142 47.8048 80.1166C47.621 80.3169 47.5291 80.571 47.5291 80.8787V83.9766H46.7856V80.7176C46.7856 80.447 46.6978 80.2292 46.5223 80.0639C46.3467 79.8967 46.1206 79.813 45.8438 79.813C45.6538 79.813 45.4762 79.8636 45.311 79.9648C45.1478 80.066 45.0157 80.2064 44.9145 80.3861C44.8153 80.5637 44.7658 80.7692 44.7658 81.0026V83.9766H44.0347ZM53.6118 84.0757C53.1533 84.0757 52.7578 83.9745 52.4253 83.7721C52.0948 83.5676 51.8398 83.2826 51.6601 82.9171C51.4825 82.5495 51.3937 82.122 51.3937 81.6346C51.3937 81.1472 51.4825 80.7176 51.6601 80.3459C51.8398 79.972 52.0897 79.6808 52.4098 79.4723C52.732 79.2616 53.1078 79.1563 53.5374 79.1563C53.7852 79.1563 54.03 79.1976 54.2716 79.2802C54.5132 79.3628 54.7332 79.497 54.9315 79.6829C55.1297 79.8667 55.2877 80.1104 55.4054 80.414C55.5231 80.7176 55.582 81.0914 55.582 81.5354V81.8452H51.9141V81.2133H54.8385C54.8385 80.9448 54.7848 80.7052 54.6774 80.4946C54.5721 80.2839 54.4213 80.1176 54.2251 79.9958C54.031 79.8739 53.8018 79.813 53.5374 79.813C53.2462 79.813 52.9942 79.8853 52.7815 80.0299C52.5709 80.1724 52.4088 80.3582 52.2952 80.5875C52.1816 80.8167 52.1248 81.0625 52.1248 81.3248V81.7461C52.1248 82.1054 52.1867 82.4101 52.3107 82.66C52.4366 82.9078 52.6111 83.0968 52.8342 83.2269C53.0572 83.3549 53.3164 83.4189 53.6118 83.4189C53.8038 83.4189 53.9773 83.3921 54.1322 83.3384C54.2892 83.2826 54.4244 83.2 54.538 83.0906C54.6516 82.979 54.7394 82.8407 54.8013 82.6755L55.5077 82.8737C55.4333 83.1133 55.3084 83.3239 55.1328 83.5057C54.9573 83.6854 54.7404 83.8258 54.4823 83.927C54.2241 84.0261 53.9339 84.0757 53.6118 84.0757ZM61.0807 84.0757C60.6512 84.0757 60.2743 83.9735 59.95 83.769C59.6278 83.5645 59.3759 83.2785 59.1941 82.9109C59.0145 82.5433 58.9246 82.1137 58.9246 81.6222C58.9246 81.1265 59.0145 80.6938 59.1941 80.3242C59.3759 79.9545 59.6278 79.6674 59.95 79.463C60.2743 79.2585 60.6512 79.1563 61.0807 79.1563C61.5103 79.1563 61.8862 79.2585 62.2084 79.463C62.5326 79.6674 62.7846 79.9545 62.9642 80.3242C63.146 80.6938 63.2369 81.1265 63.2369 81.6222C63.2369 82.1137 63.146 82.5433 62.9642 82.9109C62.7846 83.2785 62.5326 83.5645 62.2084 83.769C61.8862 83.9735 61.5103 84.0757 61.0807 84.0757ZM61.0807 83.4189C61.407 83.4189 61.6755 83.3353 61.8862 83.168C62.0968 83.0007 62.2528 82.7808 62.354 82.5082C62.4552 82.2356 62.5058 81.9402 62.5058 81.6222C62.5058 81.3041 62.4552 81.0078 62.354 80.7331C62.2528 80.4584 62.0968 80.2364 61.8862 80.067C61.6755 79.8977 61.407 79.813 61.0807 79.813C60.7544 79.813 60.4859 79.8977 60.2753 80.067C60.0646 80.2364 59.9087 80.4584 59.8075 80.7331C59.7063 81.0078 59.6557 81.3041 59.6557 81.6222C59.6557 81.9402 59.7063 82.2356 59.8075 82.5082C59.9087 82.7808 60.0646 83.0007 60.2753 83.168C60.4859 83.3353 60.7544 83.4189 61.0807 83.4189ZM64.3529 83.9766V79.2182H65.0592V79.9369H65.1088C65.1955 79.7015 65.3524 79.5105 65.5796 79.3638C65.8068 79.2172 66.0629 79.1439 66.3479 79.1439C66.4016 79.1439 66.4687 79.1449 66.5493 79.147C66.6298 79.149 66.6907 79.1521 66.732 79.1563V79.8998C66.7073 79.8936 66.6505 79.8843 66.5617 79.8719C66.4749 79.8574 66.383 79.8502 66.2859 79.8502C66.0546 79.8502 65.8481 79.8987 65.6664 79.9958C65.4867 80.0908 65.3442 80.223 65.2389 80.3923C65.1356 80.5596 65.084 80.7506 65.084 80.9654V83.9766H64.3529ZM70.1513 83.9766V77.6321H73.9803V78.3136H70.9196V80.4574H73.782V81.1389H70.9196V83.295H74.0299V83.9766H70.1513ZM75.2659 83.9766V79.2182H75.9722V79.9617H76.0342C76.1333 79.7077 76.2934 79.5105 76.5144 79.37C76.7353 79.2275 77.0007 79.1563 77.3105 79.1563C77.6244 79.1563 77.8857 79.2275 78.0943 79.37C78.3049 79.5105 78.4691 79.7077 78.5868 79.9617H78.6364C78.7582 79.716 78.941 79.5208 79.1847 79.3762C79.4284 79.2296 79.7207 79.1563 80.0614 79.1563C80.4869 79.1563 80.8349 79.2895 81.1054 79.5559C81.376 79.8202 81.5112 80.2323 81.5112 80.7919V83.9766H80.7801V80.7919C80.7801 80.4409 80.6841 80.1899 80.492 80.0392C80.3 79.8884 80.0738 79.813 79.8136 79.813C79.479 79.813 79.2198 79.9142 79.036 80.1166C78.8522 80.3169 78.7603 80.571 78.7603 80.8787V83.9766H78.0168V80.7176C78.0168 80.447 77.929 80.2292 77.7535 80.0639C77.578 79.8967 77.3518 79.813 77.0751 79.813C76.8851 79.813 76.7075 79.8636 76.5422 79.9648C76.3791 80.066 76.2469 80.2064 76.1457 80.3861C76.0466 80.5637 75.997 80.7692 75.997 81.0026V83.9766H75.2659ZM84.2482 84.0881C83.9467 84.0881 83.673 84.0313 83.4273 83.9177C83.1815 83.802 82.9863 83.6358 82.8418 83.4189C82.6972 83.2 82.6249 82.9357 82.6249 82.6259C82.6249 82.3533 82.6786 82.1323 82.786 81.9629C82.8934 81.7915 83.0369 81.6573 83.2166 81.5602C83.3963 81.4632 83.5945 81.3909 83.8114 81.3434C84.0303 81.2938 84.2503 81.2546 84.4712 81.2256C84.7604 81.1885 84.9948 81.1606 85.1745 81.142C85.3562 81.1214 85.4884 81.0873 85.571 81.0398C85.6557 80.9923 85.698 80.9097 85.698 80.7919V80.7672C85.698 80.4615 85.6144 80.224 85.4471 80.0547C85.2819 79.8853 85.0309 79.8006 84.6943 79.8006C84.3453 79.8006 84.0716 79.877 83.8734 80.0299C83.6751 80.1827 83.5357 80.3459 83.4551 80.5193L82.7612 80.2715C82.8851 79.9824 83.0504 79.7573 83.2569 79.5962C83.4655 79.433 83.6926 79.3194 83.9384 79.2554C84.1862 79.1893 84.4299 79.1563 84.6695 79.1563C84.8223 79.1563 84.9979 79.1749 85.1961 79.212C85.3965 79.2471 85.5896 79.3205 85.7755 79.432C85.9634 79.5435 86.1193 79.7118 86.2432 79.9369C86.3671 80.162 86.4291 80.4636 86.4291 80.8415V83.9766H85.698V83.3322H85.6608C85.6113 83.4355 85.5287 83.546 85.413 83.6637C85.2973 83.7814 85.1435 83.8816 84.9514 83.9642C84.7593 84.0468 84.5249 84.0881 84.2482 84.0881ZM84.3597 83.4313C84.6489 83.4313 84.8926 83.3745 85.0908 83.261C85.2912 83.1474 85.4419 83.0007 85.5431 82.8211C85.6464 82.6414 85.698 82.4524 85.698 82.2541V81.585C85.667 81.6222 85.5989 81.6563 85.4935 81.6872C85.3903 81.7161 85.2705 81.742 85.1342 81.7647C84.9999 81.7853 84.8688 81.8039 84.7408 81.8204C84.6148 81.8349 84.5126 81.8473 84.4341 81.8576C84.2441 81.8824 84.0665 81.9227 83.9012 81.9784C83.7381 82.0321 83.6059 82.1137 83.5047 82.2232C83.4056 82.3306 83.356 82.4772 83.356 82.6631C83.356 82.9171 83.45 83.1092 83.6379 83.2393C83.8279 83.3673 84.0685 83.4313 84.3597 83.4313ZM87.7635 83.9766V79.2182H88.4946V83.9766H87.7635ZM88.1353 78.4252C87.9928 78.4252 87.8699 78.3766 87.7666 78.2796C87.6654 78.1825 87.6148 78.0658 87.6148 77.9295C87.6148 77.7932 87.6654 77.6765 87.7666 77.5794C87.8699 77.4824 87.9928 77.4338 88.1353 77.4338C88.2778 77.4338 88.3996 77.4824 88.5008 77.5794C88.6041 77.6765 88.6557 77.7932 88.6557 77.9295C88.6557 78.0658 88.6041 78.1825 88.5008 78.2796C88.3996 78.3766 88.2778 78.4252 88.1353 78.4252ZM90.5648 77.6321V83.9766H89.8337V77.6321H90.5648Z" fill="#111827"/>
<rect x="14.2726" y="92.7882" width="216.455" height="29.4548" stroke="#E3E5E8" stroke-width="0.545226"/>
<path d="M23.4909 110.516V104.171H27.3199V104.853H24.2592V106.996H27.1216V107.678H24.2592V109.834H27.3695V110.516H23.4909ZM29.3366 107.653V110.516H28.6055V105.757H29.3118V106.501H29.3738C29.4853 106.259 29.6547 106.065 29.8818 105.918C30.109 105.77 30.4023 105.695 30.7616 105.695C31.0838 105.695 31.3657 105.761 31.6074 105.894C31.849 106.024 32.0369 106.222 32.1712 106.488C32.3054 106.753 32.3725 107.087 32.3725 107.492V110.516H31.6414V107.542C31.6414 107.168 31.5444 106.877 31.3502 106.668C31.1561 106.457 30.8897 106.352 30.551 106.352C30.3176 106.352 30.109 106.403 29.9252 106.504C29.7435 106.605 29.5999 106.753 29.4946 106.947C29.3893 107.141 29.3366 107.376 29.3366 107.653ZM35.7779 105.757V106.377H33.312V105.757H35.7779ZM34.0307 104.617H34.7618V109.153C34.7618 109.359 34.7917 109.514 34.8516 109.617C34.9136 109.718 34.9921 109.787 35.0871 109.822C35.1841 109.855 35.2863 109.871 35.3937 109.871C35.4743 109.871 35.5404 109.867 35.592 109.859C35.6436 109.849 35.6849 109.84 35.7159 109.834L35.8646 110.491C35.8151 110.509 35.7459 110.528 35.6571 110.547C35.5683 110.567 35.4557 110.578 35.3194 110.578C35.1129 110.578 34.9105 110.533 34.7122 110.444C34.516 110.356 34.3529 110.22 34.2227 110.039C34.0947 109.857 34.0307 109.628 34.0307 109.351V104.617ZM38.8215 110.615C38.3631 110.615 37.9676 110.514 37.6351 110.311C37.3046 110.107 37.0496 109.822 36.8699 109.456C36.6923 109.089 36.6035 108.661 36.6035 108.174C36.6035 107.686 36.6923 107.257 36.8699 106.885C37.0496 106.511 37.2995 106.22 37.6196 106.011C37.9417 105.801 38.3176 105.695 38.7472 105.695C38.995 105.695 39.2398 105.737 39.4814 105.819C39.723 105.902 39.943 106.036 40.1412 106.222C40.3395 106.406 40.4975 106.649 40.6152 106.953C40.7329 107.257 40.7918 107.63 40.7918 108.074V108.384H37.1239V107.752H40.0483C40.0483 107.484 39.9946 107.244 39.8872 107.034C39.7819 106.823 39.6311 106.657 39.4349 106.535C39.2408 106.413 39.0115 106.352 38.7472 106.352C38.456 106.352 38.204 106.424 37.9913 106.569C37.7807 106.711 37.6185 106.897 37.5049 107.127C37.3914 107.356 37.3346 107.602 37.3346 107.864V108.285C37.3346 108.645 37.3965 108.949 37.5204 109.199C37.6464 109.447 37.8209 109.636 38.044 109.766C38.267 109.894 38.5262 109.958 38.8215 109.958C39.0136 109.958 39.1871 109.931 39.342 109.877C39.4989 109.822 39.6342 109.739 39.7478 109.63C39.8614 109.518 39.9492 109.38 40.0111 109.215L40.7174 109.413C40.6431 109.652 40.5181 109.863 40.3426 110.045C40.1671 110.224 39.9502 110.365 39.692 110.466C39.4339 110.565 39.1437 110.615 38.8215 110.615ZM41.9039 110.516V105.757H42.6102V106.476H42.6598C42.7465 106.241 42.9035 106.05 43.1307 105.903C43.3579 105.756 43.614 105.683 43.899 105.683C43.9527 105.683 44.0198 105.684 44.1003 105.686C44.1809 105.688 44.2418 105.691 44.2831 105.695V106.439C44.2583 106.433 44.2015 106.423 44.1127 106.411C44.026 106.396 43.9341 106.389 43.837 106.389C43.6057 106.389 43.3992 106.438 43.2174 106.535C43.0377 106.63 42.8952 106.762 42.7899 106.931C42.6867 107.099 42.635 107.29 42.635 107.504V110.516H41.9039ZM50.602 108.57V105.757H51.3331V110.516H50.602V109.71H50.5524C50.4409 109.952 50.2674 110.157 50.032 110.327C49.7965 110.494 49.4991 110.578 49.1398 110.578C48.8424 110.578 48.578 110.513 48.3467 110.382C48.1154 110.25 47.9337 110.052 47.8015 109.788C47.6693 109.521 47.6032 109.186 47.6032 108.781V105.757H48.3343V108.731C48.3343 109.078 48.4314 109.355 48.6255 109.561C48.8217 109.768 49.0716 109.871 49.3752 109.871C49.557 109.871 49.7418 109.825 49.9297 109.732C50.1198 109.639 50.2788 109.496 50.4068 109.304C50.5369 109.112 50.602 108.868 50.602 108.57ZM56.0426 106.823L55.3859 107.009C55.3446 106.899 55.2837 106.793 55.2031 106.69C55.1246 106.584 55.0172 106.498 54.8809 106.43C54.7446 106.361 54.5701 106.327 54.3574 106.327C54.0662 106.327 53.8235 106.394 53.6294 106.529C53.4373 106.661 53.3413 106.829 53.3413 107.034C53.3413 107.215 53.4074 107.359 53.5395 107.464C53.6717 107.57 53.8782 107.657 54.1591 107.728L54.8654 107.901C55.2909 108.004 55.6079 108.162 55.8165 108.375C56.0251 108.586 56.1294 108.857 56.1294 109.19C56.1294 109.462 56.0509 109.706 55.8939 109.921C55.739 110.136 55.5222 110.305 55.2434 110.429C54.9646 110.553 54.6403 110.615 54.2706 110.615C53.7853 110.615 53.3836 110.509 53.0656 110.299C52.7475 110.088 52.5462 109.78 52.4615 109.376L53.1554 109.202C53.2215 109.458 53.3464 109.65 53.5303 109.778C53.7161 109.906 53.9588 109.97 54.2583 109.97C54.599 109.97 54.8696 109.898 55.0699 109.754C55.2723 109.607 55.3735 109.431 55.3735 109.227C55.3735 109.062 55.3157 108.923 55.2 108.812C55.0844 108.698 54.9067 108.614 54.6672 108.558L53.8741 108.372C53.4383 108.269 53.1182 108.109 52.9138 107.892C52.7114 107.673 52.6102 107.399 52.6102 107.071C52.6102 106.802 52.6856 106.565 52.8363 106.358C52.9892 106.152 53.1967 105.99 53.459 105.872C53.7234 105.754 54.0228 105.695 54.3574 105.695C54.8283 105.695 55.1979 105.799 55.4664 106.005C55.737 106.212 55.929 106.484 56.0426 106.823ZM59.2249 110.615C58.7664 110.615 58.3709 110.514 58.0384 110.311C57.708 110.107 57.4529 109.822 57.2733 109.456C57.0956 109.089 57.0068 108.661 57.0068 108.174C57.0068 107.686 57.0956 107.257 57.2733 106.885C57.4529 106.511 57.7028 106.22 58.0229 106.011C58.3451 105.801 58.721 105.695 59.1506 105.695C59.3984 105.695 59.6431 105.737 59.8848 105.819C60.1264 105.902 60.3464 106.036 60.5446 106.222C60.7429 106.406 60.9009 106.649 61.0186 106.953C61.1363 107.257 61.1952 107.63 61.1952 108.074V108.384H57.5273V107.752H60.4517C60.4517 107.484 60.398 107.244 60.2906 107.034C60.1853 106.823 60.0345 106.657 59.8383 106.535C59.6442 106.413 59.4149 106.352 59.1506 106.352C58.8594 106.352 58.6074 106.424 58.3947 106.569C58.184 106.711 58.0219 106.897 57.9083 107.127C57.7947 107.356 57.7379 107.602 57.7379 107.864V108.285C57.7379 108.645 57.7999 108.949 57.9238 109.199C58.0498 109.447 58.2243 109.636 58.4474 109.766C58.6704 109.894 58.9296 109.958 59.2249 109.958C59.417 109.958 59.5905 109.931 59.7454 109.877C59.9023 109.822 60.0376 109.739 60.1512 109.63C60.2648 109.518 60.3525 109.38 60.4145 109.215L61.1208 109.413C61.0465 109.652 60.9215 109.863 60.746 110.045C60.5704 110.224 60.3536 110.365 60.0954 110.466C59.8373 110.565 59.5471 110.615 59.2249 110.615ZM62.3073 110.516V105.757H63.0136V106.476H63.0632C63.1499 106.241 63.3069 106.05 63.5341 105.903C63.7612 105.756 64.0173 105.683 64.3023 105.683C64.356 105.683 64.4232 105.684 64.5037 105.686C64.5842 105.688 64.6452 105.691 64.6865 105.695V106.439C64.6617 106.433 64.6049 106.423 64.5161 106.411C64.4294 106.396 64.3375 106.389 64.2404 106.389C64.0091 106.389 63.8026 106.438 63.6208 106.535C63.4411 106.63 63.2986 106.762 63.1933 106.931C63.09 107.099 63.0384 107.29 63.0384 107.504V110.516H62.3073ZM66.2842 107.653V110.516H65.5531V105.757H66.2594V106.501H66.3214C66.4329 106.259 66.6023 106.065 66.8294 105.918C67.0566 105.77 67.3499 105.695 67.7092 105.695C68.0314 105.695 68.3133 105.761 68.555 105.894C68.7966 106.024 68.9845 106.222 69.1188 106.488C69.253 106.753 69.3201 107.087 69.3201 107.492V110.516H68.589V107.542C68.589 107.168 68.492 106.877 68.2978 106.668C68.1037 106.457 67.8373 106.352 67.4986 106.352C67.2652 106.352 67.0566 106.403 66.8728 106.504C66.6911 106.605 66.5475 106.753 66.4422 106.947C66.3369 107.141 66.2842 107.376 66.2842 107.653ZM72.0563 110.627C71.7548 110.627 71.4812 110.57 71.2354 110.457C70.9896 110.341 70.7945 110.175 70.6499 109.958C70.5053 109.739 70.433 109.475 70.433 109.165C70.433 108.892 70.4867 108.671 70.5941 108.502C70.7015 108.331 70.8451 108.196 71.0247 108.099C71.2044 108.002 71.4027 107.93 71.6195 107.882C71.8384 107.833 72.0584 107.794 72.2794 107.765C72.5685 107.728 72.8029 107.7 72.9826 107.681C73.1643 107.66 73.2965 107.626 73.3791 107.579C73.4638 107.531 73.5061 107.449 73.5061 107.331V107.306C73.5061 107.001 73.4225 106.763 73.2552 106.594C73.09 106.424 72.8391 106.34 72.5024 106.34C72.1534 106.34 71.8797 106.416 71.6815 106.569C71.4832 106.722 71.3438 106.885 71.2633 107.058L70.5693 106.811C70.6933 106.521 70.8585 106.296 71.065 106.135C71.2736 105.972 71.5008 105.858 71.7465 105.794C71.9944 105.728 72.2381 105.695 72.4776 105.695C72.6305 105.695 72.806 105.714 73.0043 105.751C73.2046 105.786 73.3977 105.86 73.5836 105.971C73.7715 106.083 73.9274 106.251 74.0514 106.476C74.1753 106.701 74.2372 107.003 74.2372 107.381V110.516H73.5061V109.871H73.469C73.4194 109.975 73.3368 110.085 73.2211 110.203C73.1055 110.32 72.9516 110.421 72.7595 110.503C72.5675 110.586 72.3331 110.627 72.0563 110.627ZM72.1678 109.97C72.457 109.97 72.7007 109.914 72.8989 109.8C73.0993 109.686 73.25 109.54 73.3512 109.36C73.4545 109.18 73.5061 108.991 73.5061 108.793V108.124C73.4752 108.161 73.407 108.195 73.3017 108.226C73.1984 108.255 73.0786 108.281 72.9423 108.304C72.8081 108.324 72.6769 108.343 72.5489 108.36C72.4229 108.374 72.3207 108.386 72.2422 108.397C72.0522 108.421 71.8746 108.462 71.7094 108.517C71.5462 108.571 71.414 108.653 71.3128 108.762C71.2137 108.87 71.1641 109.016 71.1641 109.202C71.1641 109.456 71.2581 109.648 71.446 109.778C71.636 109.906 71.8766 109.97 72.1678 109.97ZM75.5716 110.516V105.757H76.278V106.501H76.3399C76.439 106.247 76.5991 106.05 76.8201 105.909C77.0411 105.767 77.3064 105.695 77.6162 105.695C77.9302 105.695 78.1914 105.767 78.4 105.909C78.6107 106.05 78.7748 106.247 78.8926 106.501H78.9421C79.064 106.255 79.2468 106.06 79.4905 105.915C79.7341 105.769 80.0264 105.695 80.3671 105.695C80.7926 105.695 81.1406 105.829 81.4111 106.095C81.6817 106.359 81.817 106.771 81.817 107.331V110.516H81.0859V107.331C81.0859 106.98 80.9898 106.729 80.7978 106.578C80.6057 106.427 80.3795 106.352 80.1193 106.352C79.7847 106.352 79.5256 106.453 79.3418 106.656C79.1579 106.856 79.066 107.11 79.066 107.418V110.516H78.3226V107.257C78.3226 106.986 78.2348 106.768 78.0592 106.603C77.8837 106.436 77.6575 106.352 77.3808 106.352C77.1908 106.352 77.0132 106.403 76.848 106.504C76.6848 106.605 76.5526 106.746 76.4514 106.925C76.3523 107.103 76.3027 107.308 76.3027 107.542V110.516H75.5716ZM85.1487 110.615C84.6902 110.615 84.2947 110.514 83.9622 110.311C83.6318 110.107 83.3767 109.822 83.1971 109.456C83.0194 109.089 82.9306 108.661 82.9306 108.174C82.9306 107.686 83.0194 107.257 83.1971 106.885C83.3767 106.511 83.6266 106.22 83.9467 106.011C84.2689 105.801 84.6448 105.695 85.0744 105.695C85.3222 105.695 85.5669 105.737 85.8086 105.819C86.0502 105.902 86.2702 106.036 86.4684 106.222C86.6667 106.406 86.8247 106.649 86.9424 106.953C87.0601 107.257 87.119 107.63 87.119 108.074V108.384H83.4511V107.752H86.3755C86.3755 107.484 86.3218 107.244 86.2144 107.034C86.1091 106.823 85.9583 106.657 85.7621 106.535C85.568 106.413 85.3387 106.352 85.0744 106.352C84.7832 106.352 84.5312 106.424 84.3185 106.569C84.1078 106.711 83.9457 106.897 83.8321 107.127C83.7185 107.356 83.6617 107.602 83.6617 107.864V108.285C83.6617 108.645 83.7237 108.949 83.8476 109.199C83.9736 109.447 84.1481 109.636 84.3712 109.766C84.5942 109.894 84.8534 109.958 85.1487 109.958C85.3408 109.958 85.5143 109.931 85.6692 109.877C85.8261 109.822 85.9614 109.739 86.075 109.63C86.1886 109.518 86.2763 109.38 86.3383 109.215L87.0446 109.413C86.9703 109.652 86.8453 109.863 86.6698 110.045C86.4942 110.224 86.2774 110.365 86.0192 110.466C85.7611 110.565 85.4709 110.615 85.1487 110.615ZM92.6177 110.615C92.1881 110.615 91.8112 110.513 91.487 110.308C91.1648 110.104 90.9128 109.818 90.7311 109.45C90.5514 109.082 90.4616 108.653 90.4616 108.161C90.4616 107.666 90.5514 107.233 90.7311 106.863C90.9128 106.494 91.1648 106.206 91.487 106.002C91.8112 105.798 92.1881 105.695 92.6177 105.695C93.0473 105.695 93.4231 105.798 93.7453 106.002C94.0696 106.206 94.3215 106.494 94.5012 106.863C94.6829 107.233 94.7738 107.666 94.7738 108.161C94.7738 108.653 94.6829 109.082 94.5012 109.45C94.3215 109.818 94.0696 110.104 93.7453 110.308C93.4231 110.513 93.0473 110.615 92.6177 110.615ZM92.6177 109.958C92.944 109.958 93.2125 109.874 93.4231 109.707C93.6338 109.54 93.7897 109.32 93.8909 109.047C93.9921 108.775 94.0427 108.479 94.0427 108.161C94.0427 107.843 93.9921 107.547 93.8909 107.272C93.7897 106.997 93.6338 106.775 93.4231 106.606C93.2125 106.437 92.944 106.352 92.6177 106.352C92.2914 106.352 92.0229 106.437 91.8122 106.606C91.6016 106.775 91.4457 106.997 91.3445 107.272C91.2433 107.547 91.1927 107.843 91.1927 108.161C91.1927 108.479 91.2433 108.775 91.3445 109.047C91.4457 109.32 91.6016 109.54 91.8122 109.707C92.0229 109.874 92.2914 109.958 92.6177 109.958ZM95.8898 110.516V105.757H96.5961V106.476H96.6457C96.7325 106.241 96.8894 106.05 97.1166 105.903C97.3438 105.756 97.5999 105.683 97.8849 105.683C97.9386 105.683 98.0057 105.684 98.0862 105.686C98.1668 105.688 98.2277 105.691 98.269 105.695V106.439C98.2442 106.433 98.1874 106.423 98.0986 106.411C98.0119 106.396 97.92 106.389 97.8229 106.389C97.5916 106.389 97.3851 106.438 97.2033 106.535C97.0237 106.63 96.8811 106.762 96.7758 106.931C96.6726 107.099 96.6209 107.29 96.6209 107.504V110.516H95.8898ZM103.584 110.615C103.126 110.615 102.73 110.514 102.398 110.311C102.067 110.107 101.812 109.822 101.633 109.456C101.455 109.089 101.366 108.661 101.366 108.174C101.366 107.686 101.455 107.257 101.633 106.885C101.812 106.511 102.062 106.22 102.382 106.011C102.704 105.801 103.08 105.695 103.51 105.695C103.758 105.695 104.002 105.737 104.244 105.819C104.486 105.902 104.706 106.036 104.904 106.222C105.102 106.406 105.26 106.649 105.378 106.953C105.496 107.257 105.554 107.63 105.554 108.074V108.384H101.887V107.752H104.811C104.811 107.484 104.757 107.244 104.65 107.034C104.545 106.823 104.394 106.657 104.198 106.535C104.003 106.413 103.774 106.352 103.51 106.352C103.219 106.352 102.967 106.424 102.754 106.569C102.543 106.711 102.381 106.897 102.268 107.127C102.154 107.356 102.097 107.602 102.097 107.864V108.285C102.097 108.645 102.159 108.949 102.283 109.199C102.409 109.447 102.584 109.636 102.807 109.766C103.03 109.894 103.289 109.958 103.584 109.958C103.776 109.958 103.95 109.931 104.105 109.877C104.262 109.822 104.397 109.739 104.51 109.63C104.624 109.518 104.712 109.38 104.774 109.215L105.48 109.413C105.406 109.652 105.281 109.863 105.105 110.045C104.93 110.224 104.713 110.365 104.455 110.466C104.197 110.565 103.906 110.615 103.584 110.615ZM106.667 110.516V105.757H107.373V106.501H107.435C107.534 106.247 107.694 106.05 107.915 105.909C108.136 105.767 108.401 105.695 108.711 105.695C109.025 105.695 109.286 105.767 109.495 105.909C109.706 106.05 109.87 106.247 109.987 106.501H110.037C110.159 106.255 110.342 106.06 110.585 105.915C110.829 105.769 111.121 105.695 111.462 105.695C111.888 105.695 112.236 105.829 112.506 106.095C112.777 106.359 112.912 106.771 112.912 107.331V110.516H112.181V107.331C112.181 106.98 112.085 106.729 111.893 106.578C111.701 106.427 111.474 106.352 111.214 106.352C110.88 106.352 110.62 106.453 110.437 106.656C110.253 106.856 110.161 107.11 110.161 107.418V110.516H109.417V107.257C109.417 106.986 109.33 106.768 109.154 106.603C108.979 106.436 108.752 106.352 108.476 106.352C108.286 106.352 108.108 106.403 107.943 106.504C107.78 106.605 107.648 106.746 107.546 106.925C107.447 107.103 107.398 107.308 107.398 107.542V110.516H106.667ZM115.649 110.627C115.347 110.627 115.074 110.57 114.828 110.457C114.582 110.341 114.387 110.175 114.242 109.958C114.098 109.739 114.026 109.475 114.026 109.165C114.026 108.892 114.079 108.671 114.187 108.502C114.294 108.331 114.438 108.196 114.617 108.099C114.797 108.002 114.995 107.93 115.212 107.882C115.431 107.833 115.651 107.794 115.872 107.765C116.161 107.728 116.395 107.7 116.575 107.681C116.757 107.66 116.889 107.626 116.972 107.579C117.056 107.531 117.099 107.449 117.099 107.331V107.306C117.099 107.001 117.015 106.763 116.848 106.594C116.683 106.424 116.432 106.34 116.095 106.34C115.746 106.34 115.472 106.416 115.274 106.569C115.076 106.722 114.936 106.885 114.856 107.058L114.162 106.811C114.286 106.521 114.451 106.296 114.658 106.135C114.866 105.972 115.093 105.858 115.339 105.794C115.587 105.728 115.831 105.695 116.07 105.695C116.223 105.695 116.399 105.714 116.597 105.751C116.797 105.786 116.99 105.86 117.176 105.971C117.364 106.083 117.52 106.251 117.644 106.476C117.768 106.701 117.83 107.003 117.83 107.381V110.516H117.099V109.871H117.061C117.012 109.975 116.929 110.085 116.814 110.203C116.698 110.32 116.544 110.421 116.352 110.503C116.16 110.586 115.926 110.627 115.649 110.627ZM115.76 109.97C116.05 109.97 116.293 109.914 116.491 109.8C116.692 109.686 116.843 109.54 116.944 109.36C117.047 109.18 117.099 108.991 117.099 108.793V108.124C117.068 108.161 117 108.195 116.894 108.226C116.791 108.255 116.671 108.281 116.535 108.304C116.401 108.324 116.269 108.343 116.141 108.36C116.015 108.374 115.913 108.386 115.835 108.397C115.645 108.421 115.467 108.462 115.302 108.517C115.139 108.571 115.007 108.653 114.905 108.762C114.806 108.87 114.757 109.016 114.757 109.202C114.757 109.456 114.851 109.648 115.039 109.778C115.229 109.906 115.469 109.97 115.76 109.97ZM119.164 110.516V105.757H119.895V110.516H119.164ZM119.536 104.964C119.393 104.964 119.271 104.916 119.167 104.819C119.066 104.722 119.015 104.605 119.015 104.469C119.015 104.332 119.066 104.216 119.167 104.119C119.271 104.021 119.393 103.973 119.536 103.973C119.678 103.973 119.8 104.021 119.901 104.119C120.005 104.216 120.056 104.332 120.056 104.469C120.056 104.605 120.005 104.722 119.901 104.819C119.8 104.916 119.678 104.964 119.536 104.964ZM121.965 104.171V110.516H121.234V104.171H121.965Z" fill="#9CA3AF"/>
<path d="M14.7683 144.516V138.171H16.912C17.4097 138.171 17.8166 138.261 18.1326 138.441C18.4506 138.618 18.6861 138.859 18.8389 139.162C18.9917 139.466 19.0681 139.805 19.0681 140.179C19.0681 140.552 18.9917 140.892 18.8389 141.198C18.6881 141.503 18.4547 141.747 18.1388 141.929C17.8228 142.109 17.418 142.198 16.9244 142.198H15.3878V141.517H16.8996C17.2404 141.517 17.514 141.458 17.7205 141.34C17.9271 141.223 18.0768 141.064 18.1697 140.863C18.2647 140.661 18.3122 140.433 18.3122 140.179C18.3122 139.925 18.2647 139.697 18.1697 139.497C18.0768 139.297 17.926 139.14 17.7175 139.026C17.5089 138.911 17.2321 138.853 16.8872 138.853H15.5365V144.516H14.7683ZM21.6068 144.627C21.3053 144.627 21.0317 144.57 20.7859 144.457C20.5401 144.341 20.345 144.175 20.2004 143.958C20.0558 143.739 19.9835 143.475 19.9835 143.165C19.9835 142.892 20.0372 142.671 20.1446 142.502C20.252 142.331 20.3956 142.196 20.5752 142.099C20.7549 142.002 20.9532 141.93 21.17 141.882C21.3889 141.833 21.6089 141.794 21.8299 141.765C22.119 141.728 22.3534 141.7 22.5331 141.681C22.7148 141.66 22.847 141.626 22.9296 141.579C23.0143 141.531 23.0566 141.449 23.0566 141.331V141.306C23.0566 141.001 22.973 140.763 22.8057 140.594C22.6405 140.424 22.3896 140.34 22.0529 140.34C21.7039 140.34 21.4303 140.416 21.232 140.569C21.0337 140.722 20.8943 140.885 20.8138 141.058L20.1199 140.811C20.2438 140.521 20.409 140.296 20.6155 140.135C20.8241 139.972 21.0513 139.858 21.297 139.794C21.5449 139.728 21.7886 139.695 22.0281 139.695C22.181 139.695 22.3565 139.714 22.5548 139.751C22.7551 139.786 22.9482 139.86 23.1341 139.971C23.322 140.083 23.478 140.251 23.6019 140.476C23.7258 140.701 23.7877 141.003 23.7877 141.381V144.516H23.0566V143.871H23.0195C22.9699 143.975 22.8873 144.085 22.7716 144.203C22.656 144.32 22.5021 144.421 22.3101 144.503C22.118 144.586 21.8836 144.627 21.6068 144.627ZM21.7184 143.97C22.0075 143.97 22.2512 143.914 22.4495 143.8C22.6498 143.686 22.8005 143.54 22.9017 143.36C23.005 143.18 23.0566 142.991 23.0566 142.793V142.124C23.0257 142.161 22.9575 142.195 22.8522 142.226C22.7489 142.255 22.6291 142.281 22.4928 142.304C22.3586 142.324 22.2274 142.343 22.0994 142.36C21.9734 142.374 21.8712 142.386 21.7927 142.397C21.6027 142.421 21.4251 142.462 21.2599 142.517C21.0967 142.571 20.9645 142.653 20.8633 142.762C20.7642 142.87 20.7146 143.016 20.7146 143.202C20.7146 143.456 20.8086 143.648 20.9966 143.778C21.1866 143.906 21.4272 143.97 21.7184 143.97ZM28.4926 140.823L27.8359 141.009C27.7946 140.899 27.7337 140.793 27.6531 140.69C27.5746 140.584 27.4672 140.498 27.3309 140.43C27.1946 140.361 27.0201 140.327 26.8074 140.327C26.5162 140.327 26.2735 140.394 26.0794 140.529C25.8873 140.661 25.7913 140.829 25.7913 141.034C25.7913 141.215 25.8574 141.359 25.9896 141.464C26.1217 141.57 26.3283 141.657 26.6091 141.728L27.3154 141.901C27.7409 142.004 28.0579 142.162 28.2665 142.375C28.4751 142.586 28.5794 142.857 28.5794 143.19C28.5794 143.462 28.5009 143.706 28.3439 143.921C28.189 144.136 27.9722 144.305 27.6934 144.429C27.4146 144.553 27.0903 144.615 26.7207 144.615C26.2353 144.615 25.8336 144.509 25.5156 144.299C25.1975 144.088 24.9962 143.78 24.9115 143.376L25.6054 143.202C25.6715 143.458 25.7965 143.65 25.9803 143.778C26.1661 143.906 26.4088 143.97 26.7083 143.97C27.049 143.97 27.3196 143.898 27.5199 143.754C27.7223 143.607 27.8235 143.431 27.8235 143.227C27.8235 143.062 27.7657 142.923 27.65 142.812C27.5344 142.698 27.3567 142.614 27.1172 142.558L26.3241 142.372C25.8884 142.269 25.5682 142.109 25.3638 141.892C25.1614 141.673 25.0602 141.399 25.0602 141.071C25.0602 140.802 25.1356 140.565 25.2863 140.358C25.4392 140.152 25.6467 139.99 25.909 139.872C26.1734 139.754 26.4728 139.695 26.8074 139.695C27.2783 139.695 27.6479 139.799 27.9164 140.005C28.187 140.212 28.379 140.484 28.4926 140.823ZM33.0504 140.823L32.3936 141.009C32.3523 140.899 32.2914 140.793 32.2109 140.69C32.1324 140.584 32.025 140.498 31.8887 140.43C31.7524 140.361 31.5779 140.327 31.3651 140.327C31.0739 140.327 30.8313 140.394 30.6371 140.529C30.4451 140.661 30.349 140.829 30.349 141.034C30.349 141.215 30.4151 141.359 30.5473 141.464C30.6795 141.57 30.886 141.657 31.1669 141.728L31.8732 141.901C32.2986 142.004 32.6157 142.162 32.8242 142.375C33.0328 142.586 33.1371 142.857 33.1371 143.19C33.1371 143.462 33.0586 143.706 32.9017 143.921C32.7468 144.136 32.5299 144.305 32.2511 144.429C31.9723 144.553 31.6481 144.615 31.2784 144.615C30.7931 144.615 30.3914 144.509 30.0733 144.299C29.7553 144.088 29.5539 143.78 29.4692 143.376L30.1632 143.202C30.2293 143.458 30.3542 143.65 30.538 143.778C30.7239 143.906 30.9665 143.97 31.266 143.97C31.6068 143.97 31.8773 143.898 32.0777 143.754C32.28 143.607 32.3812 143.431 32.3812 143.227C32.3812 143.062 32.3234 142.923 32.2078 142.812C32.0921 142.698 31.9145 142.614 31.6749 142.558L30.8819 142.372C30.4461 142.269 30.126 142.109 29.9215 141.892C29.7191 141.673 29.6179 141.399 29.6179 141.071C29.6179 140.802 29.6933 140.565 29.8441 140.358C29.9969 140.152 30.2045 139.99 30.4668 139.872C30.7311 139.754 31.0306 139.695 31.3651 139.695C31.836 139.695 32.2057 139.799 32.4742 140.005C32.7447 140.212 32.9368 140.484 33.0504 140.823ZM35.3157 144.516L33.8659 139.757H34.6342L35.6627 143.4H35.7122L36.7283 139.757H37.509L38.5127 143.388H38.5623L39.5908 139.757H40.359L38.9092 144.516H38.1905L37.1496 140.86H37.0753L36.0344 144.516H35.3157ZM43.0968 144.615C42.6672 144.615 42.2903 144.513 41.9661 144.308C41.6439 144.104 41.3919 143.818 41.2102 143.45C41.0305 143.082 40.9407 142.653 40.9407 142.161C40.9407 141.666 41.0305 141.233 41.2102 140.863C41.3919 140.494 41.6439 140.206 41.9661 140.002C42.2903 139.798 42.6672 139.695 43.0968 139.695C43.5264 139.695 43.9022 139.798 44.2244 140.002C44.5487 140.206 44.8006 140.494 44.9803 140.863C45.162 141.233 45.2529 141.666 45.2529 142.161C45.2529 142.653 45.162 143.082 44.9803 143.45C44.8006 143.818 44.5487 144.104 44.2244 144.308C43.9022 144.513 43.5264 144.615 43.0968 144.615ZM43.0968 143.958C43.4231 143.958 43.6916 143.874 43.9022 143.707C44.1129 143.54 44.2688 143.32 44.37 143.047C44.4712 142.775 44.5218 142.479 44.5218 142.161C44.5218 141.843 44.4712 141.547 44.37 141.272C44.2688 140.997 44.1129 140.775 43.9022 140.606C43.6916 140.437 43.4231 140.352 43.0968 140.352C42.7705 140.352 42.502 140.437 42.2913 140.606C42.0807 140.775 41.9248 140.997 41.8236 141.272C41.7224 141.547 41.6718 141.843 41.6718 142.161C41.6718 142.479 41.7224 142.775 41.8236 143.047C41.9248 143.32 42.0807 143.54 42.2913 143.707C42.502 143.874 42.7705 143.958 43.0968 143.958ZM46.3689 144.516V139.757H47.0752V140.476H47.1248C47.2116 140.241 47.3685 140.05 47.5957 139.903C47.8229 139.756 48.079 139.683 48.364 139.683C48.4177 139.683 48.4848 139.684 48.5653 139.686C48.6459 139.688 48.7068 139.691 48.7481 139.695V140.439C48.7233 140.433 48.6665 140.423 48.5777 140.411C48.491 140.396 48.3991 140.389 48.302 140.389C48.0707 140.389 47.8642 140.438 47.6824 140.535C47.5028 140.63 47.3602 140.762 47.2549 140.931C47.1517 141.099 47.1 141.29 47.1 141.504V144.516H46.3689ZM51.2667 144.615C50.8701 144.615 50.5201 144.515 50.2165 144.314C49.9129 144.112 49.6754 143.827 49.504 143.459C49.3326 143.09 49.2469 142.653 49.2469 142.149C49.2469 141.649 49.3326 141.215 49.504 140.848C49.6754 140.48 49.9139 140.196 50.2196 139.996C50.5252 139.795 50.8784 139.695 51.2791 139.695C51.5888 139.695 51.8336 139.747 52.0133 139.85C52.195 139.951 52.3334 140.067 52.4284 140.197C52.5254 140.325 52.6008 140.431 52.6545 140.513H52.7165V138.171H53.4476V144.516H52.7413V143.785H52.6545C52.6008 143.871 52.5244 143.981 52.4253 144.113C52.3261 144.243 52.1847 144.36 52.0009 144.463C51.8171 144.564 51.5723 144.615 51.2667 144.615ZM51.3658 143.958C51.6591 143.958 51.9069 143.882 52.1093 143.729C52.3117 143.574 52.4655 143.36 52.5709 143.088C52.6762 142.813 52.7289 142.496 52.7289 142.136C52.7289 141.781 52.6772 141.47 52.574 141.204C52.4707 140.936 52.3179 140.727 52.1155 140.578C51.9131 140.427 51.6632 140.352 51.3658 140.352C51.056 140.352 50.7979 140.432 50.5913 140.591C50.3869 140.748 50.233 140.961 50.1297 141.232C50.0285 141.5 49.978 141.802 49.978 142.136C49.978 142.475 50.0296 142.783 50.1328 143.06C50.2382 143.334 50.3931 143.553 50.5975 143.716C50.8041 143.877 51.0601 143.958 51.3658 143.958Z" fill="#111827"/>
<rect x="14.2726" y="153.327" width="216.455" height="29.4548" stroke="#E3E5E8" stroke-width="0.545226"/>
<path d="M23.4909 171.055V164.71H27.3199V165.392H24.2592V167.536H27.1216V168.217H24.2592V170.373H27.3695V171.055H23.4909ZM29.3366 168.192V171.055H28.6055V166.296H29.3118V167.04H29.3738C29.4853 166.798 29.6547 166.604 29.8818 166.457C30.109 166.309 30.4023 166.234 30.7616 166.234C31.0838 166.234 31.3657 166.3 31.6074 166.433C31.849 166.563 32.0369 166.761 32.1712 167.027C32.3054 167.292 32.3725 167.626 32.3725 168.031V171.055H31.6414V168.081C31.6414 167.707 31.5444 167.416 31.3502 167.207C31.1561 166.996 30.8897 166.891 30.551 166.891C30.3176 166.891 30.109 166.942 29.9252 167.043C29.7435 167.144 29.5999 167.292 29.4946 167.486C29.3893 167.68 29.3366 167.916 29.3366 168.192ZM35.7779 166.296V166.916H33.312V166.296H35.7779ZM34.0307 165.156H34.7618V169.692C34.7618 169.898 34.7917 170.053 34.8516 170.156C34.9136 170.258 34.9921 170.326 35.0871 170.361C35.1841 170.394 35.2863 170.41 35.3937 170.41C35.4743 170.41 35.5404 170.406 35.592 170.398C35.6436 170.388 35.6849 170.379 35.7159 170.373L35.8646 171.03C35.8151 171.048 35.7459 171.067 35.6571 171.086C35.5683 171.106 35.4557 171.117 35.3194 171.117C35.1129 171.117 34.9105 171.072 34.7122 170.983C34.516 170.895 34.3529 170.759 34.2227 170.578C34.0947 170.396 34.0307 170.167 34.0307 169.89V165.156ZM38.8215 171.154C38.3631 171.154 37.9676 171.053 37.6351 170.85C37.3046 170.646 37.0496 170.361 36.8699 169.995C36.6923 169.628 36.6035 169.2 36.6035 168.713C36.6035 168.225 36.6923 167.796 36.8699 167.424C37.0496 167.05 37.2995 166.759 37.6196 166.55C37.9417 166.34 38.3176 166.234 38.7472 166.234C38.995 166.234 39.2398 166.276 39.4814 166.358C39.723 166.441 39.943 166.575 40.1412 166.761C40.3395 166.945 40.4975 167.189 40.6152 167.492C40.7329 167.796 40.7918 168.17 40.7918 168.614V168.923H37.1239V168.291H40.0483C40.0483 168.023 39.9946 167.783 39.8872 167.573C39.7819 167.362 39.6311 167.196 39.4349 167.074C39.2408 166.952 39.0115 166.891 38.7472 166.891C38.456 166.891 38.204 166.963 37.9913 167.108C37.7807 167.25 37.6185 167.436 37.5049 167.666C37.3914 167.895 37.3346 168.141 37.3346 168.403V168.824C37.3346 169.184 37.3965 169.488 37.5204 169.738C37.6464 169.986 37.8209 170.175 38.044 170.305C38.267 170.433 38.5262 170.497 38.8215 170.497C39.0136 170.497 39.1871 170.47 39.342 170.417C39.4989 170.361 39.6342 170.278 39.7478 170.169C39.8614 170.057 39.9492 169.919 40.0111 169.754L40.7174 169.952C40.6431 170.191 40.5181 170.402 40.3426 170.584C40.1671 170.763 39.9502 170.904 39.692 171.005C39.4339 171.104 39.1437 171.154 38.8215 171.154ZM41.9039 171.055V166.296H42.6102V167.015H42.6598C42.7465 166.78 42.9035 166.589 43.1307 166.442C43.3579 166.295 43.614 166.222 43.899 166.222C43.9527 166.222 44.0198 166.223 44.1003 166.225C44.1809 166.227 44.2418 166.23 44.2831 166.234V166.978C44.2583 166.972 44.2015 166.962 44.1127 166.95C44.026 166.936 43.9341 166.928 43.837 166.928C43.6057 166.928 43.3992 166.977 43.2174 167.074C43.0377 167.169 42.8952 167.301 42.7899 167.47C42.6867 167.638 42.635 167.829 42.635 168.044V171.055H41.9039ZM47.6032 172.839V166.296H48.3096V167.052H48.3963C48.45 166.97 48.5243 166.864 48.6193 166.736C48.7164 166.606 48.8548 166.49 49.0345 166.389C49.2162 166.286 49.462 166.234 49.7718 166.234C50.1724 166.234 50.5256 166.335 50.8312 166.535C51.1369 166.735 51.3754 167.019 51.5468 167.387C51.7183 167.754 51.804 168.188 51.804 168.688C51.804 169.192 51.7183 169.629 51.5468 169.998C51.3754 170.366 51.1379 170.651 50.8343 170.853C50.5307 171.054 50.1807 171.154 49.7841 171.154C49.4785 171.154 49.2338 171.103 49.05 171.002C48.8661 170.899 48.7247 170.782 48.6255 170.652C48.5264 170.52 48.45 170.41 48.3963 170.324H48.3343V172.839H47.6032ZM48.322 168.676C48.322 169.035 48.3746 169.352 48.4799 169.627C48.5853 169.899 48.7391 170.113 48.9415 170.268C49.1439 170.421 49.3918 170.497 49.685 170.497C49.9907 170.497 50.2457 170.417 50.4502 170.255C50.6567 170.092 50.8116 169.873 50.9149 169.599C51.0202 169.322 51.0729 169.014 51.0729 168.676C51.0729 168.341 51.0212 168.039 50.918 167.771C50.8168 167.5 50.6629 167.287 50.4564 167.13C50.2519 166.971 49.9948 166.891 49.685 166.891C49.3876 166.891 49.1377 166.967 48.9353 167.117C48.7329 167.266 48.5801 167.475 48.4768 167.743C48.3736 168.009 48.322 168.32 48.322 168.676ZM54.3194 171.166C54.0179 171.166 53.7443 171.109 53.4985 170.996C53.2527 170.88 53.0576 170.714 52.913 170.497C52.7684 170.278 52.6962 170.014 52.6962 169.704C52.6962 169.431 52.7498 169.21 52.8572 169.041C52.9646 168.87 53.1082 168.735 53.2878 168.638C53.4675 168.541 53.6658 168.469 53.8826 168.421C54.1016 168.372 54.3215 168.333 54.5425 168.304C54.8316 168.267 55.066 168.239 55.2457 168.22C55.4274 168.199 55.5596 168.165 55.6422 168.118C55.7269 168.07 55.7692 167.988 55.7692 167.87V167.845C55.7692 167.54 55.6856 167.302 55.5183 167.133C55.3531 166.963 55.1022 166.879 54.7655 166.879C54.4165 166.879 54.1429 166.955 53.9446 167.108C53.7463 167.261 53.6069 167.424 53.5264 167.597L52.8325 167.35C52.9564 167.06 53.1216 166.835 53.3281 166.674C53.5367 166.511 53.7639 166.398 54.0097 166.334C54.2575 166.267 54.5012 166.234 54.7407 166.234C54.8936 166.234 55.0691 166.253 55.2674 166.29C55.4677 166.325 55.6608 166.399 55.8467 166.51C56.0346 166.622 56.1906 166.79 56.3145 167.015C56.4384 167.24 56.5003 167.542 56.5003 167.92V171.055H55.7692V170.41H55.7321C55.6825 170.514 55.5999 170.624 55.4842 170.742C55.3686 170.86 55.2147 170.96 55.0227 171.042C54.8306 171.125 54.5962 171.166 54.3194 171.166ZM54.431 170.509C54.7201 170.509 54.9638 170.453 55.1621 170.339C55.3624 170.225 55.5132 170.079 55.6144 169.899C55.7176 169.72 55.7692 169.531 55.7692 169.332V168.663C55.7383 168.7 55.6701 168.734 55.5648 168.765C55.4615 168.794 55.3417 168.82 55.2054 168.843C55.0712 168.863 54.94 168.882 54.812 168.899C54.686 168.913 54.5838 168.925 54.5053 168.936C54.3153 168.961 54.1377 169.001 53.9725 169.057C53.8093 169.11 53.6771 169.192 53.5759 169.301C53.4768 169.409 53.4272 169.555 53.4272 169.741C53.4272 169.995 53.5212 170.187 53.7092 170.317C53.8992 170.445 54.1398 170.509 54.431 170.509ZM61.2052 167.362L60.5485 167.548C60.5072 167.438 60.4463 167.332 60.3657 167.229C60.2872 167.123 60.1798 167.037 60.0435 166.969C59.9072 166.9 59.7327 166.866 59.52 166.866C59.2288 166.866 58.9861 166.933 58.792 167.068C58.5999 167.2 58.5039 167.368 58.5039 167.573C58.5039 167.754 58.57 167.898 58.7022 168.003C58.8343 168.109 59.0409 168.196 59.3217 168.267L60.028 168.44C60.4535 168.543 60.7705 168.701 60.9791 168.914C61.1877 169.125 61.292 169.396 61.292 169.729C61.292 170.001 61.2135 170.245 61.0565 170.46C60.9016 170.675 60.6848 170.844 60.406 170.968C60.1272 171.092 59.8029 171.154 59.4333 171.154C58.9479 171.154 58.5462 171.048 58.2282 170.838C57.9101 170.627 57.7088 170.319 57.6241 169.915L58.318 169.741C58.3841 169.997 58.5091 170.189 58.6929 170.317C58.8787 170.445 59.1214 170.509 59.4209 170.509C59.7616 170.509 60.0322 170.437 60.2325 170.293C60.4349 170.146 60.5361 169.97 60.5361 169.766C60.5361 169.601 60.4783 169.462 60.3626 169.351C60.247 169.237 60.0694 169.153 59.8298 169.097L59.0367 168.911C58.601 168.808 58.2808 168.648 58.0764 168.431C57.874 168.212 57.7728 167.938 57.7728 167.61C57.7728 167.341 57.8482 167.104 57.9989 166.897C58.1518 166.691 58.3593 166.529 58.6216 166.411C58.886 166.293 59.1854 166.234 59.52 166.234C59.9909 166.234 60.3606 166.338 60.629 166.544C60.8996 166.751 61.0917 167.023 61.2052 167.362ZM65.763 167.362L65.1062 167.548C65.0649 167.438 65.004 167.332 64.9235 167.229C64.845 167.123 64.7376 167.037 64.6013 166.969C64.465 166.9 64.2905 166.866 64.0777 166.866C63.7865 166.866 63.5439 166.933 63.3497 167.068C63.1577 167.2 63.0616 167.368 63.0616 167.573C63.0616 167.754 63.1277 167.898 63.2599 168.003C63.3921 168.109 63.5986 168.196 63.8795 168.267L64.5858 168.44C65.0112 168.543 65.3283 168.701 65.5368 168.914C65.7454 169.125 65.8497 169.396 65.8497 169.729C65.8497 170.001 65.7712 170.245 65.6143 170.46C65.4594 170.675 65.2425 170.844 64.9637 170.968C64.6849 171.092 64.3607 171.154 63.991 171.154C63.5057 171.154 63.104 171.048 62.7859 170.838C62.4679 170.627 62.2665 170.319 62.1818 169.915L62.8758 169.741C62.9419 169.997 63.0668 170.189 63.2506 170.317C63.4365 170.445 63.6792 170.509 63.9786 170.509C64.3194 170.509 64.5899 170.437 64.7903 170.293C64.9926 170.146 65.0938 169.97 65.0938 169.766C65.0938 169.601 65.036 169.462 64.9204 169.351C64.8047 169.237 64.6271 169.153 64.3875 169.097L63.5945 168.911C63.1587 168.808 62.8386 168.648 62.6341 168.431C62.4317 168.212 62.3305 167.938 62.3305 167.61C62.3305 167.341 62.4059 167.104 62.5567 166.897C62.7095 166.691 62.9171 166.529 63.1794 166.411C63.4437 166.293 63.7432 166.234 64.0777 166.234C64.5486 166.234 64.9183 166.338 65.1868 166.544C65.4573 166.751 65.6494 167.023 65.763 167.362ZM68.0283 171.055L66.5785 166.296H67.3468L68.3753 169.939H68.4248L69.4409 166.296H70.2216L71.2253 169.927H71.2749L72.3034 166.296H73.0717L71.6218 171.055H70.9031L69.8623 167.399H69.7879L68.747 171.055H68.0283ZM75.8094 171.154C75.3798 171.154 75.0029 171.052 74.6787 170.847C74.3565 170.643 74.1045 170.357 73.9228 169.989C73.7431 169.621 73.6533 169.192 73.6533 168.7C73.6533 168.205 73.7431 167.772 73.9228 167.402C74.1045 167.033 74.3565 166.746 74.6787 166.541C75.0029 166.337 75.3798 166.234 75.8094 166.234C76.239 166.234 76.6148 166.337 76.937 166.541C77.2613 166.746 77.5132 167.033 77.6929 167.402C77.8746 167.772 77.9655 168.205 77.9655 168.7C77.9655 169.192 77.8746 169.621 77.6929 169.989C77.5132 170.357 77.2613 170.643 76.937 170.847C76.6148 171.052 76.239 171.154 75.8094 171.154ZM75.8094 170.497C76.1357 170.497 76.4042 170.413 76.6148 170.246C76.8255 170.079 76.9814 169.859 77.0826 169.586C77.1838 169.314 77.2344 169.018 77.2344 168.7C77.2344 168.382 77.1838 168.086 77.0826 167.811C76.9814 167.537 76.8255 167.315 76.6148 167.145C76.4042 166.976 76.1357 166.891 75.8094 166.891C75.4831 166.891 75.2146 166.976 75.004 167.145C74.7933 167.315 74.6374 167.537 74.5362 167.811C74.435 168.086 74.3844 168.382 74.3844 168.7C74.3844 169.018 74.435 169.314 74.5362 169.586C74.6374 169.859 74.7933 170.079 75.004 170.246C75.2146 170.413 75.4831 170.497 75.8094 170.497ZM79.0815 171.055V166.296H79.7878V167.015H79.8374C79.9242 166.78 80.0811 166.589 80.3083 166.442C80.5355 166.295 80.7916 166.222 81.0766 166.222C81.1303 166.222 81.1974 166.223 81.2779 166.225C81.3585 166.227 81.4194 166.23 81.4607 166.234V166.978C81.4359 166.972 81.3791 166.962 81.2903 166.95C81.2036 166.936 81.1117 166.928 81.0146 166.928C80.7833 166.928 80.5768 166.977 80.395 167.074C80.2154 167.169 80.0729 167.301 79.9675 167.47C79.8643 167.638 79.8126 167.829 79.8126 168.044V171.055H79.0815ZM83.9793 171.154C83.5827 171.154 83.2327 171.054 82.9291 170.853C82.6255 170.651 82.388 170.366 82.2166 169.998C82.0452 169.629 81.9595 169.192 81.9595 168.688C81.9595 168.188 82.0452 167.754 82.2166 167.387C82.388 167.019 82.6265 166.735 82.9322 166.535C83.2378 166.335 83.591 166.234 83.9917 166.234C84.3015 166.234 84.5462 166.286 84.7259 166.389C84.9076 166.49 85.046 166.606 85.141 166.736C85.238 166.864 85.3134 166.97 85.3671 167.052H85.4291V164.71H86.1602V171.055H85.4539V170.324H85.3671C85.3134 170.41 85.237 170.52 85.1379 170.652C85.0387 170.782 84.8973 170.899 84.7135 171.002C84.5297 171.103 84.2849 171.154 83.9793 171.154ZM84.0784 170.497C84.3717 170.497 84.6195 170.421 84.8219 170.268C85.0243 170.113 85.1781 169.899 85.2835 169.627C85.3888 169.352 85.4415 169.035 85.4415 168.676C85.4415 168.32 85.3898 168.009 85.2866 167.743C85.1833 167.475 85.0305 167.266 84.8281 167.117C84.6257 166.967 84.3758 166.891 84.0784 166.891C83.7686 166.891 83.5105 166.971 83.3039 167.13C83.0995 167.287 82.9456 167.5 82.8424 167.771C82.7412 168.039 82.6906 168.341 82.6906 168.676C82.6906 169.014 82.7422 169.322 82.8454 169.599C82.9508 169.873 83.1057 170.092 83.3101 170.255C83.5167 170.417 83.7727 170.497 84.0784 170.497Z" fill="#9CA3AF"/>
<g filter="url(#filter0_d_5555_73591)">
<rect x="93.5547" y="205.055" width="57.8945" height="27.0854" rx="5.45226" fill="#3B82F6"/>
<path d="M111.697 221.594V215.249H112.654V220.77H115.529V221.594H111.697ZM118.551 221.69C118.105 221.69 117.716 221.588 117.383 221.383C117.051 221.179 116.793 220.893 116.609 220.525C116.425 220.157 116.333 219.728 116.333 219.236C116.333 218.743 116.425 218.311 116.609 217.941C116.793 217.572 117.051 217.285 117.383 217.08C117.716 216.876 118.105 216.773 118.551 216.773C118.997 216.773 119.386 216.876 119.719 217.08C120.051 217.285 120.31 217.572 120.493 217.941C120.677 218.311 120.769 218.743 120.769 219.236C120.769 219.728 120.677 220.157 120.493 220.525C120.31 220.893 120.051 221.179 119.719 221.383C119.386 221.588 118.997 221.69 118.551 221.69ZM118.554 220.912C118.843 220.912 119.083 220.836 119.273 220.683C119.463 220.53 119.603 220.327 119.694 220.073C119.787 219.819 119.834 219.539 119.834 219.233C119.834 218.93 119.787 218.651 119.694 218.397C119.603 218.141 119.463 217.935 119.273 217.78C119.083 217.625 118.843 217.548 118.554 217.548C118.263 217.548 118.021 217.625 117.829 217.78C117.639 217.935 117.498 218.141 117.405 218.397C117.314 218.651 117.269 218.93 117.269 219.233C117.269 219.539 117.314 219.819 117.405 220.073C117.498 220.327 117.639 220.53 117.829 220.683C118.021 220.836 118.263 220.912 118.554 220.912ZM123.798 223.477C123.42 223.477 123.095 223.428 122.822 223.329C122.552 223.229 122.331 223.098 122.159 222.935C121.988 222.772 121.86 222.593 121.775 222.399L122.571 222.071C122.627 222.162 122.701 222.258 122.794 222.359C122.889 222.462 123.017 222.55 123.179 222.622C123.342 222.695 123.551 222.731 123.807 222.731C124.158 222.731 124.449 222.645 124.678 222.474C124.907 222.304 125.022 222.034 125.022 221.662V220.726H124.963C124.907 220.828 124.827 220.94 124.721 221.064C124.618 221.188 124.476 221.295 124.294 221.386C124.112 221.477 123.876 221.522 123.584 221.522C123.208 221.522 122.87 221.435 122.568 221.259C122.269 221.082 122.031 220.82 121.856 220.475C121.682 220.128 121.596 219.702 121.596 219.196C121.596 218.69 121.681 218.256 121.853 217.895C122.026 217.533 122.264 217.257 122.565 217.065C122.867 216.871 123.208 216.773 123.591 216.773C123.886 216.773 124.124 216.823 124.306 216.922C124.488 217.019 124.629 217.133 124.731 217.263C124.834 217.393 124.913 217.508 124.969 217.607H125.037V216.835H125.945V221.699C125.945 222.108 125.85 222.444 125.66 222.706C125.47 222.968 125.213 223.162 124.889 223.288C124.566 223.414 124.203 223.477 123.798 223.477ZM123.789 220.754C124.055 220.754 124.28 220.692 124.464 220.568C124.65 220.442 124.79 220.263 124.885 220.029C124.983 219.794 125.031 219.512 125.031 219.184C125.031 218.863 124.984 218.582 124.889 218.338C124.794 218.094 124.654 217.904 124.47 217.768C124.287 217.63 124.059 217.56 123.789 217.56C123.51 217.56 123.278 217.633 123.092 217.777C122.906 217.92 122.765 218.114 122.67 218.36C122.578 218.605 122.531 218.88 122.531 219.184C122.531 219.495 122.579 219.769 122.674 220.005C122.769 220.24 122.909 220.424 123.095 220.556C123.283 220.688 123.514 220.754 123.789 220.754ZM127.187 221.594V216.835H128.113V221.594H127.187ZM127.655 216.101C127.494 216.101 127.355 216.048 127.24 215.94C127.126 215.831 127.069 215.701 127.069 215.55C127.069 215.397 127.126 215.267 127.24 215.159C127.355 215.05 127.494 214.995 127.655 214.995C127.816 214.995 127.953 215.05 128.067 215.159C128.183 215.267 128.24 215.397 128.24 215.55C128.24 215.701 128.183 215.831 128.067 215.94C127.953 216.048 127.816 216.101 127.655 216.101ZM130.286 218.768V221.594H129.36V216.835H130.249V217.61H130.308C130.417 217.358 130.588 217.156 130.822 217.003C131.057 216.85 131.354 216.773 131.711 216.773C132.035 216.773 132.319 216.842 132.563 216.978C132.806 217.112 132.995 217.312 133.13 217.579C133.264 217.845 133.331 218.175 133.331 218.567V221.594H132.405V218.679C132.405 218.334 132.315 218.064 132.135 217.87C131.956 217.674 131.709 217.576 131.395 217.576C131.18 217.576 130.989 217.622 130.822 217.715C130.657 217.808 130.525 217.944 130.428 218.124C130.333 218.302 130.286 218.517 130.286 218.768Z" fill="white"/>
</g>
<defs>
<filter id="filter0_d_5555_73591" x="91.5547" y="204.055" width="61.8945" height="31.0859" filterUnits="userSpaceOnUse" color-interpolation-filters="sRGB">
<feFlood flood-opacity="0" result="BackgroundImageFix"/>
<feColorMatrix in="SourceAlpha" type="matrix" values="0 0 0 0 0 0 0 0 0 0 0 0 0 0 0 0 0 0 127 0" result="hardAlpha"/>
<feOffset dy="1"/>
<feGaussianBlur stdDeviation="1"/>
<feColorMatrix type="matrix" values="0 0 0 0 0 0 0 0 0 0 0 0 0 0 0 0 0 0 0.05 0"/>
<feBlend mode="normal" in2="BackgroundImageFix" result="effect1_dropShadow_5555_73591"/>
<feBlend mode="normal" in="SourceGraphic" in2="effect1_dropShadow_5555_73591" result="shape"/>
</filter>
</defs>
</svg>
