<svg width="245" height="245" viewBox="0 0 245 245" fill="none" xmlns="http://www.w3.org/2000/svg">
<rect width="245" height="245" rx="8" fill="white"/>
<path d="M79.2157 42V30.1042H81.7307V39.9264H86.8306V42H79.2157ZM92.4809 42.1743C91.5786 42.1743 90.7983 41.9826 90.14 41.5992C89.4856 41.212 88.9803 40.6737 88.624 39.9844C88.2677 39.2913 88.0896 38.4878 88.0896 37.5739C88.0896 36.6523 88.2677 35.8468 88.624 35.1576C88.9803 34.4644 89.4856 33.9262 90.14 33.5428C90.7983 33.1556 91.5786 32.9619 92.4809 32.9619C93.3831 32.9619 94.1615 33.1556 94.8159 33.5428C95.4742 33.9262 95.9815 34.4644 96.3377 35.1576C96.694 35.8468 96.8721 36.6523 96.8721 37.5739C96.8721 38.4878 96.694 39.2913 96.3377 39.9844C95.9815 40.6737 95.4742 41.212 94.8159 41.5992C94.1615 41.9826 93.3831 42.1743 92.4809 42.1743ZM92.4925 40.2574C92.9029 40.2574 93.2456 40.1413 93.5206 39.9089C93.7955 39.6727 94.0027 39.3513 94.1421 38.9447C94.2854 38.5381 94.357 38.0754 94.357 37.5565C94.357 37.0376 94.2854 36.5748 94.1421 36.1682C94.0027 35.7617 93.7955 35.4402 93.5206 35.204C93.2456 34.9678 92.9029 34.8497 92.4925 34.8497C92.0781 34.8497 91.7296 34.9678 91.4469 35.204C91.1681 35.4402 90.9571 35.7617 90.8138 36.1682C90.6744 36.5748 90.6047 37.0376 90.6047 37.5565C90.6047 38.0754 90.6744 38.5381 90.8138 38.9447C90.9571 39.3513 91.1681 39.6727 91.4469 39.9089C91.7296 40.1413 92.0781 40.2574 92.4925 40.2574ZM102.501 45.5316C101.699 45.5316 101.012 45.4212 100.439 45.2005C99.8693 44.9836 99.4162 44.6874 99.0793 44.3118C98.7424 43.9362 98.5237 43.5141 98.423 43.0455L100.712 42.7377C100.781 42.9158 100.892 43.0823 101.043 43.2372C101.194 43.3921 101.393 43.516 101.641 43.609C101.893 43.7058 102.199 43.7542 102.559 43.7542C103.097 43.7542 103.54 43.6225 103.889 43.3592C104.241 43.0997 104.417 42.6641 104.417 42.0523V40.4201H104.313C104.204 40.6679 104.042 40.9022 103.825 41.1229C103.608 41.3436 103.329 41.5237 102.988 41.6631C102.648 41.8025 102.241 41.8722 101.769 41.8722C101.099 41.8722 100.489 41.7173 99.939 41.4075C99.393 41.0939 98.9574 40.6156 98.6321 39.9728C98.3107 39.3261 98.15 38.5091 98.15 37.5216C98.15 36.511 98.3145 35.6668 98.6437 34.9891C98.9728 34.3115 99.4104 33.8042 99.9564 33.4673C100.506 33.1304 101.108 32.9619 101.763 32.9619C102.262 32.9619 102.681 33.0471 103.018 33.2175C103.354 33.384 103.625 33.5931 103.831 33.8448C104.04 34.0927 104.201 34.3366 104.313 34.5767H104.406V33.0781H106.863V42.0871C106.863 42.8461 106.677 43.4812 106.305 43.9923C105.933 44.5035 105.418 44.8868 104.76 45.1424C104.106 45.4019 103.352 45.5316 102.501 45.5316ZM102.553 40.0135C102.952 40.0135 103.289 39.9147 103.564 39.7173C103.842 39.5159 104.055 39.2293 104.202 38.8576C104.353 38.482 104.429 38.0328 104.429 37.51C104.429 36.9872 104.355 36.5342 104.208 36.1508C104.061 35.7636 103.848 35.4635 103.569 35.2505C103.291 35.0375 102.952 34.931 102.553 34.931C102.146 34.931 101.804 35.0414 101.525 35.2621C101.246 35.479 101.035 35.781 100.892 36.1682C100.748 36.5555 100.677 37.0027 100.677 37.51C100.677 38.025 100.748 38.4704 100.892 38.846C101.039 39.2177 101.25 39.5062 101.525 39.7114C101.804 39.9128 102.146 40.0135 102.553 40.0135ZM108.832 42V33.0781H111.306V42H108.832ZM110.075 31.928C109.707 31.928 109.391 31.8061 109.128 31.5621C108.869 31.3143 108.739 31.018 108.739 30.6734C108.739 30.3326 108.869 30.0403 109.128 29.7963C109.391 29.5485 109.707 29.4246 110.075 29.4246C110.443 29.4246 110.756 29.5485 111.016 29.7963C111.279 30.0403 111.411 30.3326 111.411 30.6734C111.411 31.018 111.279 31.3143 111.016 31.5621C110.756 31.8061 110.443 31.928 110.075 31.928ZM115.763 36.842V42H113.288V33.0781H115.647V34.6522H115.751C115.949 34.1333 116.28 33.7229 116.744 33.4208C117.209 33.1149 117.773 32.9619 118.435 32.9619C119.054 32.9619 119.595 33.0975 120.055 33.3685C120.516 33.6396 120.874 34.0268 121.13 34.5302C121.385 35.0298 121.513 35.6261 121.513 36.3193V42H119.039V36.7607C119.043 36.2147 118.903 35.7888 118.621 35.4828C118.338 35.1731 117.949 35.0182 117.453 35.0182C117.12 35.0182 116.826 35.0898 116.57 35.2331C116.319 35.3764 116.121 35.5855 115.978 35.8604C115.838 36.1315 115.767 36.4587 115.763 36.842ZM127.296 42V30.1042H135.172V32.1778H129.811V35.0124H134.649V37.086H129.811V42H127.296ZM140.193 42.1743C139.291 42.1743 138.511 41.9826 137.853 41.5992C137.198 41.212 136.693 40.6737 136.337 39.9844C135.98 39.2913 135.802 38.4878 135.802 37.5739C135.802 36.6523 135.98 35.8468 136.337 35.1576C136.693 34.4644 137.198 33.9262 137.853 33.5428C138.511 33.1556 139.291 32.9619 140.193 32.9619C141.096 32.9619 141.874 33.1556 142.528 33.5428C143.187 33.9262 143.694 34.4644 144.05 35.1576C144.407 35.8468 144.585 36.6523 144.585 37.5739C144.585 38.4878 144.407 39.2913 144.05 39.9844C143.694 40.6737 143.187 41.212 142.528 41.5992C141.874 41.9826 141.096 42.1743 140.193 42.1743ZM140.205 40.2574C140.616 40.2574 140.958 40.1413 141.233 39.9089C141.508 39.6727 141.715 39.3513 141.855 38.9447C141.998 38.5381 142.07 38.0754 142.07 37.5565C142.07 37.0376 141.998 36.5748 141.855 36.1682C141.715 35.7617 141.508 35.4402 141.233 35.204C140.958 34.9678 140.616 34.8497 140.205 34.8497C139.791 34.8497 139.442 34.9678 139.16 35.204C138.881 35.4402 138.67 35.7617 138.526 36.1682C138.387 36.5748 138.317 37.0376 138.317 37.5565C138.317 38.0754 138.387 38.5381 138.526 38.9447C138.67 39.3513 138.881 39.6727 139.16 39.9089C139.442 40.1413 139.791 40.2574 140.205 40.2574ZM146.194 42V33.0781H148.593V34.6348H148.686C148.848 34.0811 149.121 33.6628 149.505 33.3802C149.888 33.0936 150.329 32.9503 150.829 32.9503C150.953 32.9503 151.086 32.9581 151.23 32.9736C151.373 32.9891 151.499 33.0104 151.607 33.0375V35.2331C151.491 35.1982 151.33 35.1672 151.125 35.1401C150.92 35.113 150.732 35.0995 150.562 35.0995C150.198 35.0995 149.872 35.1789 149.586 35.3376C149.303 35.4925 149.079 35.7094 148.912 35.9882C148.749 36.267 148.668 36.5884 148.668 36.9524V42H146.194ZM152.887 42V33.0781H155.245V34.6522H155.349C155.535 34.1295 155.845 33.7171 156.279 33.415C156.712 33.113 157.231 32.9619 157.835 32.9619C158.447 32.9619 158.968 33.1149 159.398 33.4208C159.828 33.7229 160.114 34.1333 160.258 34.6522H160.35C160.532 34.1411 160.862 33.7325 161.338 33.4266C161.818 33.1168 162.385 32.9619 163.04 32.9619C163.872 32.9619 164.548 33.2272 165.067 33.7577C165.59 34.2844 165.851 35.0317 165.851 35.9998V42H163.383V36.4877C163.383 35.9921 163.251 35.6203 162.988 35.3725C162.724 35.1247 162.395 35.0007 162 35.0007C161.551 35.0007 161.2 35.144 160.949 35.4306C160.697 35.7132 160.571 36.0869 160.571 36.5516V42H158.172V36.4354C158.172 35.9979 158.046 35.6494 157.795 35.3899C157.547 35.1305 157.22 35.0007 156.813 35.0007C156.538 35.0007 156.29 35.0704 156.07 35.2098C155.853 35.3454 155.68 35.5371 155.553 35.7849C155.425 36.0288 155.361 36.3154 155.361 36.6445V42H152.887Z" fill="#000824"/>
<path d="M35.7613 65.2656V58.1281H38.173C38.7329 58.1281 39.1906 58.2292 39.5461 58.4313C39.9039 58.6311 40.1688 58.9018 40.3407 59.2434C40.5126 59.5849 40.5986 59.9659 40.5986 60.3865C40.5986 60.807 40.5126 61.1892 40.3407 61.5331C40.1711 61.8769 39.9085 62.1511 39.5531 62.3556C39.1976 62.5577 38.7422 62.6588 38.1869 62.6588H36.4583V61.892H38.159C38.5424 61.892 38.8502 61.8258 39.0826 61.6934C39.3149 61.561 39.4834 61.3821 39.5879 61.1567C39.6948 60.929 39.7482 60.6722 39.7482 60.3865C39.7482 60.1007 39.6948 59.8451 39.5879 59.6197C39.4834 59.3944 39.3138 59.2178 39.0791 59.09C38.8444 58.9599 38.5331 58.8948 38.1451 58.8948H36.6256V65.2656H35.7613ZM42.7019 58.1281V65.2656H41.8794V58.1281H42.7019ZM46.4527 65.3771C45.9369 65.3771 45.492 65.2633 45.1179 65.0356C44.7462 64.8056 44.4592 64.485 44.2571 64.0737C44.0573 63.6602 43.9574 63.1792 43.9574 62.6309C43.9574 62.0826 44.0573 61.5993 44.2571 61.1811C44.4592 60.7605 44.7404 60.4329 45.1005 60.1983C45.4629 59.9613 45.8858 59.8428 46.3691 59.8428C46.6479 59.8428 46.9232 59.8893 47.195 59.9822C47.4669 60.0751 47.7143 60.2262 47.9374 60.4353C48.1604 60.642 48.3382 60.9162 48.4706 61.2577C48.603 61.5993 48.6692 62.0198 48.6692 62.5194V62.8679H44.5429V62.1569H47.8328C47.8328 61.8549 47.7724 61.5853 47.6516 61.3484C47.5331 61.1114 47.3635 60.9243 47.1428 60.7873C46.9244 60.6502 46.6665 60.5816 46.3691 60.5816C46.0415 60.5816 45.758 60.663 45.5187 60.8256C45.2817 60.9859 45.0993 61.195 44.9715 61.4529C44.8438 61.7108 44.7799 61.9873 44.7799 62.2824V62.7563C44.7799 63.1606 44.8496 63.5033 44.989 63.7845C45.1307 64.0633 45.327 64.2759 45.5779 64.4222C45.8289 64.5663 46.1205 64.6383 46.4527 64.6383C46.6688 64.6383 46.864 64.6081 47.0382 64.5477C47.2148 64.485 47.367 64.392 47.4948 64.2689C47.6225 64.1434 47.7213 63.9878 47.791 63.8019L48.5856 64.0249C48.502 64.2944 48.3614 64.5314 48.1639 64.7359C47.9664 64.938 47.7225 65.096 47.432 65.2099C47.1416 65.3214 46.8152 65.3771 46.4527 65.3771ZM51.4957 65.3911C51.1565 65.3911 50.8486 65.3272 50.5721 65.1994C50.2956 65.0693 50.0761 64.8823 49.9134 64.6383C49.7508 64.392 49.6695 64.0946 49.6695 63.7461C49.6695 63.4394 49.7299 63.1908 49.8507 63.0003C49.9715 62.8075 50.133 62.6564 50.3351 62.5472C50.5373 62.438 50.7603 62.3567 51.0043 62.3033C51.2505 62.2475 51.498 62.2034 51.7466 62.1708C52.0719 62.129 52.3356 62.0977 52.5377 62.0767C52.7422 62.0535 52.8909 62.0152 52.9838 61.9617C53.0791 61.9083 53.1267 61.8154 53.1267 61.6829V61.6551C53.1267 61.3112 53.0326 61.044 52.8444 60.8535C52.6585 60.663 52.3762 60.5677 51.9975 60.5677C51.6049 60.5677 51.297 60.6537 51.074 60.8256C50.8509 60.9975 50.6941 61.1811 50.6035 61.3762L49.8228 61.0974C49.9622 60.7722 50.1481 60.5189 50.3804 60.3377C50.6151 60.1541 50.8707 60.0263 51.1472 59.9543C51.426 59.88 51.7001 59.8428 51.9696 59.8428C52.1416 59.8428 52.3391 59.8637 52.5621 59.9055C52.7875 59.945 53.0047 60.0275 53.2138 60.153C53.4253 60.2784 53.6007 60.4678 53.7401 60.721C53.8795 60.9743 53.9492 61.3135 53.9492 61.7387V65.2656H53.1267V64.5407H53.0849C53.0291 64.6569 52.9362 64.7812 52.8061 64.9136C52.676 65.0461 52.5029 65.1587 52.2868 65.2517C52.0707 65.3446 51.807 65.3911 51.4957 65.3911ZM51.6211 64.6522C51.9464 64.6522 52.2206 64.5884 52.4436 64.4606C52.669 64.3328 52.8386 64.1678 52.9524 63.9657C53.0686 63.7635 53.1267 63.551 53.1267 63.3279V62.5751C53.0918 62.6169 53.0152 62.6553 52.8967 62.6901C52.7805 62.7227 52.6458 62.7517 52.4924 62.7773C52.3414 62.8005 52.1939 62.8214 52.0498 62.84C51.9081 62.8563 51.7931 62.8702 51.7048 62.8818C51.491 62.9097 51.2912 62.955 51.1053 63.0177C50.9218 63.0781 50.7731 63.1699 50.6592 63.2931C50.5477 63.4139 50.492 63.5788 50.492 63.7879C50.492 64.0737 50.5977 64.2898 50.8091 64.4362C51.0229 64.5802 51.2935 64.6522 51.6211 64.6522ZM59.2422 61.1114L58.5033 61.3205C58.4569 61.1973 58.3883 61.0777 58.2977 60.9615C58.2094 60.843 58.0886 60.7454 57.9353 60.6688C57.7819 60.5921 57.5856 60.5538 57.3463 60.5538C57.0187 60.5538 56.7457 60.6293 56.5273 60.7803C56.3112 60.929 56.2032 61.1183 56.2032 61.3484C56.2032 61.5528 56.2775 61.7143 56.4262 61.8328C56.5749 61.9513 56.8073 62.05 57.1232 62.129L57.9179 62.3242C58.3965 62.4404 58.7531 62.6181 58.9878 62.8574C59.2224 63.0944 59.3398 63.3999 59.3398 63.774C59.3398 64.0807 59.2515 64.3548 59.0749 64.5965C58.9007 64.8381 58.6567 65.0286 58.343 65.168C58.0294 65.3074 57.6646 65.3771 57.2487 65.3771C56.7027 65.3771 56.2508 65.2587 55.893 65.0217C55.5352 64.7847 55.3087 64.4385 55.2134 63.9831L55.9941 63.7879C56.0684 64.076 56.209 64.2921 56.4158 64.4362C56.6249 64.5802 56.8979 64.6522 57.2348 64.6522C57.6181 64.6522 57.9225 64.5709 58.1479 64.4083C58.3756 64.2433 58.4894 64.0458 58.4894 63.8158C58.4894 63.6299 58.4244 63.4743 58.2942 63.3488C58.1641 63.221 57.9643 63.1258 57.6948 63.063L56.8026 62.8539C56.3124 62.7378 55.9522 62.5577 55.7222 62.3137C55.4945 62.0675 55.3807 61.7596 55.3807 61.3902C55.3807 61.0881 55.4655 60.8209 55.6351 60.5886C55.807 60.3563 56.0405 60.1739 56.3356 60.0414C56.633 59.909 56.9699 59.8428 57.3463 59.8428C57.876 59.8428 58.2919 59.959 58.594 60.1913C58.8983 60.4236 59.1144 60.7303 59.2422 61.1114ZM62.8223 65.3771C62.3065 65.3771 61.8615 65.2633 61.4875 65.0356C61.1157 64.8056 60.8288 64.485 60.6267 64.0737C60.4268 63.6602 60.3269 63.1792 60.3269 62.6309C60.3269 62.0826 60.4268 61.5993 60.6267 61.1811C60.8288 60.7605 61.1099 60.4329 61.4701 60.1983C61.8325 59.9613 62.2554 59.8428 62.7386 59.8428C63.0174 59.8428 63.2928 59.8893 63.5646 59.9822C63.8364 60.0751 64.0839 60.2262 64.3069 60.4353C64.53 60.642 64.7077 60.9162 64.8402 61.2577C64.9726 61.5993 65.0388 62.0198 65.0388 62.5194V62.8679H60.9124V62.1569H64.2024C64.2024 61.8549 64.142 61.5853 64.0212 61.3484C63.9027 61.1114 63.7331 60.9243 63.5123 60.7873C63.2939 60.6502 63.036 60.5816 62.7386 60.5816C62.411 60.5816 62.1276 60.663 61.8883 60.8256C61.6513 60.9859 61.4689 61.195 61.3411 61.4529C61.2133 61.7108 61.1494 61.9873 61.1494 62.2824V62.7563C61.1494 63.1606 61.2191 63.5033 61.3585 63.7845C61.5003 64.0633 61.6966 64.2759 61.9475 64.4222C62.1984 64.5663 62.49 64.6383 62.8223 64.6383C63.0384 64.6383 63.2335 64.6081 63.4078 64.5477C63.5844 64.485 63.7365 64.392 63.8643 64.2689C63.9921 64.1434 64.0909 63.9878 64.1606 63.8019L64.9552 64.0249C64.8715 64.2944 64.731 64.5314 64.5335 64.7359C64.336 64.938 64.092 65.096 63.8016 65.2099C63.5112 65.3214 63.1847 65.3771 62.8223 65.3771ZM71.2249 65.3771C70.723 65.3771 70.2909 65.2587 69.9284 65.0217C69.566 64.7847 69.2872 64.4582 69.092 64.0424C68.8968 63.6265 68.7992 63.1513 68.7992 62.6169C68.7992 62.0733 68.8991 61.5935 69.099 61.1776C69.3011 60.7594 69.5822 60.4329 69.9424 60.1983C70.3048 59.9613 70.7277 59.8428 71.2109 59.8428C71.5873 59.8428 71.9265 59.9125 72.2286 60.0519C72.5306 60.1913 72.7781 60.3865 72.9709 60.6374C73.1638 60.8883 73.2834 61.1811 73.3299 61.5156H72.5074C72.4447 61.2717 72.3053 61.0556 72.0892 60.8674C71.8754 60.6769 71.5873 60.5816 71.2249 60.5816C70.9042 60.5816 70.6231 60.6653 70.3815 60.8326C70.1422 60.9975 69.9551 61.231 69.8204 61.5331C69.6879 61.8328 69.6217 62.1848 69.6217 62.5891C69.6217 63.0026 69.6868 63.3628 69.8169 63.6694C69.9493 63.9761 70.1352 64.2143 70.3745 64.3839C70.6161 64.5535 70.8996 64.6383 71.2249 64.6383C71.4386 64.6383 71.6326 64.6011 71.8069 64.5268C71.9811 64.4524 72.1287 64.3456 72.2495 64.2062C72.3703 64.0667 72.4563 63.8995 72.5074 63.7043H73.3299C73.2834 64.0203 73.1684 64.3049 72.9849 64.5581C72.8036 64.8091 72.5632 65.0089 72.2634 65.1576C71.966 65.304 71.6199 65.3771 71.2249 65.3771ZM76.707 65.3771C76.2237 65.3771 75.7997 65.2621 75.4349 65.0321C75.0724 64.8021 74.789 64.4803 74.5845 64.0667C74.3824 63.6532 74.2813 63.1699 74.2813 62.6169C74.2813 62.0593 74.3824 61.5726 74.5845 61.1567C74.789 60.7408 75.0724 60.4178 75.4349 60.1878C75.7997 59.9578 76.2237 59.8428 76.707 59.8428C77.1902 59.8428 77.6131 59.9578 77.9755 60.1878C78.3403 60.4178 78.6238 60.7408 78.8259 61.1567C79.0304 61.5726 79.1326 62.0593 79.1326 62.6169C79.1326 63.1699 79.0304 63.6532 78.8259 64.0667C78.6238 64.4803 78.3403 64.8021 77.9755 65.0321C77.6131 65.2621 77.1902 65.3771 76.707 65.3771ZM76.707 64.6383C77.0741 64.6383 77.3761 64.5442 77.6131 64.356C77.8501 64.1678 78.0255 63.9204 78.1393 63.6137C78.2532 63.307 78.3101 62.9747 78.3101 62.6169C78.3101 62.2591 78.2532 61.9257 78.1393 61.6167C78.0255 61.3077 77.8501 61.0579 77.6131 60.8674C77.3761 60.6769 77.0741 60.5816 76.707 60.5816C76.3399 60.5816 76.0378 60.6769 75.8008 60.8674C75.5638 61.0579 75.3884 61.3077 75.2746 61.6167C75.1607 61.9257 75.1038 62.2591 75.1038 62.6169C75.1038 62.9747 75.1607 63.307 75.2746 63.6137C75.3884 63.9204 75.5638 64.1678 75.8008 64.356C76.0378 64.5442 76.3399 64.6383 76.707 64.6383ZM80.3881 65.2656V59.9125H81.1827V60.7489H81.2524C81.3639 60.4631 81.544 60.2413 81.7926 60.0833C82.0412 59.923 82.3398 59.8428 82.6883 59.8428C83.0414 59.8428 83.3353 59.923 83.57 60.0833C83.807 60.2413 83.9917 60.4631 84.1241 60.7489H84.1799C84.317 60.4724 84.5226 60.2529 84.7968 60.0902C85.0709 59.9253 85.3997 59.8428 85.783 59.8428C86.2617 59.8428 86.6532 59.9927 86.9575 60.2924C87.2619 60.5898 87.4141 61.0533 87.4141 61.6829V65.2656H86.5916V61.6829C86.5916 61.288 86.4836 61.0057 86.2675 60.836C86.0514 60.6664 85.797 60.5816 85.5042 60.5816C85.1278 60.5816 84.8363 60.6955 84.6295 60.9232C84.4227 61.1485 84.3193 61.4343 84.3193 61.7805V65.2656H83.4829V61.5993C83.4829 61.2949 83.3841 61.0498 83.1866 60.8639C82.9892 60.6757 82.7347 60.5816 82.4234 60.5816C82.2096 60.5816 82.0098 60.6386 81.824 60.7524C81.6404 60.8663 81.4917 61.0242 81.3779 61.2264C81.2663 61.4262 81.2106 61.6574 81.2106 61.9199V65.2656H80.3881ZM88.9179 67.273V59.9125H89.7125V60.7629H89.8101C89.8705 60.6699 89.9542 60.5514 90.061 60.4074C90.1702 60.261 90.3259 60.1309 90.528 60.017C90.7325 59.9009 91.009 59.8428 91.3575 59.8428C91.8082 59.8428 92.2055 59.9555 92.5494 60.1808C92.8933 60.4062 93.1616 60.7257 93.3545 61.1393C93.5473 61.5528 93.6437 62.0407 93.6437 62.603C93.6437 63.1699 93.5473 63.6613 93.3545 64.0772C93.1616 64.4908 92.8944 64.8114 92.5529 65.0391C92.2113 65.2645 91.8175 65.3771 91.3714 65.3771C91.0276 65.3771 90.7522 65.3202 90.5455 65.2064C90.3387 65.0902 90.1795 64.9589 90.068 64.8126C89.9565 64.6639 89.8705 64.5407 89.8101 64.4431H89.7404V67.273H88.9179ZM89.7265 62.5891C89.7265 62.9933 89.7857 63.35 89.9042 63.659C90.0227 63.9657 90.1958 64.2062 90.4235 64.3804C90.6512 64.5523 90.93 64.6383 91.2599 64.6383C91.6038 64.6383 91.8907 64.5477 92.1207 64.3665C92.3531 64.1829 92.5273 63.9366 92.6435 63.6276C92.762 63.3163 92.8212 62.9701 92.8212 62.5891C92.8212 62.2127 92.7632 61.8735 92.647 61.5714C92.5331 61.267 92.36 61.0266 92.1277 60.85C91.8977 60.6711 91.6084 60.5816 91.2599 60.5816C90.9253 60.5816 90.6442 60.6664 90.4165 60.836C90.1888 61.0033 90.0169 61.238 89.9007 61.54C89.7845 61.8398 89.7265 62.1894 89.7265 62.5891ZM95.7208 58.1281V65.2656H94.8984V58.1281H95.7208ZM99.4717 65.3771C98.9559 65.3771 98.511 65.2633 98.1369 65.0356C97.7652 64.8056 97.4782 64.485 97.2761 64.0737C97.0763 63.6602 96.9764 63.1792 96.9764 62.6309C96.9764 62.0826 97.0763 61.5993 97.2761 61.1811C97.4782 60.7605 97.7593 60.4329 98.1195 60.1983C98.4819 59.9613 98.9048 59.8428 99.3881 59.8428C99.6669 59.8428 99.9422 59.8893 100.214 59.9822C100.486 60.0751 100.733 60.2262 100.956 60.4353C101.179 60.642 101.357 60.9162 101.49 61.2577C101.622 61.5993 101.688 62.0198 101.688 62.5194V62.8679H97.5619V62.1569H100.852C100.852 61.8549 100.791 61.5853 100.671 61.3484C100.552 61.1114 100.382 60.9243 100.162 60.7873C99.9433 60.6502 99.6855 60.5816 99.3881 60.5816C99.0605 60.5816 98.777 60.663 98.5377 60.8256C98.3007 60.9859 98.1183 61.195 97.9905 61.4529C97.8627 61.7108 97.7988 61.9873 97.7988 62.2824V62.7563C97.7988 63.1606 97.8685 63.5033 98.008 63.7845C98.1497 64.0633 98.346 64.2759 98.5969 64.4222C98.8479 64.5663 99.1395 64.6383 99.4717 64.6383C99.6878 64.6383 99.8829 64.6081 100.057 64.5477C100.234 64.485 100.386 64.392 100.514 64.2689C100.642 64.1434 100.74 63.9878 100.81 63.8019L101.605 64.0249C101.521 64.2944 101.38 64.5314 101.183 64.7359C100.985 64.938 100.741 65.096 100.451 65.2099C100.161 65.3214 99.8341 65.3771 99.4717 65.3771ZM105.267 59.9125V60.6095H102.493V59.9125H105.267ZM103.302 58.63H104.124V63.7322C104.124 63.9645 104.158 64.1388 104.225 64.2549C104.295 64.3688 104.383 64.4455 104.49 64.485C104.599 64.5221 104.714 64.5407 104.835 64.5407C104.926 64.5407 105 64.5361 105.058 64.5268C105.116 64.5152 105.163 64.5059 105.198 64.4989L105.365 65.2377C105.309 65.2587 105.231 65.2796 105.132 65.3005C105.032 65.3237 104.905 65.3353 104.752 65.3353C104.519 65.3353 104.292 65.2854 104.069 65.1855C103.848 65.0856 103.664 64.9334 103.518 64.7289C103.374 64.5245 103.302 64.2666 103.302 63.9552V58.63ZM108.692 65.3771C108.176 65.3771 107.731 65.2633 107.357 65.0356C106.985 64.8056 106.698 64.485 106.496 64.0737C106.296 63.6602 106.196 63.1792 106.196 62.6309C106.196 62.0826 106.296 61.5993 106.496 61.1811C106.698 60.7605 106.979 60.4329 107.339 60.1983C107.702 59.9613 108.125 59.8428 108.608 59.8428C108.887 59.8428 109.162 59.8893 109.434 59.9822C109.706 60.0751 109.953 60.2262 110.176 60.4353C110.399 60.642 110.577 60.9162 110.709 61.2577C110.842 61.5993 110.908 62.0198 110.908 62.5194V62.8679H106.782V62.1569H110.072C110.072 61.8549 110.011 61.5853 109.89 61.3484C109.772 61.1114 109.602 60.9243 109.382 60.7873C109.163 60.6502 108.905 60.5816 108.608 60.5816C108.28 60.5816 107.997 60.663 107.758 60.8256C107.521 60.9859 107.338 61.195 107.21 61.4529C107.083 61.7108 107.019 61.9873 107.019 62.2824V62.7563C107.019 63.1606 107.088 63.5033 107.228 63.7845C107.37 64.0633 107.566 64.2759 107.817 64.4222C108.068 64.5663 108.359 64.6383 108.692 64.6383C108.908 64.6383 109.103 64.6081 109.277 64.5477C109.454 64.485 109.606 64.392 109.734 64.2689C109.861 64.1434 109.96 63.9878 110.03 63.8019L110.824 64.0249C110.741 64.2944 110.6 64.5314 110.403 64.7359C110.205 64.938 109.961 65.096 109.671 65.2099C109.38 65.3214 109.054 65.3771 108.692 65.3771ZM116.495 65.3911C116.156 65.3911 115.848 65.3272 115.571 65.1994C115.295 65.0693 115.075 64.8823 114.912 64.6383C114.75 64.392 114.669 64.0946 114.669 63.7461C114.669 63.4394 114.729 63.1908 114.85 63.0003C114.971 62.8075 115.132 62.6564 115.334 62.5472C115.536 62.438 115.759 62.3567 116.003 62.3033C116.25 62.2475 116.497 62.2034 116.746 62.1708C117.071 62.129 117.335 62.0977 117.537 62.0767C117.741 62.0535 117.89 62.0152 117.983 61.9617C118.078 61.9083 118.126 61.8154 118.126 61.6829V61.6551C118.126 61.3112 118.032 61.044 117.843 60.8535C117.658 60.663 117.375 60.5677 116.997 60.5677C116.604 60.5677 116.296 60.6537 116.073 60.8256C115.85 60.9975 115.693 61.1811 115.603 61.3762L114.822 61.0974C114.961 60.7722 115.147 60.5189 115.379 60.3377C115.614 60.1541 115.87 60.0263 116.146 59.9543C116.425 59.88 116.699 59.8428 116.969 59.8428C117.141 59.8428 117.338 59.8637 117.561 59.9055C117.787 59.945 118.004 60.0275 118.213 60.153C118.424 60.2784 118.6 60.4678 118.739 60.721C118.879 60.9743 118.948 61.3135 118.948 61.7387V65.2656H118.126V64.5407H118.084C118.028 64.6569 117.935 64.7812 117.805 64.9136C117.675 65.0461 117.502 65.1587 117.286 65.2517C117.07 65.3446 116.806 65.3911 116.495 65.3911ZM116.62 64.6522C116.945 64.6522 117.22 64.5884 117.443 64.4606C117.668 64.3328 117.838 64.1678 117.951 63.9657C118.068 63.7635 118.126 63.551 118.126 63.3279V62.5751C118.091 62.6169 118.014 62.6553 117.896 62.6901C117.78 62.7227 117.645 62.7517 117.491 62.7773C117.34 62.8005 117.193 62.8214 117.049 62.84C116.907 62.8563 116.792 62.8702 116.704 62.8818C116.49 62.9097 116.29 62.955 116.104 63.0177C115.921 63.0781 115.772 63.1699 115.658 63.2931C115.547 63.4139 115.491 63.5788 115.491 63.7879C115.491 64.0737 115.597 64.2898 115.808 64.4362C116.022 64.5802 116.293 64.6522 116.62 64.6522ZM121.272 58.1281V65.2656H120.449V58.1281H121.272ZM123.601 58.1281V65.2656H122.778V58.1281H123.601ZM127.867 65.2656V59.9125H128.69V65.2656H127.867ZM128.286 59.0203C128.125 59.0203 127.987 58.9657 127.871 58.8565C127.757 58.7473 127.7 58.616 127.7 58.4627C127.7 58.3093 127.757 58.1781 127.871 58.0689C127.987 57.9597 128.125 57.9051 128.286 57.9051C128.446 57.9051 128.583 57.9597 128.697 58.0689C128.813 58.1781 128.871 58.3093 128.871 58.4627C128.871 58.616 128.813 58.7473 128.697 58.8565C128.583 58.9657 128.446 59.0203 128.286 59.0203ZM131.019 62.0454V65.2656H130.196V59.9125H130.991V60.7489H131.061C131.186 60.4771 131.377 60.2587 131.632 60.0937C131.888 59.9264 132.218 59.8428 132.622 59.8428C132.985 59.8428 133.302 59.9171 133.573 60.0658C133.845 60.2122 134.057 60.4353 134.208 60.735C134.359 61.0324 134.434 61.4088 134.434 61.8642V65.2656H133.612V61.9199C133.612 61.4994 133.503 61.1718 133.284 60.9371C133.066 60.7001 132.766 60.5816 132.385 60.5816C132.123 60.5816 131.888 60.6386 131.681 60.7524C131.477 60.8663 131.315 61.0324 131.197 61.2508C131.078 61.4692 131.019 61.734 131.019 62.0454ZM138.321 59.9125V60.6095H135.435V59.9125H138.321ZM136.3 65.2656V59.1737C136.3 58.867 136.372 58.6114 136.516 58.4069C136.66 58.2025 136.847 58.0491 137.077 57.9469C137.307 57.8447 137.55 57.7935 137.805 57.7935C138.007 57.7935 138.172 57.8098 138.3 57.8423C138.428 57.8749 138.523 57.9051 138.586 57.933L138.349 58.6439C138.307 58.63 138.249 58.6125 138.175 58.5916C138.103 58.5707 138.007 58.5603 137.889 58.5603C137.617 58.5603 137.421 58.6288 137.3 58.7659C137.181 58.903 137.122 59.1039 137.122 59.3688V65.2656H136.3ZM141.428 65.3771C140.945 65.3771 140.521 65.2621 140.156 65.0321C139.794 64.8021 139.51 64.4803 139.306 64.0667C139.103 63.6532 139.002 63.1699 139.002 62.6169C139.002 62.0593 139.103 61.5726 139.306 61.1567C139.51 60.7408 139.794 60.4178 140.156 60.1878C140.521 59.9578 140.945 59.8428 141.428 59.8428C141.911 59.8428 142.334 59.9578 142.697 60.1878C143.061 60.4178 143.345 60.7408 143.547 61.1567C143.751 61.5726 143.854 62.0593 143.854 62.6169C143.854 63.1699 143.751 63.6532 143.547 64.0667C143.345 64.4803 143.061 64.8021 142.697 65.0321C142.334 65.2621 141.911 65.3771 141.428 65.3771ZM141.428 64.6383C141.795 64.6383 142.097 64.5442 142.334 64.356C142.571 64.1678 142.747 63.9204 142.86 63.6137C142.974 63.307 143.031 62.9747 143.031 62.6169C143.031 62.2591 142.974 61.9257 142.86 61.6167C142.747 61.3077 142.571 61.0579 142.334 60.8674C142.097 60.6769 141.795 60.5816 141.428 60.5816C141.061 60.5816 140.759 60.6769 140.522 60.8674C140.285 61.0579 140.11 61.3077 139.996 61.6167C139.882 61.9257 139.825 62.2591 139.825 62.6169C139.825 62.9747 139.882 63.307 139.996 63.6137C140.11 63.9204 140.285 64.1678 140.522 64.356C140.759 64.5442 141.061 64.6383 141.428 64.6383ZM145.109 65.2656V59.9125H145.904V60.721H145.96C146.057 60.4562 146.234 60.2413 146.489 60.0763C146.745 59.9113 147.033 59.8289 147.354 59.8289C147.414 59.8289 147.49 59.83 147.58 59.8323C147.671 59.8347 147.739 59.8381 147.786 59.8428V60.6792C147.758 60.6722 147.694 60.6618 147.594 60.6479C147.497 60.6316 147.393 60.6235 147.284 60.6235C147.024 60.6235 146.791 60.6781 146.587 60.7873C146.385 60.8941 146.224 61.0428 146.106 61.2334C145.99 61.4215 145.932 61.6365 145.932 61.8781V65.2656H145.109ZM148.761 65.2656V59.9125H149.555V60.7489H149.625C149.737 60.4631 149.917 60.2413 150.165 60.0833C150.414 59.923 150.712 59.8428 151.061 59.8428C151.414 59.8428 151.708 59.923 151.943 60.0833C152.18 60.2413 152.364 60.4631 152.497 60.7489H152.553C152.69 60.4724 152.895 60.2529 153.169 60.0902C153.444 59.9253 153.772 59.8428 154.156 59.8428C154.634 59.8428 155.026 59.9927 155.33 60.2924C155.635 60.5898 155.787 61.0533 155.787 61.6829V65.2656H154.964V61.6829C154.964 61.288 154.856 61.0057 154.64 60.836C154.424 60.6664 154.17 60.5816 153.877 60.5816C153.5 60.5816 153.209 60.6955 153.002 60.9232C152.795 61.1485 152.692 61.4343 152.692 61.7805V65.2656H151.856V61.5993C151.856 61.2949 151.757 61.0498 151.559 60.8639C151.362 60.6757 151.107 60.5816 150.796 60.5816C150.582 60.5816 150.382 60.6386 150.197 60.7524C150.013 60.8663 149.864 61.0242 149.751 61.2264C149.639 61.4262 149.583 61.6574 149.583 61.9199V65.2656H148.761ZM158.866 65.3911C158.527 65.3911 158.219 65.3272 157.942 65.1994C157.666 65.0693 157.446 64.8823 157.284 64.6383C157.121 64.392 157.04 64.0946 157.04 63.7461C157.04 63.4394 157.1 63.1908 157.221 63.0003C157.342 62.8075 157.503 62.6564 157.705 62.5472C157.907 62.438 158.13 62.3567 158.374 62.3033C158.621 62.2475 158.868 62.2034 159.117 62.1708C159.442 62.129 159.706 62.0977 159.908 62.0767C160.112 62.0535 160.261 62.0152 160.354 61.9617C160.449 61.9083 160.497 61.8154 160.497 61.6829V61.6551C160.497 61.3112 160.403 61.044 160.215 60.8535C160.029 60.663 159.746 60.5677 159.368 60.5677C158.975 60.5677 158.667 60.6537 158.444 60.8256C158.221 60.9975 158.064 61.1811 157.974 61.3762L157.193 61.0974C157.332 60.7722 157.518 60.5189 157.751 60.3377C157.985 60.1541 158.241 60.0263 158.517 59.9543C158.796 59.88 159.07 59.8428 159.34 59.8428C159.512 59.8428 159.709 59.8637 159.932 59.9055C160.158 59.945 160.375 60.0275 160.584 60.153C160.795 60.2784 160.971 60.4678 161.11 60.721C161.25 60.9743 161.319 61.3135 161.319 61.7387V65.2656H160.497V64.5407H160.455C160.399 64.6569 160.306 64.7812 160.176 64.9136C160.046 65.0461 159.873 65.1587 159.657 65.2517C159.441 65.3446 159.177 65.3911 158.866 65.3911ZM158.991 64.6522C159.317 64.6522 159.591 64.5884 159.814 64.4606C160.039 64.3328 160.209 64.1678 160.323 63.9657C160.439 63.7635 160.497 63.551 160.497 63.3279V62.5751C160.462 62.6169 160.385 62.6553 160.267 62.6901C160.151 62.7227 160.016 62.7517 159.863 62.7773C159.712 62.8005 159.564 62.8214 159.42 62.84C159.278 62.8563 159.163 62.8702 159.075 62.8818C158.861 62.9097 158.661 62.955 158.475 63.0177C158.292 63.0781 158.143 63.1699 158.029 63.2931C157.918 63.4139 157.862 63.5788 157.862 63.7879C157.862 64.0737 157.968 64.2898 158.179 64.4362C158.393 64.5802 158.664 64.6522 158.991 64.6522ZM165.149 59.9125V60.6095H162.374V59.9125H165.149ZM163.183 58.63H164.005V63.7322C164.005 63.9645 164.039 64.1388 164.107 64.2549C164.176 64.3688 164.265 64.4455 164.371 64.485C164.481 64.5221 164.596 64.5407 164.716 64.5407C164.807 64.5407 164.881 64.5361 164.939 64.5268C164.998 64.5152 165.044 64.5059 165.079 64.4989L165.246 65.2377C165.19 65.2587 165.113 65.2796 165.013 65.3005C164.913 65.3237 164.786 65.3353 164.633 65.3353C164.4 65.3353 164.173 65.2854 163.95 65.1855C163.729 65.0856 163.545 64.9334 163.399 64.7289C163.255 64.5245 163.183 64.2666 163.183 63.9552V58.63ZM166.386 65.2656V59.9125H167.208V65.2656H166.386ZM166.804 59.0203C166.644 59.0203 166.505 58.9657 166.389 58.8565C166.275 58.7473 166.219 58.616 166.219 58.4627C166.219 58.3093 166.275 58.1781 166.389 58.0689C166.505 57.9597 166.644 57.9051 166.804 57.9051C166.964 57.9051 167.101 57.9597 167.215 58.0689C167.331 58.1781 167.39 58.3093 167.39 58.4627C167.39 58.616 167.331 58.7473 167.215 58.8565C167.101 58.9657 166.964 59.0203 166.804 59.0203ZM170.889 65.3771C170.406 65.3771 169.982 65.2621 169.617 65.0321C169.255 64.8021 168.971 64.4803 168.767 64.0667C168.565 63.6532 168.464 63.1699 168.464 62.6169C168.464 62.0593 168.565 61.5726 168.767 61.1567C168.971 60.7408 169.255 60.4178 169.617 60.1878C169.982 59.9578 170.406 59.8428 170.889 59.8428C171.373 59.8428 171.796 59.9578 172.158 60.1878C172.523 60.4178 172.806 60.7408 173.008 61.1567C173.213 61.5726 173.315 62.0593 173.315 62.6169C173.315 63.1699 173.213 63.6532 173.008 64.0667C172.806 64.4803 172.523 64.8021 172.158 65.0321C171.796 65.2621 171.373 65.3771 170.889 65.3771ZM170.889 64.6383C171.257 64.6383 171.559 64.5442 171.796 64.356C172.033 64.1678 172.208 63.9204 172.322 63.6137C172.436 63.307 172.493 62.9747 172.493 62.6169C172.493 62.2591 172.436 61.9257 172.322 61.6167C172.208 61.3077 172.033 61.0579 171.796 60.8674C171.559 60.6769 171.257 60.5816 170.889 60.5816C170.522 60.5816 170.22 60.6769 169.983 60.8674C169.746 61.0579 169.571 61.3077 169.457 61.6167C169.343 61.9257 169.286 62.2591 169.286 62.6169C169.286 62.9747 169.343 63.307 169.457 63.6137C169.571 63.9204 169.746 64.1678 169.983 64.356C170.22 64.5442 170.522 64.6383 170.889 64.6383ZM175.393 62.0454V65.2656H174.571V59.9125H175.365V60.7489H175.435C175.56 60.4771 175.751 60.2587 176.006 60.0937C176.262 59.9264 176.592 59.8428 176.996 59.8428C177.359 59.8428 177.676 59.9171 177.948 60.0658C178.22 60.2122 178.431 60.4353 178.582 60.735C178.733 61.0324 178.808 61.4088 178.808 61.8642V65.2656H177.986V61.9199C177.986 61.4994 177.877 61.1718 177.658 60.9371C177.44 60.7001 177.14 60.5816 176.759 60.5816C176.497 60.5816 176.262 60.6386 176.055 60.7524C175.851 60.8663 175.689 61.0324 175.571 61.2508C175.452 61.4692 175.393 61.734 175.393 62.0454ZM183.183 65.2656V58.1281H184.006V60.7629H184.075C184.136 60.6699 184.219 60.5514 184.326 60.4074C184.435 60.261 184.591 60.1309 184.793 60.017C184.998 59.9009 185.274 59.8428 185.623 59.8428C186.073 59.8428 186.471 59.9555 186.815 60.1808C187.159 60.4062 187.427 60.7257 187.62 61.1393C187.813 61.5528 187.909 62.0407 187.909 62.603C187.909 63.1699 187.813 63.6613 187.62 64.0772C187.427 64.4908 187.16 64.8114 186.818 65.0391C186.477 65.2645 186.083 65.3771 185.637 65.3771C185.293 65.3771 185.018 65.3202 184.811 65.2064C184.604 65.0902 184.445 64.9589 184.333 64.8126C184.222 64.6639 184.136 64.5407 184.075 64.4431H183.978V65.2656H183.183ZM183.992 62.5891C183.992 62.9933 184.051 63.35 184.169 63.659C184.288 63.9657 184.461 64.2062 184.689 64.3804C184.916 64.5523 185.195 64.6383 185.525 64.6383C185.869 64.6383 186.156 64.5477 186.386 64.3665C186.618 64.1829 186.793 63.9366 186.909 63.6276C187.027 63.3163 187.086 62.9701 187.086 62.5891C187.086 62.2127 187.028 61.8735 186.912 61.5714C186.798 61.267 186.625 61.0266 186.393 60.85C186.163 60.6711 185.874 60.5816 185.525 60.5816C185.191 60.5816 184.909 60.6664 184.682 60.836C184.454 61.0033 184.282 61.238 184.166 61.54C184.05 61.8398 183.992 62.1894 183.992 62.5891ZM191.412 65.3771C190.896 65.3771 190.451 65.2633 190.077 65.0356C189.705 64.8056 189.418 64.485 189.216 64.0737C189.016 63.6602 188.916 63.1792 188.916 62.6309C188.916 62.0826 189.016 61.5993 189.216 61.1811C189.418 60.7605 189.699 60.4329 190.059 60.1983C190.422 59.9613 190.845 59.8428 191.328 59.8428C191.607 59.8428 191.882 59.8893 192.154 59.9822C192.426 60.0751 192.673 60.2262 192.896 60.4353C193.119 60.642 193.297 60.9162 193.429 61.2577C193.562 61.5993 193.628 62.0198 193.628 62.5194V62.8679H189.502V62.1569H192.792C192.792 61.8549 192.731 61.5853 192.61 61.3484C192.492 61.1114 192.322 60.9243 192.102 60.7873C191.883 60.6502 191.625 60.5816 191.328 60.5816C191 60.5816 190.717 60.663 190.478 60.8256C190.241 60.9859 190.058 61.195 189.93 61.4529C189.803 61.7108 189.739 61.9873 189.739 62.2824V62.7563C189.739 63.1606 189.808 63.5033 189.948 63.7845C190.089 64.0633 190.286 64.2759 190.537 64.4222C190.788 64.5663 191.079 64.6383 191.412 64.6383C191.628 64.6383 191.823 64.6081 191.997 64.5477C192.174 64.485 192.326 64.392 192.454 64.2689C192.581 64.1434 192.68 63.9878 192.75 63.8019L193.544 64.0249C193.461 64.2944 193.32 64.5314 193.123 64.7359C192.925 64.938 192.681 65.096 192.391 65.2099C192.1 65.3214 191.774 65.3771 191.412 65.3771ZM195.702 58.1281V65.2656H194.879V58.1281H195.702ZM199.383 65.3771C198.9 65.3771 198.476 65.2621 198.111 65.0321C197.748 64.8021 197.465 64.4803 197.26 64.0667C197.058 63.6532 196.957 63.1699 196.957 62.6169C196.957 62.0593 197.058 61.5726 197.26 61.1567C197.465 60.7408 197.748 60.4178 198.111 60.1878C198.476 59.9578 198.9 59.8428 199.383 59.8428C199.866 59.8428 200.289 59.9578 200.651 60.1878C201.016 60.4178 201.3 60.7408 201.502 61.1567C201.706 61.5726 201.808 62.0593 201.808 62.6169C201.808 63.1699 201.706 63.6532 201.502 64.0667C201.3 64.4803 201.016 64.8021 200.651 65.0321C200.289 65.2621 199.866 65.3771 199.383 65.3771ZM199.383 64.6383C199.75 64.6383 200.052 64.5442 200.289 64.356C200.526 64.1678 200.701 63.9204 200.815 63.6137C200.929 63.307 200.986 62.9747 200.986 62.6169C200.986 62.2591 200.929 61.9257 200.815 61.6167C200.701 61.3077 200.526 61.0579 200.289 60.8674C200.052 60.6769 199.75 60.5816 199.383 60.5816C199.016 60.5816 198.714 60.6769 198.477 60.8674C198.24 61.0579 198.064 61.3077 197.95 61.6167C197.837 61.9257 197.78 62.2591 197.78 62.6169C197.78 62.9747 197.837 63.307 197.95 63.6137C198.064 63.9204 198.24 64.1678 198.477 64.356C198.714 64.5442 199.016 64.6383 199.383 64.6383ZM204.095 65.2656L202.464 59.9125H203.328L204.485 64.011H204.541L205.684 59.9125H206.562L207.691 63.997H207.747L208.904 59.9125H209.768L208.137 65.2656H207.329L206.158 61.1532H206.074L204.903 65.2656H204.095Z" fill="#000824"/>
<path d="M14.7683 108.711V102.366H18.5972V103.048H15.5365V105.192H18.399V105.873H15.5365V108.029H18.6468V108.711H14.7683ZM20.614 105.849V108.711H19.8829V103.953H20.5892V104.696H20.6511C20.7627 104.454 20.932 104.26 21.1592 104.114C21.3864 103.965 21.6796 103.891 22.039 103.891C22.3612 103.891 22.6431 103.957 22.8847 104.089C23.1263 104.219 23.3143 104.417 23.4485 104.684C23.5828 104.948 23.6499 105.283 23.6499 105.687V108.711H22.9188V105.737C22.9188 105.363 22.8217 105.072 22.6276 104.863C22.4335 104.653 22.167 104.547 21.8283 104.547C21.595 104.547 21.3864 104.598 21.2026 104.699C21.0208 104.8 20.8773 104.948 20.772 105.142C20.6666 105.336 20.614 105.572 20.614 105.849ZM27.0552 103.953V104.572H24.5893V103.953H27.0552ZM25.308 102.813H26.0391V107.348C26.0391 107.554 26.0691 107.709 26.129 107.813C26.1909 107.914 26.2694 107.982 26.3644 108.017C26.4615 108.05 26.5637 108.067 26.6711 108.067C26.7516 108.067 26.8177 108.062 26.8694 108.054C26.921 108.044 26.9623 108.036 26.9933 108.029L27.142 108.686C27.0924 108.705 27.0232 108.723 26.9344 108.742C26.8456 108.763 26.733 108.773 26.5967 108.773C26.3902 108.773 26.1878 108.728 25.9896 108.64C25.7934 108.551 25.6302 108.416 25.5001 108.234C25.372 108.052 25.308 107.823 25.308 107.546V102.813ZM30.0989 108.81C29.6404 108.81 29.2449 108.709 28.9124 108.506C28.582 108.302 28.3269 108.017 28.1472 107.651C27.9696 107.284 27.8808 106.856 27.8808 106.369C27.8808 105.882 27.9696 105.452 28.1472 105.08C28.3269 104.706 28.5768 104.415 28.8969 104.207C29.2191 103.996 29.595 103.891 30.0245 103.891C30.2724 103.891 30.5171 103.932 30.7587 104.015C31.0004 104.097 31.2203 104.231 31.4186 104.417C31.6168 104.601 31.7748 104.845 31.8926 105.148C32.0103 105.452 32.0691 105.826 32.0691 106.27V106.58H28.4013V105.948H31.3256C31.3256 105.679 31.2719 105.44 31.1646 105.229C31.0592 105.018 30.9085 104.852 30.7123 104.73C30.5181 104.608 30.2889 104.547 30.0245 104.547C29.7333 104.547 29.4814 104.62 29.2687 104.764C29.058 104.907 28.8959 105.093 28.7823 105.322C28.6687 105.551 28.6119 105.797 28.6119 106.059V106.48C28.6119 106.84 28.6739 107.144 28.7978 107.394C28.9238 107.642 29.0983 107.831 29.3213 107.961C29.5444 108.089 29.8036 108.153 30.0989 108.153C30.291 108.153 30.4644 108.126 30.6193 108.073C30.7763 108.017 30.9116 107.934 31.0252 107.825C31.1387 107.713 31.2265 107.575 31.2885 107.41L31.9948 107.608C31.9204 107.848 31.7955 108.058 31.6199 108.24C31.4444 108.42 31.2275 108.56 30.9694 108.661C30.7112 108.761 30.4211 108.81 30.0989 108.81ZM33.1813 108.711V103.953H33.8876V104.671H33.9372C34.0239 104.436 34.1809 104.245 34.408 104.098C34.6352 103.952 34.8913 103.878 35.1763 103.878C35.23 103.878 35.2971 103.879 35.3777 103.881C35.4582 103.883 35.5191 103.887 35.5604 103.891V104.634C35.5357 104.628 35.4789 104.619 35.3901 104.606C35.3033 104.592 35.2114 104.585 35.1143 104.585C34.883 104.585 34.6765 104.633 34.4948 104.73C34.3151 104.825 34.1726 104.957 34.0673 105.127C33.964 105.294 33.9124 105.485 33.9124 105.7V108.711H33.1813ZM41.8793 106.765V103.953H42.6104V108.711H41.8793V107.905H41.8298C41.7182 108.147 41.5448 108.353 41.3093 108.522C41.0739 108.689 40.7765 108.773 40.4171 108.773C40.1197 108.773 39.8554 108.708 39.6241 108.578C39.3928 108.446 39.211 108.247 39.0789 107.983C38.9467 107.717 38.8806 107.381 38.8806 106.976V103.953H39.6117V106.927C39.6117 107.274 39.7088 107.55 39.9029 107.757C40.0991 107.963 40.349 108.067 40.6526 108.067C40.8343 108.067 41.0192 108.02 41.2071 107.927C41.3971 107.834 41.5561 107.692 41.6842 107.5C41.8143 107.308 41.8793 107.063 41.8793 106.765ZM47.32 105.018L46.6632 105.204C46.6219 105.095 46.561 104.988 46.4805 104.885C46.402 104.78 46.2946 104.693 46.1583 104.625C46.022 104.557 45.8475 104.523 45.6347 104.523C45.3435 104.523 45.1009 104.59 44.9067 104.724C44.7147 104.856 44.6186 105.024 44.6186 105.229C44.6186 105.411 44.6847 105.554 44.8169 105.66C44.9491 105.765 45.1556 105.853 45.4365 105.923L46.1428 106.096C46.5682 106.2 46.8852 106.358 47.0938 106.57C47.3024 106.781 47.4067 107.053 47.4067 107.385C47.4067 107.658 47.3282 107.901 47.1713 108.116C47.0164 108.331 46.7995 108.5 46.5207 108.624C46.2419 108.748 45.9177 108.81 45.548 108.81C45.0627 108.81 44.661 108.705 44.3429 108.494C44.0249 108.283 43.8235 107.976 43.7388 107.571L44.4328 107.397C44.4988 107.654 44.6238 107.846 44.8076 107.974C44.9935 108.102 45.2361 108.166 45.5356 108.166C45.8764 108.166 46.1469 108.093 46.3472 107.949C46.5496 107.802 46.6508 107.627 46.6508 107.422C46.6508 107.257 46.593 107.119 46.4774 107.007C46.3617 106.894 46.1841 106.809 45.9445 106.753L45.1515 106.567C44.7157 106.464 44.3956 106.304 44.1911 106.087C43.9887 105.868 43.8875 105.594 43.8875 105.266C43.8875 104.998 43.9629 104.76 44.1137 104.554C44.2665 104.347 44.4741 104.185 44.7364 104.067C45.0007 103.95 45.3002 103.891 45.6347 103.891C46.1056 103.891 46.4753 103.994 46.7438 104.2C47.0143 104.407 47.2064 104.68 47.32 105.018ZM50.5023 108.81C50.0438 108.81 49.6483 108.709 49.3158 108.506C48.9853 108.302 48.7303 108.017 48.5506 107.651C48.373 107.284 48.2842 106.856 48.2842 106.369C48.2842 105.882 48.373 105.452 48.5506 105.08C48.7303 104.706 48.9802 104.415 49.3003 104.207C49.6225 103.996 49.9983 103.891 50.4279 103.891C50.6758 103.891 50.9205 103.932 51.1621 104.015C51.4038 104.097 51.6237 104.231 51.822 104.417C52.0202 104.601 52.1782 104.845 52.2959 105.148C52.4137 105.452 52.4725 105.826 52.4725 106.27V106.58H48.8046V105.948H51.729C51.729 105.679 51.6753 105.44 51.5679 105.229C51.4626 105.018 51.3118 104.852 51.1156 104.73C50.9215 104.608 50.6923 104.547 50.4279 104.547C50.1367 104.547 49.8848 104.62 49.672 104.764C49.4614 104.907 49.2993 105.093 49.1857 105.322C49.0721 105.551 49.0153 105.797 49.0153 106.059V106.48C49.0153 106.84 49.0772 107.144 49.2012 107.394C49.3271 107.642 49.5017 107.831 49.7247 107.961C49.9478 108.089 50.2069 108.153 50.5023 108.153C50.6943 108.153 50.8678 108.126 51.0227 108.073C51.1797 108.017 51.3149 107.934 51.4285 107.825C51.5421 107.713 51.6299 107.575 51.6919 107.41L52.3982 107.608C52.3238 107.848 52.1989 108.058 52.0233 108.24C51.8478 108.42 51.6309 108.56 51.3728 108.661C51.1146 108.761 50.8244 108.81 50.5023 108.81ZM53.5847 108.711V103.953H54.291V104.671H54.3405C54.4273 104.436 54.5842 104.245 54.8114 104.098C55.0386 103.952 55.2947 103.878 55.5797 103.878C55.6334 103.878 55.7005 103.879 55.7811 103.881C55.8616 103.883 55.9225 103.887 55.9638 103.891V104.634C55.939 104.628 55.8822 104.619 55.7934 104.606C55.7067 104.592 55.6148 104.585 55.5177 104.585C55.2864 104.585 55.0799 104.633 54.8982 104.73C54.7185 104.825 54.576 104.957 54.4706 105.127C54.3674 105.294 54.3158 105.485 54.3158 105.7V108.711H53.5847ZM57.5616 105.849V108.711H56.8305V103.953H57.5368V104.696H57.5987C57.7103 104.454 57.8796 104.26 58.1068 104.114C58.334 103.965 58.6272 103.891 58.9866 103.891C59.3088 103.891 59.5907 103.957 59.8323 104.089C60.0739 104.219 60.2619 104.417 60.3961 104.684C60.5304 104.948 60.5975 105.283 60.5975 105.687V108.711H59.8664V105.737C59.8664 105.363 59.7693 105.072 59.5752 104.863C59.381 104.653 59.1146 104.547 58.7759 104.547C58.5425 104.547 58.334 104.598 58.1502 104.699C57.9684 104.8 57.8249 104.948 57.7195 105.142C57.6142 105.336 57.5616 105.572 57.5616 105.849ZM63.3337 108.822C63.0321 108.822 62.7585 108.766 62.5127 108.652C62.267 108.536 62.0718 108.37 61.9272 108.153C61.7827 107.934 61.7104 107.67 61.7104 107.36C61.7104 107.088 61.7641 106.867 61.8715 106.697C61.9789 106.526 62.1224 106.392 62.3021 106.295C62.4818 106.198 62.68 106.125 62.8969 106.078C63.1158 106.028 63.3357 105.989 63.5567 105.96C63.8459 105.923 64.0803 105.895 64.2599 105.876C64.4417 105.856 64.5739 105.822 64.6565 105.774C64.7411 105.727 64.7835 105.644 64.7835 105.526V105.502C64.7835 105.196 64.6998 104.958 64.5326 104.789C64.3673 104.62 64.1164 104.535 63.7798 104.535C63.4307 104.535 63.1571 104.611 62.9588 104.764C62.7606 104.917 62.6212 105.08 62.5406 105.254L61.8467 105.006C61.9706 104.717 62.1358 104.492 62.3424 104.331C62.5509 104.167 62.7781 104.054 63.0239 103.99C63.2717 103.924 63.5154 103.891 63.755 103.891C63.9078 103.891 64.0834 103.909 64.2816 103.946C64.482 103.982 64.6751 104.055 64.8609 104.166C65.0489 104.278 65.2048 104.446 65.3287 104.671C65.4526 104.896 65.5146 105.198 65.5146 105.576V108.711H64.7835V108.067H64.7463C64.6967 108.17 64.6141 108.28 64.4985 108.398C64.3828 108.516 64.229 108.616 64.0369 108.699C63.8448 108.781 63.6104 108.822 63.3337 108.822ZM63.4452 108.166C63.7343 108.166 63.978 108.109 64.1763 107.995C64.3766 107.882 64.5274 107.735 64.6286 107.555C64.7318 107.376 64.7835 107.187 64.7835 106.989V106.319C64.7525 106.357 64.6843 106.391 64.579 106.422C64.4758 106.451 64.356 106.476 64.2197 106.499C64.0854 106.52 63.9543 106.538 63.8262 106.555C63.7003 106.569 63.598 106.582 63.5195 106.592C63.3295 106.617 63.1519 106.657 62.9867 106.713C62.8236 106.767 62.6914 106.848 62.5902 106.958C62.4911 107.065 62.4415 107.212 62.4415 107.397C62.4415 107.651 62.5355 107.844 62.7234 107.974C62.9134 108.102 63.154 108.166 63.4452 108.166ZM66.849 108.711V103.953H67.5553V104.696H67.6173C67.7164 104.442 67.8765 104.245 68.0974 104.104C68.3184 103.962 68.5838 103.891 68.8936 103.891C69.2075 103.891 69.4688 103.962 69.6773 104.104C69.888 104.245 70.0522 104.442 70.1699 104.696H70.2195C70.3413 104.45 70.5241 104.255 70.7678 104.111C71.0115 103.964 71.3037 103.891 71.6445 103.891C72.0699 103.891 72.4179 104.024 72.6885 104.29C72.959 104.555 73.0943 104.967 73.0943 105.526V108.711H72.3632V105.526C72.3632 105.175 72.2672 104.924 72.0751 104.774C71.883 104.623 71.6569 104.547 71.3967 104.547C71.0621 104.547 70.8029 104.649 70.6191 104.851C70.4353 105.051 70.3434 105.305 70.3434 105.613V108.711H69.5999V105.452C69.5999 105.181 69.5121 104.964 69.3366 104.798C69.161 104.631 68.9349 104.547 68.6581 104.547C68.4681 104.547 68.2905 104.598 68.1253 104.699C67.9622 104.8 67.83 104.941 67.7288 105.12C67.6297 105.298 67.5801 105.504 67.5801 105.737V108.711H66.849ZM76.4261 108.81C75.9676 108.81 75.5721 108.709 75.2396 108.506C74.9091 108.302 74.6541 108.017 74.4744 107.651C74.2968 107.284 74.208 106.856 74.208 106.369C74.208 105.882 74.2968 105.452 74.4744 105.08C74.6541 104.706 74.904 104.415 75.2241 104.207C75.5463 103.996 75.9222 103.891 76.3517 103.891C76.5996 103.891 76.8443 103.932 77.0859 104.015C77.3276 104.097 77.5475 104.231 77.7458 104.417C77.944 104.601 78.102 104.845 78.2197 105.148C78.3375 105.452 78.3963 105.826 78.3963 106.27V106.58H74.7284V105.948H77.6528C77.6528 105.679 77.5991 105.44 77.4917 105.229C77.3864 105.018 77.2356 104.852 77.0395 104.73C76.8453 104.608 76.6161 104.547 76.3517 104.547C76.0605 104.547 75.8086 104.62 75.5958 104.764C75.3852 104.907 75.2231 105.093 75.1095 105.322C74.9959 105.551 74.9391 105.797 74.9391 106.059V106.48C74.9391 106.84 75.001 107.144 75.125 107.394C75.2509 107.642 75.4255 107.831 75.6485 107.961C75.8716 108.089 76.1307 108.153 76.4261 108.153C76.6181 108.153 76.7916 108.126 76.9465 108.073C77.1035 108.017 77.2387 107.934 77.3523 107.825C77.4659 107.713 77.5537 107.575 77.6157 107.41L78.322 107.608C78.2476 107.848 78.1227 108.058 77.9471 108.24C77.7716 108.42 77.5547 108.56 77.2966 108.661C77.0384 108.761 76.7483 108.81 76.4261 108.81ZM83.895 108.81C83.4655 108.81 83.0886 108.708 82.7643 108.503C82.4421 108.299 82.1902 108.013 82.0084 107.645C81.8288 107.278 81.7389 106.848 81.7389 106.357C81.7389 105.861 81.8288 105.428 82.0084 105.059C82.1902 104.689 82.4421 104.402 82.7643 104.197C83.0886 103.993 83.4655 103.891 83.895 103.891C84.3246 103.891 84.7005 103.993 85.0227 104.197C85.3469 104.402 85.5989 104.689 85.7786 105.059C85.9603 105.428 86.0512 105.861 86.0512 106.357C86.0512 106.848 85.9603 107.278 85.7786 107.645C85.5989 108.013 85.3469 108.299 85.0227 108.503C84.7005 108.708 84.3246 108.81 83.895 108.81ZM83.895 108.153C84.2214 108.153 84.4898 108.07 84.7005 107.902C84.9112 107.735 85.0671 107.515 85.1683 107.243C85.2695 106.97 85.3201 106.675 85.3201 106.357C85.3201 106.039 85.2695 105.742 85.1683 105.467C85.0671 105.193 84.9112 104.971 84.7005 104.801C84.4898 104.632 84.2214 104.547 83.895 104.547C83.5687 104.547 83.3003 104.632 83.0896 104.801C82.8789 104.971 82.723 105.193 82.6218 105.467C82.5206 105.742 82.47 106.039 82.47 106.357C82.47 106.675 82.5206 106.97 82.6218 107.243C82.723 107.515 82.8789 107.735 83.0896 107.902C83.3003 108.07 83.5687 108.153 83.895 108.153ZM87.1672 108.711V103.953H87.8735V104.671H87.9231C88.0098 104.436 88.1668 104.245 88.3939 104.098C88.6211 103.952 88.8772 103.878 89.1622 103.878C89.2159 103.878 89.283 103.879 89.3636 103.881C89.4441 103.883 89.505 103.887 89.5463 103.891V104.634C89.5216 104.628 89.4648 104.619 89.376 104.606C89.2892 104.592 89.1973 104.585 89.1003 104.585C88.8689 104.585 88.6624 104.633 88.4807 104.73C88.301 104.825 88.1585 104.957 88.0532 105.127C87.9499 105.294 87.8983 105.485 87.8983 105.7V108.711H87.1672ZM94.8615 108.81C94.403 108.81 94.0075 108.709 93.675 108.506C93.3446 108.302 93.0895 108.017 92.9099 107.651C92.7323 107.284 92.6435 106.856 92.6435 106.369C92.6435 105.882 92.7323 105.452 92.9099 105.08C93.0895 104.706 93.3394 104.415 93.6596 104.207C93.9817 103.996 94.3576 103.891 94.7872 103.891C95.035 103.891 95.2797 103.932 95.5214 104.015C95.763 104.097 95.983 104.231 96.1812 104.417C96.3795 104.601 96.5375 104.845 96.6552 105.148C96.7729 105.452 96.8318 105.826 96.8318 106.27V106.58H93.1639V105.948H96.0883C96.0883 105.679 96.0346 105.44 95.9272 105.229C95.8219 105.018 95.6711 104.852 95.4749 104.73C95.2808 104.608 95.0515 104.547 94.7872 104.547C94.496 104.547 94.244 104.62 94.0313 104.764C93.8206 104.907 93.6585 105.093 93.5449 105.322C93.4313 105.551 93.3746 105.797 93.3746 106.059V106.48C93.3746 106.84 93.4365 107.144 93.5604 107.394C93.6864 107.642 93.8609 107.831 94.084 107.961C94.307 108.089 94.5662 108.153 94.8615 108.153C95.0536 108.153 95.2271 108.126 95.382 108.073C95.5389 108.017 95.6742 107.934 95.7878 107.825C95.9014 107.713 95.9892 107.575 96.0511 107.41L96.7574 107.608C96.6831 107.848 96.5581 108.058 96.3826 108.24C96.207 108.42 95.9902 108.56 95.732 108.661C95.4739 108.761 95.1837 108.81 94.8615 108.81ZM97.9439 108.711V103.953H98.6502V104.696H98.7122C98.8113 104.442 98.9714 104.245 99.1924 104.104C99.4133 103.962 99.6787 103.891 99.9885 103.891C100.302 103.891 100.564 103.962 100.772 104.104C100.983 104.245 101.147 104.442 101.265 104.696H101.314C101.436 104.45 101.619 104.255 101.863 104.111C102.106 103.964 102.399 103.891 102.739 103.891C103.165 103.891 103.513 104.024 103.783 104.29C104.054 104.555 104.189 104.967 104.189 105.526V108.711H103.458V105.526C103.458 105.175 103.362 104.924 103.17 104.774C102.978 104.623 102.752 104.547 102.492 104.547C102.157 104.547 101.898 104.649 101.714 104.851C101.53 105.051 101.438 105.305 101.438 105.613V108.711H100.695V105.452C100.695 105.181 100.607 104.964 100.432 104.798C100.256 104.631 100.03 104.547 99.7531 104.547C99.5631 104.547 99.3855 104.598 99.2202 104.699C99.0571 104.8 98.9249 104.941 98.8237 105.12C98.7246 105.298 98.675 105.504 98.675 105.737V108.711H97.9439ZM106.926 108.822C106.625 108.822 106.351 108.766 106.105 108.652C105.86 108.536 105.664 108.37 105.52 108.153C105.375 107.934 105.303 107.67 105.303 107.36C105.303 107.088 105.357 106.867 105.464 106.697C105.571 106.526 105.715 106.392 105.895 106.295C106.074 106.198 106.273 106.125 106.489 106.078C106.708 106.028 106.928 105.989 107.149 105.96C107.438 105.923 107.673 105.895 107.852 105.876C108.034 105.856 108.166 105.822 108.249 105.774C108.334 105.727 108.376 105.644 108.376 105.526V105.502C108.376 105.196 108.292 104.958 108.125 104.789C107.96 104.62 107.709 104.535 107.372 104.535C107.023 104.535 106.75 104.611 106.551 104.764C106.353 104.917 106.214 105.08 106.133 105.254L105.439 105.006C105.563 104.717 105.728 104.492 105.935 104.331C106.143 104.167 106.371 104.054 106.616 103.99C106.864 103.924 107.108 103.891 107.348 103.891C107.5 103.891 107.676 103.909 107.874 103.946C108.074 103.982 108.268 104.055 108.453 104.166C108.641 104.278 108.797 104.446 108.921 104.671C109.045 104.896 109.107 105.198 109.107 105.576V108.711H108.376V108.067H108.339C108.289 108.17 108.207 108.28 108.091 108.398C107.975 108.516 107.821 108.616 107.629 108.699C107.437 108.781 107.203 108.822 106.926 108.822ZM107.038 108.166C107.327 108.166 107.571 108.109 107.769 107.995C107.969 107.882 108.12 107.735 108.221 107.555C108.324 107.376 108.376 107.187 108.376 106.989V106.319C108.345 106.357 108.277 106.391 108.172 106.422C108.068 106.451 107.949 106.476 107.812 106.499C107.678 106.52 107.547 106.538 107.419 106.555C107.293 106.569 107.191 106.582 107.112 106.592C106.922 106.617 106.744 106.657 106.579 106.713C106.416 106.767 106.284 106.848 106.183 106.958C106.084 107.065 106.034 107.212 106.034 107.397C106.034 107.651 106.128 107.844 106.316 107.974C106.506 108.102 106.747 108.166 107.038 108.166ZM110.442 108.711V103.953H111.173V108.711H110.442ZM110.813 103.16C110.671 103.16 110.548 103.111 110.445 103.014C110.343 102.917 110.293 102.8 110.293 102.664C110.293 102.528 110.343 102.411 110.445 102.314C110.548 102.217 110.671 102.168 110.813 102.168C110.956 102.168 111.078 102.217 111.179 102.314C111.282 102.411 111.334 102.528 111.334 102.664C111.334 102.8 111.282 102.917 111.179 103.014C111.078 103.111 110.956 103.16 110.813 103.16ZM113.243 102.366V108.711H112.512V102.366H113.243Z" fill="#9CA3AF"/>
<path d="M14 117.07H231" stroke="#D1D5DB" stroke-width="0.545226"/>
<path d="M14.7683 156.516V150.171H18.5972V150.853H15.5365V152.996H18.399V153.678H15.5365V155.834H18.6468V156.516H14.7683ZM20.614 153.653V156.516H19.8829V151.757H20.5892V152.501H20.6511C20.7627 152.259 20.932 152.065 21.1592 151.918C21.3864 151.77 21.6796 151.695 22.039 151.695C22.3612 151.695 22.6431 151.761 22.8847 151.894C23.1263 152.024 23.3143 152.222 23.4485 152.488C23.5828 152.753 23.6499 153.087 23.6499 153.492V156.516H22.9188V153.542C22.9188 153.168 22.8217 152.877 22.6276 152.668C22.4335 152.457 22.167 152.352 21.8283 152.352C21.595 152.352 21.3864 152.403 21.2026 152.504C21.0208 152.605 20.8773 152.753 20.772 152.947C20.6666 153.141 20.614 153.376 20.614 153.653ZM27.0552 151.757V152.377H24.5893V151.757H27.0552ZM25.308 150.617H26.0391V155.153C26.0391 155.359 26.0691 155.514 26.129 155.617C26.1909 155.718 26.2694 155.787 26.3644 155.822C26.4615 155.855 26.5637 155.871 26.6711 155.871C26.7516 155.871 26.8177 155.867 26.8694 155.859C26.921 155.849 26.9623 155.84 26.9933 155.834L27.142 156.491C27.0924 156.509 27.0232 156.528 26.9344 156.547C26.8456 156.567 26.733 156.578 26.5967 156.578C26.3902 156.578 26.1878 156.533 25.9896 156.444C25.7934 156.356 25.6302 156.22 25.5001 156.039C25.372 155.857 25.308 155.628 25.308 155.351V150.617ZM30.0989 156.615C29.6404 156.615 29.2449 156.514 28.9124 156.311C28.582 156.107 28.3269 155.822 28.1472 155.456C27.9696 155.089 27.8808 154.661 27.8808 154.174C27.8808 153.686 27.9696 153.257 28.1472 152.885C28.3269 152.511 28.5768 152.22 28.8969 152.011C29.2191 151.801 29.595 151.695 30.0245 151.695C30.2724 151.695 30.5171 151.737 30.7587 151.819C31.0004 151.902 31.2203 152.036 31.4186 152.222C31.6168 152.406 31.7748 152.649 31.8926 152.953C32.0103 153.257 32.0691 153.63 32.0691 154.074V154.384H28.4013V153.752H31.3256C31.3256 153.484 31.2719 153.244 31.1646 153.034C31.0592 152.823 30.9085 152.657 30.7123 152.535C30.5181 152.413 30.2889 152.352 30.0245 152.352C29.7333 152.352 29.4814 152.424 29.2687 152.569C29.058 152.711 28.8959 152.897 28.7823 153.127C28.6687 153.356 28.6119 153.602 28.6119 153.864V154.285C28.6119 154.645 28.6739 154.949 28.7978 155.199C28.9238 155.447 29.0983 155.636 29.3213 155.766C29.5444 155.894 29.8036 155.958 30.0989 155.958C30.291 155.958 30.4644 155.931 30.6193 155.877C30.7763 155.822 30.9116 155.739 31.0252 155.63C31.1387 155.518 31.2265 155.38 31.2885 155.215L31.9948 155.413C31.9204 155.652 31.7955 155.863 31.6199 156.045C31.4444 156.224 31.2275 156.365 30.9694 156.466C30.7112 156.565 30.4211 156.615 30.0989 156.615ZM33.1813 156.516V151.757H33.8876V152.476H33.9372C34.0239 152.241 34.1809 152.05 34.408 151.903C34.6352 151.756 34.8913 151.683 35.1763 151.683C35.23 151.683 35.2971 151.684 35.3777 151.686C35.4582 151.688 35.5191 151.691 35.5604 151.695V152.439C35.5357 152.433 35.4789 152.423 35.3901 152.411C35.3033 152.396 35.2114 152.389 35.1143 152.389C34.883 152.389 34.6765 152.438 34.4948 152.535C34.3151 152.63 34.1726 152.762 34.0673 152.931C33.964 153.099 33.9124 153.29 33.9124 153.504V156.516H33.1813ZM38.8806 158.3V151.757H39.5869V152.513H39.6736C39.7273 152.431 39.8017 152.325 39.8967 152.197C39.9938 152.067 40.1321 151.951 40.3118 151.85C40.4936 151.747 40.7393 151.695 41.0491 151.695C41.4498 151.695 41.8029 151.795 42.1086 151.996C42.4142 152.196 42.6528 152.48 42.8242 152.848C42.9956 153.215 43.0813 153.649 43.0813 154.149C43.0813 154.653 42.9956 155.09 42.8242 155.459C42.6528 155.827 42.4153 156.112 42.1117 156.314C41.8081 156.515 41.458 156.615 41.0615 156.615C40.7558 156.615 40.5111 156.564 40.3273 156.463C40.1435 156.36 40.002 156.243 39.9029 156.113C39.8038 155.981 39.7273 155.871 39.6736 155.785H39.6117V158.3H38.8806ZM39.5993 154.136C39.5993 154.496 39.652 154.813 39.7573 155.088C39.8626 155.36 40.0165 155.574 40.2189 155.729C40.4213 155.882 40.6691 155.958 40.9624 155.958C41.268 155.958 41.5231 155.877 41.7275 155.716C41.9341 155.553 42.089 155.334 42.1922 155.06C42.2975 154.783 42.3502 154.475 42.3502 154.136C42.3502 153.802 42.2986 153.5 42.1953 153.232C42.0941 152.961 41.9403 152.748 41.7337 152.591C41.5293 152.432 41.2722 152.352 40.9624 152.352C40.665 152.352 40.4151 152.427 40.2127 152.578C40.0103 152.727 39.8575 152.936 39.7542 153.204C39.6509 153.47 39.5993 153.781 39.5993 154.136ZM45.5968 156.627C45.2953 156.627 45.0216 156.57 44.7758 156.457C44.5301 156.341 44.3349 156.175 44.1904 155.958C44.0458 155.739 43.9735 155.475 43.9735 155.165C43.9735 154.892 44.0272 154.671 44.1346 154.502C44.242 154.331 44.3855 154.196 44.5652 154.099C44.7449 154.002 44.9431 153.93 45.16 153.882C45.3789 153.833 45.5989 153.794 45.8198 153.765C46.109 153.728 46.3434 153.7 46.5231 153.681C46.7048 153.66 46.837 153.626 46.9196 153.579C47.0043 153.531 47.0466 153.449 47.0466 153.331V153.306C47.0466 153.001 46.9629 152.763 46.7957 152.594C46.6304 152.424 46.3795 152.34 46.0429 152.34C45.6939 152.34 45.4202 152.416 45.2219 152.569C45.0237 152.722 44.8843 152.885 44.8037 153.058L44.1098 152.811C44.2337 152.521 44.3989 152.296 44.6055 152.135C44.8141 151.972 45.0412 151.858 45.287 151.794C45.5348 151.728 45.7785 151.695 46.0181 151.695C46.1709 151.695 46.3465 151.714 46.5447 151.751C46.7451 151.786 46.9382 151.86 47.124 151.971C47.312 152.083 47.4679 152.251 47.5918 152.476C47.7157 152.701 47.7777 153.003 47.7777 153.381V156.516H47.0466V155.871H47.0094C46.9599 155.975 46.8772 156.085 46.7616 156.203C46.6459 156.32 46.4921 156.421 46.3 156.503C46.1079 156.586 45.8735 156.627 45.5968 156.627ZM45.7083 155.97C45.9974 155.97 46.2411 155.914 46.4394 155.8C46.6397 155.686 46.7905 155.54 46.8917 155.36C46.995 155.18 47.0466 154.991 47.0466 154.793V154.124C47.0156 154.161 46.9475 154.195 46.8421 154.226C46.7389 154.255 46.6191 154.281 46.4828 154.304C46.3485 154.324 46.2174 154.343 46.0893 154.36C45.9634 154.374 45.8611 154.386 45.7827 154.397C45.5927 154.421 45.415 154.462 45.2498 154.517C45.0867 154.571 44.9545 154.653 44.8533 154.762C44.7542 154.87 44.7046 155.016 44.7046 155.202C44.7046 155.456 44.7986 155.648 44.9865 155.778C45.1765 155.906 45.4171 155.97 45.7083 155.97ZM52.4826 152.823L51.8258 153.009C51.7845 152.899 51.7236 152.793 51.6431 152.69C51.5646 152.584 51.4572 152.498 51.3209 152.43C51.1846 152.361 51.0101 152.327 50.7973 152.327C50.5061 152.327 50.2635 152.394 50.0693 152.529C49.8773 152.661 49.7812 152.829 49.7812 153.034C49.7812 153.215 49.8473 153.359 49.9795 153.464C50.1117 153.57 50.3182 153.657 50.5991 153.728L51.3054 153.901C51.7308 154.004 52.0479 154.162 52.2564 154.375C52.465 154.586 52.5693 154.857 52.5693 155.19C52.5693 155.462 52.4909 155.706 52.3339 155.921C52.179 156.136 51.9621 156.305 51.6833 156.429C51.4045 156.553 51.0803 156.615 50.7106 156.615C50.2253 156.615 49.8236 156.509 49.5055 156.299C49.1875 156.088 48.9861 155.78 48.9014 155.376L49.5954 155.202C49.6615 155.458 49.7864 155.65 49.9702 155.778C50.1561 155.906 50.3988 155.97 50.6982 155.97C51.039 155.97 51.3095 155.898 51.5099 155.754C51.7123 155.607 51.8134 155.431 51.8134 155.227C51.8134 155.062 51.7556 154.923 51.64 154.812C51.5243 154.698 51.3467 154.614 51.1071 154.558L50.3141 154.372C49.8783 154.269 49.5582 154.109 49.3537 153.892C49.1513 153.673 49.0501 153.399 49.0501 153.071C49.0501 152.802 49.1255 152.565 49.2763 152.358C49.4291 152.152 49.6367 151.99 49.899 151.872C50.1633 151.754 50.4628 151.695 50.7973 151.695C51.2682 151.695 51.6379 151.799 51.9064 152.005C52.1769 152.212 52.369 152.484 52.4826 152.823ZM57.0403 152.823L56.3836 153.009C56.3423 152.899 56.2814 152.793 56.2008 152.69C56.1223 152.584 56.0149 152.498 55.8786 152.43C55.7423 152.361 55.5678 152.327 55.3551 152.327C55.0639 152.327 54.8212 152.394 54.6271 152.529C54.435 152.661 54.339 152.829 54.339 153.034C54.339 153.215 54.4051 153.359 54.5373 153.464C54.6694 153.57 54.876 153.657 55.1568 153.728L55.8631 153.901C56.2886 154.004 56.6056 154.162 56.8142 154.375C57.0228 154.586 57.1271 154.857 57.1271 155.19C57.1271 155.462 57.0486 155.706 56.8916 155.921C56.7367 156.136 56.5199 156.305 56.2411 156.429C55.9623 156.553 55.638 156.615 55.2684 156.615C54.783 156.615 54.3813 156.509 54.0633 156.299C53.7452 156.088 53.5439 155.78 53.4592 155.376L54.1531 155.202C54.2192 155.458 54.3442 155.65 54.528 155.778C54.7138 155.906 54.9565 155.97 55.256 155.97C55.5967 155.97 55.8673 155.898 56.0676 155.754C56.27 155.607 56.3712 155.431 56.3712 155.227C56.3712 155.062 56.3134 154.923 56.1977 154.812C56.0821 154.698 55.9045 154.614 55.6649 154.558L54.8718 154.372C54.4361 154.269 54.1159 154.109 53.9115 153.892C53.7091 153.673 53.6079 153.399 53.6079 153.071C53.6079 152.802 53.6833 152.565 53.834 152.358C53.9869 152.152 54.1944 151.99 54.4567 151.872C54.7211 151.754 55.0205 151.695 55.3551 151.695C55.826 151.695 56.1957 151.799 56.4641 152.005C56.7347 152.212 56.9268 152.484 57.0403 152.823ZM59.3057 156.516L57.8559 151.757H58.6241L59.6526 155.4H59.7022L60.7183 151.757H61.499L62.5027 155.388H62.5522L63.5807 151.757H64.349L62.8992 156.516H62.1805L61.1396 152.86H61.0653L60.0244 156.516H59.3057ZM67.0868 156.615C66.6572 156.615 66.2803 156.513 65.956 156.308C65.6338 156.104 65.3819 155.818 65.2001 155.45C65.0205 155.082 64.9306 154.653 64.9306 154.161C64.9306 153.666 65.0205 153.233 65.2001 152.863C65.3819 152.494 65.6338 152.206 65.956 152.002C66.2803 151.798 66.6572 151.695 67.0868 151.695C67.5163 151.695 67.8922 151.798 68.2144 152.002C68.5386 152.206 68.7906 152.494 68.9703 152.863C69.152 153.233 69.2429 153.666 69.2429 154.161C69.2429 154.653 69.152 155.082 68.9703 155.45C68.7906 155.818 68.5386 156.104 68.2144 156.308C67.8922 156.513 67.5163 156.615 67.0868 156.615ZM67.0868 155.958C67.4131 155.958 67.6815 155.874 67.8922 155.707C68.1029 155.54 68.2588 155.32 68.36 155.047C68.4612 154.775 68.5118 154.479 68.5118 154.161C68.5118 153.843 68.4612 153.547 68.36 153.272C68.2588 152.997 68.1029 152.775 67.8922 152.606C67.6815 152.437 67.4131 152.352 67.0868 152.352C66.7604 152.352 66.492 152.437 66.2813 152.606C66.0706 152.775 65.9147 152.997 65.8135 153.272C65.7123 153.547 65.6617 153.843 65.6617 154.161C65.6617 154.479 65.7123 154.775 65.8135 155.047C65.9147 155.32 66.0706 155.54 66.2813 155.707C66.492 155.874 66.7604 155.958 67.0868 155.958ZM70.3589 156.516V151.757H71.0652V152.476H71.1148C71.2015 152.241 71.3585 152.05 71.5856 151.903C71.8128 151.756 72.0689 151.683 72.3539 151.683C72.4076 151.683 72.4747 151.684 72.5553 151.686C72.6358 151.688 72.6967 151.691 72.738 151.695V152.439C72.7133 152.433 72.6565 152.423 72.5677 152.411C72.4809 152.396 72.389 152.389 72.292 152.389C72.0606 152.389 71.8541 152.438 71.6724 152.535C71.4927 152.63 71.3502 152.762 71.2449 152.931C71.1416 153.099 71.09 153.29 71.09 153.504V156.516H70.3589ZM75.2566 156.615C74.8601 156.615 74.51 156.515 74.2064 156.314C73.9029 156.112 73.6653 155.827 73.4939 155.459C73.3225 155.09 73.2368 154.653 73.2368 154.149C73.2368 153.649 73.3225 153.215 73.4939 152.848C73.6653 152.48 73.9039 152.196 74.2095 151.996C74.5152 151.795 74.8684 151.695 75.269 151.695C75.5788 151.695 75.8235 151.747 76.0032 151.85C76.185 151.951 76.3233 152.067 76.4183 152.197C76.5154 152.325 76.5908 152.431 76.6445 152.513H76.7064V150.171H77.4375V156.516H76.7312V155.785H76.6445C76.5908 155.871 76.5144 155.981 76.4152 156.113C76.3161 156.243 76.1746 156.36 75.9908 156.463C75.807 156.564 75.5623 156.615 75.2566 156.615ZM75.3558 155.958C75.649 155.958 75.8969 155.882 76.0992 155.729C76.3016 155.574 76.4555 155.36 76.5608 155.088C76.6662 154.813 76.7188 154.496 76.7188 154.136C76.7188 153.781 76.6672 153.47 76.5639 153.204C76.4607 152.936 76.3078 152.727 76.1054 152.578C75.903 152.427 75.6532 152.352 75.3558 152.352C75.046 152.352 74.7878 152.432 74.5813 152.591C74.3768 152.748 74.223 152.961 74.1197 153.232C74.0185 153.5 73.9679 153.802 73.9679 154.136C73.9679 154.475 74.0195 154.783 74.1228 155.06C74.2281 155.334 74.383 155.553 74.5875 155.716C74.794 155.877 75.0501 155.958 75.3558 155.958Z" fill="#9CA3AF"/>
<path d="M14 164.875H231" stroke="#D1D5DB" stroke-width="0.545226"/>
<g filter="url(#filter0_d_5555_73440)">
<rect x="95.0527" y="194.32" width="54.8945" height="24.9045" rx="12.4523" fill="#3B82F6"/>
<path d="M118.318 203.429V209.773H117.438L114.213 205.12H114.154V209.773H113.197V203.429H114.083L117.311 208.088H117.37V203.429H118.318ZM121.691 209.869C121.222 209.869 120.818 209.769 120.479 209.569C120.143 209.367 119.882 209.083 119.699 208.717C119.517 208.349 119.426 207.919 119.426 207.425C119.426 206.938 119.517 206.508 119.699 206.137C119.882 205.765 120.139 205.475 120.467 205.266C120.797 205.057 121.184 204.953 121.626 204.953C121.894 204.953 122.154 204.998 122.406 205.086C122.658 205.175 122.884 205.315 123.085 205.505C123.285 205.695 123.443 205.941 123.559 206.245C123.674 206.546 123.732 206.913 123.732 207.345V207.673H119.95V206.979H122.824C122.824 206.735 122.775 206.52 122.676 206.332C122.577 206.142 122.437 205.992 122.258 205.883C122.08 205.773 121.871 205.718 121.632 205.718C121.372 205.718 121.144 205.782 120.95 205.91C120.758 206.036 120.609 206.202 120.504 206.406C120.401 206.608 120.349 206.828 120.349 207.066V207.608C120.349 207.926 120.405 208.197 120.517 208.42C120.63 208.643 120.788 208.813 120.991 208.931C121.193 209.046 121.429 209.104 121.7 209.104C121.875 209.104 122.036 209.08 122.18 209.03C122.325 208.978 122.45 208.902 122.555 208.801C122.66 208.7 122.741 208.575 122.797 208.426L123.673 208.584C123.603 208.842 123.477 209.068 123.295 209.262C123.116 209.454 122.89 209.604 122.617 209.711C122.346 209.817 122.038 209.869 121.691 209.869ZM125.38 205.015L126.43 206.868L127.49 205.015H128.503L127.019 207.394L128.515 209.773H127.502L126.43 207.995L125.362 209.773H124.346L125.826 207.394L124.364 205.015H125.38ZM131.675 205.015V205.759H129.076V205.015H131.675ZM129.773 203.875H130.699V208.376C130.699 208.556 130.726 208.691 130.78 208.782C130.833 208.871 130.903 208.932 130.987 208.965C131.074 208.996 131.168 209.011 131.269 209.011C131.344 209.011 131.409 209.006 131.464 208.996C131.52 208.986 131.564 208.977 131.595 208.971L131.762 209.736C131.708 209.757 131.632 209.778 131.533 209.798C131.433 209.821 131.31 209.833 131.161 209.835C130.917 209.84 130.69 209.796 130.479 209.705C130.269 209.614 130.098 209.474 129.968 209.284C129.838 209.094 129.773 208.855 129.773 208.568V203.875Z" fill="white"/>
</g>
<defs>
<filter id="filter0_d_5555_73440" x="93.0527" y="193.32" width="58.8945" height="28.9062" filterUnits="userSpaceOnUse" color-interpolation-filters="sRGB">
<feFlood flood-opacity="0" result="BackgroundImageFix"/>
<feColorMatrix in="SourceAlpha" type="matrix" values="0 0 0 0 0 0 0 0 0 0 0 0 0 0 0 0 0 0 127 0" result="hardAlpha"/>
<feOffset dy="1"/>
<feGaussianBlur stdDeviation="1"/>
<feColorMatrix type="matrix" values="0 0 0 0 0 0 0 0 0 0 0 0 0 0 0 0 0 0 0.05 0"/>
<feBlend mode="normal" in2="BackgroundImageFix" result="effect1_dropShadow_5555_73440"/>
<feBlend mode="normal" in="SourceGraphic" in2="effect1_dropShadow_5555_73440" result="shape"/>
</filter>
</defs>
</svg>
