<svg width="245" height="245" viewBox="0 0 245 245" fill="none" xmlns="http://www.w3.org/2000/svg">
<rect width="245" height="245" rx="8" fill="white"/>
<path d="M52.5321 28.8906V16.9948H57.2253C58.1237 16.9948 58.8905 17.1555 59.5255 17.4769C60.1645 17.7944 60.6504 18.2455 60.9835 18.8303C61.3203 19.4111 61.4888 20.0946 61.4888 20.8807C61.4888 21.6706 61.3184 22.3502 60.9776 22.9195C60.6369 23.4848 60.1432 23.9185 59.4965 24.2206C58.8537 24.5226 58.0753 24.6736 57.1615 24.6736H54.019V22.6523H56.7549C57.235 22.6523 57.6339 22.5864 57.9514 22.4548C58.2689 22.3231 58.5052 22.1256 58.66 21.8623C58.8188 21.599 58.8982 21.2718 58.8982 20.8807C58.8982 20.4857 58.8188 20.1527 58.66 19.8816C58.5052 19.6106 58.267 19.4053 57.9456 19.2659C57.6281 19.1226 57.2273 19.051 56.7432 19.051H55.0471V28.8906H52.5321ZM58.9563 23.4771L61.9128 28.8906H59.1363L56.2437 23.4771H58.9563ZM67.1419 29.0649C66.2242 29.0649 65.4342 28.879 64.7721 28.5073C64.1138 28.1316 63.6065 27.6011 63.2502 26.9157C62.894 26.2265 62.7158 25.4113 62.7158 24.4703C62.7158 23.5526 62.894 22.7472 63.2502 22.054C63.6065 21.3609 64.108 20.8207 64.7546 20.4334C65.4052 20.0462 66.168 19.8526 67.0432 19.8526C67.6318 19.8526 68.1797 19.9474 68.687 20.1372C69.1981 20.3231 69.6435 20.6038 70.023 20.9794C70.4063 21.355 70.7045 21.8275 70.9175 22.3967C71.1304 22.9621 71.2369 23.6242 71.2369 24.3832V25.0628H63.7033V23.5294H68.9077C68.9077 23.1731 68.8303 22.8575 68.6754 22.5826C68.5205 22.3076 68.3056 22.0927 68.0306 21.9378C67.7596 21.7791 67.444 21.6997 67.0838 21.6997C66.7082 21.6997 66.3752 21.7868 66.0848 21.9611C65.7982 22.1314 65.5736 22.3619 65.411 22.6523C65.2484 22.9388 65.1651 23.2583 65.1612 23.6107V25.0686C65.1612 25.5101 65.2425 25.8915 65.4052 26.2129C65.5717 26.5343 65.806 26.7821 66.108 26.9564C66.4101 27.1306 66.7683 27.2178 67.1826 27.2178C67.4575 27.2178 67.7092 27.179 67.9377 27.1016C68.1662 27.0242 68.3617 26.908 68.5244 26.7531C68.687 26.5982 68.8109 26.4085 68.8961 26.1839L71.1847 26.3349C71.0685 26.8848 70.8303 27.3649 70.4702 27.7754C70.114 28.182 69.6531 28.4995 69.0878 28.728C68.5263 28.9526 67.8777 29.0649 67.1419 29.0649ZM76.8712 32.4222C76.0696 32.4222 75.3823 32.3118 74.8092 32.0911C74.2399 31.8743 73.7869 31.578 73.45 31.2024C73.1131 30.8268 72.8943 30.4047 72.7936 29.9362L75.0822 29.6283C75.1519 29.8064 75.2622 29.9729 75.4133 30.1278C75.5643 30.2827 75.7637 30.4066 76.0115 30.4996C76.2632 30.5964 76.5692 30.6448 76.9293 30.6448C77.4675 30.6448 77.9109 30.5131 78.2594 30.2498C78.6118 29.9904 78.788 29.5547 78.788 28.9429V27.3107H78.6835C78.575 27.5585 78.4124 27.7928 78.1955 28.0135C77.9787 28.2343 77.6999 28.4143 77.3591 28.5537C77.0183 28.6931 76.6118 28.7628 76.1393 28.7628C75.4694 28.7628 74.8595 28.6079 74.3096 28.2982C73.7636 27.9845 73.328 27.5063 73.0027 26.8635C72.6813 26.2168 72.5206 25.3997 72.5206 24.4123C72.5206 23.4016 72.6852 22.5574 73.0143 21.8797C73.3435 21.2021 73.7811 20.6948 74.3271 20.3579C74.8769 20.021 75.4791 19.8526 76.1335 19.8526C76.6331 19.8526 77.0513 19.9378 77.3882 20.1081C77.7251 20.2747 77.9961 20.4838 78.2013 20.7355C78.4105 20.9833 78.5712 21.2273 78.6835 21.4673H78.7764V19.9687H81.2334V28.9778C81.2334 29.7367 81.0475 30.3718 80.6758 30.8829C80.304 31.3941 79.789 31.7775 79.1307 32.033C78.4763 32.2925 77.7231 32.4222 76.8712 32.4222ZM76.9235 26.9041C77.3223 26.9041 77.6592 26.8054 77.9342 26.6079C78.213 26.4065 78.4259 26.12 78.5731 25.7482C78.7241 25.3726 78.7996 24.9234 78.7996 24.4006C78.7996 23.8779 78.7261 23.4248 78.5789 23.0414C78.4318 22.6542 78.2188 22.3541 77.94 22.1411C77.6612 21.9281 77.3223 21.8217 76.9235 21.8217C76.5169 21.8217 76.1742 21.932 75.8954 22.1527C75.6166 22.3696 75.4055 22.6716 75.2622 23.0589C75.119 23.4461 75.0473 23.8934 75.0473 24.4006C75.0473 24.9157 75.119 25.361 75.2622 25.7366C75.4094 26.1083 75.6204 26.3968 75.8954 26.6021C76.1742 26.8034 76.5169 26.9041 76.9235 26.9041ZM83.2025 28.8906V19.9687H85.6769V28.8906H83.2025ZM84.4455 18.8187C84.0776 18.8187 83.762 18.6967 83.4987 18.4527C83.2393 18.2049 83.1095 17.9087 83.1095 17.564C83.1095 17.2233 83.2393 16.9309 83.4987 16.6869C83.762 16.4391 84.0776 16.3152 84.4455 16.3152C84.8134 16.3152 85.127 16.4391 85.3865 16.6869C85.6498 16.9309 85.7815 17.2233 85.7815 17.564C85.7815 17.9087 85.6498 18.2049 85.3865 18.4527C85.127 18.6967 84.8134 18.8187 84.4455 18.8187ZM95.0823 22.5129L92.817 22.6523C92.7783 22.4587 92.695 22.2844 92.5673 22.1295C92.4395 21.9707 92.271 21.8449 92.0619 21.752C91.8567 21.6551 91.6108 21.6067 91.3242 21.6067C90.9409 21.6067 90.6175 21.6881 90.3542 21.8507C90.0909 22.0095 89.9592 22.2224 89.9592 22.4896C89.9592 22.7026 90.0444 22.8827 90.2148 23.0298C90.3852 23.177 90.6776 23.2951 91.0919 23.3842L92.7067 23.7094C93.5741 23.8876 94.2208 24.1741 94.6467 24.5691C95.0727 24.9641 95.2856 25.483 95.2856 26.1258C95.2856 26.7105 95.1133 27.2236 94.7687 27.665C94.4279 28.1065 93.9594 28.4511 93.363 28.6989C92.7706 28.9429 92.0871 29.0649 91.3126 29.0649C90.1316 29.0649 89.1906 28.819 88.4897 28.3272C87.7927 27.8315 87.3841 27.1578 87.2641 26.3058L89.6979 26.178C89.7714 26.5382 89.9496 26.8131 90.2322 27.0029C90.5149 27.1887 90.877 27.2817 91.3184 27.2817C91.7521 27.2817 92.1006 27.1984 92.364 27.0319C92.6312 26.8615 92.7667 26.6427 92.7706 26.3755C92.7667 26.1509 92.6718 25.967 92.4859 25.8237C92.3001 25.6766 92.0135 25.5643 91.6263 25.4868L90.0812 25.179C89.2099 25.0047 88.5613 24.7027 88.1354 24.2729C87.7133 23.843 87.5022 23.2951 87.5022 22.629C87.5022 22.0559 87.6571 21.5622 87.9669 21.1479C88.2806 20.7335 88.7201 20.4141 89.2854 20.1895C89.8547 19.9649 90.5207 19.8526 91.2836 19.8526C92.4104 19.8526 93.2972 20.0907 93.9439 20.567C94.5944 21.0433 94.9739 21.6919 95.0823 22.5129ZM101.589 19.9687V21.8275H96.2165V19.9687H101.589ZM97.4363 17.8312H99.9107V26.149C99.9107 26.3775 99.9455 26.5556 100.015 26.6834C100.085 26.8073 100.182 26.8944 100.306 26.9448C100.433 26.9951 100.581 27.0203 100.747 27.0203C100.863 27.0203 100.979 27.0106 101.096 26.9912C101.212 26.968 101.301 26.9506 101.363 26.939L101.752 28.7803C101.628 28.819 101.454 28.8635 101.229 28.9139C101.005 28.9681 100.732 29.001 100.41 29.0126C99.8139 29.0358 99.2911 28.9565 98.8419 28.7745C98.3966 28.5925 98.05 28.3098 97.8022 27.9264C97.5544 27.543 97.4324 27.059 97.4363 26.4743V17.8312ZM103.201 28.8906V19.9687H105.6V21.5254H105.693C105.856 20.9717 106.129 20.5535 106.512 20.2708C106.895 19.9842 107.337 19.841 107.836 19.841C107.96 19.841 108.094 19.8487 108.237 19.8642C108.38 19.8797 108.506 19.901 108.615 19.9281V22.1237C108.499 22.0889 108.338 22.0579 108.133 22.0308C107.927 22.0037 107.74 21.9901 107.569 21.9901C107.205 21.9901 106.88 22.0695 106.593 22.2283C106.311 22.3831 106.086 22.6 105.92 22.8788C105.757 23.1576 105.676 23.479 105.676 23.843V28.8906H103.201ZM112.183 29.0591C111.613 29.0591 111.106 28.9603 110.661 28.7628C110.215 28.5615 109.863 28.2652 109.604 27.8741C109.348 27.4792 109.22 26.9874 109.22 26.3988C109.22 25.9031 109.311 25.4868 109.493 25.1499C109.675 24.813 109.923 24.542 110.237 24.3367C110.55 24.1315 110.907 23.9766 111.306 23.8721C111.708 23.7675 112.13 23.6939 112.572 23.6513C113.091 23.5971 113.509 23.5468 113.826 23.5003C114.144 23.45 114.374 23.3764 114.518 23.2796C114.661 23.1828 114.733 23.0395 114.733 22.8498V22.8149C114.733 22.447 114.616 22.1624 114.384 21.9611C114.156 21.7597 113.83 21.659 113.408 21.659C112.963 21.659 112.609 21.7578 112.345 21.9553C112.082 22.1489 111.908 22.3928 111.822 22.6871L109.534 22.5013C109.65 21.9591 109.879 21.4906 110.219 21.0956C110.56 20.6967 111 20.3908 111.538 20.1778C112.08 19.961 112.707 19.8526 113.42 19.8526C113.915 19.8526 114.39 19.9107 114.843 20.0268C115.3 20.143 115.705 20.3231 116.057 20.567C116.413 20.811 116.694 21.1246 116.899 21.508C117.104 21.8875 117.207 22.3425 117.207 22.873V28.8906H114.86V27.6534H114.791C114.647 27.9322 114.456 28.1781 114.216 28.3911C113.976 28.6002 113.687 28.7648 113.35 28.8848C113.013 29.001 112.624 29.0591 112.183 29.0591ZM112.891 27.3514C113.255 27.3514 113.577 27.2797 113.855 27.1365C114.134 26.9893 114.353 26.7918 114.512 26.544C114.671 26.2962 114.75 26.0154 114.75 25.7017V24.755C114.673 24.8053 114.566 24.8518 114.431 24.8944C114.299 24.9331 114.15 24.9699 113.983 25.0047C113.817 25.0357 113.65 25.0647 113.484 25.0919C113.317 25.1151 113.166 25.1364 113.031 25.1557C112.74 25.1983 112.487 25.2661 112.27 25.359C112.053 25.452 111.884 25.5778 111.764 25.7366C111.644 25.8915 111.584 26.0851 111.584 26.3175C111.584 26.6543 111.706 26.9119 111.95 27.09C112.198 27.2642 112.512 27.3514 112.891 27.3514ZM123.872 19.9687V21.8275H118.499V19.9687H123.872ZM119.719 17.8312H122.194V26.149C122.194 26.3775 122.228 26.5556 122.298 26.6834C122.368 26.8073 122.465 26.8944 122.589 26.9448C122.716 26.9951 122.864 27.0203 123.03 27.0203C123.146 27.0203 123.262 27.0106 123.379 26.9912C123.495 26.968 123.584 26.9506 123.646 26.939L124.035 28.7803C123.911 28.819 123.737 28.8635 123.512 28.9139C123.288 28.9681 123.015 29.001 122.693 29.0126C122.097 29.0358 121.574 28.9565 121.125 28.7745C120.68 28.5925 120.333 28.3098 120.085 27.9264C119.837 27.543 119.715 27.059 119.719 26.4743V17.8312ZM125.484 28.8906V19.9687H127.959V28.8906H125.484ZM126.727 18.8187C126.359 18.8187 126.044 18.6967 125.78 18.4527C125.521 18.2049 125.391 17.9087 125.391 17.564C125.391 17.2233 125.521 16.9309 125.78 16.6869C126.044 16.4391 126.359 16.3152 126.727 16.3152C127.095 16.3152 127.409 16.4391 127.668 16.6869C127.931 16.9309 128.063 17.2233 128.063 17.564C128.063 17.9087 127.931 18.2049 127.668 18.4527C127.409 18.6967 127.095 18.8187 126.727 18.8187ZM133.972 29.0649C133.07 29.0649 132.289 28.8732 131.631 28.4898C130.977 28.1026 130.471 27.5643 130.115 26.8751C129.759 26.1819 129.581 25.3784 129.581 24.4645C129.581 23.5429 129.759 22.7375 130.115 22.0482C130.471 21.355 130.977 20.8168 131.631 20.4334C132.289 20.0462 133.07 19.8526 133.972 19.8526C134.874 19.8526 135.652 20.0462 136.307 20.4334C136.965 20.8168 137.472 21.355 137.829 22.0482C138.185 22.7375 138.363 23.5429 138.363 24.4645C138.363 25.3784 138.185 26.1819 137.829 26.8751C137.472 27.5643 136.965 28.1026 136.307 28.4898C135.652 28.8732 134.874 29.0649 133.972 29.0649ZM133.983 27.1481C134.394 27.1481 134.737 27.0319 135.012 26.7996C135.286 26.5633 135.494 26.2419 135.633 25.8353C135.776 25.4287 135.848 24.966 135.848 24.4471C135.848 23.9282 135.776 23.4655 135.633 23.0589C135.494 22.6523 135.286 22.3309 135.012 22.0947C134.737 21.8584 134.394 21.7403 133.983 21.7403C133.569 21.7403 133.221 21.8584 132.938 22.0947C132.659 22.3309 132.448 22.6523 132.305 23.0589C132.165 23.4655 132.096 23.9282 132.096 24.4471C132.096 24.966 132.165 25.4287 132.305 25.8353C132.448 26.2419 132.659 26.5633 132.938 26.7996C133.221 27.0319 133.569 27.1481 133.983 27.1481ZM142.446 23.7327V28.8906H139.972V19.9687H142.33V21.5429H142.435C142.632 21.024 142.963 20.6135 143.428 20.3114C143.893 20.0055 144.456 19.8526 145.118 19.8526C145.738 19.8526 146.278 19.9881 146.739 20.2592C147.2 20.5302 147.558 20.9175 147.814 21.4209C148.069 21.9204 148.197 22.5167 148.197 23.2099V28.8906H145.722V23.6513C145.726 23.1053 145.587 22.6794 145.304 22.3735C145.022 22.0637 144.632 21.9088 144.137 21.9088C143.804 21.9088 143.509 21.9804 143.254 22.1237C143.002 22.267 142.805 22.4761 142.661 22.751C142.522 23.0221 142.45 23.3493 142.446 23.7327ZM153.979 28.8906V16.9948H161.856V19.0684H156.494V21.903H161.333V23.9766H156.494V28.8906H153.979ZM166.877 29.0649C165.975 29.0649 165.195 28.8732 164.536 28.4898C163.882 28.1026 163.376 27.5643 163.02 26.8751C162.664 26.1819 162.486 25.3784 162.486 24.4645C162.486 23.5429 162.664 22.7375 163.02 22.0482C163.376 21.355 163.882 20.8168 164.536 20.4334C165.195 20.0462 165.975 19.8526 166.877 19.8526C167.779 19.8526 168.558 20.0462 169.212 20.4334C169.87 20.8168 170.378 21.355 170.734 22.0482C171.09 22.7375 171.268 23.5429 171.268 24.4645C171.268 25.3784 171.09 26.1819 170.734 26.8751C170.378 27.5643 169.87 28.1026 169.212 28.4898C168.558 28.8732 167.779 29.0649 166.877 29.0649ZM166.889 27.1481C167.299 27.1481 167.642 27.0319 167.917 26.7996C168.192 26.5633 168.399 26.2419 168.538 25.8353C168.682 25.4287 168.753 24.966 168.753 24.4471C168.753 23.9282 168.682 23.4655 168.538 23.0589C168.399 22.6523 168.192 22.3309 167.917 22.0947C167.642 21.8584 167.299 21.7403 166.889 21.7403C166.474 21.7403 166.126 21.8584 165.843 22.0947C165.564 22.3309 165.353 22.6523 165.21 23.0589C165.071 23.4655 165.001 23.9282 165.001 24.4471C165.001 24.966 165.071 25.4287 165.21 25.8353C165.353 26.2419 165.564 26.5633 165.843 26.7996C166.126 27.0319 166.474 27.1481 166.889 27.1481ZM172.877 28.8906V19.9687H175.276V21.5254H175.369C175.532 20.9717 175.805 20.5535 176.188 20.2708C176.571 19.9842 177.013 19.841 177.512 19.841C177.636 19.841 177.77 19.8487 177.913 19.8642C178.057 19.8797 178.182 19.901 178.291 19.9281V22.1237C178.175 22.0889 178.014 22.0579 177.809 22.0308C177.603 22.0037 177.416 21.9901 177.245 21.9901C176.881 21.9901 176.556 22.0695 176.269 22.2283C175.987 22.3831 175.762 22.6 175.596 22.8788C175.433 23.1576 175.352 23.479 175.352 23.843V28.8906H172.877ZM179.57 28.8906V19.9687H181.928V21.5429H182.033C182.219 21.0201 182.529 20.6077 182.962 20.3056C183.396 20.0036 183.915 19.8526 184.519 19.8526C185.131 19.8526 185.652 20.0055 186.081 20.3114C186.511 20.6135 186.798 21.024 186.941 21.5429H187.034C187.216 21.0317 187.545 20.6232 188.022 20.3173C188.502 20.0075 189.069 19.8526 189.723 19.8526C190.556 19.8526 191.232 20.1178 191.751 20.6483C192.273 21.175 192.535 21.9223 192.535 22.8904V28.8906H190.066V23.3783C190.066 22.8827 189.934 22.5109 189.671 22.2631C189.408 22.0153 189.079 21.8914 188.684 21.8914C188.234 21.8914 187.884 22.0346 187.632 22.3212C187.381 22.6039 187.255 22.9776 187.255 23.4422V28.8906H184.856V23.3261C184.856 22.8885 184.73 22.54 184.478 22.2805C184.23 22.0211 183.903 21.8914 183.497 21.8914C183.222 21.8914 182.974 21.9611 182.753 22.1005C182.536 22.236 182.364 22.4277 182.236 22.6755C182.108 22.9195 182.045 23.206 182.045 23.5352V28.8906H179.57Z" fill="#000824"/>
<path d="M48.2924 48.8906V41.7531H50.7041C51.2641 41.7531 51.7218 41.8542 52.0773 42.0563C52.4351 42.2561 52.6999 42.5268 52.8719 42.8684C53.0438 43.2099 53.1298 43.5909 53.1298 44.0115C53.1298 44.432 53.0438 44.8142 52.8719 45.1581C52.7022 45.5019 52.4397 45.7761 52.0842 45.9806C51.7287 46.1827 51.2734 46.2838 50.7181 46.2838H48.9894V45.517H50.6902C51.0735 45.517 51.3814 45.4508 51.6137 45.3184C51.8461 45.186 52.0145 45.0071 52.1191 44.7817C52.226 44.554 52.2794 44.2972 52.2794 44.0115C52.2794 43.7257 52.226 43.4701 52.1191 43.2447C52.0145 43.0194 51.8449 42.8428 51.6102 42.715C51.3756 42.5849 51.0642 42.5198 50.6762 42.5198H49.1567V48.8906H48.2924ZM55.233 41.7531V48.8906H54.4105V41.7531H55.233ZM58.9839 49.0021C58.4681 49.0021 58.0231 48.8883 57.6491 48.6606C57.2773 48.4306 56.9904 48.11 56.7883 47.6987C56.5884 47.2852 56.4885 46.8042 56.4885 46.2559C56.4885 45.7076 56.5884 45.2243 56.7883 44.8061C56.9904 44.3855 57.2715 44.0579 57.6316 43.8233C57.9941 43.5863 58.417 43.4678 58.9002 43.4678C59.179 43.4678 59.4544 43.5143 59.7262 43.6072C59.998 43.7001 60.2455 43.8512 60.4685 44.0603C60.6916 44.267 60.8693 44.5412 61.0017 44.8827C61.1342 45.2243 61.2004 45.6448 61.2004 46.1444V46.4929H57.074V45.7819H60.364C60.364 45.4799 60.3036 45.2103 60.1827 44.9734C60.0643 44.7364 59.8946 44.5493 59.6739 44.4123C59.4555 44.2752 59.1976 44.2066 58.9002 44.2066C58.5726 44.2066 58.2892 44.288 58.0499 44.4506C57.8129 44.6109 57.6305 44.82 57.5027 45.0779C57.3749 45.3358 57.311 45.6123 57.311 45.9074V46.3813C57.311 46.7856 57.3807 47.1283 57.5201 47.4095C57.6619 47.6883 57.8582 47.9009 58.1091 48.0472C58.36 48.1913 58.6516 48.2633 58.9839 48.2633C59.1999 48.2633 59.3951 48.2331 59.5694 48.1727C59.7459 48.11 59.8981 48.017 60.0259 47.8939C60.1537 47.7684 60.2525 47.6128 60.3222 47.4269L61.1168 47.6499C61.0331 47.9194 60.8925 48.1564 60.6951 48.3609C60.4976 48.563 60.2536 48.721 59.9632 48.8349C59.6728 48.9464 59.3463 49.0021 58.9839 49.0021ZM64.0268 49.0161C63.6876 49.0161 63.3798 48.9522 63.1033 48.8244C62.8268 48.6943 62.6072 48.5073 62.4446 48.2633C62.2819 48.017 62.2006 47.7196 62.2006 47.3711C62.2006 47.0644 62.261 46.8158 62.3819 46.6253C62.5027 46.4325 62.6641 46.2814 62.8663 46.1722C63.0684 46.063 63.2915 45.9817 63.5354 45.9283C63.7817 45.8725 64.0291 45.8284 64.2778 45.7958C64.603 45.754 64.8667 45.7227 65.0689 45.7017C65.2733 45.6785 65.422 45.6402 65.515 45.5867C65.6102 45.5333 65.6579 45.4404 65.6579 45.3079V45.2801C65.6579 44.9362 65.5638 44.669 65.3756 44.4785C65.1897 44.288 64.9074 44.1927 64.5287 44.1927C64.136 44.1927 63.8282 44.2787 63.6051 44.4506C63.3821 44.6225 63.2252 44.8061 63.1346 45.0012L62.354 44.7224C62.4934 44.3972 62.6792 44.1439 62.9116 43.9627C63.1463 43.7791 63.4018 43.6513 63.6783 43.5793C63.9571 43.505 64.2313 43.4678 64.5008 43.4678C64.6727 43.4678 64.8702 43.4887 65.0933 43.5305C65.3186 43.57 65.5359 43.6525 65.745 43.778C65.9564 43.9034 66.1318 44.0928 66.2712 44.346C66.4106 44.5993 66.4803 44.9385 66.4803 45.3637V48.8906H65.6579V48.1657H65.616C65.5603 48.2819 65.4673 48.4062 65.3372 48.5386C65.2071 48.6711 65.034 48.7837 64.8179 48.8767C64.6019 48.9696 64.3382 49.0161 64.0268 49.0161ZM64.1523 48.2772C64.4776 48.2772 64.7517 48.2134 64.9748 48.0856C65.2001 47.9578 65.3698 47.7928 65.4836 47.5907C65.5998 47.3885 65.6579 47.176 65.6579 46.9529V46.2001C65.623 46.2419 65.5463 46.2803 65.4278 46.3151C65.3117 46.3477 65.1769 46.3767 65.0236 46.4023C64.8725 46.4255 64.725 46.4464 64.581 46.465C64.4392 46.4813 64.3242 46.4952 64.2359 46.5068C64.0222 46.5347 63.8224 46.58 63.6365 46.6427C63.4529 46.7031 63.3042 46.7949 63.1904 46.9181C63.0789 47.0389 63.0231 47.2038 63.0231 47.4129C63.0231 47.6987 63.1288 47.9148 63.3403 48.0612C63.554 48.2052 63.8247 48.2772 64.1523 48.2772ZM71.7734 44.7364L71.0345 44.9455C70.988 44.8223 70.9195 44.7027 70.8289 44.5865C70.7406 44.468 70.6198 44.3704 70.4664 44.2938C70.3131 44.2171 70.1168 44.1788 69.8775 44.1788C69.5499 44.1788 69.2769 44.2543 69.0585 44.4053C68.8424 44.554 68.7343 44.7433 68.7343 44.9734C68.7343 45.1778 68.8087 45.3393 68.9574 45.4578C69.1061 45.5763 69.3384 45.675 69.6544 45.754L70.449 45.9492C70.9276 46.0654 71.2843 46.2431 71.5189 46.4824C71.7536 46.7194 71.8709 47.0249 71.8709 47.399C71.8709 47.7057 71.7826 47.9798 71.6061 48.2215C71.4318 48.4631 71.1879 48.6536 70.8742 48.793C70.5605 48.9324 70.1958 49.0021 69.7799 49.0021C69.2339 49.0021 68.782 48.8837 68.4242 48.6467C68.0664 48.4097 67.8398 48.0635 67.7446 47.6081L68.5252 47.4129C68.5996 47.701 68.7401 47.9171 68.9469 48.0612C69.156 48.2052 69.429 48.2772 69.7659 48.2772C70.1493 48.2772 70.4537 48.1959 70.679 48.0333C70.9067 47.8683 71.0206 47.6708 71.0206 47.4408C71.0206 47.2549 70.9555 47.0993 70.8254 46.9738C70.6953 46.846 70.4955 46.7508 70.226 46.688L69.3338 46.4789C68.8435 46.3628 68.4834 46.1827 68.2534 45.9387C68.0257 45.6925 67.9118 45.3846 67.9118 45.0152C67.9118 44.7131 67.9967 44.4459 68.1663 44.2136C68.3382 43.9813 68.5717 43.7989 68.8668 43.6664C69.1642 43.534 69.5011 43.4678 69.8775 43.4678C70.4072 43.4678 70.8231 43.584 71.1251 43.8163C71.4295 44.0486 71.6456 44.3553 71.7734 44.7364ZM75.3534 49.0021C74.8376 49.0021 74.3927 48.8883 74.0186 48.6606C73.6469 48.4306 73.3599 48.11 73.1578 47.6987C72.958 47.2852 72.8581 46.8042 72.8581 46.2559C72.8581 45.7076 72.958 45.2243 73.1578 44.8061C73.3599 44.3855 73.6411 44.0579 74.0012 43.8233C74.3637 43.5863 74.7865 43.4678 75.2698 43.4678C75.5486 43.4678 75.8239 43.5143 76.0958 43.6072C76.3676 43.7001 76.615 43.8512 76.8381 44.0603C77.0611 44.267 77.2389 44.5412 77.3713 44.8827C77.5037 45.2243 77.57 45.6448 77.57 46.1444V46.4929H73.4436V45.7819H76.7335C76.7335 45.4799 76.6731 45.2103 76.5523 44.9734C76.4338 44.7364 76.2642 44.5493 76.0435 44.4123C75.8251 44.2752 75.5672 44.2066 75.2698 44.2066C74.9422 44.2066 74.6587 44.288 74.4194 44.4506C74.1824 44.6109 74 44.82 73.8723 45.0779C73.7445 45.3358 73.6806 45.6123 73.6806 45.9074V46.3813C73.6806 46.7856 73.7503 47.1283 73.8897 47.4095C74.0314 47.6883 74.2277 47.9009 74.4787 48.0472C74.7296 48.1913 75.0212 48.2633 75.3534 48.2633C75.5695 48.2633 75.7647 48.2331 75.9389 48.1727C76.1155 48.11 76.2677 48.017 76.3955 47.8939C76.5233 47.7684 76.622 47.6128 76.6917 47.4269L77.4863 47.6499C77.4027 47.9194 77.2621 48.1564 77.0646 48.3609C76.8671 48.563 76.6232 48.721 76.3327 48.8349C76.0423 48.9464 75.7159 49.0021 75.3534 49.0021ZM81.5813 50.898V43.5375H82.3759V44.3879H82.4735C82.5339 44.2949 82.6176 44.1764 82.7244 44.0324C82.8336 43.886 82.9893 43.7559 83.1914 43.642C83.3959 43.5259 83.6724 43.4678 84.0209 43.4678C84.4716 43.4678 84.8689 43.5805 85.2128 43.8058C85.5567 44.0312 85.825 44.3507 86.0179 44.7643C86.2107 45.1778 86.3071 45.6657 86.3071 46.228C86.3071 46.7949 86.2107 47.2863 86.0179 47.7022C85.825 48.1158 85.5578 48.4364 85.2163 48.6641C84.8747 48.8895 84.4809 49.0021 84.0348 49.0021C83.691 49.0021 83.4157 48.9452 83.2089 48.8314C83.0021 48.7152 82.8429 48.5839 82.7314 48.4376C82.6199 48.2889 82.5339 48.1657 82.4735 48.0681H82.4038V50.898H81.5813ZM82.3899 46.2141C82.3899 46.6183 82.4491 46.975 82.5676 47.284C82.6861 47.5907 82.8592 47.8312 83.0869 48.0054C83.3146 48.1773 83.5934 48.2633 83.9233 48.2633C84.2672 48.2633 84.5541 48.1727 84.7841 47.9915C85.0165 47.8079 85.1907 47.5616 85.3069 47.2526C85.4254 46.9413 85.4846 46.5951 85.4846 46.2141C85.4846 45.8377 85.4266 45.4985 85.3104 45.1964C85.1965 44.892 85.0234 44.6516 84.7911 44.475C84.5611 44.2961 84.2718 44.2066 83.9233 44.2066C83.5887 44.2066 83.3076 44.2914 83.0799 44.4611C82.8522 44.6283 82.6803 44.863 82.5641 45.165C82.448 45.4648 82.3899 45.8144 82.3899 46.2141ZM87.5618 48.8906V43.5375H88.3564V44.346H88.4121C88.5097 44.0812 88.6863 43.8663 88.9419 43.7013C89.1975 43.5363 89.4856 43.4539 89.8062 43.4539C89.8666 43.4539 89.9421 43.455 90.0327 43.4573C90.1233 43.4597 90.1919 43.4631 90.2383 43.4678V44.3042C90.2105 44.2972 90.1466 44.2868 90.0467 44.2729C89.9491 44.2566 89.8457 44.2485 89.7365 44.2485C89.4763 44.2485 89.2439 44.3031 89.0395 44.4123C88.8373 44.5191 88.677 44.6678 88.5585 44.8584C88.4423 45.0465 88.3843 45.2615 88.3843 45.5031V48.8906H87.5618ZM93.2251 49.0021C92.7418 49.0021 92.3178 48.8871 91.953 48.6571C91.5906 48.4271 91.3071 48.1053 91.1026 47.6917C90.9005 47.2782 90.7994 46.7949 90.7994 46.2419C90.7994 45.6843 90.9005 45.1976 91.1026 44.7817C91.3071 44.3658 91.5906 44.0428 91.953 43.8128C92.3178 43.5828 92.7418 43.4678 93.2251 43.4678C93.7083 43.4678 94.1312 43.5828 94.4937 43.8128C94.8584 44.0428 95.1419 44.3658 95.344 44.7817C95.5485 45.1976 95.6507 45.6843 95.6507 46.2419C95.6507 46.7949 95.5485 47.2782 95.344 47.6917C95.1419 48.1053 94.8584 48.4271 94.4937 48.6571C94.1312 48.8871 93.7083 49.0021 93.2251 49.0021ZM93.2251 48.2633C93.5922 48.2633 93.8942 48.1692 94.1312 47.981C94.3682 47.7928 94.5436 47.5454 94.6575 47.2387C94.7713 46.932 94.8282 46.5997 94.8282 46.2419C94.8282 45.8841 94.7713 45.5507 94.6575 45.2417C94.5436 44.9327 94.3682 44.6829 94.1312 44.4924C93.8942 44.3019 93.5922 44.2066 93.2251 44.2066C92.858 44.2066 92.5559 44.3019 92.3189 44.4924C92.082 44.6829 91.9065 44.9327 91.7927 45.2417C91.6788 45.5507 91.6219 45.8841 91.6219 46.2419C91.6219 46.5997 91.6788 46.932 91.7927 47.2387C91.9065 47.5454 92.082 47.7928 92.3189 47.981C92.5559 48.1692 92.858 48.2633 93.2251 48.2633ZM101.092 43.5375L99.1123 48.8906H98.2759L96.2963 43.5375H97.1885L98.6662 47.8033H98.722L100.2 43.5375H101.092ZM102.177 48.8906V43.5375H103V48.8906H102.177ZM102.596 42.6453C102.435 42.6453 102.297 42.5907 102.181 42.4815C102.067 42.3723 102.01 42.241 102.01 42.0877C102.01 41.9343 102.067 41.8031 102.181 41.6939C102.297 41.5847 102.435 41.5301 102.596 41.5301C102.756 41.5301 102.893 41.5847 103.007 41.6939C103.123 41.8031 103.181 41.9343 103.181 42.0877C103.181 42.241 103.123 42.3723 103.007 42.4815C102.893 42.5907 102.756 42.6453 102.596 42.6453ZM106.528 49.0021C106.082 49.0021 105.688 48.8895 105.346 48.6641C105.005 48.4364 104.738 48.1158 104.545 47.7022C104.352 47.2863 104.255 46.7949 104.255 46.228C104.255 45.6657 104.352 45.1778 104.545 44.7643C104.738 44.3507 105.006 44.0312 105.35 43.8058C105.694 43.5805 106.091 43.4678 106.542 43.4678C106.89 43.4678 107.166 43.5259 107.368 43.642C107.572 43.7559 107.728 43.886 107.835 44.0324C107.944 44.1764 108.029 44.2949 108.089 44.3879H108.159V41.7531H108.981V48.8906H108.187V48.0681H108.089C108.029 48.1657 107.943 48.2889 107.831 48.4376C107.72 48.5839 107.56 48.7152 107.354 48.8314C107.147 48.9452 106.872 49.0021 106.528 49.0021ZM106.639 48.2633C106.969 48.2633 107.248 48.1773 107.476 48.0054C107.703 47.8312 107.876 47.5907 107.995 47.284C108.113 46.975 108.173 46.6183 108.173 46.2141C108.173 45.8144 108.115 45.4648 107.998 45.165C107.882 44.863 107.71 44.6283 107.483 44.4611C107.255 44.2914 106.974 44.2066 106.639 44.2066C106.291 44.2066 106 44.2961 105.768 44.475C105.538 44.6516 105.365 44.892 105.249 45.1964C105.135 45.4985 105.078 45.8377 105.078 46.2141C105.078 46.5951 105.136 46.9413 105.252 47.2526C105.371 47.5616 105.545 47.8079 105.775 47.9915C106.007 48.1727 106.295 48.2633 106.639 48.2633ZM112.846 49.0021C112.33 49.0021 111.886 48.8883 111.511 48.6606C111.14 48.4306 110.853 48.11 110.651 47.6987C110.451 47.2852 110.351 46.8042 110.351 46.2559C110.351 45.7076 110.451 45.2243 110.651 44.8061C110.853 44.3855 111.134 44.0579 111.494 43.8233C111.856 43.5863 112.279 43.4678 112.763 43.4678C113.041 43.4678 113.317 43.5143 113.589 43.6072C113.86 43.7001 114.108 43.8512 114.331 44.0603C114.554 44.267 114.732 44.5412 114.864 44.8827C114.997 45.2243 115.063 45.6448 115.063 46.1444V46.4929H110.936V45.7819H114.226C114.226 45.4799 114.166 45.2103 114.045 44.9734C113.927 44.7364 113.757 44.5493 113.536 44.4123C113.318 44.2752 113.06 44.2066 112.763 44.2066C112.435 44.2066 112.152 44.288 111.912 44.4506C111.675 44.6109 111.493 44.82 111.365 45.0779C111.237 45.3358 111.173 45.6123 111.173 45.9074V46.3813C111.173 46.7856 111.243 47.1283 111.382 47.4095C111.524 47.6883 111.721 47.9009 111.971 48.0472C112.222 48.1913 112.514 48.2633 112.846 48.2633C113.062 48.2633 113.257 48.2331 113.432 48.1727C113.608 48.11 113.761 48.017 113.888 47.8939C114.016 47.7684 114.115 47.6128 114.185 47.4269L114.979 47.6499C114.895 47.9194 114.755 48.1564 114.557 48.3609C114.36 48.563 114.116 48.721 113.826 48.8349C113.535 48.9464 113.209 49.0021 112.846 49.0021ZM119.604 50.898C119.464 50.898 119.34 50.8864 119.231 50.8632C119.122 50.8423 119.046 50.8214 119.004 50.8005L119.214 50.0756C119.413 50.1267 119.59 50.1453 119.743 50.1313C119.897 50.1174 120.033 50.0488 120.151 49.9257C120.272 49.8049 120.382 49.6086 120.482 49.3367L120.635 48.9185L118.656 43.5375H119.548L121.026 47.8033H121.082L122.559 43.5375H123.451L121.179 49.6713C121.077 49.9478 120.95 50.1766 120.799 50.3579C120.648 50.5414 120.473 50.6773 120.273 50.7656C120.076 50.8539 119.852 50.898 119.604 50.898ZM126.52 49.0021C126.037 49.0021 125.613 48.8871 125.248 48.6571C124.886 48.4271 124.602 48.1053 124.398 47.6917C124.196 47.2782 124.094 46.7949 124.094 46.2419C124.094 45.6843 124.196 45.1976 124.398 44.7817C124.602 44.3658 124.886 44.0428 125.248 43.8128C125.613 43.5828 126.037 43.4678 126.52 43.4678C127.003 43.4678 127.426 43.5828 127.789 43.8128C128.153 44.0428 128.437 44.3658 128.639 44.7817C128.843 45.1976 128.946 45.6843 128.946 46.2419C128.946 46.7949 128.843 47.2782 128.639 47.6917C128.437 48.1053 128.153 48.4271 127.789 48.6571C127.426 48.8871 127.003 49.0021 126.52 49.0021ZM126.52 48.2633C126.887 48.2633 127.189 48.1692 127.426 47.981C127.663 47.7928 127.839 47.5454 127.952 47.2387C128.066 46.932 128.123 46.5997 128.123 46.2419C128.123 45.8841 128.066 45.5507 127.952 45.2417C127.839 44.9327 127.663 44.6829 127.426 44.4924C127.189 44.3019 126.887 44.2066 126.52 44.2066C126.153 44.2066 125.851 44.3019 125.614 44.4924C125.377 44.6829 125.202 44.9327 125.088 45.2417C124.974 45.5507 124.917 45.8841 124.917 46.2419C124.917 46.5997 124.974 46.932 125.088 47.2387C125.202 47.5454 125.377 47.7928 125.614 47.981C125.851 48.1692 126.153 48.2633 126.52 48.2633ZM133.575 46.702V43.5375H134.397V48.8906H133.575V47.9845H133.519C133.394 48.2563 133.198 48.4875 132.934 48.678C132.669 48.8662 132.334 48.9603 131.93 48.9603C131.595 48.9603 131.298 48.8871 131.038 48.7408C130.777 48.5921 130.573 48.369 130.424 48.0716C130.276 47.7719 130.201 47.3944 130.201 46.939V43.5375H131.024V46.8832C131.024 47.2735 131.133 47.5849 131.351 47.8172C131.572 48.0496 131.853 48.1657 132.195 48.1657C132.399 48.1657 132.607 48.1134 132.819 48.0089C133.032 47.9043 133.211 47.744 133.355 47.5279C133.502 47.3119 133.575 47.0365 133.575 46.702ZM135.904 48.8906V43.5375H136.698V44.346H136.754C136.852 44.0812 137.028 43.8663 137.284 43.7013C137.539 43.5363 137.828 43.4539 138.148 43.4539C138.209 43.4539 138.284 43.455 138.375 43.4573C138.465 43.4597 138.534 43.4631 138.58 43.4678V44.3042C138.552 44.2972 138.489 44.2868 138.389 44.2729C138.291 44.2566 138.188 44.2485 138.078 44.2485C137.818 44.2485 137.586 44.3031 137.381 44.4123C137.179 44.5191 137.019 44.6678 136.9 44.8584C136.784 45.0465 136.726 45.2615 136.726 45.5031V48.8906H135.904ZM144.476 51.0096C144.079 51.0096 143.737 50.9585 143.452 50.8562C143.166 50.7563 142.928 50.6239 142.737 50.4589C142.549 50.2963 142.399 50.122 142.288 49.9362L142.943 49.4761C143.017 49.5737 143.111 49.6852 143.225 49.8107C143.339 49.9385 143.495 50.0488 143.692 50.1418C143.892 50.237 144.153 50.2847 144.476 50.2847C144.908 50.2847 145.265 50.1801 145.546 49.971C145.827 49.7619 145.968 49.4343 145.968 48.9882V47.9009H145.898C145.838 47.9984 145.752 48.1193 145.64 48.2633C145.531 48.405 145.373 48.5317 145.166 48.6432C144.962 48.7524 144.685 48.807 144.337 48.807C143.905 48.807 143.517 48.7048 143.173 48.5003C142.831 48.2958 142.561 47.9984 142.361 47.6081C142.163 47.2178 142.065 46.7438 142.065 46.1862C142.065 45.6379 142.161 45.1604 142.354 44.7538C142.547 44.3449 142.815 44.0289 143.159 43.8058C143.503 43.5805 143.9 43.4678 144.351 43.4678C144.699 43.4678 144.976 43.5259 145.18 43.642C145.387 43.7559 145.545 43.886 145.654 44.0324C145.766 44.1764 145.852 44.2949 145.912 44.3879H145.996V43.5375H146.79V49.044C146.79 49.504 146.686 49.8781 146.477 50.1662C146.27 50.4566 145.991 50.6692 145.64 50.804C145.292 50.941 144.904 51.0096 144.476 51.0096ZM144.448 48.0681C144.778 48.0681 145.057 47.9926 145.285 47.8416C145.512 47.6906 145.686 47.4733 145.804 47.1899C145.923 46.9064 145.982 46.5672 145.982 46.1722C145.982 45.7866 145.924 45.4462 145.808 45.1511C145.691 44.856 145.519 44.6249 145.292 44.4576C145.064 44.2903 144.783 44.2066 144.448 44.2066C144.1 44.2066 143.809 44.2949 143.577 44.4715C143.347 44.6481 143.174 44.8851 143.058 45.1825C142.944 45.4799 142.887 45.8098 142.887 46.1722C142.887 46.544 142.945 46.8727 143.061 47.1585C143.18 47.442 143.354 47.665 143.584 47.8277C143.816 47.988 144.104 48.0681 144.448 48.0681ZM148.296 48.8906V43.5375H149.118V48.8906H148.296ZM148.714 42.6453C148.554 42.6453 148.416 42.5907 148.299 42.4815C148.186 42.3723 148.129 42.241 148.129 42.0877C148.129 41.9343 148.186 41.8031 148.299 41.6939C148.416 41.5847 148.554 41.5301 148.714 41.5301C148.874 41.5301 149.012 41.5847 149.125 41.6939C149.242 41.8031 149.3 41.9343 149.3 42.0877C149.3 42.241 149.242 42.3723 149.125 42.4815C149.012 42.5907 148.874 42.6453 148.714 42.6453ZM155.002 43.5375L153.023 48.8906H152.186L150.207 43.5375H151.099L152.577 47.8033H152.632L154.11 43.5375H155.002ZM158.14 49.0021C157.625 49.0021 157.18 48.8883 156.806 48.6606C156.434 48.4306 156.147 48.11 155.945 47.6987C155.745 47.2852 155.645 46.8042 155.645 46.2559C155.645 45.7076 155.745 45.2243 155.945 44.8061C156.147 44.3855 156.428 44.0579 156.788 43.8233C157.151 43.5863 157.574 43.4678 158.057 43.4678C158.336 43.4678 158.611 43.5143 158.883 43.6072C159.155 43.7001 159.402 43.8512 159.625 44.0603C159.848 44.267 160.026 44.5412 160.158 44.8827C160.291 45.2243 160.357 45.6448 160.357 46.1444V46.4929H156.231V45.7819H159.521C159.521 45.4799 159.46 45.2103 159.339 44.9734C159.221 44.7364 159.051 44.5493 158.831 44.4123C158.612 44.2752 158.354 44.2066 158.057 44.2066C157.729 44.2066 157.446 44.288 157.206 44.4506C156.969 44.6109 156.787 44.82 156.659 45.0779C156.532 45.3358 156.468 45.6123 156.468 45.9074V46.3813C156.468 46.7856 156.537 47.1283 156.677 47.4095C156.818 47.6883 157.015 47.9009 157.266 48.0472C157.517 48.1913 157.808 48.2633 158.14 48.2633C158.357 48.2633 158.552 48.2331 158.726 48.1727C158.903 48.11 159.055 48.017 159.183 47.8939C159.31 47.7684 159.409 47.6128 159.479 47.4269L160.273 47.6499C160.19 47.9194 160.049 48.1564 159.852 48.3609C159.654 48.563 159.41 48.721 159.12 48.8349C158.829 48.9464 158.503 49.0021 158.14 49.0021ZM162.431 45.6704V48.8906H161.608V43.5375H162.403V44.3739H162.472C162.598 44.1021 162.788 43.8837 163.044 43.7187C163.3 43.5514 163.63 43.4678 164.034 43.4678C164.396 43.4678 164.713 43.5421 164.985 43.6908C165.257 43.8372 165.469 44.0603 165.62 44.36C165.771 44.6574 165.846 45.0338 165.846 45.4892V48.8906H165.024V45.5449C165.024 45.1244 164.914 44.7968 164.696 44.5621C164.478 44.3251 164.178 44.2066 163.797 44.2066C163.534 44.2066 163.3 44.2636 163.093 44.3774C162.888 44.4913 162.727 44.6574 162.608 44.8758C162.49 45.0942 162.431 45.359 162.431 45.6704ZM170.932 45.6704V48.8906H170.109V43.5375H170.904V44.3739H170.974C171.099 44.1021 171.29 43.8837 171.545 43.7187C171.801 43.5514 172.131 43.4678 172.535 43.4678C172.897 43.4678 173.214 43.5421 173.486 43.6908C173.758 43.8372 173.97 44.0603 174.121 44.36C174.272 44.6574 174.347 45.0338 174.347 45.4892V48.8906H173.525V45.5449C173.525 45.1244 173.415 44.7968 173.197 44.5621C172.979 44.3251 172.679 44.2066 172.298 44.2066C172.035 44.2066 171.801 44.2636 171.594 44.3774C171.389 44.4913 171.228 44.6574 171.109 44.8758C170.991 45.0942 170.932 45.359 170.932 45.6704ZM177.425 49.0161C177.086 49.0161 176.778 48.9522 176.502 48.8244C176.225 48.6943 176.006 48.5073 175.843 48.2633C175.68 48.017 175.599 47.7196 175.599 47.3711C175.599 47.0644 175.66 46.8158 175.78 46.6253C175.901 46.4325 176.063 46.2814 176.265 46.1722C176.467 46.063 176.69 45.9817 176.934 45.9283C177.18 45.8725 177.428 45.8284 177.676 45.7958C178.002 45.754 178.265 45.7227 178.467 45.7017C178.672 45.6785 178.821 45.6402 178.913 45.5867C179.009 45.5333 179.056 45.4404 179.056 45.3079V45.2801C179.056 44.9362 178.962 44.669 178.774 44.4785C178.588 44.288 178.306 44.1927 177.927 44.1927C177.535 44.1927 177.227 44.2787 177.004 44.4506C176.781 44.6225 176.624 44.8061 176.533 45.0012L175.752 44.7224C175.892 44.3972 176.078 44.1439 176.31 43.9627C176.545 43.7791 176.8 43.6513 177.077 43.5793C177.356 43.505 177.63 43.4678 177.899 43.4678C178.071 43.4678 178.269 43.4887 178.492 43.5305C178.717 43.57 178.934 43.6525 179.144 43.778C179.355 43.9034 179.53 44.0928 179.67 44.346C179.809 44.5993 179.879 44.9385 179.879 45.3637V48.8906H179.056V48.1657H179.015C178.959 48.2819 178.866 48.4062 178.736 48.5386C178.606 48.6711 178.433 48.7837 178.216 48.8767C178 48.9696 177.737 49.0161 177.425 49.0161ZM177.551 48.2772C177.876 48.2772 178.15 48.2134 178.373 48.0856C178.599 47.9578 178.768 47.7928 178.882 47.5907C178.998 47.3885 179.056 47.176 179.056 46.9529V46.2001C179.022 46.2419 178.945 46.2803 178.826 46.3151C178.71 46.3477 178.575 46.3767 178.422 46.4023C178.271 46.4255 178.124 46.4464 177.979 46.465C177.838 46.4813 177.723 46.4952 177.634 46.5068C177.421 46.5347 177.221 46.58 177.035 46.6427C176.851 46.7031 176.703 46.7949 176.589 46.9181C176.477 47.0389 176.422 47.2038 176.422 47.4129C176.422 47.6987 176.527 47.9148 176.739 48.0612C176.953 48.2052 177.223 48.2772 177.551 48.2772ZM181.38 48.8906V43.5375H182.175V44.3739H182.244C182.356 44.0881 182.536 43.8663 182.785 43.7083C183.033 43.548 183.332 43.4678 183.68 43.4678C184.033 43.4678 184.327 43.548 184.562 43.7083C184.799 43.8663 184.984 44.0881 185.116 44.3739H185.172C185.309 44.0974 185.515 43.8779 185.789 43.7152C186.063 43.5503 186.392 43.4678 186.775 43.4678C187.254 43.4678 187.645 43.6177 187.949 43.9174C188.254 44.2148 188.406 44.6783 188.406 45.3079V48.8906H187.584V45.3079C187.584 44.913 187.476 44.6307 187.259 44.4611C187.043 44.2914 186.789 44.2066 186.496 44.2066C186.12 44.2066 185.828 44.3205 185.621 44.5482C185.415 44.7735 185.311 45.0593 185.311 45.4055V48.8906H184.475V45.2243C184.475 44.9199 184.376 44.6748 184.179 44.4889C183.981 44.3007 183.727 44.2066 183.415 44.2066C183.202 44.2066 183.002 44.2636 182.816 44.3774C182.632 44.4913 182.484 44.6492 182.37 44.8514C182.258 45.0512 182.203 45.2824 182.203 45.5449V48.8906H181.38ZM192.154 49.0021C191.638 49.0021 191.194 48.8883 190.819 48.6606C190.448 48.4306 190.161 48.11 189.959 47.6987C189.759 47.2852 189.659 46.8042 189.659 46.2559C189.659 45.7076 189.759 45.2243 189.959 44.8061C190.161 44.3855 190.442 44.0579 190.802 43.8233C191.165 43.5863 191.587 43.4678 192.071 43.4678C192.349 43.4678 192.625 43.5143 192.897 43.6072C193.168 43.7001 193.416 43.8512 193.639 44.0603C193.862 44.267 194.04 44.5412 194.172 44.8827C194.305 45.2243 194.371 45.6448 194.371 46.1444V46.4929H190.244V45.7819H193.534C193.534 45.4799 193.474 45.2103 193.353 44.9734C193.235 44.7364 193.065 44.5493 192.844 44.4123C192.626 44.2752 192.368 44.2066 192.071 44.2066C191.743 44.2066 191.46 44.288 191.22 44.4506C190.983 44.6109 190.801 44.82 190.673 45.0779C190.545 45.3358 190.481 45.6123 190.481 45.9074V46.3813C190.481 46.7856 190.551 47.1283 190.691 47.4095C190.832 47.6883 191.029 47.9009 191.28 48.0472C191.53 48.1913 191.822 48.2633 192.154 48.2633C192.37 48.2633 192.566 48.2331 192.74 48.1727C192.916 48.11 193.069 48.017 193.196 47.8939C193.324 47.7684 193.423 47.6128 193.493 47.4269L194.287 47.6499C194.204 47.9194 194.063 48.1564 193.865 48.3609C193.668 48.563 193.424 48.721 193.134 48.8349C192.843 48.9464 192.517 49.0021 192.154 49.0021ZM196.221 48.9464C196.049 48.9464 195.902 48.8848 195.779 48.7617C195.656 48.6385 195.594 48.491 195.594 48.3191C195.594 48.1471 195.656 47.9996 195.779 47.8765C195.902 47.7533 196.049 47.6917 196.221 47.6917C196.393 47.6917 196.541 47.7533 196.664 47.8765C196.787 47.9996 196.849 48.1471 196.849 48.3191C196.849 48.4329 196.82 48.5375 196.762 48.6327C196.706 48.728 196.63 48.8047 196.535 48.8627C196.442 48.9185 196.338 48.9464 196.221 48.9464Z" fill="#000824"/>
<path d="M18.9318 78.5462H19.7001V82.7469C19.7001 83.1806 19.5979 83.5678 19.3934 83.9086C19.191 84.2473 18.905 84.5147 18.5353 84.7109C18.1656 84.9051 17.7319 85.0021 17.2342 85.0021C16.7365 85.0021 16.3028 84.9051 15.9331 84.7109C15.5634 84.5147 15.2763 84.2473 15.0719 83.9086C14.8695 83.5678 14.7683 83.1806 14.7683 82.7469V78.5462H15.5365V82.6849C15.5365 82.9947 15.6047 83.2704 15.741 83.5121C15.8773 83.7516 16.0714 83.9406 16.3234 84.079C16.5774 84.2153 16.881 84.2834 17.2342 84.2834C17.5873 84.2834 17.8909 84.2153 18.145 84.079C18.399 83.9406 18.5931 83.7516 18.7274 83.5121C18.8637 83.2704 18.9318 82.9947 18.9318 82.6849V78.5462ZM24.5057 81.198L23.8489 81.3838C23.8076 81.2744 23.7467 81.168 23.6661 81.0647C23.5877 80.9594 23.4803 80.8727 23.344 80.8045C23.2077 80.7364 23.0331 80.7023 22.8204 80.7023C22.5292 80.7023 22.2866 80.7694 22.0924 80.9037C21.9004 81.0358 21.8043 81.2042 21.8043 81.4086C21.8043 81.5904 21.8704 81.7339 22.0026 81.8392C22.1348 81.9445 22.3413 82.0323 22.6222 82.1025L23.3285 82.276C23.7539 82.3793 24.0709 82.5373 24.2795 82.75C24.4881 82.9606 24.5924 83.2322 24.5924 83.5647C24.5924 83.8373 24.5139 84.081 24.357 84.2958C24.2021 84.5106 23.9852 84.68 23.7064 84.8039C23.4276 84.9278 23.1034 84.9898 22.7337 84.9898C22.2484 84.9898 21.8467 84.8844 21.5286 84.6738C21.2106 84.4631 21.0092 84.1554 20.9245 83.7506L21.6185 83.5771C21.6845 83.8332 21.8095 84.0253 21.9933 84.1533C22.1792 84.2814 22.4218 84.3454 22.7213 84.3454C23.0621 84.3454 23.3326 84.2731 23.5329 84.1285C23.7353 83.9819 23.8365 83.8064 23.8365 83.6019C23.8365 83.4367 23.7787 83.2983 23.663 83.1868C23.5474 83.0732 23.3698 82.9885 23.1302 82.9328L22.3372 82.7469C21.9014 82.6436 21.5813 82.4836 21.3768 82.2667C21.1744 82.0478 21.0732 81.7742 21.0732 81.4458C21.0732 81.1773 21.1486 80.9398 21.2994 80.7333C21.4522 80.5268 21.6598 80.3646 21.922 80.2469C22.1864 80.1292 22.4859 80.0703 22.8204 80.0703C23.2913 80.0703 23.661 80.1736 23.9295 80.3801C24.2 80.5866 24.3921 80.8593 24.5057 81.198ZM27.688 84.9898C27.2295 84.9898 26.834 84.8886 26.5015 84.6862C26.171 84.4817 25.916 84.1967 25.7363 83.8312C25.5587 83.4635 25.4699 83.036 25.4699 82.5486C25.4699 82.0612 25.5587 81.6317 25.7363 81.2599C25.916 80.8861 26.1659 80.5949 26.486 80.3863C26.8082 80.1757 27.184 80.0703 27.6136 80.0703C27.8614 80.0703 28.1062 80.1116 28.3478 80.1942C28.5894 80.2769 28.8094 80.4111 29.0077 80.597C29.2059 80.7808 29.3639 81.0245 29.4816 81.3281C29.5994 81.6317 29.6582 82.0055 29.6582 82.4495V82.7593H25.9903V82.1273H28.9147C28.9147 81.8588 28.861 81.6193 28.7536 81.4086C28.6483 81.198 28.4975 81.0317 28.3013 80.9099C28.1072 80.788 27.878 80.7271 27.6136 80.7271C27.3224 80.7271 27.0705 80.7994 26.8577 80.9439C26.6471 81.0864 26.485 81.2723 26.3714 81.5015C26.2578 81.7308 26.201 81.9766 26.201 82.2388V82.6602C26.201 83.0195 26.2629 83.3241 26.3869 83.574C26.5128 83.8219 26.6873 84.0108 26.9104 84.1409C27.1334 84.269 27.3926 84.333 27.688 84.333C27.88 84.333 28.0535 84.3062 28.2084 84.2525C28.3654 84.1967 28.5006 84.1141 28.6142 84.0046C28.7278 83.8931 28.8156 83.7547 28.8775 83.5895L29.5839 83.7878C29.5095 84.0274 29.3846 84.238 29.209 84.4197C29.0335 84.5994 28.8166 84.7399 28.5585 84.8411C28.3003 84.9402 28.0101 84.9898 27.688 84.9898ZM30.7703 84.8906V80.1323H31.4767V80.851H31.5262C31.613 80.6156 31.7699 80.4245 31.9971 80.2779C32.2243 80.1313 32.4804 80.0579 32.7654 80.0579C32.8191 80.0579 32.8862 80.059 32.9667 80.061C33.0473 80.0631 33.1082 80.0662 33.1495 80.0703V80.8138C33.1247 80.8076 33.0679 80.7983 32.9791 80.7859C32.8924 80.7715 32.8005 80.7643 32.7034 80.7643C32.4721 80.7643 32.2656 80.8128 32.0838 80.9099C31.9042 81.0049 31.7617 81.137 31.6563 81.3064C31.5531 81.4737 31.5014 81.6647 31.5014 81.8795V84.8906H30.7703ZM34.7472 82.0282V84.8906H34.0161V80.1323H34.7225V80.8758H34.7844C34.8959 80.6341 35.0653 80.44 35.2925 80.2934C35.5197 80.1447 35.8129 80.0703 36.1723 80.0703C36.4944 80.0703 36.7764 80.1364 37.018 80.2686C37.2596 80.3987 37.4476 80.597 37.5818 80.8634C37.716 81.1277 37.7832 81.4623 37.7832 81.8671V84.8906H37.0521V81.9167C37.0521 81.5429 36.955 81.2517 36.7609 81.0431C36.5667 80.8324 36.3003 80.7271 35.9616 80.7271C35.7282 80.7271 35.5197 80.7777 35.3358 80.8789C35.1541 80.9801 35.0106 81.1277 34.9052 81.3219C34.7999 81.516 34.7472 81.7514 34.7472 82.0282ZM40.5194 85.0021C40.2178 85.0021 39.9442 84.9454 39.6984 84.8318C39.4527 84.7161 39.2575 84.5499 39.1129 84.333C38.9684 84.1141 38.8961 83.8497 38.8961 83.54C38.8961 83.2673 38.9498 83.0464 39.0572 82.877C39.1646 82.7056 39.3081 82.5713 39.4878 82.4743C39.6674 82.3772 39.8657 82.3049 40.0826 82.2574C40.3015 82.2079 40.5214 82.1686 40.7424 82.1397C41.0315 82.1025 41.266 82.0747 41.4456 82.0561C41.6274 82.0354 41.7595 82.0013 41.8422 81.9538C41.9268 81.9063 41.9692 81.8237 41.9692 81.706V81.6812C41.9692 81.3756 41.8855 81.1381 41.7182 80.9687C41.553 80.7994 41.3021 80.7147 40.9655 80.7147C40.6164 80.7147 40.3428 80.7911 40.1445 80.9439C39.9463 81.0968 39.8069 81.2599 39.7263 81.4334L39.0324 81.1856C39.1563 80.8964 39.3215 80.6713 39.528 80.5102C39.7366 80.3471 39.9638 80.2335 40.2096 80.1695C40.4574 80.1034 40.7011 80.0703 40.9407 80.0703C41.0935 80.0703 41.269 80.0889 41.4673 80.1261C41.6676 80.1612 41.8607 80.2345 42.0466 80.346C42.2346 80.4576 42.3905 80.6259 42.5144 80.851C42.6383 81.0761 42.7003 81.3776 42.7003 81.7556V84.8906H41.9692V84.2463H41.932C41.8824 84.3495 41.7998 84.46 41.6842 84.5777C41.5685 84.6955 41.4146 84.7956 41.2226 84.8782C41.0305 84.9608 40.7961 85.0021 40.5194 85.0021ZM40.6309 84.3454C40.92 84.3454 41.1637 84.2886 41.362 84.175C41.5623 84.0614 41.7131 83.9148 41.8143 83.7351C41.9175 83.5554 41.9692 83.3665 41.9692 83.1682V82.4991C41.9382 82.5362 41.87 82.5703 41.7647 82.6013C41.6614 82.6302 41.5417 82.656 41.4054 82.6787C41.2711 82.6994 41.14 82.718 41.0119 82.7345C40.8859 82.749 40.7837 82.7614 40.7052 82.7717C40.5152 82.7965 40.3376 82.8367 40.1724 82.8925C40.0092 82.9462 39.8771 83.0278 39.7759 83.1372C39.6767 83.2446 39.6272 83.3913 39.6272 83.5771C39.6272 83.8312 39.7211 84.0232 39.9091 84.1533C40.0991 84.2814 40.3397 84.3454 40.6309 84.3454ZM44.0347 84.8906V80.1323H44.741V80.8758H44.803C44.9021 80.6218 45.0621 80.4245 45.2831 80.2841C45.5041 80.1416 45.7695 80.0703 46.0793 80.0703C46.3932 80.0703 46.6544 80.1416 46.863 80.2841C47.0737 80.4245 47.2379 80.6218 47.3556 80.8758H47.4052C47.527 80.63 47.7098 80.4348 47.9535 80.2903C48.1972 80.1436 48.4894 80.0703 48.8302 80.0703C49.2556 80.0703 49.6036 80.2035 49.8742 80.47C50.1447 80.7343 50.28 81.1463 50.28 81.706V84.8906H49.5489V81.706C49.5489 81.3549 49.4529 81.104 49.2608 80.9532C49.0687 80.8025 48.8426 80.7271 48.5824 80.7271C48.2478 80.7271 47.9886 80.8283 47.8048 81.0307C47.621 81.231 47.5291 81.485 47.5291 81.7927V84.8906H46.7856V81.6317C46.7856 81.3611 46.6978 81.1432 46.5223 80.978C46.3467 80.8107 46.1206 80.7271 45.8438 80.7271C45.6538 80.7271 45.4762 80.7777 45.311 80.8789C45.1478 80.9801 45.0157 81.1205 44.9145 81.3002C44.8153 81.4778 44.7658 81.6833 44.7658 81.9167V84.8906H44.0347ZM53.6118 84.9898C53.1533 84.9898 52.7578 84.8886 52.4253 84.6862C52.0948 84.4817 51.8398 84.1967 51.6601 83.8312C51.4825 83.4635 51.3937 83.036 51.3937 82.5486C51.3937 82.0612 51.4825 81.6317 51.6601 81.2599C51.8398 80.8861 52.0897 80.5949 52.4098 80.3863C52.732 80.1757 53.1078 80.0703 53.5374 80.0703C53.7852 80.0703 54.03 80.1116 54.2716 80.1942C54.5132 80.2769 54.7332 80.4111 54.9315 80.597C55.1297 80.7808 55.2877 81.0245 55.4054 81.3281C55.5231 81.6317 55.582 82.0055 55.582 82.4495V82.7593H51.9141V82.1273H54.8385C54.8385 81.8588 54.7848 81.6193 54.6774 81.4086C54.5721 81.198 54.4213 81.0317 54.2251 80.9099C54.031 80.788 53.8018 80.7271 53.5374 80.7271C53.2462 80.7271 52.9942 80.7994 52.7815 80.9439C52.5709 81.0864 52.4088 81.2723 52.2952 81.5015C52.1816 81.7308 52.1248 81.9766 52.1248 82.2388V82.6602C52.1248 83.0195 52.1867 83.3241 52.3107 83.574C52.4366 83.8219 52.6111 84.0108 52.8342 84.1409C53.0572 84.269 53.3164 84.333 53.6118 84.333C53.8038 84.333 53.9773 84.3062 54.1322 84.2525C54.2892 84.1967 54.4244 84.1141 54.538 84.0046C54.6516 83.8931 54.7394 83.7547 54.8013 83.5895L55.5077 83.7878C55.4333 84.0274 55.3084 84.238 55.1328 84.4197C54.9573 84.5994 54.7404 84.7399 54.4823 84.8411C54.2241 84.9402 53.9339 84.9898 53.6118 84.9898ZM61.0807 84.9898C60.6512 84.9898 60.2743 84.8875 59.95 84.6831C59.6278 84.4786 59.3759 84.1926 59.1941 83.825C59.0145 83.4573 58.9246 83.0278 58.9246 82.5362C58.9246 82.0406 59.0145 81.6079 59.1941 81.2382C59.3759 80.8685 59.6278 80.5815 59.95 80.377C60.2743 80.1726 60.6512 80.0703 61.0807 80.0703C61.5103 80.0703 61.8862 80.1726 62.2084 80.377C62.5326 80.5815 62.7846 80.8685 62.9642 81.2382C63.146 81.6079 63.2369 82.0406 63.2369 82.5362C63.2369 83.0278 63.146 83.4573 62.9642 83.825C62.7846 84.1926 62.5326 84.4786 62.2084 84.6831C61.8862 84.8875 61.5103 84.9898 61.0807 84.9898ZM61.0807 84.333C61.407 84.333 61.6755 84.2494 61.8862 84.0821C62.0968 83.9148 62.2528 83.6948 62.354 83.4222C62.4552 83.1496 62.5058 82.8543 62.5058 82.5362C62.5058 82.2182 62.4552 81.9218 62.354 81.6471C62.2528 81.3725 62.0968 81.1505 61.8862 80.9811C61.6755 80.8118 61.407 80.7271 61.0807 80.7271C60.7544 80.7271 60.4859 80.8118 60.2753 80.9811C60.0646 81.1505 59.9087 81.3725 59.8075 81.6471C59.7063 81.9218 59.6557 82.2182 59.6557 82.5362C59.6557 82.8543 59.7063 83.1496 59.8075 83.4222C59.9087 83.6948 60.0646 83.9148 60.2753 84.0821C60.4859 84.2494 60.7544 84.333 61.0807 84.333ZM64.3529 84.8906V80.1323H65.0592V80.851H65.1088C65.1955 80.6156 65.3524 80.4245 65.5796 80.2779C65.8068 80.1313 66.0629 80.0579 66.3479 80.0579C66.4016 80.0579 66.4687 80.059 66.5493 80.061C66.6298 80.0631 66.6907 80.0662 66.732 80.0703V80.8138C66.7073 80.8076 66.6505 80.7983 66.5617 80.7859C66.4749 80.7715 66.383 80.7643 66.2859 80.7643C66.0546 80.7643 65.8481 80.8128 65.6664 80.9099C65.4867 81.0049 65.3442 81.137 65.2389 81.3064C65.1356 81.4737 65.084 81.6647 65.084 81.8795V84.8906H64.3529ZM70.1513 84.8906V78.5462H73.9803V79.2277H70.9196V81.3714H73.782V82.053H70.9196V84.2091H74.0299V84.8906H70.1513ZM75.2659 84.8906V80.1323H75.9722V80.8758H76.0342C76.1333 80.6218 76.2934 80.4245 76.5144 80.2841C76.7353 80.1416 77.0007 80.0703 77.3105 80.0703C77.6244 80.0703 77.8857 80.1416 78.0943 80.2841C78.3049 80.4245 78.4691 80.6218 78.5868 80.8758H78.6364C78.7582 80.63 78.941 80.4348 79.1847 80.2903C79.4284 80.1436 79.7207 80.0703 80.0614 80.0703C80.4869 80.0703 80.8349 80.2035 81.1054 80.47C81.376 80.7343 81.5112 81.1463 81.5112 81.706V84.8906H80.7801V81.706C80.7801 81.3549 80.6841 81.104 80.492 80.9532C80.3 80.8025 80.0738 80.7271 79.8136 80.7271C79.479 80.7271 79.2198 80.8283 79.036 81.0307C78.8522 81.231 78.7603 81.485 78.7603 81.7927V84.8906H78.0168V81.6317C78.0168 81.3611 77.929 81.1432 77.7535 80.978C77.578 80.8107 77.3518 80.7271 77.0751 80.7271C76.8851 80.7271 76.7075 80.7777 76.5422 80.8789C76.3791 80.9801 76.2469 81.1205 76.1457 81.3002C76.0466 81.4778 75.997 81.6833 75.997 81.9167V84.8906H75.2659ZM84.2482 85.0021C83.9467 85.0021 83.673 84.9454 83.4273 84.8318C83.1815 84.7161 82.9863 84.5499 82.8418 84.333C82.6972 84.1141 82.6249 83.8497 82.6249 83.54C82.6249 83.2673 82.6786 83.0464 82.786 82.877C82.8934 82.7056 83.0369 82.5713 83.2166 82.4743C83.3963 82.3772 83.5945 82.3049 83.8114 82.2574C84.0303 82.2079 84.2503 82.1686 84.4712 82.1397C84.7604 82.1025 84.9948 82.0747 85.1745 82.0561C85.3562 82.0354 85.4884 82.0013 85.571 81.9538C85.6557 81.9063 85.698 81.8237 85.698 81.706V81.6812C85.698 81.3756 85.6144 81.1381 85.4471 80.9687C85.2819 80.7994 85.0309 80.7147 84.6943 80.7147C84.3453 80.7147 84.0716 80.7911 83.8734 80.9439C83.6751 81.0968 83.5357 81.2599 83.4551 81.4334L82.7612 81.1856C82.8851 80.8964 83.0504 80.6713 83.2569 80.5102C83.4655 80.3471 83.6926 80.2335 83.9384 80.1695C84.1862 80.1034 84.4299 80.0703 84.6695 80.0703C84.8223 80.0703 84.9979 80.0889 85.1961 80.1261C85.3965 80.1612 85.5896 80.2345 85.7755 80.346C85.9634 80.4576 86.1193 80.6259 86.2432 80.851C86.3671 81.0761 86.4291 81.3776 86.4291 81.7556V84.8906H85.698V84.2463H85.6608C85.6113 84.3495 85.5287 84.46 85.413 84.5777C85.2973 84.6955 85.1435 84.7956 84.9514 84.8782C84.7593 84.9608 84.5249 85.0021 84.2482 85.0021ZM84.3597 84.3454C84.6489 84.3454 84.8926 84.2886 85.0908 84.175C85.2912 84.0614 85.4419 83.9148 85.5431 83.7351C85.6464 83.5554 85.698 83.3665 85.698 83.1682V82.4991C85.667 82.5362 85.5989 82.5703 85.4935 82.6013C85.3903 82.6302 85.2705 82.656 85.1342 82.6787C84.9999 82.6994 84.8688 82.718 84.7408 82.7345C84.6148 82.749 84.5126 82.7614 84.4341 82.7717C84.2441 82.7965 84.0665 82.8367 83.9012 82.8925C83.7381 82.9462 83.6059 83.0278 83.5047 83.1372C83.4056 83.2446 83.356 83.3913 83.356 83.5771C83.356 83.8312 83.45 84.0232 83.6379 84.1533C83.8279 84.2814 84.0685 84.3454 84.3597 84.3454ZM87.7635 84.8906V80.1323H88.4946V84.8906H87.7635ZM88.1353 79.3392C87.9928 79.3392 87.8699 79.2907 87.7666 79.1936C87.6654 79.0966 87.6148 78.9799 87.6148 78.8436C87.6148 78.7073 87.6654 78.5906 87.7666 78.4935C87.8699 78.3964 87.9928 78.3479 88.1353 78.3479C88.2778 78.3479 88.3996 78.3964 88.5008 78.4935C88.6041 78.5906 88.6557 78.7073 88.6557 78.8436C88.6557 78.9799 88.6041 79.0966 88.5008 79.1936C88.3996 79.2907 88.2778 79.3392 88.1353 79.3392ZM90.5648 78.5462V84.8906H89.8337V78.5462H90.5648Z" fill="#111827"/>
<rect x="14.2726" y="93.7023" width="216.455" height="26.5402" rx="5.17965" stroke="#E3E5E8" stroke-width="0.545226"/>
<path d="M23.4909 109.969V103.624H27.3199V104.306H24.2592V106.45H27.1216V107.131H24.2592V109.287H27.3695V109.969H23.4909ZM29.3366 107.106V109.969H28.6055V105.21H29.3118V105.954H29.3738C29.4853 105.712 29.6547 105.518 29.8818 105.372C30.109 105.223 30.4023 105.148 30.7616 105.148C31.0838 105.148 31.3657 105.215 31.6074 105.347C31.849 105.477 32.0369 105.675 32.1712 105.942C32.3054 106.206 32.3725 106.54 32.3725 106.945V109.969H31.6414V106.995C31.6414 106.621 31.5444 106.33 31.3502 106.121C31.1561 105.911 30.8897 105.805 30.551 105.805C30.3176 105.805 30.109 105.856 29.9252 105.957C29.7435 106.058 29.5999 106.206 29.4946 106.4C29.3893 106.594 29.3366 106.83 29.3366 107.106ZM35.7779 105.21V105.83H33.312V105.21H35.7779ZM34.0307 104.07H34.7618V108.606C34.7618 108.812 34.7917 108.967 34.8516 109.07C34.9136 109.172 34.9921 109.24 35.0871 109.275C35.1841 109.308 35.2863 109.324 35.3937 109.324C35.4743 109.324 35.5404 109.32 35.592 109.312C35.6436 109.302 35.6849 109.293 35.7159 109.287L35.8646 109.944C35.8151 109.963 35.7459 109.981 35.6571 110C35.5683 110.02 35.4557 110.031 35.3194 110.031C35.1129 110.031 34.9105 109.986 34.7122 109.897C34.516 109.809 34.3529 109.673 34.2227 109.492C34.0947 109.31 34.0307 109.081 34.0307 108.804V104.07ZM38.8215 110.068C38.3631 110.068 37.9676 109.967 37.6351 109.764C37.3046 109.56 37.0496 109.275 36.8699 108.909C36.6923 108.542 36.6035 108.114 36.6035 107.627C36.6035 107.139 36.6923 106.71 36.8699 106.338C37.0496 105.964 37.2995 105.673 37.6196 105.464C37.9417 105.254 38.3176 105.148 38.7472 105.148C38.995 105.148 39.2398 105.19 39.4814 105.272C39.723 105.355 39.943 105.489 40.1412 105.675C40.3395 105.859 40.4975 106.103 40.6152 106.406C40.7329 106.71 40.7918 107.084 40.7918 107.528V107.837H37.1239V107.205H40.0483C40.0483 106.937 39.9946 106.697 39.8872 106.487C39.7819 106.276 39.6311 106.11 39.4349 105.988C39.2408 105.866 39.0115 105.805 38.7472 105.805C38.456 105.805 38.204 105.877 37.9913 106.022C37.7807 106.165 37.6185 106.35 37.5049 106.58C37.3914 106.809 37.3346 107.055 37.3346 107.317V107.738C37.3346 108.098 37.3965 108.402 37.5204 108.652C37.6464 108.9 37.8209 109.089 38.044 109.219C38.267 109.347 38.5262 109.411 38.8215 109.411C39.0136 109.411 39.1871 109.384 39.342 109.331C39.4989 109.275 39.6342 109.192 39.7478 109.083C39.8614 108.971 39.9492 108.833 40.0111 108.668L40.7174 108.866C40.6431 109.105 40.5181 109.316 40.3426 109.498C40.1671 109.678 39.9502 109.818 39.692 109.919C39.4339 110.018 39.1437 110.068 38.8215 110.068ZM41.9039 109.969V105.21H42.6102V105.929H42.6598C42.7465 105.694 42.9035 105.503 43.1307 105.356C43.3579 105.209 43.614 105.136 43.899 105.136C43.9527 105.136 44.0198 105.137 44.1003 105.139C44.1809 105.141 44.2418 105.144 44.2831 105.148V105.892C44.2583 105.886 44.2015 105.876 44.1127 105.864C44.026 105.85 43.9341 105.842 43.837 105.842C43.6057 105.842 43.3992 105.891 43.2174 105.988C43.0377 106.083 42.8952 106.215 42.7899 106.385C42.6867 106.552 42.635 106.743 42.635 106.958V109.969H41.9039ZM50.602 108.023V105.21H51.3331V109.969H50.602V109.163H50.5524C50.4409 109.405 50.2674 109.61 50.032 109.78C49.7965 109.947 49.4991 110.031 49.1398 110.031C48.8424 110.031 48.578 109.966 48.3467 109.836C48.1154 109.703 47.9337 109.505 47.8015 109.241C47.6693 108.974 47.6032 108.639 47.6032 108.234V105.21H48.3343V108.184C48.3343 108.531 48.4314 108.808 48.6255 109.015C48.8217 109.221 49.0716 109.324 49.3752 109.324C49.557 109.324 49.7418 109.278 49.9297 109.185C50.1198 109.092 50.2788 108.95 50.4068 108.757C50.5369 108.565 50.602 108.321 50.602 108.023ZM56.0426 106.276L55.3859 106.462C55.3446 106.352 55.2837 106.246 55.2031 106.143C55.1246 106.038 55.0172 105.951 54.8809 105.883C54.7446 105.814 54.5701 105.78 54.3574 105.78C54.0662 105.78 53.8235 105.848 53.6294 105.982C53.4373 106.114 53.3413 106.282 53.3413 106.487C53.3413 106.668 53.4074 106.812 53.5395 106.917C53.6717 107.023 53.8782 107.11 54.1591 107.181L54.8654 107.354C55.2909 107.457 55.6079 107.615 55.8165 107.828C56.0251 108.039 56.1294 108.31 56.1294 108.643C56.1294 108.915 56.0509 109.159 55.8939 109.374C55.739 109.589 55.5222 109.758 55.2434 109.882C54.9646 110.006 54.6403 110.068 54.2706 110.068C53.7853 110.068 53.3836 109.963 53.0656 109.752C52.7475 109.541 52.5462 109.234 52.4615 108.829L53.1554 108.655C53.2215 108.911 53.3464 109.103 53.5303 109.231C53.7161 109.36 53.9588 109.424 54.2583 109.424C54.599 109.424 54.8696 109.351 55.0699 109.207C55.2723 109.06 55.3735 108.884 55.3735 108.68C55.3735 108.515 55.3157 108.376 55.2 108.265C55.0844 108.151 54.9067 108.067 54.6672 108.011L53.8741 107.825C53.4383 107.722 53.1182 107.562 52.9138 107.345C52.7114 107.126 52.6102 106.852 52.6102 106.524C52.6102 106.255 52.6856 106.018 52.8363 105.811C52.9892 105.605 53.1967 105.443 53.459 105.325C53.7234 105.207 54.0228 105.148 54.3574 105.148C54.8283 105.148 55.1979 105.252 55.4664 105.458C55.737 105.665 55.929 105.937 56.0426 106.276ZM59.2249 110.068C58.7664 110.068 58.3709 109.967 58.0384 109.764C57.708 109.56 57.4529 109.275 57.2733 108.909C57.0956 108.542 57.0068 108.114 57.0068 107.627C57.0068 107.139 57.0956 106.71 57.2733 106.338C57.4529 105.964 57.7028 105.673 58.0229 105.464C58.3451 105.254 58.721 105.148 59.1506 105.148C59.3984 105.148 59.6431 105.19 59.8848 105.272C60.1264 105.355 60.3464 105.489 60.5446 105.675C60.7429 105.859 60.9009 106.103 61.0186 106.406C61.1363 106.71 61.1952 107.084 61.1952 107.528V107.837H57.5273V107.205H60.4517C60.4517 106.937 60.398 106.697 60.2906 106.487C60.1853 106.276 60.0345 106.11 59.8383 105.988C59.6442 105.866 59.4149 105.805 59.1506 105.805C58.8594 105.805 58.6074 105.877 58.3947 106.022C58.184 106.165 58.0219 106.35 57.9083 106.58C57.7947 106.809 57.7379 107.055 57.7379 107.317V107.738C57.7379 108.098 57.7999 108.402 57.9238 108.652C58.0498 108.9 58.2243 109.089 58.4474 109.219C58.6704 109.347 58.9296 109.411 59.2249 109.411C59.417 109.411 59.5905 109.384 59.7454 109.331C59.9023 109.275 60.0376 109.192 60.1512 109.083C60.2648 108.971 60.3525 108.833 60.4145 108.668L61.1208 108.866C61.0465 109.105 60.9215 109.316 60.746 109.498C60.5704 109.678 60.3536 109.818 60.0954 109.919C59.8373 110.018 59.5471 110.068 59.2249 110.068ZM62.3073 109.969V105.21H63.0136V105.929H63.0632C63.1499 105.694 63.3069 105.503 63.5341 105.356C63.7612 105.209 64.0173 105.136 64.3023 105.136C64.356 105.136 64.4232 105.137 64.5037 105.139C64.5842 105.141 64.6452 105.144 64.6865 105.148V105.892C64.6617 105.886 64.6049 105.876 64.5161 105.864C64.4294 105.85 64.3375 105.842 64.2404 105.842C64.0091 105.842 63.8026 105.891 63.6208 105.988C63.4411 106.083 63.2986 106.215 63.1933 106.385C63.09 106.552 63.0384 106.743 63.0384 106.958V109.969H62.3073ZM66.2842 107.106V109.969H65.5531V105.21H66.2594V105.954H66.3214C66.4329 105.712 66.6023 105.518 66.8294 105.372C67.0566 105.223 67.3499 105.148 67.7092 105.148C68.0314 105.148 68.3133 105.215 68.555 105.347C68.7966 105.477 68.9845 105.675 69.1188 105.942C69.253 106.206 69.3201 106.54 69.3201 106.945V109.969H68.589V106.995C68.589 106.621 68.492 106.33 68.2978 106.121C68.1037 105.911 67.8373 105.805 67.4986 105.805C67.2652 105.805 67.0566 105.856 66.8728 105.957C66.6911 106.058 66.5475 106.206 66.4422 106.4C66.3369 106.594 66.2842 106.83 66.2842 107.106ZM72.0563 110.08C71.7548 110.08 71.4812 110.023 71.2354 109.91C70.9896 109.794 70.7945 109.628 70.6499 109.411C70.5053 109.192 70.433 108.928 70.433 108.618C70.433 108.345 70.4867 108.124 70.5941 107.955C70.7015 107.784 70.8451 107.649 71.0247 107.552C71.2044 107.455 71.4027 107.383 71.6195 107.336C71.8384 107.286 72.0584 107.247 72.2794 107.218C72.5685 107.181 72.8029 107.153 72.9826 107.134C73.1643 107.114 73.2965 107.079 73.3791 107.032C73.4638 106.984 73.5061 106.902 73.5061 106.784V106.759C73.5061 106.454 73.4225 106.216 73.2552 106.047C73.09 105.877 72.8391 105.793 72.5024 105.793C72.1534 105.793 71.8797 105.869 71.6815 106.022C71.4832 106.175 71.3438 106.338 71.2633 106.512L70.5693 106.264C70.6933 105.975 70.8585 105.749 71.065 105.588C71.2736 105.425 71.5008 105.312 71.7465 105.248C71.9944 105.181 72.2381 105.148 72.4776 105.148C72.6305 105.148 72.806 105.167 73.0043 105.204C73.2046 105.239 73.3977 105.313 73.5836 105.424C73.7715 105.536 73.9274 105.704 74.0514 105.929C74.1753 106.154 74.2372 106.456 74.2372 106.834V109.969H73.5061V109.324H73.469C73.4194 109.428 73.3368 109.538 73.2211 109.656C73.1055 109.774 72.9516 109.874 72.7595 109.956C72.5675 110.039 72.3331 110.08 72.0563 110.08ZM72.1678 109.424C72.457 109.424 72.7007 109.367 72.8989 109.253C73.0993 109.14 73.25 108.993 73.3512 108.813C73.4545 108.634 73.5061 108.445 73.5061 108.246V107.577C73.4752 107.614 73.407 107.648 73.3017 107.679C73.1984 107.708 73.0786 107.734 72.9423 107.757C72.8081 107.778 72.6769 107.796 72.5489 107.813C72.4229 107.827 72.3207 107.839 72.2422 107.85C72.0522 107.875 71.8746 107.915 71.7094 107.971C71.5462 108.024 71.414 108.106 71.3128 108.215C71.2137 108.323 71.1641 108.469 71.1641 108.655C71.1641 108.909 71.2581 109.101 71.446 109.231C71.636 109.36 71.8766 109.424 72.1678 109.424ZM75.5716 109.969V105.21H76.278V105.954H76.3399C76.439 105.7 76.5991 105.503 76.8201 105.362C77.0411 105.22 77.3064 105.148 77.6162 105.148C77.9302 105.148 78.1914 105.22 78.4 105.362C78.6107 105.503 78.7748 105.7 78.8926 105.954H78.9421C79.064 105.708 79.2468 105.513 79.4905 105.368C79.7341 105.222 80.0264 105.148 80.3671 105.148C80.7926 105.148 81.1406 105.282 81.4111 105.548C81.6817 105.812 81.817 106.224 81.817 106.784V109.969H81.0859V106.784C81.0859 106.433 80.9898 106.182 80.7978 106.031C80.6057 105.881 80.3795 105.805 80.1193 105.805C79.7847 105.805 79.5256 105.906 79.3418 106.109C79.1579 106.309 79.066 106.563 79.066 106.871V109.969H78.3226V106.71C78.3226 106.439 78.2348 106.221 78.0592 106.056C77.8837 105.889 77.6575 105.805 77.3808 105.805C77.1908 105.805 77.0132 105.856 76.848 105.957C76.6848 106.058 76.5526 106.199 76.4514 106.378C76.3523 106.556 76.3027 106.761 76.3027 106.995V109.969H75.5716ZM85.1487 110.068C84.6902 110.068 84.2947 109.967 83.9622 109.764C83.6318 109.56 83.3767 109.275 83.1971 108.909C83.0194 108.542 82.9306 108.114 82.9306 107.627C82.9306 107.139 83.0194 106.71 83.1971 106.338C83.3767 105.964 83.6266 105.673 83.9467 105.464C84.2689 105.254 84.6448 105.148 85.0744 105.148C85.3222 105.148 85.5669 105.19 85.8086 105.272C86.0502 105.355 86.2702 105.489 86.4684 105.675C86.6667 105.859 86.8247 106.103 86.9424 106.406C87.0601 106.71 87.119 107.084 87.119 107.528V107.837H83.4511V107.205H86.3755C86.3755 106.937 86.3218 106.697 86.2144 106.487C86.1091 106.276 85.9583 106.11 85.7621 105.988C85.568 105.866 85.3387 105.805 85.0744 105.805C84.7832 105.805 84.5312 105.877 84.3185 106.022C84.1078 106.165 83.9457 106.35 83.8321 106.58C83.7185 106.809 83.6617 107.055 83.6617 107.317V107.738C83.6617 108.098 83.7237 108.402 83.8476 108.652C83.9736 108.9 84.1481 109.089 84.3712 109.219C84.5942 109.347 84.8534 109.411 85.1487 109.411C85.3408 109.411 85.5143 109.384 85.6692 109.331C85.8261 109.275 85.9614 109.192 86.075 109.083C86.1886 108.971 86.2763 108.833 86.3383 108.668L87.0446 108.866C86.9703 109.105 86.8453 109.316 86.6698 109.498C86.4942 109.678 86.2774 109.818 86.0192 109.919C85.7611 110.018 85.4709 110.068 85.1487 110.068ZM92.6177 110.068C92.1881 110.068 91.8112 109.966 91.487 109.761C91.1648 109.557 90.9128 109.271 90.7311 108.903C90.5514 108.535 90.4616 108.106 90.4616 107.614C90.4616 107.119 90.5514 106.686 90.7311 106.316C90.9128 105.947 91.1648 105.66 91.487 105.455C91.8112 105.251 92.1881 105.148 92.6177 105.148C93.0473 105.148 93.4231 105.251 93.7453 105.455C94.0696 105.66 94.3215 105.947 94.5012 106.316C94.6829 106.686 94.7738 107.119 94.7738 107.614C94.7738 108.106 94.6829 108.535 94.5012 108.903C94.3215 109.271 94.0696 109.557 93.7453 109.761C93.4231 109.966 93.0473 110.068 92.6177 110.068ZM92.6177 109.411C92.944 109.411 93.2125 109.327 93.4231 109.16C93.6338 108.993 93.7897 108.773 93.8909 108.5C93.9921 108.228 94.0427 107.932 94.0427 107.614C94.0427 107.296 93.9921 107 93.8909 106.725C93.7897 106.451 93.6338 106.229 93.4231 106.059C93.2125 105.89 92.944 105.805 92.6177 105.805C92.2914 105.805 92.0229 105.89 91.8122 106.059C91.6016 106.229 91.4457 106.451 91.3445 106.725C91.2433 107 91.1927 107.296 91.1927 107.614C91.1927 107.932 91.2433 108.228 91.3445 108.5C91.4457 108.773 91.6016 108.993 91.8122 109.16C92.0229 109.327 92.2914 109.411 92.6177 109.411ZM95.8898 109.969V105.21H96.5961V105.929H96.6457C96.7325 105.694 96.8894 105.503 97.1166 105.356C97.3438 105.209 97.5999 105.136 97.8849 105.136C97.9386 105.136 98.0057 105.137 98.0862 105.139C98.1668 105.141 98.2277 105.144 98.269 105.148V105.892C98.2442 105.886 98.1874 105.876 98.0986 105.864C98.0119 105.85 97.92 105.842 97.8229 105.842C97.5916 105.842 97.3851 105.891 97.2033 105.988C97.0237 106.083 96.8811 106.215 96.7758 106.385C96.6726 106.552 96.6209 106.743 96.6209 106.958V109.969H95.8898ZM103.584 110.068C103.126 110.068 102.73 109.967 102.398 109.764C102.067 109.56 101.812 109.275 101.633 108.909C101.455 108.542 101.366 108.114 101.366 107.627C101.366 107.139 101.455 106.71 101.633 106.338C101.812 105.964 102.062 105.673 102.382 105.464C102.704 105.254 103.08 105.148 103.51 105.148C103.758 105.148 104.002 105.19 104.244 105.272C104.486 105.355 104.706 105.489 104.904 105.675C105.102 105.859 105.26 106.103 105.378 106.406C105.496 106.71 105.554 107.084 105.554 107.528V107.837H101.887V107.205H104.811C104.811 106.937 104.757 106.697 104.65 106.487C104.545 106.276 104.394 106.11 104.198 105.988C104.003 105.866 103.774 105.805 103.51 105.805C103.219 105.805 102.967 105.877 102.754 106.022C102.543 106.165 102.381 106.35 102.268 106.58C102.154 106.809 102.097 107.055 102.097 107.317V107.738C102.097 108.098 102.159 108.402 102.283 108.652C102.409 108.9 102.584 109.089 102.807 109.219C103.03 109.347 103.289 109.411 103.584 109.411C103.776 109.411 103.95 109.384 104.105 109.331C104.262 109.275 104.397 109.192 104.51 109.083C104.624 108.971 104.712 108.833 104.774 108.668L105.48 108.866C105.406 109.105 105.281 109.316 105.105 109.498C104.93 109.678 104.713 109.818 104.455 109.919C104.197 110.018 103.906 110.068 103.584 110.068ZM106.667 109.969V105.21H107.373V105.954H107.435C107.534 105.7 107.694 105.503 107.915 105.362C108.136 105.22 108.401 105.148 108.711 105.148C109.025 105.148 109.286 105.22 109.495 105.362C109.706 105.503 109.87 105.7 109.987 105.954H110.037C110.159 105.708 110.342 105.513 110.585 105.368C110.829 105.222 111.121 105.148 111.462 105.148C111.888 105.148 112.236 105.282 112.506 105.548C112.777 105.812 112.912 106.224 112.912 106.784V109.969H112.181V106.784C112.181 106.433 112.085 106.182 111.893 106.031C111.701 105.881 111.474 105.805 111.214 105.805C110.88 105.805 110.62 105.906 110.437 106.109C110.253 106.309 110.161 106.563 110.161 106.871V109.969H109.417V106.71C109.417 106.439 109.33 106.221 109.154 106.056C108.979 105.889 108.752 105.805 108.476 105.805C108.286 105.805 108.108 105.856 107.943 105.957C107.78 106.058 107.648 106.199 107.546 106.378C107.447 106.556 107.398 106.761 107.398 106.995V109.969H106.667ZM115.649 110.08C115.347 110.08 115.074 110.023 114.828 109.91C114.582 109.794 114.387 109.628 114.242 109.411C114.098 109.192 114.026 108.928 114.026 108.618C114.026 108.345 114.079 108.124 114.187 107.955C114.294 107.784 114.438 107.649 114.617 107.552C114.797 107.455 114.995 107.383 115.212 107.336C115.431 107.286 115.651 107.247 115.872 107.218C116.161 107.181 116.395 107.153 116.575 107.134C116.757 107.114 116.889 107.079 116.972 107.032C117.056 106.984 117.099 106.902 117.099 106.784V106.759C117.099 106.454 117.015 106.216 116.848 106.047C116.683 105.877 116.432 105.793 116.095 105.793C115.746 105.793 115.472 105.869 115.274 106.022C115.076 106.175 114.936 106.338 114.856 106.512L114.162 106.264C114.286 105.975 114.451 105.749 114.658 105.588C114.866 105.425 115.093 105.312 115.339 105.248C115.587 105.181 115.831 105.148 116.07 105.148C116.223 105.148 116.399 105.167 116.597 105.204C116.797 105.239 116.99 105.313 117.176 105.424C117.364 105.536 117.52 105.704 117.644 105.929C117.768 106.154 117.83 106.456 117.83 106.834V109.969H117.099V109.324H117.061C117.012 109.428 116.929 109.538 116.814 109.656C116.698 109.774 116.544 109.874 116.352 109.956C116.16 110.039 115.926 110.08 115.649 110.08ZM115.76 109.424C116.05 109.424 116.293 109.367 116.491 109.253C116.692 109.14 116.843 108.993 116.944 108.813C117.047 108.634 117.099 108.445 117.099 108.246V107.577C117.068 107.614 117 107.648 116.894 107.679C116.791 107.708 116.671 107.734 116.535 107.757C116.401 107.778 116.269 107.796 116.141 107.813C116.015 107.827 115.913 107.839 115.835 107.85C115.645 107.875 115.467 107.915 115.302 107.971C115.139 108.024 115.007 108.106 114.905 108.215C114.806 108.323 114.757 108.469 114.757 108.655C114.757 108.909 114.851 109.101 115.039 109.231C115.229 109.36 115.469 109.424 115.76 109.424ZM119.164 109.969V105.21H119.895V109.969H119.164ZM119.536 104.417C119.393 104.417 119.271 104.369 119.167 104.272C119.066 104.175 119.015 104.058 119.015 103.922C119.015 103.785 119.066 103.669 119.167 103.572C119.271 103.475 119.393 103.426 119.536 103.426C119.678 103.426 119.8 103.475 119.901 103.572C120.005 103.669 120.056 103.785 120.056 103.922C120.056 104.058 120.005 104.175 119.901 104.272C119.8 104.369 119.678 104.417 119.536 104.417ZM121.965 103.624V109.969H121.234V103.624H121.965Z" fill="#9CA3AF"/>
<path d="M14.7683 146.516V140.171H16.912C17.4097 140.171 17.8166 140.261 18.1326 140.441C18.4506 140.618 18.6861 140.859 18.8389 141.162C18.9917 141.466 19.0681 141.805 19.0681 142.179C19.0681 142.552 18.9917 142.892 18.8389 143.198C18.6881 143.503 18.4547 143.747 18.1388 143.929C17.8228 144.109 17.418 144.198 16.9244 144.198H15.3878V143.517H16.8996C17.2404 143.517 17.514 143.458 17.7205 143.34C17.9271 143.223 18.0768 143.064 18.1697 142.863C18.2647 142.661 18.3122 142.433 18.3122 142.179C18.3122 141.925 18.2647 141.697 18.1697 141.497C18.0768 141.297 17.926 141.14 17.7175 141.026C17.5089 140.911 17.2321 140.853 16.8872 140.853H15.5365V146.516H14.7683ZM21.6068 146.627C21.3053 146.627 21.0317 146.57 20.7859 146.457C20.5401 146.341 20.345 146.175 20.2004 145.958C20.0558 145.739 19.9835 145.475 19.9835 145.165C19.9835 144.892 20.0372 144.671 20.1446 144.502C20.252 144.331 20.3956 144.196 20.5752 144.099C20.7549 144.002 20.9532 143.93 21.17 143.882C21.3889 143.833 21.6089 143.794 21.8299 143.765C22.119 143.728 22.3534 143.7 22.5331 143.681C22.7148 143.66 22.847 143.626 22.9296 143.579C23.0143 143.531 23.0566 143.449 23.0566 143.331V143.306C23.0566 143.001 22.973 142.763 22.8057 142.594C22.6405 142.424 22.3896 142.34 22.0529 142.34C21.7039 142.34 21.4303 142.416 21.232 142.569C21.0337 142.722 20.8943 142.885 20.8138 143.058L20.1199 142.811C20.2438 142.521 20.409 142.296 20.6155 142.135C20.8241 141.972 21.0513 141.858 21.297 141.794C21.5449 141.728 21.7886 141.695 22.0281 141.695C22.181 141.695 22.3565 141.714 22.5548 141.751C22.7551 141.786 22.9482 141.86 23.1341 141.971C23.322 142.083 23.478 142.251 23.6019 142.476C23.7258 142.701 23.7877 143.003 23.7877 143.381V146.516H23.0566V145.871H23.0195C22.9699 145.975 22.8873 146.085 22.7716 146.203C22.656 146.32 22.5021 146.421 22.3101 146.503C22.118 146.586 21.8836 146.627 21.6068 146.627ZM21.7184 145.97C22.0075 145.97 22.2512 145.914 22.4495 145.8C22.6498 145.686 22.8005 145.54 22.9017 145.36C23.005 145.18 23.0566 144.991 23.0566 144.793V144.124C23.0257 144.161 22.9575 144.195 22.8522 144.226C22.7489 144.255 22.6291 144.281 22.4928 144.304C22.3586 144.324 22.2274 144.343 22.0994 144.36C21.9734 144.374 21.8712 144.386 21.7927 144.397C21.6027 144.421 21.4251 144.462 21.2599 144.517C21.0967 144.571 20.9645 144.653 20.8633 144.762C20.7642 144.87 20.7146 145.016 20.7146 145.202C20.7146 145.456 20.8086 145.648 20.9966 145.778C21.1866 145.906 21.4272 145.97 21.7184 145.97ZM28.4926 142.823L27.8359 143.009C27.7946 142.899 27.7337 142.793 27.6531 142.69C27.5746 142.584 27.4672 142.498 27.3309 142.43C27.1946 142.361 27.0201 142.327 26.8074 142.327C26.5162 142.327 26.2735 142.394 26.0794 142.529C25.8873 142.661 25.7913 142.829 25.7913 143.034C25.7913 143.215 25.8574 143.359 25.9896 143.464C26.1217 143.57 26.3283 143.657 26.6091 143.728L27.3154 143.901C27.7409 144.004 28.0579 144.162 28.2665 144.375C28.4751 144.586 28.5794 144.857 28.5794 145.19C28.5794 145.462 28.5009 145.706 28.3439 145.921C28.189 146.136 27.9722 146.305 27.6934 146.429C27.4146 146.553 27.0903 146.615 26.7207 146.615C26.2353 146.615 25.8336 146.509 25.5156 146.299C25.1975 146.088 24.9962 145.78 24.9115 145.376L25.6054 145.202C25.6715 145.458 25.7965 145.65 25.9803 145.778C26.1661 145.906 26.4088 145.97 26.7083 145.97C27.049 145.97 27.3196 145.898 27.5199 145.754C27.7223 145.607 27.8235 145.431 27.8235 145.227C27.8235 145.062 27.7657 144.923 27.65 144.812C27.5344 144.698 27.3567 144.614 27.1172 144.558L26.3241 144.372C25.8884 144.269 25.5682 144.109 25.3638 143.892C25.1614 143.673 25.0602 143.399 25.0602 143.071C25.0602 142.802 25.1356 142.565 25.2863 142.358C25.4392 142.152 25.6467 141.99 25.909 141.872C26.1734 141.754 26.4728 141.695 26.8074 141.695C27.2783 141.695 27.6479 141.799 27.9164 142.005C28.187 142.212 28.379 142.484 28.4926 142.823ZM33.0504 142.823L32.3936 143.009C32.3523 142.899 32.2914 142.793 32.2109 142.69C32.1324 142.584 32.025 142.498 31.8887 142.43C31.7524 142.361 31.5779 142.327 31.3651 142.327C31.0739 142.327 30.8313 142.394 30.6371 142.529C30.4451 142.661 30.349 142.829 30.349 143.034C30.349 143.215 30.4151 143.359 30.5473 143.464C30.6795 143.57 30.886 143.657 31.1669 143.728L31.8732 143.901C32.2986 144.004 32.6157 144.162 32.8242 144.375C33.0328 144.586 33.1371 144.857 33.1371 145.19C33.1371 145.462 33.0586 145.706 32.9017 145.921C32.7468 146.136 32.5299 146.305 32.2511 146.429C31.9723 146.553 31.6481 146.615 31.2784 146.615C30.7931 146.615 30.3914 146.509 30.0733 146.299C29.7553 146.088 29.5539 145.78 29.4692 145.376L30.1632 145.202C30.2293 145.458 30.3542 145.65 30.538 145.778C30.7239 145.906 30.9665 145.97 31.266 145.97C31.6068 145.97 31.8773 145.898 32.0777 145.754C32.28 145.607 32.3812 145.431 32.3812 145.227C32.3812 145.062 32.3234 144.923 32.2078 144.812C32.0921 144.698 31.9145 144.614 31.6749 144.558L30.8819 144.372C30.4461 144.269 30.126 144.109 29.9215 143.892C29.7191 143.673 29.6179 143.399 29.6179 143.071C29.6179 142.802 29.6933 142.565 29.8441 142.358C29.9969 142.152 30.2045 141.99 30.4668 141.872C30.7311 141.754 31.0306 141.695 31.3651 141.695C31.836 141.695 32.2057 141.799 32.4742 142.005C32.7447 142.212 32.9368 142.484 33.0504 142.823ZM35.3157 146.516L33.8659 141.757H34.6342L35.6627 145.4H35.7122L36.7283 141.757H37.509L38.5127 145.388H38.5623L39.5908 141.757H40.359L38.9092 146.516H38.1905L37.1496 142.86H37.0753L36.0344 146.516H35.3157ZM43.0968 146.615C42.6672 146.615 42.2903 146.513 41.9661 146.308C41.6439 146.104 41.3919 145.818 41.2102 145.45C41.0305 145.082 40.9407 144.653 40.9407 144.161C40.9407 143.666 41.0305 143.233 41.2102 142.863C41.3919 142.494 41.6439 142.206 41.9661 142.002C42.2903 141.798 42.6672 141.695 43.0968 141.695C43.5264 141.695 43.9022 141.798 44.2244 142.002C44.5487 142.206 44.8006 142.494 44.9803 142.863C45.162 143.233 45.2529 143.666 45.2529 144.161C45.2529 144.653 45.162 145.082 44.9803 145.45C44.8006 145.818 44.5487 146.104 44.2244 146.308C43.9022 146.513 43.5264 146.615 43.0968 146.615ZM43.0968 145.958C43.4231 145.958 43.6916 145.874 43.9022 145.707C44.1129 145.54 44.2688 145.32 44.37 145.047C44.4712 144.775 44.5218 144.479 44.5218 144.161C44.5218 143.843 44.4712 143.547 44.37 143.272C44.2688 142.997 44.1129 142.775 43.9022 142.606C43.6916 142.437 43.4231 142.352 43.0968 142.352C42.7705 142.352 42.502 142.437 42.2913 142.606C42.0807 142.775 41.9248 142.997 41.8236 143.272C41.7224 143.547 41.6718 143.843 41.6718 144.161C41.6718 144.479 41.7224 144.775 41.8236 145.047C41.9248 145.32 42.0807 145.54 42.2913 145.707C42.502 145.874 42.7705 145.958 43.0968 145.958ZM46.3689 146.516V141.757H47.0752V142.476H47.1248C47.2116 142.241 47.3685 142.05 47.5957 141.903C47.8229 141.756 48.079 141.683 48.364 141.683C48.4177 141.683 48.4848 141.684 48.5653 141.686C48.6459 141.688 48.7068 141.691 48.7481 141.695V142.439C48.7233 142.433 48.6665 142.423 48.5777 142.411C48.491 142.396 48.3991 142.389 48.302 142.389C48.0707 142.389 47.8642 142.438 47.6824 142.535C47.5028 142.63 47.3602 142.762 47.2549 142.931C47.1517 143.099 47.1 143.29 47.1 143.504V146.516H46.3689ZM51.2667 146.615C50.8701 146.615 50.5201 146.515 50.2165 146.314C49.9129 146.112 49.6754 145.827 49.504 145.459C49.3326 145.09 49.2469 144.653 49.2469 144.149C49.2469 143.649 49.3326 143.215 49.504 142.848C49.6754 142.48 49.9139 142.196 50.2196 141.996C50.5252 141.795 50.8784 141.695 51.2791 141.695C51.5888 141.695 51.8336 141.747 52.0133 141.85C52.195 141.951 52.3334 142.067 52.4284 142.197C52.5254 142.325 52.6008 142.431 52.6545 142.513H52.7165V140.171H53.4476V146.516H52.7413V145.785H52.6545C52.6008 145.871 52.5244 145.981 52.4253 146.113C52.3261 146.243 52.1847 146.36 52.0009 146.463C51.8171 146.564 51.5723 146.615 51.2667 146.615ZM51.3658 145.958C51.6591 145.958 51.9069 145.882 52.1093 145.729C52.3117 145.574 52.4655 145.36 52.5709 145.088C52.6762 144.813 52.7289 144.496 52.7289 144.136C52.7289 143.781 52.6772 143.47 52.574 143.204C52.4707 142.936 52.3179 142.727 52.1155 142.578C51.9131 142.427 51.6632 142.352 51.3658 142.352C51.056 142.352 50.7979 142.432 50.5913 142.591C50.3869 142.748 50.233 142.961 50.1297 143.232C50.0285 143.5 49.978 143.802 49.978 144.136C49.978 144.475 50.0296 144.783 50.1328 145.06C50.2382 145.334 50.3931 145.553 50.5975 145.716C50.8041 145.877 51.0601 145.958 51.3658 145.958Z" fill="#111827"/>
<rect x="14.2726" y="155.327" width="216.455" height="26.5402" rx="5.17965" stroke="#E3E5E8" stroke-width="0.545226"/>
<path d="M23.4909 171.594V165.249H27.3199V165.931H24.2592V168.075H27.1216V168.756H24.2592V170.912H27.3695V171.594H23.4909ZM29.3366 168.731V171.594H28.6055V166.835H29.3118V167.579H29.3738C29.4853 167.337 29.6547 167.143 29.8818 166.997C30.109 166.848 30.4023 166.773 30.7616 166.773C31.0838 166.773 31.3657 166.84 31.6074 166.972C31.849 167.102 32.0369 167.3 32.1712 167.567C32.3054 167.831 32.3725 168.165 32.3725 168.57V171.594H31.6414V168.62C31.6414 168.246 31.5444 167.955 31.3502 167.746C31.1561 167.536 30.8897 167.43 30.551 167.43C30.3176 167.43 30.109 167.481 29.9252 167.582C29.7435 167.683 29.5999 167.831 29.4946 168.025C29.3893 168.219 29.3366 168.455 29.3366 168.731ZM35.7779 166.835V167.455H33.312V166.835H35.7779ZM34.0307 165.695H34.7618V170.231C34.7618 170.437 34.7917 170.592 34.8516 170.695C34.9136 170.797 34.9921 170.865 35.0871 170.9C35.1841 170.933 35.2863 170.949 35.3937 170.949C35.4743 170.949 35.5404 170.945 35.592 170.937C35.6436 170.927 35.6849 170.918 35.7159 170.912L35.8646 171.569C35.8151 171.588 35.7459 171.606 35.6571 171.625C35.5683 171.645 35.4557 171.656 35.3194 171.656C35.1129 171.656 34.9105 171.611 34.7122 171.522C34.516 171.434 34.3529 171.298 34.2227 171.117C34.0947 170.935 34.0307 170.706 34.0307 170.429V165.695ZM38.8215 171.693C38.3631 171.693 37.9676 171.592 37.6351 171.389C37.3046 171.185 37.0496 170.9 36.8699 170.534C36.6923 170.167 36.6035 169.739 36.6035 169.252C36.6035 168.764 36.6923 168.335 36.8699 167.963C37.0496 167.589 37.2995 167.298 37.6196 167.089C37.9417 166.879 38.3176 166.773 38.7472 166.773C38.995 166.773 39.2398 166.815 39.4814 166.897C39.723 166.98 39.943 167.114 40.1412 167.3C40.3395 167.484 40.4975 167.728 40.6152 168.031C40.7329 168.335 40.7918 168.709 40.7918 169.153V169.462H37.1239V168.83H40.0483C40.0483 168.562 39.9946 168.322 39.8872 168.112C39.7819 167.901 39.6311 167.735 39.4349 167.613C39.2408 167.491 39.0115 167.43 38.7472 167.43C38.456 167.43 38.204 167.502 37.9913 167.647C37.7807 167.79 37.6185 167.975 37.5049 168.205C37.3914 168.434 37.3346 168.68 37.3346 168.942V169.363C37.3346 169.723 37.3965 170.027 37.5204 170.277C37.6464 170.525 37.8209 170.714 38.044 170.844C38.267 170.972 38.5262 171.036 38.8215 171.036C39.0136 171.036 39.1871 171.009 39.342 170.956C39.4989 170.9 39.6342 170.817 39.7478 170.708C39.8614 170.596 39.9492 170.458 40.0111 170.293L40.7174 170.491C40.6431 170.73 40.5181 170.941 40.3426 171.123C40.1671 171.303 39.9502 171.443 39.692 171.544C39.4339 171.643 39.1437 171.693 38.8215 171.693ZM41.9039 171.594V166.835H42.6102V167.554H42.6598C42.7465 167.319 42.9035 167.128 43.1307 166.981C43.3579 166.834 43.614 166.761 43.899 166.761C43.9527 166.761 44.0198 166.762 44.1003 166.764C44.1809 166.766 44.2418 166.769 44.2831 166.773V167.517C44.2583 167.511 44.2015 167.501 44.1127 167.489C44.026 167.475 43.9341 167.467 43.837 167.467C43.6057 167.467 43.3992 167.516 43.2174 167.613C43.0377 167.708 42.8952 167.84 42.7899 168.01C42.6867 168.177 42.635 168.368 42.635 168.583V171.594H41.9039ZM47.6032 173.378V166.835H48.3096V167.591H48.3963C48.45 167.509 48.5243 167.403 48.6193 167.275C48.7164 167.145 48.8548 167.03 49.0345 166.928C49.2162 166.825 49.462 166.773 49.7718 166.773C50.1724 166.773 50.5256 166.874 50.8312 167.074C51.1369 167.274 51.3754 167.558 51.5468 167.926C51.7183 168.293 51.804 168.727 51.804 169.227C51.804 169.731 51.7183 170.168 51.5468 170.537C51.3754 170.905 51.1379 171.19 50.8343 171.392C50.5307 171.593 50.1807 171.693 49.7841 171.693C49.4785 171.693 49.2338 171.642 49.05 171.541C48.8661 171.438 48.7247 171.321 48.6255 171.191C48.5264 171.059 48.45 170.949 48.3963 170.863H48.3343V173.378H47.6032ZM48.322 169.215C48.322 169.574 48.3746 169.891 48.4799 170.166C48.5853 170.438 48.7391 170.652 48.9415 170.807C49.1439 170.96 49.3918 171.036 49.685 171.036C49.9907 171.036 50.2457 170.956 50.4502 170.794C50.6567 170.631 50.8116 170.412 50.9149 170.138C51.0202 169.861 51.0729 169.553 51.0729 169.215C51.0729 168.88 51.0212 168.578 50.918 168.31C50.8168 168.039 50.6629 167.826 50.4564 167.669C50.2519 167.51 49.9948 167.43 49.685 167.43C49.3876 167.43 49.1377 167.506 48.9353 167.656C48.7329 167.805 48.5801 168.014 48.4768 168.282C48.3736 168.549 48.322 168.859 48.322 169.215ZM54.3194 171.705C54.0179 171.705 53.7443 171.648 53.4985 171.535C53.2527 171.419 53.0576 171.253 52.913 171.036C52.7684 170.817 52.6962 170.553 52.6962 170.243C52.6962 169.97 52.7498 169.749 52.8572 169.58C52.9646 169.409 53.1082 169.274 53.2878 169.177C53.4675 169.08 53.6658 169.008 53.8826 168.961C54.1016 168.911 54.3215 168.872 54.5425 168.843C54.8316 168.806 55.066 168.778 55.2457 168.759C55.4274 168.739 55.5596 168.704 55.6422 168.657C55.7269 168.609 55.7692 168.527 55.7692 168.409V168.384C55.7692 168.079 55.6856 167.841 55.5183 167.672C55.3531 167.502 55.1022 167.418 54.7655 167.418C54.4165 167.418 54.1429 167.494 53.9446 167.647C53.7463 167.8 53.6069 167.963 53.5264 168.137L52.8325 167.889C52.9564 167.6 53.1216 167.374 53.3281 167.213C53.5367 167.05 53.7639 166.937 54.0097 166.873C54.2575 166.806 54.5012 166.773 54.7407 166.773C54.8936 166.773 55.0691 166.792 55.2674 166.829C55.4677 166.864 55.6608 166.938 55.8467 167.049C56.0346 167.161 56.1906 167.329 56.3145 167.554C56.4384 167.779 56.5003 168.081 56.5003 168.459V171.594H55.7692V170.949H55.7321C55.6825 171.053 55.5999 171.163 55.4842 171.281C55.3686 171.399 55.2147 171.499 55.0227 171.581C54.8306 171.664 54.5962 171.705 54.3194 171.705ZM54.431 171.049C54.7201 171.049 54.9638 170.992 55.1621 170.878C55.3624 170.765 55.5132 170.618 55.6144 170.438C55.7176 170.259 55.7692 170.07 55.7692 169.871V169.202C55.7383 169.239 55.6701 169.273 55.5648 169.304C55.4615 169.333 55.3417 169.359 55.2054 169.382C55.0712 169.403 54.94 169.421 54.812 169.438C54.686 169.452 54.5838 169.464 54.5053 169.475C54.3153 169.5 54.1377 169.54 53.9725 169.596C53.8093 169.649 53.6771 169.731 53.5759 169.84C53.4768 169.948 53.4272 170.094 53.4272 170.28C53.4272 170.534 53.5212 170.726 53.7092 170.856C53.8992 170.985 54.1398 171.049 54.431 171.049ZM61.2052 167.901L60.5485 168.087C60.5072 167.977 60.4463 167.871 60.3657 167.768C60.2872 167.663 60.1798 167.576 60.0435 167.508C59.9072 167.439 59.7327 167.405 59.52 167.405C59.2288 167.405 58.9861 167.473 58.792 167.607C58.5999 167.739 58.5039 167.907 58.5039 168.112C58.5039 168.293 58.57 168.437 58.7022 168.542C58.8343 168.648 59.0409 168.735 59.3217 168.806L60.028 168.979C60.4535 169.082 60.7705 169.24 60.9791 169.453C61.1877 169.664 61.292 169.935 61.292 170.268C61.292 170.54 61.2135 170.784 61.0565 170.999C60.9016 171.214 60.6848 171.383 60.406 171.507C60.1272 171.631 59.8029 171.693 59.4333 171.693C58.9479 171.693 58.5462 171.588 58.2282 171.377C57.9101 171.166 57.7088 170.859 57.6241 170.454L58.318 170.28C58.3841 170.536 58.5091 170.728 58.6929 170.856C58.8787 170.985 59.1214 171.049 59.4209 171.049C59.7616 171.049 60.0322 170.976 60.2325 170.832C60.4349 170.685 60.5361 170.509 60.5361 170.305C60.5361 170.14 60.4783 170.001 60.3626 169.89C60.247 169.776 60.0694 169.692 59.8298 169.636L59.0367 169.45C58.601 169.347 58.2808 169.187 58.0764 168.97C57.874 168.751 57.7728 168.477 57.7728 168.149C57.7728 167.88 57.8482 167.643 57.9989 167.436C58.1518 167.23 58.3593 167.068 58.6216 166.95C58.886 166.832 59.1854 166.773 59.52 166.773C59.9909 166.773 60.3606 166.877 60.629 167.083C60.8996 167.29 61.0917 167.562 61.2052 167.901ZM65.763 167.901L65.1062 168.087C65.0649 167.977 65.004 167.871 64.9235 167.768C64.845 167.663 64.7376 167.576 64.6013 167.508C64.465 167.439 64.2905 167.405 64.0777 167.405C63.7865 167.405 63.5439 167.473 63.3497 167.607C63.1577 167.739 63.0616 167.907 63.0616 168.112C63.0616 168.293 63.1277 168.437 63.2599 168.542C63.3921 168.648 63.5986 168.735 63.8795 168.806L64.5858 168.979C65.0112 169.082 65.3283 169.24 65.5368 169.453C65.7454 169.664 65.8497 169.935 65.8497 170.268C65.8497 170.54 65.7712 170.784 65.6143 170.999C65.4594 171.214 65.2425 171.383 64.9637 171.507C64.6849 171.631 64.3607 171.693 63.991 171.693C63.5057 171.693 63.104 171.588 62.7859 171.377C62.4679 171.166 62.2665 170.859 62.1818 170.454L62.8758 170.28C62.9419 170.536 63.0668 170.728 63.2506 170.856C63.4365 170.985 63.6792 171.049 63.9786 171.049C64.3194 171.049 64.5899 170.976 64.7903 170.832C64.9926 170.685 65.0938 170.509 65.0938 170.305C65.0938 170.14 65.036 170.001 64.9204 169.89C64.8047 169.776 64.6271 169.692 64.3875 169.636L63.5945 169.45C63.1587 169.347 62.8386 169.187 62.6341 168.97C62.4317 168.751 62.3305 168.477 62.3305 168.149C62.3305 167.88 62.4059 167.643 62.5567 167.436C62.7095 167.23 62.9171 167.068 63.1794 166.95C63.4437 166.832 63.7432 166.773 64.0777 166.773C64.5486 166.773 64.9183 166.877 65.1868 167.083C65.4573 167.29 65.6494 167.562 65.763 167.901ZM68.0283 171.594L66.5785 166.835H67.3468L68.3753 170.479H68.4248L69.4409 166.835H70.2216L71.2253 170.466H71.2749L72.3034 166.835H73.0717L71.6218 171.594H70.9031L69.8623 167.938H69.7879L68.747 171.594H68.0283ZM75.8094 171.693C75.3798 171.693 75.0029 171.591 74.6787 171.386C74.3565 171.182 74.1045 170.896 73.9228 170.528C73.7431 170.16 73.6533 169.731 73.6533 169.239C73.6533 168.744 73.7431 168.311 73.9228 167.941C74.1045 167.572 74.3565 167.285 74.6787 167.08C75.0029 166.876 75.3798 166.773 75.8094 166.773C76.239 166.773 76.6148 166.876 76.937 167.08C77.2613 167.285 77.5132 167.572 77.6929 167.941C77.8746 168.311 77.9655 168.744 77.9655 169.239C77.9655 169.731 77.8746 170.16 77.6929 170.528C77.5132 170.896 77.2613 171.182 76.937 171.386C76.6148 171.591 76.239 171.693 75.8094 171.693ZM75.8094 171.036C76.1357 171.036 76.4042 170.952 76.6148 170.785C76.8255 170.618 76.9814 170.398 77.0826 170.125C77.1838 169.853 77.2344 169.557 77.2344 169.239C77.2344 168.921 77.1838 168.625 77.0826 168.35C76.9814 168.076 76.8255 167.854 76.6148 167.684C76.4042 167.515 76.1357 167.43 75.8094 167.43C75.4831 167.43 75.2146 167.515 75.004 167.684C74.7933 167.854 74.6374 168.076 74.5362 168.35C74.435 168.625 74.3844 168.921 74.3844 169.239C74.3844 169.557 74.435 169.853 74.5362 170.125C74.6374 170.398 74.7933 170.618 75.004 170.785C75.2146 170.952 75.4831 171.036 75.8094 171.036ZM79.0815 171.594V166.835H79.7878V167.554H79.8374C79.9242 167.319 80.0811 167.128 80.3083 166.981C80.5355 166.834 80.7916 166.761 81.0766 166.761C81.1303 166.761 81.1974 166.762 81.2779 166.764C81.3585 166.766 81.4194 166.769 81.4607 166.773V167.517C81.4359 167.511 81.3791 167.501 81.2903 167.489C81.2036 167.475 81.1117 167.467 81.0146 167.467C80.7833 167.467 80.5768 167.516 80.395 167.613C80.2154 167.708 80.0729 167.84 79.9675 168.01C79.8643 168.177 79.8126 168.368 79.8126 168.583V171.594H79.0815ZM83.9793 171.693C83.5827 171.693 83.2327 171.593 82.9291 171.392C82.6255 171.19 82.388 170.905 82.2166 170.537C82.0452 170.168 81.9595 169.731 81.9595 169.227C81.9595 168.727 82.0452 168.293 82.2166 167.926C82.388 167.558 82.6265 167.274 82.9322 167.074C83.2378 166.874 83.591 166.773 83.9917 166.773C84.3015 166.773 84.5462 166.825 84.7259 166.928C84.9076 167.03 85.046 167.145 85.141 167.275C85.238 167.403 85.3134 167.509 85.3671 167.591H85.4291V165.249H86.1602V171.594H85.4539V170.863H85.3671C85.3134 170.949 85.237 171.059 85.1379 171.191C85.0387 171.321 84.8973 171.438 84.7135 171.541C84.5297 171.642 84.2849 171.693 83.9793 171.693ZM84.0784 171.036C84.3717 171.036 84.6195 170.96 84.8219 170.807C85.0243 170.652 85.1781 170.438 85.2835 170.166C85.3888 169.891 85.4415 169.574 85.4415 169.215C85.4415 168.859 85.3898 168.549 85.2866 168.282C85.1833 168.014 85.0305 167.805 84.8281 167.656C84.6257 167.506 84.3758 167.43 84.0784 167.43C83.7686 167.43 83.5105 167.51 83.3039 167.669C83.0995 167.826 82.9456 168.039 82.8424 168.31C82.7412 168.578 82.6906 168.88 82.6906 169.215C82.6906 169.553 82.7422 169.861 82.8454 170.138C82.9508 170.412 83.1057 170.631 83.3101 170.794C83.5167 170.956 83.7727 171.036 84.0784 171.036Z" fill="#9CA3AF"/>
<g filter="url(#filter0_d_5555_73558)">
<rect x="93.5547" y="204.141" width="57.8945" height="27.0854" rx="5.45226" fill="#3B82F6"/>
<path d="M111.697 220.68V214.335H112.654V219.856H115.529V220.68H111.697ZM118.551 220.776C118.105 220.776 117.716 220.673 117.383 220.469C117.051 220.265 116.793 219.979 116.609 219.611C116.425 219.243 116.333 218.814 116.333 218.322C116.333 217.829 116.425 217.397 116.609 217.027C116.793 216.658 117.051 216.371 117.383 216.166C117.716 215.962 118.105 215.859 118.551 215.859C118.997 215.859 119.386 215.962 119.719 216.166C120.051 216.371 120.31 216.658 120.493 217.027C120.677 217.397 120.769 217.829 120.769 218.322C120.769 218.814 120.677 219.243 120.493 219.611C120.31 219.979 120.051 220.265 119.719 220.469C119.386 220.673 118.997 220.776 118.551 220.776ZM118.554 219.998C118.843 219.998 119.083 219.922 119.273 219.769C119.463 219.616 119.603 219.413 119.694 219.159C119.787 218.905 119.834 218.625 119.834 218.319C119.834 218.016 119.787 217.737 119.694 217.483C119.603 217.227 119.463 217.021 119.273 216.866C119.083 216.711 118.843 216.634 118.554 216.634C118.263 216.634 118.021 216.711 117.829 216.866C117.639 217.021 117.498 217.227 117.405 217.483C117.314 217.737 117.269 218.016 117.269 218.319C117.269 218.625 117.314 218.905 117.405 219.159C117.498 219.413 117.639 219.616 117.829 219.769C118.021 219.922 118.263 219.998 118.554 219.998ZM123.798 222.563C123.42 222.563 123.095 222.514 122.822 222.414C122.552 222.315 122.331 222.184 122.159 222.021C121.988 221.858 121.86 221.679 121.775 221.485L122.571 221.157C122.627 221.248 122.701 221.344 122.794 221.445C122.889 221.548 123.017 221.636 123.179 221.708C123.342 221.78 123.551 221.817 123.807 221.817C124.158 221.817 124.449 221.731 124.678 221.559C124.907 221.39 125.022 221.12 125.022 220.748V219.812H124.963C124.907 219.913 124.827 220.026 124.721 220.15C124.618 220.274 124.476 220.381 124.294 220.472C124.112 220.563 123.876 220.608 123.584 220.608C123.208 220.608 122.87 220.521 122.568 220.345C122.269 220.168 122.031 219.906 121.856 219.561C121.682 219.214 121.596 218.788 121.596 218.282C121.596 217.776 121.681 217.342 121.853 216.981C122.026 216.619 122.264 216.343 122.565 216.151C122.867 215.956 123.208 215.859 123.591 215.859C123.886 215.859 124.124 215.909 124.306 216.008C124.488 216.105 124.629 216.219 124.731 216.349C124.834 216.479 124.913 216.594 124.969 216.693H125.037V215.921H125.945V220.785C125.945 221.194 125.85 221.53 125.66 221.792C125.47 222.054 125.213 222.248 124.889 222.374C124.566 222.5 124.203 222.563 123.798 222.563ZM123.789 219.84C124.055 219.84 124.28 219.778 124.464 219.654C124.65 219.528 124.79 219.349 124.885 219.115C124.983 218.88 125.031 218.598 125.031 218.27C125.031 217.949 124.984 217.668 124.889 217.424C124.794 217.18 124.654 216.99 124.47 216.854C124.287 216.715 124.059 216.646 123.789 216.646C123.51 216.646 123.278 216.719 123.092 216.863C122.906 217.006 122.765 217.2 122.67 217.446C122.578 217.691 122.531 217.966 122.531 218.27C122.531 218.581 122.579 218.855 122.674 219.09C122.769 219.326 122.909 219.51 123.095 219.642C123.283 219.774 123.514 219.84 123.789 219.84ZM127.187 220.68V215.921H128.113V220.68H127.187ZM127.655 215.187C127.494 215.187 127.355 215.133 127.24 215.026C127.126 214.917 127.069 214.786 127.069 214.636C127.069 214.483 127.126 214.353 127.24 214.245C127.355 214.136 127.494 214.081 127.655 214.081C127.816 214.081 127.953 214.136 128.067 214.245C128.183 214.353 128.24 214.483 128.24 214.636C128.24 214.786 128.183 214.917 128.067 215.026C127.953 215.133 127.816 215.187 127.655 215.187ZM130.286 217.854V220.68H129.36V215.921H130.249V216.696H130.308C130.417 216.444 130.588 216.241 130.822 216.089C131.057 215.936 131.354 215.859 131.711 215.859C132.035 215.859 132.319 215.928 132.563 216.064C132.806 216.198 132.995 216.398 133.13 216.665C133.264 216.931 133.331 217.261 133.331 217.653V220.68H132.405V217.765C132.405 217.42 132.315 217.15 132.135 216.956C131.956 216.76 131.709 216.662 131.395 216.662C131.18 216.662 130.989 216.708 130.822 216.801C130.657 216.894 130.525 217.03 130.428 217.21C130.333 217.388 130.286 217.602 130.286 217.854Z" fill="white"/>
</g>
<defs>
<filter id="filter0_d_5555_73558" x="91.5547" y="203.141" width="61.8945" height="31.0859" filterUnits="userSpaceOnUse" color-interpolation-filters="sRGB">
<feFlood flood-opacity="0" result="BackgroundImageFix"/>
<feColorMatrix in="SourceAlpha" type="matrix" values="0 0 0 0 0 0 0 0 0 0 0 0 0 0 0 0 0 0 127 0" result="hardAlpha"/>
<feOffset dy="1"/>
<feGaussianBlur stdDeviation="1"/>
<feColorMatrix type="matrix" values="0 0 0 0 0 0 0 0 0 0 0 0 0 0 0 0 0 0 0.05 0"/>
<feBlend mode="normal" in2="BackgroundImageFix" result="effect1_dropShadow_5555_73558"/>
<feBlend mode="normal" in="SourceGraphic" in2="effect1_dropShadow_5555_73558" result="shape"/>
</filter>
</defs>
</svg>
