<svg width="246" height="249" viewBox="0 0 246 249" fill="none" xmlns="http://www.w3.org/2000/svg">
<g filter="url(#filter0_dd_2414_59055)">
<path d="M3 10C3 5.58172 6.58172 2 11 2H235C239.418 2 243 5.58172 243 10V237C243 241.418 239.418 245 235 245H11C6.58173 245 3 241.418 3 237V10Z" fill="white"/>
<path d="M3.5 10C3.5 5.85786 6.85786 2.5 11 2.5H235C239.142 2.5 242.5 5.85786 242.5 10V237C242.5 241.142 239.142 244.5 235 244.5H11C6.85787 244.5 3.5 241.142 3.5 237V10Z" stroke="#E2E8F0"/>
</g>
<path d="M47.6289 35V30.0679H49.3208C50.7837 30.0679 51.6484 30.9805 51.6484 32.5288V32.5356C51.6484 34.0874 50.7871 35 49.3208 35H47.6289ZM48.2441 34.4463H49.2798C50.3804 34.4463 51.0195 33.7422 51.0195 32.5425V32.5356C51.0195 31.3325 50.3735 30.6216 49.2798 30.6216H48.2441V34.4463ZM54.1538 35.0649C53.1045 35.0649 52.4551 34.3403 52.4551 33.1611V33.1543C52.4551 31.9717 53.1045 31.2505 54.1538 31.2505C55.2031 31.2505 55.8525 31.9717 55.8525 33.1543V33.1611C55.8525 34.3403 55.2031 35.0649 54.1538 35.0649ZM54.1538 34.5386C54.8511 34.5386 55.2441 34.0293 55.2441 33.1611V33.1543C55.2441 32.2827 54.8511 31.7769 54.1538 31.7769C53.4565 31.7769 53.0635 32.2827 53.0635 33.1543V33.1611C53.0635 34.0293 53.4565 34.5386 54.1538 34.5386ZM57.3496 35L56.3174 31.3154H56.9121L57.6367 34.2617H57.6914L58.5151 31.3154H59.0791L59.9028 34.2617H59.9575L60.6821 31.3154H61.2734L60.2412 35H59.6431L58.8193 32.1494H58.7646L57.9443 35H57.3496ZM62.0596 35V31.3154H62.6543V31.8691H62.709C62.8936 31.4795 63.2388 31.2505 63.7822 31.2505C64.6094 31.2505 65.0708 31.7393 65.0708 32.6143V35H64.4761V32.7578C64.4761 32.0947 64.2026 31.7769 63.6147 31.7769C63.0269 31.7769 62.6543 32.1733 62.6543 32.8193V35H62.0596ZM66.1816 35V29.8525H66.7764V35H66.1816ZM69.4321 35.0649C68.3828 35.0649 67.7334 34.3403 67.7334 33.1611V33.1543C67.7334 31.9717 68.3828 31.2505 69.4321 31.2505C70.4814 31.2505 71.1309 31.9717 71.1309 33.1543V33.1611C71.1309 34.3403 70.4814 35.0649 69.4321 35.0649ZM69.4321 34.5386C70.1294 34.5386 70.5225 34.0293 70.5225 33.1611V33.1543C70.5225 32.2827 70.1294 31.7769 69.4321 31.7769C68.7349 31.7769 68.3418 32.2827 68.3418 33.1543V33.1611C68.3418 34.0293 68.7349 34.5386 69.4321 34.5386ZM73.0654 35.0649C72.3647 35.0649 71.835 34.6411 71.835 33.9712V33.9644C71.835 33.3081 72.3203 32.9287 73.1782 32.8774L74.2344 32.8125V32.4775C74.2344 32.0229 73.9575 31.7769 73.4072 31.7769C72.9663 31.7769 72.6758 31.9409 72.5801 32.228L72.5767 32.2383H71.9819L71.9854 32.2178C72.0811 31.6401 72.6416 31.2505 73.4277 31.2505C74.3267 31.2505 74.8291 31.7119 74.8291 32.4775V35H74.2344V34.4565H74.1797C73.9473 34.8496 73.561 35.0649 73.0654 35.0649ZM72.4434 33.9575C72.4434 34.3301 72.7612 34.5488 73.1885 34.5488C73.7935 34.5488 74.2344 34.1523 74.2344 33.626V33.291L73.25 33.3525C72.6895 33.3867 72.4434 33.585 72.4434 33.9507V33.9575ZM77.2764 35.0649C76.3433 35.0649 75.7314 34.3096 75.7314 33.1611V33.1543C75.7314 31.999 76.3398 31.2505 77.2764 31.2505C77.7822 31.2505 78.2231 31.5034 78.4248 31.8965H78.4795V29.8525H79.0742V35H78.4795V34.4121H78.4248C78.1992 34.8223 77.7891 35.0649 77.2764 35.0649ZM77.4131 34.5386C78.083 34.5386 78.4932 34.0122 78.4932 33.1611V33.1543C78.4932 32.3032 78.083 31.7769 77.4131 31.7769C76.7397 31.7769 76.3398 32.2964 76.3398 33.1543V33.1611C76.3398 34.019 76.7397 34.5386 77.4131 34.5386ZM82.2598 35V30.0679H82.8579L85.5342 33.9062H85.5889V30.0679H86.1973V35H85.5991L82.9229 31.1753H82.8682V35H82.2598ZM88.3916 35.0649C87.6909 35.0649 87.1611 34.6411 87.1611 33.9712V33.9644C87.1611 33.3081 87.6465 32.9287 88.5044 32.8774L89.5605 32.8125V32.4775C89.5605 32.0229 89.2837 31.7769 88.7334 31.7769C88.2925 31.7769 88.002 31.9409 87.9062 32.228L87.9028 32.2383H87.3081L87.3115 32.2178C87.4072 31.6401 87.9678 31.2505 88.7539 31.2505C89.6528 31.2505 90.1553 31.7119 90.1553 32.4775V35H89.5605V34.4565H89.5059C89.2734 34.8496 88.8872 35.0649 88.3916 35.0649ZM87.7695 33.9575C87.7695 34.3301 88.0874 34.5488 88.5146 34.5488C89.1196 34.5488 89.5605 34.1523 89.5605 33.626V33.291L88.5762 33.3525C88.0156 33.3867 87.7695 33.585 87.7695 33.9507V33.9575ZM91.2422 35V31.3154H91.8369V31.876H91.8916C92.0557 31.4795 92.4043 31.2505 92.8862 31.2505C93.3853 31.2505 93.7339 31.5137 93.9048 31.8965H93.9595C94.1577 31.5068 94.5781 31.2505 95.0874 31.2505C95.8394 31.2505 96.2598 31.6812 96.2598 32.4536V35H95.665V32.5903C95.665 32.0469 95.4155 31.7769 94.896 31.7769C94.3833 31.7769 94.0449 32.1631 94.0449 32.6313V35H93.4502V32.498C93.4502 32.0605 93.1494 31.7769 92.6846 31.7769C92.2026 31.7769 91.8369 32.1973 91.8369 32.7168V35H91.2422ZM98.8369 35.0649C97.7842 35.0649 97.1484 34.3267 97.1484 33.1714V33.168C97.1484 32.0298 97.7979 31.2505 98.7993 31.2505C99.8008 31.2505 100.409 31.9956 100.409 33.0962V33.3286H97.7568C97.7739 34.0908 98.1943 34.5352 98.8506 34.5352C99.3496 34.5352 99.6572 34.2993 99.7563 34.0771L99.77 34.0464H100.365L100.358 34.0737C100.231 34.5728 99.7051 35.0649 98.8369 35.0649ZM98.7959 31.7803C98.249 31.7803 97.832 32.1528 97.7671 32.8535H99.8042C99.7427 32.1255 99.3394 31.7803 98.7959 31.7803Z" fill="black"/>
<rect x="47.25" y="42" width="152.5" height="12.5" rx="3.25" fill="white" stroke="#D4DBE3" stroke-width="0.5"/>
<path d="M47.6289 68.25V63.3179H49.3208C50.7837 63.3179 51.6484 64.2305 51.6484 65.7788V65.7856C51.6484 67.3374 50.7871 68.25 49.3208 68.25H47.6289ZM48.2441 67.6963H49.2798C50.3804 67.6963 51.0195 66.9922 51.0195 65.7925V65.7856C51.0195 64.5825 50.3735 63.8716 49.2798 63.8716H48.2441V67.6963ZM54.1538 68.3149C53.1045 68.3149 52.4551 67.5903 52.4551 66.4111V66.4043C52.4551 65.2217 53.1045 64.5005 54.1538 64.5005C55.2031 64.5005 55.8525 65.2217 55.8525 66.4043V66.4111C55.8525 67.5903 55.2031 68.3149 54.1538 68.3149ZM54.1538 67.7886C54.8511 67.7886 55.2441 67.2793 55.2441 66.4111V66.4043C55.2441 65.5327 54.8511 65.0269 54.1538 65.0269C53.4565 65.0269 53.0635 65.5327 53.0635 66.4043V66.4111C53.0635 67.2793 53.4565 67.7886 54.1538 67.7886ZM57.3496 68.25L56.3174 64.5654H56.9121L57.6367 67.5117H57.6914L58.5151 64.5654H59.0791L59.9028 67.5117H59.9575L60.6821 64.5654H61.2734L60.2412 68.25H59.6431L58.8193 65.3994H58.7646L57.9443 68.25H57.3496ZM62.0596 68.25V64.5654H62.6543V65.1191H62.709C62.8936 64.7295 63.2388 64.5005 63.7822 64.5005C64.6094 64.5005 65.0708 64.9893 65.0708 65.8643V68.25H64.4761V66.0078C64.4761 65.3447 64.2026 65.0269 63.6147 65.0269C63.0269 65.0269 62.6543 65.4233 62.6543 66.0693V68.25H62.0596ZM66.1816 68.25V63.1025H66.7764V68.25H66.1816ZM69.4321 68.3149C68.3828 68.3149 67.7334 67.5903 67.7334 66.4111V66.4043C67.7334 65.2217 68.3828 64.5005 69.4321 64.5005C70.4814 64.5005 71.1309 65.2217 71.1309 66.4043V66.4111C71.1309 67.5903 70.4814 68.3149 69.4321 68.3149ZM69.4321 67.7886C70.1294 67.7886 70.5225 67.2793 70.5225 66.4111V66.4043C70.5225 65.5327 70.1294 65.0269 69.4321 65.0269C68.7349 65.0269 68.3418 65.5327 68.3418 66.4043V66.4111C68.3418 67.2793 68.7349 67.7886 69.4321 67.7886ZM73.0654 68.3149C72.3647 68.3149 71.835 67.8911 71.835 67.2212V67.2144C71.835 66.5581 72.3203 66.1787 73.1782 66.1274L74.2344 66.0625V65.7275C74.2344 65.2729 73.9575 65.0269 73.4072 65.0269C72.9663 65.0269 72.6758 65.1909 72.5801 65.478L72.5767 65.4883H71.9819L71.9854 65.4678C72.0811 64.8901 72.6416 64.5005 73.4277 64.5005C74.3267 64.5005 74.8291 64.9619 74.8291 65.7275V68.25H74.2344V67.7065H74.1797C73.9473 68.0996 73.561 68.3149 73.0654 68.3149ZM72.4434 67.2075C72.4434 67.5801 72.7612 67.7988 73.1885 67.7988C73.7935 67.7988 74.2344 67.4023 74.2344 66.876V66.541L73.25 66.6025C72.6895 66.6367 72.4434 66.835 72.4434 67.2007V67.2075ZM77.2764 68.3149C76.3433 68.3149 75.7314 67.5596 75.7314 66.4111V66.4043C75.7314 65.249 76.3398 64.5005 77.2764 64.5005C77.7822 64.5005 78.2231 64.7534 78.4248 65.1465H78.4795V63.1025H79.0742V68.25H78.4795V67.6621H78.4248C78.1992 68.0723 77.7891 68.3149 77.2764 68.3149ZM77.4131 67.7886C78.083 67.7886 78.4932 67.2622 78.4932 66.4111V66.4043C78.4932 65.5532 78.083 65.0269 77.4131 65.0269C76.7397 65.0269 76.3398 65.5464 76.3398 66.4043V66.4111C76.3398 67.269 76.7397 67.7886 77.4131 67.7886ZM84.2456 68.3662C82.9058 68.3662 82.0684 67.375 82.0684 65.7891V65.7822C82.0684 64.1929 82.9023 63.2017 84.2422 63.2017C85.2812 63.2017 86.0913 63.8545 86.2383 64.8013L86.2349 64.8081H85.6162L85.6128 64.8013C85.4487 64.1689 84.9224 63.769 84.2422 63.769C83.2954 63.769 82.7007 64.5483 82.7007 65.7822V65.7891C82.7007 67.0229 83.2954 67.7988 84.2456 67.7988C84.9326 67.7988 85.4556 67.4468 85.6094 66.8794L85.6162 66.8726H86.2383V66.8794C86.0742 67.7817 85.2949 68.3662 84.2456 68.3662ZM88.207 68.3149C87.5063 68.3149 86.9766 67.8911 86.9766 67.2212V67.2144C86.9766 66.5581 87.4619 66.1787 88.3198 66.1274L89.376 66.0625V65.7275C89.376 65.2729 89.0991 65.0269 88.5488 65.0269C88.1079 65.0269 87.8174 65.1909 87.7217 65.478L87.7183 65.4883H87.1235L87.127 65.4678C87.2227 64.8901 87.7832 64.5005 88.5693 64.5005C89.4683 64.5005 89.9707 64.9619 89.9707 65.7275V68.25H89.376V67.7065H89.3213C89.0889 68.0996 88.7026 68.3149 88.207 68.3149ZM87.585 67.2075C87.585 67.5801 87.9028 67.7988 88.3301 67.7988C88.9351 67.7988 89.376 67.4023 89.376 66.876V66.541L88.3916 66.6025C87.8311 66.6367 87.585 66.835 87.585 67.2007V67.2075ZM92.3667 68.2773C91.6079 68.2773 91.29 67.9971 91.29 67.293V65.0576H90.709V64.5654H91.29V63.6118H91.9053V64.5654H92.7119V65.0576H91.9053V67.1426C91.9053 67.5767 92.0557 67.751 92.4385 67.751C92.5444 67.751 92.6025 67.7476 92.7119 67.7373V68.2432C92.5957 68.2637 92.4829 68.2773 92.3667 68.2773ZM95.0498 68.3149C93.9971 68.3149 93.3613 67.5767 93.3613 66.4214V66.418C93.3613 65.2798 94.0107 64.5005 95.0122 64.5005C96.0137 64.5005 96.6221 65.2456 96.6221 66.3462V66.5786H93.9697C93.9868 67.3408 94.4072 67.7852 95.0635 67.7852C95.5625 67.7852 95.8701 67.5493 95.9692 67.3271L95.9829 67.2964H96.5776L96.5708 67.3237C96.4443 67.8228 95.918 68.3149 95.0498 68.3149ZM95.0088 65.0303C94.4619 65.0303 94.0449 65.4028 93.98 66.1035H96.0171C95.9556 65.3755 95.5522 65.0303 95.0088 65.0303ZM99.0625 69.5488C98.1738 69.5488 97.6064 69.1489 97.5142 68.5439L97.521 68.5405H98.1362L98.1396 68.5439C98.2046 68.8242 98.5327 69.0225 99.0625 69.0225C99.7222 69.0225 100.115 68.7114 100.115 68.168V67.4229H100.061C99.8281 67.8296 99.4111 68.0586 98.9053 68.0586C97.9517 68.0586 97.3604 67.3203 97.3604 66.2881V66.2812C97.3604 65.249 97.9551 64.5005 98.9189 64.5005C99.4385 64.5005 99.8418 64.7568 100.067 65.1738H100.108V64.5654H100.703V68.1987C100.703 69.0225 100.067 69.5488 99.0625 69.5488ZM99.0352 67.5322C99.7188 67.5322 100.129 67.0195 100.129 66.2881V66.2812C100.129 65.5498 99.7153 65.0269 99.0352 65.0269C98.3516 65.0269 97.9688 65.5498 97.9688 66.2812V66.2881C97.9688 67.0195 98.3516 67.5322 99.0352 67.5322ZM103.325 68.3149C102.275 68.3149 101.626 67.5903 101.626 66.4111V66.4043C101.626 65.2217 102.275 64.5005 103.325 64.5005C104.374 64.5005 105.023 65.2217 105.023 66.4043V66.4111C105.023 67.5903 104.374 68.3149 103.325 68.3149ZM103.325 67.7886C104.022 67.7886 104.415 67.2793 104.415 66.4111V66.4043C104.415 65.5327 104.022 65.0269 103.325 65.0269C102.627 65.0269 102.234 65.5327 102.234 66.4043V66.4111C102.234 67.2793 102.627 67.7886 103.325 67.7886ZM105.946 68.25V64.5654H106.541V65.1123H106.596C106.736 64.7261 107.081 64.5005 107.58 64.5005C107.693 64.5005 107.819 64.5142 107.877 64.5244V65.1021C107.754 65.0815 107.642 65.0679 107.512 65.0679C106.944 65.0679 106.541 65.4268 106.541 65.9668V68.25H105.946ZM108.961 69.542C108.882 69.542 108.78 69.5352 108.698 69.5215V69.0327C108.77 69.0464 108.862 69.0498 108.944 69.0498C109.282 69.0498 109.487 68.896 109.621 68.4722L109.689 68.2534L108.325 64.5654H108.961L109.973 67.5972H110.027L111.036 64.5654H111.661L110.222 68.4756C109.918 69.3027 109.614 69.542 108.961 69.542Z" fill="black"/>
<rect x="47.75" y="75.75" width="152.5" height="12.5" rx="3.25" fill="white" stroke="#D4DBE3" stroke-width="0.5"/>
<path d="M190 81L192 83L194 81" stroke="#979AA9" stroke-width="0.878788"/>
<path d="M47.6289 102V97.0679H49.3208C50.7837 97.0679 51.6484 97.9805 51.6484 99.5288V99.5356C51.6484 101.087 50.7871 102 49.3208 102H47.6289ZM48.2441 101.446H49.2798C50.3804 101.446 51.0195 100.742 51.0195 99.5425V99.5356C51.0195 98.3325 50.3735 97.6216 49.2798 97.6216H48.2441V101.446ZM54.1538 102.065C53.1045 102.065 52.4551 101.34 52.4551 100.161V100.154C52.4551 98.9717 53.1045 98.2505 54.1538 98.2505C55.2031 98.2505 55.8525 98.9717 55.8525 100.154V100.161C55.8525 101.34 55.2031 102.065 54.1538 102.065ZM54.1538 101.539C54.8511 101.539 55.2441 101.029 55.2441 100.161V100.154C55.2441 99.2827 54.8511 98.7769 54.1538 98.7769C53.4565 98.7769 53.0635 99.2827 53.0635 100.154V100.161C53.0635 101.029 53.4565 101.539 54.1538 101.539ZM57.3496 102L56.3174 98.3154H56.9121L57.6367 101.262H57.6914L58.5151 98.3154H59.0791L59.9028 101.262H59.9575L60.6821 98.3154H61.2734L60.2412 102H59.6431L58.8193 99.1494H58.7646L57.9443 102H57.3496ZM62.0596 102V98.3154H62.6543V98.8691H62.709C62.8936 98.4795 63.2388 98.2505 63.7822 98.2505C64.6094 98.2505 65.0708 98.7393 65.0708 99.6143V102H64.4761V99.7578C64.4761 99.0947 64.2026 98.7769 63.6147 98.7769C63.0269 98.7769 62.6543 99.1733 62.6543 99.8193V102H62.0596ZM66.1816 102V96.8525H66.7764V102H66.1816ZM69.4321 102.065C68.3828 102.065 67.7334 101.34 67.7334 100.161V100.154C67.7334 98.9717 68.3828 98.2505 69.4321 98.2505C70.4814 98.2505 71.1309 98.9717 71.1309 100.154V100.161C71.1309 101.34 70.4814 102.065 69.4321 102.065ZM69.4321 101.539C70.1294 101.539 70.5225 101.029 70.5225 100.161V100.154C70.5225 99.2827 70.1294 98.7769 69.4321 98.7769C68.7349 98.7769 68.3418 99.2827 68.3418 100.154V100.161C68.3418 101.029 68.7349 101.539 69.4321 101.539ZM73.0654 102.065C72.3647 102.065 71.835 101.641 71.835 100.971V100.964C71.835 100.308 72.3203 99.9287 73.1782 99.8774L74.2344 99.8125V99.4775C74.2344 99.0229 73.9575 98.7769 73.4072 98.7769C72.9663 98.7769 72.6758 98.9409 72.5801 99.228L72.5767 99.2383H71.9819L71.9854 99.2178C72.0811 98.6401 72.6416 98.2505 73.4277 98.2505C74.3267 98.2505 74.8291 98.7119 74.8291 99.4775V102H74.2344V101.457H74.1797C73.9473 101.85 73.561 102.065 73.0654 102.065ZM72.4434 100.958C72.4434 101.33 72.7612 101.549 73.1885 101.549C73.7935 101.549 74.2344 101.152 74.2344 100.626V100.291L73.25 100.353C72.6895 100.387 72.4434 100.585 72.4434 100.951V100.958ZM77.2764 102.065C76.3433 102.065 75.7314 101.31 75.7314 100.161V100.154C75.7314 98.999 76.3398 98.2505 77.2764 98.2505C77.7822 98.2505 78.2231 98.5034 78.4248 98.8965H78.4795V96.8525H79.0742V102H78.4795V101.412H78.4248C78.1992 101.822 77.7891 102.065 77.2764 102.065ZM77.4131 101.539C78.083 101.539 78.4932 101.012 78.4932 100.161V100.154C78.4932 99.3032 78.083 98.7769 77.4131 98.7769C76.7397 98.7769 76.3398 99.2964 76.3398 100.154V100.161C76.3398 101.019 76.7397 101.539 77.4131 101.539ZM84.2285 102V97.0679H85.9204C87.3833 97.0679 88.248 97.9805 88.248 99.5288V99.5356C88.248 101.087 87.3867 102 85.9204 102H84.2285ZM84.8438 101.446H85.8794C86.98 101.446 87.6191 100.742 87.6191 99.5425V99.5356C87.6191 98.3325 86.9731 97.6216 85.8794 97.6216H84.8438V101.446ZM90.7432 102.065C89.6904 102.065 89.0547 101.327 89.0547 100.171V100.168C89.0547 99.0298 89.7041 98.2505 90.7056 98.2505C91.707 98.2505 92.3154 98.9956 92.3154 100.096V100.329H89.6631C89.6802 101.091 90.1006 101.535 90.7568 101.535C91.2559 101.535 91.5635 101.299 91.6626 101.077L91.6763 101.046H92.271L92.2642 101.074C92.1377 101.573 91.6113 102.065 90.7432 102.065ZM90.7021 98.7803C90.1553 98.7803 89.7383 99.1528 89.6733 99.8535H91.7104C91.6489 99.1255 91.2456 98.7803 90.7021 98.7803ZM94.5029 102.065C93.6826 102.065 93.1187 101.668 93.0503 101.06H93.6587C93.7578 101.368 94.0518 101.569 94.5234 101.569C95.019 101.569 95.3711 101.333 95.3711 100.999V100.992C95.3711 100.742 95.1831 100.568 94.7285 100.458L94.1577 100.322C93.4673 100.158 93.1562 99.8569 93.1562 99.3271V99.3237C93.1562 98.7119 93.7441 98.2505 94.5269 98.2505C95.2993 98.2505 95.8359 98.6367 95.918 99.2383H95.3335C95.2549 98.9478 94.9678 98.7461 94.5234 98.7461C94.0859 98.7461 93.7646 98.9717 93.7646 99.2964V99.3032C93.7646 99.5527 93.9492 99.71 94.3833 99.8159L94.9507 99.9526C95.6445 100.12 95.9795 100.421 95.9795 100.947V100.954C95.9795 101.61 95.3403 102.065 94.5029 102.065ZM98.4097 102.065C97.3774 102.065 96.7178 101.316 96.7178 100.147V100.141C96.7178 98.9956 97.374 98.2505 98.4062 98.2505C99.3018 98.2505 99.8384 98.7666 99.9478 99.4229L99.9512 99.4434H99.3599L99.3564 99.4331C99.2642 99.0708 98.936 98.7769 98.4062 98.7769C97.7432 98.7769 97.3262 99.3101 97.3262 100.141V100.147C97.3262 100.995 97.75 101.539 98.4062 101.539C98.9019 101.539 99.2163 101.32 99.353 100.91L99.3599 100.889L99.9478 100.886L99.9409 100.923C99.7905 101.59 99.2949 102.065 98.4097 102.065ZM100.819 102V98.3154H101.414V98.8623H101.469C101.609 98.4761 101.954 98.2505 102.453 98.2505C102.566 98.2505 102.692 98.2642 102.75 98.2744V98.8521C102.627 98.8315 102.515 98.8179 102.385 98.8179C101.817 98.8179 101.414 99.1768 101.414 99.7168V102H100.819ZM103.8 97.6045C103.574 97.6045 103.39 97.4199 103.39 97.1943C103.39 96.9688 103.574 96.7842 103.8 96.7842C104.025 96.7842 104.21 96.9688 104.21 97.1943C104.21 97.4199 104.025 97.6045 103.8 97.6045ZM103.499 102V98.3154H104.094V102H103.499ZM105.215 103.23V98.3154H105.81V98.9033H105.864C106.09 98.4932 106.5 98.2505 107.013 98.2505C107.946 98.2505 108.558 99.0059 108.558 100.154V100.161C108.558 101.316 107.949 102.065 107.013 102.065C106.507 102.065 106.066 101.812 105.864 101.419H105.81V103.23H105.215ZM106.876 101.539C107.549 101.539 107.949 101.019 107.949 100.161V100.154C107.949 99.2964 107.549 98.7769 106.876 98.7769C106.206 98.7769 105.796 99.3032 105.796 100.154V100.161C105.796 101.012 106.206 101.539 106.876 101.539ZM110.796 102.027C110.038 102.027 109.72 101.747 109.72 101.043V98.8076H109.139V98.3154H109.72V97.3618H110.335V98.3154H111.142V98.8076H110.335V100.893C110.335 101.327 110.485 101.501 110.868 101.501C110.974 101.501 111.032 101.498 111.142 101.487V101.993C111.025 102.014 110.913 102.027 110.796 102.027ZM112.345 97.6045C112.119 97.6045 111.935 97.4199 111.935 97.1943C111.935 96.9688 112.119 96.7842 112.345 96.7842C112.57 96.7842 112.755 96.9688 112.755 97.1943C112.755 97.4199 112.57 97.6045 112.345 97.6045ZM112.044 102V98.3154H112.639V102H112.044ZM115.274 102.065C114.225 102.065 113.575 101.34 113.575 100.161V100.154C113.575 98.9717 114.225 98.2505 115.274 98.2505C116.323 98.2505 116.973 98.9717 116.973 100.154V100.161C116.973 101.34 116.323 102.065 115.274 102.065ZM115.274 101.539C115.971 101.539 116.364 101.029 116.364 100.161V100.154C116.364 99.2827 115.971 98.7769 115.274 98.7769C114.577 98.7769 114.184 99.2827 114.184 100.154V100.161C114.184 101.029 114.577 101.539 115.274 101.539ZM117.896 102V98.3154H118.49V98.8691H118.545C118.729 98.4795 119.075 98.2505 119.618 98.2505C120.445 98.2505 120.907 98.7393 120.907 99.6143V102H120.312V99.7578C120.312 99.0947 120.039 98.7769 119.451 98.7769C118.863 98.7769 118.49 99.1733 118.49 99.8193V102H117.896Z" fill="black"/>
<rect x="47" y="108" width="39" height="14" rx="3" fill="#D1D9E2"/>
<rect x="47.25" y="126.75" width="152.5" height="32.5" rx="3.25" fill="white" stroke="#D4DBE3" stroke-width="0.5"/>
<path d="M47.6289 176V171.068H49.3208C50.7837 171.068 51.6484 171.98 51.6484 173.529V173.536C51.6484 175.087 50.7871 176 49.3208 176H47.6289ZM48.2441 175.446H49.2798C50.3804 175.446 51.0195 174.742 51.0195 173.542V173.536C51.0195 172.333 50.3735 171.622 49.2798 171.622H48.2441V175.446ZM54.1538 176.065C53.1045 176.065 52.4551 175.34 52.4551 174.161V174.154C52.4551 172.972 53.1045 172.25 54.1538 172.25C55.2031 172.25 55.8525 172.972 55.8525 174.154V174.161C55.8525 175.34 55.2031 176.065 54.1538 176.065ZM54.1538 175.539C54.8511 175.539 55.2441 175.029 55.2441 174.161V174.154C55.2441 173.283 54.8511 172.777 54.1538 172.777C53.4565 172.777 53.0635 173.283 53.0635 174.154V174.161C53.0635 175.029 53.4565 175.539 54.1538 175.539ZM57.3496 176L56.3174 172.315H56.9121L57.6367 175.262H57.6914L58.5151 172.315H59.0791L59.9028 175.262H59.9575L60.6821 172.315H61.2734L60.2412 176H59.6431L58.8193 173.149H58.7646L57.9443 176H57.3496ZM62.0596 176V172.315H62.6543V172.869H62.709C62.8936 172.479 63.2388 172.25 63.7822 172.25C64.6094 172.25 65.0708 172.739 65.0708 173.614V176H64.4761V173.758C64.4761 173.095 64.2026 172.777 63.6147 172.777C63.0269 172.777 62.6543 173.173 62.6543 173.819V176H62.0596ZM66.1816 176V170.853H66.7764V176H66.1816ZM69.4321 176.065C68.3828 176.065 67.7334 175.34 67.7334 174.161V174.154C67.7334 172.972 68.3828 172.25 69.4321 172.25C70.4814 172.25 71.1309 172.972 71.1309 174.154V174.161C71.1309 175.34 70.4814 176.065 69.4321 176.065ZM69.4321 175.539C70.1294 175.539 70.5225 175.029 70.5225 174.161V174.154C70.5225 173.283 70.1294 172.777 69.4321 172.777C68.7349 172.777 68.3418 173.283 68.3418 174.154V174.161C68.3418 175.029 68.7349 175.539 69.4321 175.539ZM73.0654 176.065C72.3647 176.065 71.835 175.641 71.835 174.971V174.964C71.835 174.308 72.3203 173.929 73.1782 173.877L74.2344 173.812V173.478C74.2344 173.023 73.9575 172.777 73.4072 172.777C72.9663 172.777 72.6758 172.941 72.5801 173.228L72.5767 173.238H71.9819L71.9854 173.218C72.0811 172.64 72.6416 172.25 73.4277 172.25C74.3267 172.25 74.8291 172.712 74.8291 173.478V176H74.2344V175.457H74.1797C73.9473 175.85 73.561 176.065 73.0654 176.065ZM72.4434 174.958C72.4434 175.33 72.7612 175.549 73.1885 175.549C73.7935 175.549 74.2344 175.152 74.2344 174.626V174.291L73.25 174.353C72.6895 174.387 72.4434 174.585 72.4434 174.951V174.958ZM77.2764 176.065C76.3433 176.065 75.7314 175.31 75.7314 174.161V174.154C75.7314 172.999 76.3398 172.25 77.2764 172.25C77.7822 172.25 78.2231 172.503 78.4248 172.896H78.4795V170.853H79.0742V176H78.4795V175.412H78.4248C78.1992 175.822 77.7891 176.065 77.2764 176.065ZM77.4131 175.539C78.083 175.539 78.4932 175.012 78.4932 174.161V174.154C78.4932 173.303 78.083 172.777 77.4131 172.777C76.7397 172.777 76.3398 173.296 76.3398 174.154V174.161C76.3398 175.019 76.7397 175.539 77.4131 175.539ZM82.2598 176V171.068H82.875V176H82.2598ZM84.0576 176V172.315H84.6523V172.876H84.707C84.8711 172.479 85.2197 172.25 85.7017 172.25C86.2007 172.25 86.5493 172.514 86.7202 172.896H86.7749C86.9731 172.507 87.3936 172.25 87.9028 172.25C88.6548 172.25 89.0752 172.681 89.0752 173.454V176H88.4805V173.59C88.4805 173.047 88.231 172.777 87.7114 172.777C87.1987 172.777 86.8604 173.163 86.8604 173.631V176H86.2656V173.498C86.2656 173.061 85.9648 172.777 85.5 172.777C85.0181 172.777 84.6523 173.197 84.6523 173.717V176H84.0576ZM91.1602 176.065C90.4595 176.065 89.9297 175.641 89.9297 174.971V174.964C89.9297 174.308 90.415 173.929 91.2729 173.877L92.3291 173.812V173.478C92.3291 173.023 92.0522 172.777 91.502 172.777C91.061 172.777 90.7705 172.941 90.6748 173.228L90.6714 173.238H90.0767L90.0801 173.218C90.1758 172.64 90.7363 172.25 91.5225 172.25C92.4214 172.25 92.9238 172.712 92.9238 173.478V176H92.3291V175.457H92.2744C92.042 175.85 91.6558 176.065 91.1602 176.065ZM90.5381 174.958C90.5381 175.33 90.856 175.549 91.2832 175.549C91.8882 175.549 92.3291 175.152 92.3291 174.626V174.291L91.3447 174.353C90.7842 174.387 90.5381 174.585 90.5381 174.951V174.958ZM95.5283 177.299C94.6396 177.299 94.0723 176.899 93.98 176.294L93.9868 176.291H94.6021L94.6055 176.294C94.6704 176.574 94.9985 176.772 95.5283 176.772C96.188 176.772 96.5811 176.461 96.5811 175.918V175.173H96.5264C96.2939 175.58 95.877 175.809 95.3711 175.809C94.4175 175.809 93.8262 175.07 93.8262 174.038V174.031C93.8262 172.999 94.4209 172.25 95.3848 172.25C95.9043 172.25 96.3076 172.507 96.5332 172.924H96.5742V172.315H97.1689V175.949C97.1689 176.772 96.5332 177.299 95.5283 177.299ZM95.501 175.282C96.1846 175.282 96.5947 174.77 96.5947 174.038V174.031C96.5947 173.3 96.1812 172.777 95.501 172.777C94.8174 172.777 94.4346 173.3 94.4346 174.031V174.038C94.4346 174.77 94.8174 175.282 95.501 175.282ZM99.7803 176.065C98.7275 176.065 98.0918 175.327 98.0918 174.171V174.168C98.0918 173.03 98.7412 172.25 99.7427 172.25C100.744 172.25 101.353 172.996 101.353 174.096V174.329H98.7002C98.7173 175.091 99.1377 175.535 99.7939 175.535C100.293 175.535 100.601 175.299 100.7 175.077L100.713 175.046H101.308L101.301 175.074C101.175 175.573 100.648 176.065 99.7803 176.065ZM99.7393 172.78C99.1924 172.78 98.7754 173.153 98.7104 173.854H100.748C100.686 173.125 100.283 172.78 99.7393 172.78Z" fill="black"/>
<rect x="107" y="167" width="39" height="14" rx="3" fill="#D1D9E2"/>
<path d="M47.6289 195V190.068H49.5122C50.4624 190.068 51.0845 190.649 51.0845 191.534V191.541C51.0845 192.225 50.7119 192.758 50.0933 192.953L51.2349 195H50.5137L49.4575 193.048H48.2441V195H47.6289ZM48.2441 192.501H49.4575C50.0898 192.501 50.4487 192.163 50.4487 191.562V191.555C50.4487 190.967 50.0659 190.615 49.4302 190.615H48.2441V192.501ZM53.5283 195.065C52.4756 195.065 51.8398 194.327 51.8398 193.171V193.168C51.8398 192.03 52.4893 191.25 53.4907 191.25C54.4922 191.25 55.1006 191.996 55.1006 193.096V193.329H52.4482C52.4653 194.091 52.8857 194.535 53.542 194.535C54.041 194.535 54.3486 194.299 54.4478 194.077L54.4614 194.046H55.0562L55.0493 194.074C54.9229 194.573 54.3965 195.065 53.5283 195.065ZM53.4873 191.78C52.9404 191.78 52.5234 192.153 52.4585 192.854H54.4956C54.4341 192.125 54.0308 191.78 53.4873 191.78ZM57.541 196.299C56.6523 196.299 56.085 195.899 55.9927 195.294L55.9995 195.291H56.6147L56.6182 195.294C56.6831 195.574 57.0112 195.772 57.541 195.772C58.2007 195.772 58.5938 195.461 58.5938 194.918V194.173H58.5391C58.3066 194.58 57.8896 194.809 57.3838 194.809C56.4302 194.809 55.8389 194.07 55.8389 193.038V193.031C55.8389 191.999 56.4336 191.25 57.3975 191.25C57.917 191.25 58.3203 191.507 58.5459 191.924H58.5869V191.315H59.1816V194.949C59.1816 195.772 58.5459 196.299 57.541 196.299ZM57.5137 194.282C58.1973 194.282 58.6074 193.77 58.6074 193.038V193.031C58.6074 192.3 58.1938 191.777 57.5137 191.777C56.8301 191.777 56.4473 192.3 56.4473 193.031V193.038C56.4473 193.77 56.8301 194.282 57.5137 194.282ZM61.5229 195.065C60.6855 195.065 60.2549 194.573 60.2549 193.701V191.315H60.8496V193.558C60.8496 194.221 61.0889 194.539 61.6768 194.539C62.3262 194.539 62.6714 194.142 62.6714 193.496V191.315H63.2661V195H62.6714V194.45H62.6167C62.4355 194.843 62.063 195.065 61.5229 195.065ZM64.4111 195V189.853H65.0059V195H64.4111ZM67.1592 195.065C66.4585 195.065 65.9287 194.641 65.9287 193.971V193.964C65.9287 193.308 66.4141 192.929 67.272 192.877L68.3281 192.812V192.478C68.3281 192.023 68.0513 191.777 67.501 191.777C67.0601 191.777 66.7695 191.941 66.6738 192.228L66.6704 192.238H66.0757L66.0791 192.218C66.1748 191.64 66.7354 191.25 67.5215 191.25C68.4204 191.25 68.9229 191.712 68.9229 192.478V195H68.3281V194.457H68.2734C68.041 194.85 67.6548 195.065 67.1592 195.065ZM66.5371 193.958C66.5371 194.33 66.855 194.549 67.2822 194.549C67.8872 194.549 68.3281 194.152 68.3281 193.626V193.291L67.3438 193.353C66.7832 193.387 66.5371 193.585 66.5371 193.951V193.958ZM70.0098 195V191.315H70.6045V191.862H70.6592C70.7993 191.476 71.1445 191.25 71.6436 191.25C71.7563 191.25 71.8828 191.264 71.9409 191.274V191.852C71.8179 191.832 71.7051 191.818 71.5752 191.818C71.0078 191.818 70.6045 192.177 70.6045 192.717V195H70.0098ZM74.7197 195V190.068H76.5791C77.5054 190.068 78.1616 190.707 78.1616 191.644V191.65C78.1616 192.587 77.5054 193.24 76.5791 193.24H75.335V195H74.7197ZM76.4219 190.615H75.335V192.693H76.4219C77.126 192.693 77.5327 192.307 77.5327 191.657V191.65C77.5327 191.001 77.126 190.615 76.4219 190.615ZM79.0947 195V191.315H79.6895V191.862H79.7441C79.8843 191.476 80.2295 191.25 80.7285 191.25C80.8413 191.25 80.9678 191.264 81.0259 191.274V191.852C80.9028 191.832 80.79 191.818 80.6602 191.818C80.0928 191.818 79.6895 192.177 79.6895 192.717V195H79.0947ZM82.0752 190.604C81.8496 190.604 81.665 190.42 81.665 190.194C81.665 189.969 81.8496 189.784 82.0752 189.784C82.3008 189.784 82.4854 189.969 82.4854 190.194C82.4854 190.42 82.3008 190.604 82.0752 190.604ZM81.7744 195V191.315H82.3691V195H81.7744ZM84.9976 195.065C83.9653 195.065 83.3057 194.316 83.3057 193.147V193.141C83.3057 191.996 83.9619 191.25 84.9941 191.25C85.8896 191.25 86.4263 191.767 86.5356 192.423L86.5391 192.443H85.9478L85.9443 192.433C85.8521 192.071 85.5239 191.777 84.9941 191.777C84.3311 191.777 83.9141 192.31 83.9141 193.141V193.147C83.9141 193.995 84.3379 194.539 84.9941 194.539C85.4897 194.539 85.8042 194.32 85.9409 193.91L85.9478 193.889L86.5356 193.886L86.5288 193.923C86.3784 194.59 85.8828 195.065 84.9976 195.065ZM88.9111 195.065C87.8584 195.065 87.2227 194.327 87.2227 193.171V193.168C87.2227 192.03 87.8721 191.25 88.8735 191.25C89.875 191.25 90.4834 191.996 90.4834 193.096V193.329H87.8311C87.8481 194.091 88.2686 194.535 88.9248 194.535C89.4238 194.535 89.7314 194.299 89.8306 194.077L89.8442 194.046H90.439L90.4321 194.074C90.3057 194.573 89.7793 195.065 88.9111 195.065ZM88.8701 191.78C88.3232 191.78 87.9062 192.153 87.8413 192.854H89.8784C89.8169 192.125 89.4136 191.78 88.8701 191.78Z" fill="black"/>
<rect x="47.75" y="202.5" width="152.5" height="12.5" rx="3.25" fill="white" stroke="#D4DBE3" stroke-width="0.5"/>
<defs>
<filter id="filter0_dd_2414_59055" x="0" y="0" width="246" height="249" filterUnits="userSpaceOnUse" color-interpolation-filters="sRGB">
<feFlood flood-opacity="0" result="BackgroundImageFix"/>
<feColorMatrix in="SourceAlpha" type="matrix" values="0 0 0 0 0 0 0 0 0 0 0 0 0 0 0 0 0 0 127 0" result="hardAlpha"/>
<feOffset dy="1"/>
<feGaussianBlur stdDeviation="1"/>
<feColorMatrix type="matrix" values="0 0 0 0 0 0 0 0 0 0 0 0 0 0 0 0 0 0 0.06 0"/>
<feBlend mode="normal" in2="BackgroundImageFix" result="effect1_dropShadow_2414_59055"/>
<feColorMatrix in="SourceAlpha" type="matrix" values="0 0 0 0 0 0 0 0 0 0 0 0 0 0 0 0 0 0 127 0" result="hardAlpha"/>
<feOffset dy="1"/>
<feGaussianBlur stdDeviation="1.5"/>
<feColorMatrix type="matrix" values="0 0 0 0 0 0 0 0 0 0 0 0 0 0 0 0 0 0 0.1 0"/>
<feBlend mode="normal" in2="effect1_dropShadow_2414_59055" result="effect2_dropShadow_2414_59055"/>
<feBlend mode="normal" in="SourceGraphic" in2="effect2_dropShadow_2414_59055" result="shape"/>
</filter>
</defs>
</svg>
