<svg width="246" height="249" viewBox="0 0 246 249" fill="none" xmlns="http://www.w3.org/2000/svg">
<g filter="url(#filter0_dd_2414_59083)">
<path d="M3 10C3 5.58172 6.58172 2 11 2H235C239.418 2 243 5.58172 243 10V237C243 241.418 239.418 245 235 245H11C6.58173 245 3 241.418 3 237V10Z" fill="white"/>
<path d="M3.5 10C3.5 5.85786 6.85786 2.5 11 2.5H235C239.142 2.5 242.5 5.85786 242.5 10V237C242.5 241.142 239.142 244.5 235 244.5H11C6.85787 244.5 3.5 241.142 3.5 237V10Z" stroke="#E2E8F0"/>
</g>
<path d="M47.6289 35V30.0679H50.6846V30.6216H48.2441V32.2041H50.5581V32.751H48.2441V34.4463H50.6846V35H47.6289ZM52.7661 35L51.4023 31.3154H52.0312L53.0396 34.3506H53.0942L54.1025 31.3154H54.7314L53.3677 35H52.7661ZM56.8848 35.0649C55.832 35.0649 55.1963 34.3267 55.1963 33.1714V33.168C55.1963 32.0298 55.8457 31.2505 56.8472 31.2505C57.8486 31.2505 58.457 31.9956 58.457 33.0962V33.3286H55.8047C55.8218 34.0908 56.2422 34.5352 56.8984 34.5352C57.3975 34.5352 57.7051 34.2993 57.8042 34.0771L57.8179 34.0464H58.4126L58.4058 34.0737C58.2793 34.5728 57.7529 35.0649 56.8848 35.0649ZM56.8438 31.7803C56.2969 31.7803 55.8799 32.1528 55.8149 32.8535H57.8521C57.7905 32.1255 57.3872 31.7803 56.8438 31.7803ZM59.3799 35V31.3154H59.9746V31.8691H60.0293C60.2139 31.4795 60.5591 31.2505 61.1025 31.2505C61.9297 31.2505 62.3911 31.7393 62.3911 32.6143V35H61.7964V32.7578C61.7964 32.0947 61.5229 31.7769 60.9351 31.7769C60.3472 31.7769 59.9746 32.1733 59.9746 32.8193V35H59.3799ZM64.7769 35.0273C64.0181 35.0273 63.7002 34.7471 63.7002 34.043V31.8076H63.1191V31.3154H63.7002V30.3618H64.3154V31.3154H65.1221V31.8076H64.3154V33.8926C64.3154 34.3267 64.4658 34.501 64.8486 34.501C64.9546 34.501 65.0127 34.4976 65.1221 34.4873V34.9932C65.0059 35.0137 64.8931 35.0273 64.7769 35.0273ZM69.2886 35.0273C68.5298 35.0273 68.2119 34.7471 68.2119 34.043V31.8076H67.6309V31.3154H68.2119V30.3618H68.8271V31.3154H69.6338V31.8076H68.8271V33.8926C68.8271 34.3267 68.9775 34.501 69.3604 34.501C69.4663 34.501 69.5244 34.4976 69.6338 34.4873V34.9932C69.5176 35.0137 69.4048 35.0273 69.2886 35.0273ZM70.8369 30.6045C70.6113 30.6045 70.4268 30.4199 70.4268 30.1943C70.4268 29.9688 70.6113 29.7842 70.8369 29.7842C71.0625 29.7842 71.2471 29.9688 71.2471 30.1943C71.2471 30.4199 71.0625 30.6045 70.8369 30.6045ZM70.5361 35V31.3154H71.1309V35H70.5361ZM73.561 35.0273C72.8022 35.0273 72.4844 34.7471 72.4844 34.043V31.8076H71.9033V31.3154H72.4844V30.3618H73.0996V31.3154H73.9062V31.8076H73.0996V33.8926C73.0996 34.3267 73.25 34.501 73.6328 34.501C73.7388 34.501 73.7969 34.4976 73.9062 34.4873V34.9932C73.79 35.0137 73.6772 35.0273 73.561 35.0273ZM74.8291 35V29.8525H75.4238V35H74.8291ZM78.0693 35.0649C77.0166 35.0649 76.3809 34.3267 76.3809 33.1714V33.168C76.3809 32.0298 77.0303 31.2505 78.0317 31.2505C79.0332 31.2505 79.6416 31.9956 79.6416 33.0962V33.3286H76.9893C77.0063 34.0908 77.4268 34.5352 78.083 34.5352C78.582 34.5352 78.8896 34.2993 78.9888 34.0771L79.0024 34.0464H79.5972L79.5903 34.0737C79.4639 34.5728 78.9375 35.0649 78.0693 35.0649ZM78.0283 31.7803C77.4814 31.7803 77.0645 32.1528 76.9995 32.8535H79.0366C78.9751 32.1255 78.5718 31.7803 78.0283 31.7803Z" fill="black"/>
<rect x="47.25" y="42" width="152.5" height="12.5" rx="3.25" fill="white" stroke="#D4DBE3" stroke-width="0.5"/>
<path d="M47.6289 68.25V63.3179H50.6846V63.8716H48.2441V65.4541H50.5581V66.001H48.2441V67.6963H50.6846V68.25H47.6289ZM52.7661 68.25L51.4023 64.5654H52.0312L53.0396 67.6006H53.0942L54.1025 64.5654H54.7314L53.3677 68.25H52.7661ZM56.8848 68.3149C55.832 68.3149 55.1963 67.5767 55.1963 66.4214V66.418C55.1963 65.2798 55.8457 64.5005 56.8472 64.5005C57.8486 64.5005 58.457 65.2456 58.457 66.3462V66.5786H55.8047C55.8218 67.3408 56.2422 67.7852 56.8984 67.7852C57.3975 67.7852 57.7051 67.5493 57.8042 67.3271L57.8179 67.2964H58.4126L58.4058 67.3237C58.2793 67.8228 57.7529 68.3149 56.8848 68.3149ZM56.8438 65.0303C56.2969 65.0303 55.8799 65.4028 55.8149 66.1035H57.8521C57.7905 65.3755 57.3872 65.0303 56.8438 65.0303ZM59.3799 68.25V64.5654H59.9746V65.1191H60.0293C60.2139 64.7295 60.5591 64.5005 61.1025 64.5005C61.9297 64.5005 62.3911 64.9893 62.3911 65.8643V68.25H61.7964V66.0078C61.7964 65.3447 61.5229 65.0269 60.9351 65.0269C60.3472 65.0269 59.9746 65.4233 59.9746 66.0693V68.25H59.3799ZM64.7769 68.2773C64.0181 68.2773 63.7002 67.9971 63.7002 67.293V65.0576H63.1191V64.5654H63.7002V63.6118H64.3154V64.5654H65.1221V65.0576H64.3154V67.1426C64.3154 67.5767 64.4658 67.751 64.8486 67.751C64.9546 67.751 65.0127 67.7476 65.1221 67.7373V68.2432C65.0059 68.2637 64.8931 68.2773 64.7769 68.2773ZM68.0547 68.25V63.3179H69.7466C71.2095 63.3179 72.0742 64.2305 72.0742 65.7788V65.7856C72.0742 67.3374 71.2129 68.25 69.7466 68.25H68.0547ZM68.6699 67.6963H69.7056C70.8062 67.6963 71.4453 66.9922 71.4453 65.7925V65.7856C71.4453 64.5825 70.7993 63.8716 69.7056 63.8716H68.6699V67.6963ZM74.5693 68.3149C73.5166 68.3149 72.8809 67.5767 72.8809 66.4214V66.418C72.8809 65.2798 73.5303 64.5005 74.5317 64.5005C75.5332 64.5005 76.1416 65.2456 76.1416 66.3462V66.5786H73.4893C73.5063 67.3408 73.9268 67.7852 74.583 67.7852C75.082 67.7852 75.3896 67.5493 75.4888 67.3271L75.5024 67.2964H76.0972L76.0903 67.3237C75.9639 67.8228 75.4375 68.3149 74.5693 68.3149ZM74.5283 65.0303C73.9814 65.0303 73.5645 65.4028 73.4995 66.1035H75.5366C75.4751 65.3755 75.0718 65.0303 74.5283 65.0303ZM78.3735 68.2773C77.6147 68.2773 77.2969 67.9971 77.2969 67.293V65.0576H76.7158V64.5654H77.2969V63.6118H77.9121V64.5654H78.7188V65.0576H77.9121V67.1426C77.9121 67.5767 78.0625 67.751 78.4453 67.751C78.5513 67.751 78.6094 67.7476 78.7188 67.7373V68.2432C78.6025 68.2637 78.4897 68.2773 78.3735 68.2773ZM80.6191 68.3149C79.9185 68.3149 79.3887 67.8911 79.3887 67.2212V67.2144C79.3887 66.5581 79.874 66.1787 80.7319 66.1274L81.7881 66.0625V65.7275C81.7881 65.2729 81.5112 65.0269 80.9609 65.0269C80.52 65.0269 80.2295 65.1909 80.1338 65.478L80.1304 65.4883H79.5356L79.5391 65.4678C79.6348 64.8901 80.1953 64.5005 80.9814 64.5005C81.8804 64.5005 82.3828 64.9619 82.3828 65.7275V68.25H81.7881V67.7065H81.7334C81.501 68.0996 81.1147 68.3149 80.6191 68.3149ZM79.9971 67.2075C79.9971 67.5801 80.3149 67.7988 80.7422 67.7988C81.3472 67.7988 81.7881 67.4023 81.7881 66.876V66.541L80.8037 66.6025C80.2432 66.6367 79.9971 66.835 79.9971 67.2007V67.2075ZM83.7842 63.8545C83.5586 63.8545 83.374 63.6699 83.374 63.4443C83.374 63.2188 83.5586 63.0342 83.7842 63.0342C84.0098 63.0342 84.1943 63.2188 84.1943 63.4443C84.1943 63.6699 84.0098 63.8545 83.7842 63.8545ZM83.4834 68.25V64.5654H84.0781V68.25H83.4834ZM85.2334 68.25V63.1025H85.8281V68.25H85.2334ZM88.2344 68.3149C87.4141 68.3149 86.8501 67.9185 86.7817 67.3101H87.3901C87.4893 67.6177 87.7832 67.8193 88.2549 67.8193C88.7505 67.8193 89.1025 67.5835 89.1025 67.2485V67.2417C89.1025 66.9922 88.9146 66.8179 88.46 66.7085L87.8892 66.5718C87.1987 66.4077 86.8877 66.1069 86.8877 65.5771V65.5737C86.8877 64.9619 87.4756 64.5005 88.2583 64.5005C89.0308 64.5005 89.5674 64.8867 89.6494 65.4883H89.0649C88.9863 65.1978 88.6992 64.9961 88.2549 64.9961C87.8174 64.9961 87.4961 65.2217 87.4961 65.5464V65.5532C87.4961 65.8027 87.6807 65.96 88.1147 66.0659L88.6821 66.2026C89.376 66.3701 89.7109 66.6709 89.7109 67.1973V67.2041C89.7109 67.8604 89.0718 68.3149 88.2344 68.3149Z" fill="black"/>
<rect x="47" y="74.25" width="39" height="14" rx="3" fill="#D1D9E2"/>
<rect x="47.25" y="93" width="152.5" height="32.5" rx="3.25" fill="white" stroke="#D4DBE3" stroke-width="0.5"/>
<path d="M47.6289 142.25V137.318H50.623V137.872H48.2441V139.567H50.4282V140.114H48.2441V142.25H47.6289ZM53.0635 142.315C52.0107 142.315 51.375 141.577 51.375 140.421V140.418C51.375 139.28 52.0244 138.5 53.0259 138.5C54.0273 138.5 54.6357 139.246 54.6357 140.346V140.579H51.9834C52.0005 141.341 52.4209 141.785 53.0771 141.785C53.5762 141.785 53.8838 141.549 53.9829 141.327L53.9966 141.296H54.5913L54.5845 141.324C54.458 141.823 53.9316 142.315 53.0635 142.315ZM53.0225 139.03C52.4756 139.03 52.0586 139.403 51.9937 140.104H54.0308C53.9692 139.375 53.5659 139.03 53.0225 139.03ZM56.5703 142.315C55.8696 142.315 55.3398 141.891 55.3398 141.221V141.214C55.3398 140.558 55.8252 140.179 56.6831 140.127L57.7393 140.062V139.728C57.7393 139.273 57.4624 139.027 56.9121 139.027C56.4712 139.027 56.1807 139.191 56.085 139.478L56.0815 139.488H55.4868L55.4902 139.468C55.5859 138.89 56.1465 138.5 56.9326 138.5C57.8315 138.5 58.334 138.962 58.334 139.728V142.25H57.7393V141.707H57.6846C57.4521 142.1 57.0659 142.315 56.5703 142.315ZM55.9482 141.208C55.9482 141.58 56.2661 141.799 56.6934 141.799C57.2983 141.799 57.7393 141.402 57.7393 140.876V140.541L56.7549 140.603C56.1943 140.637 55.9482 140.835 55.9482 141.201V141.208ZM60.73 142.277C59.9712 142.277 59.6533 141.997 59.6533 141.293V139.058H59.0723V138.565H59.6533V137.612H60.2686V138.565H61.0752V139.058H60.2686V141.143C60.2686 141.577 60.4189 141.751 60.8018 141.751C60.9077 141.751 60.9658 141.748 61.0752 141.737V142.243C60.959 142.264 60.8462 142.277 60.73 142.277ZM63.1978 142.315C62.3604 142.315 61.9297 141.823 61.9297 140.951V138.565H62.5244V140.808C62.5244 141.471 62.7637 141.789 63.3516 141.789C64.001 141.789 64.3462 141.392 64.3462 140.746V138.565H64.9409V142.25H64.3462V141.7H64.2915C64.1104 142.093 63.7378 142.315 63.1978 142.315ZM66.0518 142.25V138.565H66.6465V139.112H66.7012C66.8413 138.726 67.1865 138.5 67.6855 138.5C67.7983 138.5 67.9248 138.514 67.9829 138.524V139.102C67.8599 139.082 67.7471 139.068 67.6172 139.068C67.0498 139.068 66.6465 139.427 66.6465 139.967V142.25H66.0518ZM70.1191 142.315C69.0664 142.315 68.4307 141.577 68.4307 140.421V140.418C68.4307 139.28 69.0801 138.5 70.0815 138.5C71.083 138.5 71.6914 139.246 71.6914 140.346V140.579H69.0391C69.0562 141.341 69.4766 141.785 70.1328 141.785C70.6318 141.785 70.9395 141.549 71.0386 141.327L71.0522 141.296H71.647L71.6401 141.324C71.5137 141.823 70.9873 142.315 70.1191 142.315ZM70.0781 139.03C69.5312 139.03 69.1143 139.403 69.0493 140.104H71.0864C71.0249 139.375 70.6216 139.03 70.0781 139.03ZM73.9746 142.315C73.0415 142.315 72.4297 141.56 72.4297 140.411V140.404C72.4297 139.249 73.0381 138.5 73.9746 138.5C74.4805 138.5 74.9214 138.753 75.123 139.146H75.1777V137.103H75.7725V142.25H75.1777V141.662H75.123C74.8975 142.072 74.4873 142.315 73.9746 142.315ZM74.1113 141.789C74.7812 141.789 75.1914 141.262 75.1914 140.411V140.404C75.1914 139.553 74.7812 139.027 74.1113 139.027C73.438 139.027 73.0381 139.546 73.0381 140.404V140.411C73.0381 141.269 73.438 141.789 74.1113 141.789ZM78.958 142.25V137.318H79.5732V142.25H78.958ZM80.7559 142.25V138.565H81.3506V139.126H81.4053C81.5693 138.729 81.918 138.5 82.3999 138.5C82.8989 138.5 83.2476 138.764 83.4185 139.146H83.4731C83.6714 138.757 84.0918 138.5 84.6011 138.5C85.353 138.5 85.7734 138.931 85.7734 139.704V142.25H85.1787V139.84C85.1787 139.297 84.9292 139.027 84.4097 139.027C83.897 139.027 83.5586 139.413 83.5586 139.881V142.25H82.9639V139.748C82.9639 139.311 82.6631 139.027 82.1982 139.027C81.7163 139.027 81.3506 139.447 81.3506 139.967V142.25H80.7559ZM87.8584 142.315C87.1577 142.315 86.6279 141.891 86.6279 141.221V141.214C86.6279 140.558 87.1133 140.179 87.9712 140.127L89.0273 140.062V139.728C89.0273 139.273 88.7505 139.027 88.2002 139.027C87.7593 139.027 87.4688 139.191 87.373 139.478L87.3696 139.488H86.7749L86.7783 139.468C86.874 138.89 87.4346 138.5 88.2207 138.5C89.1196 138.5 89.6221 138.962 89.6221 139.728V142.25H89.0273V141.707H88.9727C88.7402 142.1 88.354 142.315 87.8584 142.315ZM87.2363 141.208C87.2363 141.58 87.5542 141.799 87.9814 141.799C88.5864 141.799 89.0273 141.402 89.0273 140.876V140.541L88.043 140.603C87.4824 140.637 87.2363 140.835 87.2363 141.201V141.208ZM92.2266 143.549C91.3379 143.549 90.7705 143.149 90.6782 142.544L90.6851 142.541H91.3003L91.3037 142.544C91.3687 142.824 91.6968 143.022 92.2266 143.022C92.8862 143.022 93.2793 142.711 93.2793 142.168V141.423H93.2246C92.9922 141.83 92.5752 142.059 92.0693 142.059C91.1157 142.059 90.5244 141.32 90.5244 140.288V140.281C90.5244 139.249 91.1191 138.5 92.083 138.5C92.6025 138.5 93.0059 138.757 93.2314 139.174H93.2725V138.565H93.8672V142.199C93.8672 143.022 93.2314 143.549 92.2266 143.549ZM92.1992 141.532C92.8828 141.532 93.293 141.02 93.293 140.288V140.281C93.293 139.55 92.8794 139.027 92.1992 139.027C91.5156 139.027 91.1328 139.55 91.1328 140.281V140.288C91.1328 141.02 91.5156 141.532 92.1992 141.532ZM96.4785 142.315C95.4258 142.315 94.79 141.577 94.79 140.421V140.418C94.79 139.28 95.4395 138.5 96.4409 138.5C97.4424 138.5 98.0508 139.246 98.0508 140.346V140.579H95.3984C95.4155 141.341 95.8359 141.785 96.4922 141.785C96.9912 141.785 97.2988 141.549 97.3979 141.327L97.4116 141.296H98.0063L97.9995 141.324C97.873 141.823 97.3467 142.315 96.4785 142.315ZM96.4375 139.03C95.8906 139.03 95.4736 139.403 95.4087 140.104H97.4458C97.3843 139.375 96.981 139.03 96.4375 139.03Z" fill="black"/>
<rect x="104" y="133.25" width="39" height="14" rx="3" fill="#D1D9E2"/>
<path d="M47.6289 161.25V156.318H50.6846V156.872H48.2441V158.454H50.5581V159.001H48.2441V160.696H50.6846V161.25H47.6289ZM52.7661 161.25L51.4023 157.565H52.0312L53.0396 160.601H53.0942L54.1025 157.565H54.7314L53.3677 161.25H52.7661ZM56.8848 161.315C55.832 161.315 55.1963 160.577 55.1963 159.421V159.418C55.1963 158.28 55.8457 157.5 56.8472 157.5C57.8486 157.5 58.457 158.246 58.457 159.346V159.579H55.8047C55.8218 160.341 56.2422 160.785 56.8984 160.785C57.3975 160.785 57.7051 160.549 57.8042 160.327L57.8179 160.296H58.4126L58.4058 160.324C58.2793 160.823 57.7529 161.315 56.8848 161.315ZM56.8438 158.03C56.2969 158.03 55.8799 158.403 55.8149 159.104H57.8521C57.7905 158.375 57.3872 158.03 56.8438 158.03ZM59.3799 161.25V157.565H59.9746V158.119H60.0293C60.2139 157.729 60.5591 157.5 61.1025 157.5C61.9297 157.5 62.3911 157.989 62.3911 158.864V161.25H61.7964V159.008C61.7964 158.345 61.5229 158.027 60.9351 158.027C60.3472 158.027 59.9746 158.423 59.9746 159.069V161.25H59.3799ZM64.7769 161.277C64.0181 161.277 63.7002 160.997 63.7002 160.293V158.058H63.1191V157.565H63.7002V156.612H64.3154V157.565H65.1221V158.058H64.3154V160.143C64.3154 160.577 64.4658 160.751 64.8486 160.751C64.9546 160.751 65.0127 160.748 65.1221 160.737V161.243C65.0059 161.264 64.8931 161.277 64.7769 161.277ZM70.0405 161.366C68.7007 161.366 67.8633 160.375 67.8633 158.789V158.782C67.8633 157.193 68.6973 156.202 70.0371 156.202C71.0762 156.202 71.8862 156.854 72.0332 157.801L72.0298 157.808H71.4111L71.4077 157.801C71.2437 157.169 70.7173 156.769 70.0371 156.769C69.0903 156.769 68.4956 157.548 68.4956 158.782V158.789C68.4956 160.023 69.0903 160.799 70.0405 160.799C70.7275 160.799 71.2505 160.447 71.4043 159.879L71.4111 159.873H72.0332V159.879C71.8691 160.782 71.0898 161.366 70.0405 161.366ZM74.002 161.315C73.3013 161.315 72.7715 160.891 72.7715 160.221V160.214C72.7715 159.558 73.2568 159.179 74.1147 159.127L75.1709 159.062V158.728C75.1709 158.273 74.894 158.027 74.3438 158.027C73.9028 158.027 73.6123 158.191 73.5166 158.478L73.5132 158.488H72.9185L72.9219 158.468C73.0176 157.89 73.5781 157.5 74.3643 157.5C75.2632 157.5 75.7656 157.962 75.7656 158.728V161.25H75.1709V160.707H75.1162C74.8838 161.1 74.4976 161.315 74.002 161.315ZM73.3799 160.208C73.3799 160.58 73.6978 160.799 74.125 160.799C74.73 160.799 75.1709 160.402 75.1709 159.876V159.541L74.1865 159.603C73.626 159.637 73.3799 159.835 73.3799 160.201V160.208ZM78.1616 161.277C77.4028 161.277 77.085 160.997 77.085 160.293V158.058H76.5039V157.565H77.085V156.612H77.7002V157.565H78.5068V158.058H77.7002V160.143C77.7002 160.577 77.8506 160.751 78.2334 160.751C78.3394 160.751 78.3975 160.748 78.5068 160.737V161.243C78.3906 161.264 78.2778 161.277 78.1616 161.277ZM80.8447 161.315C79.792 161.315 79.1562 160.577 79.1562 159.421V159.418C79.1562 158.28 79.8057 157.5 80.8071 157.5C81.8086 157.5 82.417 158.246 82.417 159.346V159.579H79.7646C79.7817 160.341 80.2021 160.785 80.8584 160.785C81.3574 160.785 81.665 160.549 81.7642 160.327L81.7778 160.296H82.3726L82.3657 160.324C82.2393 160.823 81.7129 161.315 80.8447 161.315ZM80.8037 158.03C80.2568 158.03 79.8398 158.403 79.7749 159.104H81.812C81.7505 158.375 81.3472 158.03 80.8037 158.03ZM84.8574 162.549C83.9688 162.549 83.4014 162.149 83.3091 161.544L83.3159 161.541H83.9312L83.9346 161.544C83.9995 161.824 84.3276 162.022 84.8574 162.022C85.5171 162.022 85.9102 161.711 85.9102 161.168V160.423H85.8555C85.623 160.83 85.2061 161.059 84.7002 161.059C83.7466 161.059 83.1553 160.32 83.1553 159.288V159.281C83.1553 158.249 83.75 157.5 84.7139 157.5C85.2334 157.5 85.6367 157.757 85.8623 158.174H85.9033V157.565H86.498V161.199C86.498 162.022 85.8623 162.549 84.8574 162.549ZM84.8301 160.532C85.5137 160.532 85.9238 160.02 85.9238 159.288V159.281C85.9238 158.55 85.5103 158.027 84.8301 158.027C84.1465 158.027 83.7637 158.55 83.7637 159.281V159.288C83.7637 160.02 84.1465 160.532 84.8301 160.532ZM89.1196 161.315C88.0703 161.315 87.4209 160.59 87.4209 159.411V159.404C87.4209 158.222 88.0703 157.5 89.1196 157.5C90.1689 157.5 90.8184 158.222 90.8184 159.404V159.411C90.8184 160.59 90.1689 161.315 89.1196 161.315ZM89.1196 160.789C89.8169 160.789 90.21 160.279 90.21 159.411V159.404C90.21 158.533 89.8169 158.027 89.1196 158.027C88.4224 158.027 88.0293 158.533 88.0293 159.404V159.411C88.0293 160.279 88.4224 160.789 89.1196 160.789ZM91.7412 161.25V157.565H92.3359V158.112H92.3906C92.5308 157.726 92.876 157.5 93.375 157.5C93.4878 157.5 93.6143 157.514 93.6724 157.524V158.102C93.5493 158.082 93.4365 158.068 93.3066 158.068C92.7393 158.068 92.3359 158.427 92.3359 158.967V161.25H91.7412ZM94.7559 162.542C94.6772 162.542 94.5747 162.535 94.4927 162.521V162.033C94.5645 162.046 94.6567 162.05 94.7388 162.05C95.0771 162.05 95.2822 161.896 95.4155 161.472L95.4839 161.253L94.1201 157.565H94.7559L95.7676 160.597H95.8223L96.8306 157.565H97.4561L96.0171 161.476C95.7129 162.303 95.4087 162.542 94.7559 162.542Z" fill="black"/>
<rect x="47.75" y="168.75" width="152.5" height="12.5" rx="3.25" fill="white" stroke="#D4DBE3" stroke-width="0.5"/>
<path d="M190 174L192 176L194 174" stroke="#979AA9" stroke-width="0.878788"/>
<path d="M47.6289 195V190.068H50.6846V190.622H48.2441V192.204H50.5581V192.751H48.2441V194.446H50.6846V195H47.6289ZM52.7661 195L51.4023 191.315H52.0312L53.0396 194.351H53.0942L54.1025 191.315H54.7314L53.3677 195H52.7661ZM56.8848 195.065C55.832 195.065 55.1963 194.327 55.1963 193.171V193.168C55.1963 192.03 55.8457 191.25 56.8472 191.25C57.8486 191.25 58.457 191.996 58.457 193.096V193.329H55.8047C55.8218 194.091 56.2422 194.535 56.8984 194.535C57.3975 194.535 57.7051 194.299 57.8042 194.077L57.8179 194.046H58.4126L58.4058 194.074C58.2793 194.573 57.7529 195.065 56.8848 195.065ZM56.8438 191.78C56.2969 191.78 55.8799 192.153 55.8149 192.854H57.8521C57.7905 192.125 57.3872 191.78 56.8438 191.78ZM59.3799 195V191.315H59.9746V191.869H60.0293C60.2139 191.479 60.5591 191.25 61.1025 191.25C61.9297 191.25 62.3911 191.739 62.3911 192.614V195H61.7964V192.758C61.7964 192.095 61.5229 191.777 60.9351 191.777C60.3472 191.777 59.9746 192.173 59.9746 192.819V195H59.3799ZM64.7769 195.027C64.0181 195.027 63.7002 194.747 63.7002 194.043V191.808H63.1191V191.315H63.7002V190.362H64.3154V191.315H65.1221V191.808H64.3154V193.893C64.3154 194.327 64.4658 194.501 64.8486 194.501C64.9546 194.501 65.0127 194.498 65.1221 194.487V194.993C65.0059 195.014 64.8931 195.027 64.7769 195.027ZM69.2886 195.027C68.5298 195.027 68.2119 194.747 68.2119 194.043V191.808H67.6309V191.315H68.2119V190.362H68.8271V191.315H69.6338V191.808H68.8271V193.893C68.8271 194.327 68.9775 194.501 69.3604 194.501C69.4663 194.501 69.5244 194.498 69.6338 194.487V194.993C69.5176 195.014 69.4048 195.027 69.2886 195.027ZM71.5342 195.065C70.8335 195.065 70.3037 194.641 70.3037 193.971V193.964C70.3037 193.308 70.7891 192.929 71.647 192.877L72.7031 192.812V192.478C72.7031 192.023 72.4263 191.777 71.876 191.777C71.4351 191.777 71.1445 191.941 71.0488 192.228L71.0454 192.238H70.4507L70.4541 192.218C70.5498 191.64 71.1104 191.25 71.8965 191.25C72.7954 191.25 73.2979 191.712 73.2979 192.478V195H72.7031V194.457H72.6484C72.416 194.85 72.0298 195.065 71.5342 195.065ZM70.9121 193.958C70.9121 194.33 71.23 194.549 71.6572 194.549C72.2622 194.549 72.7031 194.152 72.7031 193.626V193.291L71.7188 193.353C71.1582 193.387 70.9121 193.585 70.9121 193.951V193.958ZM75.9023 196.299C75.0137 196.299 74.4463 195.899 74.354 195.294L74.3608 195.291H74.9761L74.9795 195.294C75.0444 195.574 75.3726 195.772 75.9023 195.772C76.562 195.772 76.9551 195.461 76.9551 194.918V194.173H76.9004C76.668 194.58 76.251 194.809 75.7451 194.809C74.7915 194.809 74.2002 194.07 74.2002 193.038V193.031C74.2002 191.999 74.7949 191.25 75.7588 191.25C76.2783 191.25 76.6816 191.507 76.9072 191.924H76.9482V191.315H77.543V194.949C77.543 195.772 76.9072 196.299 75.9023 196.299ZM75.875 194.282C76.5586 194.282 76.9688 193.77 76.9688 193.038V193.031C76.9688 192.3 76.5552 191.777 75.875 191.777C75.1914 191.777 74.8086 192.3 74.8086 193.031V193.038C74.8086 193.77 75.1914 194.282 75.875 194.282Z" fill="black"/>
<rect x="47.75" y="202.5" width="152.5" height="12.5" rx="3.25" fill="white" stroke="#D4DBE3" stroke-width="0.5"/>
<defs>
<filter id="filter0_dd_2414_59083" x="0" y="0" width="246" height="249" filterUnits="userSpaceOnUse" color-interpolation-filters="sRGB">
<feFlood flood-opacity="0" result="BackgroundImageFix"/>
<feColorMatrix in="SourceAlpha" type="matrix" values="0 0 0 0 0 0 0 0 0 0 0 0 0 0 0 0 0 0 127 0" result="hardAlpha"/>
<feOffset dy="1"/>
<feGaussianBlur stdDeviation="1"/>
<feColorMatrix type="matrix" values="0 0 0 0 0 0 0 0 0 0 0 0 0 0 0 0 0 0 0.06 0"/>
<feBlend mode="normal" in2="BackgroundImageFix" result="effect1_dropShadow_2414_59083"/>
<feColorMatrix in="SourceAlpha" type="matrix" values="0 0 0 0 0 0 0 0 0 0 0 0 0 0 0 0 0 0 127 0" result="hardAlpha"/>
<feOffset dy="1"/>
<feGaussianBlur stdDeviation="1.5"/>
<feColorMatrix type="matrix" values="0 0 0 0 0 0 0 0 0 0 0 0 0 0 0 0 0 0 0.1 0"/>
<feBlend mode="normal" in2="effect1_dropShadow_2414_59083" result="effect2_dropShadow_2414_59083"/>
<feBlend mode="normal" in="SourceGraphic" in2="effect2_dropShadow_2414_59083" result="shape"/>
</filter>
</defs>
</svg>
