<svg width="246" height="249" viewBox="0 0 246 249" fill="none" xmlns="http://www.w3.org/2000/svg">
<g filter="url(#filter0_dd_2414_58997)">
<path d="M3 10C3 5.58172 6.58172 2 11 2H235C239.418 2 243 5.58172 243 10V237C243 241.418 239.418 245 235 245H11C6.58173 245 3 241.418 3 237V10Z" fill="white"/>
<path d="M3.5 10C3.5 5.85786 6.85786 2.5 11 2.5H235C239.142 2.5 242.5 5.85786 242.5 10V237C242.5 241.142 239.142 244.5 235 244.5H11C6.85787 244.5 3.5 241.142 3.5 237V10Z" stroke="#E2E8F0"/>
</g>
<path d="M47.6289 35V30.0679H49.4883C50.4146 30.0679 51.0708 30.707 51.0708 31.6436V31.6504C51.0708 32.5869 50.4146 33.2397 49.4883 33.2397H48.2441V35H47.6289ZM49.3311 30.6147H48.2441V32.6929H49.3311C50.0352 32.6929 50.4419 32.3066 50.4419 31.6572V31.6504C50.4419 31.001 50.0352 30.6147 49.3311 30.6147ZM53.4155 35.0649C52.3662 35.0649 51.7168 34.3403 51.7168 33.1611V33.1543C51.7168 31.9717 52.3662 31.2505 53.4155 31.2505C54.4648 31.2505 55.1143 31.9717 55.1143 33.1543V33.1611C55.1143 34.3403 54.4648 35.0649 53.4155 35.0649ZM53.4155 34.5386C54.1128 34.5386 54.5059 34.0293 54.5059 33.1611V33.1543C54.5059 32.2827 54.1128 31.7769 53.4155 31.7769C52.7183 31.7769 52.3252 32.2827 52.3252 33.1543V33.1611C52.3252 34.0293 52.7183 34.5386 53.4155 34.5386ZM57.3018 35.0649C56.4814 35.0649 55.9175 34.6685 55.8491 34.0601H56.4575C56.5566 34.3677 56.8506 34.5693 57.3223 34.5693C57.8179 34.5693 58.1699 34.3335 58.1699 33.9985V33.9917C58.1699 33.7422 57.9819 33.5679 57.5273 33.4585L56.9565 33.3218C56.2661 33.1577 55.9551 32.8569 55.9551 32.3271V32.3237C55.9551 31.7119 56.543 31.2505 57.3257 31.2505C58.0981 31.2505 58.6348 31.6367 58.7168 32.2383H58.1323C58.0537 31.9478 57.7666 31.7461 57.3223 31.7461C56.8848 31.7461 56.5635 31.9717 56.5635 32.2964V32.3032C56.5635 32.5527 56.748 32.71 57.1821 32.8159L57.7495 32.9526C58.4434 33.1201 58.7783 33.4209 58.7783 33.9473V33.9541C58.7783 34.6104 58.1392 35.0649 57.3018 35.0649ZM60.9761 35.0273C60.2173 35.0273 59.8994 34.7471 59.8994 34.043V31.8076H59.3184V31.3154H59.8994V30.3618H60.5146V31.3154H61.3213V31.8076H60.5146V33.8926C60.5146 34.3267 60.665 34.501 61.0479 34.501C61.1538 34.501 61.2119 34.4976 61.3213 34.4873V34.9932C61.2051 35.0137 61.0923 35.0273 60.9761 35.0273ZM65.5356 35V30.6216H63.9463V30.0679H67.7402V30.6216H66.1509V35H65.5356ZM68.8613 30.6045C68.6357 30.6045 68.4512 30.4199 68.4512 30.1943C68.4512 29.9688 68.6357 29.7842 68.8613 29.7842C69.0869 29.7842 69.2715 29.9688 69.2715 30.1943C69.2715 30.4199 69.0869 30.6045 68.8613 30.6045ZM68.5605 35V31.3154H69.1553V35H68.5605ZM71.5854 35.0273C70.8267 35.0273 70.5088 34.7471 70.5088 34.043V31.8076H69.9277V31.3154H70.5088V30.3618H71.124V31.3154H71.9307V31.8076H71.124V33.8926C71.124 34.3267 71.2744 34.501 71.6572 34.501C71.7632 34.501 71.8213 34.4976 71.9307 34.4873V34.9932C71.8145 35.0137 71.7017 35.0273 71.5854 35.0273ZM72.8535 35V29.8525H73.4482V35H72.8535ZM76.0938 35.0649C75.041 35.0649 74.4053 34.3267 74.4053 33.1714V33.168C74.4053 32.0298 75.0547 31.2505 76.0562 31.2505C77.0576 31.2505 77.666 31.9956 77.666 33.0962V33.3286H75.0137C75.0308 34.0908 75.4512 34.5352 76.1074 34.5352C76.6064 34.5352 76.9141 34.2993 77.0132 34.0771L77.0269 34.0464H77.6216L77.6147 34.0737C77.4883 34.5728 76.9619 35.0649 76.0938 35.0649ZM76.0527 31.7803C75.5059 31.7803 75.0889 32.1528 75.0239 32.8535H77.061C76.9995 32.1255 76.5962 31.7803 76.0527 31.7803Z" fill="black"/>
<rect x="47.25" y="42" width="152.5" height="12.5" rx="3.25" fill="white" stroke="#D4DBE3" stroke-width="0.5"/>
<path d="M49.6147 68.3662C48.2749 68.3662 47.4375 67.375 47.4375 65.7891V65.7822C47.4375 64.1929 48.2715 63.2017 49.6113 63.2017C50.6504 63.2017 51.4604 63.8545 51.6074 64.8013L51.604 64.8081H50.9854L50.9819 64.8013C50.8179 64.1689 50.2915 63.769 49.6113 63.769C48.6646 63.769 48.0698 64.5483 48.0698 65.7822V65.7891C48.0698 67.0229 48.6646 67.7988 49.6147 67.7988C50.3018 67.7988 50.8247 67.4468 50.9785 66.8794L50.9854 66.8726H51.6074V66.8794C51.4434 67.7817 50.6641 68.3662 49.6147 68.3662ZM53.5762 68.3149C52.8755 68.3149 52.3457 67.8911 52.3457 67.2212V67.2144C52.3457 66.5581 52.8311 66.1787 53.689 66.1274L54.7451 66.0625V65.7275C54.7451 65.2729 54.4683 65.0269 53.918 65.0269C53.4771 65.0269 53.1865 65.1909 53.0908 65.478L53.0874 65.4883H52.4927L52.4961 65.4678C52.5918 64.8901 53.1523 64.5005 53.9385 64.5005C54.8374 64.5005 55.3398 64.9619 55.3398 65.7275V68.25H54.7451V67.7065H54.6904C54.458 68.0996 54.0718 68.3149 53.5762 68.3149ZM52.9541 67.2075C52.9541 67.5801 53.272 67.7988 53.6992 67.7988C54.3042 67.7988 54.7451 67.4023 54.7451 66.876V66.541L53.7607 66.6025C53.2002 66.6367 52.9541 66.835 52.9541 67.2007V67.2075ZM57.7358 68.2773C56.9771 68.2773 56.6592 67.9971 56.6592 67.293V65.0576H56.0781V64.5654H56.6592V63.6118H57.2744V64.5654H58.0811V65.0576H57.2744V67.1426C57.2744 67.5767 57.4248 67.751 57.8076 67.751C57.9136 67.751 57.9717 67.7476 58.0811 67.7373V68.2432C57.9648 68.2637 57.8521 68.2773 57.7358 68.2773ZM60.4189 68.3149C59.3662 68.3149 58.7305 67.5767 58.7305 66.4214V66.418C58.7305 65.2798 59.3799 64.5005 60.3813 64.5005C61.3828 64.5005 61.9912 65.2456 61.9912 66.3462V66.5786H59.3389C59.356 67.3408 59.7764 67.7852 60.4326 67.7852C60.9316 67.7852 61.2393 67.5493 61.3384 67.3271L61.3521 67.2964H61.9468L61.9399 67.3237C61.8135 67.8228 61.2871 68.3149 60.4189 68.3149ZM60.3779 65.0303C59.8311 65.0303 59.4141 65.4028 59.3491 66.1035H61.3862C61.3247 65.3755 60.9214 65.0303 60.3779 65.0303ZM64.4316 69.5488C63.543 69.5488 62.9756 69.1489 62.8833 68.5439L62.8901 68.5405H63.5054L63.5088 68.5439C63.5737 68.8242 63.9019 69.0225 64.4316 69.0225C65.0913 69.0225 65.4844 68.7114 65.4844 68.168V67.4229H65.4297C65.1973 67.8296 64.7803 68.0586 64.2744 68.0586C63.3208 68.0586 62.7295 67.3203 62.7295 66.2881V66.2812C62.7295 65.249 63.3242 64.5005 64.2881 64.5005C64.8076 64.5005 65.2109 64.7568 65.4365 65.1738H65.4775V64.5654H66.0723V68.1987C66.0723 69.0225 65.4365 69.5488 64.4316 69.5488ZM64.4043 67.5322C65.0879 67.5322 65.498 67.0195 65.498 66.2881V66.2812C65.498 65.5498 65.0845 65.0269 64.4043 65.0269C63.7207 65.0269 63.3379 65.5498 63.3379 66.2812V66.2881C63.3379 67.0195 63.7207 67.5322 64.4043 67.5322ZM68.6938 68.3149C67.6445 68.3149 66.9951 67.5903 66.9951 66.4111V66.4043C66.9951 65.2217 67.6445 64.5005 68.6938 64.5005C69.7432 64.5005 70.3926 65.2217 70.3926 66.4043V66.4111C70.3926 67.5903 69.7432 68.3149 68.6938 68.3149ZM68.6938 67.7886C69.3911 67.7886 69.7842 67.2793 69.7842 66.4111V66.4043C69.7842 65.5327 69.3911 65.0269 68.6938 65.0269C67.9966 65.0269 67.6035 65.5327 67.6035 66.4043V66.4111C67.6035 67.2793 67.9966 67.7886 68.6938 67.7886ZM71.3154 68.25V64.5654H71.9102V65.1123H71.9648C72.105 64.7261 72.4502 64.5005 72.9492 64.5005C73.062 64.5005 73.1885 64.5142 73.2466 64.5244V65.1021C73.1235 65.0815 73.0107 65.0679 72.8809 65.0679C72.3135 65.0679 71.9102 65.4268 71.9102 65.9668V68.25H71.3154ZM74.3301 69.542C74.2515 69.542 74.1489 69.5352 74.0669 69.5215V69.0327C74.1387 69.0464 74.231 69.0498 74.313 69.0498C74.6514 69.0498 74.8564 68.896 74.9897 68.4722L75.0581 68.2534L73.6943 64.5654H74.3301L75.3418 67.5972H75.3965L76.4048 64.5654H77.0303L75.5913 68.4756C75.2871 69.3027 74.9829 69.542 74.3301 69.542Z" fill="black"/>
<rect x="47.75" y="75.75" width="152.5" height="12.5" rx="3.25" fill="white" stroke="#D4DBE3" stroke-width="0.5"/>
<path d="M190 81L192 83L194 81" stroke="#979AA9" stroke-width="0.878788"/>
<path d="M47.6289 102V97.0679H49.4883C50.4146 97.0679 51.0708 97.707 51.0708 98.6436V98.6504C51.0708 99.5869 50.4146 100.24 49.4883 100.24H48.2441V102H47.6289ZM49.3311 97.6147H48.2441V99.6929H49.3311C50.0352 99.6929 50.4419 99.3066 50.4419 98.6572V98.6504C50.4419 98.001 50.0352 97.6147 49.3311 97.6147ZM53.4155 102.065C52.3662 102.065 51.7168 101.34 51.7168 100.161V100.154C51.7168 98.9717 52.3662 98.2505 53.4155 98.2505C54.4648 98.2505 55.1143 98.9717 55.1143 100.154V100.161C55.1143 101.34 54.4648 102.065 53.4155 102.065ZM53.4155 101.539C54.1128 101.539 54.5059 101.029 54.5059 100.161V100.154C54.5059 99.2827 54.1128 98.7769 53.4155 98.7769C52.7183 98.7769 52.3252 99.2827 52.3252 100.154V100.161C52.3252 101.029 52.7183 101.539 53.4155 101.539ZM57.3018 102.065C56.4814 102.065 55.9175 101.668 55.8491 101.06H56.4575C56.5566 101.368 56.8506 101.569 57.3223 101.569C57.8179 101.569 58.1699 101.333 58.1699 100.999V100.992C58.1699 100.742 57.9819 100.568 57.5273 100.458L56.9565 100.322C56.2661 100.158 55.9551 99.8569 55.9551 99.3271V99.3237C55.9551 98.7119 56.543 98.2505 57.3257 98.2505C58.0981 98.2505 58.6348 98.6367 58.7168 99.2383H58.1323C58.0537 98.9478 57.7666 98.7461 57.3223 98.7461C56.8848 98.7461 56.5635 98.9717 56.5635 99.2964V99.3032C56.5635 99.5527 56.748 99.71 57.1821 99.8159L57.7495 99.9526C58.4434 100.12 58.7783 100.421 58.7783 100.947V100.954C58.7783 101.61 58.1392 102.065 57.3018 102.065ZM60.9761 102.027C60.2173 102.027 59.8994 101.747 59.8994 101.043V98.8076H59.3184V98.3154H59.8994V97.3618H60.5146V98.3154H61.3213V98.8076H60.5146V100.893C60.5146 101.327 60.665 101.501 61.0479 101.501C61.1538 101.501 61.2119 101.498 61.3213 101.487V101.993C61.2051 102.014 61.0923 102.027 60.9761 102.027ZM64.2539 102V97.0679H65.9458C67.4087 97.0679 68.2734 97.9805 68.2734 99.5288V99.5356C68.2734 101.087 67.4121 102 65.9458 102H64.2539ZM64.8691 101.446H65.9048C67.0054 101.446 67.6445 100.742 67.6445 99.5425V99.5356C67.6445 98.3325 66.9985 97.6216 65.9048 97.6216H64.8691V101.446ZM70.7686 102.065C69.7158 102.065 69.0801 101.327 69.0801 100.171V100.168C69.0801 99.0298 69.7295 98.2505 70.731 98.2505C71.7324 98.2505 72.3408 98.9956 72.3408 100.096V100.329H69.6885C69.7056 101.091 70.126 101.535 70.7822 101.535C71.2812 101.535 71.5889 101.299 71.688 101.077L71.7017 101.046H72.2964L72.2896 101.074C72.1631 101.573 71.6367 102.065 70.7686 102.065ZM70.7275 98.7803C70.1807 98.7803 69.7637 99.1528 69.6987 99.8535H71.7358C71.6743 99.1255 71.271 98.7803 70.7275 98.7803ZM74.5283 102.065C73.708 102.065 73.144 101.668 73.0757 101.06H73.6841C73.7832 101.368 74.0771 101.569 74.5488 101.569C75.0444 101.569 75.3965 101.333 75.3965 100.999V100.992C75.3965 100.742 75.2085 100.568 74.7539 100.458L74.1831 100.322C73.4927 100.158 73.1816 99.8569 73.1816 99.3271V99.3237C73.1816 98.7119 73.7695 98.2505 74.5522 98.2505C75.3247 98.2505 75.8613 98.6367 75.9434 99.2383H75.3589C75.2803 98.9478 74.9932 98.7461 74.5488 98.7461C74.1113 98.7461 73.79 98.9717 73.79 99.2964V99.3032C73.79 99.5527 73.9746 99.71 74.4087 99.8159L74.9761 99.9526C75.6699 100.12 76.0049 100.421 76.0049 100.947V100.954C76.0049 101.61 75.3657 102.065 74.5283 102.065ZM78.4351 102.065C77.4028 102.065 76.7432 101.316 76.7432 100.147V100.141C76.7432 98.9956 77.3994 98.2505 78.4316 98.2505C79.3271 98.2505 79.8638 98.7666 79.9731 99.4229L79.9766 99.4434H79.3853L79.3818 99.4331C79.2896 99.0708 78.9614 98.7769 78.4316 98.7769C77.7686 98.7769 77.3516 99.3101 77.3516 100.141V100.147C77.3516 100.995 77.7754 101.539 78.4316 101.539C78.9272 101.539 79.2417 101.32 79.3784 100.91L79.3853 100.889L79.9731 100.886L79.9663 100.923C79.8159 101.59 79.3203 102.065 78.4351 102.065ZM80.8447 102V98.3154H81.4395V98.8623H81.4941C81.6343 98.4761 81.9795 98.2505 82.4785 98.2505C82.5913 98.2505 82.7178 98.2642 82.7759 98.2744V98.8521C82.6528 98.8315 82.54 98.8179 82.4102 98.8179C81.8428 98.8179 81.4395 99.1768 81.4395 99.7168V102H80.8447ZM83.8252 97.6045C83.5996 97.6045 83.415 97.4199 83.415 97.1943C83.415 96.9688 83.5996 96.7842 83.8252 96.7842C84.0508 96.7842 84.2354 96.9688 84.2354 97.1943C84.2354 97.4199 84.0508 97.6045 83.8252 97.6045ZM83.5244 102V98.3154H84.1191V102H83.5244ZM85.2402 103.23V98.3154H85.835V98.9033H85.8896C86.1152 98.4932 86.5254 98.2505 87.0381 98.2505C87.9712 98.2505 88.583 99.0059 88.583 100.154V100.161C88.583 101.316 87.9746 102.065 87.0381 102.065C86.5322 102.065 86.0913 101.812 85.8896 101.419H85.835V103.23H85.2402ZM86.9014 101.539C87.5747 101.539 87.9746 101.019 87.9746 100.161V100.154C87.9746 99.2964 87.5747 98.7769 86.9014 98.7769C86.2314 98.7769 85.8213 99.3032 85.8213 100.154V100.161C85.8213 101.012 86.2314 101.539 86.9014 101.539ZM90.8218 102.027C90.063 102.027 89.7451 101.747 89.7451 101.043V98.8076H89.1641V98.3154H89.7451V97.3618H90.3604V98.3154H91.167V98.8076H90.3604V100.893C90.3604 101.327 90.5107 101.501 90.8936 101.501C90.9995 101.501 91.0576 101.498 91.167 101.487V101.993C91.0508 102.014 90.938 102.027 90.8218 102.027ZM92.3701 97.6045C92.1445 97.6045 91.96 97.4199 91.96 97.1943C91.96 96.9688 92.1445 96.7842 92.3701 96.7842C92.5957 96.7842 92.7803 96.9688 92.7803 97.1943C92.7803 97.4199 92.5957 97.6045 92.3701 97.6045ZM92.0693 102V98.3154H92.6641V102H92.0693ZM95.2993 102.065C94.25 102.065 93.6006 101.34 93.6006 100.161V100.154C93.6006 98.9717 94.25 98.2505 95.2993 98.2505C96.3486 98.2505 96.998 98.9717 96.998 100.154V100.161C96.998 101.34 96.3486 102.065 95.2993 102.065ZM95.2993 101.539C95.9966 101.539 96.3896 101.029 96.3896 100.161V100.154C96.3896 99.2827 95.9966 98.7769 95.2993 98.7769C94.6021 98.7769 94.209 99.2827 94.209 100.154V100.161C94.209 101.029 94.6021 101.539 95.2993 101.539ZM97.9209 102V98.3154H98.5156V98.8691H98.5703C98.7549 98.4795 99.1001 98.2505 99.6436 98.2505C100.471 98.2505 100.932 98.7393 100.932 99.6143V102H100.337V99.7578C100.337 99.0947 100.064 98.7769 99.4761 98.7769C98.8882 98.7769 98.5156 99.1733 98.5156 99.8193V102H97.9209Z" fill="black"/>
<rect x="47.25" y="109.75" width="152.5" height="32.5" rx="3.25" fill="white" stroke="#D4DBE3" stroke-width="0.5"/>
<path d="M47.6289 159V154.068H50.623V154.622H48.2441V156.317H50.4282V156.864H48.2441V159H47.6289ZM53.0635 159.065C52.0107 159.065 51.375 158.327 51.375 157.171V157.168C51.375 156.03 52.0244 155.25 53.0259 155.25C54.0273 155.25 54.6357 155.996 54.6357 157.096V157.329H51.9834C52.0005 158.091 52.4209 158.535 53.0771 158.535C53.5762 158.535 53.8838 158.299 53.9829 158.077L53.9966 158.046H54.5913L54.5845 158.074C54.458 158.573 53.9316 159.065 53.0635 159.065ZM53.0225 155.78C52.4756 155.78 52.0586 156.153 51.9937 156.854H54.0308C53.9692 156.125 53.5659 155.78 53.0225 155.78ZM56.5703 159.065C55.8696 159.065 55.3398 158.641 55.3398 157.971V157.964C55.3398 157.308 55.8252 156.929 56.6831 156.877L57.7393 156.812V156.478C57.7393 156.023 57.4624 155.777 56.9121 155.777C56.4712 155.777 56.1807 155.941 56.085 156.228L56.0815 156.238H55.4868L55.4902 156.218C55.5859 155.64 56.1465 155.25 56.9326 155.25C57.8315 155.25 58.334 155.712 58.334 156.478V159H57.7393V158.457H57.6846C57.4521 158.85 57.0659 159.065 56.5703 159.065ZM55.9482 157.958C55.9482 158.33 56.2661 158.549 56.6934 158.549C57.2983 158.549 57.7393 158.152 57.7393 157.626V157.291L56.7549 157.353C56.1943 157.387 55.9482 157.585 55.9482 157.951V157.958ZM60.73 159.027C59.9712 159.027 59.6533 158.747 59.6533 158.043V155.808H59.0723V155.315H59.6533V154.362H60.2686V155.315H61.0752V155.808H60.2686V157.893C60.2686 158.327 60.4189 158.501 60.8018 158.501C60.9077 158.501 60.9658 158.498 61.0752 158.487V158.993C60.959 159.014 60.8462 159.027 60.73 159.027ZM63.1978 159.065C62.3604 159.065 61.9297 158.573 61.9297 157.701V155.315H62.5244V157.558C62.5244 158.221 62.7637 158.539 63.3516 158.539C64.001 158.539 64.3462 158.142 64.3462 157.496V155.315H64.9409V159H64.3462V158.45H64.2915C64.1104 158.843 63.7378 159.065 63.1978 159.065ZM66.0518 159V155.315H66.6465V155.862H66.7012C66.8413 155.476 67.1865 155.25 67.6855 155.25C67.7983 155.25 67.9248 155.264 67.9829 155.274V155.852C67.8599 155.832 67.7471 155.818 67.6172 155.818C67.0498 155.818 66.6465 156.177 66.6465 156.717V159H66.0518ZM70.1191 159.065C69.0664 159.065 68.4307 158.327 68.4307 157.171V157.168C68.4307 156.03 69.0801 155.25 70.0815 155.25C71.083 155.25 71.6914 155.996 71.6914 157.096V157.329H69.0391C69.0562 158.091 69.4766 158.535 70.1328 158.535C70.6318 158.535 70.9395 158.299 71.0386 158.077L71.0522 158.046H71.647L71.6401 158.074C71.5137 158.573 70.9873 159.065 70.1191 159.065ZM70.0781 155.78C69.5312 155.78 69.1143 156.153 69.0493 156.854H71.0864C71.0249 156.125 70.6216 155.78 70.0781 155.78ZM74.6582 159V154.068H75.2734V159H74.6582ZM76.4561 159V155.315H77.0508V155.876H77.1055C77.2695 155.479 77.6182 155.25 78.1001 155.25C78.5991 155.25 78.9478 155.514 79.1187 155.896H79.1733C79.3716 155.507 79.792 155.25 80.3013 155.25C81.0532 155.25 81.4736 155.681 81.4736 156.454V159H80.8789V156.59C80.8789 156.047 80.6294 155.777 80.1099 155.777C79.5972 155.777 79.2588 156.163 79.2588 156.631V159H78.6641V156.498C78.6641 156.061 78.3633 155.777 77.8984 155.777C77.4165 155.777 77.0508 156.197 77.0508 156.717V159H76.4561ZM83.5586 159.065C82.8579 159.065 82.3281 158.641 82.3281 157.971V157.964C82.3281 157.308 82.8135 156.929 83.6714 156.877L84.7275 156.812V156.478C84.7275 156.023 84.4507 155.777 83.9004 155.777C83.4595 155.777 83.1689 155.941 83.0732 156.228L83.0698 156.238H82.4751L82.4785 156.218C82.5742 155.64 83.1348 155.25 83.9209 155.25C84.8198 155.25 85.3223 155.712 85.3223 156.478V159H84.7275V158.457H84.6729C84.4404 158.85 84.0542 159.065 83.5586 159.065ZM82.9365 157.958C82.9365 158.33 83.2544 158.549 83.6816 158.549C84.2866 158.549 84.7275 158.152 84.7275 157.626V157.291L83.7432 157.353C83.1826 157.387 82.9365 157.585 82.9365 157.951V157.958ZM87.9268 160.299C87.0381 160.299 86.4707 159.899 86.3784 159.294L86.3853 159.291H87.0005L87.0039 159.294C87.0688 159.574 87.397 159.772 87.9268 159.772C88.5864 159.772 88.9795 159.461 88.9795 158.918V158.173H88.9248C88.6924 158.58 88.2754 158.809 87.7695 158.809C86.8159 158.809 86.2246 158.07 86.2246 157.038V157.031C86.2246 155.999 86.8193 155.25 87.7832 155.25C88.3027 155.25 88.7061 155.507 88.9316 155.924H88.9727V155.315H89.5674V158.949C89.5674 159.772 88.9316 160.299 87.9268 160.299ZM87.8994 158.282C88.583 158.282 88.9932 157.77 88.9932 157.038V157.031C88.9932 156.3 88.5796 155.777 87.8994 155.777C87.2158 155.777 86.833 156.3 86.833 157.031V157.038C86.833 157.77 87.2158 158.282 87.8994 158.282ZM92.1787 159.065C91.126 159.065 90.4902 158.327 90.4902 157.171V157.168C90.4902 156.03 91.1396 155.25 92.1411 155.25C93.1426 155.25 93.751 155.996 93.751 157.096V157.329H91.0986C91.1157 158.091 91.5361 158.535 92.1924 158.535C92.6914 158.535 92.999 158.299 93.0981 158.077L93.1118 158.046H93.7065L93.6997 158.074C93.5732 158.573 93.0469 159.065 92.1787 159.065ZM92.1377 155.78C91.5908 155.78 91.1738 156.153 91.1089 156.854H93.146C93.0845 156.125 92.6812 155.78 92.1377 155.78Z" fill="black"/>
<rect x="100" y="150" width="42" height="14" rx="3" fill="#D1D9E2"/>
<path d="M47.6289 178V173.068H50.6846V173.622H48.2441V175.204H50.5581V175.751H48.2441V177.446H50.6846V178H47.6289ZM51.4297 178L52.6909 176.158L51.416 174.315H52.1167L52.9917 175.686H53.0464L53.9111 174.315H54.5776L53.3267 176.134L54.5947 178H53.8975L53.0259 176.609H52.9712L52.0962 178H51.4297ZM56.731 178.065C55.6987 178.065 55.0391 177.316 55.0391 176.147V176.141C55.0391 174.996 55.6953 174.25 56.7275 174.25C57.623 174.25 58.1597 174.767 58.269 175.423L58.2725 175.443H57.6812L57.6777 175.433C57.5854 175.071 57.2573 174.777 56.7275 174.777C56.0645 174.777 55.6475 175.31 55.6475 176.141V176.147C55.6475 176.995 56.0713 177.539 56.7275 177.539C57.2231 177.539 57.5376 177.32 57.6743 176.91L57.6812 176.889L58.269 176.886L58.2622 176.923C58.1118 177.59 57.6162 178.065 56.731 178.065ZM60.6445 178.065C59.5918 178.065 58.9561 177.327 58.9561 176.171V176.168C58.9561 175.03 59.6055 174.25 60.6069 174.25C61.6084 174.25 62.2168 174.996 62.2168 176.096V176.329H59.5645C59.5815 177.091 60.002 177.535 60.6582 177.535C61.1572 177.535 61.4648 177.299 61.564 177.077L61.5776 177.046H62.1724L62.1655 177.074C62.0391 177.573 61.5127 178.065 60.6445 178.065ZM60.6035 174.78C60.0566 174.78 59.6396 175.153 59.5747 175.854H61.6118C61.5503 175.125 61.147 174.78 60.6035 174.78ZM63.1396 178V174.315H63.7344V174.862H63.7891C63.9292 174.476 64.2744 174.25 64.7734 174.25C64.8862 174.25 65.0127 174.264 65.0708 174.274V174.852C64.9478 174.832 64.835 174.818 64.7051 174.818C64.1377 174.818 63.7344 175.177 63.7344 175.717V178H63.1396ZM65.874 179.23V174.315H66.4688V174.903H66.5234C66.749 174.493 67.1592 174.25 67.6719 174.25C68.605 174.25 69.2168 175.006 69.2168 176.154V176.161C69.2168 177.316 68.6084 178.065 67.6719 178.065C67.166 178.065 66.7251 177.812 66.5234 177.419H66.4688V179.23H65.874ZM67.5352 177.539C68.2085 177.539 68.6084 177.019 68.6084 176.161V176.154C68.6084 175.296 68.2085 174.777 67.5352 174.777C66.8652 174.777 66.4551 175.303 66.4551 176.154V176.161C66.4551 177.012 66.8652 177.539 67.5352 177.539ZM71.4556 178.027C70.6968 178.027 70.3789 177.747 70.3789 177.043V174.808H69.7979V174.315H70.3789V173.362H70.9941V174.315H71.8008V174.808H70.9941V176.893C70.9941 177.327 71.1445 177.501 71.5273 177.501C71.6333 177.501 71.6914 177.498 71.8008 177.487V177.993C71.6846 178.014 71.5718 178.027 71.4556 178.027Z" fill="black"/>
<rect x="47.75" y="185.75" width="152.5" height="32.5" rx="3.25" fill="white" stroke="#D4DBE3" stroke-width="0.5"/>
<defs>
<filter id="filter0_dd_2414_58997" x="0" y="0" width="246" height="249" filterUnits="userSpaceOnUse" color-interpolation-filters="sRGB">
<feFlood flood-opacity="0" result="BackgroundImageFix"/>
<feColorMatrix in="SourceAlpha" type="matrix" values="0 0 0 0 0 0 0 0 0 0 0 0 0 0 0 0 0 0 127 0" result="hardAlpha"/>
<feOffset dy="1"/>
<feGaussianBlur stdDeviation="1"/>
<feColorMatrix type="matrix" values="0 0 0 0 0 0 0 0 0 0 0 0 0 0 0 0 0 0 0.06 0"/>
<feBlend mode="normal" in2="BackgroundImageFix" result="effect1_dropShadow_2414_58997"/>
<feColorMatrix in="SourceAlpha" type="matrix" values="0 0 0 0 0 0 0 0 0 0 0 0 0 0 0 0 0 0 127 0" result="hardAlpha"/>
<feOffset dy="1"/>
<feGaussianBlur stdDeviation="1.5"/>
<feColorMatrix type="matrix" values="0 0 0 0 0 0 0 0 0 0 0 0 0 0 0 0 0 0 0.1 0"/>
<feBlend mode="normal" in2="effect1_dropShadow_2414_58997" result="effect2_dropShadow_2414_58997"/>
<feBlend mode="normal" in="SourceGraphic" in2="effect2_dropShadow_2414_58997" result="shape"/>
</filter>
</defs>
</svg>
