<svg width="246" height="249" viewBox="0 0 246 249" fill="none" xmlns="http://www.w3.org/2000/svg">
<g filter="url(#filter0_dd_2414_58997)">
<path d="M3 10C3 5.58172 6.58172 2 11 2H235C239.418 2 243 5.58172 243 10V237C243 241.418 239.418 245 235 245H11C6.58173 245 3 241.418 3 237V10Z" fill="white"/>
<path d="M3.5 10C3.5 5.85786 6.85786 2.5 11 2.5H235C239.142 2.5 242.5 5.85786 242.5 10V237C242.5 241.142 239.142 244.5 235 244.5H11C6.85787 244.5 3.5 241.142 3.5 237V10Z" stroke="#E2E8F0"/>
</g>
<!-- Header with "PRESS RELEASE" text -->
<rect x="47" y="30" width="152" height="20" rx="4" fill="#F8FAFC"/>
<path d="M88 35H158V45H88V35Z" fill="#E2E8F0"/>
<text x="123" y="42" text-anchor="middle" font-family="system-ui, -apple-system, sans-serif" font-size="10" font-weight="600" fill="#1E293B">PRESS RELEASE</text>
<!-- Headline -->
<rect x="47.25" y="58" width="152.5" height="14" rx="3.25" fill="white" stroke="#D4DBE3" stroke-width="0.5"/>
<rect x="52" y="63" width="80" height="4" rx="1" fill="#CBD5E1"/>
<!-- Subheadline -->
<rect x="47.25" y="78" width="152.5" height="12" rx="3.25" fill="white" stroke="#D4DBE3" stroke-width="0.5"/>
<rect x="52" y="82" width="120" height="3" rx="1" fill="#E2E8F0"/>
<!-- Dateline -->
<rect x="47.25" y="96" width="152.5" height="10" rx="3.25" fill="white" stroke="#D4DBE3" stroke-width="0.5"/>
<rect x="52" y="99" width="60" height="3" rx="1" fill="#E2E8F0"/>
<text x="115" y="102" font-family="system-ui, -apple-system, sans-serif" font-size="8" fill="#64748B">NEW YORK, NY - Date</text>
<!-- Body content -->
<rect x="47.25" y="112" width="152.5" height="40" rx="3.25" fill="white" stroke="#D4DBE3" stroke-width="0.5"/>
<rect x="52" y="117" width="142" height="2" rx="1" fill="#E2E8F0"/>
<rect x="52" y="122" width="142" height="2" rx="1" fill="#E2E8F0"/>
<rect x="52" y="127" width="142" height="2" rx="1" fill="#E2E8F0"/>
<rect x="52" y="132" width="110" height="2" rx="1" fill="#E2E8F0"/>
<rect x="52" y="137" width="142" height="2" rx="1" fill="#E2E8F0"/>
<rect x="52" y="142" width="125" height="2" rx="1" fill="#E2E8F0"/>
<rect x="52" y="147" width="90" height="2" rx="1" fill="#E2E8F0"/>
<!-- Contact section -->
<rect x="47.25" y="158" width="152.5" height="28" rx="3.25" fill="#FAFAFA" stroke="#D4DBE3" stroke-width="0.5"/>
<text x="52" y="168" font-family="system-ui, -apple-system, sans-serif" font-size="8" font-weight="600" fill="#475569">MEDIA CONTACT:</text>
<rect x="52" y="172" width="40" height="2" rx="1" fill="#CBD5E1"/>
<rect x="95" y="172" width="50" height="2" rx="1" fill="#CBD5E1"/>
<rect x="52" y="177" width="60" height="2" rx="1" fill="#CBD5E1"/>
<rect x="115" y="177" width="35" height="2" rx="1" fill="#CBD5E1"/>
<!-- Company logo placeholder -->
<rect x="47.25" y="192" width="40" height="40" rx="4" fill="#F1F5F9" stroke="#D4DBE3" stroke-width="0.5"/>
<circle cx="67.25" cy="212" r="8" fill="#CBD5E1"/>
<path d="M67.25 208L71.25 216H63.25L67.25 208Z" fill="#94A3B8"/>
<!-- Embargo/Release info -->
<rect x="100" y="192" width="99.5" height="20" rx="3.25" fill="white" stroke="#D4DBE3" stroke-width="0.5"/>
<text x="105" y="200" font-family="system-ui, -apple-system, sans-serif" font-size="7" fill="#64748B">FOR IMMEDIATE RELEASE</text>
<rect x="105" y="204" width="60" height="2" rx="1" fill="#E2E8F0"/>
<!-- Video/Media attachments icon -->
<rect x="100" y="218" width="30" height="14" rx="3" fill="#E2E8F0"/>
<path d="M111 223L118 225.5L111 228V223Z" fill="#64748B"/>
<rect x="135" y="218" width="30" height="14" rx="3" fill="#E2E8F0"/>
<path d="M147 223H153V227H147V223Z" fill="#64748B" stroke="#64748B" stroke-width="0.5"/>
<path d="M149 222L152 223V227" stroke="#64748B" stroke-width="0.5"/>
<rect x="170" y="218" width="29.5" height="14" rx="3" fill="#E2E8F0"/>
<circle cx="185" cy="225" r="5" stroke="#64748B" stroke-width="0.8"/>
<circle cx="185" cy="225" r="2" fill="#64748B"/>
<defs>
<filter id="filter0_dd_2414_58997" x="0" y="0" width="246" height="249" filterUnits="userSpaceOnUse" color-interpolation-filters="sRGB">
<feFlood flood-opacity="0" result="BackgroundImageFix"/>
<feColorMatrix in="SourceAlpha" type="matrix" values="0 0 0 0 0 0 0 0 0 0 0 0 0 0 0 0 0 0 127 0" result="hardAlpha"/>
<feOffset dy="1"/>
<feGaussianBlur stdDeviation="1"/>
<feColorMatrix type="matrix" values="0 0 0 0 0 0 0 0 0 0 0 0 0 0 0 0 0 0 0.06 0"/>
<feBlend mode="normal" in2="BackgroundImageFix" result="effect1_dropShadow_2414_58997"/>
<feColorMatrix in="SourceAlpha" type="matrix" values="0 0 0 0 0 0 0 0 0 0 0 0 0 0 0 0 0 0 127 0" result="hardAlpha"/>
<feOffset dy="1"/>
<feGaussianBlur stdDeviation="1.5"/>
<feColorMatrix type="matrix" values="0 0 0 0 0 0 0 0 0 0 0 0 0 0 0 0 0 0 0.1 0"/>
<feBlend mode="normal" in2="effect1_dropShadow_2414_58997" result="effect2_dropShadow_2414_58997"/>
<feBlend mode="normal" in="SourceGraphic" in2="effect2_dropShadow_2414_58997" result="shape"/>
</filter>
</defs>
</svg>