<svg width="246" height="249" viewBox="0 0 246 249" fill="none" xmlns="http://www.w3.org/2000/svg">
<g filter="url(#filter0_dd_video)">
<path d="M3 10C3 5.58172 6.58172 2 11 2H235C239.418 2 243 5.58172 243 10V237C243 241.418 239.418 245 235 245H11C6.58173 245 3 241.418 3 237V10Z" fill="white"/>
<path d="M3.5 10C3.5 5.85786 6.85786 2.5 11 2.5H235C239.142 2.5 242.5 5.85786 242.5 10V237C242.5 241.142 239.142 244.5 235 244.5H11C6.85787 244.5 3.5 241.142 3.5 237V10Z" stroke="#E2E8F0"/>
</g>
<!-- Video Player Container -->
<rect x="47" y="30" width="152" height="86" rx="4" fill="#1E293B"/>
<!-- Play Button -->
<circle cx="123" cy="73" r="20" fill="white" fill-opacity="0.9"/>
<path d="M117 63L133 73L117 83V63Z" fill="#1E293B"/>
<!-- Video Title Field -->
<rect x="47.25" y="124" width="152.5" height="12.5" rx="3.25" fill="white" stroke="#D4DBE3" stroke-width="0.5"/>
<rect x="52" y="128" width="80" height="4" rx="1" fill="#CBD5E1"/>
<!-- Video URL Field -->
<rect x="47.25" y="142" width="152.5" height="12.5" rx="3.25" fill="white" stroke="#D4DBE3" stroke-width="0.5"/>
<rect x="52" y="146" width="40" height="4" rx="1" fill="#CBD5E1"/>
<text x="95" y="149.5" font-family="system-ui, -apple-system, sans-serif" font-size="8" fill="#64748B">youtube.com/watch?v=...</text>
<!-- Description Field -->
<rect x="47.25" y="160" width="152.5" height="32" rx="3.25" fill="white" stroke="#D4DBE3" stroke-width="0.5"/>
<rect x="52" y="165" width="142" height="2" rx="1" fill="#E2E8F0"/>
<rect x="52" y="170" width="142" height="2" rx="1" fill="#E2E8F0"/>
<rect x="52" y="175" width="110" height="2" rx="1" fill="#E2E8F0"/>
<rect x="52" y="180" width="125" height="2" rx="1" fill="#E2E8F0"/>
<rect x="52" y="185" width="90" height="2" rx="1" fill="#E2E8F0"/>
<!-- Category Dropdown -->
<rect x="47.25" y="198" width="72" height="12.5" rx="3.25" fill="white" stroke="#D4DBE3" stroke-width="0.5"/>
<rect x="52" y="202" width="40" height="4" rx="1" fill="#CBD5E1"/>
<path d="M110 202L112 204L114 202" stroke="#979AA9" stroke-width="0.878788"/>
<!-- Tags Field -->
<rect x="127.25" y="198" width="72" height="12.5" rx="3.25" fill="white" stroke="#D4DBE3" stroke-width="0.5"/>
<rect x="132" y="202" width="30" height="4" rx="1" fill="#E2E8F0"/>
<rect x="165" y="202" width="20" height="4" rx="1" fill="#E2E8F0"/>
<!-- Thumbnail Upload -->
<rect x="47.25" y="216" width="60" height="20" rx="3.25" fill="#F8FAFC" stroke="#D4DBE3" stroke-width="0.5"/>
<rect x="52" y="221" width="50" height="10" rx="2" fill="#E2E8F0"/>
<circle cx="57" cy="226" r="2" fill="#94A3B8"/>
<path d="M61 224L64 228H58L61 224Z" fill="#94A3B8"/>
<!-- Credit Field -->
<rect x="113.25" y="216" width="86" height="20" rx="3.25" fill="white" stroke="#D4DBE3" stroke-width="0.5"/>
<rect x="118" y="221" width="50" height="2" rx="1" fill="#CBD5E1"/>
<rect x="118" y="226" width="35" height="2" rx="1" fill="#CBD5E1"/>
<rect x="118" y="231" width="60" height="2" rx="1" fill="#CBD5E1"/>
<defs>
<filter id="filter0_dd_video" x="0" y="0" width="246" height="249" filterUnits="userSpaceOnUse" color-interpolation-filters="sRGB">
<feFlood flood-opacity="0" result="BackgroundImageFix"/>
<feColorMatrix in="SourceAlpha" type="matrix" values="0 0 0 0 0 0 0 0 0 0 0 0 0 0 0 0 0 0 127 0" result="hardAlpha"/>
<feOffset dy="1"/>
<feGaussianBlur stdDeviation="1"/>
<feColorMatrix type="matrix" values="0 0 0 0 0 0 0 0 0 0 0 0 0 0 0 0 0 0 0.06 0"/>
<feBlend mode="normal" in2="BackgroundImageFix" result="effect1_dropShadow"/>
<feColorMatrix in="SourceAlpha" type="matrix" values="0 0 0 0 0 0 0 0 0 0 0 0 0 0 0 0 0 0 127 0" result="hardAlpha"/>
<feOffset dy="1"/>
<feGaussianBlur stdDeviation="1.5"/>
<feColorMatrix type="matrix" values="0 0 0 0 0 0 0 0 0 0 0 0 0 0 0 0 0 0 0.1 0"/>
<feBlend mode="normal" in2="effect1_dropShadow" result="effect2_dropShadow"/>
<feBlend mode="normal" in="SourceGraphic" in2="effect2_dropShadow" result="shape"/>
</filter>
</defs>
</svg>