<svg width="246" height="249" viewBox="0 0 246 249" fill="none" xmlns="http://www.w3.org/2000/svg">
<g filter="url(#filter0_dd_2414_59022)">
<path d="M3 10C3 5.58172 6.58172 2 11 2H235C239.418 2 243 5.58172 243 10V237C243 241.418 239.418 245 235 245H11C6.58173 245 3 241.418 3 237V10Z" fill="white"/>
<path d="M3.5 10C3.5 5.85786 6.85786 2.5 11 2.5H235C239.142 2.5 242.5 5.85786 242.5 10V237C242.5 241.142 239.142 244.5 235 244.5H11C6.85787 244.5 3.5 241.142 3.5 237V10Z" stroke="#E2E8F0"/>
</g>
<path d="M47.6289 35V30.0679H49.4883C50.4146 30.0679 51.0708 30.707 51.0708 31.6436V31.6504C51.0708 32.5869 50.4146 33.2397 49.4883 33.2397H48.2441V35H47.6289ZM49.3311 30.6147H48.2441V32.6929H49.3311C50.0352 32.6929 50.4419 32.3066 50.4419 31.6572V31.6504C50.4419 31.001 50.0352 30.6147 49.3311 30.6147ZM52.0039 35V31.3154H52.5986V31.8623H52.6533C52.7935 31.4761 53.1387 31.2505 53.6377 31.2505C53.7505 31.2505 53.877 31.2642 53.9351 31.2744V31.8521C53.812 31.8315 53.6992 31.8179 53.5693 31.8179C53.002 31.8179 52.5986 32.1768 52.5986 32.7168V35H52.0039ZM56.0815 35.0649C55.0322 35.0649 54.3828 34.3403 54.3828 33.1611V33.1543C54.3828 31.9717 55.0322 31.2505 56.0815 31.2505C57.1309 31.2505 57.7803 31.9717 57.7803 33.1543V33.1611C57.7803 34.3403 57.1309 35.0649 56.0815 35.0649ZM56.0815 34.5386C56.7788 34.5386 57.1719 34.0293 57.1719 33.1611V33.1543C57.1719 32.2827 56.7788 31.7769 56.0815 31.7769C55.3843 31.7769 54.9912 32.2827 54.9912 33.1543V33.1611C54.9912 34.0293 55.3843 34.5386 56.0815 34.5386ZM60.0635 35.0649C59.1304 35.0649 58.5186 34.3096 58.5186 33.1611V33.1543C58.5186 31.999 59.127 31.2505 60.0635 31.2505C60.5693 31.2505 61.0103 31.5034 61.2119 31.8965H61.2666V29.8525H61.8613V35H61.2666V34.4121H61.2119C60.9863 34.8223 60.5762 35.0649 60.0635 35.0649ZM60.2002 34.5386C60.8701 34.5386 61.2803 34.0122 61.2803 33.1611V33.1543C61.2803 32.3032 60.8701 31.7769 60.2002 31.7769C59.5269 31.7769 59.127 32.2964 59.127 33.1543V33.1611C59.127 34.019 59.5269 34.5386 60.2002 34.5386ZM64.2368 35.0649C63.3994 35.0649 62.9688 34.5728 62.9688 33.7012V31.3154H63.5635V33.5576C63.5635 34.2207 63.8027 34.5386 64.3906 34.5386C65.04 34.5386 65.3853 34.1421 65.3853 33.4961V31.3154H65.98V35H65.3853V34.4497H65.3306C65.1494 34.8428 64.7769 35.0649 64.2368 35.0649ZM68.5981 35.0649C67.5659 35.0649 66.9062 34.3164 66.9062 33.1475V33.1406C66.9062 31.9956 67.5625 31.2505 68.5947 31.2505C69.4902 31.2505 70.0269 31.7666 70.1362 32.4229L70.1396 32.4434H69.5483L69.5449 32.4331C69.4526 32.0708 69.1245 31.7769 68.5947 31.7769C67.9316 31.7769 67.5146 32.3101 67.5146 33.1406V33.1475C67.5146 33.9951 67.9385 34.5386 68.5947 34.5386C69.0903 34.5386 69.4048 34.3198 69.5415 33.9097L69.5483 33.8892L70.1362 33.8857L70.1294 33.9233C69.979 34.5898 69.4834 35.0649 68.5981 35.0649ZM72.3853 35.0273C71.6265 35.0273 71.3086 34.7471 71.3086 34.043V31.8076H70.7275V31.3154H71.3086V30.3618H71.9238V31.3154H72.7305V31.8076H71.9238V33.8926C71.9238 34.3267 72.0742 34.501 72.457 34.501C72.563 34.501 72.6211 34.4976 72.7305 34.4873V34.9932C72.6143 35.0137 72.5015 35.0273 72.3853 35.0273ZM75.6631 35V30.0679H76.2612L78.9375 33.9062H78.9922V30.0679H79.6006V35H79.0024L76.3262 31.1753H76.2715V35H75.6631ZM81.7949 35.0649C81.0942 35.0649 80.5645 34.6411 80.5645 33.9712V33.9644C80.5645 33.3081 81.0498 32.9287 81.9077 32.8774L82.9639 32.8125V32.4775C82.9639 32.0229 82.687 31.7769 82.1367 31.7769C81.6958 31.7769 81.4053 31.9409 81.3096 32.228L81.3062 32.2383H80.7114L80.7148 32.2178C80.8105 31.6401 81.3711 31.2505 82.1572 31.2505C83.0562 31.2505 83.5586 31.7119 83.5586 32.4775V35H82.9639V34.4565H82.9092C82.6768 34.8496 82.2905 35.0649 81.7949 35.0649ZM81.1729 33.9575C81.1729 34.3301 81.4907 34.5488 81.918 34.5488C82.5229 34.5488 82.9639 34.1523 82.9639 33.626V33.291L81.9795 33.3525C81.4189 33.3867 81.1729 33.585 81.1729 33.9507V33.9575ZM84.6455 35V31.3154H85.2402V31.876H85.2949C85.459 31.4795 85.8076 31.2505 86.2896 31.2505C86.7886 31.2505 87.1372 31.5137 87.3081 31.8965H87.3628C87.561 31.5068 87.9814 31.2505 88.4907 31.2505C89.2427 31.2505 89.6631 31.6812 89.6631 32.4536V35H89.0684V32.5903C89.0684 32.0469 88.8188 31.7769 88.2993 31.7769C87.7866 31.7769 87.4482 32.1631 87.4482 32.6313V35H86.8535V32.498C86.8535 32.0605 86.5527 31.7769 86.0879 31.7769C85.606 31.7769 85.2402 32.1973 85.2402 32.7168V35H84.6455ZM92.2402 35.0649C91.1875 35.0649 90.5518 34.3267 90.5518 33.1714V33.168C90.5518 32.0298 91.2012 31.2505 92.2026 31.2505C93.2041 31.2505 93.8125 31.9956 93.8125 33.0962V33.3286H91.1602C91.1772 34.0908 91.5977 34.5352 92.2539 34.5352C92.7529 34.5352 93.0605 34.2993 93.1597 34.0771L93.1733 34.0464H93.7681L93.7612 34.0737C93.6348 34.5728 93.1084 35.0649 92.2402 35.0649ZM92.1992 31.7803C91.6523 31.7803 91.2354 32.1528 91.1704 32.8535H93.2075C93.146 32.1255 92.7427 31.7803 92.1992 31.7803Z" fill="black"/>
<rect x="47.25" y="42" width="152.5" height="12.5" rx="3.25" fill="white" stroke="#D4DBE3" stroke-width="0.5"/>
<path d="M47.6289 68.25V63.3179H49.4883C50.4146 63.3179 51.0708 63.957 51.0708 64.8936V64.9004C51.0708 65.8369 50.4146 66.4897 49.4883 66.4897H48.2441V68.25H47.6289ZM49.3311 63.8647H48.2441V65.9429H49.3311C50.0352 65.9429 50.4419 65.5566 50.4419 64.9072V64.9004C50.4419 64.251 50.0352 63.8647 49.3311 63.8647ZM52.0039 68.25V64.5654H52.5986V65.1123H52.6533C52.7935 64.7261 53.1387 64.5005 53.6377 64.5005C53.7505 64.5005 53.877 64.5142 53.9351 64.5244V65.1021C53.812 65.0815 53.6992 65.0679 53.5693 65.0679C53.002 65.0679 52.5986 65.4268 52.5986 65.9668V68.25H52.0039ZM56.0815 68.3149C55.0322 68.3149 54.3828 67.5903 54.3828 66.4111V66.4043C54.3828 65.2217 55.0322 64.5005 56.0815 64.5005C57.1309 64.5005 57.7803 65.2217 57.7803 66.4043V66.4111C57.7803 67.5903 57.1309 68.3149 56.0815 68.3149ZM56.0815 67.7886C56.7788 67.7886 57.1719 67.2793 57.1719 66.4111V66.4043C57.1719 65.5327 56.7788 65.0269 56.0815 65.0269C55.3843 65.0269 54.9912 65.5327 54.9912 66.4043V66.4111C54.9912 67.2793 55.3843 67.7886 56.0815 67.7886ZM60.0635 68.3149C59.1304 68.3149 58.5186 67.5596 58.5186 66.4111V66.4043C58.5186 65.249 59.127 64.5005 60.0635 64.5005C60.5693 64.5005 61.0103 64.7534 61.2119 65.1465H61.2666V63.1025H61.8613V68.25H61.2666V67.6621H61.2119C60.9863 68.0723 60.5762 68.3149 60.0635 68.3149ZM60.2002 67.7886C60.8701 67.7886 61.2803 67.2622 61.2803 66.4111V66.4043C61.2803 65.5532 60.8701 65.0269 60.2002 65.0269C59.5269 65.0269 59.127 65.5464 59.127 66.4043V66.4111C59.127 67.269 59.5269 67.7886 60.2002 67.7886ZM64.2368 68.3149C63.3994 68.3149 62.9688 67.8228 62.9688 66.9512V64.5654H63.5635V66.8076C63.5635 67.4707 63.8027 67.7886 64.3906 67.7886C65.04 67.7886 65.3853 67.3921 65.3853 66.7461V64.5654H65.98V68.25H65.3853V67.6997H65.3306C65.1494 68.0928 64.7769 68.3149 64.2368 68.3149ZM68.5981 68.3149C67.5659 68.3149 66.9062 67.5664 66.9062 66.3975V66.3906C66.9062 65.2456 67.5625 64.5005 68.5947 64.5005C69.4902 64.5005 70.0269 65.0166 70.1362 65.6729L70.1396 65.6934H69.5483L69.5449 65.6831C69.4526 65.3208 69.1245 65.0269 68.5947 65.0269C67.9316 65.0269 67.5146 65.5601 67.5146 66.3906V66.3975C67.5146 67.2451 67.9385 67.7886 68.5947 67.7886C69.0903 67.7886 69.4048 67.5698 69.5415 67.1597L69.5483 67.1392L70.1362 67.1357L70.1294 67.1733C69.979 67.8398 69.4834 68.3149 68.5981 68.3149ZM72.3853 68.2773C71.6265 68.2773 71.3086 67.9971 71.3086 67.293V65.0576H70.7275V64.5654H71.3086V63.6118H71.9238V64.5654H72.7305V65.0576H71.9238V67.1426C71.9238 67.5767 72.0742 67.751 72.457 67.751C72.563 67.751 72.6211 67.7476 72.7305 67.7373V68.2432C72.6143 68.2637 72.5015 68.2773 72.3853 68.2773ZM77.6489 68.3662C76.3091 68.3662 75.4717 67.375 75.4717 65.7891V65.7822C75.4717 64.1929 76.3057 63.2017 77.6455 63.2017C78.6846 63.2017 79.4946 63.8545 79.6416 64.8013L79.6382 64.8081H79.0195L79.0161 64.8013C78.8521 64.1689 78.3257 63.769 77.6455 63.769C76.6987 63.769 76.104 64.5483 76.104 65.7822V65.7891C76.104 67.0229 76.6987 67.7988 77.6489 67.7988C78.3359 67.7988 78.8589 67.4468 79.0127 66.8794L79.0195 66.8726H79.6416V66.8794C79.4775 67.7817 78.6982 68.3662 77.6489 68.3662ZM81.6104 68.3149C80.9097 68.3149 80.3799 67.8911 80.3799 67.2212V67.2144C80.3799 66.5581 80.8652 66.1787 81.7231 66.1274L82.7793 66.0625V65.7275C82.7793 65.2729 82.5024 65.0269 81.9521 65.0269C81.5112 65.0269 81.2207 65.1909 81.125 65.478L81.1216 65.4883H80.5269L80.5303 65.4678C80.626 64.8901 81.1865 64.5005 81.9727 64.5005C82.8716 64.5005 83.374 64.9619 83.374 65.7275V68.25H82.7793V67.7065H82.7246C82.4922 68.0996 82.106 68.3149 81.6104 68.3149ZM80.9883 67.2075C80.9883 67.5801 81.3062 67.7988 81.7334 67.7988C82.3384 67.7988 82.7793 67.4023 82.7793 66.876V66.541L81.7949 66.6025C81.2344 66.6367 80.9883 66.835 80.9883 67.2007V67.2075ZM85.77 68.2773C85.0112 68.2773 84.6934 67.9971 84.6934 67.293V65.0576H84.1123V64.5654H84.6934V63.6118H85.3086V64.5654H86.1152V65.0576H85.3086V67.1426C85.3086 67.5767 85.459 67.751 85.8418 67.751C85.9478 67.751 86.0059 67.7476 86.1152 67.7373V68.2432C85.999 68.2637 85.8862 68.2773 85.77 68.2773ZM88.4531 68.3149C87.4004 68.3149 86.7646 67.5767 86.7646 66.4214V66.418C86.7646 65.2798 87.4141 64.5005 88.4155 64.5005C89.417 64.5005 90.0254 65.2456 90.0254 66.3462V66.5786H87.373C87.3901 67.3408 87.8105 67.7852 88.4668 67.7852C88.9658 67.7852 89.2734 67.5493 89.3726 67.3271L89.3862 67.2964H89.981L89.9741 67.3237C89.8477 67.8228 89.3213 68.3149 88.4531 68.3149ZM88.4121 65.0303C87.8652 65.0303 87.4482 65.4028 87.3833 66.1035H89.4204C89.3589 65.3755 88.9556 65.0303 88.4121 65.0303ZM92.4658 69.5488C91.5771 69.5488 91.0098 69.1489 90.9175 68.5439L90.9243 68.5405H91.5396L91.543 68.5439C91.6079 68.8242 91.936 69.0225 92.4658 69.0225C93.1255 69.0225 93.5186 68.7114 93.5186 68.168V67.4229H93.4639C93.2314 67.8296 92.8145 68.0586 92.3086 68.0586C91.355 68.0586 90.7637 67.3203 90.7637 66.2881V66.2812C90.7637 65.249 91.3584 64.5005 92.3223 64.5005C92.8418 64.5005 93.2451 64.7568 93.4707 65.1738H93.5117V64.5654H94.1064V68.1987C94.1064 69.0225 93.4707 69.5488 92.4658 69.5488ZM92.4385 67.5322C93.1221 67.5322 93.5322 67.0195 93.5322 66.2881V66.2812C93.5322 65.5498 93.1187 65.0269 92.4385 65.0269C91.7549 65.0269 91.3721 65.5498 91.3721 66.2812V66.2881C91.3721 67.0195 91.7549 67.5322 92.4385 67.5322ZM96.728 68.3149C95.6787 68.3149 95.0293 67.5903 95.0293 66.4111V66.4043C95.0293 65.2217 95.6787 64.5005 96.728 64.5005C97.7773 64.5005 98.4268 65.2217 98.4268 66.4043V66.4111C98.4268 67.5903 97.7773 68.3149 96.728 68.3149ZM96.728 67.7886C97.4253 67.7886 97.8184 67.2793 97.8184 66.4111V66.4043C97.8184 65.5327 97.4253 65.0269 96.728 65.0269C96.0308 65.0269 95.6377 65.5327 95.6377 66.4043V66.4111C95.6377 67.2793 96.0308 67.7886 96.728 67.7886ZM99.3496 68.25V64.5654H99.9443V65.1123H99.999C100.139 64.7261 100.484 64.5005 100.983 64.5005C101.096 64.5005 101.223 64.5142 101.281 64.5244V65.1021C101.158 65.0815 101.045 65.0679 100.915 65.0679C100.348 65.0679 99.9443 65.4268 99.9443 65.9668V68.25H99.3496ZM102.364 69.542C102.286 69.542 102.183 69.5352 102.101 69.5215V69.0327C102.173 69.0464 102.265 69.0498 102.347 69.0498C102.686 69.0498 102.891 68.896 103.024 68.4722L103.092 68.2534L101.729 64.5654H102.364L103.376 67.5972H103.431L104.439 64.5654H105.064L103.625 68.4756C103.321 69.3027 103.017 69.542 102.364 69.542Z" fill="black"/>
<rect x="47.75" y="75.75" width="152.5" height="12.5" rx="3.25" fill="white" stroke="#D4DBE3" stroke-width="0.5"/>
<path d="M190 81L192 83L194 81" stroke="#979AA9" stroke-width="0.878788"/>
<path d="M47.6289 102V97.0679H49.4883C50.4146 97.0679 51.0708 97.707 51.0708 98.6436V98.6504C51.0708 99.5869 50.4146 100.24 49.4883 100.24H48.2441V102H47.6289ZM49.3311 97.6147H48.2441V99.6929H49.3311C50.0352 99.6929 50.4419 99.3066 50.4419 98.6572V98.6504C50.4419 98.001 50.0352 97.6147 49.3311 97.6147ZM52.0039 102V98.3154H52.5986V98.8623H52.6533C52.7935 98.4761 53.1387 98.2505 53.6377 98.2505C53.7505 98.2505 53.877 98.2642 53.9351 98.2744V98.8521C53.812 98.8315 53.6992 98.8179 53.5693 98.8179C53.002 98.8179 52.5986 99.1768 52.5986 99.7168V102H52.0039ZM56.0815 102.065C55.0322 102.065 54.3828 101.34 54.3828 100.161V100.154C54.3828 98.9717 55.0322 98.2505 56.0815 98.2505C57.1309 98.2505 57.7803 98.9717 57.7803 100.154V100.161C57.7803 101.34 57.1309 102.065 56.0815 102.065ZM56.0815 101.539C56.7788 101.539 57.1719 101.029 57.1719 100.161V100.154C57.1719 99.2827 56.7788 98.7769 56.0815 98.7769C55.3843 98.7769 54.9912 99.2827 54.9912 100.154V100.161C54.9912 101.029 55.3843 101.539 56.0815 101.539ZM60.0635 102.065C59.1304 102.065 58.5186 101.31 58.5186 100.161V100.154C58.5186 98.999 59.127 98.2505 60.0635 98.2505C60.5693 98.2505 61.0103 98.5034 61.2119 98.8965H61.2666V96.8525H61.8613V102H61.2666V101.412H61.2119C60.9863 101.822 60.5762 102.065 60.0635 102.065ZM60.2002 101.539C60.8701 101.539 61.2803 101.012 61.2803 100.161V100.154C61.2803 99.3032 60.8701 98.7769 60.2002 98.7769C59.5269 98.7769 59.127 99.2964 59.127 100.154V100.161C59.127 101.019 59.5269 101.539 60.2002 101.539ZM64.2368 102.065C63.3994 102.065 62.9688 101.573 62.9688 100.701V98.3154H63.5635V100.558C63.5635 101.221 63.8027 101.539 64.3906 101.539C65.04 101.539 65.3853 101.142 65.3853 100.496V98.3154H65.98V102H65.3853V101.45H65.3306C65.1494 101.843 64.7769 102.065 64.2368 102.065ZM68.5981 102.065C67.5659 102.065 66.9062 101.316 66.9062 100.147V100.141C66.9062 98.9956 67.5625 98.2505 68.5947 98.2505C69.4902 98.2505 70.0269 98.7666 70.1362 99.4229L70.1396 99.4434H69.5483L69.5449 99.4331C69.4526 99.0708 69.1245 98.7769 68.5947 98.7769C67.9316 98.7769 67.5146 99.3101 67.5146 100.141V100.147C67.5146 100.995 67.9385 101.539 68.5947 101.539C69.0903 101.539 69.4048 101.32 69.5415 100.91L69.5483 100.889L70.1362 100.886L70.1294 100.923C69.979 101.59 69.4834 102.065 68.5981 102.065ZM72.3853 102.027C71.6265 102.027 71.3086 101.747 71.3086 101.043V98.8076H70.7275V98.3154H71.3086V97.3618H71.9238V98.3154H72.7305V98.8076H71.9238V100.893C71.9238 101.327 72.0742 101.501 72.457 101.501C72.563 101.501 72.6211 101.498 72.7305 101.487V101.993C72.6143 102.014 72.5015 102.027 72.3853 102.027ZM77.6318 102V97.0679H79.3237C80.7866 97.0679 81.6514 97.9805 81.6514 99.5288V99.5356C81.6514 101.087 80.79 102 79.3237 102H77.6318ZM78.2471 101.446H79.2827C80.3833 101.446 81.0225 100.742 81.0225 99.5425V99.5356C81.0225 98.3325 80.3765 97.6216 79.2827 97.6216H78.2471V101.446ZM84.1465 102.065C83.0938 102.065 82.458 101.327 82.458 100.171V100.168C82.458 99.0298 83.1074 98.2505 84.1089 98.2505C85.1104 98.2505 85.7188 98.9956 85.7188 100.096V100.329H83.0664C83.0835 101.091 83.5039 101.535 84.1602 101.535C84.6592 101.535 84.9668 101.299 85.0659 101.077L85.0796 101.046H85.6743L85.6675 101.074C85.541 101.573 85.0146 102.065 84.1465 102.065ZM84.1055 98.7803C83.5586 98.7803 83.1416 99.1528 83.0767 99.8535H85.1138C85.0522 99.1255 84.6489 98.7803 84.1055 98.7803ZM87.9062 102.065C87.0859 102.065 86.522 101.668 86.4536 101.06H87.062C87.1611 101.368 87.4551 101.569 87.9268 101.569C88.4224 101.569 88.7744 101.333 88.7744 100.999V100.992C88.7744 100.742 88.5864 100.568 88.1318 100.458L87.561 100.322C86.8706 100.158 86.5596 99.8569 86.5596 99.3271V99.3237C86.5596 98.7119 87.1475 98.2505 87.9302 98.2505C88.7026 98.2505 89.2393 98.6367 89.3213 99.2383H88.7368C88.6582 98.9478 88.3711 98.7461 87.9268 98.7461C87.4893 98.7461 87.168 98.9717 87.168 99.2964V99.3032C87.168 99.5527 87.3525 99.71 87.7866 99.8159L88.354 99.9526C89.0479 100.12 89.3828 100.421 89.3828 100.947V100.954C89.3828 101.61 88.7437 102.065 87.9062 102.065ZM91.813 102.065C90.7808 102.065 90.1211 101.316 90.1211 100.147V100.141C90.1211 98.9956 90.7773 98.2505 91.8096 98.2505C92.7051 98.2505 93.2417 98.7666 93.3511 99.4229L93.3545 99.4434H92.7632L92.7598 99.4331C92.6675 99.0708 92.3394 98.7769 91.8096 98.7769C91.1465 98.7769 90.7295 99.3101 90.7295 100.141V100.147C90.7295 100.995 91.1533 101.539 91.8096 101.539C92.3052 101.539 92.6196 101.32 92.7563 100.91L92.7632 100.889L93.3511 100.886L93.3442 100.923C93.1938 101.59 92.6982 102.065 91.813 102.065ZM94.2227 102V98.3154H94.8174V98.8623H94.8721C95.0122 98.4761 95.3574 98.2505 95.8564 98.2505C95.9692 98.2505 96.0957 98.2642 96.1538 98.2744V98.8521C96.0308 98.8315 95.918 98.8179 95.7881 98.8179C95.2207 98.8179 94.8174 99.1768 94.8174 99.7168V102H94.2227ZM97.2031 97.6045C96.9775 97.6045 96.793 97.4199 96.793 97.1943C96.793 96.9688 96.9775 96.7842 97.2031 96.7842C97.4287 96.7842 97.6133 96.9688 97.6133 97.1943C97.6133 97.4199 97.4287 97.6045 97.2031 97.6045ZM96.9023 102V98.3154H97.4971V102H96.9023ZM98.6182 103.23V98.3154H99.2129V98.9033H99.2676C99.4932 98.4932 99.9033 98.2505 100.416 98.2505C101.349 98.2505 101.961 99.0059 101.961 100.154V100.161C101.961 101.316 101.353 102.065 100.416 102.065C99.9102 102.065 99.4692 101.812 99.2676 101.419H99.2129V103.23H98.6182ZM100.279 101.539C100.953 101.539 101.353 101.019 101.353 100.161V100.154C101.353 99.2964 100.953 98.7769 100.279 98.7769C99.6094 98.7769 99.1992 99.3032 99.1992 100.154V100.161C99.1992 101.012 99.6094 101.539 100.279 101.539ZM104.2 102.027C103.441 102.027 103.123 101.747 103.123 101.043V98.8076H102.542V98.3154H103.123V97.3618H103.738V98.3154H104.545V98.8076H103.738V100.893C103.738 101.327 103.889 101.501 104.271 101.501C104.377 101.501 104.436 101.498 104.545 101.487V101.993C104.429 102.014 104.316 102.027 104.2 102.027ZM105.748 97.6045C105.522 97.6045 105.338 97.4199 105.338 97.1943C105.338 96.9688 105.522 96.7842 105.748 96.7842C105.974 96.7842 106.158 96.9688 106.158 97.1943C106.158 97.4199 105.974 97.6045 105.748 97.6045ZM105.447 102V98.3154H106.042V102H105.447ZM108.677 102.065C107.628 102.065 106.979 101.34 106.979 100.161V100.154C106.979 98.9717 107.628 98.2505 108.677 98.2505C109.727 98.2505 110.376 98.9717 110.376 100.154V100.161C110.376 101.34 109.727 102.065 108.677 102.065ZM108.677 101.539C109.375 101.539 109.768 101.029 109.768 100.161V100.154C109.768 99.2827 109.375 98.7769 108.677 98.7769C107.98 98.7769 107.587 99.2827 107.587 100.154V100.161C107.587 101.029 107.98 101.539 108.677 101.539ZM111.299 102V98.3154H111.894V98.8691H111.948C112.133 98.4795 112.478 98.2505 113.021 98.2505C113.849 98.2505 114.31 98.7393 114.31 99.6143V102H113.715V99.7578C113.715 99.0947 113.442 98.7769 112.854 98.7769C112.266 98.7769 111.894 99.1733 111.894 99.8193V102H111.299Z" fill="black"/>
<rect x="47.25" y="109.75" width="152.5" height="32.5" rx="3.25" fill="white" stroke="#D4DBE3" stroke-width="0.5"/>
<path d="M47.6289 159V154.068H49.4883C50.4146 154.068 51.0708 154.707 51.0708 155.644V155.65C51.0708 156.587 50.4146 157.24 49.4883 157.24H48.2441V159H47.6289ZM49.3311 154.615H48.2441V156.693H49.3311C50.0352 156.693 50.4419 156.307 50.4419 155.657V155.65C50.4419 155.001 50.0352 154.615 49.3311 154.615ZM52.0039 159V155.315H52.5986V155.862H52.6533C52.7935 155.476 53.1387 155.25 53.6377 155.25C53.7505 155.25 53.877 155.264 53.9351 155.274V155.852C53.812 155.832 53.6992 155.818 53.5693 155.818C53.002 155.818 52.5986 156.177 52.5986 156.717V159H52.0039ZM56.0815 159.065C55.0322 159.065 54.3828 158.34 54.3828 157.161V157.154C54.3828 155.972 55.0322 155.25 56.0815 155.25C57.1309 155.25 57.7803 155.972 57.7803 157.154V157.161C57.7803 158.34 57.1309 159.065 56.0815 159.065ZM56.0815 158.539C56.7788 158.539 57.1719 158.029 57.1719 157.161V157.154C57.1719 156.283 56.7788 155.777 56.0815 155.777C55.3843 155.777 54.9912 156.283 54.9912 157.154V157.161C54.9912 158.029 55.3843 158.539 56.0815 158.539ZM60.0635 159.065C59.1304 159.065 58.5186 158.31 58.5186 157.161V157.154C58.5186 155.999 59.127 155.25 60.0635 155.25C60.5693 155.25 61.0103 155.503 61.2119 155.896H61.2666V153.853H61.8613V159H61.2666V158.412H61.2119C60.9863 158.822 60.5762 159.065 60.0635 159.065ZM60.2002 158.539C60.8701 158.539 61.2803 158.012 61.2803 157.161V157.154C61.2803 156.303 60.8701 155.777 60.2002 155.777C59.5269 155.777 59.127 156.296 59.127 157.154V157.161C59.127 158.019 59.5269 158.539 60.2002 158.539ZM64.2368 159.065C63.3994 159.065 62.9688 158.573 62.9688 157.701V155.315H63.5635V157.558C63.5635 158.221 63.8027 158.539 64.3906 158.539C65.04 158.539 65.3853 158.142 65.3853 157.496V155.315H65.98V159H65.3853V158.45H65.3306C65.1494 158.843 64.7769 159.065 64.2368 159.065ZM68.5981 159.065C67.5659 159.065 66.9062 158.316 66.9062 157.147V157.141C66.9062 155.996 67.5625 155.25 68.5947 155.25C69.4902 155.25 70.0269 155.767 70.1362 156.423L70.1396 156.443H69.5483L69.5449 156.433C69.4526 156.071 69.1245 155.777 68.5947 155.777C67.9316 155.777 67.5146 156.31 67.5146 157.141V157.147C67.5146 157.995 67.9385 158.539 68.5947 158.539C69.0903 158.539 69.4048 158.32 69.5415 157.91L69.5483 157.889L70.1362 157.886L70.1294 157.923C69.979 158.59 69.4834 159.065 68.5981 159.065ZM72.3853 159.027C71.6265 159.027 71.3086 158.747 71.3086 158.043V155.808H70.7275V155.315H71.3086V154.362H71.9238V155.315H72.7305V155.808H71.9238V157.893C71.9238 158.327 72.0742 158.501 72.457 158.501C72.563 158.501 72.6211 158.498 72.7305 158.487V158.993C72.6143 159.014 72.5015 159.027 72.3853 159.027ZM75.6631 159V154.068H76.2783V159H75.6631ZM77.4609 159V155.315H78.0557V155.876H78.1104C78.2744 155.479 78.623 155.25 79.105 155.25C79.604 155.25 79.9526 155.514 80.1235 155.896H80.1782C80.3765 155.507 80.7969 155.25 81.3062 155.25C82.0581 155.25 82.4785 155.681 82.4785 156.454V159H81.8838V156.59C81.8838 156.047 81.6343 155.777 81.1147 155.777C80.6021 155.777 80.2637 156.163 80.2637 156.631V159H79.6689V156.498C79.6689 156.061 79.3682 155.777 78.9033 155.777C78.4214 155.777 78.0557 156.197 78.0557 156.717V159H77.4609ZM84.5635 159.065C83.8628 159.065 83.333 158.641 83.333 157.971V157.964C83.333 157.308 83.8184 156.929 84.6763 156.877L85.7324 156.812V156.478C85.7324 156.023 85.4556 155.777 84.9053 155.777C84.4644 155.777 84.1738 155.941 84.0781 156.228L84.0747 156.238H83.48L83.4834 156.218C83.5791 155.64 84.1396 155.25 84.9258 155.25C85.8247 155.25 86.3271 155.712 86.3271 156.478V159H85.7324V158.457H85.6777C85.4453 158.85 85.0591 159.065 84.5635 159.065ZM83.9414 157.958C83.9414 158.33 84.2593 158.549 84.6865 158.549C85.2915 158.549 85.7324 158.152 85.7324 157.626V157.291L84.748 157.353C84.1875 157.387 83.9414 157.585 83.9414 157.951V157.958ZM88.9316 160.299C88.043 160.299 87.4756 159.899 87.3833 159.294L87.3901 159.291H88.0054L88.0088 159.294C88.0737 159.574 88.4019 159.772 88.9316 159.772C89.5913 159.772 89.9844 159.461 89.9844 158.918V158.173H89.9297C89.6973 158.58 89.2803 158.809 88.7744 158.809C87.8208 158.809 87.2295 158.07 87.2295 157.038V157.031C87.2295 155.999 87.8242 155.25 88.7881 155.25C89.3076 155.25 89.7109 155.507 89.9365 155.924H89.9775V155.315H90.5723V158.949C90.5723 159.772 89.9365 160.299 88.9316 160.299ZM88.9043 158.282C89.5879 158.282 89.998 157.77 89.998 157.038V157.031C89.998 156.3 89.5845 155.777 88.9043 155.777C88.2207 155.777 87.8379 156.3 87.8379 157.031V157.038C87.8379 157.77 88.2207 158.282 88.9043 158.282ZM93.1836 159.065C92.1309 159.065 91.4951 158.327 91.4951 157.171V157.168C91.4951 156.03 92.1445 155.25 93.146 155.25C94.1475 155.25 94.7559 155.996 94.7559 157.096V157.329H92.1035C92.1206 158.091 92.541 158.535 93.1973 158.535C93.6963 158.535 94.0039 158.299 94.103 158.077L94.1167 158.046H94.7114L94.7046 158.074C94.5781 158.573 94.0518 159.065 93.1836 159.065ZM93.1426 155.78C92.5957 155.78 92.1787 156.153 92.1138 156.854H94.1509C94.0894 156.125 93.686 155.78 93.1426 155.78Z" fill="black"/>
<rect x="101" y="150" width="39" height="14" rx="3" fill="#D1D9E2"/>
<path d="M47.6289 178V173.068H49.4883C50.4146 173.068 51.0708 173.707 51.0708 174.644V174.65C51.0708 175.587 50.4146 176.24 49.4883 176.24H48.2441V178H47.6289ZM49.3311 173.615H48.2441V175.693H49.3311C50.0352 175.693 50.4419 175.307 50.4419 174.657V174.65C50.4419 174.001 50.0352 173.615 49.3311 173.615ZM52.0039 178V174.315H52.5986V174.862H52.6533C52.7935 174.476 53.1387 174.25 53.6377 174.25C53.7505 174.25 53.877 174.264 53.9351 174.274V174.852C53.812 174.832 53.6992 174.818 53.5693 174.818C53.002 174.818 52.5986 175.177 52.5986 175.717V178H52.0039ZM56.0815 178.065C55.0322 178.065 54.3828 177.34 54.3828 176.161V176.154C54.3828 174.972 55.0322 174.25 56.0815 174.25C57.1309 174.25 57.7803 174.972 57.7803 176.154V176.161C57.7803 177.34 57.1309 178.065 56.0815 178.065ZM56.0815 177.539C56.7788 177.539 57.1719 177.029 57.1719 176.161V176.154C57.1719 175.283 56.7788 174.777 56.0815 174.777C55.3843 174.777 54.9912 175.283 54.9912 176.154V176.161C54.9912 177.029 55.3843 177.539 56.0815 177.539ZM60.0635 178.065C59.1304 178.065 58.5186 177.31 58.5186 176.161V176.154C58.5186 174.999 59.127 174.25 60.0635 174.25C60.5693 174.25 61.0103 174.503 61.2119 174.896H61.2666V172.853H61.8613V178H61.2666V177.412H61.2119C60.9863 177.822 60.5762 178.065 60.0635 178.065ZM60.2002 177.539C60.8701 177.539 61.2803 177.012 61.2803 176.161V176.154C61.2803 175.303 60.8701 174.777 60.2002 174.777C59.5269 174.777 59.127 175.296 59.127 176.154V176.161C59.127 177.019 59.5269 177.539 60.2002 177.539ZM64.2368 178.065C63.3994 178.065 62.9688 177.573 62.9688 176.701V174.315H63.5635V176.558C63.5635 177.221 63.8027 177.539 64.3906 177.539C65.04 177.539 65.3853 177.142 65.3853 176.496V174.315H65.98V178H65.3853V177.45H65.3306C65.1494 177.843 64.7769 178.065 64.2368 178.065ZM68.5981 178.065C67.5659 178.065 66.9062 177.316 66.9062 176.147V176.141C66.9062 174.996 67.5625 174.25 68.5947 174.25C69.4902 174.25 70.0269 174.767 70.1362 175.423L70.1396 175.443H69.5483L69.5449 175.433C69.4526 175.071 69.1245 174.777 68.5947 174.777C67.9316 174.777 67.5146 175.31 67.5146 176.141V176.147C67.5146 176.995 67.9385 177.539 68.5947 177.539C69.0903 177.539 69.4048 177.32 69.5415 176.91L69.5483 176.889L70.1362 176.886L70.1294 176.923C69.979 177.59 69.4834 178.065 68.5981 178.065ZM72.3853 178.027C71.6265 178.027 71.3086 177.747 71.3086 177.043V174.808H70.7275V174.315H71.3086V173.362H71.9238V174.315H72.7305V174.808H71.9238V176.893C71.9238 177.327 72.0742 177.501 72.457 177.501C72.563 177.501 72.6211 177.498 72.7305 177.487V177.993C72.6143 178.014 72.5015 178.027 72.3853 178.027ZM75.6631 178V173.068H77.5225C78.4487 173.068 79.105 173.707 79.105 174.644V174.65C79.105 175.587 78.4487 176.24 77.5225 176.24H76.2783V178H75.6631ZM77.3652 173.615H76.2783V175.693H77.3652C78.0693 175.693 78.4761 175.307 78.4761 174.657V174.65C78.4761 174.001 78.0693 173.615 77.3652 173.615ZM80.0381 178V174.315H80.6328V174.862H80.6875C80.8276 174.476 81.1729 174.25 81.6719 174.25C81.7847 174.25 81.9111 174.264 81.9692 174.274V174.852C81.8462 174.832 81.7334 174.818 81.6035 174.818C81.0361 174.818 80.6328 175.177 80.6328 175.717V178H80.0381ZM83.0186 173.604C82.793 173.604 82.6084 173.42 82.6084 173.194C82.6084 172.969 82.793 172.784 83.0186 172.784C83.2441 172.784 83.4287 172.969 83.4287 173.194C83.4287 173.42 83.2441 173.604 83.0186 173.604ZM82.7178 178V174.315H83.3125V178H82.7178ZM85.9409 178.065C84.9087 178.065 84.249 177.316 84.249 176.147V176.141C84.249 174.996 84.9053 174.25 85.9375 174.25C86.833 174.25 87.3696 174.767 87.479 175.423L87.4824 175.443H86.8911L86.8877 175.433C86.7954 175.071 86.4673 174.777 85.9375 174.777C85.2744 174.777 84.8574 175.31 84.8574 176.141V176.147C84.8574 176.995 85.2812 177.539 85.9375 177.539C86.4331 177.539 86.7476 177.32 86.8843 176.91L86.8911 176.889L87.479 176.886L87.4722 176.923C87.3218 177.59 86.8262 178.065 85.9409 178.065ZM89.8545 178.065C88.8018 178.065 88.166 177.327 88.166 176.171V176.168C88.166 175.03 88.8154 174.25 89.8169 174.25C90.8184 174.25 91.4268 174.996 91.4268 176.096V176.329H88.7744C88.7915 177.091 89.2119 177.535 89.8682 177.535C90.3672 177.535 90.6748 177.299 90.7739 177.077L90.7876 177.046H91.3823L91.3755 177.074C91.249 177.573 90.7227 178.065 89.8545 178.065ZM89.8135 174.78C89.2666 174.78 88.8496 175.153 88.7847 175.854H90.8218C90.7603 175.125 90.3569 174.78 89.8135 174.78Z" fill="black"/>
<rect x="47.75" y="185.5" width="152.5" height="12.5" rx="3.25" fill="white" stroke="#D4DBE3" stroke-width="0.5"/>
<path d="M47.6289 212.75V207.818H49.4883C50.4146 207.818 51.0708 208.457 51.0708 209.394V209.4C51.0708 210.337 50.4146 210.99 49.4883 210.99H48.2441V212.75H47.6289ZM49.3311 208.365H48.2441V210.443H49.3311C50.0352 210.443 50.4419 210.057 50.4419 209.407V209.4C50.4419 208.751 50.0352 208.365 49.3311 208.365ZM52.0039 212.75V209.065H52.5986V209.612H52.6533C52.7935 209.226 53.1387 209 53.6377 209C53.7505 209 53.877 209.014 53.9351 209.024V209.602C53.812 209.582 53.6992 209.568 53.5693 209.568C53.002 209.568 52.5986 209.927 52.5986 210.467V212.75H52.0039ZM56.0815 212.815C55.0322 212.815 54.3828 212.09 54.3828 210.911V210.904C54.3828 209.722 55.0322 209 56.0815 209C57.1309 209 57.7803 209.722 57.7803 210.904V210.911C57.7803 212.09 57.1309 212.815 56.0815 212.815ZM56.0815 212.289C56.7788 212.289 57.1719 211.779 57.1719 210.911V210.904C57.1719 210.033 56.7788 209.527 56.0815 209.527C55.3843 209.527 54.9912 210.033 54.9912 210.904V210.911C54.9912 211.779 55.3843 212.289 56.0815 212.289ZM60.0635 212.815C59.1304 212.815 58.5186 212.06 58.5186 210.911V210.904C58.5186 209.749 59.127 209 60.0635 209C60.5693 209 61.0103 209.253 61.2119 209.646H61.2666V207.603H61.8613V212.75H61.2666V212.162H61.2119C60.9863 212.572 60.5762 212.815 60.0635 212.815ZM60.2002 212.289C60.8701 212.289 61.2803 211.762 61.2803 210.911V210.904C61.2803 210.053 60.8701 209.527 60.2002 209.527C59.5269 209.527 59.127 210.046 59.127 210.904V210.911C59.127 211.769 59.5269 212.289 60.2002 212.289ZM64.2368 212.815C63.3994 212.815 62.9688 212.323 62.9688 211.451V209.065H63.5635V211.308C63.5635 211.971 63.8027 212.289 64.3906 212.289C65.04 212.289 65.3853 211.892 65.3853 211.246V209.065H65.98V212.75H65.3853V212.2H65.3306C65.1494 212.593 64.7769 212.815 64.2368 212.815ZM68.5981 212.815C67.5659 212.815 66.9062 212.066 66.9062 210.897V210.891C66.9062 209.746 67.5625 209 68.5947 209C69.4902 209 70.0269 209.517 70.1362 210.173L70.1396 210.193H69.5483L69.5449 210.183C69.4526 209.821 69.1245 209.527 68.5947 209.527C67.9316 209.527 67.5146 210.06 67.5146 210.891V210.897C67.5146 211.745 67.9385 212.289 68.5947 212.289C69.0903 212.289 69.4048 212.07 69.5415 211.66L69.5483 211.639L70.1362 211.636L70.1294 211.673C69.979 212.34 69.4834 212.815 68.5981 212.815ZM72.3853 212.777C71.6265 212.777 71.3086 212.497 71.3086 211.793V209.558H70.7275V209.065H71.3086V208.112H71.9238V209.065H72.7305V209.558H71.9238V211.643C71.9238 212.077 72.0742 212.251 72.457 212.251C72.563 212.251 72.6211 212.248 72.7305 212.237V212.743C72.6143 212.764 72.5015 212.777 72.3853 212.777ZM75.6631 212.75V207.818H77.5464C78.4966 207.818 79.1187 208.399 79.1187 209.284V209.291C79.1187 209.975 78.7461 210.508 78.1274 210.703L79.269 212.75H78.5479L77.4917 210.798H76.2783V212.75H75.6631ZM76.2783 210.251H77.4917C78.124 210.251 78.4829 209.913 78.4829 209.312V209.305C78.4829 208.717 78.1001 208.365 77.4644 208.365H76.2783V210.251ZM81.5625 212.815C80.5098 212.815 79.874 212.077 79.874 210.921V210.918C79.874 209.78 80.5234 209 81.5249 209C82.5264 209 83.1348 209.746 83.1348 210.846V211.079H80.4824C80.4995 211.841 80.9199 212.285 81.5762 212.285C82.0752 212.285 82.3828 212.049 82.4819 211.827L82.4956 211.796H83.0903L83.0835 211.824C82.957 212.323 82.4307 212.815 81.5625 212.815ZM81.5215 209.53C80.9746 209.53 80.5576 209.903 80.4927 210.604H82.5298C82.4683 209.875 82.0649 209.53 81.5215 209.53ZM85.0317 212.75L83.668 209.065H84.2969L85.3052 212.101H85.3599L86.3682 209.065H86.9971L85.6333 212.75H85.0317ZM88.0977 208.354C87.8721 208.354 87.6875 208.17 87.6875 207.944C87.6875 207.719 87.8721 207.534 88.0977 207.534C88.3232 207.534 88.5078 207.719 88.5078 207.944C88.5078 208.17 88.3232 208.354 88.0977 208.354ZM87.7969 212.75V209.065H88.3916V212.75H87.7969ZM91.0166 212.815C89.9639 212.815 89.3281 212.077 89.3281 210.921V210.918C89.3281 209.78 89.9775 209 90.979 209C91.9805 209 92.5889 209.746 92.5889 210.846V211.079H89.9365C89.9536 211.841 90.374 212.285 91.0303 212.285C91.5293 212.285 91.8369 212.049 91.936 211.827L91.9497 211.796H92.5444L92.5376 211.824C92.4111 212.323 91.8848 212.815 91.0166 212.815ZM90.9756 209.53C90.4287 209.53 90.0117 209.903 89.9468 210.604H91.9839C91.9224 209.875 91.519 209.53 90.9756 209.53ZM94.2227 212.75L93.1904 209.065H93.7852L94.5098 212.012H94.5645L95.3882 209.065H95.9521L96.7759 212.012H96.8306L97.5552 209.065H98.1465L97.1143 212.75H96.5161L95.6924 209.899H95.6377L94.8174 212.75H94.2227Z" fill="black"/>
<rect x="126.75" y="205.5" width="10.5" height="10.5" rx="2.25" fill="white" stroke="#D4DBE3" stroke-width="0.5"/>
<path d="M142.629 212.75V207.818H145.685V208.372H143.244V209.954H145.558V210.501H143.244V212.196H145.685V212.75H142.629ZM146.724 212.75V209.065H147.318V209.619H147.373C147.558 209.229 147.903 209 148.446 209C149.273 209 149.735 209.489 149.735 210.364V212.75H149.14V210.508C149.14 209.845 148.867 209.527 148.279 209.527C147.691 209.527 147.318 209.923 147.318 210.569V212.75H146.724ZM151.823 212.815C151.123 212.815 150.593 212.391 150.593 211.721V211.714C150.593 211.058 151.078 210.679 151.936 210.627L152.992 210.562V210.228C152.992 209.773 152.715 209.527 152.165 209.527C151.724 209.527 151.434 209.691 151.338 209.978L151.334 209.988H150.74L150.743 209.968C150.839 209.39 151.399 209 152.186 209C153.084 209 153.587 209.462 153.587 210.228V212.75H152.992V212.207H152.938C152.705 212.6 152.319 212.815 151.823 212.815ZM151.201 211.708C151.201 212.08 151.519 212.299 151.946 212.299C152.551 212.299 152.992 211.902 152.992 211.376V211.041L152.008 211.103C151.447 211.137 151.201 211.335 151.201 211.701V211.708ZM156.506 212.815C155.993 212.815 155.583 212.572 155.357 212.162H155.303V212.75H154.708V207.603H155.303V209.646H155.357C155.559 209.253 156 209 156.506 209C157.442 209 158.051 209.749 158.051 210.904V210.911C158.051 212.06 157.439 212.815 156.506 212.815ZM156.369 212.289C157.042 212.289 157.442 211.769 157.442 210.911V210.904C157.442 210.046 157.042 209.527 156.369 209.527C155.699 209.527 155.289 210.053 155.289 210.904V210.911C155.289 211.762 155.699 212.289 156.369 212.289ZM159.008 212.75V207.603H159.603V212.75H159.008ZM162.248 212.815C161.195 212.815 160.56 212.077 160.56 210.921V210.918C160.56 209.78 161.209 209 162.21 209C163.212 209 163.82 209.746 163.82 210.846V211.079H161.168C161.185 211.841 161.605 212.285 162.262 212.285C162.761 212.285 163.068 212.049 163.167 211.827L163.181 211.796H163.776L163.769 211.824C163.643 212.323 163.116 212.815 162.248 212.815ZM162.207 209.53C161.66 209.53 161.243 209.903 161.178 210.604H163.215C163.154 209.875 162.75 209.53 162.207 209.53Z" fill="#938080"/>
<defs>
<filter id="filter0_dd_2414_59022" x="0" y="0" width="246" height="249" filterUnits="userSpaceOnUse" color-interpolation-filters="sRGB">
<feFlood flood-opacity="0" result="BackgroundImageFix"/>
<feColorMatrix in="SourceAlpha" type="matrix" values="0 0 0 0 0 0 0 0 0 0 0 0 0 0 0 0 0 0 127 0" result="hardAlpha"/>
<feOffset dy="1"/>
<feGaussianBlur stdDeviation="1"/>
<feColorMatrix type="matrix" values="0 0 0 0 0 0 0 0 0 0 0 0 0 0 0 0 0 0 0.06 0"/>
<feBlend mode="normal" in2="BackgroundImageFix" result="effect1_dropShadow_2414_59022"/>
<feColorMatrix in="SourceAlpha" type="matrix" values="0 0 0 0 0 0 0 0 0 0 0 0 0 0 0 0 0 0 127 0" result="hardAlpha"/>
<feOffset dy="1"/>
<feGaussianBlur stdDeviation="1.5"/>
<feColorMatrix type="matrix" values="0 0 0 0 0 0 0 0 0 0 0 0 0 0 0 0 0 0 0.1 0"/>
<feBlend mode="normal" in2="effect1_dropShadow_2414_59022" result="effect2_dropShadow_2414_59022"/>
<feBlend mode="normal" in="SourceGraphic" in2="effect2_dropShadow_2414_59022" result="shape"/>
</filter>
</defs>
</svg>
