<svg width="20" height="20" viewBox="0 0 20 20" fill="none" xmlns="http://www.w3.org/2000/svg">
<path d="M8.75 5L16.875 5M8.75 5C8.75 5.69036 8.19036 6.25 7.5 6.25C6.80964 6.25 6.25 5.69036 6.25 5M8.75 5C8.75 4.30964 8.19036 3.75 7.5 3.75C6.80964 3.75 6.25 4.30964 6.25 5M3.125 5H6.25M8.75 15H16.875M8.75 15C8.75 15.6904 8.19036 16.25 7.5 16.25C6.80964 16.25 6.25 15.6904 6.25 15M8.75 15C8.75 14.3096 8.19036 13.75 7.5 13.75C6.80964 13.75 6.25 14.3096 6.25 15M3.125 15L6.25 15M13.75 10L16.875 10M13.75 10C13.75 10.6904 13.1904 11.25 12.5 11.25C11.8096 11.25 11.25 10.6904 11.25 10M13.75 10C13.75 9.30964 13.1904 8.75 12.5 8.75C11.8096 8.75 11.25 9.30964 11.25 10M3.125 10H11.25" stroke="#6B7280" stroke-width="1.5" stroke-linecap="round" stroke-linejoin="round"/>
</svg>
