<svg width="24" height="24" viewBox="0 0 24 24" fill="none" xmlns="http://www.w3.org/2000/svg">
<path d="M22.8991 21.8164H1.0907C0.488159 21.8164 0 22.3048 0 22.9081C0 23.5104 0.488159 23.9988 1.0907 23.9988H22.8986C23.5011 23.9988 23.9893 23.5104 23.9893 22.9081C23.9887 22.3048 23.5006 21.8164 22.8991 21.8164Z" fill="#4491FB"/>
<path d="M2.45398 18.979C1.85144 18.979 1.36328 19.4674 1.36328 20.0702C1.36328 20.673 1.85144 21.1618 2.45398 21.1618H21.5361C22.1387 21.1618 22.6268 20.673 22.6268 20.0702C22.6268 19.4674 22.1387 18.979 21.5361 18.979H21.2639V9.16046H21.5361C21.8379 9.16046 22.081 8.91628 22.081 8.61539C22.081 8.3145 21.8369 8.07031 21.5361 8.07031H2.45398C2.15271 8.07031 1.90914 8.3145 1.90914 8.61539C1.90914 8.91628 2.15322 9.16046 2.45398 9.16046H2.72666V18.9785L2.45398 18.979ZM19.0826 9.16046V18.9785H15.8115V9.16046H19.0826ZM13.6301 9.16046V18.9785H10.359V9.16046H13.6301ZM4.90703 9.16046H8.17811V18.9785H4.90703V9.16046Z" fill="#4491FB"/>
<path d="M1.09072 7.09033H22.8986C22.9022 7.09033 22.9062 7.09033 22.9093 7.09033C23.5124 7.09033 24 6.60196 24 5.99916C24 5.51998 23.6916 5.11386 23.2632 4.96673L12.443 0.0957843C12.1586 -0.0319281 11.8333 -0.0319281 11.5484 0.0957843L0.643411 5.00454C0.174144 5.21603 -0.0837221 5.72585 0.0245308 6.22853C0.132273 6.73121 0.576519 7.09033 1.09072 7.09033Z" fill="#4491FB"/>
</svg>
