<svg width="20" height="21" viewBox="0 0 20 21" fill="none" xmlns="http://www.w3.org/2000/svg">
<rect x="0.631836" y="0.706055" width="18.7363" height="18.7363" rx="4.42285" fill="#059669"/>
<rect x="0.631836" y="0.706055" width="18.7363" height="18.7363" rx="4.42285" stroke="#059669" stroke-width="1.26367"/>
<path d="M15.259 6.06911C15.4934 6.30352 15.625 6.6214 15.625 6.95286C15.625 7.28431 15.4934 7.6022 15.259 7.83661L9.00902 14.0866C8.77461 14.3209 8.45672 14.4526 8.12527 14.4526C7.79381 14.4526 7.47592 14.3209 7.24152 14.0866L4.74151 11.5866C4.51382 11.3509 4.38782 11.0351 4.39067 10.7074C4.39352 10.3796 4.52498 10.0661 4.75674 9.83434C4.9885 9.60258 5.30202 9.47111 5.62976 9.46827C5.95751 9.46542 6.27326 9.59141 6.50901 9.81911L8.12527 11.4354L13.4915 6.06911C13.7259 5.83477 14.0438 5.70312 14.3753 5.70312C14.7067 5.70312 15.0246 5.83477 15.259 6.06911Z" fill="white"/>
</svg>
