<svg width="20" height="20" viewBox="0 0 20 20" fill="none" xmlns="http://www.w3.org/2000/svg">
<path d="M8.34332 1.94005C8.43373 1.39759 8.90307 1 9.45302 1H10.547C11.0969 1 11.5663 1.39759 11.6567 1.94005L11.8056 2.83386C11.8764 3.25813 12.1893 3.59838 12.5865 3.76332C12.9839 3.92832 13.4403 3.90629 13.7904 3.65617L14.528 3.12933C14.9755 2.80969 15.5885 2.86042 15.9774 3.24929L16.751 4.02284C17.1398 4.41171 17.1906 5.02472 16.8709 5.47223L16.3439 6.21007C16.0938 6.56012 16.0718 7.01633 16.2367 7.41363C16.4016 7.81078 16.7418 8.12363 17.166 8.19433L18.0599 8.34332C18.6024 8.43373 19 8.90307 19 9.45302V10.547C19 11.0969 18.6024 11.5663 18.0599 11.6567L17.1661 11.8056C16.7419 11.8764 16.4016 12.1893 16.2367 12.5865C16.0717 12.9839 16.0937 13.4403 16.3438 13.7904L16.8706 14.5278C17.1902 14.9753 17.1395 15.5884 16.7506 15.9772L15.9771 16.7508C15.5882 17.1396 14.9752 17.1904 14.5277 16.8707L13.7901 16.3439C13.44 16.0938 12.9837 16.0718 12.5864 16.2367C12.1892 16.4016 11.8764 16.7418 11.8057 17.166L11.6567 18.0599C11.5663 18.6024 11.0969 19 10.547 19H9.45302C8.90307 19 8.43373 18.6024 8.34332 18.0599L8.19435 17.1661C8.12364 16.7419 7.81072 16.4016 7.41349 16.2367C7.01608 16.0717 6.55975 16.0937 6.2096 16.3438L5.47198 16.8707C5.02447 17.1904 4.41146 17.1396 4.02259 16.7507L3.24904 15.9772C2.86017 15.5883 2.80944 14.9753 3.12909 14.5278L3.65612 13.79C3.90616 13.4399 3.92821 12.9837 3.76326 12.5864C3.59837 12.1892 3.25819 11.8764 2.83402 11.8057L1.94005 11.6567C1.39759 11.5663 1 11.0969 1 10.547V9.45302C1 8.90307 1.39759 8.43373 1.94005 8.34332L2.83386 8.19436C3.25813 8.12364 3.59838 7.81071 3.76332 7.41347C3.92833 7.01605 3.90629 6.5597 3.65618 6.20954L3.12948 5.47216C2.80983 5.02465 2.86057 4.41164 3.24943 4.02277L4.02298 3.24922C4.41185 2.86036 5.02486 2.80962 5.47237 3.12927L6.20997 3.65613C6.56004 3.90618 7.01628 3.92822 7.4136 3.76326C7.81077 3.59837 8.12364 3.25819 8.19433 2.834L8.34332 1.94005Z" stroke="#9CA3AF" stroke-width="1.5" stroke-linecap="round" stroke-linejoin="round"/>
<path d="M13.0007 10C13.0007 11.6569 11.6576 13 10.0007 13C8.34384 13 7.0007 11.6569 7.0007 10C7.0007 8.34317 8.34384 7.00002 10.0007 7.00002C11.6576 7.00002 13.0007 8.34317 13.0007 10Z" stroke="#9CA3AF" stroke-width="1.5" stroke-linecap="round" stroke-linejoin="round"/>
</svg>
