<svg width="110" height="110" viewBox="0 0 110 110" fill="none" xmlns="http://www.w3.org/2000/svg">
<rect width="110" height="110" rx="55" fill="#D1FAE5"/>
<rect x="27" y="27" width="56" height="56" rx="28" fill="#A7F3D0"/>
<path d="M66.0557 51.0931C66.0594 51.1593 66.0545 51.2268 66.0379 51.2937L64.5576 59.0337C64.4829 59.333 64.2156 59.5434 63.9082 59.545L55.0259 59.59H55.0225H46.1402C45.8312 59.59 45.5619 59.3789 45.4873 59.0781L44.0069 51.3156C43.9899 51.2468 43.9849 51.1775 43.9892 51.1096C43.4166 50.9286 43 50.391 43 49.7575C43 48.9759 43.6339 48.34 44.4131 48.34C45.1923 48.34 45.8262 48.9759 45.8262 49.7575C45.8262 50.1977 45.6251 50.5915 45.3103 50.8517L47.1637 52.725C47.6321 53.1985 48.2822 53.4699 48.9472 53.4699C49.7335 53.4699 50.4832 53.0953 50.9553 52.4678L54.0012 48.4192C53.7454 48.1627 53.5869 47.8083 53.5869 47.4175C53.5869 46.6358 54.2208 46 55 46C55.7792 46 56.4131 46.6358 56.4131 47.4175C56.4131 47.7966 56.2631 48.1406 56.0206 48.3953L56.0232 48.3984L59.0471 52.4581C59.519 53.0917 60.2714 53.47 61.0599 53.47C61.731 53.47 62.3621 53.2078 62.8367 52.7317L64.7017 50.8608C64.3803 50.6007 64.1738 50.2031 64.1738 49.7575C64.1738 48.9759 64.8077 48.34 65.5869 48.34C66.3661 48.34 67 48.9759 67 49.7575C67 50.3741 66.6048 50.8985 66.0557 51.0931ZM64.4131 61.705C64.4131 61.3322 64.1118 61.03 63.7402 61.03H46.3346C45.963 61.03 45.6617 61.3322 45.6617 61.705V63.325C45.6617 63.6978 45.963 64 46.3346 64H63.7402C64.1118 64 64.4131 63.6978 64.4131 63.325V61.705Z" fill="#065F46"/>
<path d="M98.0074 47.1005C96.888 47.7469 95.4433 47.3597 94.7969 46.2404L89.313 36.7422C88.6668 35.6228 89.0538 34.1781 90.1732 33.5319C91.2925 32.8854 92.7373 33.2727 93.3837 34.392L98.8676 43.8902C99.514 45.0096 99.127 46.4543 98.0074 47.1005Z" fill="#A7F3D0"/>
<path d="M69.7899 9.53249C68.6724 10.1755 67.2281 9.79079 66.5798 8.668L61.8516 0.476562C63.9232 0.745321 65.9525 1.1355 67.945 1.63618H67.9502L70.6544 6.3224C71.2974 7.43972 70.9127 8.88401 69.7899 9.53249Z" fill="#A7F3D0"/>
<path d="M10.6006 36.2084C9.48302 36.8569 8.03873 36.4667 7.39048 35.3492L5.00781 31.2218C5.80386 29.5613 6.68403 27.9431 7.64333 26.3828L11.4596 32.9983C12.1081 34.1211 11.7181 35.5654 10.6006 36.2084Z" fill="#A7F3D0"/>
<path d="M24.1364 54.2106C23.017 54.8568 21.5723 54.4698 20.9261 53.3504L17.7272 47.8361C17.0807 46.7167 17.468 45.2719 18.5873 44.6255C19.7067 43.9793 21.1515 44.3663 21.7977 45.4857L24.9966 51C25.643 52.1196 25.256 53.5643 24.1364 54.2106Z" fill="#A7F3D0"/>
<path d="M13.7887 83.167C12.6693 83.8133 11.2245 83.4263 10.5781 82.3069L5.09426 72.8087C4.44806 71.6893 4.83505 70.2446 5.95443 69.5982C7.0738 68.952 8.51854 69.339 9.16474 70.4583L14.6486 79.9565C15.2953 81.0761 14.9083 82.5208 13.7887 83.167Z" fill="#A7F3D0"/>
<path d="M105.428 76.0601C104.701 77.8259 103.879 79.5392 102.972 81.1995L99.1978 74.6631C98.5493 73.5403 98.9343 72.096 100.057 71.453C100.426 71.2422 100.827 71.1367 101.227 71.1367C102.039 71.1367 102.83 71.5585 103.267 72.3122L105.428 76.0601Z" fill="#A7F3D0"/>
<path d="M70.1441 107.767C68.5891 108.226 67.0077 108.616 65.3947 108.938H65.3894L61.6784 102.507C61.0354 101.389 61.4201 99.945 62.5429 99.2967C62.9119 99.086 63.3126 98.9805 63.7078 98.9805C64.5247 98.9805 65.3155 99.4075 65.753 100.156L70.1441 107.767Z" fill="#A7F3D0"/>
<path d="M76.1567 95.6704C75.0373 96.3168 73.5926 95.9296 72.9461 94.8102L68.8755 88.3515C68.2293 87.2321 68.6163 85.7873 69.7357 85.1411C70.855 84.4949 72.2998 84.8819 72.9462 86.0013L77.0169 92.4601C77.6633 93.5792 77.2761 95.024 76.1567 95.6704Z" fill="#A7F3D0"/>
<path d="M40.3197 27.2489C39.2003 27.8951 37.7556 27.5081 37.1094 26.3887L31.6255 16.8905C30.9793 15.7711 31.3663 14.3264 32.4857 13.6802C33.605 13.034 35.0498 13.421 35.6962 14.5404L41.1801 24.0385C41.8263 25.1579 41.4391 26.6027 40.3197 27.2489Z" fill="#A7F3D0"/>
<path d="M36.2104 98.3389C35.091 98.9851 33.6463 98.5981 33.0001 97.4788L27.5162 87.9806C26.8698 86.8612 27.257 85.4165 28.3764 84.77C29.4958 84.1238 30.9405 84.5108 31.5869 85.6302L37.0708 95.1284C37.717 96.2477 37.3298 97.6925 36.2104 98.3389Z" fill="#A7F3D0"/>
</svg>
