<svg width="20" height="20" viewBox="0 0 20 20" fill="none" xmlns="http://www.w3.org/2000/svg">
<path d="M9.75 3.75V15.75M6.75 12.9318L7.62887 13.591C8.8004 14.4697 10.6998 14.4697 11.8714 13.591C13.0429 12.7123 13.0429 11.2877 11.8714 10.409C11.2855 9.96963 10.5177 9.74996 9.74989 9.75C9.02496 9.75004 8.3002 9.5304 7.74709 9.09102C6.641 8.21234 6.641 6.78772 7.7471 5.90904C8.85319 5.03036 10.6465 5.03036 11.7526 5.90904L12.1675 6.23863M18.75 9.75C18.75 14.7206 14.7206 18.75 9.75 18.75C4.77944 18.75 0.75 14.7206 0.75 9.75C0.75 4.77944 4.77944 0.75 9.75 0.75C14.7206 0.75 18.75 4.77944 18.75 9.75Z" stroke="#4B5563" stroke-width="1.5" stroke-linecap="round" stroke-linejoin="round"/>
</svg>
