<svg width="110" height="110" viewBox="0 0 110 110" fill="none" xmlns="http://www.w3.org/2000/svg">
<rect x="0.398438" width="109.2" height="110" rx="54.6002" fill="#FEE2E2"/>
<path d="M60.8792 49L60.1869 67M50.61 67L49.9177 49M69.8537 42.5811C70.5377 42.6844 71.2193 42.7949 71.8984 42.9126M69.8537 42.5811L67.718 70.3451C67.5377 72.6896 65.5827 74.5 63.2313 74.5H47.5656C45.2142 74.5 43.2592 72.6896 43.0788 70.3451L40.9431 42.5811M69.8537 42.5811C67.5609 42.2349 65.2414 41.9697 62.8984 41.7886M38.8984 42.9126C39.5776 42.7949 40.2592 42.6844 40.9431 42.5811M40.9431 42.5811C43.236 42.2349 45.5554 41.9697 47.8984 41.7886M62.8984 41.7886V39.9564C62.8984 37.5976 61.0771 35.6285 58.7196 35.553C57.6169 35.5178 56.5097 35.5 55.3984 35.5C54.2871 35.5 53.18 35.5178 52.0773 35.553C49.7197 35.6285 47.8984 37.5976 47.8984 39.9564V41.7886M62.8984 41.7886C60.4236 41.5974 57.9224 41.5 55.3984 41.5C52.8745 41.5 50.3733 41.5974 47.8984 41.7886" stroke="#EF4444" stroke-width="2" stroke-linecap="round" stroke-linejoin="round"/>
</svg>
