<svg width="32" height="30" viewBox="0 0 32 30" fill="none" xmlns="http://www.w3.org/2000/svg">
<path d="M22.3651 16L16.0787 30L31.5338 16H22.3651Z" fill="#FBDD7E"/>
<path d="M7.11201 8L0.623596 15.3469H9.92589L7.11201 8Z" fill="#FFCD73"/>
<path d="M22.682 15.3469H31.9843L25.4958 8L22.682 15.3469Z" fill="#FCC471"/>
<path d="M22.682 15.3469L16.304 8L9.92596 15.3469H22.682Z" fill="#FCC471"/>
<path d="M16.3039 8H7.11195L9.92584 15.3469L16.3039 8Z" fill="#FFAA64"/>
<path d="M25.4958 8H16.3039L22.6819 15.3469L25.4958 8Z" fill="#FBDD7E"/>
<path d="M9.45512 16L16.0787 30L22.7023 16H9.45512Z" fill="#FFAA64"/>
<path d="M0.623596 16L16.0787 30L9.79225 16H0.623596Z" fill="#FF8C5A"/>
<path d="M15.8892 1V5" stroke="#FF8C5A" stroke-linecap="round"/>
<path d="M8.35118 2L11.4736 4.82843" stroke="#FF8C5A" stroke-linecap="round"/>
<path d="M23.4273 2L20.3049 4.82843" stroke="#FF8C5A" stroke-linecap="round"/>
</svg>
