<svg width="11" height="14" viewBox="0 0 11 14" fill="none" xmlns="http://www.w3.org/2000/svg">
<path fill-rule="evenodd" clip-rule="evenodd" d="M6.39844 3.14453C6.39844 3.67224 6.82776 4.10156 7.35547 4.10156H10.6641V12.4961C10.6641 13.3253 9.98941 14 9.16016 14H1.50391C0.674652 14 0 13.3253 0 12.4961V1.50391C0 0.674652 0.674652 0 1.50391 0H6.39844V3.14453ZM4.23063 9.84375H2.24219C2.01567 9.84375 1.83203 10.0274 1.83203 10.2539C1.83203 10.4804 2.01567 10.6641 2.24219 10.6641H4.23063C4.45714 10.6641 4.64078 10.4804 4.64078 10.2539C4.64078 10.0274 4.45714 9.84375 4.23063 9.84375ZM2.24219 7.65625C2.01567 7.65625 1.83203 7.83989 1.83203 8.06641C1.83203 8.29292 2.01567 8.47656 2.24219 8.47656H8.25781C8.48433 8.47656 8.66797 8.29292 8.66797 8.06641C8.66797 7.83989 8.48433 7.65625 8.25781 7.65625H2.24219ZM8.66797 5.87891C8.66797 5.65239 8.48433 5.46875 8.25781 5.46875H2.24219C2.01567 5.46875 1.83203 5.65239 1.83203 5.87891C1.83203 6.10542 2.01567 6.28906 2.24219 6.28906H8.25781C8.48433 6.28906 8.66797 6.10542 8.66797 5.87891ZM7.35547 3.28124C7.28008 3.28124 7.21875 3.21991 7.21875 3.14452H7.21878V0.170097C7.34087 0.233863 7.45483 0.314609 7.55715 0.411406L10.1937 2.90576C10.3096 3.01549 10.4062 3.14272 10.4812 3.28124H7.35547Z" fill="#FF9E75"/>
</svg>
