<svg width="20" height="20" viewBox="0 0 20 20" fill="none" xmlns="http://www.w3.org/2000/svg">
<path d="M8.4375 1.875H4.6875C4.16973 1.875 3.75 2.29473 3.75 2.8125V17.1875C3.75 17.7053 4.16973 18.125 4.6875 18.125H15.3125C15.8303 18.125 16.25 17.7053 16.25 17.1875V9.6875M8.4375 1.875H8.75C12.8921 1.875 16.25 5.23286 16.25 9.375V9.6875M8.4375 1.875C9.9908 1.875 11.25 3.1342 11.25 4.6875V5.9375C11.25 6.45527 11.6697 6.875 12.1875 6.875H13.4375C14.9908 6.875 16.25 8.1342 16.25 9.6875M7.5 12.5L9.375 14.375L12.5 10" stroke="#6B7280" stroke-width="1.5" stroke-linecap="round" stroke-linejoin="round"/>
</svg>
