<svg width="18" height="10" viewBox="0 0 24 17" fill="none" xmlns="http://www.w3.org/2000/svg">
<path fill-rule="evenodd" clip-rule="evenodd" d="M3.89432 17.2145C3.46829 17.6405 3.46829 18.3312 3.89432 18.7573C4.32035 19.1833 5.01107 19.1833 5.4371 18.7573L8.32366 15.8707C9.4885 16.2173 10.7224 16.4034 12 16.4034C17.4545 16.4034 22.1127 13.0107 24 8.22162C23.2794 6.39314 22.1549 4.7682 20.7364 3.45793L22.3321 1.8623C22.7581 1.43627 22.7581 0.745546 22.3321 0.319519C21.906 -0.106507 21.2153 -0.106506 20.7893 0.31952L3.89432 17.2145ZM17.2934 6.90099L15.1754 9.01896C14.8841 10.1879 13.9662 11.1057 12.7973 11.397L10.6794 13.515C11.1023 13.6203 11.5447 13.6762 12 13.6762C15.0109 13.6762 17.4545 11.2325 17.4545 8.22162C17.4545 7.76627 17.3987 7.3239 17.2934 6.90099ZM8.86331 9.16058L12.939 5.08494C12.6417 4.99642 12.3265 4.9489 12 4.9489C10.1891 4.9489 8.72727 6.41071 8.72727 8.22162C8.72727 8.54813 8.77479 8.86329 8.86331 9.16058ZM12 2.76708C12.9406 2.76708 13.8259 3.00557 14.5986 3.42534L16.9836 1.04027C15.4508 0.395923 13.7672 0.0398042 12 0.0398042C6.54545 0.0398042 1.88727 3.43253 0 8.22162C0.87726 10.4477 2.35322 12.3721 4.22957 13.7943L7.20371 10.8202C6.78394 10.0475 6.54545 9.16224 6.54545 8.22162C6.54545 5.21071 8.98909 2.76708 12 2.76708Z" fill="black"/>
</svg>
