<svg width="110" height="110" viewBox="0 0 110 110" fill="none" xmlns="http://www.w3.org/2000/svg">
<rect x="0.398438" width="109.2" height="110" rx="54.6002" fill="#D1FAE5"/>
<path d="M99.109 47.1005C97.9896 47.7469 96.5449 47.3597 95.8984 46.2404L90.4146 36.7422C89.7684 35.6228 90.1554 34.1781 91.2747 33.5319C92.3941 32.8854 93.8389 33.2727 94.4853 34.392L99.9691 43.8902C100.616 45.0096 100.229 46.4543 99.109 47.1005Z" fill="#A7F3D0"/>
<path d="M70.8915 9.53249C69.7739 10.1755 68.3297 9.79079 67.6814 8.668L62.9531 0.476562C65.0247 0.745321 67.0541 1.1355 69.0466 1.63618H69.0518L71.756 6.3224C72.399 7.43972 72.0143 8.88401 70.8915 9.53249Z" fill="#A7F3D0"/>
<path d="M11.7021 36.2084C10.5846 36.8569 9.1403 36.4667 8.49205 35.3492L6.10938 31.2218C6.90542 29.5613 7.78559 27.9431 8.74489 26.3828L12.5612 32.9983C13.2096 34.1211 12.8197 35.5654 11.7021 36.2084Z" fill="#A7F3D0"/>
<path d="M27.5229 58.1944C26.4035 58.8406 24.9588 58.4536 24.3126 57.3342L18.8287 47.8361C18.1823 46.7167 18.5695 45.2719 19.6889 44.6255C20.8083 43.9793 22.253 44.3663 22.8992 45.4857L28.3831 54.9838C29.0295 56.1034 28.6425 57.5482 27.5229 58.1944Z" fill="#A7F3D0"/>
<path d="M14.8902 83.167C13.7709 83.8133 12.3261 83.4263 11.6797 82.3069L6.19582 72.8087C5.54962 71.6893 5.93662 70.2446 7.05599 69.5982C8.17536 68.952 9.62011 69.339 10.2663 70.4583L15.7502 79.9565C16.3968 81.0761 16.0098 82.5208 14.8902 83.167Z" fill="#A7F3D0"/>
<path d="M106.53 76.0601C105.803 77.8259 104.98 79.5392 104.074 81.1995L100.299 74.6631C99.6509 73.5403 100.036 72.096 101.159 71.453C101.528 71.2422 101.928 71.1367 102.329 71.1367C103.141 71.1367 103.931 71.5585 104.369 72.3122L106.53 76.0601Z" fill="#A7F3D0"/>
<path d="M71.2457 107.767C69.6906 108.226 68.1092 108.616 66.4962 108.938H66.491L62.78 102.507C62.137 101.389 62.5217 99.945 63.6445 99.2967C64.0135 99.086 64.4141 98.9805 64.8093 98.9805C65.6263 98.9805 66.4171 99.4075 66.8546 100.156L71.2457 107.767Z" fill="#A7F3D0"/>
<path d="M68.2574 73.6707C67.138 74.3172 65.6933 73.9299 65.0469 72.8106L59.563 63.3124C58.9168 62.193 59.3038 60.7483 60.4232 60.1021C61.5425 59.4559 62.9873 59.8429 63.6337 60.9622L69.1176 70.4604C69.764 71.5796 69.3768 73.0243 68.2574 73.6707Z" fill="#A7F3D0"/>
<path d="M41.4212 27.2489C40.3019 27.8951 38.8571 27.5081 38.2109 26.3887L32.7271 16.8905C32.0809 15.7711 32.4679 14.3264 33.5872 13.6802C34.7066 13.034 36.1514 13.421 36.7978 14.5404L42.2816 24.0385C42.9278 25.1579 42.5406 26.6027 41.4212 27.2489Z" fill="#A7F3D0"/>
<path d="M37.312 98.3389C36.1926 98.9851 34.7479 98.5981 34.1017 97.4788L28.6178 87.9806C27.9714 86.8612 28.3586 85.4165 29.478 84.77C30.5973 84.1238 32.0421 84.5108 32.6885 85.6302L38.1724 95.1284C38.8186 96.2477 38.4313 97.6925 37.312 98.3389Z" fill="#A7F3D0"/>
<path fill-rule="evenodd" clip-rule="evenodd" d="M50.2002 37.0056C52.5091 33.0034 58.2854 33.0034 60.5944 37.0056L75.3031 62.5006C77.6107 66.5006 74.7239 71.4989 70.1059 71.4989H40.6886C36.0707 71.4989 33.1838 66.5006 35.4915 62.5006L50.2002 37.0056ZM55.3977 47.4988C56.2261 47.4988 56.8977 48.1704 56.8977 48.9988V56.4988C56.8977 57.3272 56.2261 57.9988 55.3977 57.9988C54.5693 57.9988 53.8977 57.3272 53.8977 56.4988V48.9988C53.8977 48.1704 54.5693 47.4988 55.3977 47.4988ZM55.3977 63.9988C56.2261 63.9988 56.8977 63.3272 56.8977 62.4988C56.8977 61.6704 56.2261 60.9988 55.3977 60.9988C54.5693 60.9988 53.8977 61.6704 53.8977 62.4988C53.8977 63.3272 54.5693 63.9988 55.3977 63.9988Z" fill="#059669"/>
</svg>
