<svg width="69" height="69" viewBox="0 0 69 69" fill="none" xmlns="http://www.w3.org/2000/svg">
<circle cx="34.5" cy="34.5" r="34.5" fill="#FABD20"/>
<path d="M34.5003 28.512C32.1532 28.512 30.2434 26.6022 30.2434 24.2551C30.2434 21.908 32.1532 19.9982 34.5003 19.9982C36.8475 19.9982 38.7572 21.908 38.7572 24.2551C38.7572 26.6022 36.8475 28.512 34.5003 28.512Z" fill="white"/>
<path d="M20.5389 44.319C19.3657 42.2862 20.0649 39.678 22.0978 38.504C24.1724 37.3073 26.7567 38.061 27.9128 40.0621C29.0889 42.098 28.3918 44.7002 26.3547 45.8771C24.3137 47.0541 21.7143 46.3536 20.5389 44.319V44.319Z" fill="white"/>
<path d="M42.6453 45.8771C40.6096 44.701 39.9104 42.0991 41.0873 40.0621C42.2433 38.061 44.8275 37.3072 46.9022 38.504C48.935 39.678 49.6343 42.2862 48.4612 44.319C47.2872 46.351 44.6893 47.0558 42.6453 45.8771V45.8771Z" fill="white"/>
<path d="M23.4485 35.6118L21.7491 35.5186C21.9702 31.4912 24.122 27.7631 27.5042 25.5448L28.4387 26.9682C25.5063 28.8914 23.6414 32.1231 23.4485 35.6118V35.6118Z" fill="white"/>
<path d="M45.5519 35.6117C45.359 32.123 43.4941 28.8913 40.5616 26.9682L41.4962 25.5448C44.8784 27.7631 47.0301 31.4912 47.2513 35.5186L45.5519 35.6117Z" fill="white"/>
<path d="M34.4992 49.0018C32.4738 49.0018 30.5374 48.5412 28.7424 47.6341L29.5106 46.1143C32.6201 47.6873 36.3782 47.6873 39.4877 46.1143L40.2559 47.6341C38.4609 48.5412 36.5245 49.0018 34.4992 49.0018Z" fill="white"/>
</svg>
