<svg width="69" height="69" viewBox="0 0 69 69" fill="none" xmlns="http://www.w3.org/2000/svg">
<circle cx="34.5" cy="34.5" r="34.5" fill="#DD95FF"/>
<path d="M33.6719 19C25.0304 19 18 26.0304 18 34.6719C18 43.3133 25.0304 50.3438 33.6719 50.3438C42.3133 50.3438 49.3438 43.3133 49.3438 34.6719C49.3438 26.0304 42.3133 19 33.6719 19ZM33.6719 47.9327C26.3599 47.9327 20.4111 41.9839 20.4111 34.6719C20.4111 27.3599 26.3599 21.4111 33.6719 21.4111C40.9839 21.4111 46.9327 27.3599 46.9327 34.6719C46.9327 41.9839 40.9839 47.9327 33.6719 47.9327Z" fill="white"/>
<path d="M37.2888 31.0431C37.2888 31.7088 37.8285 32.2486 38.4943 32.2486C39.1601 32.2486 39.6998 31.7088 39.6998 31.0431C39.6998 29.708 39.0093 28.4243 37.8052 27.5213C36.9828 26.9045 35.9709 26.4924 34.8777 26.3172V25.0153C34.8777 24.3496 34.3379 23.8098 33.6722 23.8098C33.0064 23.8098 32.4666 24.3496 32.4666 25.0153V26.3172C31.3734 26.4924 30.3615 26.9045 29.5391 27.5213C28.3351 28.4243 27.6445 29.708 27.6445 31.0431C27.6445 32.3782 28.3351 33.6617 29.5391 34.5648C30.3616 35.1816 31.3735 35.5937 32.4666 35.769V40.5436C31.0779 40.2042 30.0556 39.3029 30.0556 38.2762C30.0556 37.6105 29.5158 37.0707 28.8501 37.0707C28.1843 37.0707 27.6445 37.6105 27.6445 38.2762C27.6445 39.6113 28.3351 40.8949 29.5391 41.798C30.3616 42.4148 31.3735 42.8269 32.4666 43.0022V44.3161C32.4666 44.9819 33.0064 45.5216 33.6722 45.5216C34.3379 45.5216 34.8777 44.9819 34.8777 44.3161V43.0022C35.971 42.8269 36.9829 42.4148 37.8052 41.798C39.0093 40.895 39.6998 39.6113 39.6998 38.2762C39.6998 36.9412 39.0093 35.6575 37.8052 34.7545C36.9828 34.1377 35.9709 33.7256 34.8777 33.5503V28.7757C36.2665 29.1152 37.2888 30.0164 37.2888 31.0431ZM30.0556 31.0431C30.0556 30.0164 31.0779 29.1151 32.4666 28.7757V33.3103C31.0779 32.971 30.0556 32.0698 30.0556 31.0431ZM37.2888 38.2762C37.2888 39.3029 36.2665 40.2042 34.8777 40.5436V36.009C36.2665 36.3484 37.2888 37.2495 37.2888 38.2762Z" fill="white"/>
</svg>
