<svg width="69" height="69" viewBox="0 0 69 69" fill="none" xmlns="http://www.w3.org/2000/svg">
<circle cx="34.5" cy="34.5" r="34.5" fill="#7856FF"/>
<path d="M34.4882 42.9336C30.6732 42.9336 26.8545 42.9336 23.0395 42.9372C22.7745 42.9372 22.535 42.89 22.3317 42.7122C22.1683 42.5706 22.1683 42.5234 22.3462 42.4C23.1266 41.8519 23.9107 41.3038 24.6948 40.7556C26.7057 39.3472 28.7167 37.9388 30.7276 36.5304C32.2232 35.4814 33.7223 34.436 35.2178 33.3906C37.2288 31.9822 39.2397 30.5738 41.2507 29.1654C42.6664 28.1744 44.0857 27.1798 45.5049 26.1961C45.9333 25.8985 46.4342 25.9711 46.7827 26.3558C46.9206 26.5083 46.9714 26.6898 46.9932 26.8858C47.0005 26.933 47.0005 26.9838 47.0005 27.031C47.0005 31.9894 47.0005 36.9515 47.0005 41.9099C47.0005 42.3927 46.7645 42.7376 46.3398 42.8936C46.1983 42.9445 46.0531 42.9372 45.9079 42.9372C42.1001 42.9336 38.296 42.9336 34.4882 42.9336Z" fill="white"/>
<path d="M22.0118 34.338C22.0118 31.8951 22.0154 29.4522 22.0082 27.0093C22.0082 26.5991 22.1824 26.3087 22.5236 26.1199C22.8793 25.9275 23.2351 25.9747 23.5654 26.2034C25.8486 27.8006 28.1318 29.4014 30.415 30.9985C31.268 31.5938 32.1211 32.1927 32.9705 32.7881C33.1374 32.9042 33.1338 32.9224 32.9668 33.0603C31.2644 34.4542 29.562 35.8481 27.8596 37.2419C26.5746 38.2946 25.286 39.3436 23.9974 40.3963C23.3984 40.8863 22.8031 41.38 22.2006 41.8664C22.1534 41.9063 22.1062 41.9898 22.0408 41.9608C21.9755 41.9281 22.0082 41.841 22.0082 41.7757C22.0082 39.4054 22.0082 37.035 22.0082 34.6647C22.0118 34.5558 22.0118 34.4469 22.0118 34.338Z" fill="white"/>
</svg>
