<svg width="69" height="69" viewBox="0 0 69 69" fill="none" xmlns="http://www.w3.org/2000/svg">
<circle cx="34.5" cy="34.5" r="34.5" fill="#7CD0FF"/>
<path d="M34.2389 21C30.0421 21 26.6309 24.4112 26.6309 28.6081C26.6309 32.8049 30.0421 36.2162 34.2389 36.2162C38.4358 36.2162 41.847 32.8049 41.847 28.6081C41.847 24.4112 38.4358 21 34.2389 21V21ZM34.2389 33.5747C31.4973 33.5747 29.2671 31.3445 29.2671 28.6028C29.2671 25.8612 31.5026 23.6362 34.2389 23.6362C36.9753 23.6362 39.2108 25.8664 39.2108 28.6081C39.2108 31.3497 36.9806 33.5747 34.2389 33.5747V33.5747Z" fill="white"/>
<path d="M46.3651 43.3866C45.6797 40.8612 44.2456 38.6415 42.2157 36.9754C41.6516 36.5114 40.8238 36.5958 40.3598 37.1547C39.8959 37.7188 39.9802 38.5466 40.5391 39.0105C42.1419 40.3339 43.2807 42.0844 43.8185 44.0773C43.9292 44.4939 43.7553 44.7996 43.6445 44.9525C43.4442 45.2109 43.1437 45.3638 42.8168 45.3638C42.0892 45.3638 41.4987 45.9543 41.4987 46.6819C41.4987 47.4095 42.0892 48 42.8168 48C43.9714 48 45.0365 47.4728 45.7377 46.5554C46.4336 45.6432 46.6656 44.4886 46.3651 43.3866V43.3866Z" fill="white"/>
<path d="M38.0821 45.3585H25.6656C25.2227 45.3585 24.9644 45.1054 24.8484 44.9525C24.6481 44.6889 24.5848 44.3568 24.6744 44.0404C25.2175 42.0685 26.3458 40.3286 27.9328 39.0211C28.4916 38.5571 28.576 37.7293 28.112 37.1652C27.6481 36.6011 26.8203 36.522 26.2561 36.9859C24.2473 38.6467 22.8185 40.8401 22.1331 43.3445C21.8273 44.4622 22.054 45.6327 22.7553 46.5554C23.4459 47.4675 24.511 47.9947 25.6656 47.9947H38.0821C38.8097 47.9947 39.4002 47.4042 39.4002 46.6766C39.4002 45.949 38.8097 45.3585 38.0821 45.3585Z" fill="white"/>
</svg>
