<svg width="69" height="69" viewBox="0 0 69 69" fill="none" xmlns="http://www.w3.org/2000/svg">
<circle cx="34.5" cy="34.5" r="34.5" fill="#FFE01B"/>
<path d="M41.3133 33.5463C41.5203 33.5187 41.7204 33.5187 41.9067 33.5463C42.0102 33.3048 42.0309 32.877 41.9343 32.4216C41.7894 31.7385 41.5962 31.3245 41.2029 31.3935C40.8027 31.4556 40.7889 31.9524 40.9338 32.6355C41.0097 33.015 41.1546 33.3462 41.3133 33.5463Z" fill="black"/>
<path d="M37.8917 34.0845C38.1746 34.2087 38.354 34.2915 38.423 34.2225C38.4644 34.1742 38.4506 34.0914 38.3885 33.981C38.2505 33.7533 37.9607 33.5187 37.6502 33.3876C37.0223 33.1185 36.2701 33.2082 35.6974 33.6222C35.5042 33.7602 35.3248 33.9534 35.3524 34.0707C35.3593 34.1121 35.3869 34.1397 35.4559 34.1466C35.6146 34.1673 36.1597 33.8844 36.7945 33.8499C37.2362 33.8223 37.6088 33.9603 37.8917 34.0845Z" fill="black"/>
<path d="M37.3188 34.4158C36.9462 34.471 36.7392 34.5952 36.6081 34.7125C36.4977 34.8091 36.4287 34.9195 36.4287 34.9954C36.4287 35.0299 36.4425 35.0506 36.4563 35.0644C36.4701 35.0782 36.4908 35.0851 36.5184 35.0851C36.6012 35.0851 36.7875 35.0092 36.7875 35.0092C37.305 34.8229 37.6431 34.8436 37.9812 34.885C38.1675 34.9057 38.2572 34.9195 38.2986 34.8505C38.3124 34.8298 38.3262 34.7953 38.2848 34.7332C38.2089 34.5883 37.8294 34.3537 37.3188 34.4158Z" fill="black"/>
<path d="M40.1615 35.6164C40.4168 35.7406 40.6928 35.6923 40.7825 35.506C40.8722 35.3197 40.7411 35.0713 40.4927 34.9471C40.2374 34.8229 39.9614 34.8712 39.8717 35.0575C39.7751 35.2438 39.9062 35.4922 40.1615 35.6164Z" fill="black"/>
<path d="M41.783 34.195C41.576 34.1881 41.4104 34.4158 41.4035 34.6987C41.3966 34.9816 41.5622 35.2093 41.7692 35.2162C41.9762 35.2231 42.1418 34.9954 42.1487 34.7125C42.1487 34.4296 41.9831 34.2019 41.783 34.195Z" fill="black"/>
<path d="M28.0173 39.2666C27.969 39.2045 27.8793 39.2252 27.8034 39.239C27.7482 39.2528 27.6792 39.2666 27.6102 39.2666C27.4584 39.2666 27.3342 39.1976 27.2583 39.0872C27.1617 38.9423 27.1686 38.7284 27.2721 38.4869C27.2859 38.4524 27.2997 38.4179 27.3204 38.3765C27.486 38.0107 27.762 37.3897 27.4584 36.8032C27.2238 36.3616 26.8443 36.0856 26.3889 36.0304C25.9541 35.9752 25.4987 36.1339 25.2158 36.4513C24.7604 36.9481 24.6914 37.6312 24.7811 37.8727C24.8156 37.9624 24.8639 37.9831 24.8984 37.99C24.9743 38.0038 25.0916 37.9417 25.1606 37.7554C25.1675 37.7416 25.1744 37.7209 25.1813 37.6933C25.2158 37.5898 25.271 37.4035 25.3676 37.2517C25.4849 37.0654 25.6643 36.9412 25.8782 36.8998C26.099 36.8515 26.3199 36.8929 26.5062 37.0171C26.8236 37.2241 26.9478 37.6174 26.8098 37.9831C26.7408 38.1763 26.6235 38.5421 26.6511 38.8457C26.6994 39.4529 27.0789 39.7013 27.417 39.7289C27.7482 39.7427 27.9759 39.5564 28.0311 39.4253C28.0656 39.3356 28.038 39.2873 28.0173 39.2666Z" fill="black"/>
<path d="M46.9511 38.1488C46.9373 38.1074 46.8545 37.8107 46.7441 37.4519C46.6337 37.0931 46.5164 36.8447 46.5164 36.8447C46.9649 36.1753 46.9718 35.575 46.9097 35.23C46.8476 34.8091 46.6682 34.4503 46.3163 34.0777C45.9644 33.7051 45.2399 33.3256 44.2256 33.0427C44.1083 33.0082 43.7288 32.9047 43.6943 32.8978C43.6943 32.8771 43.6667 31.642 43.646 31.1107C43.6322 30.7243 43.5977 30.1309 43.4114 29.5375C43.1906 28.737 42.8042 28.0401 42.3212 27.5916C43.646 26.2116 44.4809 24.7005 44.474 23.3964C44.4671 20.8916 41.3966 20.1395 37.6084 21.7059C37.6015 21.7059 36.8149 22.044 36.808 22.044C36.8011 22.0371 35.359 20.6225 35.3383 20.6018C31.0188 16.8344 17.5222 31.8421 21.8417 35.4853L22.7801 36.2857C22.5386 36.9206 22.442 37.6451 22.5179 38.4248C22.6214 39.4253 23.1389 40.3913 23.9738 41.1296C24.7673 41.8334 25.8162 42.2819 26.8305 42.2819C28.5072 46.1529 32.3436 48.5265 36.8425 48.6576C41.6657 48.8025 45.7229 46.5393 47.4203 42.4682C47.5307 42.1853 47.9999 40.895 47.9999 39.7634C48.0068 38.618 47.3651 38.1488 46.9511 38.1488ZM27.2031 41.1917C27.0582 41.2193 26.9064 41.2262 26.7546 41.2262C25.2986 41.1848 23.7254 39.8738 23.5736 38.3213C23.4011 36.6031 24.2774 35.2783 25.8369 34.9609C26.0232 34.9264 26.2509 34.8988 26.4924 34.9126C27.3618 34.9609 28.6521 35.6302 28.9419 37.5278C29.1972 39.2114 28.7832 40.9226 27.2031 41.1917ZM25.5816 33.9328C24.6155 34.1191 23.7599 34.6711 23.2355 35.4301C22.925 35.1679 22.3454 34.6642 22.2419 34.471C21.407 32.8909 23.1527 29.8135 24.3671 28.0746C27.3756 23.7759 32.0883 20.5259 34.2688 21.1124C34.6207 21.2159 35.8006 22.5753 35.8006 22.5753C35.8006 22.5753 33.6202 23.7828 31.5984 25.4733C28.8729 27.5709 26.8098 30.6208 25.5816 33.9328ZM40.8791 40.55C40.9136 40.5362 40.9343 40.5017 40.9274 40.4672C40.9205 40.4258 40.886 40.3913 40.8377 40.3982C40.8377 40.3982 38.5537 40.7363 36.394 39.9497C36.6286 39.1838 37.2565 39.4598 38.1949 39.5357C39.8992 39.6392 41.4242 39.3908 42.5489 39.0665C43.5287 38.7836 44.8121 38.2316 45.8057 37.445C46.1438 38.1833 46.2611 38.9975 46.2611 38.9975C46.2611 38.9975 46.5233 38.9492 46.7372 39.0872C46.9442 39.2114 47.096 39.4736 46.9925 40.1567C46.7855 41.4263 46.2404 42.4544 45.3365 43.4066C44.7845 44 44.1152 44.5176 43.3493 44.8902C42.9422 45.1041 42.5075 45.2904 42.0521 45.4422C38.6296 46.56 35.1313 45.3318 34.0066 42.6959C33.9169 42.4958 33.841 42.2888 33.7789 42.0749C33.2959 40.3361 33.703 38.2523 34.9795 36.9413C35.0554 36.8585 35.1382 36.7618 35.1382 36.6376C35.1382 36.5341 35.0692 36.4237 35.014 36.3478C34.5655 35.6992 33.0198 34.5952 33.3304 32.4631C33.5512 30.9313 34.8967 29.848 36.1456 29.9101C36.2491 29.917 36.3595 29.9239 36.463 29.9308C37.0081 29.9653 37.4773 30.0343 37.9258 30.0481C38.671 30.0826 39.3472 29.9722 40.1407 29.3098C40.4098 29.0889 40.6237 28.8957 40.9895 28.8336C41.0309 28.8267 41.1206 28.7922 41.3138 28.7991C41.507 28.806 41.6933 28.8612 41.8589 28.9716C42.4937 29.3926 42.5903 30.4207 42.6179 31.1728C42.6386 31.6006 42.6869 32.6425 42.7076 32.9392C42.749 33.6223 42.9284 33.7189 43.2872 33.8362C43.4942 33.9052 43.6805 33.9535 43.9565 34.0294C44.7983 34.264 45.302 34.5055 45.6194 34.816C45.8057 35.0092 45.8954 35.2162 45.923 35.4094C46.0196 36.1339 45.3572 37.031 43.6046 37.8452C41.6864 38.7353 39.3541 38.963 37.7464 38.7836C37.6222 38.7698 37.1875 38.7215 37.1806 38.7215C35.8972 38.549 35.1589 40.2119 35.9317 41.3504C36.4285 42.0818 37.7878 42.5648 39.1402 42.5648C42.2522 42.5648 44.6396 41.24 45.5297 40.0877C45.5573 40.0532 45.5573 40.0463 45.5987 39.9842C45.6401 39.9152 45.6056 39.8807 45.5504 39.9221C44.8259 40.4189 41.5967 42.3923 38.1466 41.7989C38.1466 41.7989 37.7257 41.7299 37.3462 41.5781C37.0426 41.4608 36.4078 41.1641 36.325 40.5155C39.1264 41.3642 40.8791 40.55 40.8791 40.55ZM36.463 40.0325C36.463 40.0325 36.4699 40.0325 36.463 40.0325V40.0325ZM31.1361 28.0539C32.2056 26.8188 33.5236 25.7424 34.7035 25.1421C34.7449 25.1214 34.7863 25.1628 34.7656 25.2042C34.669 25.3767 34.4896 25.7355 34.4344 26.0115C34.4275 26.0529 34.4689 26.0874 34.5103 26.0598C35.2417 25.5561 36.5182 25.0248 37.6429 24.9558C37.6912 24.9558 37.7119 25.0179 37.6774 25.0455C37.5049 25.1766 37.3186 25.356 37.1875 25.5423C37.1668 25.5768 37.1875 25.6182 37.222 25.6182C38.0086 25.6251 39.1195 25.9011 39.8371 26.3013C39.8854 26.3289 39.8509 26.4255 39.7957 26.4117C38.7055 26.1633 36.9115 25.9701 35.0554 26.4255C33.3925 26.8326 32.1297 27.4536 31.2051 28.1298C31.1568 28.1574 31.1016 28.0953 31.1361 28.0539Z" fill="black"/>
</svg>
