<svg width="69" height="69" viewBox="0 0 69 69" fill="none" xmlns="http://www.w3.org/2000/svg">
<circle cx="34.5" cy="34.5" r="34.5" fill="#FF6000"/>
<path fill-rule="evenodd" clip-rule="evenodd" d="M42.5412 18.0949C42.4528 18.0642 42.3645 18.0335 42.278 18H40.3441C40.1599 18.0586 39.9757 18.1256 39.7915 18.1926C38.9962 18.4688 38.5107 19.0381 38.2428 19.8251C36.9033 23.8351 35.5554 27.8369 34.2076 31.8386C34.1937 31.8942 34.1682 31.9441 34.1407 31.9978C34.1352 32.0087 34.1295 32.0198 34.1238 32.0311C33.9915 31.998 33.969 31.897 33.9488 31.8064C33.9435 31.7824 33.9383 31.7592 33.9313 31.7381C33.5535 30.6587 33.1738 29.5794 32.7939 28.4996C31.8184 25.727 30.8421 22.952 29.8961 20.1683C29.5277 19.08 28.9333 18.3014 27.7948 18H25.8693C25.6516 18.0921 25.4339 18.1758 25.2163 18.2595C24.5298 18.5693 24.1782 19.1051 24.1782 19.8418C24.1698 25.0574 24.1698 30.2731 24.1782 35.4887C24.1782 36.4598 24.7642 37.0375 25.7437 37.0877C25.8884 37.1003 26.0378 37.0987 26.1848 37.0971C26.2334 37.0966 26.2818 37.0961 26.3297 37.0961C27.552 37.0793 28.1464 36.4682 28.1464 35.2459V26.5392V26.1123C28.2803 26.2713 28.3473 26.4388 28.4143 26.6062C28.9626 28.0545 29.5089 29.5028 30.0552 30.9512C30.6014 32.3995 31.1477 33.8478 31.696 35.2961C32.19 36.5938 33.2364 37.1379 34.601 36.87C35.4131 36.711 35.9489 36.284 36.2335 35.4887C37.4307 32.1734 38.6362 28.8582 39.8418 25.543C39.849 25.5232 39.8546 25.5023 39.8604 25.481C39.8814 25.4029 39.904 25.3193 40.0092 25.2667V25.7607V35.3882C40.0092 36.3845 40.4948 36.937 41.4659 37.1212C41.8594 37.1965 42.2445 37.1798 42.6296 37.1044C43.4835 36.9454 43.9774 36.3845 43.9774 35.5054V19.7748C43.9774 19.0883 43.6509 18.6028 43.0565 18.3014C42.8947 18.2177 42.718 18.1563 42.5412 18.0949ZM19.373 42.3954C18.7535 42.7638 18.1926 43.1991 18 43.9526V44.5386C18.4604 45.7106 19.5069 46.2129 20.5367 46.7069C21.625 47.251 22.8054 47.4687 24.0193 47.4687H28.448C30.3735 47.4771 31.9474 48.6659 32.4581 50.5244C32.6064 51.0863 33.0311 51.2627 33.4746 51.4468C33.5069 51.4601 33.5392 51.4736 33.5715 51.4872H35.0785C35.7398 51.303 36.0914 50.8844 36.3091 50.2147C36.8533 48.5487 38.4188 47.4855 40.1685 47.4771C40.8179 47.4735 41.4687 47.4745 42.1198 47.4755C42.9881 47.4769 43.8568 47.4783 44.7228 47.4687C46.6483 47.452 48.3561 46.8492 49.8631 45.6437C50.2398 45.3423 50.4742 44.9655 50.65 44.5386V43.9526C50.4742 43.3582 50.064 42.9563 49.5868 42.5963C48.8417 42.0438 48.0882 42.027 47.3683 42.6047C46.5729 43.241 45.6855 43.5507 44.6642 43.5423C43.1656 43.5256 41.6754 43.5172 40.1853 43.5423C38.0504 43.5842 36.1668 44.2958 34.6264 45.7944C34.3417 46.0706 34.1994 46.0371 33.9315 45.786C32.4581 44.3879 30.7 43.6261 28.6573 43.6009C27.3178 43.5842 25.9783 43.5675 24.6388 43.6009C23.3161 43.6344 22.1022 43.3833 21.0557 42.5042C20.5534 42.0773 19.9423 42.0605 19.373 42.3954Z" fill="white"/>
</svg>
