<svg width="69" height="69" viewBox="0 0 69 69" fill="none" xmlns="http://www.w3.org/2000/svg">
<circle cx="34.5" cy="34.5" r="34.5" fill="#7CA1FF"/>
<path fill-rule="evenodd" clip-rule="evenodd" d="M21.664 30.2134C22.3881 30.65 23.2211 30.9245 24.1126 30.9866C24.0429 31.195 23.9792 31.4059 23.9217 31.619C23.4716 33.288 23.4139 35.0444 23.7534 36.7412C24.0928 38.438 24.8196 40.026 25.873 41.3722C26.9263 42.7185 28.2756 43.7838 29.8079 44.4792C31.3402 45.1746 33.011 45.4799 34.6805 45.3693C36.35 45.2588 37.9697 44.7357 39.4041 43.8439C39.6897 43.6657 40.032 43.6123 40.3557 43.6955C40.5159 43.7367 40.6668 43.8102 40.7996 43.9118C40.9324 44.0134 41.0446 44.1411 41.1298 44.2876C41.215 44.4341 41.2715 44.5965 41.2961 44.7657C41.3207 44.9348 41.3129 45.1073 41.2731 45.2733C41.2333 45.4393 41.1624 45.5955 41.0643 45.7331C40.9662 45.8707 40.843 45.9869 40.7015 46.0752C38.6864 47.3382 36.3751 48.004 34.0198 48C33.4368 47.9998 32.8545 47.9603 32.2764 47.8819C29.4515 47.4731 26.8329 46.1195 24.8191 44.0271C22.8053 41.9347 21.5066 39.218 21.1207 36.2906C20.8476 34.2291 21.0419 32.1513 21.664 30.2134ZM30.4704 24.3255C30.284 24.3948 30.0999 24.4695 29.9182 24.5494C29.7596 23.6395 29.3775 22.8064 28.8304 22.1088C29.9054 21.6265 31.0475 21.2929 32.2287 21.125C35.6432 20.6397 39.1039 21.5794 41.8496 23.7372C44.5953 25.895 46.401 29.0943 46.8695 32.6312C47.162 34.7551 46.9612 36.9208 46.2836 38.9482C45.9802 39.8254 45.4206 40.583 44.6825 41.1157C43.9444 41.6484 43.0645 41.9299 42.1649 41.9209C41.3421 41.9184 40.5365 41.6757 39.8407 41.2207C39.1448 40.7657 38.5868 40.1168 38.2307 39.3484C37.3492 40.1828 36.2565 40.7398 35.0805 40.9543C33.9045 41.1688 32.6938 41.0319 31.5902 40.5597C30.4866 40.0874 29.5356 39.2993 28.8486 38.2876C28.1617 37.2759 27.7671 36.0824 27.7111 34.8469C27.6551 33.6113 27.94 32.3848 28.5324 31.3109C29.1249 30.237 30.0003 29.3601 31.0564 28.7828C32.1125 28.2055 33.3054 27.9517 34.4956 28.0511C35.6859 28.1505 36.8241 28.5991 37.7772 29.3442V29.332C37.7772 28.9867 37.9097 28.6554 38.1455 28.4112C38.3812 28.167 38.701 28.0297 39.0345 28.0297C39.3679 28.0297 39.6877 28.167 39.9234 28.4112C40.1592 28.6554 40.2917 28.9867 40.2917 29.332V37.3759C40.2923 37.8903 40.4899 38.3834 40.8411 38.7472C41.1922 39.1109 41.6683 39.3156 42.1649 39.3163C42.5418 39.3254 42.912 39.2128 43.2243 38.994C43.5365 38.7753 43.7753 38.4613 43.9075 38.0956C44.4168 36.5749 44.5931 34.9559 44.4238 33.3558C44.2544 31.7558 43.7436 30.2148 42.9283 28.8445C42.113 27.4742 41.0136 26.309 39.7098 25.4332C38.4061 24.5574 36.9305 23.9929 35.3902 23.7808C33.7318 23.5529 32.0448 23.7397 30.4704 24.3255ZM34.0055 38.4481C33.2596 38.4481 32.5304 38.219 31.9101 37.7897C31.2899 37.3604 30.8064 36.7502 30.521 36.0363C30.2355 35.3224 30.1608 34.5369 30.3063 33.779C30.4519 33.0212 30.8111 32.325 31.3386 31.7786C31.866 31.2322 32.5381 30.8602 33.2697 30.7094C34.0014 30.5587 34.7597 30.636 35.4489 30.9317C36.1381 31.2274 36.7271 31.7282 37.1416 32.3707C37.556 33.0132 37.7772 33.7685 37.7772 34.5412C37.7761 35.577 37.3784 36.5701 36.6713 37.3025C35.9642 38.035 35.0055 38.4469 34.0055 38.4481ZM24.5 29C26.433 29 28 27.433 28 25.5C28 23.567 26.433 22 24.5 22C22.567 22 21 23.567 21 25.5C21 27.433 22.567 29 24.5 29Z" fill="white"/>
</svg>
