<svg width="69" height="69" viewBox="0 0 69 69" fill="none" xmlns="http://www.w3.org/2000/svg">
<circle cx="34.5" cy="34.5" r="34.5" fill="#FFB185"/>
<path d="M46.5972 27.8472L38.2639 19.5139C38.1341 19.3852 37.9802 19.2833 37.811 19.2142C37.6417 19.1451 37.4605 19.1101 37.2778 19.1111H26.1667C25.0616 19.1111 24.0018 19.5501 23.2204 20.3315C22.439 21.1129 22 22.1727 22 23.2778V45.5C22 46.605 22.439 47.6648 23.2204 48.4462C24.0018 49.2277 25.0616 49.6666 26.1667 49.6666H42.8333C43.9384 49.6666 44.9982 49.2277 45.7796 48.4462C46.561 47.6648 47 46.605 47 45.5V28.8333C47.001 28.6505 46.966 28.4693 46.8969 28.3001C46.8278 28.1309 46.7259 27.977 46.5972 27.8472V27.8472ZM44.2222 45.5C44.2222 45.8683 44.0759 46.2216 43.8154 46.4821C43.5549 46.7425 43.2017 46.8889 42.8333 46.8889H26.1667C25.7983 46.8889 25.445 46.7425 25.1846 46.4821C24.9241 46.2216 24.7778 45.8683 24.7778 45.5V23.2778C24.7778 22.9094 24.9241 22.5561 25.1846 22.2957C25.445 22.0352 25.7983 21.8889 26.1667 21.8889H35.8889V28.8333C35.8889 29.2017 36.0352 29.5549 36.2957 29.8154C36.5561 30.0759 36.9094 30.2222 37.2778 30.2222H44.2222V45.5ZM28.9444 33H40.0555V35.7778H28.9444V33ZM28.9444 38.5555H37.2778V41.3333H28.9444V38.5555Z" fill="white"/>
</svg>
