<svg width="69" height="69" viewBox="0 0 69 69" fill="none" xmlns="http://www.w3.org/2000/svg">
<circle cx="34.5" cy="34.5" r="34.5" fill="#FB6970"/>
<path d="M36.6047 21C37.0091 21 37.4135 21 37.8179 21C37.8596 21.0167 37.9024 21.0178 37.9464 21.0202C38.22 21.0369 38.4924 21.063 38.7624 21.1011C40.5965 21.3628 42.2688 22.042 43.8056 23.0673C44.8607 23.7714 45.792 24.6159 46.6068 25.5889C47.2776 26.3882 47.8497 27.2517 48.3196 28.1831C48.8334 29.2001 49.2117 30.2658 49.446 31.3815C49.5828 32.0345 49.6839 32.6911 49.6958 33.3607C49.697 33.4036 49.7077 33.4464 49.7136 33.4892C49.7136 33.9174 49.7136 34.3456 49.7136 34.7738C49.7041 34.8166 49.6958 34.8583 49.6946 34.9023C49.6851 35.447 49.6089 35.9847 49.5138 36.5187C49.2497 38.002 48.762 39.4067 48.046 40.7329C47.4798 41.7808 46.7959 42.7443 45.9883 43.6197C45.4697 44.1823 44.913 44.7057 44.3111 45.1827C43.3215 45.9665 42.2522 46.6195 41.1008 47.1381C40.129 47.5758 39.1239 47.9113 38.0832 48.1432C37.3362 48.3097 36.5797 48.4204 35.8161 48.4834C35.6591 48.4965 35.4985 48.4881 35.3439 48.5238C34.7813 48.5238 34.2175 48.5238 33.6549 48.5238C33.6204 48.5179 33.5847 48.5072 33.5502 48.506C33.059 48.4763 32.5725 48.4168 32.0872 48.3371C30.5599 48.0849 29.1017 47.6115 27.7076 46.9419C26.9202 46.5636 26.1697 46.1235 25.4501 45.6275C24.2654 44.8104 23.2068 43.8552 22.2849 42.7502C21.3595 41.6417 20.6102 40.4237 20.0737 39.0796C20.0559 39.0356 20.0416 38.9892 20 38.9607C20 38.9131 20 38.8655 20 38.8179C20.0119 38.7977 20.0285 38.7787 20.0345 38.7561C20.0916 38.5491 20.1796 38.3529 20.2415 38.1483C20.2831 38.0115 20.3116 37.8711 20.3045 37.7272C20.2926 37.4976 20.2855 37.2681 20.2664 37.0385C20.2308 36.5984 20.4413 36.2226 20.8398 36.0322C20.9218 35.993 21.0051 35.9549 21.0872 35.9169C21.4892 35.7349 21.7247 35.4256 21.8127 34.9939C21.9103 34.5109 22.2921 34.141 22.7774 34.0578C23.2436 33.9781 23.6754 34.0946 24.075 34.3337C24.5389 34.612 24.8494 35.0176 25.029 35.5255C25.23 36.0893 25.4417 36.6496 25.6891 37.1955C26.0733 38.0436 26.5289 38.8489 27.101 39.5863C27.6363 40.275 28.2619 40.8662 28.9922 41.3431C29.8177 41.8831 30.7205 42.24 31.6816 42.4541C32.2703 42.5849 32.8663 42.667 33.4705 42.6991C34.1045 42.7336 34.7385 42.7372 35.37 42.6717C36.1908 42.5873 36.9877 42.4053 37.7608 42.1151C39.2155 41.5679 40.4585 40.7115 41.4636 39.5268C42.6804 38.0936 43.3524 36.4307 43.4702 34.5526C43.519 33.7699 43.4571 32.9908 43.2668 32.2272C42.9076 30.7832 42.1808 29.5557 41.0925 28.5423C40.4799 27.9714 39.7936 27.5158 39.0205 27.1946C38.4246 26.9472 37.8084 26.7997 37.159 26.8105C36.682 26.8188 36.2098 26.8711 35.7447 26.9758C34.3792 27.2815 33.2183 27.9452 32.2941 28.9967C31.3378 30.085 30.818 31.3684 30.6586 32.8029C30.6075 33.2585 30.3946 33.62 30.0021 33.8675C29.8022 33.9935 29.581 34.0423 29.3443 34.0411C28.143 34.0364 26.9416 34.0364 25.7403 34.0328C25.657 34.0328 25.5738 34.0256 25.4917 34.0149C25.1432 33.9662 24.8744 33.6938 24.8327 33.3453C24.8232 33.2632 24.8256 33.1788 24.8303 33.0955C24.8518 32.7434 24.8815 32.3913 24.9267 32.0416C25.0587 31.0116 25.2871 30.0053 25.6344 29.0252C25.9841 28.0368 26.4432 27.1042 27.0261 26.2336C27.6434 25.3129 28.3701 24.4887 29.2218 23.7774C29.8784 23.229 30.5873 22.758 31.3485 22.3667C32.1383 21.9611 32.9638 21.6506 33.8226 21.427C34.5922 21.226 35.3736 21.1011 36.1658 21.0393C36.3133 21.0285 36.4608 21.0357 36.6047 21Z" fill="white"/>
</svg>
