<svg width="69" height="69" viewBox="0 0 69 69" fill="none" xmlns="http://www.w3.org/2000/svg">
<circle cx="34.5" cy="34.5" r="34.5" fill="#C198F3"/>
<path fill-rule="evenodd" clip-rule="evenodd" d="M18 34.6719C18 26.0304 25.0304 19 33.6719 19C42.3133 19 49.3438 26.0304 49.3438 34.6719C49.3438 43.3133 42.3133 50.3438 33.6719 50.3438C25.0304 50.3438 18 43.3133 18 34.6719ZM20.4111 34.6719C20.4111 41.9839 26.3599 47.9327 33.6719 47.9327C40.9839 47.9327 46.9327 41.9839 46.9327 34.6719C46.9327 27.3599 40.9839 21.4111 33.6719 21.4111C26.3599 21.4111 20.4111 27.3599 20.4111 34.6719ZM33.1329 38.8252L39.5944 32.3636C40.1352 31.823 40.1352 30.9462 39.5945 30.4055C39.0538 29.8648 38.177 29.8648 37.6364 30.4055L32.1538 35.888L30.3637 34.0978C29.823 33.5572 28.9462 33.5572 28.4056 34.0978C27.8648 34.6386 27.8648 35.5153 28.4056 36.056L31.1748 38.8252C31.4451 39.0956 31.7995 39.2308 32.1538 39.2308C32.5082 39.2308 32.8626 39.0956 33.1329 38.8252Z" fill="white"/>
</svg>
