<svg width="69" height="69" viewBox="0 0 69 69" fill="none" xmlns="http://www.w3.org/2000/svg">
<circle cx="34.5" cy="34.5" r="34.5" fill="#FC9292"/>
<path d="M32.0667 20C33.36 20 34.64 20 35.9333 20C36.24 20.0667 36.5333 20.1333 36.84 20.2C41.1867 21.1067 44.5467 23.44 46.9067 27.2133C48.0267 29.0133 48.6 31.0133 49 33.0667C49 34.36 49 35.64 49 36.9333C48.9333 37.2133 48.8667 37.4933 48.8133 37.7733C47.88 42.3867 45.3333 45.8267 41.28 48.1733C39.5467 49.1867 37.6267 49.6667 35.68 50C34.52 50 33.3733 50 32.2133 50C32.0133 49.96 31.8267 49.9067 31.6267 49.8667C25.6933 48.6933 21.6667 45.2933 19.6667 39.56C19.36 38.72 19.2133 37.8133 19 36.9333C19 35.64 19 34.36 19 33.0667C19.0667 32.76 19.1333 32.4667 19.2 32.16C20.12 27.6933 22.5467 24.3067 26.44 21.96C28.1867 20.92 30.1067 20.4 32.0667 20ZM33.52 49.2667C40.6933 49.5067 47.6533 44.2533 48.28 35.8533C48.8533 28 42.76 21.2 34.64 20.7333C27.2 20.3067 20.2267 25.9867 19.7333 34.16C19.2667 41.96 25.16 48.9067 33.52 49.2667Z" fill="white"/>
<path d="M46.8933 35.04C46.9067 42.0533 41.1467 47.8667 34.1733 47.88C26.9067 47.8933 21.12 42.2133 21.1067 35.0533C21.0933 27.9067 26.8667 22.1067 34 22.0933C41.1333 22.08 46.88 27.8533 46.8933 35.04ZM32.7067 42.4933C35.6933 42.4933 38.1733 42.48 40.6667 42.5067C41.2667 42.5067 41.5067 42.2933 41.4933 41.6933C41.48 41 41.4533 40.32 41.3467 39.64C40.9733 37.3067 39.4133 35.6533 37.1733 35.1733C36.6533 35.0667 36.24 35.1467 35.8533 35.5467C35.1333 36.3067 34.36 37 33.6267 37.7467C33.2533 38.1333 33 38.0933 32.64 37.72C31.92 36.9733 31.16 36.2533 30.4267 35.5067C30.1067 35.1733 29.7467 35.04 29.2933 35.12C27.5867 35.3867 26.2667 36.2267 25.4933 37.8133C24.9067 39 24.7733 40.2667 24.7733 41.5733C24.7733 42.1467 24.9467 42.4133 25.56 42.44C28.1067 42.5467 30.6667 42.4267 32.7067 42.4933ZM33.1333 26.3867C30.7733 26.3467 28.8267 28.2133 28.7867 30.5867C28.7467 32.9733 30.6 34.9733 32.92 35.0133C35.4933 35.0667 37.4533 33.2 37.48 30.6533C37.5067 28.3067 35.6133 26.44 33.1333 26.3867ZM37.9067 33.2267C39.16 33.1867 40.5733 31.76 40.9333 30.2267C41.3867 28.3067 40.5067 26.36 38.84 25.3733C37.76 24.7467 35.64 24.5733 34.7333 25.44C38.4933 27.0133 39.1867 30.4533 37.9067 33.2267ZM43.3733 40.1067C43.7333 40.0533 44.3067 40.2667 44.28 39.5733C44.2267 38.1067 43.9867 36.6933 43.1067 35.4667C42.3067 34.3733 41.2 33.8533 39.84 33.84C39.4133 33.84 39.2133 34.1333 39.0267 34.4267C38.8933 34.64 39.0667 34.7467 39.24 34.8267C41.12 35.6933 41.9333 37.3333 42.3067 39.2267C42.44 39.8933 42.68 40.2267 43.3733 40.1067Z" fill="white"/>
</svg>
