<svg width="69" height="69" viewBox="0 0 69 69" fill="none" xmlns="http://www.w3.org/2000/svg">
<circle cx="34.5" cy="34.5" r="34.5" fill="#00BAFF"/>
<path d="M20 43.082C20 37.3896 20 31.6972 20 26.0048C20.0906 25.8366 20.1466 25.6469 20.2717 25.4916C20.5822 25.1207 20.9832 25 21.4576 25C30.4792 25.0043 39.4965 25.0043 48.5181 25.0043C48.6173 25.0043 48.7208 25.0043 48.82 25.0129C49.0874 25.0302 49.3202 25.1337 49.5315 25.2976C49.7256 25.4528 49.7342 25.5218 49.5962 25.7288C47.9618 28.1998 46.0644 30.4423 43.7788 32.3398C42.1314 33.7068 40.3288 34.828 38.2632 35.4663C36.2751 36.0786 34.2742 36.0873 32.2646 35.5655C30.6474 35.1472 29.2243 34.3666 27.9953 33.2367C26.9603 32.2837 26.1452 31.1754 25.5674 29.8946C25.2957 29.2909 25.0714 28.6699 24.9248 28.023C24.9032 27.9195 24.886 27.7901 24.748 27.7858C24.403 27.7729 24.058 27.7255 23.7259 27.8635C23.1179 28.1179 22.8031 28.7303 22.9152 29.4591C23.0748 30.494 23.3421 31.4988 23.7475 32.4648C24.3642 33.9397 25.2137 35.2636 26.3436 36.3978C27.5381 37.6009 28.9397 38.5022 30.5094 39.1448C32.4629 39.9426 34.4855 40.2056 36.5727 39.934C38.634 39.6623 40.5013 38.8731 42.222 37.7174C44.0116 36.5142 45.5167 35.0135 46.8665 33.3446C47.9316 32.0293 48.8674 30.6234 49.7213 29.1658C49.786 29.0537 49.8334 28.9243 49.9499 28.8338C50.0059 28.9502 49.9844 29.0537 49.9844 29.1529C49.9844 33.5645 49.9844 37.9761 49.9844 42.392C49.9844 42.5128 49.98 42.6379 49.993 42.7586C50.0663 43.4486 49.5574 44.0523 48.8631 44.0868C48.7208 44.0955 48.5742 44.0911 48.4319 44.0911C39.4836 44.0911 30.5353 44.0911 21.5913 44.0911C21.4533 44.0911 21.3196 44.0911 21.1816 44.0911C20.7461 44.0911 20.4356 43.8712 20.1984 43.5262C20.0992 43.3796 20.069 43.2243 20 43.082Z" fill="white"/>
</svg>
