<svg width="69" height="69" viewBox="0 0 69 69" fill="none" xmlns="http://www.w3.org/2000/svg">
<circle cx="34.5" cy="34.5" r="34.5" fill="#FF6000"/>
<path fill-rule="evenodd" clip-rule="evenodd" d="M40.7211 15.0783C40.6482 15.053 40.5753 15.0276 40.5039 15H38.9085C38.7565 15.0483 38.6046 15.1036 38.4526 15.1589C37.7965 15.3868 37.3959 15.8564 37.1749 16.5057C36.0698 19.814 34.9578 23.1154 33.8458 26.4168C33.8343 26.4627 33.8133 26.5039 33.7907 26.5482C33.7861 26.5572 33.7814 26.5663 33.7768 26.5757C33.6676 26.5484 33.649 26.465 33.6324 26.3903C33.628 26.3705 33.6237 26.3513 33.6179 26.3339C33.3062 25.4435 32.993 24.5531 32.6796 23.6623C31.8748 21.3749 31.0693 19.0854 30.2889 16.7888C29.985 15.891 29.4946 15.2486 28.5553 15H26.9667C26.7872 15.076 26.6076 15.145 26.428 15.2141L26.428 15.2141C25.8616 15.4697 25.5716 15.9117 25.5716 16.5195C25.5647 20.8224 25.5647 25.1253 25.5716 29.4282C25.5716 30.2293 26.055 30.7059 26.8631 30.7473C26.9825 30.7577 27.1057 30.7564 27.227 30.7551C27.2672 30.7547 27.3071 30.7543 27.3466 30.7543C28.355 30.7404 28.8454 30.2362 28.8454 29.2279V22.0449V21.6926C28.9559 21.8239 29.0111 21.962 29.0664 22.1001C29.5188 23.295 29.9694 24.4898 30.4201 25.6847C30.8707 26.8795 31.3214 28.0744 31.7738 29.2693C32.1813 30.3399 33.0446 30.7888 34.1704 30.5678C34.8404 30.4365 35.2824 30.0843 35.5173 29.4282C36.5046 26.6939 37.4989 23.9597 38.4932 21.2254L38.4941 21.223C38.5 21.2067 38.5046 21.1894 38.5094 21.1718C38.5268 21.1074 38.5454 21.0384 38.6322 20.995V21.4025V29.3453C38.6322 30.1672 39.0328 30.623 39.834 30.775C40.1586 30.8371 40.4763 30.8233 40.794 30.7612C41.4985 30.6299 41.906 30.1672 41.906 29.442V16.4642C41.906 15.8979 41.6366 15.4973 41.1462 15.2486C41.0127 15.1796 40.8669 15.1289 40.7211 15.0783ZM21.6073 35.1262C21.0962 35.4301 20.6335 35.7892 20.4746 36.4108V36.8943C20.8545 37.8612 21.7178 38.2756 22.5673 38.6831C23.4652 39.1321 24.4391 39.3116 25.4405 39.3116H29.0942C30.6828 39.3186 31.9812 40.2993 32.4025 41.8326C32.5249 42.2962 32.8753 42.4416 33.2412 42.5935C33.2678 42.6046 33.2944 42.6156 33.3211 42.6269H34.5643C35.11 42.4749 35.4001 42.1296 35.5796 41.5771C36.0286 40.2026 37.3201 39.3255 38.7636 39.3186C39.2994 39.3156 39.8363 39.3164 40.3735 39.3173C41.0899 39.3184 41.8065 39.3195 42.5209 39.3116C44.1094 39.2978 45.5184 38.8006 46.7616 37.806C47.0724 37.5573 47.2658 37.2465 47.4109 36.8943V36.4108C47.2658 35.9204 46.9274 35.5889 46.5337 35.2919C45.919 34.8361 45.2974 34.8223 44.7034 35.2988C44.0473 35.8237 43.3152 36.0793 42.4725 36.0724C41.2362 36.0586 40.0068 36.0517 38.7774 36.0724C37.0162 36.1069 35.4622 36.694 34.1914 37.9303C33.9565 38.1582 33.8391 38.1306 33.6181 37.9234C32.4025 36.77 30.9521 36.1415 29.2669 36.1207C28.1618 36.1069 27.0567 36.0931 25.9516 36.1207C24.8604 36.1484 23.8589 35.9412 22.9956 35.216C22.5812 34.8637 22.077 34.8499 21.6073 35.1262Z" fill="white"/>
<path d="M20.2663 53.2251H20.9117L22.8404 47.9935H22.1552L20.618 52.3804H20.56L19.0228 47.9935H18.3376L20.2663 53.2251ZM24.9106 53.294C25.8315 53.294 26.3898 52.7719 26.5239 52.2426L26.5312 52.2136H25.9003L25.8858 52.2462C25.7807 52.4819 25.4544 52.732 24.9251 52.732C24.229 52.732 23.7831 52.2607 23.7649 51.4522H26.5783V51.2057C26.5783 50.0383 25.933 49.2479 24.8707 49.2479C23.8084 49.2479 23.1196 50.0745 23.1196 51.2818V51.2855C23.1196 52.5109 23.7939 53.294 24.9106 53.294ZM24.8671 49.8099C25.4435 49.8099 25.8713 50.1761 25.9366 50.9483H23.7758C23.8447 50.2051 24.287 49.8099 24.8671 49.8099ZM27.5572 53.2251H28.188V50.8033C28.188 50.2304 28.6158 49.8498 29.2177 49.8498C29.3554 49.8498 29.4751 49.8643 29.6056 49.886V49.2733C29.544 49.2624 29.4098 49.2479 29.2902 49.2479C28.7609 49.2479 28.3947 49.4872 28.246 49.8969H28.188V49.3168H27.5572V53.2251ZM31.654 53.294C32.5422 53.294 33.2202 52.8118 33.2202 52.1157V52.1084C33.2202 51.5501 32.8649 51.2311 32.1289 51.0534L31.5271 50.9084C31.0667 50.796 30.8709 50.6292 30.8709 50.3646V50.3573C30.8709 50.0129 31.2117 49.7736 31.6757 49.7736C32.1471 49.7736 32.4516 49.9875 32.535 50.2957H33.1549C33.0679 49.6576 32.4987 49.2479 31.6794 49.2479C30.8491 49.2479 30.2256 49.7374 30.2256 50.3863V50.39C30.2256 50.9519 30.5555 51.271 31.2878 51.445L31.8933 51.59C32.3755 51.706 32.5749 51.8909 32.5749 52.1556V52.1628C32.5749 52.5181 32.2014 52.7683 31.6757 52.7683C31.1754 52.7683 30.8636 52.5544 30.7585 52.2281H30.1132C30.1857 52.8734 30.7839 53.294 31.654 53.294ZM34.5326 48.5627C34.7719 48.5627 34.9677 48.3669 34.9677 48.1277C34.9677 47.8884 34.7719 47.6926 34.5326 47.6926C34.2933 47.6926 34.0976 47.8884 34.0976 48.1277C34.0976 48.3669 34.2933 48.5627 34.5326 48.5627ZM34.2136 53.2251H34.8444V49.3168H34.2136V53.2251ZM37.6397 53.294C38.7527 53.294 39.4415 52.5254 39.4415 51.2746V51.2673C39.4415 50.0129 38.7527 49.2479 37.6397 49.2479C36.5266 49.2479 35.8378 50.0129 35.8378 51.2673V51.2746C35.8378 52.5254 36.5266 53.294 37.6397 53.294ZM37.6397 52.7357C36.9001 52.7357 36.4831 52.1955 36.4831 51.2746V51.2673C36.4831 50.3428 36.9001 49.8063 37.6397 49.8063C38.3793 49.8063 38.7962 50.3428 38.7962 51.2673V51.2746C38.7962 52.1955 38.3793 52.7357 37.6397 52.7357ZM40.4204 53.2251H41.0513V50.912C41.0513 50.2268 41.4464 49.8063 42.07 49.8063C42.6936 49.8063 42.9836 50.1434 42.9836 50.8468V53.2251H43.6145V50.6945C43.6145 49.7664 43.125 49.2479 42.2477 49.2479C41.6712 49.2479 41.305 49.4908 41.1093 49.9042H41.0513V49.3168H40.4204V53.2251ZM48.6213 53.3121C49.669 53.3121 50.4376 52.6668 50.4376 51.793V51.7858C50.4376 51.0426 49.9192 50.5676 49.1579 50.5024V50.4879C49.8104 50.3501 50.2672 49.9078 50.2672 49.2624V49.2552C50.2672 48.4612 49.611 47.9065 48.614 47.9065C47.6351 47.9065 46.9608 48.4757 46.8774 49.3277L46.8738 49.364H47.501L47.5046 49.3277C47.559 48.7984 47.9977 48.4721 48.614 48.4721C49.2521 48.4721 49.611 48.7875 49.611 49.3349V49.3422C49.611 49.8643 49.176 50.2486 48.5524 50.2486H47.9252V50.7996H48.5814C49.3137 50.7996 49.7742 51.1586 49.7742 51.8003V51.8075C49.7742 52.3622 49.3065 52.7465 48.6213 52.7465C47.9252 52.7465 47.4502 52.3912 47.3995 51.8764L47.3959 51.8402H46.7687L46.7723 51.8837C46.8412 52.7103 47.5409 53.3121 48.6213 53.3121Z" fill="white"/>
</svg>
