<svg width="69" height="69" viewBox="0 0 69 69" fill="none" xmlns="http://www.w3.org/2000/svg">
<circle cx="34.5" cy="34.5" r="34.5" fill="#8CD186"/>
<path fill-rule="evenodd" clip-rule="evenodd" d="M45.7299 44.1768C46.2627 44.1768 46.6945 44.6087 46.6945 45.1415C46.6945 47.2691 44.9637 49 42.836 49H25.8585C23.7309 49 22 47.2691 22 45.1415V22.8585C22 20.7309 23.7309 19 25.8585 19H42.836C44.9637 19 46.6945 20.7309 46.6945 22.8585V40.3183C46.6945 40.8511 46.2627 41.283 45.7299 41.283C45.1971 41.283 44.7653 40.8511 44.7653 40.3183V22.8585C44.7653 21.7948 43.8997 20.9293 42.836 20.9293H25.8585C24.7948 20.9293 23.9293 21.7948 23.9293 22.8585V45.1415C23.9293 46.2052 24.7948 47.0707 25.8585 47.0707H42.836C43.8997 47.0707 44.7653 46.2052 44.7653 45.1415C44.7653 44.6087 45.1971 44.1768 45.7299 44.1768ZM41.8722 23.2927C42.405 23.2927 42.8369 23.7245 42.8369 24.2574C42.8369 24.7902 42.405 25.222 41.8722 25.222H26.824C26.2912 25.222 25.8594 24.7902 25.8594 24.2574C25.8594 23.7245 26.2912 23.2927 26.824 23.2927H41.8722ZM40.9076 37.1293H27.7886C26.7249 37.1293 25.8594 36.2638 25.8594 35.2001V33.2766C25.8594 32.2129 26.7249 31.3474 27.7886 31.3474H40.9076C41.9713 31.3474 42.8369 32.2129 42.8369 33.2766V35.2001C42.8369 36.2638 41.9713 37.1293 40.9076 37.1293ZM27.7886 33.2766H27.7875L27.7886 35.2001H40.9076V33.2766H27.7886ZM42.8369 28.5982C42.8369 28.0654 42.405 27.6336 41.8722 27.6336H26.824C26.2912 27.6336 25.8594 28.0654 25.8594 28.5982C25.8594 29.131 26.2912 29.5628 26.824 29.5628H41.8722C42.405 29.5628 42.8369 29.131 42.8369 28.5982ZM42.8369 41.8136C42.8369 41.2808 42.405 40.849 41.8722 40.849H34.5411C34.0082 40.849 33.5764 41.2808 33.5764 41.8136C33.5764 42.3464 34.0082 42.7783 34.5411 42.7783H41.8722C42.405 42.7783 42.8369 42.3464 42.8369 41.8136ZM29.7179 44.6958H27.7886C26.7249 44.6958 25.8594 43.8303 25.8594 42.7666V40.8432C25.8594 39.7792 26.7249 38.9139 27.7886 38.9139H29.7179C30.7816 38.9139 31.6472 39.7792 31.6472 40.8432V42.7666C31.6472 43.8303 30.7816 44.6958 29.7179 44.6958ZM27.7886 40.8432H27.7875L27.7886 42.7666H29.7179V40.8432H27.7886Z" fill="white"/>
</svg>
