<svg width="69" height="69" viewBox="0 0 69 69" fill="none" xmlns="http://www.w3.org/2000/svg">
<circle cx="34.5" cy="34.5" r="34.5" fill="#47D8CF"/>
<path fill-rule="evenodd" clip-rule="evenodd" d="M45.7739 21C46.3687 20.996 46.8541 21.475 46.8583 22.0698L47 45.8787C47.0042 46.474 46.525 46.9599 45.9297 46.9638L22.2261 47.1195C21.6313 47.1235 21.1457 46.6445 21.1415 46.0499L21 22.2403C20.9961 21.645 21.4754 21.1597 22.0705 21.1557L45.7739 21ZM27.5357 22.155H26.4582V23.2325H27.5357V22.155ZM25.3808 22.155H24.3033V23.2325H25.3808V22.155ZM23.226 22.155H22.1485V23.2325H23.226V22.155ZM40.6571 37.0755H42.081C42.3786 37.0755 42.6197 36.8341 42.6197 36.5368V33.3044C42.6197 33.0069 42.3786 32.7657 42.081 32.7657H40.6571C40.5431 32.4117 40.4009 32.0675 40.231 31.7367L41.2379 30.7305C41.448 30.5199 41.448 30.1791 41.2379 29.9686L38.952 27.6828C38.7416 27.4726 38.4007 27.4726 38.1903 27.6828L37.1842 28.6891C36.8529 28.5202 36.5089 28.3777 36.1552 28.2636V26.84C36.1552 26.5423 35.914 26.3011 35.6164 26.3011H32.3841C31.8168 26.2437 31.8283 26.4671 31.8414 26.7215C31.8434 26.7606 31.8455 26.8004 31.8455 26.84V28.2636C31.4917 28.3777 31.1476 28.5202 30.8165 28.6891L29.8104 27.6828C29.5998 27.4726 29.2589 27.4726 29.0485 27.6828L26.7626 29.9686C26.5525 30.1791 26.5525 30.5199 26.7626 30.7305L27.769 31.7367C27.7239 31.8252 27.6807 31.9134 27.6396 32.0029C27.526 32.2513 27.4271 32.5058 27.3434 32.7657H25.9195C25.6221 32.7657 25.3808 33.0069 25.3808 33.3044V36.5368C25.3808 36.8341 25.6221 37.0755 25.9195 37.0755H27.3434C27.4574 37.4294 27.5997 37.7735 27.7695 38.1045L26.7626 39.1106C26.5525 39.321 26.5525 39.6619 26.7626 39.8724L29.0485 42.1582C29.2589 42.3684 29.5998 42.3684 29.8104 42.1582L30.8165 41.1518C31.1476 41.321 31.4917 41.4632 31.8455 41.5774V43.0014C31.8455 43.2987 32.0865 43.5401 32.3841 43.5401H35.6164C35.914 43.5401 36.1552 43.2987 36.1552 43.0014V41.5774C36.5089 41.4632 36.8529 41.321 37.1842 41.1518L38.1903 42.1582C38.4007 42.3684 38.7416 42.3684 38.952 42.1582L41.2379 39.8724C41.448 39.6619 41.448 39.321 41.2379 39.1106L40.231 38.1045C40.4009 37.7735 40.5431 37.4294 40.6571 37.0755ZM22.1485 45.4259L45.852 45.4259V24.3099H22.1485V45.4259ZM30.2062 34.8918C30.2062 36.9746 31.8943 38.6629 33.9772 38.6629C36.0588 38.6604 37.7459 36.9734 37.7481 34.8918C37.7481 32.8089 36.06 31.1208 33.9772 31.1208C31.8943 31.1208 30.2062 32.8089 30.2062 34.8918Z" fill="white"/>
</svg>
