<svg width="110" height="110" viewBox="0 0 110 110" fill="none" xmlns="http://www.w3.org/2000/svg">
<rect x="0.398438" width="109.2" height="110" rx="54.6002" fill="#D1FAE5"/>
<path d="M61.3984 45C63.6076 45 65.3984 46.7909 65.3984 49M73.3984 49C73.3984 55.6274 68.0259 61 61.3984 61C60.1861 61 59.0157 60.8202 57.9126 60.4859L53.3984 65H49.3984V69H45.3984V73H39.3984C38.2939 73 37.3984 72.1046 37.3984 71V65.8284C37.3984 65.298 37.6091 64.7893 37.9842 64.4142L49.9126 52.4859C49.5782 51.3827 49.3984 50.2123 49.3984 49C49.3984 42.3726 54.771 37 61.3984 37C68.0259 37 73.3984 42.3726 73.3984 49Z" stroke="#059669" stroke-width="2" stroke-linecap="round" stroke-linejoin="round"/>
</svg>
