<svg width="110" height="110" viewBox="0 0 110 110" fill="none" xmlns="http://www.w3.org/2000/svg">
<rect x="0.398438" width="109.2" height="110" rx="54.6002" fill="#FFEDD5"/>
<path d="M98.3121 47.1005C97.1927 47.7469 95.748 47.3597 95.1016 46.2404L89.6177 36.7422C88.9715 35.6228 89.3585 34.1781 90.4779 33.5319C91.5972 32.8854 93.042 33.2727 93.6884 34.392L99.1723 43.8902C99.8187 45.0096 99.4317 46.4543 98.3121 47.1005Z" fill="#FED7AA"/>
<path d="M70.0946 9.53249C68.9771 10.1755 67.5328 9.79079 66.8845 8.668L62.1562 0.476562C64.2279 0.745321 66.2572 1.1355 68.2497 1.63618H68.2549L70.9591 6.3224C71.6021 7.43972 71.2174 8.88401 70.0946 9.53249Z" fill="#FED7AA"/>
<path d="M10.9053 36.2084C9.78771 36.8569 8.34342 36.4667 7.69517 35.3492L5.3125 31.2218C6.10854 29.5613 6.98871 27.9431 7.94801 26.3828L11.7643 32.9983C12.4128 34.1211 12.0228 35.5654 10.9053 36.2084Z" fill="#FED7AA"/>
<path d="M26.726 58.1944C25.6067 58.8406 24.1619 58.4536 23.5157 57.3342L18.0319 47.8361C17.3854 46.7167 17.7727 45.2719 18.892 44.6255C20.0114 43.9793 21.4561 44.3663 22.1023 45.4857L27.5862 54.9838C28.2326 56.1034 27.8456 57.5482 26.726 58.1944Z" fill="#FED7AA"/>
<path d="M14.0933 83.167C12.974 83.8133 11.5292 83.4263 10.8828 82.3069L5.39895 72.8087C4.75275 71.6893 5.13974 70.2446 6.25911 69.5982C7.37848 68.952 8.82323 69.339 9.46943 70.4583L14.9533 79.9565C15.5999 81.0761 15.2129 82.5208 14.0933 83.167Z" fill="#FED7AA"/>
<path d="M105.733 76.0601C105.006 77.8259 104.183 79.5392 103.277 81.1995L99.5025 74.6631C98.854 73.5403 99.239 72.096 100.362 71.453C100.731 71.2422 101.131 71.1367 101.532 71.1367C102.344 71.1367 103.135 71.5585 103.572 72.3122L105.733 76.0601Z" fill="#FED7AA"/>
<path d="M70.4488 107.767C68.8938 108.226 67.3124 108.616 65.6994 108.938H65.6941L61.9831 102.507C61.3401 101.389 61.7248 99.945 62.8476 99.2967C63.2166 99.086 63.6173 98.9805 64.0124 98.9805C64.8294 98.9805 65.6202 99.4075 66.0577 100.156L70.4488 107.767Z" fill="#FED7AA"/>
<path d="M67.4605 73.6707C66.3412 74.3172 64.8964 73.9299 64.25 72.8106L58.7661 63.3124C58.1199 62.193 58.5069 60.7483 59.6263 60.1021C60.7457 59.4559 62.1904 59.8429 62.8369 60.9622L68.3207 70.4604C68.9671 71.5796 68.5799 73.0243 67.4605 73.6707Z" fill="#FED7AA"/>
<path d="M40.6244 27.2489C39.505 27.8951 38.0603 27.5081 37.414 26.3887L31.9302 16.8905C31.284 15.7711 31.671 14.3264 32.7904 13.6802C33.9097 13.034 35.3545 13.421 36.0009 14.5404L41.4848 24.0385C42.131 25.1579 41.7437 26.6027 40.6244 27.2489Z" fill="#FED7AA"/>
<path d="M36.5151 98.3389C35.3957 98.9851 33.951 98.5981 33.3048 97.4788L27.8209 87.9806C27.1745 86.8612 27.5617 85.4165 28.6811 84.77C29.8005 84.1238 31.2452 84.5108 31.8916 85.6302L37.3755 95.1284C38.0217 96.2477 37.6345 97.6925 36.5151 98.3389Z" fill="#FED7AA"/>
<path d="M68.4591 47.9413V45.1177C68.4591 37.3336 62.1667 31 54.4332 31C46.6998 31 40.4073 37.3336 40.4073 45.1177V47.9413C37.3088 47.9413 34.7969 50.4694 34.7969 53.5885V73.3531C34.7972 76.4716 37.3088 79 40.4073 79H68.4591C71.5576 79 74.0696 76.4716 74.0696 73.3528V53.5882C74.0693 50.4694 71.5576 47.9413 68.4591 47.9413ZM46.0178 45.1177C46.0178 40.4467 49.7926 36.6472 54.4332 36.6472C59.0739 36.6472 62.8487 40.4467 62.8487 45.1177V47.9413H46.0178V45.1177ZM57.2382 64.8823C57.2382 66.4417 55.9822 67.7059 54.4329 67.7059C52.8837 67.7059 51.6277 66.4417 51.6277 64.8823V59.2351C51.6277 57.6757 52.8837 56.4115 54.4329 56.4115C55.9822 56.4115 57.2382 57.6757 57.2382 59.2351V64.8823Z" fill="#F97316"/>
</svg>
