<svg width="24" height="24" viewBox="0 0 24 24" fill="none" xmlns="http://www.w3.org/2000/svg">
<path d="M12.75 4C12.75 3.58579 12.4142 3.25 12 3.25C11.5858 3.25 11.25 3.58579 11.25 4H12.75ZM11.25 5C11.25 5.41421 11.5858 5.75 12 5.75C12.4142 5.75 12.75 5.41421 12.75 5H11.25ZM18 15.25C17.5858 15.25 17.25 15.5858 17.25 16C17.25 16.4142 17.5858 16.75 18 16.75V15.25ZM20 16.75C20.4142 16.75 20.75 16.4142 20.75 16C20.75 15.5858 20.4142 15.25 20 15.25V16.75ZM12 16V15.25C11.5858 15.25 11.25 15.5858 11.25 16H12ZM14 16.75C14.4142 16.75 14.75 16.4142 14.75 16C14.75 15.5858 14.4142 15.25 14 15.25V16.75ZM11.25 20C11.25 20.4142 11.5858 20.75 12 20.75C12.4142 20.75 12.75 20.4142 12.75 20H11.25ZM12.75 9C12.75 8.58579 12.4142 8.25 12 8.25C11.5858 8.25 11.25 8.58579 11.25 9H12.75ZM12 12H11.25C11.25 12.4142 11.5858 12.75 12 12.75V12ZM16 19.25C15.5858 19.25 15.25 19.5858 15.25 20C15.25 20.4142 15.5858 20.75 16 20.75V19.25ZM20 20.75C20.4142 20.75 20.75 20.4142 20.75 20C20.75 19.5858 20.4142 19.25 20 19.25V20.75ZM4 11.25C3.58579 11.25 3.25 11.5858 3.25 12C3.25 12.4142 3.58579 12.75 4 12.75V11.25ZM8 12.75C8.41421 12.75 8.75 12.4142 8.75 12C8.75 11.5858 8.41421 11.25 8 11.25V12.75ZM12.01 12.75C12.4242 12.75 12.76 12.4142 12.76 12C12.76 11.5858 12.4242 11.25 12.01 11.25V12.75ZM16.01 12.75C16.4242 12.75 16.76 12.4142 16.76 12C16.76 11.5858 16.4242 11.25 16.01 11.25V12.75ZM20 11.25C19.5858 11.25 19.25 11.5858 19.25 12C19.25 12.4142 19.5858 12.75 20 12.75V11.25ZM20.01 12.75C20.4242 12.75 20.76 12.4142 20.76 12C20.76 11.5858 20.4242 11.25 20.01 11.25V12.75ZM5 4.75H7V3.25H5V4.75ZM7.25 5V7H8.75V5H7.25ZM7 7.25H5V8.75H7V7.25ZM4.75 7V5H3.25V7H4.75ZM5 7.25C4.86193 7.25 4.75 7.13807 4.75 7H3.25C3.25 7.9665 4.0335 8.75 5 8.75V7.25ZM7.25 7C7.25 7.13807 7.13807 7.25 7 7.25V8.75C7.9665 8.75 8.75 7.9665 8.75 7H7.25ZM7 4.75C7.13807 4.75 7.25 4.86193 7.25 5H8.75C8.75 4.0335 7.9665 3.25 7 3.25V4.75ZM5 3.25C4.0335 3.25 3.25 4.0335 3.25 5H4.75C4.75 4.86193 4.86193 4.75 5 4.75V3.25ZM17 4.75H19V3.25H17V4.75ZM19.25 5V7H20.75V5H19.25ZM19 7.25H17V8.75H19V7.25ZM16.75 7V5H15.25V7H16.75ZM17 7.25C16.8619 7.25 16.75 7.13807 16.75 7H15.25C15.25 7.9665 16.0335 8.75 17 8.75V7.25ZM19.25 7C19.25 7.13807 19.1381 7.25 19 7.25V8.75C19.9665 8.75 20.75 7.9665 20.75 7H19.25ZM19 4.75C19.1381 4.75 19.25 4.86193 19.25 5H20.75C20.75 4.0335 19.9665 3.25 19 3.25V4.75ZM17 3.25C16.0335 3.25 15.25 4.0335 15.25 5H16.75C16.75 4.86193 16.8619 4.75 17 4.75V3.25ZM5 16.75H7V15.25H5V16.75ZM7.25 17V19H8.75V17H7.25ZM7 19.25H5V20.75H7V19.25ZM4.75 19V17H3.25V19H4.75ZM5 19.25C4.86193 19.25 4.75 19.1381 4.75 19H3.25C3.25 19.9665 4.0335 20.75 5 20.75V19.25ZM7.25 19C7.25 19.1381 7.13807 19.25 7 19.25V20.75C7.9665 20.75 8.75 19.9665 8.75 19H7.25ZM7 16.75C7.13807 16.75 7.25 16.8619 7.25 17H8.75C8.75 16.0335 7.9665 15.25 7 15.25V16.75ZM5 15.25C4.0335 15.25 3.25 16.0335 3.25 17H4.75C4.75 16.8619 4.86193 16.75 5 16.75V15.25ZM11.25 4V5H12.75V4H11.25ZM18 16.75H20V15.25H18V16.75ZM12 16.75H14V15.25H12V16.75ZM11.25 16V20H12.75V16H11.25ZM11.25 9V12H12.75V9H11.25ZM16 20.75H20V19.25H16V20.75ZM4 12.75H8V11.25H4V12.75ZM12 12.75H12.01V11.25H12V12.75ZM20 12.75H20.01V11.25H20V12.75ZM12 12.75H16.01V11.25H12V12.75Z" fill="#6B7280"/>
</svg>
