<svg width="20" height="20" viewBox="0 0 20 20" fill="none" xmlns="http://www.w3.org/2000/svg">
<path d="M7.5 7.5H7.5075M12.5 12.5H12.5075M12.5 7.5L7.5 12.5M5.625 17.5L6.875 16.25L8.125 17.5L9.375 16.25L10.625 17.5L11.875 16.25L13.125 17.5L14.375 16.25V3.75L13.125 2.5L11.875 3.75L10.625 2.5L9.375 3.75L8.125 2.5L6.875 3.75L5.625 2.5V16.25L6.875 17.5L5.625 17.5ZM8.125 7.5C8.125 7.84518 7.84518 8.125 7.5 8.125C7.15482 8.125 6.875 7.84518 6.875 7.5C6.875 7.15482 7.15482 6.875 7.5 6.875C7.84518 6.875 8.125 7.15482 8.125 7.5ZM13.125 12.5C13.125 12.8452 12.8452 13.125 12.5 13.125C12.1548 13.125 11.875 12.8452 11.875 12.5C11.875 12.1548 12.1548 11.875 12.5 11.875C12.8452 11.875 13.125 12.1548 13.125 12.5Z" stroke="#6B7280" stroke-width="1.5" stroke-linecap="round" stroke-linejoin="round"/>
</svg>
