<svg width="150" height="33" viewBox="0 0 99 22" fill="none" xmlns="http://www.w3.org/2000/svg">
<path d="M16.7682 11.1009V14.4545C16.7682 16.3661 15.2255 17.9423 13.2804 17.9423C11.3353 17.9423 9.79256 16.3661 9.79256 14.4545V11.1009H5.96942V14.4545C5.96942 18.4789 9.25602 21.7655 13.2804 21.7655C17.3048 21.7655 20.5914 18.4789 20.5914 14.4545V11.1009H16.7682Z" fill="#23B89A"/>
<path d="M9.79266 0H0L1.17378 3.82318H9.79266V0Z" fill="#94A4A4"/>
<path d="M22.9055 0H16.7683V3.82318H22.9055C23.4421 3.82318 23.8445 4.25915 23.8445 4.7622C23.8445 5.29878 23.4085 5.70122 22.9055 5.70122H16.7683V9.52439H22.9055C25.5549 9.52439 27.7012 7.37805 27.7012 4.72866C27.6677 2.14634 25.5549 0 22.9055 0Z" fill="#94A4A4"/>
<path d="M9.79272 5.73505H1.91165L3.08543 9.55821H9.79272V5.73505Z" fill="#94A4A4"/>
<path d="M44.0333 11.1343H40.6126L39.5729 6.47272C39.5394 6.2715 39.4388 5.9026 39.3382 5.29894C39.2375 4.72882 39.1705 4.22577 39.1034 3.85687C39.0699 4.15869 39.0028 4.56113 38.9022 5.03065C38.8016 5.50016 38.7345 5.93614 38.6339 6.33858C38.5332 6.74102 38.1979 8.31723 37.5607 11.1343H34.14L31.4906 0.436142H34.2741L35.4479 5.80199C35.7162 6.97577 35.8839 7.91479 35.9845 8.61906C36.0516 8.11601 36.1522 7.44528 36.3199 6.60687C36.4875 5.76845 36.6217 5.03065 36.7893 4.49407L37.7284 0.436142H40.4113L41.3168 4.49407C41.4845 5.13126 41.6187 5.9026 41.7863 6.74101C41.954 7.57943 42.0546 8.21663 42.1217 8.6526C42.1888 8.11602 42.3565 7.17699 42.6248 5.83553L43.7985 0.469681H46.5821L44.0333 11.1343Z" fill="#23B89A"/>
<path d="M55.8046 3.85683C55.8046 5.06414 55.4357 5.96964 54.7314 6.64037C54.0271 7.27756 53.021 7.61293 51.7131 7.61293H50.9083V11.1678H48.0241V0.469643H51.7131C53.0546 0.469643 54.0942 0.771464 54.765 1.34159C55.4692 1.91171 55.8046 2.75012 55.8046 3.85683ZM50.9083 5.23183H51.4449C51.8808 5.23183 52.2162 5.09768 52.4845 4.86292C52.7528 4.62817 52.8534 4.2928 52.8534 3.85683C52.8534 3.11902 52.4509 2.78366 51.646 2.78366H50.9083V5.23183Z" fill="#23B89A"/>
<path d="M70.4936 0.436096V6.87511C70.4936 8.28365 70.0912 9.35682 69.3198 10.1282C68.5149 10.8995 67.3747 11.2684 65.8991 11.2684C64.457 11.2684 63.3168 10.8995 62.5454 10.1617C61.7741 9.4239 61.3716 8.35072 61.3716 6.94219V0.436096H64.2893V6.70743C64.2893 7.47877 64.4235 8.01536 64.7253 8.35073C64.9936 8.68609 65.4296 8.85378 65.9661 8.85378C66.5698 8.85378 66.9723 8.68609 67.2406 8.35073C67.5088 8.01536 67.643 7.44524 67.643 6.6739V0.402557H70.4936V0.436096Z" fill="#23B89A"/>
<path d="M79.7162 7.88132C79.7162 8.55205 79.5485 9.12218 79.2131 9.65876C78.8777 10.1618 78.4083 10.5643 77.7711 10.8661C77.1339 11.1679 76.396 11.3021 75.5241 11.3021C74.8198 11.3021 74.2162 11.2685 73.7467 11.1679C73.2772 11.0673 72.7742 10.8996 72.2376 10.6313V8.049C72.7742 8.31729 73.3778 8.55205 73.9479 8.71973C74.518 8.88741 75.0882 8.95449 75.5912 8.95449C76.0272 8.95449 76.329 8.88741 76.5302 8.71973C76.7314 8.58559 76.8321 8.38437 76.8321 8.14962C76.8321 8.01547 76.7985 7.88132 76.6979 7.78071C76.5973 7.6801 76.4967 7.54596 76.2954 7.44535C76.1278 7.34474 75.6583 7.10998 74.8869 6.77462C74.1827 6.47279 73.6796 6.13742 73.3107 5.86912C72.9754 5.5673 72.7071 5.23194 72.5394 4.8295C72.3717 4.4606 72.2711 3.99108 72.2711 3.4545C72.2711 2.48194 72.64 1.7106 73.3442 1.14048C74.0485 0.603892 75.0546 0.302063 76.2954 0.302063C77.4022 0.302063 78.5424 0.570351 79.6827 1.0734L78.8107 3.32035C77.8046 2.85084 76.9327 2.64962 76.2284 2.64962C75.8595 2.64962 75.5912 2.71669 75.4235 2.85083C75.2559 2.98498 75.1552 3.15266 75.1552 3.35388C75.1552 3.5551 75.2558 3.75632 75.4906 3.92401C75.6918 4.09169 76.2955 4.39352 77.2681 4.8295C78.1735 5.23194 78.8443 5.70145 79.1796 6.17096C79.5485 6.5734 79.7162 7.17705 79.7162 7.88132Z" fill="#23B89A"/>
<path d="M87.7314 11.1343H81.3929V0.436142H87.7314V2.75016H84.2771V4.42699H87.4966V6.74101H84.2771V8.75321H87.7314V11.1343Z" fill="#23B89A"/>
<path d="M92.4936 7.24406V11.1343H89.6094V0.436142H93.0973C96.015 0.436142 97.4571 1.47577 97.4571 3.58858C97.4571 4.82943 96.8533 5.76846 95.646 6.47272L98.765 11.1343H95.4783L93.1979 7.24406H92.4936ZM92.4936 5.06418H93.0302C94.0363 5.06418 94.5394 4.62821 94.5394 3.72272C94.5394 2.98492 94.0363 2.61602 93.0637 2.61602H92.4936V5.06418Z" fill="#23B89A"/>
<path d="M33.0672 20.993H31.7592V14.7552H35.3141V15.8284H33.0336V17.4382H35.1464V18.5113H33.0336V20.993H33.0672Z" fill="#94A4A4"/>
<path d="M37.8629 18.5791V20.9602H36.5549V14.7224H38.3659C39.2044 14.7224 39.8415 14.8901 40.2439 15.1919C40.6464 15.4937 40.8476 15.9632 40.8476 16.6004C40.8476 16.9693 40.747 17.3047 40.5458 17.573C40.3446 17.8748 40.0427 18.0761 39.6738 18.2437C40.6129 19.6523 41.2165 20.5578 41.5183 20.9602H40.0428L38.5671 18.5791H37.8629V18.5791ZM37.8629 17.5059H38.2988C38.7012 17.5059 39.0366 17.4389 39.2378 17.3047C39.4391 17.1706 39.5397 16.9358 39.5397 16.634C39.5397 16.3321 39.4391 16.1309 39.2378 15.9968C39.0366 15.8626 38.7348 15.7956 38.2988 15.7956H37.8964V17.5059H37.8629Z" fill="#94A4A4"/>
<path d="M47.9574 17.8749C47.9574 18.9145 47.6891 19.6859 47.186 20.256C46.683 20.8261 45.9452 21.0944 44.9727 21.0944C44.0336 21.0944 43.2958 20.8261 42.7592 20.256C42.2562 19.6859 41.9879 18.9145 41.9879 17.8749C41.9879 16.8352 42.2562 16.0304 42.7592 15.4938C43.2623 14.9572 44.0001 14.6889 44.9727 14.6889C45.9452 14.6889 46.6495 14.9572 47.1525 15.5273C47.7226 16.0304 47.9574 16.8352 47.9574 17.8749ZM43.4299 17.8749C43.4299 18.5791 43.5641 19.0822 43.8324 19.4511C44.1007 19.82 44.5031 19.9877 45.0061 19.9877C46.0458 19.9877 46.5824 19.2834 46.5824 17.8749C46.5824 16.4663 46.0458 15.7621 45.0061 15.7621C44.4696 15.7621 44.1007 15.9298 43.8324 16.2987C43.5641 16.6676 43.4299 17.1706 43.4299 17.8749Z" fill="#94A4A4"/>
<path d="M54.7989 20.9937H53.122L50.4056 16.2651H50.372C50.4391 17.1035 50.4391 17.7071 50.4391 18.0425V20.9602H49.2654V14.7224H50.9422L53.6586 19.384H53.6922C53.6586 18.5791 53.6251 18.009 53.6251 17.6736V14.7224H54.7989V20.9937Z" fill="#94A4A4"/>
<path d="M58.7561 20.9937H57.4482V15.8626H55.7714V14.7559H60.4665V15.8626H58.7897V20.9937H58.7561Z" fill="#94A4A4"/>
<path d="M64.994 20.9937H61.4056V14.7559H64.994V15.8291H62.7135V17.2041H64.8263V18.2772H62.7135V19.887H64.994V20.9937Z" fill="#94A4A4"/>
<path d="M71.8354 20.9937H70.1586L67.4422 16.2651H67.4086C67.4757 17.1035 67.4757 17.7071 67.4757 18.0425V20.9602H66.3019V14.7224H67.9787L70.6952 19.384H70.7288C70.6953 18.5791 70.6617 18.009 70.6617 17.6736V14.7224H71.8354V20.9937Z" fill="#94A4A4"/>
<path d="M78.5763 17.8078C78.5763 18.8474 78.2744 19.6187 77.7043 20.1553C77.1342 20.6919 76.2622 20.9602 75.189 20.9602H73.4117V14.7224H75.3567C76.3628 14.7224 77.1677 14.9907 77.7379 15.5273C78.2744 16.0974 78.5763 16.8352 78.5763 17.8078ZM77.2012 17.8413C77.2012 16.4998 76.5976 15.8291 75.4239 15.8291H74.7196V19.887H75.2897C76.5641 19.887 77.2012 19.2163 77.2012 17.8413Z" fill="#94A4A4"/>
<path d="M86.4238 16.701C86.4238 17.3718 86.2226 17.8748 85.7866 18.2437C85.3506 18.6126 84.7805 18.7803 84.0092 18.7803H83.4391V20.9937H82.1312V14.7559H84.1098C84.8811 14.7559 85.4513 14.9236 85.8202 15.2589C86.2226 15.5608 86.4238 16.0638 86.4238 16.701ZM83.4391 17.6736H83.875C84.2775 17.6736 84.5793 17.6065 84.7805 17.4388C84.9817 17.2711 85.0823 17.0364 85.0823 16.7346C85.0823 16.4327 84.9818 16.198 84.8141 16.0638C84.6464 15.9297 84.3781 15.8291 84.0092 15.8291H83.4055V17.6736H83.4391Z" fill="#94A4A4"/>
<path d="M88.9055 18.5791V20.9602H87.5976V14.7224H89.4086C90.247 14.7224 90.8841 14.8901 91.2866 15.1919C91.689 15.4937 91.8902 15.9632 91.8902 16.6004C91.8902 16.9693 91.7897 17.3047 91.5885 17.573C91.3872 17.8748 91.0854 18.0761 90.7165 18.2437C91.6555 19.6523 92.2591 20.5578 92.561 20.9602H91.0854L89.6098 18.5791H88.9055V18.5791ZM88.9055 17.5059H89.3415C89.744 17.5059 90.0793 17.4389 90.2805 17.3047C90.4817 17.1706 90.5824 16.9358 90.5824 16.634C90.5824 16.3321 90.4817 16.1309 90.2805 15.9968C90.0793 15.8626 89.7775 15.7956 89.3415 15.7956H88.939V17.5059H88.9055Z" fill="#94A4A4"/>
<path d="M99 17.8749C99 18.9145 98.7317 19.6859 98.2287 20.256C97.7257 20.8261 96.9878 21.0944 96.0153 21.0944C95.0762 21.0944 94.3384 20.8261 93.8018 20.256C93.2988 19.6859 93.0305 18.9145 93.0305 17.8749C93.0305 16.8352 93.2988 16.0304 93.8018 15.4938C94.3049 14.9572 95.0427 14.6889 96.0153 14.6889C96.9878 14.6889 97.6921 14.9572 98.1951 15.5273C98.7652 16.0304 99 16.8352 99 17.8749ZM94.4725 17.8749C94.4725 18.5791 94.6068 19.0822 94.8751 19.4511C95.1433 19.82 95.5458 19.9877 96.0488 19.9877C97.0885 19.9877 97.625 19.2834 97.625 17.8749C97.625 16.4663 97.0885 15.7621 96.0488 15.7621C95.5122 15.7621 95.1433 15.9298 94.8751 16.2987C94.6068 16.6676 94.4725 17.1706 94.4725 17.8749Z" fill="#94A4A4"/>
</svg>
