<svg width="77" height="76" viewBox="0 0 77 76" fill="none" xmlns="http://www.w3.org/2000/svg">
<path d="M76.3087 38.0003C76.3087 17.0135 59.2956 0.000377231 38.3088 0.000378148C17.322 0.000379066 0.308835 17.0135 0.308836 38.0003C0.308837 58.9871 17.322 76.0002 38.3088 76.0002C59.2956 76.0002 76.3087 58.9871 76.3087 38.0003Z" fill="#B6BAFF"/>
<mask id="mask0_4542_5016" style="mask-type:alpha" maskUnits="userSpaceOnUse" x="0" y="0" width="77" height="77">
<path d="M76.3087 38.0006C76.3087 17.0138 59.2956 0.000621372 38.3088 0.000622289C17.322 0.000623206 0.308835 17.0138 0.308836 38.0006C0.308837 58.9873 17.322 76.0005 38.3088 76.0005C59.2956 76.0005 76.3087 58.9873 76.3087 38.0006Z" fill="#00FFDF"/>
</mask>
<g mask="url(#mask0_4542_5016)">
<path d="M45.3952 36.3901H33.5233C30.0291 36.3901 27.0576 33.3805 26.5279 29.3051L25.4397 20.9318C24.7827 15.8748 28.0989 11.3154 32.4351 11.3154H46.5782C50.9513 11.3154 54.2775 15.9493 53.5585 21.039L52.3756 29.4123C51.807 33.4388 48.855 36.3901 45.3952 36.3901Z" fill="#2E2E2E"/>
<path d="M49.0839 28.8507C47.6333 31.1808 47.7731 33.9416 49.3973 35.0167C51.0216 36.0918 53.5141 35.0737 54.9653 32.7436C56.4165 30.4135 56.2761 27.6527 54.6519 26.5776C53.0282 25.5025 50.5351 26.5206 49.0839 28.8507Z" fill="#F5F5FF" stroke="#2E2E2E" stroke-width="0.313817" stroke-miterlimit="10" stroke-linecap="round" stroke-linejoin="round"/>
<path d="M53.4302 27.6965C54.1335 27.9711 54.6683 28.6394 54.7817 29.3854C54.8958 30.132 54.5849 30.9287 53.995 31.4008" stroke="#2E2E2E" stroke-width="0.313817" stroke-miterlimit="10" stroke-linecap="round" stroke-linejoin="round"/>
<path d="M29.4963 28.8507C30.947 31.1808 30.8072 33.9416 29.1829 35.0167C27.5587 36.0918 25.0662 35.0737 23.6149 32.7436C22.1637 30.4135 22.3041 27.6527 23.9284 26.5776C25.5526 25.5025 28.0451 26.5206 29.4963 28.8507Z" fill="#F5F5FF" stroke="#2E2E2E" stroke-width="0.313817" stroke-miterlimit="10" stroke-linecap="round" stroke-linejoin="round"/>
<path d="M25.15 27.6965C24.4467 27.9711 23.9119 28.6394 23.7985 29.3854C23.6844 30.132 23.9953 30.9287 24.5852 31.4008" stroke="#2E2E2E" stroke-width="0.313817" stroke-miterlimit="10" stroke-linecap="round" stroke-linejoin="round"/>
<path d="M47.3618 56.9831C47.5022 61.1945 44.1314 64.6769 39.92 64.6769C35.7927 64.6769 32.4714 61.3274 32.4714 57.2352C32.4714 57.1512 32.4714 57.0671 32.4783 56.9831L33.3052 45.8842L33.5152 43.0745L33.9283 37.5598H45.9037L46.5625 46.2766L47.032 52.6182L47.3618 56.9831Z" fill="#F5F5FF" stroke="#2E2E2E" stroke-width="0.350365" stroke-miterlimit="10" stroke-linecap="round" stroke-linejoin="round"/>
<path d="M47.032 52.6182C43.1008 52.8984 38.7709 50.9431 35.7995 47.1455C34.7977 45.8704 34.0336 44.49 33.5151 43.0745L33.9283 37.5598H45.9036L46.5625 46.2766L47.032 52.6182Z" fill="#2E2E2E"/>
<path d="M52.7731 32.6172C52.7731 35.8432 51.4548 38.9318 49.1203 41.1598L45.5615 44.3544C44.482 45.5342 42.9568 46.2062 41.3563 46.2062H38.042C36.4541 46.2062 34.9477 45.5473 33.862 44.392L30.2279 41.166C27.8489 38.9318 26.5061 35.8181 26.5061 32.5608L26.5625 31.5754L26.8891 25.9265L27.1336 21.7402C27.1336 14.7793 32.7323 9.13672 39.6368 9.13672C43.0953 9.13672 46.2209 10.5491 48.4809 12.8272C50.747 15.1059 52.1462 18.2566 52.1462 21.7402L52.4221 26.5045L52.6922 31.2055L52.7731 32.6172Z" fill="#F5F5FF" stroke="#2E2E2E" stroke-width="0.313817" stroke-miterlimit="10" stroke-linecap="round" stroke-linejoin="round"/>
<path d="M52.4214 26.5039H52.0321C50.1991 23.8177 49.0193 26.954 48.63 23.728C48.3855 21.7132 45.5231 21.0356 43.5021 21.255C42.5918 22.6297 40.9914 23.5274 39.3408 23.5776C37.6902 23.6277 36.071 22.5232 35.0793 21.1986C33.0645 20.9792 30.1896 21.6568 29.9451 23.6716C29.5809 26.6907 28.5265 23.3594 26.8884 25.9265L27.1329 21.7402C27.1329 14.7793 32.7316 9.13672 39.6361 9.13672C43.0946 9.13672 46.2202 10.5491 48.4801 12.8272C50.7463 15.1059 52.1455 18.2566 52.1455 21.7402L52.4214 26.5039Z" fill="#2E2E2E"/>
<path d="M66.0062 100.494L63.3307 93.9943L61.1887 88.7868L59.3832 84.3936L55.4157 74.7521C53.3263 69.6794 55.38 64.0594 59.8854 62.516C60.6721 62.2464 61.4776 62.1248 62.2763 62.1311C62.3503 62.1317 62.4236 62.1323 62.4976 62.1392C65.9912 62.2652 69.3663 64.8593 70.7192 68.8199L73.9307 78.2075L75.3687 82.417L81.5811 100.607" fill="#F5F5FF"/>
<path d="M66.0062 100.494L63.3307 93.9943L61.1887 88.7868L59.3832 84.3936L55.4157 74.7521C53.3263 69.6794 55.38 64.0594 59.8854 62.516C60.6721 62.2464 61.4776 62.1248 62.2763 62.1311C62.3503 62.1317 62.4236 62.1323 62.4976 62.1392C65.9912 62.2652 69.3663 64.8593 70.7192 68.8199L73.9307 78.2075L75.3687 82.417L81.5811 100.607" stroke="#2E2E2E" stroke-width="0.335382" stroke-miterlimit="10" stroke-linecap="round" stroke-linejoin="round"/>
<path d="M77.4336 78.6984C76.3804 77.3638 71.3697 78.2019 65.9096 80.6637C60.188 83.2465 56.1365 86.6335 56.8674 88.2364C56.8806 88.2697 56.9007 88.2966 56.9276 88.3305L56.8674 88.3574L54.3123 82.3745C55.4526 80.5502 58.9474 78.0483 63.4277 76.0292C67.962 73.983 72.1947 73.0107 74.2941 73.4L77.4336 78.6984Z" fill="#F5F5FF" stroke="#2E2E2E" stroke-width="0.313817" stroke-miterlimit="10" stroke-linecap="round" stroke-linejoin="round"/>
<path d="M73.8988 73.8055C71.7994 73.4163 67.5666 74.3892 63.0324 76.4347C58.5514 78.4539 55.0572 80.9558 53.9169 82.78L50.1537 73.9598C47.6788 68.1511 50.355 61.5237 55.9825 59.5584C57.0488 59.1829 58.1358 59.0017 59.2153 59.0017C63.0719 59.0017 66.768 61.2892 68.6662 64.9916L73.8988 73.8055Z" fill="#EDFFBC" stroke="#2E2E2E" stroke-width="0.335382" stroke-miterlimit="10" stroke-linecap="round" stroke-linejoin="round"/>
<path d="M13.3755 100.494L16.0511 93.994L18.1931 88.7865L19.9992 84.3933L23.9667 74.7519C26.0561 69.6791 24.0024 64.0591 19.497 62.5158C18.7103 62.2462 17.9048 62.1246 17.1061 62.1308C17.0321 62.1315 16.9588 62.1321 16.8848 62.139C13.3912 62.265 10.0155 64.859 8.66326 68.8197L5.45173 78.2073L4.01368 82.4168L-2.19873 100.607" fill="#F5F5FF"/>
<path d="M13.3755 100.494L16.0511 93.994L18.1931 88.7865L19.9992 84.3933L23.9667 74.7519C26.0561 69.6791 24.0024 64.0591 19.497 62.5158C18.7103 62.2462 17.9048 62.1246 17.1061 62.1308C17.0321 62.1315 16.9588 62.1321 16.8848 62.139C13.3912 62.265 10.0155 64.859 8.66326 68.8197L5.45173 78.2073L4.01368 82.4168L-2.19873 100.607" stroke="#2E2E2E" stroke-width="0.335382" stroke-miterlimit="10" stroke-linecap="round" stroke-linejoin="round"/>
<path d="M1.94751 78.6982C3.00067 77.3636 8.01134 78.2017 13.4715 80.6635C19.193 83.2462 23.2446 86.6333 22.5137 88.2362C22.5005 88.2694 22.4804 88.2964 22.4535 88.3302L22.5137 88.3572L25.0695 82.3742C23.9292 80.55 20.4343 78.0481 15.954 76.0289C11.4197 73.9828 7.187 73.0105 5.08757 73.3998L1.94751 78.6982Z" fill="#F5F5FF" stroke="#2E2E2E" stroke-width="0.313817" stroke-miterlimit="10" stroke-linecap="round" stroke-linejoin="round"/>
<path d="M4.69141 73.8053C6.79084 73.416 11.0236 74.3889 15.5578 76.4344C20.0388 78.4536 23.533 80.9555 24.6733 82.7798L28.4365 73.9595C30.9114 68.1508 28.2353 61.5234 22.6077 59.5581C21.5414 59.1826 20.4544 59.0015 19.3749 59.0015C15.5183 59.0015 11.8222 61.289 9.92401 64.9913L4.69141 73.8053Z" fill="#EDFFBC" stroke="#2E2E2E" stroke-width="0.335382" stroke-miterlimit="10" stroke-linecap="round" stroke-linejoin="round"/>
<path d="M63.644 100.807H15.8123L16.0605 93.7974L16.2348 88.7397L16.4561 82.5285L17.167 62.4727L17.2741 59.4881L18.8169 58.9308L27.7851 55.6911L29.5159 55.0673L30.3741 54.752L32.6146 53.5471H33.2923H46.238H46.5063L49.0214 54.705L49.8733 55.014L51.6041 55.6378L60.8337 58.9715L62.2561 59.4881L62.3564 62.4796L62.7388 73.7754L63.0272 82.4082L63.2353 88.6525V88.6864L63.4227 94.3271L63.644 100.807Z" fill="#EDFFBC" stroke="#2E2E2E" stroke-width="0.335382" stroke-miterlimit="10" stroke-linecap="round" stroke-linejoin="round"/>
<path d="M46.9545 53.2662L48.8282 54.5595L49.645 54.8535C49.0345 59.725 44.8763 63.4857 39.8356 63.4857C34.8167 63.4857 30.6662 59.747 30.0261 54.9049L30.858 54.6034L32.8264 53.0945" fill="#F5F5FF"/>
<path d="M46.9545 53.2662L48.8282 54.5595L49.645 54.8535C49.0345 59.725 44.8763 63.4857 39.8356 63.4857C34.8167 63.4857 30.6662 59.747 30.0261 54.9049L30.858 54.6034L32.8264 53.0945" stroke="#2E2E2E" stroke-width="0.323221" stroke-miterlimit="10" stroke-linecap="round" stroke-linejoin="round"/>
<path d="M23.7449 57.1946V100.598" stroke="#2E2E2E" stroke-width="0.289745" stroke-miterlimit="10" stroke-linecap="round" stroke-linejoin="round"/>
<path d="M32.0686 59.8044V100.598" stroke="#2E2E2E" stroke-width="0.289745" stroke-miterlimit="10" stroke-linecap="round" stroke-linejoin="round"/>
<path d="M39.7999 63.5581L39.7974 100.599" stroke="#2E2E2E" stroke-width="0.289745" stroke-miterlimit="10" stroke-linecap="round" stroke-linejoin="round"/>
<path d="M48.1211 59.0806V100.598" stroke="#2E2E2E" stroke-width="0.289745" stroke-miterlimit="10" stroke-linecap="round" stroke-linejoin="round"/>
<path d="M55.8506 57.1946V100.598" stroke="#2E2E2E" stroke-width="0.289745" stroke-miterlimit="10" stroke-linecap="round" stroke-linejoin="round"/>
</g>
</svg>
