<svg width="117" height="116" viewBox="0 0 117 116" fill="none" xmlns="http://www.w3.org/2000/svg">
<path d="M116.691 57.9999C116.691 25.9674 90.7238 -3.65856e-05 58.6913 -3.51854e-05C26.6588 -3.37852e-05 0.691402 25.9674 0.691404 57.9999C0.691405 90.0323 26.6588 116 58.6913 116C90.7238 116 116.691 90.0323 116.691 57.9999Z" fill="#FFBD6B"/>
<mask id="mask0_4542_4968" style="mask-type:alpha" maskUnits="userSpaceOnUse" x="0" y="0" width="117" height="116">
<path d="M116.691 58.0001C116.691 25.9676 90.7238 0.000207555 58.6913 0.000208955C26.6588 0.000210355 0.691402 25.9676 0.691404 58.0001C0.691405 90.0326 26.6588 116 58.6913 116C90.7238 116 116.691 90.0326 116.691 58.0001Z" fill="#FFB900"/>
</mask>
<g mask="url(#mask0_4542_4968)">
<path d="M95.0054 149.686H21.999L22.377 138.987L22.6439 131.268L22.9817 121.788L24.0667 91.1751L24.2303 86.6197L26.5851 85.77L40.2733 80.8252L42.9151 79.8731L44.225 79.3919L47.6447 78.1633L48.679 77.7844H68.4383L68.8478 77.9375L72.6866 79.3201L73.9869 79.7909L76.6287 80.7429L90.716 85.8313L92.8861 86.6197L93.0401 91.1856L93.6238 108.427L94.0639 121.603L94.3816 131.135V131.186L94.6677 139.796L95.0054 149.686Z" fill="#3B4EFF"/>
<path d="M116.056 116.396C114.443 114.36 106.802 115.642 98.4605 119.397C89.7352 123.336 83.5484 128.506 84.6583 130.951C84.6851 131.004 84.711 131.044 84.7511 131.097L84.6583 131.137L75.0212 108.543C71.2399 99.6727 75.3255 89.5591 83.9187 86.5585C85.5444 85.9901 87.1968 85.7126 88.8502 85.7126C94.7327 85.7126 100.378 89.2031 103.273 94.8608L116.056 116.396Z" fill="#3B4EFF"/>
<path d="M0.649414 116.396C2.26261 114.36 9.90378 115.642 18.2453 119.397C26.9706 123.336 33.1574 128.506 32.0475 130.951C32.0207 131.004 31.9949 131.044 31.9547 131.097L32.0475 131.137L41.6846 108.543C45.466 99.6727 41.3803 89.5591 32.7871 86.5585C31.1615 85.9901 29.5081 85.7126 27.8557 85.7126C21.9731 85.7126 16.3279 89.2031 13.4325 94.8608L0.649414 116.396Z" fill="#3B4EFF"/>
<path d="M73.7849 50.6551C71.4187 54.4565 71.6474 58.9594 74.2959 60.7123C76.9443 62.4651 81.0108 60.806 83.378 57.0046C85.7452 53.2031 85.5155 48.7013 82.8671 46.9474C80.2176 45.1945 76.1521 46.8536 73.7849 50.6551Z" fill="#F5F5FF" stroke="#2E2E2E" stroke-width="0.511899" stroke-miterlimit="10" stroke-linecap="round" stroke-linejoin="round"/>
<path d="M80.874 48.7715C82.0213 49.2193 82.8929 50.3091 83.0786 51.5262C83.2642 52.7432 82.7571 54.0436 81.7955 54.8138" stroke="#2E2E2E" stroke-width="0.511899" stroke-miterlimit="10" stroke-linecap="round" stroke-linejoin="round"/>
<path d="M41.8348 50.6551C44.201 54.4565 43.9723 58.9594 41.3239 60.7123C38.6754 62.4651 34.6089 60.806 32.2417 57.0046C29.8755 53.2031 30.1042 48.7013 32.7526 46.9474C35.4021 45.1945 39.4686 46.8536 41.8348 50.6551Z" fill="#F5F5FF" stroke="#2E2E2E" stroke-width="0.511899" stroke-miterlimit="10" stroke-linecap="round" stroke-linejoin="round"/>
<path d="M34.7458 48.7715C33.5986 49.2193 32.7269 50.3091 32.5413 51.5262C32.3557 52.7432 32.8628 54.0436 33.8244 54.8138" stroke="#2E2E2E" stroke-width="0.511899" stroke-miterlimit="10" stroke-linecap="round" stroke-linejoin="round"/>
<path d="M69.554 83.255C69.7674 89.6829 64.6235 94.9981 58.1956 94.9981C51.8959 94.9981 46.8267 89.8858 46.8267 83.6397C46.8267 83.5114 46.8267 83.3832 46.8372 83.255L48.0992 66.3145L48.4198 62.026L49.0513 53.6089H67.3294L68.3351 66.9135L69.0517 76.5927L69.554 83.255Z" fill="#F5F5FF" stroke="#2E2E2E" stroke-width="0.534767" stroke-miterlimit="10" stroke-linecap="round" stroke-linejoin="round"/>
<path d="M70.0516 86.5917C64.0514 87.0194 57.4426 84.036 52.9073 78.2386C51.3783 76.2925 50.2119 74.1856 49.4207 72.0251L50.0522 63.6079H68.3303L69.3359 76.9125L70.0516 86.5917Z" fill="#2E2E2E"/>
<path d="M77.8267 61.1087C77.1205 62.941 76.0862 64.8451 74.8471 66.6984C72.4618 70.2511 69.3081 73.5885 66.1554 75.7079C62.6945 78.032 58.1592 78.7898 54.2181 77.4378C51.116 76.3834 48.5566 74.1617 46.2736 71.8174C43.4175 68.8896 40.8063 65.6134 39.3424 61.7842C38.2162 58.8152 37.7244 55.5084 37.5914 52.1299C37.5301 50.3588 37.5608 48.5772 37.643 46.7956C37.7866 43.8677 38.0631 40.9705 38.3186 38.2876C38.9022 31.94 42.7515 25.9101 48.2389 22.6742C53.6239 19.5109 60.4938 19.0402 66.2577 21.4456C72.0216 23.8511 76.5263 29.0724 78.0515 35.1234C79.0753 39.1879 78.8093 43.396 78.8189 47.5314C78.8189 47.7869 78.8189 48.0328 78.8294 48.2892C78.8495 49.5283 78.9117 50.7664 78.9318 52.016C79.0246 55.1094 78.9634 58.1914 77.8267 61.1087Z" fill="#F5F5FF" stroke="#2E2E2E" stroke-width="0.511899" stroke-miterlimit="10" stroke-linecap="round" stroke-linejoin="round"/>
<path d="M55.0648 40.7179C56.8244 40.8002 58.6404 40.5495 60.178 39.7008C61.7156 38.8521 62.9375 37.3432 63.147 35.6123C64.3077 37.9 66.5055 39.6491 69.0123 40.2796C71.5183 40.9102 74.2892 40.4098 76.4067 38.9459C79.0398 37.125 80.5545 33.5771 79.4101 30.6004C78.1481 27.3166 74.3706 25.7771 70.904 25.0241C64.1498 23.5573 57.0511 23.7448 50.3725 25.4786C48.3125 26.0134 42.5792 27.065 41.7956 29.3001C40.9918 31.5927 44.2718 35.263 45.7693 36.6657C48.2771 39.0157 51.5982 40.5552 55.0648 40.7179Z" fill="#2E2E2E"/>
<path d="M78.8199 47.5336C78.2974 47.3183 77.8372 46.9605 77.4689 46.5299C76.8546 45.8238 76.4862 44.9435 76.1791 44.0527C74.807 40.1211 74.7457 35.4834 75.4729 31.3777C70.8151 31.4494 66.3104 28.5522 64.2523 24.3651C58.8778 27.7953 52.6728 29.2181 46.3157 28.9004C46.0803 35.7188 42.7937 42.3534 37.644 46.7968C37.7876 43.869 38.0641 40.9717 38.3196 38.2888C38.9032 31.9412 42.7525 25.9114 48.2399 22.6754C53.6249 19.5121 60.4948 19.0414 66.2587 21.4468C72.0226 23.8523 76.5273 29.0736 78.0525 35.1246C79.0763 39.1891 78.8103 43.3972 78.8199 47.5336Z" fill="#2E2E2E"/>
<path d="M38 47L42.5 52H73.5L79 46.5" stroke="#2E2E2E" stroke-width="0.511899" stroke-miterlimit="10" stroke-linecap="round" stroke-linejoin="round"/>
<path d="M38 49L42.5 54H73.5L79 48.5" stroke="#2E2E2E" stroke-width="0.511899" stroke-miterlimit="10" stroke-linecap="round" stroke-linejoin="round"/>
<ellipse cx="68" cy="53.5" rx="8" ry="6.5" fill="#F5F5FF" stroke="#2E2E2E" stroke-width="0.511899" stroke-miterlimit="10" stroke-linecap="round" stroke-linejoin="round"/>
<ellipse cx="49" cy="53.5" rx="8" ry="6.5" fill="#F5F5FF" stroke="#2E2E2E" stroke-width="0.511899" stroke-miterlimit="10" stroke-linecap="round" stroke-linejoin="round"/>
</g>
</svg>
