<svg width="77" height="76" viewBox="0 0 77 76" fill="none" xmlns="http://www.w3.org/2000/svg">
<path d="M76.6913 38.0001C76.6913 17.0133 59.6781 0.00013309 38.6913 0.000134008C17.7046 0.000134925 0.691404 17.0133 0.691405 38.0001C0.691406 58.9869 17.7046 76 38.6913 76C59.6781 76 76.6913 58.9868 76.6913 38.0001Z" fill="#9BD8EE"/>
<mask id="mask0_4542_4928" style="mask-type:alpha" maskUnits="userSpaceOnUse" x="0" y="0" width="77" height="77">
<path d="M76.6913 38.0003C76.6913 17.0135 59.6781 0.000377231 38.6913 0.000378148C17.7046 0.000379066 0.691404 17.0135 0.691405 38.0003C0.691406 58.9871 17.7046 76.0002 38.6913 76.0002C59.6781 76.0002 76.6913 58.9871 76.6913 38.0003Z" fill="#9BD8EE"/>
</mask>
<g mask="url(#mask0_4542_4928)">
<path d="M18.8039 19.2333C18.2654 17.6836 18.3783 15.8989 19.1073 14.437C19.8364 12.9757 21.1704 11.8593 22.6918 11.4374C22.8529 9.06588 24.8771 7.21533 27.1446 7.30058C27.3289 6.18285 28.2109 5.15225 29.2233 4.75042C30.2351 4.34859 31.4437 4.54857 32.2888 5.25694C32.5596 4.20566 33.2554 3.20954 34.2729 2.98888C35.2903 2.76822 36.4112 3.19262 37.0581 4.04393C37.6047 2.81586 38.824 2.52624 40.1148 2.43409C41.4049 2.34131 42.7201 3.03213 43.4216 4.17118C44.2873 3.08354 45.7154 2.81774 46.9779 3.32301C48.2404 3.82828 49.125 5.22497 49.0786 6.64047C49.8916 5.99604 51.1899 6.19601 52.0995 6.67934C53.0091 7.16266 53.6147 8.21457 53.599 9.28278C54.7331 9.30786 55.7511 9.98301 56.393 10.9622C57.035 11.9414 57.1961 13.2484 56.8118 14.3668C57.9515 14.5185 58.7859 15.8726 59.1626 17.0097C59.5394 18.1469 59.251 19.496 58.4467 20.3554C59.3808 20.9748 59.6973 22.4392 59.866 23.5839C60.0346 24.7285 59.7093 25.9434 58.9965 26.8292C59.7481 27.5552 59.8541 29.1061 59.7161 30.1674C59.5789 31.2287 58.9225 32.201 58.0135 32.6906C58.71 33.4385 58.3401 35.0477 57.8994 35.9855C57.4587 36.9227 56.4231 37.5119 55.432 37.3884C55.7254 38.3777 54.9719 39.8715 54.1764 40.4865C53.3809 41.1021 52.2117 41.124 51.3962 40.5385C51.1467 42.9614 48.2411 45.6225 45.9304 45.3417C45.3518 46.329 44.0109 47.2437 42.9069 47.3107C41.803 47.3778 40.6815 46.8481 39.9976 45.9372C39.5901 47.0092 38.0824 48.1972 36.9816 48.199C35.8802 48.2015 34.812 47.4474 34.4007 46.3773C32.5502 47.4794 29.355 46.2356 28.4679 44.2077C27.6555 45.0377 25.8294 45.4759 24.8659 44.8484C23.9023 44.2202 23.4322 42.8693 23.7832 41.739C22.8799 41.8343 21.7484 41.3353 21.1271 40.6413C20.5065 39.9474 20.2163 38.9425 20.3661 38.004C19.5054 37.8906 18.6773 36.8594 18.3676 36.0106C18.0579 35.1618 18.2303 34.1406 18.7989 33.4541C18.0341 32.8674 17.6906 31.5478 17.6379 30.5561C17.5859 29.5643 17.9777 28.5569 18.676 27.8855C17.3075 26.591 17.1007 23.8359 18.4591 22.5301C17.9125 22.1985 17.7514 21.7226 17.7269 21.0619C17.7037 20.4012 18.2836 19.6075 18.8039 19.2333Z" fill="#2E2E2E"/>
<path d="M49.1915 29.9309C47.6412 32.4215 47.791 35.3716 49.5263 36.52C51.2621 37.6685 53.9257 36.5815 55.4766 34.0909C57.0275 31.6003 56.8777 28.6501 55.1419 27.5017C53.406 26.3526 50.7418 27.4403 49.1915 29.9309Z" fill="#F5F5FF" stroke="#2E2E2E" stroke-width="0.335382" stroke-miterlimit="10" stroke-linecap="round" stroke-linejoin="round"/>
<path d="M53.8354 28.698C54.5871 28.9914 55.1582 29.7054 55.2798 30.5028C55.4014 31.3008 55.0691 32.1521 54.4391 32.6568" stroke="#2E2E2E" stroke-width="0.335382" stroke-miterlimit="10" stroke-linecap="round" stroke-linejoin="round"/>
<path d="M28.2586 29.9309C29.8095 32.4215 29.6597 35.3716 27.9239 36.52C26.188 37.6685 23.5244 36.5815 21.9735 34.0909C20.4226 31.6003 20.573 28.6501 22.3082 27.5017C24.0441 26.3526 26.7077 27.4403 28.2586 29.9309Z" fill="#F5F5FF" stroke="#2E2E2E" stroke-width="0.335382" stroke-miterlimit="10" stroke-linecap="round" stroke-linejoin="round"/>
<path d="M23.6139 28.698C22.8623 28.9914 22.2912 29.7054 22.1696 30.5028C22.048 31.3008 22.3802 32.1521 23.0103 32.6568" stroke="#2E2E2E" stroke-width="0.335382" stroke-miterlimit="10" stroke-linecap="round" stroke-linejoin="round"/>
<path d="M46.1679 58.759C46.3084 62.9704 42.9376 66.4528 38.7262 66.4528C34.5988 66.4528 31.2776 63.1033 31.2776 59.011C31.2776 58.927 31.2776 58.843 31.2845 58.759L32.1113 47.6601L32.3213 44.8504L32.7345 39.3357H44.7098L45.3687 48.0525L45.8382 54.394L46.1679 58.759Z" fill="#F5F5FF" stroke="#2E2E2E" stroke-width="0.350365" stroke-miterlimit="10" stroke-linecap="round" stroke-linejoin="round"/>
<path d="M45.8381 54.3936C41.907 54.6738 37.5771 52.7191 34.6056 48.9209C33.6039 47.6458 32.8397 46.2654 32.3213 44.8499L32.7344 39.3352H44.7097L45.3686 48.052L45.8381 54.3936Z" fill="#2E2E2E"/>
<path d="M51.5452 37.314C51.0788 38.5094 50.4049 39.7607 49.5943 40.9718C48.0321 43.3038 45.9628 45.4923 43.8966 46.8802C41.631 48.3979 38.6615 48.8944 36.0775 48.013C34.0451 47.3209 32.3676 45.8659 30.8681 44.3256C28.9987 42.408 27.2917 40.2609 26.3332 37.7578C25.5891 35.8107 25.2706 33.6448 25.186 31.4269C25.0675 28.3539 25.3966 25.185 25.6599 22.3603C26.0448 18.199 28.5662 14.2491 32.1607 12.1315C35.685 10.0584 40.1904 9.74742 43.9668 11.3247C47.7394 12.9019 50.6901 16.3228 51.6894 20.291C52.404 23.1119 52.1595 26.0407 52.204 28.9169C52.2153 29.7237 52.2523 30.5386 52.2705 31.3529C52.3263 33.3784 52.2855 35.4032 51.5452 37.314Z" fill="#F5F5FF" stroke="#2E2E2E" stroke-width="0.335382" stroke-miterlimit="10" stroke-linecap="round" stroke-linejoin="round"/>
<path d="M52.3188 31.3545V31.4548L52.2448 31.3877C51.3126 30.5759 50.7422 29.4024 50.682 28.1749L50.1924 18.8852C49.7028 18.6908 49.2333 18.4896 48.7568 18.2683C48.046 17.926 47.3551 17.5574 46.7113 17.1612C45.3096 16.3225 44.0884 15.3633 43.1632 14.3779C41.8348 14.7001 40.319 14.8675 38.7762 14.8675C36.9783 14.8675 35.2412 14.6393 33.7524 14.2036C32.8873 15.1696 31.747 16.1018 30.4324 16.9337C29.6814 17.4164 28.8696 17.8659 28.0108 18.2683C27.8227 18.3555 27.6152 18.4495 27.367 18.5567L26.8774 28.1756C26.8103 29.4569 26.2066 30.6505 25.2205 31.4623L25.1466 31.5225L25.1397 31.4285C25.0325 28.5711 25.3139 25.5928 25.5553 22.9699L25.6155 22.3594C25.8637 19.6694 26.9771 17.0935 28.7141 15.0211C29.6802 13.8607 30.8405 12.8615 32.1419 12.0898C35.67 10.0173 40.2112 9.70197 43.9875 11.2848C45.8456 12.0559 47.5156 13.2902 48.844 14.8198C50.2125 16.3827 51.2255 18.2677 51.7352 20.28C52.2849 22.4534 52.2718 24.7202 52.2517 26.9137C52.2448 27.5713 52.2448 28.2552 52.2517 28.9191C52.2586 29.3817 52.2718 29.8581 52.2918 30.3208C52.2987 30.6637 52.3119 31.0059 52.3188 31.3545Z" fill="#2E2E2E"/>
<path d="M48.8439 14.8203C47.5156 13.2907 45.8456 12.057 43.9875 11.2853C40.2111 9.70245 35.67 10.0178 32.1419 12.0903C30.8405 12.8619 29.6801 13.8612 28.7141 15.0216C28.9555 15.4265 29.2589 15.8102 29.6068 16.175C29.6425 17.0207 30.0155 17.8519 30.6399 18.4255C31.3721 19.0975 32.4284 19.3997 33.4051 19.216C33.5925 19.9557 34.4645 20.7168 35.2199 20.8271C35.9747 20.9374 36.7783 20.555 37.1695 19.9C37.5927 20.5544 38.4709 21.128 39.247 21.0622C40.0237 20.9964 40.7446 20.4754 41.0518 19.7595C41.51 20.5331 42.236 21.2076 43.1261 21.0866C44.0169 20.9657 44.8037 20.2748 45.0388 19.4072C46.1603 19.7307 47.4786 19.1953 47.7588 18.0626C47.8905 17.5316 47.7764 16.9705 47.5068 16.496C48.0585 15.9813 48.5161 15.4215 48.8439 14.8203Z" fill="#2E2E2E"/>
<path d="M65.1388 101.551L62.4633 95.0519L60.3212 89.8444L58.5158 85.4512L54.5483 75.8097C52.4589 70.737 54.5125 65.117 59.0179 63.5736C59.8047 63.3041 60.6102 63.1824 61.4089 63.1887C61.4828 63.1893 61.5562 63.19 61.6301 63.1969C65.1238 63.3229 68.4989 65.9169 69.8517 69.8775L73.0632 79.2651L74.5013 83.4746L80.7137 101.665" fill="#F5F5FF"/>
<path d="M65.1388 101.551L62.4633 95.0519L60.3212 89.8444L58.5158 85.4512L54.5483 75.8097C52.4589 70.737 54.5125 65.117 59.0179 63.5736C59.8047 63.3041 60.6102 63.1824 61.4089 63.1887C61.4828 63.1893 61.5562 63.19 61.6301 63.1969C65.1238 63.3229 68.4989 65.9169 69.8517 69.8775L73.0632 79.2651L74.5013 83.4746L80.7137 101.665" stroke="#2E2E2E" stroke-width="0.335382" stroke-miterlimit="10" stroke-linecap="round" stroke-linejoin="round"/>
<path d="M76.5687 79.756C75.5118 78.4219 70.5055 79.262 65.0404 81.7219C59.3238 84.3027 55.2704 87.6898 55.9976 89.2921C56.0151 89.3266 56.0321 89.3529 56.0584 89.3874L55.9976 89.4137L49.6836 74.6111C47.2062 68.7993 49.883 62.1731 55.513 60.2072C56.5781 59.8349 57.6607 59.6531 58.7433 59.6531C62.598 59.6531 66.296 61.9399 68.1929 65.6467L76.5687 79.756Z" fill="#3B4EFF" stroke="#2E2E2E" stroke-width="0.335382" stroke-miterlimit="10" stroke-linecap="round" stroke-linejoin="round"/>
<path d="M-3.3269 101.665L3.0184 83.5277L4.48719 79.322L7.76704 69.9582C9.17564 65.9267 12.6837 63.3308 16.2525 63.3308H16.2995C17.0844 63.3377 17.8693 63.465 18.6403 63.7333C23.1344 65.3093 25.1536 70.9443 23.0272 76.0014L18.9895 85.6134V85.6203L17.1515 89.9934L15.1931 94.6549L12.2486 101.665" fill="#F5F5FF"/>
<path d="M-3.3269 101.665L3.0184 83.5277L4.48719 79.322L7.76704 69.9582C9.17565 65.9267 12.6837 63.3308 16.2525 63.3308H16.2995C17.0844 63.3377 17.8693 63.465 18.6403 63.7333C23.1344 65.3093 25.1536 70.9443 23.0272 76.0014L18.9895 85.6134V85.6203L17.1515 89.9934L15.1931 94.6549L12.2486 101.665" stroke="#2E2E2E" stroke-width="0.335382" stroke-miterlimit="10" stroke-linecap="round" stroke-linejoin="round"/>
<path d="M0.957764 79.8543C2.01469 78.5203 7.02097 79.3604 12.4861 81.8202C18.2027 84.4011 22.2561 87.7882 21.5289 89.3905C21.5114 89.425 21.4944 89.4513 21.4681 89.4858L21.5289 89.5121L27.8429 74.7095C30.3203 68.8977 27.6435 62.2715 22.0135 60.3056C20.9484 59.9333 19.8658 59.7515 18.7832 59.7515C14.9285 59.7515 11.2305 62.0383 9.33354 65.7451L0.957764 79.8543Z" fill="#3B4EFF" stroke="#2E2E2E" stroke-width="0.335382" stroke-miterlimit="10" stroke-linecap="round" stroke-linejoin="round"/>
<path d="M62.6093 101.667H14.7769L15.0251 94.657L15.1994 89.5993L15.4213 83.3882L16.1322 63.3323L16.2406 59.9697L26.7503 56.5507L28.4811 55.9269L29.3393 55.6116L31.5798 54.4067H32.2575H45.2032H45.4715L47.9866 55.5646L48.8385 55.8737L50.5693 56.4974L61.242 59.9697L61.3216 63.3392L61.704 74.635L61.9924 83.2678L62.1999 89.5122V89.546L62.388 95.1867L62.6093 101.667Z" fill="#3B4EFF" stroke="#2E2E2E" stroke-width="0.335382" stroke-miterlimit="10" stroke-linecap="round" stroke-linejoin="round"/>
<path d="M45.9053 54.1069L47.6512 55.419L48.468 55.713C47.8575 60.5845 43.6993 64.3452 38.6586 64.3452C33.6398 64.3452 29.4892 60.6064 28.8491 55.7644L29.681 55.4629L31.6644 53.8674" fill="#F5F5FF"/>
<path d="M45.9053 54.1069L47.6512 55.419L48.468 55.713C47.8575 60.5845 43.6993 64.3452 38.6586 64.3452C33.6398 64.3452 29.4892 60.6064 28.8491 55.7644L29.681 55.4629L31.6644 53.8674" stroke="#2E2E2E" stroke-width="0.335382" stroke-miterlimit="10" stroke-linecap="round" stroke-linejoin="round"/>
</g>
</svg>
